# https://github.com/mikedh/trimesh
v 0.01507928 0.01223935 0.06959999
v 0.01492073 0.01235037 0.06959999
v 0.01052217 0.01223935 0.06959999
v 0.01507928 0.01223935 0.06924731
v 0.01029574 0.01235037 0.06959999
v 0.01287373 0.01378369 0.06949609
v 0.00952177 0.01250013 0.06959853
v 0.00925257 0.01246299 0.06959926
v 0.00925257 0.01246299 0.06212554
v 0.01051932 0.01224134 0.06212554
v 0.01064137 0.01223935 0.06212554
v 0.01507871 0.01223935 0.06212554
v 0.01436749 0.01273775 0.06212554
v 0.00925257 0.01390430 0.06947194
v 0.00925257 0.01389991 0.06947267
v 0.01084100 0.01520703 0.06918292
v 0.00925257 0.01631886 0.06212554
v 0.00930105 0.01628531 0.06212554
v 0.00925257 0.01511837 0.06920340
v 0.00984060 0.01590751 0.06887194
v 0.00925257 0.01589433 0.06887779
v 0.00925257 0.01520703 0.06918292
v 0.00925257 0.01519265 0.06918657
v 0.00925257 0.01631886 0.06854267
v 0.00925257 0.01590751 0.06887194
f 8 9 3
f 4 13 1
f 8 3 5
f 1 16 6
f 17 24 18
f 1 13 18
f 18 16 1
f 10 11 3
f 10 3 9
f 13 4 12
f 20 18 24
f 16 18 20
f 1 6 2
f 8 5 2
f 25 20 24
f 8 2 7
f 7 2 6
f 7 15 8
f 6 15 7
f 21 22 16
f 16 20 21
f 20 25 21
f 16 22 23
f 23 19 16
f 16 19 14
f 14 6 16
f 14 15 6
f 12 4 1
f 1 3 12
f 3 11 12
f 12 9 17
f 17 18 12
f 12 10 9
f 12 18 13
f 11 10 12
f 2 3 1
f 2 5 3
f 17 9 14
f 14 9 8
f 14 24 17
f 8 15 14
f 14 25 24
f 22 21 14
f 14 23 22
f 14 21 25
f 19 23 14

