# https://github.com/mikedh/trimesh
v 0.00757623 0.01749304 0.02729399
v 0.00757623 0.01749304 0.02572593
v 0.00757623 0.01234837 0.02729399
v 0.01420144 0.01285402 0.02729399
v 0.01492430 0.01234837 0.02659999
v 0.00757623 0.01390663 0.02572593
v 0.01492430 0.01234837 0.02572593
v 0.01371377 0.01234837 0.02729399
v 0.00757623 0.01234837 0.02580007
v 0.01421294 0.01284193 0.02729399
v 0.01372672 0.01235592 0.02729399
v 0.01372096 0.01235038 0.02729399
v 0.00980885 0.01234837 0.02572593
f 4 5 1
f 4 10 5
f 5 10 11
f 9 6 13
f 12 8 5
f 5 11 12
f 7 2 1
f 1 5 7
f 1 2 6
f 6 3 1
f 6 9 3
f 3 9 13
f 13 7 5
f 5 8 13
f 13 8 3
f 2 7 13
f 13 6 2
f 1 3 12
f 12 4 1
f 10 4 12
f 3 8 12
f 12 11 10

