# https://github.com/mikedh/trimesh
v 0.00894971 0.01653169 0.02729399
v 0.00894971 0.01653169 0.02572593
v 0.00894971 0.01269522 0.02729399
v 0.01420136 0.01285407 0.02729399
v 0.01421530 0.01284431 0.02659999
v 0.00894971 0.01301030 0.02572593
v 0.01341672 0.01340348 0.02572593
v 0.01405012 0.01269522 0.02729399
v 0.00894971 0.01269522 0.02580007
v 0.01421262 0.01284206 0.02729399
v 0.01442769 0.01269522 0.02659999
v 0.01442769 0.01269522 0.02572593
v 0.00935839 0.01269522 0.02572593
v 0.01406621 0.01269522 0.02729231
f 5 2 1
f 12 5 11
f 11 10 14
f 4 10 11
f 11 5 4
f 4 5 1
f 2 5 7
f 5 12 7
f 13 9 6
f 8 14 10
f 6 9 3
f 6 3 1
f 1 2 6
f 6 12 13
f 2 7 6
f 6 7 12
f 8 12 11
f 3 9 8
f 13 12 8
f 8 9 13
f 11 14 8
f 1 3 8
f 8 4 1
f 10 4 8

