# https://github.com/mikedh/trimesh
v -0.00361222 -0.01733201 0.06644570
v -0.00296999 -0.01733201 0.06644570
v -0.00296999 -0.01730286 0.06676765
v -0.00361222 -0.01730085 0.06677978
v -0.00361222 -0.00706473 0.06644570
v -0.00296999 -0.00706473 0.06644570
v -0.00296999 -0.01729583 0.06682630
v -0.00343580 -0.01729382 0.06683905
v -0.00361222 -0.01729281 0.06683905
v -0.00361222 -0.00706473 0.06683905
v -0.00296999 -0.00706473 0.06683905
v -0.00296999 -0.01729382 0.06683905
f 1 2 3
f 1 3 4
f 8 9 4
f 7 12 8
f 8 4 7
f 7 4 3
f 1 5 6
f 6 2 1
f 10 5 1
f 1 4 10
f 10 4 9
f 10 12 11
f 10 9 8
f 8 12 10
f 10 6 5
f 11 6 10
f 2 6 7
f 7 3 2
f 7 6 11
f 11 12 7

