# https://github.com/mikedh/trimesh
v 0.00364397 -0.01105430 0.05960000
v 0.00364397 -0.01105430 0.06180595
v 0.00364397 -0.01025813 0.05960000
v 0.00789036 -0.01105430 0.05960000
v 0.00364397 -0.01025813 0.06180595
v 0.00761849 -0.01105430 0.06180595
v 0.00789036 -0.01025813 0.05960000
v 0.00789036 -0.01105430 0.06179990
v 0.00756694 -0.01025813 0.06180595
v 0.00789036 -0.01025813 0.06179990
f 6 8 10
f 9 6 10
f 1 3 7
f 7 4 1
f 4 7 8
f 8 7 10
f 5 3 1
f 1 2 5
f 1 4 6
f 6 2 1
f 4 8 6
f 9 7 3
f 10 7 9
f 3 5 9
f 9 5 2
f 2 6 9

