# https://github.com/mikedh/trimesh
v -0.00380784 0.01387308 0.06075355
v -0.00380784 0.01734966 0.06075355
v -0.00353883 0.01387308 0.06075355
v -0.00380784 0.01387308 0.06651542
v -0.00353883 0.01734966 0.06075355
v -0.00380784 0.01734966 0.06631233
v -0.00353883 0.01387308 0.06651542
v -0.00380784 0.01733605 0.06651542
v -0.00353883 0.01734966 0.06630782
v -0.00380784 0.01734660 0.06636085
v -0.00353883 0.01734490 0.06638623
v -0.00353883 0.01734932 0.06631516
v -0.00353883 0.01733605 0.06651542
f 11 8 13
f 8 11 10
f 10 11 6
f 12 9 6
f 6 11 12
f 1 2 5
f 5 3 1
f 1 3 7
f 7 4 1
f 4 7 8
f 8 7 13
f 9 5 2
f 2 6 9
f 10 2 1
f 1 4 10
f 4 8 10
f 10 6 2
f 3 5 12
f 12 7 3
f 13 7 12
f 5 9 12
f 12 11 13

