# https://github.com/mikedh/trimesh
v 0.00333307 -0.01319834 0.01630003
v 0.00206751 -0.01319834 0.01663736
v 0.00333307 -0.01319870 0.01663736
v 0.00360645 -0.01339253 0.01663736
v 0.00360645 -0.01339253 0.01630003
v -0.00290363 -0.01319834 0.01630003
v -0.00290363 -0.01319834 0.01663736
v 0.00360645 -0.01681812 0.01663736
v 0.00360645 -0.01681812 0.01630003
v -0.00290363 -0.01681812 0.01630003
v -0.00290363 -0.01681812 0.01663736
f 4 1 3
f 5 1 4
f 2 3 1
f 8 9 5
f 4 8 5
f 4 3 2
f 2 8 4
f 2 11 8
f 7 11 2
f 2 1 6
f 6 7 2
f 1 5 10
f 10 5 9
f 6 1 10
f 10 11 7
f 10 7 6
f 10 9 8
f 8 11 10

