# https://github.com/mikedh/trimesh
v -0.00302647 0.01314304 0.02355994
v 0.00328600 0.01314304 0.02355994
v -0.00302647 0.01314304 0.02496474
v -0.00302647 0.02040000 0.02355994
v 0.00328600 0.01314304 0.02496474
v 0.00334967 0.01321267 0.02355994
v 0.00329599 0.01315370 0.02496474
v -0.00302647 0.02040000 0.02496474
v 0.00334967 0.02040000 0.02355994
v 0.00334967 0.01321267 0.02496474
v 0.00334967 0.02040000 0.02496474
f 7 2 6
f 6 10 7
f 2 7 5
f 9 2 1
f 1 4 9
f 6 2 9
f 6 9 10
f 10 9 11
f 8 4 1
f 1 3 8
f 8 9 4
f 11 9 8
f 5 10 11
f 11 8 5
f 5 8 3
f 5 7 10
f 1 2 5
f 5 3 1

