# https://github.com/mikedh/trimesh
v -0.00242556 -0.01225814 0.06959999
v -0.00296994 -0.01225814 0.06959999
v -0.00242556 -0.01235086 0.06959999
v -0.00242556 -0.01225814 0.06650637
v -0.00296994 -0.01225814 0.06650637
v -0.00296994 -0.01235086 0.06959999
v -0.00296994 -0.01239995 0.06959939
v -0.00242556 -0.01239846 0.06959939
v -0.00242556 -0.01732307 0.06650637
v -0.00296994 -0.01732307 0.06650637
v -0.00296994 -0.01296173 0.06956154
v -0.00242556 -0.01294041 0.06956275
v -0.00242556 -0.01730473 0.06675771
v -0.00296994 -0.01730026 0.06678769
v -0.00296994 -0.01339856 0.06952823
v -0.00242556 -0.01354830 0.06951672
v -0.00242556 -0.01728687 0.06689670
v -0.00296994 -0.01728489 0.06690730
v -0.00296994 -0.01372977 0.06950249
v -0.00242556 -0.01375903 0.06949885
v -0.00242556 -0.01721448 0.06719620
v -0.00296994 -0.01721399 0.06719801
v -0.00296994 -0.01438080 0.06937106
v -0.00242556 -0.01436047 0.06937530
v -0.00242556 -0.01710590 0.06749235
v -0.00296994 -0.01710590 0.06749235
v -0.00296994 -0.01518207 0.06918997
v -0.00242556 -0.01516868 0.06919391
v -0.00242556 -0.01707317 0.06756170
v -0.00296994 -0.01707020 0.06756776
v -0.00296994 -0.01524553 0.06917059
v -0.00242556 -0.01523314 0.06917453
v -0.00242556 -0.01696359 0.06777913
v -0.00296994 -0.01699136 0.06772553
v -0.00296994 -0.01530057 0.06914940
v -0.00242556 -0.01531644 0.06914334
v -0.00296994 -0.01696409 0.06777852
v -0.00242556 -0.01687385 0.06792055
v -0.00296994 -0.01545279 0.06908974
v -0.00242556 -0.01553212 0.06905825
v -0.00296994 -0.01687633 0.06791661
v -0.00242556 -0.01675485 0.06810042
v -0.00296994 -0.01676575 0.06808467
v -0.00296994 -0.01553262 0.06905794
v -0.00296994 -0.01562385 0.06902039
v -0.00242556 -0.01567244 0.06900041
v -0.00242556 -0.01666411 0.06820823
v -0.00296994 -0.01672510 0.06813615
v -0.00296994 -0.01567591 0.06899829
v -0.00296994 -0.01573938 0.06896346
v -0.00242556 -0.01579343 0.06893348
v -0.00296994 -0.01655255 0.06832693
v -0.00296994 -0.01666361 0.06820913
v -0.00242556 -0.01644446 0.06844079
v -0.00296994 -0.01579987 0.06892955
v -0.00296994 -0.01618910 0.06867427
v -0.00242556 -0.01619406 0.06867033
v -0.00296994 -0.01643156 0.06845503
v -0.00242556 -0.01635719 0.06853224
v -0.00296994 -0.01623174 0.06864156
v -0.00242556 -0.01627538 0.06860765
v -0.00296994 -0.01635570 0.06853406
v -0.00296994 -0.01629224 0.06859281
f 8 7 11
f 12 8 11
f 13 10 9
f 22 18 21
f 21 18 17
f 3 6 7
f 7 8 3
f 16 19 20
f 16 12 11
f 37 33 38
f 14 13 17
f 17 18 14
f 10 13 14
f 25 26 22
f 22 21 25
f 34 33 37
f 28 24 23
f 27 28 23
f 23 24 20
f 20 19 23
f 15 16 11
f 19 16 15
f 43 38 42
f 56 57 51
f 60 57 56
f 61 57 60
f 29 30 26
f 26 25 29
f 29 34 30
f 33 34 29
f 32 28 27
f 51 46 50
f 46 49 50
f 48 43 42
f 42 47 48
f 48 47 53
f 37 38 41
f 38 43 41
f 63 61 60
f 59 61 63
f 63 62 59
f 45 49 46
f 46 40 45
f 45 40 44
f 36 32 31
f 31 32 27
f 55 56 51
f 51 50 55
f 58 54 59
f 59 62 58
f 39 40 36
f 44 40 39
f 47 54 52
f 54 58 52
f 53 47 52
f 36 31 35
f 35 39 36
f 1 4 5
f 2 1 5
f 10 5 4
f 10 4 9
f 3 1 2
f 2 6 3
f 40 4 1
f 9 4 40
f 40 38 33
f 20 24 40
f 51 57 40
f 40 16 20
f 1 3 40
f 40 13 9
f 8 12 40
f 40 46 51
f 33 29 40
f 17 13 40
f 40 21 17
f 40 3 8
f 40 61 59
f 40 24 28
f 12 16 40
f 42 38 40
f 28 32 40
f 40 25 21
f 59 54 40
f 40 47 42
f 57 61 40
f 40 29 25
f 40 32 36
f 40 54 47
f 2 5 35
f 5 10 35
f 10 14 35
f 37 41 35
f 27 23 35
f 11 7 35
f 35 6 2
f 22 26 35
f 7 6 35
f 60 56 35
f 35 34 37
f 35 18 22
f 26 30 35
f 35 15 11
f 35 14 18
f 30 34 35
f 35 48 53
f 35 23 19
f 19 15 35
f 56 55 35
f 35 50 49
f 49 45 35
f 35 63 60
f 35 31 27
f 43 48 35
f 35 41 43
f 62 63 35
f 35 45 44
f 44 39 35
f 35 55 50
f 35 58 62
f 53 52 35
f 35 52 58

