# https://github.com/mikedh/trimesh
v 0.02169381 -0.00680556 0.06266355
v 0.02168824 -0.00680556 0.06315475
v 0.02168917 -0.00681244 0.06266355
v 0.01221074 -0.00680556 0.06266355
v 0.02156571 -0.00698684 0.06315475
v 0.01221074 -0.00680556 0.06315475
v 0.02157221 -0.00698528 0.06266355
v 0.01221074 -0.01000426 0.06266355
v 0.02151651 -0.00705949 0.06315475
v 0.01221074 -0.01000426 0.06315475
v 0.02150908 -0.00707796 0.06266355
v 0.01827040 -0.01000426 0.06266355
v 0.02151094 -0.00706763 0.06315475
v 0.01827040 -0.01000426 0.06315475
v 0.02147659 -0.00711772 0.06315475
v 0.02130580 -0.00732876 0.06315475
v 0.02127888 -0.00736195 0.06315475
v 0.02108487 -0.00760085 0.06266355
v 0.01838457 -0.00992473 0.06266355
v 0.01827875 -0.00999862 0.06315475
v 0.02114057 -0.00753228 0.06315475
v 0.02105424 -0.00763842 0.06315475
v 0.02105424 -0.00763842 0.06266355
v 0.01871318 -0.00969460 0.06266355
v 0.01838086 -0.00992723 0.06315475
v 0.02092614 -0.00775396 0.06315475
v 0.02086302 -0.00781063 0.06266355
v 0.01884313 -0.00960348 0.06266355
v 0.01890069 -0.00956278 0.06315475
v 0.02077947 -0.00788577 0.06266355
v 0.01926456 -0.00924779 0.06315475
v 0.01895824 -0.00952239 0.06266355
v 0.01895824 -0.00952239 0.06315475
v 0.01935460 -0.00916670 0.06266355
v 0.01916338 -0.00933859 0.06266355
f 1 2 3
f 23 18 22
f 20 14 12
f 12 19 20
f 28 29 24
f 17 18 11
f 25 19 24
f 25 20 19
f 24 29 25
f 33 28 32
f 29 28 33
f 32 35 33
f 33 35 31
f 31 35 34
f 34 30 31
f 31 30 26
f 23 22 26
f 21 22 18
f 18 17 21
f 23 26 27
f 27 26 30
f 16 17 11
f 11 15 16
f 11 7 9
f 13 15 11
f 11 9 13
f 7 3 5
f 5 9 7
f 5 3 2
f 6 2 1
f 6 1 4
f 10 6 4
f 4 8 10
f 8 12 14
f 14 10 8
f 4 1 27
f 27 8 4
f 27 12 8
f 27 18 23
f 1 3 27
f 27 19 12
f 27 7 11
f 11 18 27
f 32 28 27
f 27 3 7
f 24 19 27
f 27 35 32
f 27 28 24
f 27 34 35
f 30 34 27
f 2 6 5
f 6 10 5
f 10 14 5
f 14 20 5
f 5 25 29
f 5 33 31
f 22 21 5
f 31 26 5
f 20 25 5
f 29 33 5
f 5 26 22
f 5 21 17
f 17 16 5
f 5 16 15
f 15 13 5
f 5 13 9

