# https://github.com/mikedh/trimesh
v -0.00247444 0.00388925 0.02680014
v -0.00247444 0.00388925 0.02780479
v -0.00247444 0.00389014 0.02679386
v 0.00140142 0.00002436 0.02666884
v 0.00138884 0.00002436 0.02680014
v 0.00063152 0.00078190 0.02780479
v -0.00247444 0.00919381 0.02780479
v -0.00247444 0.00393053 0.02654657
v -0.00247444 0.00393143 0.02654127
v 0.00143677 0.00002436 0.02654127
v 0.00138884 0.00002436 0.02780479
v 0.00363503 0.00919381 0.02780479
v -0.00247444 0.00919381 0.02580000
v -0.00247444 0.00405619 0.02630007
v 0.00149668 0.00002436 0.02641665
v 0.00363503 0.00002436 0.02780479
v 0.00364581 0.00919381 0.02779988
v 0.00364581 0.00919381 0.02580000
v -0.00247444 0.00513775 0.02580000
v -0.00247444 0.00422314 0.02612638
v 0.00168182 0.00002436 0.02619075
v 0.00157817 0.00002436 0.02630007
v 0.00364581 0.00002436 0.02779988
v 0.00364581 0.00002436 0.02580000
v -0.00247444 0.00481463 0.02583415
v 0.00280282 0.00002436 0.02580000
v 0.00243674 0.00002436 0.02583415
v -0.00247444 0.00425545 0.02609302
v 0.00180464 0.00002436 0.02609203
v -0.00247444 0.00470243 0.02587124
v 0.00209583 0.00002436 0.02593405
v -0.00247444 0.00444573 0.02597565
v -0.00247444 0.00451395 0.02593405
f 1 4 5
f 6 5 11
f 6 2 1
f 1 5 6
f 3 4 1
f 4 9 10
f 25 19 27
f 8 9 4
f 4 3 8
f 15 9 14
f 15 10 9
f 28 32 29
f 26 27 19
f 25 27 31
f 21 28 29
f 33 31 29
f 29 32 33
f 22 15 14
f 14 21 22
f 20 21 14
f 28 21 20
f 25 31 30
f 31 33 30
f 24 18 17
f 17 23 24
f 13 7 12
f 17 18 12
f 12 18 13
f 7 2 16
f 16 6 11
f 16 12 7
f 2 6 16
f 16 23 17
f 17 12 16
f 13 18 26
f 18 24 26
f 26 19 13
f 11 5 22
f 22 5 4
f 22 16 11
f 22 24 23
f 4 10 22
f 23 16 22
f 29 31 22
f 22 26 24
f 10 15 22
f 27 26 22
f 22 31 27
f 22 21 29
f 13 19 30
f 1 2 30
f 30 7 13
f 30 3 1
f 30 2 7
f 14 9 30
f 30 19 25
f 30 20 14
f 9 8 30
f 30 8 3
f 32 28 30
f 30 33 32
f 28 20 30

