# https://github.com/mikedh/trimesh
v 0.00213642 0.01518476 0.06122272
v 0.00213642 0.01735000 0.06122272
v 0.00364512 0.01518476 0.06122272
v 0.00213642 0.01518476 0.06745360
v 0.00364512 0.01735000 0.06122272
v 0.00213642 0.01735000 0.06630807
v 0.00364512 0.01518476 0.06745360
v 0.00213642 0.01711749 0.06745360
v 0.00364512 0.01735000 0.06630807
v 0.00213642 0.01733050 0.06661122
v 0.00364512 0.01711877 0.06745360
v 0.00364512 0.01714950 0.06737796
v 0.00213642 0.01715564 0.06735905
v 0.00364512 0.01732902 0.06663257
v 0.00213642 0.01730952 0.06677104
v 0.00364512 0.01731376 0.06674969
v 0.00364512 0.01725123 0.06707054
v 0.00213642 0.01725102 0.06707176
v 0.00213642 0.01716031 0.06734563
v 0.00213642 0.01729892 0.06682594
v 0.00364512 0.01729956 0.06682289
v 0.00213642 0.01725399 0.06705712
f 8 11 12
f 12 13 8
f 10 9 6
f 10 14 9
f 16 14 10
f 12 17 18
f 19 13 12
f 12 18 19
f 22 18 17
f 21 22 17
f 16 10 15
f 20 21 16
f 16 15 20
f 22 21 20
f 1 2 5
f 5 3 1
f 1 3 7
f 7 4 1
f 4 7 8
f 7 11 8
f 9 5 2
f 2 6 9
f 3 5 21
f 21 7 3
f 12 11 21
f 21 11 7
f 5 9 21
f 9 14 21
f 21 14 16
f 21 17 12
f 20 2 1
f 1 4 20
f 20 6 2
f 4 8 20
f 20 8 13
f 20 10 6
f 13 19 20
f 20 19 18
f 18 22 20
f 20 15 10

