# https://github.com/mikedh/trimesh
v 0.00789077 -0.01000426 0.05960000
v 0.00866715 -0.01000426 0.05960000
v 0.00789077 -0.01000426 0.06069534
v 0.00789077 -0.00700029 0.05960000
v 0.00866760 -0.01000308 0.06069534
v 0.00802103 -0.01000426 0.06069534
v 0.00903298 -0.00963549 0.05960000
v 0.00903298 -0.00963549 0.05961576
v 0.00789077 -0.00700029 0.06069534
v 0.00903298 -0.00700029 0.05960000
v 0.00903119 -0.00963608 0.06069534
v 0.00903298 -0.00954580 0.06069534
v 0.00903298 -0.00700029 0.06069534
f 2 5 6
f 12 11 8
f 8 11 5
f 8 2 7
f 8 5 2
f 10 2 1
f 1 4 10
f 7 2 10
f 9 4 1
f 1 3 9
f 9 10 4
f 13 10 9
f 6 12 13
f 13 9 6
f 6 9 3
f 6 11 12
f 5 11 6
f 1 2 6
f 6 3 1
f 7 10 8
f 8 10 13
f 13 12 8

