# https://github.com/mikedh/trimesh
v 0.00830902 0.01286500 0.06180724
v 0.00830902 0.01697994 0.06180724
v 0.00898258 0.01286500 0.06180724
v 0.00830902 0.01286500 0.06788871
v 0.00898258 0.01650827 0.06180724
v 0.00830902 0.01697994 0.06774702
v 0.00898258 0.01286500 0.06788871
v 0.00830902 0.01688286 0.06788871
v 0.00898258 0.01650827 0.06788871
v 0.00830902 0.01696423 0.06777917
v 0.00833084 0.01696463 0.06777857
v 0.00844715 0.01688286 0.06788871
f 11 6 10
f 9 6 11
f 9 11 12
f 10 8 12
f 12 11 10
f 1 2 5
f 5 3 1
f 1 3 7
f 7 4 1
f 3 5 7
f 7 5 9
f 6 5 2
f 9 5 6
f 8 2 1
f 1 4 8
f 8 6 2
f 10 6 8
f 4 7 12
f 12 7 9
f 12 8 4

