# https://github.com/mikedh/trimesh
v 0.00909097 -0.01440014 0.04377734
v 0.00909097 -0.01440014 0.04586116
v 0.00909097 -0.01235020 0.04377734
v 0.01199309 -0.01440014 0.04377734
v 0.00909097 -0.01235020 0.04586116
v 0.01199309 -0.01440014 0.04586116
v 0.01372082 -0.01235020 0.04377734
v 0.01234325 -0.01415511 0.04586116
v 0.01386981 -0.01308629 0.04377734
v 0.01372082 -0.01235020 0.04586116
v 0.01382065 -0.01244954 0.04586116
v 0.01389790 -0.01252680 0.04377734
v 0.01412466 -0.01290789 0.04586116
v 0.01421546 -0.01284427 0.04377734
v 0.01421546 -0.01284427 0.04586116
v 0.01396061 -0.01258941 0.04377734
f 9 8 4
f 14 16 15
f 4 8 6
f 11 15 16
f 16 12 11
f 11 7 10
f 11 12 7
f 13 9 14
f 14 15 13
f 8 9 13
f 5 3 1
f 1 2 5
f 5 7 3
f 10 7 5
f 1 4 6
f 6 2 1
f 12 4 1
f 1 3 12
f 12 16 14
f 3 7 12
f 14 9 12
f 12 9 4
f 13 5 2
f 10 5 13
f 2 6 13
f 13 11 10
f 13 6 8
f 15 11 13

