# https://github.com/mikedh/trimesh
v -0.00001885 -0.01123777 0.05490010
v 0.00251266 -0.01123777 0.05490010
v -0.00001885 -0.01123777 0.05589639
v -0.00001885 -0.00284833 0.05490010
v 0.00251266 -0.01123777 0.05589639
v 0.00251266 -0.00117083 0.05490010
v -0.00001885 -0.00143300 0.05589639
v -0.00001885 -0.00283650 0.05490117
v 0.00165990 -0.00117083 0.05490010
v 0.00251266 -0.00117083 0.05589639
v 0.00024434 -0.00117083 0.05589639
v 0.00026665 -0.00117083 0.05573107
v -0.00001885 -0.00145863 0.05571947
v -0.00001885 -0.00262952 0.05492029
v 0.00156102 -0.00117083 0.05490907
v 0.00026813 -0.00117083 0.05572542
v -0.00001885 -0.00146356 0.05570162
v -0.00001885 -0.00256448 0.05492634
v 0.00129164 -0.00117083 0.05493414
v 0.00029192 -0.00117083 0.05564115
v -0.00001885 -0.00148130 0.05564115
v -0.00001885 -0.00248070 0.05493414
v 0.00095063 -0.00117083 0.05503411
v -0.00001885 -0.00244128 0.05494565
v -0.00001885 -0.00222247 0.05500973
v -0.00001885 -0.00219783 0.05501694
v -0.00001885 -0.00214362 0.05503284
v 0.00037544 -0.00117083 0.05548285
v -0.00001885 -0.00157296 0.05547096
v -0.00001885 -0.00199677 0.05511145
v 0.00066440 -0.00117083 0.05518938
v -0.00001885 -0.00213968 0.05503411
v -0.00001885 -0.00212785 0.05504045
v 0.00043318 -0.00117083 0.05539995
v -0.00001885 -0.00159070 0.05544452
v -0.00001885 -0.00192088 0.05515271
v 0.00065796 -0.00117083 0.05519299
v -0.00001885 -0.00189919 0.05516451
v -0.00001885 -0.00184696 0.05519299
v 0.00057072 -0.00117083 0.05526321
v -0.00001885 -0.00162224 0.05539995
v -0.00001885 -0.00180852 0.05522371
v -0.00001885 -0.00177797 0.05524858
f 8 9 4
f 15 8 14
f 9 8 15
f 24 19 22
f 23 19 27
f 19 26 27
f 27 32 23
f 18 15 14
f 19 15 18
f 22 19 18
f 7 11 12
f 21 20 28
f 28 29 21
f 42 37 39
f 23 32 33
f 33 30 23
f 23 30 31
f 39 37 31
f 25 26 19
f 19 24 25
f 35 29 28
f 41 35 34
f 34 35 28
f 20 21 17
f 36 31 30
f 43 41 40
f 41 34 40
f 40 42 43
f 37 42 40
f 20 17 16
f 7 12 13
f 12 16 13
f 13 16 17
f 39 31 38
f 31 36 38
f 5 3 1
f 1 2 5
f 10 5 2
f 2 6 10
f 9 2 1
f 9 6 2
f 1 4 9
f 3 5 11
f 11 7 3
f 5 10 11
f 16 10 6
f 6 9 16
f 16 11 10
f 16 19 23
f 16 12 11
f 9 15 16
f 16 15 19
f 28 20 16
f 23 31 16
f 37 40 16
f 16 31 37
f 16 34 28
f 16 40 34
f 1 3 38
f 3 7 38
f 32 27 38
f 38 4 1
f 29 35 38
f 43 42 38
f 38 8 4
f 14 8 38
f 38 41 43
f 38 24 22
f 22 18 38
f 7 13 38
f 38 33 32
f 38 27 26
f 38 18 14
f 26 25 38
f 38 21 29
f 38 42 39
f 30 33 38
f 38 25 24
f 38 35 41
f 38 17 21
f 38 36 30
f 38 13 17

