# https://github.com/mikedh/trimesh
v 0.00138817 -0.00426919 0.06959999
v 0.00138817 -0.00332524 0.06951222
v 0.00095648 -0.00458678 0.06958947
v 0.00095648 -0.00470021 0.06959990
v 0.00095648 -0.00636882 0.06959999
v 0.00138817 -0.01234885 0.06959999
v 0.00138817 -0.00332524 0.06866500
v 0.00123275 -0.00332524 0.06949776
v 0.00095648 -0.00368568 0.06950554
v 0.00095648 -0.01234885 0.06959999
v 0.00095648 -0.01237153 0.06959990
v 0.00138817 -0.01240682 0.06959972
v 0.00095648 -0.00332524 0.06866500
v 0.00138817 -0.01619900 0.06866500
v 0.00095648 -0.00332524 0.06941677
v 0.00095648 -0.00360250 0.06949776
v 0.00095648 -0.01240682 0.06959972
v 0.00138817 -0.01243203 0.06959807
v 0.00095648 -0.01620026 0.06866500
v 0.00138817 -0.01612087 0.06871662
v 0.00095648 -0.01265384 0.06958306
v 0.00138817 -0.01276222 0.06957574
v 0.00095648 -0.01576421 0.06895037
v 0.00138817 -0.01576421 0.06894991
v 0.00095648 -0.01272819 0.06957803
v 0.00095648 -0.01278112 0.06957437
v 0.00138817 -0.01279121 0.06957363
v 0.00138817 -0.01572010 0.06897453
v 0.00138817 -0.01567473 0.06899979
v 0.00095648 -0.01571128 0.06897957
v 0.00095648 -0.01280381 0.06957272
v 0.00095648 -0.01288069 0.06956695
v 0.00095648 -0.01369861 0.06950518
v 0.00138817 -0.01367970 0.06950646
v 0.00095648 -0.01564070 0.06901379
v 0.00095648 -0.01567347 0.06899998
v 0.00095648 -0.01568355 0.06899467
v 0.00138817 -0.01557516 0.06904052
v 0.00095648 -0.01557012 0.06904272
v 0.00095648 -0.01559785 0.06903137
v 0.00095648 -0.01372633 0.06950307
v 0.00095648 -0.01375154 0.06950115
v 0.00138817 -0.01375154 0.06950097
v 0.00138817 -0.01542771 0.06909864
v 0.00095648 -0.01547182 0.06908143
v 0.00138817 -0.01383472 0.06948404
v 0.00095648 -0.01399225 0.06945173
v 0.00138817 -0.01399855 0.06945054
v 0.00138817 -0.01523993 0.06917259
v 0.00095648 -0.01541511 0.06910376
v 0.00095648 -0.01414601 0.06942015
v 0.00138817 -0.01421532 0.06940588
v 0.00138817 -0.01521094 0.06918174
v 0.00095648 -0.01522355 0.06917780
v 0.00095648 -0.01524119 0.06917204
v 0.00095648 -0.01423171 0.06940240
v 0.00138817 -0.01517692 0.06919162
v 0.00138817 -0.01519330 0.06918695
v 0.00095648 -0.01519708 0.06918595
v 0.00095648 -0.01511012 0.06920663
v 0.00095648 -0.01517566 0.06919199
v 0.00095648 -0.01518826 0.06918851
f 3 1 2
f 15 16 8
f 3 2 8
f 34 42 43
f 12 6 11
f 11 17 12
f 27 22 31
f 3 8 9
f 9 8 16
f 52 56 57
f 33 34 27
f 10 11 6
f 12 17 18
f 43 42 46
f 42 48 46
f 52 48 51
f 51 56 52
f 19 14 20
f 23 20 24
f 19 20 23
f 42 34 41
f 34 33 41
f 27 31 32
f 32 33 27
f 4 1 3
f 26 31 22
f 22 25 26
f 22 18 21
f 21 25 22
f 21 18 17
f 47 48 42
f 47 51 48
f 36 37 29
f 29 23 28
f 28 23 24
f 29 37 30
f 30 23 29
f 50 49 55
f 38 39 29
f 60 57 56
f 60 61 57
f 1 4 5
f 35 36 29
f 49 50 45
f 39 38 44
f 44 45 39
f 49 45 44
f 57 61 62
f 29 39 40
f 40 35 29
f 59 53 58
f 58 62 59
f 57 62 58
f 54 53 59
f 49 53 54
f 55 49 54
f 7 14 13
f 13 14 19
f 8 2 7
f 7 13 8
f 8 13 15
f 5 6 1
f 5 10 6
f 58 2 1
f 58 14 7
f 1 6 58
f 12 18 58
f 7 2 58
f 58 6 12
f 58 34 43
f 52 57 58
f 43 46 58
f 27 34 58
f 58 22 27
f 58 48 52
f 29 28 58
f 58 20 14
f 58 18 22
f 58 46 48
f 24 20 58
f 49 44 58
f 58 28 24
f 58 38 29
f 58 44 38
f 58 53 49
f 54 30 37
f 31 26 54
f 54 13 19
f 54 16 15
f 15 13 54
f 3 9 54
f 54 60 56
f 17 11 54
f 54 32 31
f 54 9 16
f 19 23 54
f 54 21 17
f 42 41 54
f 11 10 54
f 54 4 3
f 56 51 54
f 54 47 42
f 37 36 54
f 54 50 55
f 54 41 33
f 33 32 54
f 54 40 39
f 54 26 25
f 25 21 54
f 51 47 54
f 10 5 54
f 23 30 54
f 54 62 61
f 61 60 54
f 39 45 54
f 54 5 4
f 36 35 54
f 54 45 50
f 59 62 54
f 35 40 54

