# https://github.com/mikedh/trimesh
v 0.00364527 0.01222339 0.06507755
v 0.00364527 0.01222339 0.06629494
v 0.00364527 0.01286500 0.06507755
v 0.00800665 0.01222339 0.06507755
v 0.00364527 0.01286500 0.06629494
v 0.00781544 0.01222339 0.06629494
v 0.00898258 0.01286500 0.06507755
v 0.00852492 0.01222571 0.06507755
v 0.00852387 0.01222508 0.06629494
v 0.00898258 0.01286500 0.06629494
v 0.00898258 0.01242072 0.06507755
v 0.00898258 0.01242072 0.06629494
f 6 4 9
f 9 4 8
f 8 11 9
f 9 11 12
f 1 2 5
f 5 3 1
f 3 5 10
f 7 3 10
f 6 2 1
f 1 4 6
f 1 3 8
f 8 3 7
f 8 4 1
f 7 11 8
f 12 5 2
f 12 10 5
f 2 6 12
f 12 6 9
f 7 10 12
f 12 11 7

