# https://github.com/mikedh/trimesh
v 0.00333345 -0.01319834 0.02578671
v 0.00333345 -0.01319834 0.02299076
v 0.00272553 -0.01319834 0.02578671
v 0.00360645 -0.01339220 0.02578671
v 0.00272553 -0.01319834 0.02299076
v 0.00360645 -0.01339291 0.02299076
v 0.00272553 -0.02039930 0.02578671
v 0.00360645 -0.02027241 0.02578671
v 0.00272553 -0.02039930 0.02299076
v 0.00360645 -0.02027241 0.02299076
v 0.00342459 -0.02039930 0.02578671
v 0.00354230 -0.02031752 0.02299076
v 0.00342459 -0.02039930 0.02299076
f 4 2 1
f 6 2 4
f 10 8 12
f 8 11 12
f 13 12 11
f 3 1 5
f 5 1 2
f 4 8 6
f 6 8 10
f 9 7 3
f 3 5 9
f 11 1 3
f 3 7 11
f 4 1 11
f 11 8 4
f 13 5 2
f 13 6 10
f 2 6 13
f 13 9 5
f 10 12 13
f 7 9 13
f 13 11 7

