# https://github.com/mikedh/trimesh
v 0.01141906 0.01440137 0.03564590
v 0.01199239 0.01440137 0.03564590
v 0.01141906 0.01440137 0.04015700
v 0.01141906 0.01687127 0.03564590
v 0.01199285 0.01440644 0.03564590
v 0.01199239 0.01440137 0.04015700
v 0.01141906 0.01687127 0.04015700
v 0.01219608 0.01676922 0.03564590
v 0.01185074 0.01681468 0.04015700
v 0.01219952 0.01676873 0.03564590
v 0.01211471 0.01579857 0.04015700
v 0.01203938 0.01493795 0.04015700
v 0.01219952 0.01676873 0.04015700
v 0.01214252 0.01611656 0.04015700
f 4 9 8
f 7 9 4
f 10 11 5
f 10 8 13
f 13 8 9
f 2 5 6
f 14 11 10
f 10 13 14
f 12 5 11
f 12 6 5
f 7 4 1
f 1 3 7
f 5 2 1
f 1 4 5
f 5 8 10
f 4 8 5
f 1 2 6
f 6 3 1
f 12 7 3
f 9 7 12
f 12 13 9
f 3 6 12
f 11 14 12
f 12 14 13

