# https://github.com/mikedh/trimesh
v 0.02073483 -0.00680576 0.06096541
v 0.02073483 -0.00792581 0.06096541
v 0.02073483 -0.00680576 0.06094337
v 0.01041208 -0.00680576 0.06096541
v 0.02073483 -0.00792581 0.06069545
v 0.01960514 -0.00894152 0.06096541
v 0.02073483 -0.00700021 0.06069677
v 0.02041553 -0.00680576 0.06070002
v 0.01041208 -0.00680576 0.06070002
v 0.01041208 -0.00894152 0.06096541
v 0.02073483 -0.00739642 0.06069545
v 0.01960514 -0.00894152 0.06069545
v 0.02028821 -0.00700021 0.06069545
v 0.01041208 -0.00700021 0.06069545
v 0.01041208 -0.00894152 0.06069545
f 3 7 8
f 8 7 13
f 7 11 13
f 10 2 1
f 10 1 4
f 6 2 10
f 12 2 6
f 5 2 12
f 6 10 12
f 12 10 15
f 4 1 3
f 3 9 4
f 8 9 3
f 1 2 11
f 11 2 5
f 11 3 1
f 7 3 11
f 14 10 4
f 15 10 14
f 4 9 14
f 5 12 14
f 14 12 15
f 14 11 5
f 14 13 11
f 14 9 8
f 8 13 14

