# https://github.com/mikedh/trimesh
v 0.00879207 -0.01664136 0.06180665
v 0.00907172 -0.01644592 0.06180665
v 0.00879207 -0.01664136 0.06822073
v 0.00879207 -0.01233861 0.06180665
v 0.00929667 -0.01628838 0.06180665
v 0.00931990 -0.01627195 0.06861131
v 0.00879207 -0.01627659 0.06860673
v 0.00996078 -0.01244560 0.06180665
v 0.00879207 -0.01235588 0.06959997
v 0.00996078 -0.01244560 0.06959921
v 0.00996078 -0.01582293 0.06180665
v 0.00996078 -0.01582293 0.06890425
v 0.00879207 -0.01626816 0.06861436
v 0.00879207 -0.01627195 0.06861131
v 0.00879207 -0.01242833 0.06959921
v 0.00952128 -0.01250035 0.06959845
v 0.00996078 -0.01266842 0.06958548
v 0.00996078 -0.01568562 0.06899350
v 0.00879207 -0.01570078 0.06898511
v 0.00879207 -0.01244981 0.06959768
v 0.00879207 -0.01268695 0.06958014
v 0.00879207 -0.01333184 0.06953131
v 0.00879207 -0.01377286 0.06949775
v 0.00996078 -0.01377581 0.06949775
v 0.00996078 -0.01568309 0.06899503
v 0.00879207 -0.01569572 0.06898816
v 0.00879207 -0.01393756 0.06946418
v 0.00996078 -0.01389375 0.06947334
v 0.00879207 -0.01568183 0.06899579
v 0.00996078 -0.01564223 0.06901181
v 0.00879207 -0.01566708 0.06900189
v 0.00879207 -0.01520079 0.06918498
v 0.00996078 -0.01484276 0.06926355
v 0.00996078 -0.01521006 0.06918193
v 0.00879207 -0.01521427 0.06918040
v 0.00879207 -0.01541772 0.06910030
v 0.00996078 -0.01520416 0.06918345
f 8 4 10
f 4 9 10
f 2 3 1
f 5 11 12
f 12 13 6
f 3 2 6
f 2 5 6
f 6 5 12
f 3 6 7
f 19 13 12
f 35 34 32
f 14 6 13
f 14 7 6
f 33 28 32
f 32 28 27
f 27 28 24
f 24 23 27
f 29 25 31
f 26 25 29
f 18 19 12
f 18 26 19
f 25 26 18
f 10 16 17
f 17 23 24
f 17 16 23
f 32 34 37
f 37 33 32
f 30 31 25
f 30 36 31
f 35 36 30
f 34 35 30
f 15 20 16
f 15 10 9
f 15 16 10
f 16 20 21
f 23 16 22
f 16 21 22
f 5 4 8
f 1 4 5
f 8 11 5
f 5 2 1
f 30 11 8
f 12 11 30
f 8 10 30
f 30 18 12
f 24 28 30
f 10 17 30
f 30 37 34
f 28 33 30
f 25 18 30
f 30 17 24
f 33 37 30
f 22 4 1
f 22 9 4
f 1 3 22
f 13 19 22
f 22 26 29
f 3 7 22
f 22 14 13
f 22 35 32
f 29 31 22
f 32 27 22
f 7 14 22
f 22 27 23
f 22 36 35
f 19 26 22
f 22 15 9
f 31 36 22
f 20 15 22
f 22 21 20

