# https://github.com/mikedh/trimesh
v 0.00789036 -0.00696928 0.06959999
v 0.00364397 -0.00696928 0.06959999
v 0.00789036 -0.00938596 0.06959999
v 0.00789036 -0.00696928 0.06198995
v 0.00364397 -0.01025805 0.06959999
v 0.00364397 -0.00696928 0.06198995
v 0.00756694 -0.01025805 0.06959999
v 0.00789036 -0.00938596 0.06198995
v 0.00364397 -0.01025805 0.06198995
v 0.00756694 -0.01025805 0.06198995
f 1 4 6
f 2 1 6
f 3 1 2
f 2 5 3
f 5 7 3
f 2 6 9
f 9 5 2
f 8 4 1
f 1 3 8
f 10 6 4
f 10 9 6
f 4 8 10
f 10 7 5
f 5 9 10
f 10 3 7
f 10 8 3

