# https://github.com/mikedh/trimesh
v 0.00333336 -0.01319834 0.02299076
v 0.00360645 -0.01339291 0.02299076
v 0.00360645 -0.01339291 0.02248293
v 0.00333336 -0.01319905 0.02248293
v 0.00323193 -0.01319834 0.02248293
v -0.00436470 -0.01319834 0.02299076
v 0.00360645 -0.02027241 0.02299076
v 0.00360645 -0.02027241 0.02248293
v -0.00436470 -0.01319834 0.02248293
v -0.00436470 -0.02039930 0.02299076
v 0.00342465 -0.02039930 0.02299076
v 0.00342465 -0.02039930 0.02248293
v -0.00436470 -0.02039930 0.02248293
f 2 3 1
f 4 1 3
f 1 4 5
f 6 9 13
f 13 10 6
f 11 7 2
f 6 10 11
f 11 1 6
f 2 1 11
f 10 13 11
f 13 12 11
f 2 7 8
f 8 3 2
f 7 11 8
f 8 11 12
f 5 13 9
f 5 4 3
f 5 12 13
f 3 8 5
f 5 8 12
f 5 9 6
f 6 1 5

