# https://github.com/mikedh/trimesh
v 0.02169443 -0.00680556 0.06198921
v 0.02169443 -0.00680556 0.06169996
v 0.02113458 -0.00680556 0.06198921
v 0.02161140 -0.00693795 0.06198921
v 0.02157249 -0.00700005 0.06169996
v 0.02158811 -0.00680556 0.06160967
v 0.02157249 -0.00700005 0.06136170
v 0.02113458 -0.00680556 0.06136170
v 0.02113458 -0.00753984 0.06198921
v 0.02155353 -0.00702341 0.06198921
v 0.02133345 -0.00729474 0.06136170
v 0.02127339 -0.00680556 0.06136170
v 0.02113458 -0.00753984 0.06136170
f 9 13 11
f 11 10 9
f 5 11 7
f 10 11 5
f 5 4 10
f 1 4 5
f 6 2 7
f 7 12 6
f 8 13 9
f 8 9 3
f 3 9 4
f 4 1 3
f 9 10 4
f 5 2 1
f 7 2 5
f 13 8 12
f 7 11 12
f 12 11 13
f 6 8 3
f 3 1 6
f 1 2 6
f 6 12 8

