# https://github.com/mikedh/trimesh
v 0.00439492 -0.01235000 0.05526007
v 0.00364809 -0.01235000 0.05489111
v 0.00364809 -0.01235000 0.05526007
v 0.01372102 -0.01235019 0.05526007
v 0.01372102 -0.01235019 0.05432741
v 0.00364809 -0.01235019 0.05432741
v 0.00364809 -0.01426691 0.05526007
v 0.01378618 -0.01241530 0.05526007
v 0.01421546 -0.01284424 0.05432741
v 0.00364809 -0.01426691 0.05432741
v 0.01218287 -0.01426691 0.05526007
v 0.01421546 -0.01284424 0.05526007
v 0.01229873 -0.01418622 0.05526007
v 0.01218287 -0.01426691 0.05432741
f 2 1 5
f 3 1 2
f 2 5 6
f 4 5 1
f 8 12 9
f 9 5 8
f 5 4 8
f 13 14 9
f 13 11 14
f 9 12 13
f 6 10 7
f 6 3 2
f 7 3 6
f 14 6 5
f 10 6 14
f 14 5 9
f 7 10 11
f 10 14 11
f 13 3 7
f 12 8 13
f 1 3 13
f 13 4 1
f 13 8 4
f 7 11 13

