# https://github.com/mikedh/trimesh
v -0.00125623 -0.00267056 0.05649817
v -0.00125623 -0.00267056 0.05589645
v -0.00126080 -0.00267484 0.05649817
v -0.00125623 -0.01142506 0.05649817
v -0.00155152 -0.00296623 0.05589645
v -0.00155152 -0.00296537 0.05590004
v -0.00128329 -0.00269712 0.05649817
v -0.00125623 -0.01142506 0.05589645
v -0.00155152 -0.01142506 0.05649817
v -0.00155152 -0.01142506 0.05589645
v -0.00155152 -0.00296537 0.05649817
f 6 2 5
f 11 7 6
f 6 7 2
f 1 2 3
f 2 7 3
f 8 2 1
f 1 4 8
f 2 8 10
f 5 2 10
f 10 8 4
f 4 9 10
f 9 11 6
f 5 10 6
f 6 10 9
f 3 4 1
f 3 9 4
f 3 11 9
f 3 7 11

