# https://github.com/mikedh/trimesh
v -0.00353883 0.00470491 0.05870362
v -0.00380784 0.00484362 0.05870362
v -0.00353883 0.00964190 0.05870362
v -0.00353883 0.00470491 0.06659965
v -0.00380784 0.00484362 0.06659965
v -0.00380784 0.00964190 0.05870362
v -0.00353883 0.00964190 0.06959999
v -0.00353883 0.00483009 0.06735800
v -0.00380784 0.00495285 0.06737613
v -0.00380784 0.00491950 0.06713935
v -0.00380784 0.00964190 0.06959999
v -0.00353883 0.00795081 0.06959999
v -0.00353883 0.00483347 0.06737720
v -0.00380784 0.00524622 0.06803529
v -0.00380784 0.00806245 0.06959999
v -0.00380784 0.00722923 0.06949760
v -0.00353883 0.00711807 0.06949760
v -0.00353883 0.00516309 0.06809929
v -0.00380784 0.00527473 0.06809929
v -0.00380784 0.00645304 0.06919789
v -0.00353883 0.00634188 0.06919789
v -0.00353883 0.00551832 0.06853126
v -0.00380784 0.00568071 0.06859312
v -0.00380784 0.00603401 0.06889817
v -0.00353883 0.00567491 0.06872112
v -0.00380784 0.00578656 0.06872112
f 10 5 4
f 4 9 10
f 13 18 19
f 17 16 21
f 12 16 17
f 15 16 12
f 14 13 19
f 9 13 14
f 8 9 4
f 8 13 9
f 25 24 26
f 20 25 21
f 20 24 25
f 21 16 20
f 23 22 25
f 25 26 23
f 18 22 23
f 19 18 23
f 6 3 1
f 6 1 2
f 3 6 11
f 11 7 3
f 2 1 5
f 1 4 5
f 7 11 15
f 15 12 7
f 1 3 8
f 3 7 8
f 8 4 1
f 21 25 8
f 7 12 8
f 8 22 18
f 8 17 21
f 18 13 8
f 12 17 8
f 25 22 8
f 23 6 2
f 23 11 6
f 23 14 19
f 2 5 23
f 23 15 11
f 5 10 23
f 23 10 9
f 16 15 23
f 23 20 16
f 9 14 23
f 23 26 24
f 24 20 23

