# https://github.com/mikedh/trimesh
v 0.00985650 -0.01614755 0.03559999
v 0.00985650 -0.01614755 0.03560816
v 0.00985650 -0.01589633 0.03533712
v 0.01030087 -0.01614755 0.03559999
v 0.01030087 -0.01614755 0.03560816
v 0.00985650 -0.01556703 0.03560816
v 0.00985650 -0.01556703 0.03533712
v 0.01030087 -0.01558527 0.03533712
v 0.01030087 -0.01556703 0.03560816
v 0.01030087 -0.01556703 0.03533712
f 3 4 1
f 4 3 8
f 1 2 7
f 7 3 1
f 7 2 6
f 7 9 10
f 6 9 7
f 10 8 7
f 7 8 3
f 10 9 5
f 4 8 5
f 5 8 10
f 5 2 1
f 1 4 5
f 6 2 5
f 5 9 6

