# https://github.com/mikedh/trimesh
v 0.01797503 -0.00680593 0.06804330
v 0.01797503 -0.01021160 0.06804330
v 0.01797503 -0.00680593 0.06745150
v 0.01308616 -0.00680593 0.06804330
v 0.01731935 -0.01067051 0.06804330
v 0.01797503 -0.01021160 0.06745150
v 0.01308616 -0.00680593 0.06745150
v 0.01308616 -0.01067051 0.06804330
v 0.01731935 -0.01067051 0.06745150
v 0.01308616 -0.01067051 0.06745150
f 8 2 1
f 8 1 4
f 5 2 8
f 4 1 7
f 1 3 7
f 7 8 4
f 10 8 7
f 1 2 6
f 6 3 1
f 9 7 3
f 10 7 9
f 3 6 9
f 5 8 9
f 9 8 10
f 9 2 5
f 9 6 2

