# https://github.com/mikedh/trimesh
v 0.00778064 0.01734971 0.04015744
v 0.00778520 0.01734913 0.04015744
v 0.00778566 0.01734913 0.03924374
v 0.00778064 0.01734971 0.03924374
v 0.00675576 0.01734971 0.04015744
v 0.00836452 0.01727322 0.04015744
v 0.00824720 0.01728852 0.03924374
v 0.00675576 0.01734971 0.03924374
v 0.00675576 0.01440141 0.04015744
v 0.01060281 0.01697879 0.04015744
v 0.01118897 0.01690172 0.03924374
v 0.01030881 0.01701747 0.03924374
v 0.00675576 0.01440141 0.03924374
v 0.01141860 0.01440141 0.04015744
v 0.01141860 0.01687141 0.04015744
v 0.01141860 0.01687141 0.03924374
v 0.01141860 0.01440141 0.03924374
f 4 1 3
f 3 1 2
f 2 6 3
f 3 6 7
f 15 16 11
f 15 11 10
f 10 11 6
f 12 7 6
f 6 11 12
f 16 15 14
f 14 17 16
f 14 9 13
f 13 17 14
f 13 9 5
f 5 8 13
f 5 1 4
f 4 8 5
f 10 9 14
f 5 9 10
f 14 15 10
f 10 1 5
f 10 2 1
f 6 2 10
f 12 4 3
f 17 13 12
f 12 16 17
f 12 13 8
f 8 4 12
f 3 7 12
f 12 11 16

