# https://github.com/mikedh/trimesh
v 0.00624203 -0.01235072 0.02787228
v 0.00624203 -0.01122411 0.02779980
v 0.00555277 -0.01112273 0.02779980
v 0.00555277 -0.01235072 0.02787228
v 0.00624203 -0.01842661 0.02787228
v 0.00624203 -0.01122411 0.02580019
v 0.00555277 -0.01112273 0.02580019
v 0.00555277 -0.01890988 0.02787228
v 0.00600879 -0.01859050 0.02787228
v 0.00624203 -0.01842661 0.02578671
v 0.00624203 -0.01423271 0.02578671
v 0.00555277 -0.01418926 0.02578671
v 0.00555277 -0.01890988 0.02578671
f 4 1 3
f 3 1 2
f 8 13 9
f 10 5 9
f 9 13 10
f 6 11 7
f 7 11 12
f 9 4 8
f 1 4 9
f 9 5 1
f 1 5 11
f 11 5 10
f 11 2 1
f 6 2 11
f 13 12 11
f 10 13 11
f 8 4 7
f 7 4 3
f 7 13 8
f 7 12 13
f 7 2 6
f 3 2 7

