# https://github.com/mikedh/trimesh
v -0.00206969 -0.00919547 0.02580000
v -0.00206969 -0.00482770 0.02580000
v 0.00138655 -0.00919547 0.02580000
v -0.00206969 -0.00919547 0.03280000
v -0.00206969 -0.00450401 0.02583426
v -0.00143433 -0.00389605 0.02583426
v -0.00139137 -0.00389605 0.02583015
v -0.00106828 -0.00389605 0.02580000
v 0.00138655 -0.00389605 0.02580000
v 0.00138655 -0.00919547 0.03280000
v -0.00206969 -0.00482770 0.03280000
v -0.00206969 -0.00419069 0.02593430
v -0.00177536 -0.00389605 0.02593430
v -0.00173814 -0.00389605 0.02592334
v 0.00138655 -0.00389605 0.03280000
v -0.00106828 -0.00389605 0.03280000
v -0.00143433 -0.00389605 0.03276574
v -0.00206969 -0.00450401 0.03276574
v -0.00206969 -0.00391109 0.02608573
v -0.00206834 -0.00389605 0.02609327
v -0.00147426 -0.00389605 0.03275409
v -0.00176927 -0.00389605 0.03266776
v -0.00206969 -0.00419069 0.03266570
v -0.00206969 -0.00389605 0.02609464
v -0.00177536 -0.00389605 0.03266570
v -0.00206969 -0.00418654 0.03266365
v -0.00206969 -0.00389605 0.03230597
v -0.00179938 -0.00389605 0.03265268
v -0.00206834 -0.00389605 0.03250674
v -0.00206969 -0.00389760 0.03250674
f 8 2 7
f 7 2 6
f 6 2 5
f 30 29 27
f 12 13 5
f 6 5 14
f 5 13 14
f 13 12 19
f 11 16 17
f 20 19 24
f 13 19 20
f 25 23 22
f 22 23 18
f 11 17 18
f 23 25 26
f 26 29 30
f 22 18 21
f 21 18 17
f 29 26 28
f 28 26 25
f 10 4 1
f 1 3 10
f 9 3 1
f 1 2 9
f 9 2 8
f 9 10 3
f 15 10 9
f 4 10 16
f 16 10 15
f 16 11 4
f 1 4 26
f 26 2 1
f 26 27 24
f 4 11 26
f 26 5 2
f 24 19 26
f 30 27 26
f 26 12 5
f 26 19 12
f 11 18 26
f 26 18 23
f 24 27 28
f 15 9 28
f 28 7 6
f 28 9 8
f 8 7 28
f 28 16 15
f 28 17 16
f 28 27 29
f 6 14 28
f 28 14 13
f 28 20 24
f 22 21 28
f 13 20 28
f 28 25 22
f 28 21 17

