# https://github.com/mikedh/trimesh
v 0.00789060 0.00002072 0.06655458
v 0.00789060 0.00002072 0.06197140
v 0.00614675 0.00002072 0.06655458
v 0.00789060 -0.00696928 0.06655458
v 0.00614675 0.00002072 0.06197140
v 0.00789060 -0.00696791 0.06197140
v 0.00614675 -0.00696928 0.06655458
v 0.00789060 -0.00696928 0.06197185
v 0.00614675 -0.00696928 0.06197140
v 0.00732605 -0.00696928 0.06197140
f 10 6 8
f 7 4 1
f 7 1 3
f 3 1 5
f 1 2 5
f 5 7 3
f 9 7 5
f 1 4 6
f 6 2 1
f 4 8 6
f 4 7 10
f 10 7 9
f 10 8 4
f 10 5 2
f 9 5 10
f 2 6 10

