# https://github.com/mikedh/trimesh
v 0.01217549 -0.01649755 0.05181492
v 0.01214816 -0.01618260 0.05181492
v 0.00835109 -0.01649755 0.05181492
v 0.01217549 -0.01649755 0.03981963
v 0.01216763 -0.01640547 0.03981963
v 0.01209499 -0.01557625 0.05181492
v 0.01215602 -0.01627244 0.03981963
v 0.01209499 -0.01557625 0.03981963
v 0.00835109 -0.01557625 0.05181492
v 0.00835109 -0.01649755 0.03981963
v 0.00835109 -0.01557625 0.03981963
f 6 2 8
f 7 8 2
f 5 2 1
f 5 7 2
f 1 4 5
f 1 2 9
f 3 1 9
f 9 2 6
f 10 1 3
f 10 4 1
f 3 9 10
f 10 9 11
f 8 9 6
f 11 9 8
f 4 10 5
f 5 10 11
f 11 8 5
f 8 7 5

