# https://github.com/mikedh/trimesh
v 0.01980719 0.00875966 0.06750964
v 0.02056785 0.00807582 0.06750964
v 0.02096409 0.00771969 0.06709579
v 0.01980719 0.00875966 0.06709579
v 0.01052126 0.00875966 0.06750964
v 0.02105409 0.00763833 0.06750964
v 0.02105409 0.00763833 0.06709579
v 0.01098446 0.00875966 0.06709579
v 0.01052126 0.00875953 0.06709579
v 0.01003831 0.00856436 0.06709579
v 0.01003831 0.00856436 0.06750964
v 0.02106946 0.00761988 0.06709579
v 0.02119130 0.00746942 0.06750964
v 0.01003831 0.00738376 0.06709579
v 0.01003831 0.00738376 0.06750964
v 0.02121874 0.00743602 0.06709579
v 0.02124508 0.00738376 0.06750964
v 0.02125167 0.00738376 0.06709579
f 10 11 5
f 13 17 18
f 10 5 9
f 6 13 12
f 12 7 6
f 3 4 1
f 6 7 3
f 8 9 5
f 16 13 18
f 16 12 13
f 2 3 1
f 6 3 2
f 15 14 18
f 18 17 15
f 10 14 15
f 15 11 10
f 8 5 1
f 1 4 8
f 18 14 16
f 16 14 10
f 10 9 16
f 16 8 4
f 4 3 16
f 7 12 16
f 16 3 7
f 9 8 16
f 2 15 17
f 17 13 2
f 1 5 2
f 11 15 2
f 2 5 11
f 2 13 6

