# https://github.com/mikedh/trimesh
v 0.00248789 -0.02039930 0.02205483
v 0.00342459 -0.02039930 0.02205483
v 0.00248789 -0.02039930 0.02248288
v 0.00248789 -0.01319834 0.02205483
v 0.00352083 -0.02033233 0.02205483
v 0.00342459 -0.02039930 0.02248288
v 0.00248789 -0.01319834 0.02248288
v 0.00314692 -0.01319834 0.02205483
v 0.00358959 -0.02028439 0.02205483
v 0.00358839 -0.02028510 0.02248288
v 0.00323221 -0.01319834 0.02248288
v 0.00333349 -0.01319905 0.02205483
v 0.00360634 -0.02027241 0.02205483
v 0.00360634 -0.02027241 0.02248288
v 0.00333338 -0.01319905 0.02248288
v 0.00358609 -0.01337810 0.02248288
v 0.00358893 -0.01338022 0.02205483
v 0.00360634 -0.01339291 0.02205483
v 0.00360634 -0.01339291 0.02248288
f 13 14 9
f 5 6 2
f 9 6 5
f 10 9 14
f 10 6 9
f 16 17 12
f 12 15 16
f 19 18 16
f 18 17 16
f 12 8 11
f 11 15 12
f 13 18 14
f 14 18 19
f 7 4 1
f 1 3 7
f 1 2 6
f 6 3 1
f 8 2 1
f 1 4 8
f 8 18 13
f 13 9 8
f 8 17 18
f 8 5 2
f 9 5 8
f 12 17 8
f 11 14 19
f 11 10 14
f 11 7 3
f 3 6 11
f 6 10 11
f 19 16 11
f 11 16 15
f 4 7 11
f 11 8 4

