# https://github.com/mikedh/trimesh
v 0.02066222 0.00002072 0.06322713
v 0.02417641 0.00002072 0.06322713
v 0.02066222 0.00002072 0.06362688
v 0.02066222 0.00537594 0.06322713
v 0.02417641 0.00230046 0.06322713
v 0.02417641 0.00002072 0.06362688
v 0.02066222 0.00537594 0.06362688
v 0.02258702 0.00537594 0.06322713
v 0.02263519 0.00530465 0.06322713
v 0.02417641 0.00230046 0.06362688
v 0.02258702 0.00537594 0.06362688
v 0.02263519 0.00530465 0.06362688
f 1 2 6
f 6 3 1
f 7 4 1
f 1 3 7
f 1 4 8
f 8 2 1
f 8 5 2
f 9 5 8
f 10 5 9
f 10 9 12
f 10 6 2
f 2 5 10
f 3 6 11
f 11 7 3
f 11 10 12
f 6 10 11
f 9 8 11
f 12 9 11
f 4 7 11
f 11 8 4

