# https://github.com/mikedh/trimesh
v -0.00436308 -0.01455637 0.05432784
v -0.00436308 -0.01455637 0.05870362
v -0.00436308 -0.01426691 0.05432784
v 0.01200544 -0.01455637 0.05432784
v -0.00436308 -0.01426691 0.05870362
v 0.01176895 -0.01455637 0.05870362
v 0.01218201 -0.01426691 0.05432784
v 0.01200544 -0.01455637 0.05570033
v 0.01218201 -0.01426691 0.05870362
v 0.01209616 -0.01432783 0.05870362
f 6 8 10
f 10 8 9
f 1 2 5
f 5 3 1
f 1 3 4
f 4 3 7
f 3 5 9
f 7 3 9
f 8 2 1
f 1 4 8
f 8 6 2
f 8 4 7
f 7 9 8
f 10 5 2
f 10 9 5
f 2 6 10

