# https://github.com/mikedh/trimesh
v 0.00138817 -0.01356431 0.06866500
v 0.00138817 -0.01356431 0.06645560
v 0.00095648 -0.01356431 0.06866500
v 0.00138817 -0.01619961 0.06866500
v 0.00095648 -0.01356431 0.06645560
v 0.00138817 -0.01733071 0.06645560
v 0.00095648 -0.01619998 0.06866500
v 0.00117013 -0.01619998 0.06866500
v 0.00138817 -0.01621657 0.06865376
v 0.00095648 -0.01733071 0.06645560
v 0.00138817 -0.01731780 0.06668528
v 0.00095648 -0.01621362 0.06865614
v 0.00138817 -0.01622062 0.06865073
v 0.00095648 -0.01731633 0.06669349
v 0.00138817 -0.01730638 0.06677481
v 0.00095648 -0.01730969 0.06674605
v 0.00095648 -0.01731486 0.06670560
v 0.00095648 -0.01623574 0.06863927
v 0.00138817 -0.01624496 0.06863213
v 0.00138817 -0.01729273 0.06688013
v 0.00095648 -0.01730564 0.06677741
v 0.00095648 -0.01625233 0.06862651
v 0.00138817 -0.01627187 0.06861137
v 0.00095648 -0.01729163 0.06688424
v 0.00138817 -0.01721900 0.06718291
v 0.00095648 -0.01721863 0.06718442
v 0.00095648 -0.01627187 0.06861137
v 0.00095648 -0.01628146 0.06860294
v 0.00138817 -0.01629547 0.06859039
v 0.00138817 -0.01710618 0.06749218
v 0.00095648 -0.01721531 0.06719373
v 0.00095648 -0.01630395 0.06858282
v 0.00138817 -0.01631759 0.06857049
v 0.00138817 -0.01709291 0.06752072
v 0.00095648 -0.01710102 0.06750342
v 0.00095648 -0.01710618 0.06749218
v 0.00095648 -0.01631980 0.06856833
v 0.00138817 -0.01634081 0.06854714
v 0.00138817 -0.01708333 0.06754062
v 0.00095648 -0.01708185 0.06754387
v 0.00095648 -0.01709033 0.06752613
v 0.00095648 -0.01634450 0.06854346
v 0.00095648 -0.01652073 0.06835725
v 0.00138817 -0.01662322 0.06824825
v 0.00138817 -0.01703650 0.06763427
v 0.00095648 -0.01702544 0.06765654
v 0.00095648 -0.01669253 0.06817537
v 0.00138817 -0.01669585 0.06817105
v 0.00138817 -0.01696388 0.06777873
v 0.00095648 -0.01696498 0.06777700
v 0.00138817 -0.01669843 0.06816824
v 0.00095648 -0.01675520 0.06810097
v 0.00138817 -0.01672534 0.06813644
v 0.00095648 -0.01695798 0.06778998
v 0.00138817 -0.01695282 0.06779906
v 0.00095648 -0.01683300 0.06798289
v 0.00138817 -0.01675520 0.06810097
v 0.00095648 -0.01695318 0.06779863
v 0.00138817 -0.01692627 0.06784037
v 0.00095648 -0.01688461 0.06790439
v 0.00138817 -0.01687097 0.06792515
v 0.00095648 -0.01692148 0.06784772
v 0.00138817 -0.01690231 0.06787714
f 26 20 25
f 11 10 6
f 20 26 24
f 25 30 31
f 31 26 25
f 52 57 53
f 62 58 59
f 62 59 60
f 47 53 51
f 52 53 47
f 49 50 45
f 8 9 4
f 54 50 49
f 55 59 58
f 58 54 55
f 55 54 49
f 56 57 52
f 61 56 60
f 57 56 61
f 43 38 42
f 43 44 38
f 47 44 43
f 23 28 29
f 37 38 33
f 42 38 37
f 46 45 50
f 36 31 30
f 15 16 11
f 20 24 21
f 21 15 20
f 16 15 21
f 10 11 14
f 63 60 59
f 63 61 60
f 48 47 51
f 48 44 47
f 32 37 33
f 33 29 32
f 32 29 28
f 27 28 23
f 12 8 7
f 9 8 12
f 39 45 40
f 45 46 40
f 40 34 39
f 41 34 40
f 30 34 35
f 35 36 30
f 35 34 41
f 11 16 17
f 17 14 11
f 22 27 23
f 23 19 22
f 22 19 18
f 9 12 13
f 13 12 18
f 18 19 13
f 1 2 5
f 3 1 5
f 10 5 2
f 10 2 6
f 8 1 3
f 8 4 1
f 3 7 8
f 3 5 22
f 22 7 3
f 5 10 22
f 42 37 22
f 52 47 22
f 28 27 22
f 22 21 24
f 50 54 22
f 22 24 26
f 26 31 22
f 22 58 62
f 62 60 22
f 22 56 52
f 22 43 42
f 22 46 50
f 31 36 22
f 22 54 58
f 60 56 22
f 47 43 22
f 10 14 22
f 22 32 28
f 22 12 7
f 41 40 22
f 16 21 22
f 22 35 41
f 37 32 22
f 22 17 16
f 18 12 22
f 22 40 46
f 36 35 22
f 14 17 22
f 13 2 1
f 6 2 13
f 1 4 13
f 51 53 13
f 13 11 6
f 57 61 13
f 49 45 13
f 25 20 13
f 13 30 25
f 13 63 59
f 13 34 30
f 4 9 13
f 13 29 33
f 13 48 51
f 13 53 57
f 13 55 49
f 33 38 13
f 13 45 39
f 59 55 13
f 20 15 13
f 38 44 13
f 23 29 13
f 39 34 13
f 13 15 11
f 61 63 13
f 44 48 13
f 13 19 23

