# https://github.com/mikedh/trimesh
v -0.00211419 0.00388687 0.02953723
v -0.00211419 0.00388687 0.03245635
v -0.00211419 0.00426330 0.02953723
v 0.00363529 0.00388687 0.02953723
v -0.00206523 0.00388687 0.03250202
v -0.00211419 0.00393717 0.03250298
v -0.00211419 0.00426330 0.03267480
v 0.00363529 0.00426330 0.02953723
v 0.00363529 0.00388687 0.03280000
v -0.00205904 0.00388687 0.03250681
v -0.00211419 0.00394188 0.03250681
v -0.00211419 0.00423533 0.03266618
v -0.00176639 0.00388687 0.03266586
v -0.00142534 0.00388687 0.03276583
v -0.00180128 0.00426330 0.03276583
v 0.00363529 0.00426330 0.03280000
v -0.00105502 0.00388687 0.03280000
v -0.00204384 0.00388687 0.03251512
v -0.00211419 0.00395220 0.03251256
v -0.00138144 0.00388687 0.03276998
v -0.00143547 0.00426330 0.03279968
v -0.00087830 0.00426330 0.03280000
v -0.00105896 0.00388687 0.03279968
f 10 11 5
f 19 11 10
f 13 14 7
f 22 21 17
f 7 14 15
f 14 20 15
f 15 20 21
f 2 5 6
f 6 5 11
f 12 13 7
f 19 13 12
f 18 19 10
f 18 13 19
f 17 21 23
f 21 20 23
f 1 3 8
f 8 4 1
f 4 8 16
f 16 9 4
f 9 16 22
f 22 17 9
f 15 8 3
f 15 16 8
f 3 7 15
f 15 22 16
f 21 22 15
f 12 3 1
f 12 7 3
f 1 2 12
f 2 6 12
f 11 19 12
f 12 6 11
f 1 4 23
f 4 9 23
f 23 2 1
f 10 5 23
f 9 17 23
f 23 18 10
f 23 5 2
f 14 13 23
f 23 20 14
f 13 18 23

