# https://github.com/mikedh/trimesh
v -0.00034738 -0.00176694 0.06665133
v -0.00034738 -0.00176084 0.06659957
v -0.00070386 -0.00212249 0.06665133
v -0.00034738 -0.01731490 0.06665133
v -0.00034738 -0.00176084 0.06180084
v -0.00076499 -0.00217895 0.06180084
v -0.00090304 -0.00231781 0.06659957
v -0.00090304 -0.00232239 0.06665133
v -0.00090304 -0.01731338 0.06665133
v -0.00090304 -0.01735000 0.06630799
v -0.00034738 -0.01735000 0.06630799
v -0.00034738 -0.01735000 0.06180084
v -0.00090304 -0.00231781 0.06180084
v -0.00090304 -0.01735000 0.06180084
f 4 9 10
f 6 2 5
f 6 13 7
f 7 2 6
f 1 2 3
f 7 8 3
f 3 2 7
f 11 4 10
f 10 9 14
f 7 13 14
f 14 8 7
f 9 8 14
f 5 12 6
f 12 14 6
f 6 14 13
f 3 8 9
f 3 4 1
f 9 4 3
f 11 12 5
f 11 2 1
f 5 2 11
f 1 4 11
f 10 14 11
f 11 14 12

