# https://github.com/mikedh/trimesh
v 0.00925257 0.01631886 0.06033727
v 0.00925257 0.01631886 0.05975472
v 0.00925257 0.01223935 0.06033727
v 0.00958259 0.01608843 0.06033727
v 0.00925257 0.01223935 0.05975472
v 0.00973657 0.01598060 0.05975472
v 0.01462122 0.01223935 0.06033727
v 0.00964197 0.01604689 0.06033727
v 0.01360540 0.01223935 0.05975472
v 0.00986899 0.01588794 0.05975472
v 0.01372102 0.01235037 0.05975472
v 0.01414879 0.01277769 0.05975472
v 0.01420291 0.01283200 0.05975472
v 0.01421500 0.01284438 0.05975472
v 0.01421500 0.01284438 0.06033727
v 0.01409624 0.01292785 0.06033727
v 0.01233786 0.01415909 0.05975472
v 0.01413985 0.01289710 0.05975472
v 0.01419188 0.01286076 0.06033727
v 0.01277299 0.01385438 0.05975472
f 7 14 15
f 4 2 1
f 7 9 11
f 2 4 6
f 19 15 14
f 14 16 19
f 8 16 10
f 10 6 8
f 8 6 4
f 7 11 12
f 18 16 14
f 18 20 16
f 10 16 17
f 16 20 17
f 13 14 7
f 7 12 13
f 1 2 5
f 5 3 1
f 3 5 9
f 7 3 9
f 1 3 8
f 8 3 7
f 7 15 8
f 8 4 1
f 15 19 8
f 8 19 16
f 13 5 2
f 10 17 13
f 2 6 13
f 13 9 5
f 13 11 9
f 13 6 10
f 13 18 14
f 13 12 11
f 20 18 13
f 13 17 20

