# https://github.com/mikedh/trimesh
v 0.00511639 0.01414180 0.02578671
v 0.00511639 0.01504568 0.02494825
v 0.00511698 0.01414230 0.02494825
v 0.00613376 0.01424907 0.02494825
v 0.00613406 0.01424907 0.02578400
v 0.00613406 0.01424907 0.02578671
v 0.00511639 0.01921544 0.02578671
v 0.00511639 0.01921544 0.02494825
v 0.00613406 0.01541120 0.02494825
v 0.00613406 0.01850277 0.02578671
v 0.00613406 0.01850277 0.02494825
f 1 5 6
f 1 2 3
f 4 5 1
f 1 3 4
f 5 4 9
f 8 2 1
f 1 7 8
f 10 8 7
f 11 8 10
f 10 7 1
f 1 6 10
f 9 10 6
f 11 10 9
f 9 6 5
f 2 8 9
f 9 3 2
f 9 8 11
f 9 4 3

