# https://github.com/mikedh/trimesh
v -0.00034734 -0.00512553 0.06350100
v -0.00034734 -0.00441775 0.06350100
v 0.00005237 -0.00512553 0.06350100
v -0.00034734 -0.00512553 0.06951814
v 0.00005237 -0.00441775 0.06350100
v -0.00034734 -0.00441775 0.06935457
v 0.00005237 -0.00512553 0.06955548
v -0.00030312 -0.00512553 0.06952229
v 0.00005237 -0.00453436 0.06950036
v -0.00034734 -0.00493034 0.06949977
v 0.00005237 -0.00441775 0.06947191
v -0.00034734 -0.00477722 0.06946006
v -0.00013005 -0.00441775 0.06941858
v 0.00005237 -0.00480112 0.06952525
v 0.00005237 -0.00450568 0.06949740
v -0.00034734 -0.00490540 0.06949740
v 0.00005237 -0.00441969 0.06947251
v 0.00005237 -0.00444186 0.06947903
f 16 9 15
f 4 9 10
f 9 16 10
f 7 14 8
f 8 14 9
f 8 9 4
f 12 13 6
f 13 12 18
f 18 12 16
f 18 16 15
f 11 13 17
f 13 18 17
f 1 2 5
f 5 3 1
f 13 5 2
f 13 11 5
f 2 6 13
f 1 3 8
f 3 7 8
f 8 4 1
f 12 2 1
f 1 4 12
f 12 6 2
f 4 10 12
f 12 10 16
f 3 5 17
f 17 7 3
f 5 11 17
f 17 14 7
f 15 9 17
f 9 14 17
f 17 18 15

