# https://github.com/mikedh/trimesh
v 0.00778049 0.01735000 0.06180665
v 0.00778049 0.01735000 0.05870362
v 0.00364527 0.01735000 0.06180665
v 0.00917353 0.01637446 0.06180665
v 0.00364527 0.01735000 0.05870362
v 0.00925202 0.01631926 0.05870362
v 0.00364527 0.01222339 0.06180665
v 0.00925092 0.01631976 0.06180665
v 0.00925202 0.01631926 0.06180179
v 0.00364527 0.01235587 0.05870362
v 0.00925202 0.01235035 0.05870362
v 0.00852202 0.01222339 0.06180665
v 0.00364527 0.01222339 0.05960026
v 0.00925202 0.01272722 0.06180665
v 0.00364527 0.01235035 0.05870483
v 0.00925202 0.01222339 0.05960026
v 0.00925202 0.01222339 0.06179997
v 0.00925202 0.01246326 0.06180665
f 17 18 12
f 11 15 10
f 11 16 13
f 13 15 11
f 9 8 14
f 4 8 9
f 4 9 6
f 4 2 1
f 6 2 4
f 3 1 2
f 2 5 3
f 6 11 10
f 10 2 6
f 5 2 10
f 13 7 3
f 3 5 13
f 5 10 13
f 13 10 15
f 13 16 17
f 13 12 7
f 17 12 13
f 14 18 17
f 14 11 6
f 6 9 14
f 17 16 14
f 14 16 11
f 4 1 3
f 3 7 4
f 7 12 4
f 4 12 18
f 18 14 4
f 4 14 8

