# https://github.com/mikedh/trimesh
v 0.02113458 -0.00752618 0.06109520
v 0.02113458 -0.00753987 0.06109520
v 0.02113458 -0.00752618 0.06069545
v 0.02073483 -0.00752618 0.06109520
v 0.02113458 -0.00753987 0.06069545
v 0.02105471 -0.00763828 0.06109520
v 0.02073483 -0.00752618 0.06069545
v 0.02073483 -0.00792593 0.06109520
v 0.02105471 -0.00763828 0.06069545
v 0.02103937 -0.00765210 0.06109520
v 0.02073483 -0.00792593 0.06069545
v 0.02103249 -0.00765828 0.06069545
f 8 11 10
f 6 10 9
f 12 10 11
f 12 9 10
f 1 3 7
f 4 1 7
f 4 7 11
f 11 8 4
f 2 1 4
f 4 8 2
f 8 10 2
f 2 10 6
f 2 3 1
f 2 5 3
f 9 2 6
f 5 2 9
f 12 7 3
f 12 11 7
f 3 5 12
f 5 9 12

