# https://github.com/mikedh/trimesh
v 0.01111041 0.01525613 0.03564552
v 0.01111041 0.01525613 0.03559999
v 0.01077811 0.01525613 0.03564590
v 0.01111041 0.01502359 0.03564590
v 0.01111041 0.01501838 0.03534637
v 0.01077090 0.01525613 0.03534637
v 0.01063178 0.01525613 0.03564590
v 0.01111041 0.01485638 0.03564590
v 0.01111041 0.01485638 0.03534637
v 0.01063178 0.01525613 0.03534637
v 0.01063178 0.01485638 0.03564590
v 0.01063178 0.01485638 0.03534637
f 3 4 1
f 5 6 2
f 7 10 11
f 11 10 12
f 8 11 9
f 9 11 12
f 8 4 3
f 7 11 3
f 3 11 8
f 12 10 6
f 6 9 12
f 5 9 6
f 1 4 2
f 8 9 2
f 2 4 8
f 2 9 5
f 2 10 7
f 7 3 2
f 2 3 1
f 2 6 10

