# https://github.com/mikedh/trimesh
v 0.00993634 -0.00959267 0.06069555
v 0.00993634 -0.00959267 0.06180000
v 0.00993634 -0.00929367 0.06069555
v 0.01072566 -0.01026604 0.06069555
v 0.00993634 -0.00929367 0.06180000
v 0.01072566 -0.01026604 0.06180000
v 0.01111163 -0.00929367 0.06069555
v 0.01111163 -0.01026604 0.06069555
v 0.01111163 -0.00929367 0.06180000
v 0.01111163 -0.01026604 0.06180000
f 1 3 8
f 8 4 1
f 8 3 7
f 9 8 7
f 10 8 9
f 1 4 6
f 6 2 1
f 4 8 6
f 6 8 10
f 10 9 5
f 5 6 10
f 2 6 5
f 5 3 1
f 1 2 5
f 7 3 5
f 5 9 7

