# https://github.com/mikedh/trimesh
v 0.00210914 0.00919381 0.02580044
v 0.00210914 0.01084639 0.02578740
v 0.00363752 0.00919381 0.02580044
v 0.00210914 0.00919381 0.03280000
v 0.00210914 0.01233917 0.02578740
v 0.00263785 0.01233917 0.02578740
v 0.00363752 0.01233917 0.02580044
v 0.00363752 0.00919381 0.02779473
v 0.00363527 0.00919381 0.03280000
v 0.00210914 0.01233917 0.03280000
v 0.00363752 0.01233917 0.02778923
v 0.00363752 0.00919535 0.02780022
v 0.00363453 0.01233917 0.03280000
f 2 3 1
f 6 2 5
f 3 2 6
f 6 7 3
f 8 12 9
f 13 9 11
f 9 12 11
f 10 2 1
f 1 4 10
f 5 2 10
f 4 9 10
f 10 9 13
f 8 4 1
f 1 3 8
f 8 9 4
f 11 10 13
f 5 10 11
f 11 6 5
f 7 6 11
f 11 8 3
f 3 7 11
f 12 8 11

