# https://github.com/mikedh/trimesh
v 0.00058537 -0.00910014 0.06537597
v 0.00138817 -0.00910014 0.06537597
v 0.00058537 -0.00910014 0.06604215
v 0.00058537 -0.00082832 0.06537597
v 0.00138817 -0.00910014 0.06604215
v 0.00138817 -0.00002618 0.06537597
v 0.00058537 -0.00082832 0.06604215
v 0.00107549 -0.00033798 0.06537597
v 0.00138817 -0.00002618 0.06604215
v 0.00111643 -0.00029711 0.06537597
v 0.00127988 -0.00013367 0.06604215
f 11 9 6
f 7 8 4
f 11 8 7
f 10 11 6
f 10 8 11
f 5 3 1
f 1 2 5
f 9 5 2
f 2 6 9
f 3 5 7
f 5 9 7
f 9 11 7
f 1 3 7
f 7 4 1
f 10 2 1
f 10 6 2
f 1 4 10
f 4 8 10

