# https://github.com/mikedh/trimesh
v 0.00364527 0.01566325 0.06180694
v 0.00364527 0.01566325 0.06481270
v 0.00364527 0.01735000 0.06180694
v 0.00830856 0.01566325 0.06180694
v 0.00364527 0.01735000 0.06481270
v 0.00830856 0.01566325 0.06481270
v 0.00778038 0.01735000 0.06180694
v 0.00830856 0.01697983 0.06180694
v 0.00778038 0.01735000 0.06481270
v 0.00830856 0.01697983 0.06481270
v 0.00821315 0.01704686 0.06481270
f 11 7 9
f 11 8 7
f 11 10 8
f 1 4 6
f 6 2 1
f 5 3 1
f 1 2 5
f 5 7 3
f 9 7 5
f 1 3 8
f 8 4 1
f 3 7 8
f 10 6 4
f 4 8 10
f 2 6 11
f 11 5 2
f 9 5 11
f 6 10 11

