# https://github.com/mikedh/trimesh
v 0.00422962 -0.01234394 0.02779980
v 0.00422962 -0.01234394 0.02580019
v 0.00363479 -0.01234394 0.02787228
v 0.00422962 -0.01235025 0.02787228
v 0.00422962 -0.01381147 0.02578671
v 0.00263948 -0.01234394 0.02578671
v -0.00436470 -0.01234394 0.02787228
v 0.00422962 -0.01983538 0.02787228
v 0.00422962 -0.01983538 0.02578671
v -0.00436470 -0.01234394 0.02578671
v -0.00436470 -0.02039921 0.02787228
v 0.00342445 -0.02039921 0.02787228
v 0.00342445 -0.02039921 0.02578671
v -0.00436470 -0.02039921 0.02578671
f 3 4 1
f 6 2 5
f 10 14 11
f 10 11 7
f 6 10 7
f 7 3 6
f 6 3 1
f 1 2 6
f 7 11 12
f 12 3 7
f 4 3 12
f 12 8 4
f 11 14 12
f 14 13 12
f 14 10 9
f 9 6 5
f 9 13 14
f 10 6 9
f 9 2 1
f 1 4 9
f 5 2 9
f 4 8 9
f 8 12 9
f 9 12 13

