# https://github.com/mikedh/trimesh
v 0.00095644 -0.00469887 0.06959996
v 0.00058541 -0.00402796 0.06950279
v 0.00058541 -0.00436480 0.06953414
v 0.00058541 -0.00506966 0.06959961
v 0.00095644 -0.00529553 0.06959996
v 0.00095644 -0.00364888 0.06950210
v 0.00058541 -0.00397228 0.06949757
v 0.00058541 -0.00529553 0.06959961
v 0.00095644 -0.00529553 0.06604250
v 0.00095644 -0.00360149 0.06949757
v 0.00095644 -0.00357345 0.06948956
v 0.00058541 -0.00392095 0.06948259
v 0.00058541 -0.00529553 0.06604250
v 0.00095644 -0.00126142 0.06604250
v 0.00095644 -0.00257835 0.06919807
v 0.00058541 -0.00294954 0.06919807
v 0.00058541 -0.00126142 0.06604250
v 0.00095644 -0.00126142 0.06834692
v 0.00095644 -0.00169974 0.06872130
v 0.00058541 -0.00221782 0.06880105
v 0.00058541 -0.00126142 0.06790603
v 0.00093555 -0.00126142 0.06832742
v 0.00058541 -0.00158759 0.06830200
v 0.00095644 -0.00136172 0.06843886
v 0.00095644 -0.00145175 0.06852105
v 0.00058541 -0.00185572 0.06854752
v 0.00058541 -0.00207093 0.06872130
v 0.00067299 -0.00126142 0.06803175
v 0.00058541 -0.00138225 0.06807911
v 0.00092124 -0.00126142 0.06831245
v 0.00058541 -0.00152915 0.06824001
v 0.00058541 -0.00168829 0.06839429
v 0.00085473 -0.00126142 0.06824210
v 0.00072047 -0.00126142 0.06809966
v 0.00070819 -0.00126142 0.06808225
v 0.00058541 -0.00139686 0.06809966
v 0.00071088 -0.00126142 0.06808608
f 3 4 1
f 3 1 2
f 2 1 6
f 7 6 10
f 2 6 7
f 10 11 7
f 7 11 12
f 16 11 15
f 12 11 16
f 36 34 29
f 31 34 36
f 31 23 34
f 15 19 20
f 20 19 27
f 20 16 15
f 19 25 26
f 27 19 26
f 22 23 18
f 22 30 23
f 34 23 33
f 23 30 33
f 21 29 28
f 29 35 28
f 37 29 34
f 37 35 29
f 24 26 25
f 18 23 24
f 32 24 23
f 26 24 32
f 4 5 1
f 8 5 4
f 14 9 13
f 13 17 14
f 9 5 13
f 13 5 8
f 37 18 14
f 14 17 37
f 17 21 37
f 34 33 37
f 37 22 18
f 21 28 37
f 30 22 37
f 37 33 30
f 37 28 35
f 24 9 14
f 1 5 24
f 14 18 24
f 24 6 1
f 24 5 9
f 15 11 24
f 10 6 24
f 24 19 15
f 24 11 10
f 24 25 19
f 32 3 2
f 32 21 17
f 17 13 32
f 8 4 32
f 32 13 8
f 32 31 36
f 36 29 32
f 4 3 32
f 2 7 32
f 32 20 27
f 32 7 12
f 12 16 32
f 32 29 21
f 23 31 32
f 16 20 32
f 27 26 32

