# https://github.com/mikedh/trimesh
v 0.00614663 0.00002072 0.06959999
v 0.00614663 0.00002072 0.06482815
v 0.00563534 0.00002072 0.06959999
v 0.00614663 -0.00696928 0.06959999
v 0.00499164 0.00002072 0.06482815
v 0.00614663 -0.00696928 0.06482815
v 0.00499164 0.00002072 0.06953973
v 0.00499164 -0.00066487 0.06959999
v 0.00499164 -0.00696928 0.06959999
v 0.00499164 -0.00696928 0.06482815
f 3 7 8
f 6 2 1
f 1 4 6
f 2 6 10
f 5 2 10
f 1 2 3
f 3 2 5
f 5 7 3
f 9 7 5
f 8 7 9
f 5 10 9
f 9 4 1
f 1 3 9
f 9 3 8
f 9 6 4
f 9 10 6

