# https://github.com/mikedh/trimesh
v 0.00363485 0.00388683 0.03280000
v -0.00090502 0.00388683 0.03280000
v 0.00363485 0.00002436 0.03280000
v 0.00363485 0.00388683 0.02780498
v -0.00090502 0.00373219 0.03279951
v 0.00282909 0.00002436 0.03280000
v -0.00090502 0.00388683 0.02780498
v 0.00363485 0.00002436 0.02780498
v -0.00090502 0.00336584 0.03276577
v 0.00280109 0.00002436 0.03279951
v -0.00090502 0.00231818 0.02780498
v 0.00138869 0.00002436 0.02780498
v -0.00090502 0.00311592 0.03269243
v 0.00243533 0.00002436 0.03276529
v -0.00090502 0.00231818 0.03179816
v 0.00138869 0.00002436 0.03179963
v -0.00090502 0.00302481 0.03266554
v 0.00209445 0.00002436 0.03266505
v 0.00140114 0.00002436 0.03193115
v -0.00090502 0.00231893 0.03180354
v -0.00090502 0.00274314 0.03251250
v 0.00180290 0.00002436 0.03250664
v 0.00143713 0.00002436 0.03205877
v -0.00090502 0.00236619 0.03205730
v -0.00090502 0.00235220 0.03200694
v -0.00090502 0.00273255 0.03250664
v -0.00090502 0.00269512 0.03247681
v 0.00168202 0.00002436 0.03240934
v 0.00149713 0.00002436 0.03218296
v -0.00090502 0.00247697 0.03225532
v -0.00090502 0.00269058 0.03247290
v -0.00090502 0.00250759 0.03229981
v 0.00157846 0.00002436 0.03229981
f 15 16 19
f 24 19 23
f 10 9 14
f 5 9 10
f 10 6 5
f 5 6 2
f 27 28 22
f 19 24 25
f 18 14 13
f 13 17 18
f 13 14 9
f 27 22 26
f 15 19 20
f 19 25 20
f 28 32 33
f 31 28 27
f 31 32 28
f 21 26 22
f 21 22 18
f 18 17 21
f 29 30 24
f 29 24 23
f 32 30 29
f 29 33 32
f 1 4 7
f 2 1 7
f 8 4 1
f 1 3 8
f 11 7 4
f 11 8 12
f 4 8 11
f 12 16 11
f 11 16 15
f 6 1 2
f 6 3 1
f 2 7 21
f 21 11 15
f 7 11 21
f 21 13 9
f 21 5 2
f 27 26 21
f 9 5 21
f 24 30 21
f 21 25 24
f 15 20 21
f 17 13 21
f 21 31 27
f 21 20 25
f 21 30 32
f 32 31 21
f 29 8 3
f 12 8 29
f 29 16 12
f 23 19 29
f 18 22 29
f 3 6 29
f 29 6 10
f 29 19 16
f 29 14 18
f 10 14 29
f 29 22 28
f 28 33 29

