# https://github.com/mikedh/trimesh
v 0.00363752 0.02025025 0.03281924
v 0.00571334 0.01879726 0.03281924
v 0.00423835 0.01983024 0.02782120
v 0.00363752 0.02025025 0.02782120
v 0.00363752 0.01300303 0.03281924
v 0.00576597 0.01876036 0.02782120
v 0.00678172 0.01804877 0.03281924
v 0.00678172 0.01804877 0.02782120
v 0.00363752 0.01300303 0.02782120
v 0.00678172 0.01300303 0.03281924
v 0.00678172 0.01300303 0.02782120
f 2 3 1
f 1 3 4
f 8 2 7
f 3 2 6
f 2 8 6
f 10 2 1
f 1 5 10
f 7 2 10
f 7 10 8
f 8 10 11
f 9 10 5
f 11 10 9
f 9 5 1
f 1 4 9
f 6 8 11
f 6 4 3
f 11 9 6
f 6 9 4

