# https://github.com/mikedh/trimesh
v 0.01909459 -0.00680593 0.06582483
v 0.01909459 -0.00940048 0.06582483
v 0.01909459 -0.00680593 0.06529459
v 0.01221074 -0.00680593 0.06582483
v 0.01895848 -0.00952230 0.06582483
v 0.01909459 -0.00940048 0.06529459
v 0.01221074 -0.00680593 0.06529459
v 0.01221074 -0.01032056 0.06582483
v 0.01834664 -0.00995132 0.06582483
v 0.01895848 -0.00952230 0.06529459
v 0.01221074 -0.01032056 0.06529459
v 0.01222018 -0.01067051 0.06582483
v 0.01731973 -0.01067051 0.06582483
v 0.01731973 -0.01067051 0.06529459
v 0.01775502 -0.01036558 0.06529459
v 0.01222018 -0.01067051 0.06529459
f 13 14 9
f 10 5 9
f 15 9 14
f 10 9 15
f 4 1 7
f 1 3 7
f 7 8 4
f 11 8 7
f 12 8 16
f 16 8 11
f 16 13 12
f 16 14 13
f 6 3 1
f 1 2 6
f 2 5 6
f 6 5 10
f 4 8 9
f 9 1 4
f 12 13 9
f 9 8 12
f 9 2 1
f 9 5 2
f 15 7 3
f 11 7 15
f 15 16 11
f 3 6 15
f 14 16 15
f 15 6 10

