# https://github.com/mikedh/trimesh
v -0.00307119 0.01343275 0.06946803
v -0.00307119 0.01415175 0.06940578
v -0.00353878 0.01343275 0.06946777
v -0.00307119 0.01343275 0.06681795
v -0.00307119 0.01429479 0.06939332
v -0.00353878 0.01343275 0.06681795
v -0.00353878 0.01430993 0.06939021
v -0.00307119 0.01729866 0.06681795
v -0.00307119 0.01508076 0.06921874
v -0.00353878 0.01729791 0.06681795
v -0.00353878 0.01504178 0.06922757
v -0.00353878 0.01729374 0.06685141
v -0.00307119 0.01729488 0.06684467
v -0.00353878 0.01507622 0.06921978
v -0.00353878 0.01507206 0.06922082
v -0.00307119 0.01512428 0.06920655
v -0.00353878 0.01520072 0.06918502
v -0.00307119 0.01729261 0.06685660
v -0.00353878 0.01725023 0.06707528
v -0.00307119 0.01725817 0.06703481
v -0.00307119 0.01520072 0.06918502
v -0.00353878 0.01520715 0.06918295
v -0.00353878 0.01722525 0.06715077
v -0.00307119 0.01725023 0.06707502
v -0.00307119 0.01520715 0.06918295
v -0.00353878 0.01524802 0.06916505
v -0.00353878 0.01717908 0.06728955
v -0.00307119 0.01718173 0.06728177
v -0.00307119 0.01523023 0.06917283
v -0.00307119 0.01527110 0.06915467
v -0.00307119 0.01559919 0.06900889
v -0.00353878 0.01578802 0.06892484
v -0.00353878 0.01717454 0.06730070
v -0.00307119 0.01706707 0.06756633
v -0.00307119 0.01717265 0.06730667
v -0.00307119 0.01717719 0.06729526
v -0.00307119 0.01589587 0.06887659
v -0.00353878 0.01591063 0.06887010
v -0.00353878 0.01706404 0.06757204
v -0.00353878 0.01706064 0.06757930
v -0.00353878 0.01697587 0.06775596
v -0.00307119 0.01697095 0.06776608
v -0.00307119 0.01591025 0.06887010
v -0.00307119 0.01603702 0.06877049
v -0.00307119 0.01612217 0.06870357
v -0.00353878 0.01614827 0.06868307
v -0.00353878 0.01696452 0.06777879
v -0.00307119 0.01696452 0.06777879
v -0.00307119 0.01613995 0.06868956
v -0.00307119 0.01650701 0.06839306
v -0.00353878 0.01650701 0.06839306
v -0.00353878 0.01695506 0.06779176
v -0.00307119 0.01694976 0.06779902
v -0.00307119 0.01656908 0.06831083
v -0.00353878 0.01669168 0.06814792
v -0.00307119 0.01668487 0.06815700
f 3 1 2
f 2 5 3
f 3 5 7
f 9 7 5
f 37 43 38
f 26 22 25
f 11 9 15
f 7 9 11
f 38 43 44
f 46 49 50
f 8 10 12
f 19 23 24
f 32 26 31
f 31 37 32
f 32 37 38
f 29 26 25
f 15 9 14
f 9 17 14
f 38 44 45
f 45 46 38
f 49 46 45
f 51 46 50
f 35 36 27
f 27 34 35
f 28 23 27
f 27 36 28
f 28 24 23
f 20 12 19
f 19 24 20
f 55 56 53
f 31 26 30
f 26 29 30
f 16 21 17
f 16 17 9
f 54 51 50
f 55 51 54
f 54 56 55
f 8 12 13
f 55 53 52
f 52 53 48
f 48 47 52
f 34 41 42
f 42 41 47
f 42 47 48
f 12 20 18
f 18 13 12
f 33 34 27
f 33 39 34
f 40 41 34
f 34 39 40
f 6 4 1
f 6 1 3
f 4 6 10
f 8 4 10
f 22 17 21
f 25 22 21
f 1 4 18
f 18 4 8
f 18 9 5
f 43 37 18
f 18 2 1
f 8 13 18
f 5 2 18
f 18 28 36
f 18 54 50
f 18 29 25
f 50 49 18
f 18 44 43
f 18 37 31
f 25 21 18
f 49 45 18
f 36 35 18
f 18 16 9
f 48 53 18
f 31 30 18
f 18 45 44
f 18 35 34
f 24 28 18
f 18 20 24
f 18 53 56
f 18 30 29
f 21 16 18
f 56 54 18
f 18 42 48
f 34 42 18
f 40 6 3
f 40 10 6
f 38 46 40
f 3 7 40
f 40 51 55
f 40 32 38
f 40 11 15
f 40 12 10
f 27 23 40
f 22 26 40
f 7 11 40
f 40 17 22
f 15 14 40
f 19 12 40
f 40 23 19
f 55 52 40
f 26 32 40
f 40 14 17
f 46 51 40
f 47 41 40
f 40 52 47
f 40 33 27
f 39 33 40

