# https://github.com/mikedh/trimesh
v 0.00364393 -0.01186810 0.06861880
v 0.00364393 -0.01186810 0.06438213
v 0.00316128 -0.01186810 0.06861880
v 0.00364393 -0.01626246 0.06861880
v 0.00316128 -0.01186810 0.06438213
v 0.00364393 -0.01684402 0.06438213
v 0.00316128 -0.01626246 0.06861880
v 0.00316128 -0.01626635 0.06861589
v 0.00364393 -0.01627171 0.06861133
v 0.00316128 -0.01684402 0.06438213
v 0.00364393 -0.01684402 0.06796604
v 0.00316128 -0.01627707 0.06860677
v 0.00316128 -0.01629071 0.06859474
v 0.00364393 -0.01630727 0.06857940
v 0.00316128 -0.01684402 0.06796604
v 0.00364393 -0.01675537 0.06810083
v 0.00316128 -0.01630240 0.06858396
v 0.00316128 -0.01630727 0.06857940
v 0.00316128 -0.01631555 0.06857110
v 0.00316128 -0.01632285 0.06856364
v 0.00364393 -0.01632091 0.06856530
v 0.00316128 -0.01675537 0.06810083
v 0.00316128 -0.01674320 0.06811534
v 0.00364393 -0.01671446 0.06814935
v 0.00316128 -0.01647385 0.06840439
v 0.00316128 -0.01655665 0.06831689
v 0.00316128 -0.01671056 0.06815391
v 0.00316128 -0.01669498 0.06817050
f 23 24 27
f 16 23 22
f 24 23 16
f 12 13 9
f 9 13 14
f 27 24 28
f 24 26 28
f 8 12 9
f 9 4 8
f 8 4 7
f 21 14 20
f 21 26 24
f 20 14 19
f 14 18 19
f 17 14 13
f 17 18 14
f 25 21 20
f 26 21 25
f 1 2 5
f 3 1 5
f 10 5 2
f 10 2 6
f 4 1 3
f 3 7 4
f 15 10 6
f 6 11 15
f 16 15 11
f 16 22 15
f 21 2 1
f 6 2 21
f 21 11 6
f 1 4 21
f 21 4 9
f 21 16 11
f 24 16 21
f 9 14 21
f 3 5 25
f 5 10 25
f 25 7 3
f 10 15 25
f 15 22 25
f 27 28 25
f 25 23 27
f 25 8 7
f 22 23 25
f 25 17 13
f 13 12 25
f 25 28 26
f 12 8 25
f 20 19 25
f 25 19 18
f 18 17 25

