# https://github.com/mikedh/trimesh
v 0.01295514 -0.01000426 0.06927789
v 0.01221074 -0.01000426 0.06927789
v 0.01295514 -0.01067044 0.06927789
v 0.01295514 -0.01000426 0.06852754
v 0.01221074 -0.01032075 0.06927789
v 0.01221074 -0.01000426 0.06852754
v 0.01221971 -0.01067044 0.06927789
v 0.01295514 -0.01067044 0.06852754
v 0.01221074 -0.01032075 0.06852754
v 0.01221971 -0.01067044 0.06852754
f 2 1 6
f 1 4 6
f 1 3 8
f 8 4 1
f 3 7 8
f 8 7 10
f 5 3 1
f 5 1 2
f 5 7 3
f 9 6 4
f 4 8 9
f 9 8 10
f 10 7 9
f 7 5 9
f 2 6 9
f 9 5 2

