# https://github.com/mikedh/trimesh
v 0.00342274 0.02039970 0.03559999
v 0.00342274 0.02039970 0.03534637
v -0.00436470 0.02039970 0.03559999
v 0.00778578 0.01734894 0.03564590
v 0.00794483 0.01732767 0.03564423
v -0.00436470 0.02039970 0.03534637
v 0.00794483 0.01732767 0.03559996
v 0.00794483 0.01723470 0.03534637
v -0.00436470 0.01734894 0.03564590
v 0.00794483 0.01723785 0.03564590
v -0.00436470 0.01235128 0.03534637
v 0.00794483 0.01235128 0.03534637
v -0.00436470 0.01235128 0.03564590
v 0.00794483 0.01235128 0.03564590
f 7 8 2
f 5 1 4
f 5 4 10
f 3 1 6
f 6 1 2
f 8 6 2
f 8 12 11
f 11 6 8
f 11 13 9
f 3 6 9
f 9 6 11
f 14 13 11
f 11 12 14
f 2 1 7
f 7 1 5
f 4 1 3
f 3 9 4
f 12 8 10
f 10 7 5
f 10 14 12
f 8 7 10
f 10 9 13
f 13 14 10
f 10 4 9

