# https://github.com/mikedh/trimesh
v 0.00316128 -0.01734995 0.06438213
v 0.00316128 -0.01684402 0.06438213
v 0.00364393 -0.01734995 0.06438213
v 0.00316128 -0.01734995 0.06630785
v 0.00364393 -0.01684402 0.06438213
v 0.00316128 -0.01684402 0.06796624
v 0.00364393 -0.01734995 0.06630785
v 0.00364393 -0.01732534 0.06664255
v 0.00316128 -0.01732375 0.06665167
v 0.00364393 -0.01684402 0.06796624
v 0.00316128 -0.01691302 0.06786134
v 0.00364393 -0.01687726 0.06791572
v 0.00364393 -0.01731914 0.06669061
v 0.00316128 -0.01729651 0.06686287
v 0.00316128 -0.01694144 0.06781749
v 0.00364393 -0.01691638 0.06785608
v 0.00364393 -0.01729750 0.06685831
v 0.00364393 -0.01722172 0.06717511
v 0.00316128 -0.01722118 0.06717687
v 0.00316128 -0.01695229 0.06780065
v 0.00364393 -0.01695204 0.06780100
v 0.00364393 -0.01710652 0.06749191
v 0.00316128 -0.01710652 0.06749191
v 0.00316128 -0.01695591 0.06779398
v 0.00364393 -0.01695923 0.06778767
v 0.00364393 -0.01709151 0.06752349
v 0.00316128 -0.01710390 0.06749753
v 0.00316128 -0.01695903 0.06778802
v 0.00316128 -0.01703951 0.06762769
v 0.00364393 -0.01706001 0.06758664
v 0.00316128 -0.01707978 0.06754734
v 0.00316128 -0.01708983 0.06752700
f 17 14 13
f 7 8 4
f 18 14 17
f 9 4 8
f 8 13 9
f 9 13 14
f 14 18 19
f 19 18 22
f 22 23 19
f 12 10 6
f 6 11 12
f 20 21 15
f 16 12 11
f 11 15 16
f 16 15 21
f 27 23 22
f 32 27 26
f 26 27 22
f 31 32 26
f 26 30 31
f 24 28 25
f 24 25 21
f 24 21 20
f 25 28 29
f 30 25 29
f 31 30 29
f 1 2 5
f 5 3 1
f 10 5 2
f 2 6 10
f 1 3 4
f 3 7 4
f 3 5 26
f 26 7 3
f 5 10 26
f 17 13 26
f 26 8 7
f 26 18 17
f 26 13 8
f 22 18 26
f 10 12 26
f 21 25 26
f 26 16 21
f 12 16 26
f 26 25 30
f 29 2 1
f 29 6 2
f 1 4 29
f 29 9 14
f 14 19 29
f 4 9 29
f 29 11 6
f 29 19 23
f 20 15 29
f 23 27 29
f 29 15 11
f 29 32 31
f 29 27 32
f 29 24 20
f 28 24 29

