# https://github.com/mikedh/trimesh
v 0.01372062 -0.01235020 0.04321151
v 0.01379913 -0.01242826 0.04321151
v 0.01372062 -0.01235020 0.04229032
v 0.00366171 -0.01235020 0.04321151
v 0.01393446 -0.01256332 0.04321151
v 0.01393860 -0.01256774 0.04229032
v 0.00366171 -0.01235020 0.04229032
v 0.00366171 -0.01440014 0.04321151
v 0.01421546 -0.01284427 0.04321151
v 0.01421546 -0.01284427 0.04229032
v 0.00366171 -0.01440014 0.04229032
v 0.01199334 -0.01440014 0.04321151
v 0.01199334 -0.01440014 0.04229032
f 3 1 2
f 2 5 3
f 10 5 9
f 3 5 6
f 5 10 6
f 1 7 4
f 3 7 1
f 11 8 4
f 4 7 11
f 2 1 4
f 4 8 2
f 2 12 9
f 8 12 2
f 9 5 2
f 13 12 8
f 8 11 13
f 9 12 10
f 12 13 10
f 6 7 3
f 6 11 7
f 6 13 11
f 6 10 13

