# https://github.com/mikedh/trimesh
v 0.01421364 -0.01284427 0.05432741
v 0.01372076 -0.01235020 0.05432741
v 0.01365711 -0.01323479 0.05432741
v 0.01410633 -0.01292053 0.03560816
v 0.01421364 -0.01284427 0.03560816
v 0.01416090 -0.01279089 0.03560816
v 0.01408087 -0.01271062 0.03560816
v -0.00436470 -0.01235020 0.05432741
v 0.01372076 -0.01235020 0.03560816
v 0.01199297 -0.01439994 0.05432741
v 0.01280594 -0.01383101 0.03560816
v -0.00436470 -0.01439994 0.05432741
v -0.00436470 -0.01235020 0.03560816
v 0.01199297 -0.01439994 0.03560816
v -0.00436470 -0.01439994 0.03560816
f 3 4 1
f 1 4 5
f 10 14 11
f 11 3 10
f 4 3 11
f 7 2 1
f 9 2 7
f 1 5 6
f 6 7 1
f 10 12 14
f 14 12 15
f 2 3 1
f 8 12 2
f 10 3 2
f 2 12 10
f 13 12 8
f 15 12 13
f 8 2 13
f 13 2 9
f 6 14 15
f 15 13 6
f 6 5 4
f 4 11 6
f 6 13 9
f 6 11 14
f 9 7 6

