# https://github.com/mikedh/trimesh
v 0.01492198 -0.01234894 0.02659998
v 0.01420480 -0.01283381 0.02730118
v 0.01421516 -0.01284441 0.02730118
v 0.01462634 -0.01255650 0.02578671
v 0.01492198 -0.01234894 0.02578671
v 0.01372190 -0.01234894 0.02728843
v 0.01372111 -0.01235005 0.02730118
v 0.00678282 -0.01804859 0.02730118
v 0.00678282 -0.01804859 0.02578671
v 0.00980771 -0.01234894 0.02578671
v 0.01298560 -0.01234894 0.02730118
v 0.01369959 -0.01234949 0.02730118
v 0.00678282 -0.01234894 0.02730118
v 0.00678282 -0.01414950 0.02578671
v 0.00678282 -0.01234894 0.02580005
f 1 2 3
f 8 4 3
f 3 4 1
f 9 4 8
f 1 4 5
f 7 2 1
f 6 7 1
f 10 14 15
f 6 11 12
f 7 6 12
f 8 13 14
f 14 13 15
f 14 9 8
f 9 14 10
f 4 9 10
f 10 5 4
f 15 13 11
f 1 5 11
f 11 6 1
f 11 10 15
f 5 10 11
f 12 3 2
f 8 3 12
f 12 13 8
f 2 7 12
f 12 11 13

