# https://github.com/mikedh/trimesh
v 0.01325449 -0.01351708 0.01835194
v 0.01325449 -0.01351708 0.01630000
v 0.01325399 -0.01351708 0.01930712
v 0.01103855 -0.01506870 0.01930712
v 0.00937405 -0.01623419 0.01630000
v 0.00829750 -0.01351708 0.01630000
v 0.00829750 -0.01351708 0.01930712
v 0.00888443 -0.01657703 0.01930712
v 0.00807651 -0.01714238 0.01630000
v 0.00807651 -0.01368956 0.01630000
v 0.00807651 -0.01368921 0.01930712
v 0.00807651 -0.01714238 0.01930712
f 10 11 6
f 6 11 7
f 1 3 4
f 4 5 2
f 4 2 1
f 5 4 8
f 9 5 8
f 8 12 9
f 6 2 10
f 10 5 9
f 2 5 10
f 9 12 10
f 10 12 11
f 3 2 6
f 1 2 3
f 6 7 3
f 11 12 8
f 8 3 7
f 8 7 11
f 8 4 3

