# https://github.com/mikedh/trimesh
v 0.02231875 0.00580207 0.06199991
v 0.02231355 0.00580207 0.06229804
v 0.02251351 0.00548589 0.06225917
v 0.02251741 0.00548589 0.06199991
v 0.00925257 0.00580207 0.06199991
v 0.02250832 0.00549301 0.06229804
v 0.00925257 0.00580207 0.06229804
v 0.02251221 0.00548589 0.06229804
v 0.00925257 0.00548589 0.06199991
v 0.00925257 0.00548589 0.06229804
f 4 1 3
f 1 2 3
f 8 3 6
f 6 3 2
f 9 1 4
f 5 1 9
f 7 1 5
f 7 2 1
f 5 9 7
f 7 9 10
f 3 9 4
f 10 9 3
f 3 8 10
f 2 7 6
f 6 7 10
f 10 8 6

