# https://github.com/mikedh/trimesh
v 0.02169443 -0.00680593 0.06239358
v 0.02166565 -0.00685133 0.06239358
v 0.02161088 -0.00693797 0.06198925
v 0.02169443 -0.00680593 0.06198925
v 0.01221074 -0.00680593 0.06239358
v 0.02155332 -0.00702347 0.06198925
v 0.02154033 -0.00703595 0.06239358
v 0.01221074 -0.00680593 0.06198925
v 0.01221074 -0.01032056 0.06239358
v 0.02152640 -0.00705638 0.06239358
v 0.02108916 -0.00759587 0.06239358
v 0.02105389 -0.00763862 0.06198925
v 0.01221074 -0.01032056 0.06198925
v 0.01222003 -0.01067051 0.06239358
v 0.02105389 -0.00763862 0.06239358
v 0.02077075 -0.00789361 0.06239358
v 0.02063707 -0.00801392 0.06239358
v 0.02073083 -0.00792918 0.06198925
v 0.01222003 -0.01067051 0.06198925
v 0.01731927 -0.01067051 0.06239358
v 0.01908122 -0.00941220 0.06239358
v 0.01895868 -0.00952230 0.06198925
v 0.01731927 -0.01067051 0.06198925
v 0.01751329 -0.01053469 0.06239358
v 0.01895868 -0.00952230 0.06239358
v 0.01851958 -0.00983025 0.06239358
f 1 3 4
f 25 26 22
f 22 26 23
f 20 23 24
f 23 26 24
f 2 3 1
f 25 22 21
f 22 17 21
f 15 12 11
f 16 12 15
f 17 12 16
f 18 17 22
f 18 12 17
f 10 11 6
f 6 11 12
f 6 7 10
f 2 7 6
f 3 2 6
f 8 9 5
f 13 9 8
f 5 1 8
f 1 4 8
f 14 9 19
f 19 9 13
f 19 20 14
f 19 23 20
f 5 9 7
f 7 1 5
f 14 20 7
f 7 9 14
f 7 2 1
f 20 24 7
f 7 26 25
f 25 21 7
f 7 24 26
f 15 11 7
f 7 16 15
f 7 21 17
f 7 11 10
f 17 16 7
f 6 8 4
f 13 8 6
f 6 4 3
f 6 19 13
f 6 22 23
f 23 19 6
f 6 18 22
f 12 18 6

