# https://github.com/mikedh/trimesh
v -0.00380784 0.01347370 0.05870467
v -0.00380784 0.01734962 0.05870467
v -0.00353883 0.01347370 0.05870467
v -0.00380784 0.01347370 0.06946174
v -0.00353883 0.01734962 0.05870467
v -0.00380784 0.01734962 0.06630675
v -0.00353883 0.01347370 0.06946279
v -0.00353883 0.01431036 0.06938907
v -0.00380784 0.01431870 0.06938697
v -0.00353883 0.01734962 0.06630675
v -0.00380784 0.01734621 0.06635940
v -0.00353883 0.01733520 0.06653000
v -0.00353883 0.01507454 0.06921953
v -0.00380784 0.01505063 0.06922480
v -0.00380784 0.01733634 0.06650894
v -0.00380784 0.01733520 0.06652579
v -0.00380784 0.01733444 0.06653421
v -0.00353883 0.01733368 0.06654264
v -0.00380784 0.01517167 0.06919215
v -0.00380784 0.01511931 0.06920689
v -0.00380784 0.01507416 0.06921953
v -0.00353883 0.01520089 0.06918373
v -0.00380784 0.01729271 0.06685329
v -0.00353883 0.01729346 0.06685013
v -0.00380784 0.01520772 0.06918162
v -0.00353883 0.01520772 0.06918162
v -0.00380784 0.01725324 0.06705653
v -0.00353883 0.01724983 0.06707338
v -0.00353883 0.01524832 0.06916372
v -0.00353883 0.01546156 0.06906894
v -0.00380784 0.01570515 0.06896048
v -0.00380784 0.01724983 0.06707338
v -0.00353883 0.01722479 0.06714920
v -0.00353883 0.01560574 0.06900470
v -0.00353883 0.01591043 0.06886886
v -0.00380784 0.01591043 0.06886886
v -0.00380784 0.01720733 0.06720186
v -0.00353883 0.01718684 0.06726399
v -0.00353883 0.01605234 0.06875723
v -0.00380784 0.01615289 0.06867825
v -0.00380784 0.01718533 0.06726820
v -0.00380784 0.01717963 0.06728505
v -0.00353883 0.01717850 0.06728821
v -0.00353883 0.01613657 0.06869089
v -0.00353883 0.01650652 0.06839182
v -0.00380784 0.01649779 0.06839919
v -0.00380784 0.01714890 0.06736087
v -0.00353883 0.01713296 0.06740088
v -0.00353883 0.01669130 0.06814646
v -0.00380784 0.01669548 0.06814119
v -0.00380784 0.01650652 0.06839182
v -0.00380784 0.01710223 0.06747565
v -0.00380784 0.01706239 0.06757359
v -0.00353883 0.01706391 0.06757043
v -0.00353883 0.01695463 0.06779052
v -0.00380784 0.01695767 0.06778631
v -0.00380784 0.01706011 0.06757885
v -0.00353883 0.01706049 0.06757780
v -0.00353883 0.01696450 0.06777683
v -0.00380784 0.01696450 0.06777683
v -0.00380784 0.01700282 0.06769785
v -0.00353883 0.01697550 0.06775472
v -0.00380784 0.01697171 0.06776209
f 8 4 7
f 8 9 4
f 10 6 12
f 9 8 14
f 21 14 13
f 13 14 8
f 23 24 17
f 40 44 45
f 40 39 44
f 35 39 40
f 36 35 40
f 50 51 45
f 38 42 43
f 25 30 31
f 31 35 36
f 29 25 26
f 29 30 25
f 21 13 20
f 20 13 19
f 19 13 22
f 25 19 22
f 26 25 22
f 18 17 24
f 12 17 18
f 45 51 46
f 46 40 45
f 60 59 62
f 43 42 48
f 49 50 45
f 55 59 60
f 50 49 55
f 27 28 24
f 27 32 28
f 27 24 23
f 28 32 33
f 33 32 38
f 38 32 37
f 35 31 34
f 34 31 30
f 11 12 6
f 11 15 12
f 16 17 12
f 12 15 16
f 54 57 58
f 58 57 62
f 62 57 61
f 54 48 53
f 53 57 54
f 56 55 60
f 50 55 56
f 42 38 41
f 38 37 41
f 60 62 63
f 62 61 63
f 47 48 42
f 52 53 48
f 48 47 52
f 1 2 5
f 5 3 1
f 1 3 4
f 3 7 4
f 6 5 2
f 6 10 5
f 3 5 58
f 58 7 3
f 5 10 58
f 10 12 58
f 58 39 35
f 58 8 7
f 58 29 26
f 58 62 59
f 45 44 58
f 28 33 58
f 24 28 58
f 26 22 58
f 44 39 58
f 43 48 58
f 58 38 43
f 58 13 8
f 58 18 24
f 59 55 58
f 30 29 58
f 58 22 13
f 12 18 58
f 35 34 58
f 58 48 54
f 58 49 45
f 58 55 49
f 58 33 38
f 58 34 30
f 52 2 1
f 1 4 52
f 4 9 52
f 17 16 52
f 52 6 2
f 52 31 36
f 52 14 21
f 23 17 52
f 60 63 52
f 36 40 52
f 52 46 51
f 52 19 25
f 9 14 52
f 21 20 52
f 52 56 60
f 51 50 52
f 52 27 23
f 25 31 52
f 52 20 19
f 52 11 6
f 40 46 52
f 42 41 52
f 32 27 52
f 52 37 32
f 15 11 52
f 52 16 15
f 52 61 57
f 57 53 52
f 50 56 52
f 52 41 37
f 52 63 61
f 52 47 42

