# https://github.com/mikedh/trimesh
v -0.00380784 0.00964239 0.05870362
v -0.00380784 0.01347295 0.05870362
v -0.00353883 0.00964239 0.05870362
v -0.00380784 0.00964239 0.06959999
v -0.00353883 0.01347295 0.05870362
v -0.00380784 0.01347295 0.06946134
v -0.00353883 0.00964239 0.06959999
v -0.00380784 0.01234984 0.06959999
v -0.00353883 0.01347295 0.06946240
v -0.00380784 0.01312871 0.06952853
v -0.00356306 0.01347295 0.06946240
v -0.00353883 0.01234984 0.06959999
v -0.00353883 0.01240234 0.06959893
v -0.00380784 0.01240159 0.06959893
v -0.00380784 0.01295358 0.06956266
v -0.00353883 0.01294271 0.06956373
v -0.00380784 0.01258909 0.06958719
v -0.00353883 0.01291871 0.06956586
f 11 15 9
f 9 15 16
f 8 12 13
f 10 11 6
f 15 11 10
f 18 16 15
f 14 8 13
f 13 18 17
f 17 14 13
f 17 18 15
f 1 2 5
f 5 3 1
f 1 3 7
f 7 4 1
f 11 5 2
f 9 5 11
f 2 6 11
f 4 7 8
f 7 12 8
f 3 5 18
f 18 7 3
f 18 5 9
f 18 12 7
f 13 12 18
f 9 16 18
f 17 2 1
f 1 4 17
f 17 6 2
f 4 8 17
f 17 10 6
f 15 10 17
f 8 14 17

