# https://github.com/mikedh/trimesh
v 0.01386022 -0.01224243 0.05990306
v 0.01421546 -0.01284432 0.05990306
v 0.01421546 -0.01284432 0.05948723
v 0.01372112 -0.01235005 0.05948723
v 0.01333173 -0.01224243 0.05960002
v 0.00996089 -0.01224243 0.05990306
v 0.01415340 -0.01288779 0.05990306
v 0.01382107 -0.01312056 0.05948723
v 0.00996089 -0.01235005 0.05948723
v 0.00996089 -0.01224243 0.05960002
v 0.00996089 -0.01582328 0.05990306
v 0.01343668 -0.01338978 0.05990306
v 0.01160383 -0.01467313 0.05990306
v 0.00997214 -0.01581557 0.05948723
v 0.00996089 -0.01582328 0.05948723
v 0.01008666 -0.01573529 0.05990306
f 2 3 1
f 11 15 14
f 4 5 1
f 4 1 3
f 7 3 2
f 11 14 16
f 16 14 13
f 8 12 13
f 13 14 8
f 8 7 12
f 3 7 8
f 10 11 6
f 10 15 11
f 9 15 10
f 6 1 10
f 1 5 10
f 9 10 4
f 4 10 5
f 16 1 6
f 6 11 16
f 2 1 16
f 16 7 2
f 13 12 16
f 12 7 16
f 8 15 9
f 8 4 3
f 8 14 15
f 9 4 8

