# https://github.com/mikedh/trimesh
v 0.00925257 0.00537594 0.06070013
v 0.00925257 0.00537594 0.06199991
v 0.00925257 0.00580210 0.06070013
v 0.02138571 0.00537594 0.06070013
v 0.00925257 0.00580210 0.06199991
v 0.02258688 0.00537594 0.06199991
v 0.02109586 0.00580210 0.06070013
v 0.02154108 0.00537594 0.06081808
v 0.02231792 0.00580210 0.06199991
v 0.02259079 0.00537594 0.06169988
v 0.02232314 0.00580210 0.06169988
v 0.02137657 0.00580210 0.06091339
f 11 6 10
f 9 6 11
f 10 8 11
f 11 8 12
f 7 8 4
f 12 8 7
f 1 2 5
f 5 3 1
f 2 6 5
f 5 6 9
f 1 4 8
f 8 2 1
f 10 6 8
f 8 6 2
f 3 5 7
f 7 5 9
f 9 11 7
f 7 11 12
f 7 4 1
f 1 3 7

