# https://github.com/mikedh/trimesh
v 0.00342463 0.02039929 0.03032528
v 0.00287447 0.02039929 0.03032528
v 0.00346504 0.02037149 0.03032528
v 0.00345809 0.02037648 0.02645334
v 0.00342463 0.02039929 0.02645334
v 0.00287447 0.02039929 0.02645334
v 0.00287447 0.01311858 0.03032528
v 0.00363744 0.02025032 0.03032528
v 0.00363744 0.02025032 0.02645334
v 0.00287447 0.01311858 0.02645334
v 0.00363744 0.01311858 0.03032528
v 0.00363744 0.01311858 0.02645334
f 9 4 8
f 8 4 3
f 4 1 3
f 5 1 4
f 8 11 9
f 9 11 12
f 3 1 2
f 2 7 3
f 3 11 8
f 7 11 3
f 2 1 5
f 5 6 2
f 10 9 12
f 4 9 10
f 10 5 4
f 6 5 10
f 10 11 7
f 12 11 10
f 10 7 2
f 2 6 10

