# https://github.com/mikedh/trimesh
v 0.00002854 0.00580377 0.06959911
v -0.00014782 0.00580377 0.06959911
v 0.00002854 0.00562752 0.06959911
v 0.00002854 0.00580377 0.06054805
v -0.00016373 0.00580377 0.06959822
v 0.00002854 0.00559549 0.06959645
v 0.00002854 0.00487953 0.06054805
v -0.00090056 0.00580377 0.06054805
v -0.00090056 0.00580377 0.06953354
v 0.00002854 0.00487953 0.06953000
v -0.00090056 0.00487953 0.06054805
v -0.00090056 0.00546402 0.06949810
v -0.00032154 0.00487953 0.06949721
v -0.00019912 0.00487953 0.06950873
v -0.00090056 0.00487953 0.06932798
v -0.00090056 0.00545859 0.06949721
v -0.00034046 0.00487953 0.06949190
f 9 10 6
f 6 5 9
f 3 5 6
f 14 10 9
f 9 13 14
f 2 3 1
f 2 5 3
f 17 16 15
f 13 16 17
f 12 13 9
f 12 16 13
f 8 4 11
f 11 4 7
f 6 4 1
f 7 4 6
f 6 10 7
f 1 3 6
f 1 4 2
f 2 4 8
f 8 9 2
f 9 5 2
f 17 11 7
f 15 11 17
f 7 10 17
f 10 14 17
f 17 14 13
f 12 9 8
f 8 11 12
f 12 11 15
f 15 16 12

