# https://github.com/mikedh/trimesh
v 0.00536977 0.01234386 0.02779981
v 0.00536977 0.01234386 0.02580000
v 0.00363905 0.01234386 0.02779981
v 0.00536977 0.01098881 0.02779981
v 0.00363752 0.01234386 0.02580000
v 0.00536977 0.01098881 0.02580000
v 0.00363752 0.01234386 0.02779570
v 0.00363820 0.01030569 0.02779981
v 0.00504251 0.01030569 0.02779981
v 0.00363752 0.01030569 0.02580000
v 0.00504251 0.01030569 0.02580000
v 0.00363752 0.01030569 0.02657545
f 8 3 7
f 7 12 8
f 1 2 7
f 7 2 5
f 7 3 1
f 10 12 7
f 5 10 7
f 1 3 4
f 4 3 8
f 8 9 4
f 11 9 8
f 8 12 11
f 11 12 10
f 5 2 6
f 6 10 5
f 6 11 10
f 6 2 1
f 1 4 6
f 6 4 9
f 9 11 6

