# https://github.com/mikedh/trimesh
v 0.00777964 0.01734971 0.04383901
v 0.00778288 0.01734942 0.04383901
v 0.00777964 0.01734971 0.04330042
v -0.00436308 0.01734971 0.04383901
v 0.00778288 0.01734942 0.04330042
v 0.00883517 0.01721116 0.04383901
v 0.00900704 0.01718864 0.04330042
v -0.00436308 0.01734971 0.04330042
v -0.00436308 0.01440141 0.04383901
v 0.01156887 0.01685179 0.04383901
v 0.01160940 0.01684630 0.04330042
v -0.00436308 0.01440141 0.04330042
v 0.01199205 0.01440141 0.04383901
v 0.01219797 0.01676865 0.04383901
v 0.01219797 0.01676865 0.04330042
v 0.01199205 0.01440141 0.04330042
v 0.01207150 0.01530807 0.04330042
v 0.01216068 0.01633481 0.04383901
v 0.01218500 0.01661336 0.04330042
f 14 15 10
f 17 13 16
f 13 17 18
f 10 7 6
f 11 10 15
f 11 7 10
f 19 18 17
f 14 18 19
f 19 15 14
f 7 5 2
f 2 6 7
f 4 1 8
f 8 1 3
f 12 13 9
f 16 13 12
f 12 9 4
f 4 8 12
f 19 8 3
f 16 12 19
f 19 17 16
f 19 12 8
f 19 11 15
f 3 5 19
f 19 5 7
f 7 11 19
f 2 1 4
f 4 9 2
f 14 10 2
f 9 13 2
f 2 18 14
f 13 18 2
f 10 6 2
f 3 1 2
f 2 5 3

