# https://github.com/mikedh/trimesh
v 0.00138817 -0.00393657 0.06118055
v 0.00138817 -0.00393657 0.06121000
v 0.00138817 -0.00391488 0.06121000
v 0.00138992 -0.00002383 0.06069404
v 0.00138842 -0.00393657 0.06069404
v 0.00266976 -0.00393657 0.06121000
v 0.00139206 -0.00002189 0.06121000
v 0.00139281 0.00002072 0.06121000
v 0.00139281 0.00002072 0.06069404
v 0.00266976 -0.00393657 0.06069404
v 0.00266976 0.00002072 0.06121000
v 0.00266976 0.00002072 0.06069404
f 1 4 5
f 1 2 3
f 3 4 1
f 9 4 8
f 8 4 7
f 4 3 7
f 5 10 6
f 5 2 1
f 6 2 5
f 10 5 9
f 9 5 4
f 9 12 10
f 6 10 11
f 10 12 11
f 12 9 11
f 11 9 8
f 7 2 6
f 6 11 7
f 7 3 2
f 7 11 8

