# https://github.com/mikedh/trimesh
v 0.01100183 -0.01455637 0.05720314
v 0.01032368 -0.01455637 0.05720314
v 0.01100183 -0.01480059 0.05720314
v 0.01100183 -0.01455637 0.05648113
v 0.01032368 -0.01511019 0.05720314
v 0.01032368 -0.01455637 0.05648113
v 0.01074485 -0.01511019 0.05720314
v 0.01100183 -0.01509436 0.05720130
v 0.01100183 -0.01511019 0.05648113
v 0.01032368 -0.01511019 0.05648113
v 0.01097926 -0.01511019 0.05720130
v 0.01100183 -0.01511019 0.05664419
f 8 11 12
f 8 3 7
f 7 11 8
f 1 4 6
f 2 1 6
f 2 6 10
f 10 5 2
f 10 6 4
f 4 9 10
f 12 4 1
f 12 9 4
f 1 3 12
f 12 3 8
f 7 1 2
f 2 5 7
f 7 3 1
f 5 10 7
f 7 10 9
f 9 12 7
f 7 12 11

