# https://github.com/mikedh/trimesh
v -0.00436470 -0.01526481 0.06662378
v -0.00436470 -0.01252426 0.06662378
v -0.00361228 -0.01526481 0.06662378
v -0.00436470 -0.01526481 0.06916408
v -0.00361228 -0.01252426 0.06662378
v -0.00436470 -0.01252426 0.06959075
v -0.00361228 -0.01526481 0.06916408
v -0.00436470 -0.01526025 0.06916611
v -0.00361228 -0.01252426 0.06959104
v -0.00436470 -0.01301549 0.06955764
v -0.00361228 -0.01525757 0.06916698
v -0.00436470 -0.01520713 0.06918296
v -0.00361228 -0.01298249 0.06955996
v -0.00436470 -0.01373745 0.06950304
v -0.00361228 -0.01322207 0.06954196
v -0.00361228 -0.01300986 0.06955793
v -0.00361228 -0.01520713 0.06918296
v -0.00361228 -0.01516259 0.06919603
v -0.00436470 -0.01516018 0.06919661
v -0.00361228 -0.01373933 0.06950274
v -0.00361228 -0.01366367 0.06950855
v -0.00436470 -0.01443285 0.06936013
v -0.00361228 -0.01440442 0.06936623
v -0.00361228 -0.01397864 0.06945366
f 9 6 10
f 15 10 14
f 14 21 15
f 14 22 23
f 9 10 13
f 20 21 14
f 10 15 16
f 16 13 10
f 4 7 8
f 19 12 18
f 22 19 18
f 18 23 22
f 14 23 24
f 24 20 14
f 12 8 11
f 11 8 7
f 17 18 12
f 12 11 17
f 1 2 5
f 5 3 1
f 2 6 5
f 5 6 9
f 7 4 1
f 1 3 7
f 8 6 2
f 8 2 1
f 1 4 8
f 8 10 6
f 14 10 8
f 8 22 14
f 8 19 22
f 8 12 19
f 3 5 17
f 17 5 9
f 17 7 3
f 17 16 15
f 17 15 21
f 9 13 17
f 21 20 17
f 17 24 23
f 13 16 17
f 23 18 17
f 20 24 17
f 17 11 7

