# https://github.com/mikedh/trimesh
v 0.00364809 0.01432903 0.05870362
v 0.00364809 0.01432903 0.05674785
v 0.00176349 0.01432903 0.05870362
v 0.00364809 0.01235015 0.05870362
v 0.00176349 0.01432903 0.05674785
v 0.00364809 0.01235015 0.05674785
v 0.00176349 0.01234568 0.05870362
v 0.00363518 0.01234568 0.05870362
v 0.00176349 0.01234568 0.05674785
v 0.00363518 0.01234782 0.05674785
v 0.00180408 0.01234568 0.05674785
f 4 8 6
f 10 6 8
f 11 10 8
f 1 2 5
f 3 1 5
f 3 5 9
f 9 7 3
f 8 1 3
f 3 7 8
f 8 4 1
f 6 2 1
f 1 4 6
f 11 5 2
f 11 9 5
f 2 6 11
f 6 10 11
f 7 9 11
f 11 8 7

