# https://github.com/mikedh/trimesh
v -0.00436470 0.01511918 0.05666594
v -0.00436470 0.01511918 0.05720314
v -0.00436470 0.01550939 0.05666594
v 0.01024880 0.01511918 0.05666594
v -0.00436470 0.01550939 0.05720314
v 0.01028033 0.01511918 0.05720314
v 0.01028033 0.01550939 0.05666594
v 0.01028033 0.01514599 0.05666594
v 0.01028033 0.01511918 0.05666636
v 0.01028033 0.01550939 0.05720314
f 9 4 8
f 1 2 5
f 5 3 1
f 6 2 4
f 4 2 1
f 4 9 6
f 10 2 6
f 10 5 2
f 3 5 10
f 10 7 3
f 1 3 8
f 8 4 1
f 3 7 8
f 6 9 8
f 8 10 6
f 7 10 8

