# https://github.com/mikedh/trimesh
v 0.00902956 -0.01234522 0.05960000
v 0.00902956 -0.01136247 0.05960000
v 0.00996089 -0.01234522 0.05960000
v 0.00902956 -0.01234522 0.06178471
v 0.00996089 -0.01139749 0.05960000
v 0.00902956 -0.01136247 0.06180000
v 0.00996089 -0.01234522 0.06180000
v 0.00905335 -0.01234522 0.06180000
v 0.00902956 -0.01234435 0.06180000
v 0.00996089 -0.01139749 0.06180000
f 9 4 8
f 1 2 5
f 5 3 1
f 4 6 2
f 4 2 1
f 4 9 6
f 2 6 10
f 10 5 2
f 3 5 10
f 10 7 3
f 1 3 8
f 8 4 1
f 3 7 8
f 6 9 8
f 8 10 6
f 7 10 8

