# https://github.com/mikedh/trimesh
v 0.00363528 -0.00076298 0.05649817
v 0.00363480 -0.00270613 0.05649817
v 0.00363528 -0.00076298 0.05589645
v 0.00065086 -0.00076298 0.05649817
v 0.00363480 -0.00270613 0.05589645
v -0.00125623 -0.00270613 0.05649817
v 0.00065134 -0.00076298 0.05589645
v 0.00065086 -0.00076298 0.05589910
v -0.00075731 -0.00217070 0.05649817
v -0.00125623 -0.00270613 0.05589645
v -0.00125623 -0.00266961 0.05649817
v -0.00125623 -0.00267018 0.05589645
v -0.00125623 -0.00266961 0.05589993
f 4 8 9
f 12 8 7
f 8 12 13
f 11 9 13
f 13 9 8
f 5 3 1
f 1 2 5
f 10 5 2
f 10 2 6
f 1 3 8
f 8 4 1
f 3 7 8
f 9 2 1
f 6 2 9
f 1 4 9
f 9 11 6
f 3 5 12
f 5 10 12
f 12 7 3
f 13 10 6
f 6 11 13
f 13 12 10

