# https://github.com/mikedh/trimesh
v 0.00316128 -0.01073314 0.06959999
v 0.00266986 -0.01073314 0.06959999
v 0.00316128 -0.01235055 0.06959999
v 0.00316128 -0.01073314 0.06844850
v 0.00275818 -0.01073314 0.06844850
v 0.00266986 -0.01073370 0.06845492
v 0.00266986 -0.01235055 0.06959999
v 0.00316128 -0.01240968 0.06959966
v 0.00316128 -0.01643172 0.06844850
v 0.00266986 -0.01643228 0.06844850
v 0.00266986 -0.01239741 0.06959966
v 0.00266986 -0.01241192 0.06959954
v 0.00316128 -0.01243089 0.06959853
v 0.00316128 -0.01632237 0.06856403
v 0.00266986 -0.01632906 0.06855772
v 0.00266986 -0.01243144 0.06959842
v 0.00316128 -0.01264847 0.06958388
v 0.00316128 -0.01630228 0.06858398
v 0.00266986 -0.01630953 0.06857744
v 0.00266986 -0.01263174 0.06958489
v 0.00316128 -0.01268585 0.06958128
v 0.00316128 -0.01627160 0.06861171
v 0.00266986 -0.01627160 0.06861171
v 0.00266986 -0.01270761 0.06957959
v 0.00266986 -0.01274220 0.06957700
v 0.00266986 -0.01350711 0.06951940
v 0.00316128 -0.01300164 0.06955750
v 0.00316128 -0.01622975 0.06864327
v 0.00266986 -0.01622473 0.06864733
v 0.00266986 -0.01375538 0.06950047
v 0.00316128 -0.01375706 0.06950035
v 0.00316128 -0.01619349 0.06866728
v 0.00316128 -0.01611036 0.06872172
v 0.00266986 -0.01607632 0.06874437
v 0.00266986 -0.01400812 0.06944873
v 0.00316128 -0.01410241 0.06942946
v 0.00316128 -0.01577282 0.06894230
v 0.00266986 -0.01574827 0.06895876
v 0.00266986 -0.01407340 0.06943532
v 0.00266986 -0.01416713 0.06941593
v 0.00316128 -0.01414872 0.06941976
v 0.00316128 -0.01574380 0.06896124
v 0.00316128 -0.01572818 0.06897026
v 0.00266986 -0.01571591 0.06897679
v 0.00266986 -0.01518421 0.06918971
v 0.00316128 -0.01518533 0.06918926
v 0.00316128 -0.01568969 0.06899145
v 0.00266986 -0.01567518 0.06899922
v 0.00266986 -0.01520374 0.06918385
v 0.00316128 -0.01520709 0.06918295
v 0.00316128 -0.01567574 0.06899900
v 0.00316128 -0.01565733 0.06900666
v 0.00266986 -0.01563780 0.06901478
v 0.00266986 -0.01522885 0.06917585
v 0.00316128 -0.01523052 0.06917540
v 0.00316128 -0.01559651 0.06903123
v 0.00266986 -0.01555746 0.06904690
v 0.00266986 -0.01548660 0.06907474
v 0.00316128 -0.01549163 0.06907271
v 0.00316128 -0.01558201 0.06903698
f 10 6 5
f 5 6 2
f 26 30 31
f 8 3 7
f 7 11 8
f 27 26 31
f 21 26 27
f 8 11 12
f 12 13 8
f 16 13 12
f 46 41 40
f 40 45 46
f 41 36 40
f 55 57 59
f 17 13 16
f 25 26 21
f 21 24 25
f 29 23 22
f 28 29 22
f 19 14 18
f 18 22 19
f 19 22 23
f 32 29 28
f 32 33 29
f 43 38 42
f 42 38 37
f 29 33 34
f 33 37 34
f 34 37 38
f 35 36 31
f 31 30 35
f 46 45 50
f 55 50 54
f 20 17 16
f 21 17 20
f 20 24 21
f 59 57 60
f 57 56 60
f 14 19 15
f 10 9 15
f 9 14 15
f 53 56 57
f 51 48 47
f 47 48 43
f 38 43 44
f 43 48 44
f 39 40 36
f 36 35 39
f 57 55 58
f 55 54 58
f 49 50 45
f 49 54 50
f 56 53 52
f 52 53 48
f 52 48 51
f 4 9 5
f 5 9 10
f 1 4 5
f 2 1 5
f 7 1 2
f 7 3 1
f 49 6 10
f 2 6 49
f 30 26 49
f 49 20 16
f 29 34 49
f 49 7 2
f 11 7 49
f 49 12 11
f 26 25 49
f 49 35 30
f 16 12 49
f 40 39 49
f 49 23 29
f 10 15 49
f 45 40 49
f 49 25 24
f 49 19 23
f 49 53 57
f 49 34 38
f 38 44 49
f 57 58 49
f 24 20 49
f 49 15 19
f 48 53 49
f 49 44 48
f 49 39 35
f 49 58 54
f 52 9 4
f 52 4 1
f 28 22 52
f 1 3 52
f 52 14 9
f 52 3 8
f 52 27 31
f 8 13 52
f 31 36 52
f 46 50 52
f 52 17 21
f 52 41 46
f 21 27 52
f 52 55 59
f 18 14 52
f 52 32 28
f 52 43 42
f 52 36 41
f 42 37 52
f 13 17 52
f 51 47 52
f 52 22 18
f 33 32 52
f 59 60 52
f 52 37 33
f 52 50 55
f 52 60 56
f 52 47 43

