# https://github.com/mikedh/trimesh
v 0.01135471 -0.01440025 0.04179509
v 0.01130401 -0.01440025 0.04228363
v 0.01199205 -0.01440083 0.04228363
v 0.01199205 -0.01440083 0.04179509
v 0.00592947 -0.01440025 0.04179509
v 0.00592947 -0.01440025 0.04228363
v 0.01207775 -0.01537650 0.04228363
v 0.01209525 -0.01557624 0.04179509
v 0.00592947 -0.01557624 0.04179509
v 0.00592947 -0.01557624 0.04228363
v 0.01209525 -0.01557624 0.04228363
f 1 2 3
f 1 3 4
f 8 4 7
f 7 11 8
f 7 4 3
f 6 1 5
f 6 2 1
f 5 9 6
f 6 9 10
f 4 9 5
f 5 1 4
f 8 9 4
f 11 9 8
f 10 9 11
f 7 6 10
f 7 3 2
f 2 6 7
f 10 11 7

