# https://github.com/mikedh/trimesh
v 0.00778035 0.01734971 0.04568246
v 0.00907152 0.01717998 0.04568246
v 0.00778326 0.01734942 0.04424881
v 0.00778035 0.01734971 0.04424881
v 0.00229677 0.01734971 0.04568246
v 0.00915779 0.01716873 0.04424881
v 0.01142703 0.01687026 0.04568246
v 0.01153753 0.01685583 0.04424881
v 0.00978786 0.01708588 0.04424881
v 0.00229677 0.01734971 0.04424881
v 0.00229677 0.01440141 0.04568246
v 0.01219959 0.01676865 0.04568246
v 0.01219959 0.01676865 0.04424881
v 0.00229677 0.01440141 0.04424881
v 0.01199215 0.01440141 0.04568246
v 0.01199215 0.01440141 0.04424881
f 3 1 2
f 4 1 3
f 12 13 8
f 12 8 7
f 7 8 2
f 3 2 6
f 2 8 9
f 9 6 2
f 12 15 13
f 13 15 16
f 5 1 4
f 4 10 5
f 14 15 11
f 16 15 14
f 14 11 5
f 5 10 14
f 7 1 5
f 5 11 7
f 7 15 12
f 11 15 7
f 7 2 1
f 9 13 16
f 16 14 9
f 9 4 3
f 10 4 9
f 9 14 10
f 9 8 13
f 3 6 9

