# https://github.com/mikedh/trimesh
v 0.01372102 -0.01235020 0.04377713
v 0.01400587 -0.01263476 0.04377713
v 0.01393442 -0.01256332 0.04321157
v 0.01374579 -0.01237488 0.04321157
v 0.01372102 -0.01235020 0.04321157
v 0.00448299 -0.01235020 0.04377713
v 0.01421546 -0.01284427 0.04377713
v 0.01421546 -0.01284427 0.04321157
v 0.00448299 -0.01235020 0.04321157
v 0.00448299 -0.01440014 0.04377713
v 0.01372483 -0.01318783 0.04321157
v 0.01410781 -0.01291973 0.04321157
v 0.01420117 -0.01285431 0.04321157
v 0.01199288 -0.01440014 0.04377713
v 0.00448299 -0.01440014 0.04321157
v 0.01266928 -0.01392674 0.04321157
v 0.01199288 -0.01440014 0.04321157
f 7 3 2
f 3 1 2
f 4 5 1
f 4 1 3
f 7 14 11
f 11 12 7
f 8 3 7
f 7 12 13
f 13 8 7
f 14 17 16
f 16 11 14
f 15 10 6
f 6 9 15
f 2 1 6
f 6 10 2
f 2 14 7
f 10 14 2
f 6 1 5
f 5 9 6
f 17 14 10
f 10 15 17
f 16 15 9
f 3 8 16
f 9 5 16
f 16 4 3
f 5 4 16
f 12 11 16
f 16 17 15
f 16 13 12
f 8 13 16

