# https://github.com/mikedh/trimesh
v -0.00242556 -0.00642474 0.06650620
v -0.00242556 -0.00642474 0.06473680
v -0.00296999 -0.00642474 0.06650620
v -0.00242556 -0.01732326 0.06650620
v -0.00296999 -0.00642474 0.06473680
v -0.00242556 -0.01735000 0.06473680
v -0.00296999 -0.01732326 0.06650620
v -0.00296999 -0.01733717 0.06640469
v -0.00242556 -0.01735000 0.06630804
v -0.00296999 -0.01735000 0.06473680
v -0.00296999 -0.01735000 0.06630804
f 8 9 4
f 4 7 8
f 9 8 11
f 1 2 5
f 3 1 5
f 10 5 2
f 10 2 6
f 9 2 1
f 6 2 9
f 1 4 9
f 7 1 3
f 7 4 1
f 3 5 11
f 5 10 11
f 11 7 3
f 11 8 7
f 11 10 6
f 6 9 11

