# https://github.com/mikedh/trimesh
v -0.00436308 -0.01734971 0.03833258
v -0.00436308 -0.01734971 0.05432741
v -0.00436308 -0.01440043 0.03833258
v 0.00777964 -0.01734971 0.03833258
v -0.00436308 -0.01440043 0.05432741
v 0.00777964 -0.01734971 0.05432741
v 0.01171155 -0.01440043 0.03833258
v 0.00812824 -0.01730409 0.03833258
v 0.01199205 -0.01440043 0.05432741
v 0.01017770 -0.01703440 0.05432741
v 0.01199205 -0.01440100 0.03833258
v 0.01219797 -0.01676875 0.03833258
v 0.01219797 -0.01676875 0.05432741
v 0.01216879 -0.01642398 0.03833258
f 14 11 9
f 9 13 14
f 14 13 12
f 9 11 7
f 12 13 8
f 4 8 6
f 10 8 13
f 10 6 8
f 5 3 1
f 1 2 5
f 3 5 7
f 7 5 9
f 8 4 1
f 1 3 8
f 3 7 8
f 8 14 12
f 11 14 8
f 8 7 11
f 1 4 6
f 6 2 1
f 10 5 2
f 9 5 10
f 10 13 9
f 2 6 10

