# https://github.com/mikedh/trimesh
v 0.00649922 -0.01734981 0.05981344
v 0.00649922 -0.01542666 0.05981344
v 0.00711159 -0.01734981 0.05981344
v 0.00649922 -0.01734981 0.06630774
v 0.00711159 -0.01542666 0.05981344
v 0.00649922 -0.01542666 0.06909776
v 0.00711159 -0.01734981 0.06630774
v 0.00711159 -0.01733663 0.06657675
v 0.00649922 -0.01733475 0.06658856
v 0.00711159 -0.01542666 0.06909686
v 0.00649922 -0.01549124 0.06907232
v 0.00711159 -0.01551063 0.06906414
v 0.00711159 -0.01733569 0.06658493
v 0.00711159 -0.01732025 0.06670489
v 0.00649922 -0.01732609 0.06665581
v 0.00649922 -0.01563846 0.06901415
v 0.00711159 -0.01562585 0.06901870
v 0.00711159 -0.01730463 0.06682485
v 0.00649922 -0.01730350 0.06683030
v 0.00649922 -0.01567988 0.06899689
v 0.00711159 -0.01568045 0.06899689
v 0.00711159 -0.01566689 0.06900234
v 0.00711159 -0.01723497 0.06712203
v 0.00649922 -0.01724194 0.06709204
v 0.00649922 -0.01569475 0.06898871
v 0.00711159 -0.01571019 0.06898053
v 0.00711159 -0.01722518 0.06716293
v 0.00649922 -0.01722461 0.06716565
v 0.00649922 -0.01571565 0.06897689
v 0.00649922 -0.01621776 0.06864882
v 0.00711159 -0.01625673 0.06862337
v 0.00711159 -0.01722273 0.06717020
v 0.00711159 -0.01710638 0.06749191
v 0.00649922 -0.01710638 0.06749191
v 0.00649922 -0.01625240 0.06862610
v 0.00649922 -0.01626144 0.06861973
v 0.00711159 -0.01626615 0.06861610
v 0.00711159 -0.01710375 0.06749736
v 0.00649922 -0.01709170 0.06752190
v 0.00649922 -0.01627217 0.06861065
v 0.00711159 -0.01627575 0.06860792
v 0.00711159 -0.01707739 0.06755007
v 0.00649922 -0.01708944 0.06752644
v 0.00649922 -0.01627951 0.06860428
v 0.00711159 -0.01627989 0.06860428
v 0.00711159 -0.01695144 0.06780181
v 0.00649922 -0.01695050 0.06780363
v 0.00649922 -0.01628836 0.06859611
v 0.00711159 -0.01628874 0.06859611
v 0.00711159 -0.01693336 0.06782998
v 0.00649922 -0.01692395 0.06784453
v 0.00649922 -0.01629213 0.06859247
v 0.00649922 -0.01629665 0.06858793
v 0.00649922 -0.01670857 0.06815261
v 0.00711159 -0.01671912 0.06814080
v 0.00711159 -0.01675526 0.06810081
v 0.00649922 -0.01675526 0.06810081
v 0.00649922 -0.01673776 0.06812080
v 0.00711159 -0.01674284 0.06811535
v 0.00711159 -0.01674849 0.06810899
f 31 26 30
f 19 18 23
f 14 18 19
f 28 23 27
f 12 10 6
f 35 36 31
f 31 30 35
f 15 14 19
f 9 14 15
f 8 4 7
f 8 9 4
f 19 23 24
f 23 28 24
f 34 28 33
f 29 30 26
f 26 25 29
f 31 36 37
f 49 53 54
f 13 14 9
f 9 8 13
f 34 33 38
f 32 28 27
f 32 33 28
f 50 47 46
f 21 16 20
f 22 16 21
f 17 16 22
f 11 16 17
f 11 17 12
f 11 12 6
f 49 54 55
f 41 44 45
f 49 45 48
f 48 45 44
f 40 44 41
f 41 37 40
f 40 37 36
f 46 47 43
f 47 50 51
f 51 50 56
f 56 57 51
f 54 58 59
f 59 55 54
f 52 53 49
f 49 48 52
f 34 38 39
f 38 43 39
f 46 43 42
f 42 43 38
f 60 58 57
f 60 59 58
f 60 57 56
f 1 2 5
f 5 3 1
f 10 5 2
f 2 6 10
f 1 3 4
f 3 7 4
f 26 21 20
f 20 25 26
f 39 2 1
f 39 6 2
f 1 4 39
f 30 29 39
f 39 15 19
f 4 9 39
f 36 35 39
f 19 24 39
f 53 52 39
f 39 28 34
f 25 20 39
f 39 35 30
f 39 11 6
f 9 15 39
f 39 24 28
f 39 40 36
f 39 51 57
f 39 29 25
f 39 54 53
f 57 58 39
f 39 20 16
f 16 11 39
f 39 58 54
f 39 48 44
f 44 40 39
f 39 43 47
f 47 51 39
f 39 52 48
f 3 5 60
f 5 10 60
f 60 7 3
f 27 23 60
f 60 32 27
f 56 50 60
f 60 26 31
f 60 22 21
f 60 21 26
f 10 12 60
f 60 23 18
f 18 14 60
f 60 8 7
f 46 42 60
f 60 45 49
f 31 37 60
f 14 13 60
f 12 17 60
f 60 37 41
f 60 13 8
f 60 38 33
f 33 32 60
f 60 50 46
f 17 22 60
f 49 55 60
f 41 45 60
f 55 59 60
f 60 42 38

