# https://github.com/mikedh/trimesh
v -0.00361228 -0.00896837 0.06662343
v -0.00361228 -0.00896837 0.06309503
v -0.00436470 -0.00896837 0.06662343
v -0.00361228 -0.01730816 0.06662343
v -0.00436470 -0.00896837 0.06309503
v -0.00361228 -0.01735000 0.06309503
v -0.00436470 -0.01730816 0.06662343
v -0.00361228 -0.01730898 0.06661929
v -0.00436470 -0.01735000 0.06309503
v -0.00361228 -0.01735000 0.06630804
v -0.00436470 -0.01735000 0.06630804
f 4 7 8
f 10 8 11
f 11 8 7
f 1 2 5
f 3 1 5
f 9 5 2
f 9 2 6
f 7 1 3
f 7 4 1
f 8 2 1
f 6 2 8
f 1 4 8
f 8 10 6
f 3 5 11
f 5 9 11
f 11 7 3
f 11 9 6
f 6 10 11

