# https://github.com/mikedh/trimesh
v 0.01003714 0.01576955 0.06893336
v 0.01021482 0.01564548 0.06859606
v 0.01003714 0.01576955 0.06859606
v 0.01003714 0.01520693 0.06918309
v 0.01084114 0.01520693 0.06918309
v 0.01507928 0.01223935 0.06859606
v 0.01003714 0.01243633 0.06859606
v 0.01003714 0.01519967 0.06918515
v 0.01287359 0.01378379 0.06949660
v 0.01003714 0.01516200 0.06919351
v 0.01003714 0.01482920 0.06926712
v 0.01507928 0.01223935 0.06959990
v 0.01343921 0.01223935 0.06859606
v 0.01003714 0.01243633 0.06959960
v 0.01051934 0.01224142 0.06859606
v 0.01052181 0.01223935 0.06959990
v 0.01492085 0.01235028 0.06959990
v 0.01003714 0.01387468 0.06947822
v 0.01003714 0.01269760 0.06958309
v 0.01029527 0.01235028 0.06959990
v 0.01003764 0.01243633 0.06959960
f 1 4 5
f 9 12 6
f 2 3 1
f 1 5 2
f 2 9 6
f 5 9 2
f 7 15 16
f 16 14 7
f 15 13 16
f 12 9 17
f 14 16 20
f 9 18 19
f 14 21 19
f 19 21 17
f 19 17 9
f 8 5 4
f 8 10 5
f 5 10 11
f 11 9 5
f 11 18 9
f 7 3 13
f 13 2 6
f 13 15 7
f 3 2 13
f 16 13 6
f 6 12 16
f 17 21 20
f 20 21 14
f 20 16 12
f 12 17 20
f 1 3 11
f 11 4 1
f 11 3 7
f 7 14 11
f 14 19 11
f 11 19 18
f 11 8 4
f 10 8 11

