# https://github.com/mikedh/trimesh
v 0.02341183 0.00002072 0.06145313
v 0.02392951 0.00002072 0.06145313
v 0.02341183 0.00002072 0.06199991
v 0.02341183 0.00324981 0.06145313
v 0.02417633 0.00002072 0.06170003
v 0.02392951 0.00224012 0.06145313
v 0.02417633 0.00002072 0.06199991
v 0.02341183 0.00379082 0.06199991
v 0.02341183 0.00379082 0.06170003
v 0.02357633 0.00292911 0.06145313
v 0.02417633 0.00229990 0.06170003
v 0.02417633 0.00229990 0.06199991
f 10 11 6
f 4 9 10
f 10 9 11
f 2 3 1
f 5 7 2
f 2 7 3
f 3 7 12
f 8 3 12
f 5 2 11
f 11 2 6
f 11 7 5
f 11 12 7
f 1 3 9
f 9 3 8
f 9 4 1
f 8 12 9
f 12 11 9
f 10 2 1
f 1 4 10
f 6 2 10

