# https://github.com/mikedh/trimesh
v 0.01372098 -0.01235020 0.04229015
v 0.01378609 -0.01241522 0.04229015
v 0.01386017 -0.01248907 0.04060818
v 0.01372098 -0.01235020 0.04060818
v 0.00848151 -0.01235020 0.04229015
v 0.01399825 -0.01262714 0.04229015
v 0.01421546 -0.01284427 0.04229015
v 0.01421546 -0.01284427 0.04060818
v 0.00848151 -0.01235020 0.04060818
v 0.00848151 -0.01440014 0.04229015
v 0.01413127 -0.01290327 0.04229015
v 0.01402070 -0.01298073 0.04229015
v 0.01410545 -0.01292133 0.04060818
v 0.00848151 -0.01440014 0.04060818
v 0.01199282 -0.01440014 0.04229015
v 0.01365980 -0.01323339 0.04229015
v 0.01269497 -0.01390867 0.04060818
v 0.01199282 -0.01440014 0.04060818
v 0.01258721 -0.01398413 0.04229015
f 7 3 6
f 4 1 3
f 3 1 2
f 2 6 3
f 8 3 7
f 12 16 13
f 13 8 12
f 15 18 19
f 19 18 16
f 13 16 17
f 16 18 17
f 11 8 7
f 11 12 8
f 14 10 5
f 5 9 14
f 5 1 4
f 4 9 5
f 18 15 10
f 10 14 18
f 17 14 9
f 17 4 3
f 9 4 17
f 3 8 17
f 17 8 13
f 17 18 14
f 11 1 5
f 5 10 11
f 11 2 1
f 10 15 11
f 7 6 11
f 6 2 11
f 15 19 11
f 16 12 11
f 11 19 16

