# https://github.com/mikedh/trimesh
v 0.00777505 -0.01735299 0.03560000
v 0.00736861 -0.01763843 0.03533712
v 0.00771563 -0.01739535 0.03533712
v 0.00777505 -0.01735299 0.03533712
v -0.00436470 -0.01735299 0.03560000
v 0.00342423 -0.02039970 0.03560000
v 0.00342423 -0.02039970 0.03533712
v -0.00436470 -0.01735299 0.03533712
v -0.00436470 -0.02039970 0.03560000
v -0.00436470 -0.02039970 0.03533712
f 1 6 2
f 7 2 6
f 1 2 3
f 3 4 1
f 9 6 1
f 9 1 5
f 6 9 7
f 7 9 10
f 8 7 10
f 2 7 8
f 8 3 2
f 4 3 8
f 8 9 5
f 10 9 8
f 5 1 8
f 1 4 8

