# https://github.com/mikedh/trimesh
v 0.01215136 -0.01067051 0.06069545
v 0.01215136 -0.01067051 0.06179988
v 0.01215136 -0.01026618 0.06069545
v 0.01731963 -0.01067051 0.06069545
v 0.01221999 -0.01067051 0.06198921
v 0.01215530 -0.01026618 0.06198921
v 0.01215136 -0.01026618 0.06179988
v 0.01789732 -0.01026618 0.06069545
v 0.01731963 -0.01067051 0.06198921
v 0.01789732 -0.01026618 0.06198921
f 5 6 2
f 7 2 6
f 4 3 8
f 1 3 4
f 10 6 9
f 9 6 5
f 9 4 8
f 8 10 9
f 1 4 2
f 2 9 5
f 4 9 2
f 8 3 7
f 7 10 8
f 7 6 10
f 7 3 1
f 1 2 7

