# https://github.com/mikedh/trimesh
v -0.00361228 -0.00798151 0.06959999
v -0.00401427 -0.00814806 0.06959999
v -0.00361228 -0.00814806 0.06959999
v -0.00361228 -0.00768758 0.06956373
v -0.00436470 -0.00814806 0.06958826
v -0.00361228 -0.00814806 0.05870362
v -0.00436470 -0.00768758 0.06952746
v -0.00361228 -0.00768758 0.05870362
v -0.00436470 -0.00814806 0.05870362
v -0.00436470 -0.00768758 0.05870362
f 5 1 4
f 5 4 7
f 2 3 1
f 2 1 5
f 5 7 9
f 9 7 10
f 1 3 8
f 8 4 1
f 8 3 6
f 10 7 8
f 8 7 4
f 6 9 8
f 8 9 10
f 6 3 2
f 5 9 2
f 2 9 6

