# https://github.com/mikedh/trimesh
v 0.02167591 -0.00680593 0.06431852
v 0.02167221 -0.00680593 0.06464551
v 0.02158048 -0.00694137 0.06464551
v 0.02147949 -0.00709573 0.06431852
v 0.01221167 -0.00680593 0.06431852
v 0.01221167 -0.00680593 0.06464551
v 0.02137943 -0.00723798 0.06464551
v 0.02140074 -0.00721187 0.06431852
v 0.01221167 -0.01032056 0.06431852
v 0.01221167 -0.01032056 0.06464551
v 0.02128122 -0.00735904 0.06464551
v 0.02125343 -0.00739347 0.06431852
v 0.01222001 -0.01067051 0.06431852
v 0.01222001 -0.01067051 0.06464551
v 0.02122563 -0.00742752 0.06464551
v 0.02105423 -0.00763862 0.06464551
v 0.02105423 -0.00763862 0.06431852
v 0.01731949 -0.01067051 0.06431852
v 0.01731949 -0.01067051 0.06464551
v 0.02095509 -0.00772791 0.06464551
v 0.02086985 -0.00780471 0.06431852
v 0.01745568 -0.01057517 0.06431852
v 0.01747885 -0.01055890 0.06464551
v 0.01943933 -0.00909063 0.06464551
v 0.02018887 -0.00841683 0.06431852
v 0.01837107 -0.00993391 0.06431852
v 0.01791523 -0.01025322 0.06464551
v 0.01929480 -0.00922039 0.06464551
v 0.01917620 -0.00932708 0.06431852
v 0.01895848 -0.00952230 0.06431852
v 0.01895848 -0.00952230 0.06464551
v 0.01839423 -0.00991764 0.06464551
f 31 26 30
f 22 19 18
f 26 31 32
f 29 31 30
f 17 12 16
f 27 22 26
f 26 32 27
f 17 16 21
f 31 29 28
f 28 29 24
f 11 12 8
f 19 22 23
f 22 27 23
f 24 29 25
f 25 21 24
f 24 21 20
f 20 21 16
f 15 16 12
f 12 11 15
f 7 11 8
f 8 4 7
f 1 2 3
f 3 4 1
f 3 7 4
f 6 1 5
f 6 2 1
f 5 9 6
f 6 9 10
f 14 9 13
f 10 9 14
f 13 18 14
f 18 19 14
f 25 9 5
f 5 1 25
f 25 18 13
f 13 9 25
f 25 22 18
f 25 12 17
f 30 26 25
f 1 4 25
f 26 22 25
f 25 4 8
f 8 12 25
f 25 29 30
f 17 21 25
f 2 6 3
f 3 6 10
f 10 14 3
f 31 28 3
f 3 14 19
f 16 15 3
f 3 32 31
f 19 23 3
f 3 27 32
f 3 28 24
f 24 20 3
f 3 23 27
f 3 20 16
f 3 15 11
f 11 7 3

