# https://github.com/mikedh/trimesh
v 0.00416838 0.01806329 0.01630093
v 0.00416838 0.01987924 0.01630093
v 0.00511639 0.01806329 0.01630093
v 0.00416838 0.01806329 0.02289687
v 0.00511639 0.01921544 0.01630093
v 0.00416838 0.01987924 0.02578671
v 0.00511639 0.01806329 0.02578671
v 0.00416922 0.01806329 0.02578671
v 0.00416838 0.01962520 0.02578671
v 0.00511639 0.01921544 0.02578671
f 9 4 8
f 5 3 1
f 1 2 5
f 3 7 4
f 1 3 4
f 7 8 4
f 10 5 2
f 2 6 10
f 10 7 3
f 3 5 10
f 9 2 1
f 1 4 9
f 9 6 2
f 9 8 7
f 9 10 6
f 7 10 9

