# https://github.com/mikedh/trimesh
v 0.00678195 0.00958163 0.02779981
v 0.00602390 0.00924908 0.02779981
v 0.00678195 0.00919400 0.02779981
v 0.00678195 0.00958163 0.02580000
v 0.00602390 0.00925064 0.02583426
v 0.00602390 0.00919381 0.02779981
v 0.00672674 0.00919381 0.02779981
v 0.00678195 0.00919381 0.02774186
v 0.00678195 0.00919381 0.02580000
v 0.00602390 0.00925064 0.02580000
v 0.00602390 0.00919381 0.02580000
f 2 1 5
f 8 3 7
f 10 11 6
f 10 6 2
f 2 5 10
f 1 4 10
f 10 5 1
f 9 4 1
f 1 3 9
f 9 3 8
f 11 10 9
f 9 10 4
f 2 6 7
f 7 1 2
f 7 3 1
f 6 11 7
f 11 9 7
f 7 9 8

