# https://github.com/mikedh/trimesh
v 0.00972914 0.01567663 0.03534637
v 0.00972914 0.01567663 0.03564590
v 0.00972914 0.01598562 0.03534637
v 0.01017032 0.01567663 0.03534637
v 0.01017701 0.01567663 0.03564590
v 0.00972914 0.01599004 0.03564590
v 0.00972914 0.01633146 0.03559999
v 0.01023516 0.01633146 0.03559999
v 0.01023516 0.01567663 0.03559999
v 0.01023516 0.01567663 0.03564517
v 0.01023516 0.01633146 0.03564514
v 0.00972914 0.01633146 0.03564497
f 3 7 8
f 8 9 4
f 4 3 8
f 1 3 4
f 11 12 6
f 5 10 11
f 11 6 5
f 5 6 2
f 8 7 12
f 12 11 8
f 8 11 10
f 10 9 8
f 6 3 1
f 1 2 6
f 7 3 6
f 6 12 7
f 5 2 1
f 1 4 5
f 5 4 9
f 9 10 5

