# https://github.com/mikedh/trimesh
v 0.00364418 -0.01456730 0.05870362
v 0.00364418 -0.01235002 0.05870362
v 0.00573458 -0.01456730 0.05870362
v 0.00364418 -0.01456730 0.06932588
v 0.00573458 -0.01235002 0.05870362
v 0.00364418 -0.01234261 0.05960063
v 0.00366751 -0.01234261 0.05959849
v 0.00573458 -0.01456730 0.06932481
v 0.00573458 -0.01445775 0.06934934
v 0.00573458 -0.01405245 0.06944000
v 0.00364418 -0.01413107 0.06942294
v 0.00369677 -0.01234261 0.05959849
v 0.00573458 -0.01234261 0.05959956
v 0.00364418 -0.01234261 0.06959999
v 0.00573458 -0.01376432 0.06949867
v 0.00364418 -0.01388998 0.06947307
v 0.00573458 -0.01234261 0.06942614
v 0.00364418 -0.01235002 0.06959999
v 0.00573458 -0.01234631 0.06959999
v 0.00364418 -0.01375866 0.06949973
v 0.00573458 -0.01257238 0.06958933
v 0.00573458 -0.01235002 0.06959999
v 0.00364418 -0.01241426 0.06959893
v 0.00573458 -0.01241993 0.06959893
v 0.00364418 -0.01270348 0.06957973
v 0.00573458 -0.01246283 0.06959679
v 0.00364418 -0.01244824 0.06959679
v 0.00573458 -0.01244562 0.06959786
f 7 2 6
f 19 17 14
f 12 13 5
f 4 8 9
f 9 10 4
f 4 10 11
f 21 20 15
f 16 11 10
f 16 10 15
f 15 20 16
f 20 21 25
f 28 24 23
f 26 25 21
f 28 23 26
f 25 26 27
f 27 26 23
f 24 22 18
f 18 23 24
f 1 2 5
f 5 3 1
f 8 4 1
f 1 3 8
f 6 14 12
f 14 17 12
f 12 7 6
f 17 13 12
f 12 5 2
f 2 7 12
f 3 5 22
f 17 19 22
f 22 8 3
f 22 13 17
f 5 13 22
f 15 10 22
f 22 9 8
f 10 9 22
f 22 21 15
f 22 26 21
f 22 24 28
f 28 26 22
f 18 14 6
f 18 2 1
f 6 2 18
f 1 4 18
f 18 16 20
f 4 11 18
f 11 16 18
f 20 25 18
f 25 27 18
f 18 27 23
f 18 22 19
f 18 19 14

