# https://github.com/mikedh/trimesh
v 0.00337127 -0.01918516 0.03281924
v 0.00515957 -0.01918516 0.03281924
v 0.00337127 -0.01918516 0.03533687
v 0.00337127 -0.01235067 0.03281924
v 0.00515957 -0.01918516 0.03533687
v 0.00646536 -0.01827055 0.03281924
v 0.00337127 -0.01235067 0.03533687
v 0.00646536 -0.01235067 0.03281924
v 0.00646536 -0.01827055 0.03533687
v 0.00646536 -0.01235067 0.03533687
f 8 2 1
f 1 4 8
f 6 2 8
f 6 8 9
f 9 8 10
f 7 4 1
f 1 3 7
f 7 8 4
f 10 8 7
f 5 9 10
f 10 7 5
f 5 7 3
f 1 2 5
f 5 3 1
f 5 2 6
f 6 9 5

