# https://github.com/mikedh/trimesh
v 0.01255594 -0.01023227 0.02578671
v 0.01389328 -0.00920008 0.02578671
v 0.01794441 -0.01023227 0.02578671
v 0.00744771 -0.01023227 0.02580011
v 0.00610385 -0.00925945 0.02580011
v 0.00610385 -0.00919551 0.02580011
v 0.01941992 -0.00920008 0.02578671
v 0.01794441 -0.01023227 0.02660023
v 0.00744771 -0.01023227 0.02780000
v 0.00610385 -0.00925945 0.02779980
v 0.00610385 -0.00919551 0.02779980
v 0.00678295 -0.00919551 0.02580011
v 0.01941992 -0.00920008 0.02660023
v 0.00863646 -0.00919561 0.02580011
v 0.01614434 -0.01023227 0.02763229
v 0.00678295 -0.00958169 0.02780000
v 0.01585107 -0.01023227 0.02780000
v 0.00678295 -0.00919561 0.02780000
v 0.00678295 -0.00919551 0.02779980
v 0.00863646 -0.00919561 0.02780000
v 0.01732657 -0.00920008 0.02780000
f 5 1 4
f 6 1 5
f 6 2 1
f 16 10 9
f 15 8 13
f 15 21 17
f 13 21 15
f 20 21 13
f 12 14 7
f 10 4 9
f 5 4 10
f 5 10 6
f 6 10 11
f 3 2 7
f 1 2 3
f 8 3 7
f 7 13 8
f 11 10 16
f 16 18 11
f 9 4 15
f 15 4 1
f 15 17 9
f 1 3 15
f 3 8 15
f 9 17 20
f 20 16 9
f 18 16 20
f 17 21 20
f 20 13 7
f 7 14 20
f 7 2 12
f 2 6 12
f 11 18 19
f 18 20 19
f 19 6 11
f 19 12 6
f 19 20 14
f 14 12 19

