# https://github.com/mikedh/trimesh
v 0.00811356 0.00909346 0.06959999
v 0.00760046 0.01000053 0.06959999
v 0.00811356 0.00695859 0.06959999
v 0.00811356 0.00909346 0.06246610
v 0.00364571 0.01000053 0.06959999
v 0.00760046 0.01000053 0.06246610
v 0.00364571 0.00695859 0.06959999
v 0.00811356 0.00695859 0.06246610
v 0.00364571 0.01000053 0.06246610
v 0.00364571 0.00695859 0.06246610
f 7 3 1
f 7 2 5
f 1 2 7
f 9 7 5
f 10 7 9
f 1 3 8
f 8 4 1
f 3 7 8
f 8 7 10
f 10 9 6
f 6 8 10
f 4 8 6
f 6 2 1
f 1 4 6
f 5 2 6
f 6 9 5

