# https://github.com/mikedh/trimesh
v 0.02211068 0.00607943 0.06808438
v 0.02221665 0.00592299 0.06808438
v 0.02211068 0.00607943 0.06501963
v 0.02211068 0.00250435 0.06808438
v 0.02263531 0.00530492 0.06808438
v 0.02263531 0.00530492 0.06501963
v 0.02211068 0.00250435 0.06501963
v 0.02359165 0.00250435 0.06808438
v 0.02284971 0.00488704 0.06808438
v 0.02328287 0.00404253 0.06501963
v 0.02359165 0.00250435 0.06501963
v 0.02359165 0.00344020 0.06808438
v 0.02348945 0.00363969 0.06808438
v 0.02359165 0.00344020 0.06501963
f 2 3 1
f 2 6 3
f 2 5 6
f 13 14 10
f 12 14 13
f 9 10 6
f 6 5 9
f 9 13 10
f 1 3 7
f 7 4 1
f 1 4 9
f 9 4 8
f 8 12 9
f 9 2 1
f 5 2 9
f 12 13 9
f 11 7 3
f 3 6 11
f 6 10 11
f 10 14 11
f 4 7 11
f 8 4 11
f 11 12 8
f 11 14 12

