# https://github.com/mikedh/trimesh
v 0.01209513 -0.01557624 0.05432741
v 0.01204599 -0.01501391 0.05432741
v 0.01081463 -0.01557624 0.05432741
v 0.01209513 -0.01557624 0.04271398
v 0.01209149 -0.01553424 0.04271398
v 0.01207883 -0.01538874 0.04271398
v 0.01081463 -0.01501391 0.05432741
v 0.01204599 -0.01501391 0.04271398
v 0.01081463 -0.01557624 0.04271398
v 0.01081463 -0.01501391 0.04271398
f 6 2 1
f 6 8 2
f 1 4 5
f 5 6 1
f 1 2 7
f 3 1 7
f 9 1 3
f 9 4 1
f 3 7 9
f 9 7 10
f 8 7 2
f 10 7 8
f 4 9 5
f 5 9 10
f 10 8 5
f 8 6 5

