# https://github.com/mikedh/trimesh
v -0.00138895 -0.00680449 0.06959999
v -0.00198481 -0.00726141 0.06959999
v -0.00138895 -0.00888178 0.06959999
v -0.00138895 -0.00583412 0.06949749
v -0.00198481 -0.00652527 0.06952235
v -0.00198481 -0.00888178 0.06959999
v -0.00138895 -0.00888178 0.06646464
v -0.00138895 -0.00495259 0.06920623
v -0.00198481 -0.00629142 0.06949749
v -0.00198481 -0.00888178 0.06646464
v -0.00138895 -0.00495259 0.06646464
v -0.00141870 -0.00495259 0.06919795
v -0.00198481 -0.00538720 0.06919795
v -0.00198481 -0.00564912 0.06928480
v -0.00198481 -0.00588797 0.06936398
v -0.00198481 -0.00495259 0.06646464
v -0.00198481 -0.00495259 0.06893125
f 2 1 5
f 4 8 9
f 9 5 4
f 4 5 1
f 17 13 12
f 12 13 8
f 9 8 15
f 8 13 14
f 14 15 8
f 6 3 1
f 6 1 2
f 10 11 7
f 16 11 10
f 3 6 10
f 10 7 3
f 1 3 4
f 3 7 4
f 7 11 4
f 11 8 4
f 16 17 12
f 12 11 16
f 12 8 11
f 14 6 2
f 16 10 14
f 14 17 16
f 14 10 6
f 2 5 14
f 14 5 9
f 14 13 17
f 9 15 14

