# https://github.com/mikedh/trimesh
v 0.00984296 -0.01455637 0.05720314
v 0.00984296 -0.01550611 0.05720314
v 0.00984296 -0.01455637 0.05648113
v -0.00436331 -0.01455637 0.05720314
v 0.00984296 -0.01550994 0.05720307
v 0.00822677 -0.01550994 0.05720314
v 0.00984296 -0.01550994 0.05648113
v -0.00436331 -0.01455637 0.05648113
v -0.00436331 -0.01550994 0.05720314
v -0.00436331 -0.01550994 0.05648113
f 2 6 5
f 1 3 8
f 4 1 8
f 7 8 3
f 10 8 7
f 2 3 1
f 5 7 2
f 2 7 3
f 9 7 5
f 5 6 9
f 10 7 9
f 9 1 4
f 9 2 1
f 6 2 9
f 4 8 9
f 9 8 10

