# https://github.com/mikedh/trimesh
v 0.00993634 -0.00680556 0.06180595
v 0.00993634 -0.00680556 0.06070001
v 0.00903298 -0.00680556 0.06180595
v 0.00993634 -0.00855134 0.06180595
v 0.00903298 -0.00680556 0.06070001
v 0.00993634 -0.00700002 0.06069555
v 0.00903298 -0.00856740 0.06180595
v 0.00903298 -0.00963532 0.06179997
v 0.00993634 -0.00959238 0.06179997
v 0.00903298 -0.00700002 0.06069555
v 0.00993634 -0.00959238 0.06069555
v 0.00903298 -0.00963532 0.06069555
f 4 7 8
f 8 9 4
f 3 7 4
f 4 1 3
f 1 4 11
f 11 2 1
f 6 2 11
f 11 4 9
f 11 12 10
f 11 10 6
f 8 12 11
f 11 9 8
f 5 12 8
f 5 7 3
f 8 7 5
f 10 12 5
f 1 2 5
f 3 1 5
f 5 2 6
f 6 10 5

