# https://github.com/mikedh/trimesh
v 0.01199316 -0.01440014 0.05432737
v 0.01204605 -0.01501386 0.05432737
v 0.01204605 -0.01501386 0.05387636
v 0.01199449 -0.01442465 0.05387636
v 0.01199216 -0.01440080 0.05387636
v 0.01010670 -0.01440014 0.05387636
v 0.00864769 -0.01440014 0.05432737
v 0.00864769 -0.01501386 0.05432737
v 0.00864769 -0.01501386 0.05387636
v 0.00864769 -0.01440014 0.05387636
f 3 1 2
f 5 6 1
f 1 3 4
f 4 5 1
f 2 1 8
f 8 1 7
f 2 8 9
f 9 3 2
f 6 5 10
f 3 9 10
f 10 4 3
f 5 4 10
f 7 1 10
f 1 6 10
f 10 8 7
f 10 9 8

