# https://github.com/mikedh/trimesh
v 0.01232003 0.00875983 0.06403660
v 0.01232003 0.00875983 0.06959945
v 0.01232003 0.01042763 0.06403660
v 0.01980764 0.00875983 0.06403660
v 0.01232003 0.01042763 0.06959945
v 0.01980764 0.00875983 0.06959945
v 0.01239332 0.01050092 0.06959945
v 0.01234128 0.01044842 0.06403660
v 0.01895891 0.00952274 0.06403660
v 0.01895891 0.00952274 0.06959945
v 0.01239406 0.01049990 0.06403660
v 0.01756194 0.01050092 0.06959945
v 0.01727830 0.01050092 0.06403660
v 0.01756194 0.01050092 0.06403660
f 7 13 11
f 3 5 7
f 7 11 8
f 8 3 7
f 6 2 1
f 1 4 6
f 1 2 3
f 2 5 3
f 2 6 10
f 7 5 10
f 10 5 2
f 10 12 7
f 7 12 14
f 14 13 7
f 9 4 1
f 1 3 9
f 9 11 13
f 9 8 11
f 13 14 9
f 3 8 9
f 9 6 4
f 9 10 6
f 12 10 9
f 9 14 12

