# https://github.com/mikedh/trimesh
v -0.00247705 0.01234549 0.05870362
v -0.00247705 0.01234549 0.05490000
v -0.00308933 0.01234549 0.05870362
v -0.00247705 0.00389014 0.05870362
v -0.00308933 0.01234549 0.05490000
v -0.00247705 0.00513990 0.05490000
v -0.00308933 0.00436025 0.05870362
v -0.00247705 0.00389014 0.05590005
v -0.00308933 0.00561001 0.05490000
v -0.00247705 0.00498513 0.05491638
v -0.00308933 0.00532033 0.05493053
v -0.00308933 0.00436025 0.05590005
v -0.00308933 0.00437929 0.05578314
v -0.00247705 0.00393318 0.05564129
v -0.00247705 0.00481712 0.05493426
v -0.00308933 0.00528640 0.05493426
v -0.00308933 0.00440329 0.05564129
v -0.00247705 0.00405815 0.05540003
v -0.00308933 0.00452330 0.05540822
v -0.00247705 0.00451502 0.05503404
v -0.00308933 0.00498513 0.05503404
v -0.00247705 0.00425679 0.05519302
v -0.00308933 0.00452826 0.05540003
v -0.00308933 0.00472607 0.05519302
f 14 8 13
f 13 17 14
f 21 20 24
f 16 20 21
f 12 13 8
f 22 24 20
f 20 16 15
f 11 9 6
f 11 15 16
f 14 17 19
f 18 19 23
f 14 19 18
f 18 23 24
f 24 22 18
f 10 11 6
f 15 11 10
f 7 4 1
f 7 1 3
f 3 1 5
f 1 2 5
f 9 5 2
f 2 6 9
f 4 7 12
f 12 8 4
f 19 7 3
f 3 5 19
f 19 16 21
f 21 24 19
f 5 9 19
f 17 13 19
f 19 12 7
f 9 11 19
f 13 12 19
f 24 23 19
f 19 11 16
f 1 4 10
f 10 2 1
f 10 6 2
f 4 8 10
f 10 22 20
f 10 8 14
f 20 15 10
f 14 18 10
f 10 18 22

