# https://github.com/mikedh/trimesh
v 0.00223895 0.01150842 0.02578671
v 0.00204567 0.01052547 0.02578671
v 0.00223895 0.01150842 0.02571892
v -0.00436470 0.01150842 0.02578671
v -0.00436470 0.01052547 0.02578671
v 0.00204567 0.01052547 0.01630093
v 0.00214005 0.01100564 0.01630093
v 0.00223830 0.01150842 0.01630093
v -0.00436470 0.01150842 0.01630093
v -0.00436470 0.01052547 0.01630093
f 3 7 8
f 6 7 3
f 5 2 1
f 5 1 4
f 10 9 8
f 10 7 6
f 8 7 10
f 2 5 10
f 10 6 2
f 10 5 4
f 4 9 10
f 4 1 3
f 3 9 4
f 8 9 3
f 1 2 3
f 2 6 3

