# https://github.com/mikedh/trimesh
v -0.00138895 -0.01508570 0.06383018
v -0.00138895 -0.01442858 0.06383018
v -0.00090304 -0.01508570 0.06383018
v -0.00138895 -0.01508570 0.06921260
v -0.00090304 -0.01442858 0.06383018
v -0.00138895 -0.01442858 0.06935762
v -0.00090304 -0.01508570 0.06921206
v -0.00090304 -0.01497165 0.06923749
v -0.00090304 -0.01483514 0.06926779
v -0.00090304 -0.01442858 0.06935707
v -0.00090304 -0.01454553 0.06933164
f 6 4 9
f 11 10 6
f 6 9 11
f 4 7 8
f 8 9 4
f 1 2 5
f 5 3 1
f 4 2 1
f 4 6 2
f 10 5 2
f 2 6 10
f 1 3 7
f 7 4 1
f 3 5 8
f 5 10 8
f 10 11 8
f 8 11 9
f 8 7 3

