# https://github.com/mikedh/trimesh
v 0.00925202 0.00141160 0.06959999
v 0.00424464 0.00141160 0.06959999
v 0.00925202 0.00002072 0.06959999
v 0.00925202 0.00141160 0.06070000
v 0.00396417 0.00141160 0.06957386
v 0.00563549 0.00002072 0.06959999
v 0.00925202 0.00002072 0.06070000
v 0.00364527 0.00141160 0.06070000
v 0.00378853 0.00141160 0.06955731
v 0.00364527 0.00091275 0.06949719
v 0.00453774 0.00002072 0.06949719
v 0.00364527 0.00002072 0.06070000
v 0.00364527 0.00141160 0.06954337
v 0.00453335 0.00002072 0.06949632
v 0.00364527 0.00075932 0.06945276
v 0.00364527 0.00002072 0.06923584
v 0.00364527 0.00075632 0.06945189
f 5 6 2
f 13 10 9
f 10 5 9
f 6 5 11
f 11 5 10
f 14 17 16
f 14 11 10
f 15 14 10
f 17 14 15
f 7 4 1
f 1 3 7
f 4 7 12
f 8 4 12
f 6 3 1
f 1 2 6
f 1 4 9
f 9 4 8
f 8 13 9
f 9 2 1
f 9 5 2
f 14 7 3
f 14 12 7
f 3 6 14
f 14 16 12
f 6 11 14
f 15 13 8
f 8 12 15
f 15 10 13
f 12 16 15
f 16 17 15

