# https://github.com/mikedh/trimesh
v 0.00449606 -0.01735000 0.06303453
v 0.00649922 -0.01735000 0.06303453
v 0.00449606 -0.01735000 0.06630732
v 0.00449606 -0.01484593 0.06303453
v 0.00649922 -0.01484593 0.06303453
v 0.00649922 -0.01735000 0.06630732
v 0.00649922 -0.01733456 0.06658783
v 0.00449606 -0.01732769 0.06662563
v 0.00449606 -0.01484593 0.06926363
v 0.00649922 -0.01484593 0.06926363
v 0.00649922 -0.01730343 0.06683053
v 0.00449606 -0.01730686 0.06678845
v 0.00449606 -0.01732279 0.06666405
v 0.00449606 -0.01494005 0.06924289
v 0.00449606 -0.01519227 0.06918679
v 0.00649922 -0.01511727 0.06920325
v 0.00649922 -0.01724166 0.06709152
v 0.00449606 -0.01729902 0.06684943
v 0.00649922 -0.01519399 0.06918618
v 0.00449606 -0.01521482 0.06918008
v 0.00649922 -0.01520747 0.06918252
v 0.00649922 -0.01722230 0.06717140
v 0.00449606 -0.01722401 0.06716592
v 0.00449606 -0.01522978 0.06917520
v 0.00649922 -0.01522242 0.06917764
v 0.00649922 -0.01710391 0.06749704
v 0.00449606 -0.01710636 0.06749155
v 0.00449606 -0.01533542 0.06913374
v 0.00449606 -0.01561411 0.06902397
v 0.00649922 -0.01557686 0.06903800
v 0.00649922 -0.01695145 0.06780133
v 0.00449606 -0.01707351 0.06755863
v 0.00449606 -0.01709435 0.06751655
v 0.00449606 -0.01563250 0.06901605
v 0.00649922 -0.01568029 0.06899653
v 0.00649922 -0.01563862 0.06901361
v 0.00649922 -0.01693600 0.06782572
v 0.00449606 -0.01695414 0.06779584
v 0.00449606 -0.01697424 0.06775620
v 0.00449606 -0.01568838 0.06899165
v 0.00449606 -0.01573593 0.06896543
v 0.00649922 -0.01569990 0.06898556
v 0.00649922 -0.01692399 0.06784401
v 0.00449606 -0.01689115 0.06789402
v 0.00449606 -0.01692669 0.06783913
v 0.00649922 -0.01572000 0.06897397
v 0.00449606 -0.01616390 0.06868493
v 0.00649922 -0.01621072 0.06865322
v 0.00649922 -0.01675536 0.06810013
v 0.00449606 -0.01675536 0.06810013
v 0.00449606 -0.01624528 0.06863126
v 0.00649922 -0.01625655 0.06862273
v 0.00649922 -0.01674016 0.06811781
v 0.00449606 -0.01672276 0.06813855
v 0.00449606 -0.01627592 0.06860748
v 0.00649922 -0.01627543 0.06860748
v 0.00649922 -0.01669555 0.06816599
v 0.00449606 -0.01665437 0.06821111
v 0.00449606 -0.01629945 0.06858553
v 0.00649922 -0.01629626 0.06858797
v 0.00449606 -0.01643279 0.06844588
v 0.00449606 -0.01631366 0.06857150
f 35 40 41
f 12 11 18
f 27 23 22
f 22 26 27
f 14 10 9
f 14 15 10
f 19 15 21
f 29 25 28
f 51 55 52
f 11 12 7
f 7 3 6
f 7 8 3
f 17 22 23
f 17 23 18
f 18 11 17
f 10 15 16
f 15 19 16
f 28 25 24
f 34 40 35
f 35 29 34
f 36 29 35
f 48 46 41
f 48 51 52
f 35 41 42
f 41 46 42
f 27 26 33
f 26 32 33
f 50 49 54
f 44 49 50
f 31 37 38
f 38 39 31
f 31 39 32
f 31 32 26
f 8 7 13
f 13 7 12
f 21 15 20
f 25 29 30
f 29 36 30
f 47 48 41
f 51 48 47
f 61 60 62
f 52 55 56
f 57 60 61
f 38 37 45
f 37 44 45
f 49 44 43
f 43 44 37
f 59 62 60
f 60 56 59
f 59 56 55
f 58 57 61
f 54 57 58
f 53 54 49
f 53 57 54
f 1 4 5
f 5 2 1
f 10 5 4
f 4 9 10
f 1 2 3
f 2 6 3
f 20 24 25
f 20 25 21
f 58 4 1
f 58 9 4
f 1 3 58
f 3 8 58
f 58 23 27
f 8 13 58
f 58 14 9
f 40 34 58
f 55 51 58
f 18 23 58
f 58 12 18
f 58 47 41
f 58 41 40
f 50 54 58
f 58 44 50
f 15 14 58
f 58 29 28
f 58 20 15
f 27 33 58
f 58 39 38
f 28 24 58
f 58 34 29
f 58 33 32
f 32 39 58
f 58 59 55
f 38 45 58
f 58 13 12
f 24 20 58
f 51 47 58
f 61 62 58
f 58 45 44
f 62 59 58
f 2 5 53
f 5 10 53
f 53 6 2
f 26 22 53
f 10 16 53
f 25 30 53
f 53 17 11
f 35 42 53
f 53 36 35
f 53 7 6
f 53 19 21
f 21 25 53
f 53 48 52
f 49 43 53
f 11 7 53
f 22 17 53
f 53 16 19
f 53 31 26
f 46 48 53
f 53 42 46
f 52 56 53
f 37 31 53
f 53 30 36
f 53 56 60
f 60 57 53
f 53 43 37

