# https://github.com/mikedh/trimesh
v 0.01369049 -0.01281204 0.05990310
v 0.01409297 -0.01281204 0.05990310
v 0.01369049 -0.01281204 0.06031824
v 0.01369049 -0.01224208 0.05990310
v 0.01418324 -0.01281204 0.05990363
v 0.01386031 -0.01224208 0.05990310
v 0.01418324 -0.01281204 0.06031824
v 0.01369049 -0.01224208 0.06031824
v 0.01422511 -0.01249353 0.06031824
v 0.01389370 -0.01224208 0.05992224
v 0.01422511 -0.01224208 0.06011227
v 0.01422511 -0.01224208 0.06031824
f 7 5 9
f 11 12 9
f 9 5 11
f 5 2 6
f 10 11 5
f 5 6 10
f 1 3 8
f 8 4 1
f 7 8 3
f 9 12 7
f 7 12 8
f 7 3 1
f 1 2 7
f 7 2 5
f 1 4 6
f 6 2 1
f 4 8 10
f 8 12 10
f 12 11 10
f 10 6 4

