# https://github.com/mikedh/trimesh
v 0.00138839 -0.01735000 0.06026352
v 0.00364397 -0.01735000 0.06026352
v 0.00138839 -0.01735000 0.06069404
v 0.00138839 -0.00679680 0.06026352
v 0.00364397 -0.01735000 0.06069404
v 0.00364397 -0.00700031 0.06026352
v 0.00138839 -0.00679680 0.06069404
v 0.00363514 -0.00679680 0.06026352
v 0.00364397 -0.00702716 0.06069404
v 0.00363514 -0.00679680 0.06069404
v 0.00364375 -0.00700031 0.06069404
f 6 8 10
f 11 9 6
f 11 6 10
f 1 2 5
f 5 3 1
f 7 4 1
f 1 3 7
f 7 8 4
f 10 8 7
f 1 4 6
f 6 2 1
f 4 8 6
f 9 5 2
f 2 6 9
f 3 5 11
f 11 7 3
f 10 7 11
f 5 9 11

