# https://github.com/mikedh/trimesh
v 0.00138817 -0.01588536 0.06887050
v 0.00266976 -0.01588383 0.06887050
v 0.00138817 -0.01575995 0.06895249
v 0.00138817 -0.00154280 0.06887050
v 0.00266976 -0.01575383 0.06895541
v 0.00266976 -0.00026117 0.06887050
v 0.00138817 -0.01572019 0.06897455
v 0.00266976 -0.01567584 0.06899919
v 0.00138817 -0.00214690 0.06919808
v 0.00266976 -0.00086528 0.06919808
v 0.00138817 -0.01568501 0.06899405
v 0.00266976 -0.01565595 0.06900740
v 0.00138817 -0.01562842 0.06901876
v 0.00138817 -0.01567430 0.06899976
v 0.00138817 -0.00317006 0.06949773
v 0.00266976 -0.00188844 0.06949773
v 0.00266976 -0.01560548 0.06902790
v 0.00138817 -0.01558713 0.06903554
v 0.00138817 -0.00426816 0.06959999
v 0.00266976 -0.00298653 0.06959999
v 0.00266976 -0.01555807 0.06904697
v 0.00138817 -0.01557489 0.06904047
v 0.00138817 -0.01234942 0.06959999
v 0.00266976 -0.01234942 0.06959999
v 0.00266976 -0.01553513 0.06905604
v 0.00138817 -0.01523996 0.06917265
v 0.00138817 -0.01240295 0.06959978
v 0.00266976 -0.01241060 0.06959971
v 0.00266976 -0.01523537 0.06917408
v 0.00266976 -0.01522925 0.06917615
v 0.00138817 -0.01521090 0.06918187
v 0.00138817 -0.01240754 0.06959971
v 0.00266976 -0.01243048 0.06959842
v 0.00266976 -0.01521243 0.06918137
v 0.00266976 -0.01518184 0.06919058
v 0.00138817 -0.01517725 0.06919172
v 0.00138817 -0.01242895 0.06959828
v 0.00266976 -0.01244119 0.06959771
v 0.00266976 -0.01416786 0.06941596
v 0.00138817 -0.01421527 0.06940589
v 0.00138817 -0.01276236 0.06957571
v 0.00266976 -0.01256354 0.06958942
v 0.00266976 -0.01387116 0.06947680
v 0.00138817 -0.01384669 0.06948159
v 0.00138817 -0.01399810 0.06945052
v 0.00266976 -0.01288318 0.06956643
v 0.00266976 -0.01272871 0.06957807
v 0.00266976 -0.01270577 0.06957978
v 0.00138817 -0.01367999 0.06950644
v 0.00266976 -0.01375493 0.06950051
v 0.00138817 -0.01375187 0.06950101
v 0.00266976 -0.01372434 0.06950287
f 6 4 10
f 16 10 15
f 28 24 27
f 24 23 27
f 27 32 28
f 9 10 4
f 9 15 10
f 43 50 51
f 40 35 39
f 36 35 40
f 38 37 41
f 32 37 38
f 45 40 39
f 41 48 42
f 42 38 41
f 28 32 33
f 32 38 33
f 51 46 49
f 49 46 41
f 47 48 41
f 41 46 47
f 51 50 52
f 52 46 51
f 39 43 44
f 44 45 39
f 44 43 51
f 17 21 22
f 30 34 31
f 31 26 30
f 31 34 35
f 31 35 36
f 30 26 29
f 14 11 8
f 3 5 8
f 1 2 3
f 2 5 3
f 25 29 26
f 25 26 22
f 22 21 25
f 8 11 7
f 7 3 8
f 8 12 13
f 13 14 8
f 18 12 17
f 18 13 12
f 18 17 22
f 4 6 2
f 4 2 1
f 23 24 20
f 23 20 19
f 20 16 15
f 19 20 15
f 20 24 25
f 2 6 25
f 6 10 25
f 25 43 39
f 25 24 28
f 25 16 20
f 39 35 25
f 25 10 16
f 25 34 30
f 25 5 2
f 8 5 25
f 50 43 25
f 25 42 48
f 48 47 25
f 30 29 25
f 28 33 25
f 35 34 25
f 25 52 50
f 38 42 25
f 25 33 38
f 25 47 46
f 46 52 25
f 21 17 25
f 25 12 8
f 17 12 25
f 18 4 1
f 18 23 19
f 18 9 4
f 19 15 18
f 18 44 51
f 32 27 18
f 18 7 11
f 18 37 32
f 18 27 23
f 15 9 18
f 41 37 18
f 36 40 18
f 51 49 18
f 40 45 18
f 22 26 18
f 18 31 36
f 18 49 41
f 45 44 18
f 26 31 18
f 11 14 18
f 1 3 18
f 3 7 18
f 14 13 18

