# https://github.com/mikedh/trimesh
v 0.00234634 0.01323361 0.06684536
v 0.00234634 0.01323361 0.06591270
v 0.00189177 0.01323361 0.06684536
v 0.00234634 0.00488035 0.06684536
v 0.00189177 0.01323361 0.06591270
v 0.00234634 0.00488035 0.06591270
v 0.00189177 0.00516819 0.06684536
v 0.00189239 0.00488035 0.06684536
v 0.00189177 0.00488035 0.06591270
v 0.00189177 0.00488035 0.06653429
f 8 7 10
f 3 1 5
f 1 2 5
f 1 4 6
f 6 2 1
f 6 5 2
f 9 5 6
f 7 4 1
f 7 1 3
f 7 8 4
f 4 8 10
f 10 6 4
f 9 6 10
f 3 5 10
f 10 5 9
f 10 7 3

