# https://github.com/mikedh/trimesh
v 0.00364402 -0.01735000 0.06190608
v 0.00364402 -0.01660287 0.06190608
v 0.00409612 -0.01735000 0.06190608
v 0.00364402 -0.01735000 0.06630795
v 0.00409612 -0.01660287 0.06190608
v 0.00364402 -0.01660287 0.06826696
v 0.00409612 -0.01735000 0.06630795
v 0.00409612 -0.01732682 0.06663362
v 0.00364402 -0.01732535 0.06664234
v 0.00409612 -0.01660287 0.06826696
v 0.00364402 -0.01662510 0.06824393
v 0.00409612 -0.01730312 0.06681794
v 0.00364402 -0.01729749 0.06685779
v 0.00409612 -0.01663834 0.06822960
v 0.00364402 -0.01671462 0.06814928
v 0.00409612 -0.01729844 0.06685344
v 0.00409612 -0.01722216 0.06717350
v 0.00364402 -0.01722165 0.06717475
v 0.00409612 -0.01671915 0.06814367
v 0.00364402 -0.01675543 0.06810070
v 0.00409612 -0.01672252 0.06813993
v 0.00409612 -0.01710647 0.06749170
v 0.00364402 -0.01710647 0.06749170
v 0.00409612 -0.01677524 0.06807081
v 0.00409612 -0.01675543 0.06810070
v 0.00364402 -0.01687727 0.06791576
v 0.00409612 -0.01709308 0.06751973
v 0.00364402 -0.01709147 0.06752346
v 0.00409612 -0.01688868 0.06789833
v 0.00364402 -0.01691639 0.06785598
v 0.00409612 -0.01692012 0.06785038
v 0.00409612 -0.01706500 0.06757639
v 0.00409612 -0.01697468 0.06775697
v 0.00364402 -0.01706156 0.06758324
v 0.00364402 -0.01695201 0.06780119
v 0.00409612 -0.01695179 0.06780119
v 0.00364402 -0.01695925 0.06778749
v 0.00409612 -0.01695822 0.06778935
f 4 7 8
f 8 9 4
f 22 23 17
f 18 17 23
f 12 9 8
f 13 16 17
f 17 18 13
f 13 12 16
f 9 12 13
f 28 23 22
f 11 10 6
f 20 24 25
f 26 24 20
f 15 19 14
f 14 11 15
f 10 11 14
f 21 19 15
f 15 20 21
f 21 20 25
f 38 36 35
f 37 38 35
f 35 36 31
f 27 28 22
f 27 32 28
f 28 32 33
f 33 38 37
f 29 26 31
f 29 24 26
f 31 26 30
f 30 35 31
f 34 33 37
f 28 33 34
f 1 2 5
f 5 3 1
f 10 5 2
f 2 6 10
f 1 3 4
f 3 7 4
f 3 5 29
f 29 7 3
f 8 7 29
f 5 10 29
f 31 36 29
f 22 17 29
f 29 12 8
f 17 16 29
f 29 21 25
f 16 12 29
f 38 33 29
f 10 14 29
f 29 36 38
f 29 27 22
f 25 24 29
f 29 14 19
f 19 21 29
f 32 27 29
f 29 33 32
f 34 2 1
f 34 6 2
f 1 4 34
f 34 4 9
f 9 13 34
f 34 18 23
f 34 20 15
f 34 13 18
f 23 28 34
f 34 30 26
f 34 11 6
f 15 11 34
f 26 20 34
f 37 35 34
f 35 30 34

