# https://github.com/mikedh/trimesh
v 0.00138817 -0.01735000 0.06069404
v 0.00266976 -0.01735000 0.06069404
v 0.00138817 -0.01735000 0.06121000
v 0.00138817 -0.00429239 0.06069404
v 0.00266976 -0.01735000 0.06121000
v 0.00266976 -0.00393657 0.06069404
v 0.00138817 -0.00393657 0.06121000
v 0.00138817 -0.00393657 0.06118055
v 0.00138842 -0.00393657 0.06069404
v 0.00266976 -0.00393657 0.06121000
f 9 4 8
f 1 2 5
f 5 3 1
f 4 6 2
f 4 2 1
f 4 9 6
f 2 6 10
f 10 5 2
f 3 5 10
f 10 7 3
f 1 3 8
f 8 4 1
f 3 7 8
f 6 9 8
f 8 10 6
f 7 10 8

