# https://github.com/mikedh/trimesh
v 0.01333069 -0.01346362 0.04854837
v 0.01339486 -0.01341881 0.04854837
v 0.01333069 -0.01346362 0.04974762
v 0.01333069 -0.01235000 0.04854837
v 0.01344440 -0.01338414 0.04854837
v 0.01352581 -0.01332713 0.04974762
v 0.01333069 -0.01235000 0.04974762
v 0.01372128 -0.01235000 0.04854837
v 0.01421546 -0.01284429 0.04854837
v 0.01421546 -0.01284429 0.04974762
v 0.01372128 -0.01235000 0.04974762
f 10 5 9
f 2 3 1
f 5 10 6
f 6 2 5
f 3 2 6
f 9 8 10
f 10 8 11
f 7 4 1
f 1 3 7
f 7 8 4
f 11 8 7
f 2 8 9
f 1 4 2
f 9 5 2
f 4 8 2
f 6 10 11
f 11 7 6
f 6 7 3

