# https://github.com/mikedh/trimesh
v 0.00807651 0.01368968 0.01674885
v 0.00807651 0.01368968 0.01974121
v 0.00807651 0.01714274 0.01674885
v 0.00887503 0.01306789 0.01674885
v 0.00884929 0.01308782 0.01974121
v 0.00807651 0.01714274 0.01974121
v 0.00869915 0.01670695 0.01974121
v 0.01433715 0.01275966 0.01674885
v 0.01239388 0.01035620 0.01674885
v 0.00888790 0.01305793 0.01974121
v 0.01433715 0.01275966 0.01974121
v 0.01433715 0.01035620 0.01674885
v 0.01239388 0.01035620 0.01974121
v 0.01433715 0.01035620 0.01974121
f 8 3 7
f 8 7 11
f 6 7 3
f 10 4 9
f 9 13 10
f 4 10 5
f 5 2 1
f 1 4 5
f 6 3 1
f 1 2 6
f 12 3 8
f 1 3 12
f 12 4 1
f 9 4 12
f 14 12 8
f 8 11 14
f 9 12 14
f 14 13 9
f 5 6 2
f 7 6 5
f 5 11 7
f 5 14 11
f 5 10 13
f 13 14 5

