# https://github.com/mikedh/trimesh
v 0.01421364 0.01284431 0.05432741
v 0.01412088 0.01275115 0.05432741
v 0.01419727 0.01282624 0.03564590
v 0.01421364 0.01284431 0.03564590
v 0.01414089 0.01289571 0.03564590
v 0.01365711 0.01323482 0.05432741
v 0.01372076 0.01235020 0.05432741
v 0.01377351 0.01240280 0.03564590
v 0.01280776 0.01382972 0.03564590
v 0.01199115 0.01440113 0.05432741
v 0.00342856 0.01235000 0.05432741
v 0.01372076 0.01235020 0.03564590
v 0.01199115 0.01440113 0.03564590
v -0.00436470 0.01440113 0.05432741
v -0.00436470 0.01235000 0.05432741
v -0.00436470 0.01235020 0.03564590
v -0.00436470 0.01440113 0.03564590
f 1 3 4
f 2 3 1
f 2 7 3
f 12 7 11
f 3 7 8
f 7 12 8
f 13 10 9
f 10 6 9
f 5 6 1
f 1 4 5
f 5 9 6
f 17 15 14
f 16 15 17
f 14 10 17
f 17 10 13
f 11 15 12
f 12 15 16
f 6 10 14
f 14 15 6
f 11 7 6
f 6 15 11
f 6 2 1
f 7 2 6
f 3 8 5
f 16 17 5
f 5 4 3
f 5 17 13
f 5 12 16
f 5 8 12
f 13 9 5

