# https://github.com/mikedh/trimesh
v -0.00138895 -0.01735000 0.06383017
v -0.00090304 -0.01735000 0.06383017
v -0.00138895 -0.01735000 0.06630856
v -0.00138895 -0.01508570 0.06383017
v -0.00090304 -0.01508570 0.06383017
v -0.00090304 -0.01735000 0.06630856
v -0.00090304 -0.01731033 0.06672794
v -0.00138895 -0.01730833 0.06673743
v -0.00138895 -0.01508570 0.06921265
v -0.00090304 -0.01508570 0.06921160
v -0.00090304 -0.01729526 0.06684491
v -0.00138895 -0.01728861 0.06689180
v -0.00138895 -0.01729703 0.06682594
v -0.00138895 -0.01519143 0.06918736
v -0.00090304 -0.01517103 0.06919316
v -0.00090304 -0.01728794 0.06690128
v -0.00138895 -0.01721635 0.06719159
v -0.00138895 -0.01525016 0.06916892
v -0.00090304 -0.01520894 0.06918209
v -0.00090304 -0.01721679 0.06719001
v -0.00090304 -0.01710642 0.06749137
v -0.00138895 -0.01710642 0.06749137
v -0.00090304 -0.01524861 0.06916945
v -0.00138895 -0.01554472 0.06905301
v -0.00090304 -0.01708004 0.06754722
v -0.00138895 -0.01707605 0.06755513
v -0.00090304 -0.01533682 0.06913468
v -0.00138895 -0.01567239 0.06900032
v -0.00090304 -0.01559814 0.06903088
v -0.00090304 -0.01556157 0.06904564
v -0.00090304 -0.01547579 0.06907988
v -0.00090304 -0.01698518 0.06773690
v -0.00138895 -0.01702596 0.06765576
v -0.00138895 -0.01570674 0.06898136
v -0.00090304 -0.01568768 0.06899242
v -0.00138895 -0.01698983 0.06772794
v -0.00090304 -0.01696301 0.06778010
v -0.00138895 -0.01578498 0.06893816
v -0.00090304 -0.01578476 0.06893816
v -0.00138895 -0.01696323 0.06777957
v -0.00090304 -0.01691846 0.06785175
v -0.00138895 -0.01620078 0.06866576
v -0.00090304 -0.01604896 0.06876481
v -0.00138895 -0.01688455 0.06790391
v -0.00090304 -0.01685374 0.06795080
v -0.00138895 -0.01627193 0.06861097
v -0.00090304 -0.01620832 0.06865997
v -0.00090304 -0.01678038 0.06806250
v -0.00138895 -0.01676553 0.06808463
v -0.00138895 -0.01633488 0.06855407
v -0.00090304 -0.01628545 0.06859885
v -0.00090304 -0.01675511 0.06810043
v -0.00138895 -0.01667665 0.06819369
v -0.00138895 -0.01636458 0.06852404
v -0.00090304 -0.01634352 0.06854511
v -0.00090304 -0.01668596 0.06818263
v -0.00090304 -0.01654899 0.06832857
v -0.00138895 -0.01653081 0.06834859
v -0.00090304 -0.01640758 0.06847820
f 21 22 17
f 7 3 6
f 21 17 20
f 20 17 16
f 16 17 12
f 53 49 52
f 15 10 9
f 16 12 11
f 11 12 7
f 3 7 8
f 37 41 40
f 25 22 21
f 35 28 34
f 34 38 35
f 46 51 47
f 29 28 35
f 19 18 23
f 23 18 24
f 24 29 30
f 28 29 24
f 7 12 13
f 13 8 7
f 56 53 52
f 56 57 53
f 52 49 48
f 22 25 26
f 35 38 39
f 46 47 42
f 42 39 38
f 14 19 15
f 18 19 14
f 14 15 9
f 31 24 30
f 53 57 58
f 44 48 49
f 44 40 41
f 37 40 36
f 43 42 47
f 39 42 43
f 23 24 27
f 24 31 27
f 59 55 54
f 54 58 59
f 59 58 57
f 54 55 50
f 50 55 51
f 50 51 46
f 45 44 41
f 48 44 45
f 37 36 32
f 33 26 25
f 25 32 33
f 33 32 36
f 1 4 5
f 5 2 1
f 10 5 4
f 4 9 10
f 1 2 3
f 2 6 3
f 2 5 32
f 32 6 2
f 5 10 32
f 16 11 32
f 32 7 6
f 21 20 32
f 32 56 52
f 52 48 32
f 10 15 32
f 32 25 21
f 32 20 16
f 32 19 23
f 32 29 35
f 35 39 32
f 32 11 7
f 32 43 47
f 32 41 37
f 32 45 41
f 32 47 51
f 30 29 32
f 15 19 32
f 57 56 32
f 32 59 57
f 51 55 32
f 32 31 30
f 23 27 32
f 39 43 32
f 32 27 31
f 55 59 32
f 48 45 32
f 33 4 1
f 33 9 4
f 3 8 33
f 33 17 22
f 1 3 33
f 22 26 33
f 46 42 33
f 33 13 12
f 33 12 17
f 49 53 33
f 33 36 40
f 33 34 28
f 28 24 33
f 53 58 33
f 38 34 33
f 33 24 18
f 8 13 33
f 33 14 9
f 33 44 49
f 33 42 38
f 18 14 33
f 33 58 54
f 40 44 33
f 33 50 46
f 54 50 33

