# https://github.com/mikedh/trimesh
v 0.00363504 0.00002346 0.03280000
v 0.00364521 0.00002346 0.02780010
v 0.00282873 0.00002346 0.03280000
v 0.00363504 -0.00919547 0.03280000
v 0.00364521 0.00002346 0.02580000
v 0.00364521 -0.00919547 0.02780010
v 0.00280119 0.00002346 0.03279932
v -0.00246944 -0.00513337 0.03280000
v -0.00246944 -0.00919547 0.03280000
v 0.00280299 0.00002346 0.02580000
v 0.00364521 -0.00919547 0.02580000
v 0.00243485 0.00002346 0.03276506
v -0.00246944 -0.00481027 0.03276574
v -0.00246944 -0.00919547 0.02580000
v 0.00243725 0.00002346 0.02583426
v -0.00246944 -0.00513337 0.02580000
v 0.00209425 0.00002346 0.03266502
v -0.00246944 -0.00450975 0.03266570
v 0.00209605 0.00002346 0.02593430
v -0.00246944 -0.00481027 0.02583426
v 0.00180273 0.00002346 0.03250674
v -0.00246944 -0.00425073 0.03250674
v 0.00180453 0.00002346 0.02609258
v -0.00246944 -0.00460180 0.02590347
v -0.00246944 -0.00450975 0.02593430
v 0.00168182 0.00002346 0.03240875
v -0.00246944 -0.00405218 0.03229980
v 0.00168182 0.00002346 0.02619125
v -0.00246944 -0.00429856 0.02606380
v -0.00246944 -0.00425073 0.02609327
v 0.00157826 0.00002346 0.03229980
v 0.00149685 0.00002346 0.03218332
v -0.00246944 -0.00392764 0.03205861
v 0.00157826 0.00002346 0.02630020
v -0.00246944 -0.00405218 0.02630020
v 0.00143699 0.00002346 0.03205861
v 0.00140108 0.00002346 0.03193117
v -0.00246944 -0.00392674 0.03205450
v 0.00149685 0.00002346 0.02641668
v -0.00246944 -0.00392944 0.02653727
v 0.00138851 0.00002346 0.03179961
v -0.00246944 -0.00388342 0.03179961
v 0.00143699 0.00002346 0.02654139
v -0.00246944 -0.00392764 0.02654139
v 0.00138851 0.00002346 0.02680039
v -0.00246944 -0.00388342 0.02680039
v 0.00140108 0.00002346 0.02666883
f 17 18 13
f 3 7 8
f 21 18 17
f 17 13 12
f 12 13 8
f 8 7 12
f 35 39 34
f 27 26 31
f 35 34 28
f 42 38 37
f 41 42 37
f 37 38 33
f 33 36 37
f 26 27 22
f 21 26 22
f 18 21 22
f 32 27 31
f 33 27 32
f 32 36 33
f 19 25 23
f 35 28 30
f 30 28 23
f 47 46 45
f 47 44 46
f 47 43 44
f 40 39 35
f 40 43 39
f 44 43 40
f 23 25 29
f 29 30 23
f 25 19 24
f 19 20 24
f 16 20 15
f 15 10 16
f 15 20 19
f 4 9 6
f 6 9 14
f 14 11 6
f 6 1 4
f 2 1 6
f 4 1 3
f 8 9 3
f 3 9 4
f 41 45 46
f 46 42 41
f 5 6 11
f 2 6 5
f 10 11 14
f 14 16 10
f 10 5 11
f 24 9 8
f 14 9 24
f 24 38 42
f 8 13 24
f 24 13 18
f 35 30 24
f 24 16 14
f 18 22 24
f 33 38 24
f 24 27 33
f 42 46 24
f 24 40 35
f 24 22 27
f 46 44 24
f 24 20 16
f 44 40 24
f 24 29 25
f 30 29 24
f 15 34 39
f 15 1 2
f 17 12 15
f 15 21 17
f 15 3 1
f 23 28 15
f 7 3 15
f 15 45 41
f 15 12 7
f 31 26 15
f 15 19 23
f 15 26 21
f 2 5 15
f 41 37 15
f 15 32 31
f 15 28 34
f 15 37 36
f 36 32 15
f 15 47 45
f 39 43 15
f 43 47 15
f 5 10 15

