# https://github.com/mikedh/trimesh
v -0.00436470 -0.02040000 0.01630000
v 0.00223974 -0.01151247 0.01630000
v 0.00268063 -0.01242860 0.01630000
v 0.00217192 -0.01125213 0.01630000
v 0.00207565 -0.01076129 0.01630000
v 0.00204406 -0.01051479 0.01630000
v 0.00223974 -0.01151247 0.02580000
v 0.00268063 -0.01242860 0.02580000
v 0.00204406 -0.01051479 0.02580000
v -0.00436470 -0.02040000 0.03560000
v -0.00436470 -0.01735000 0.03560000
v -0.00436470 -0.01235000 0.03280000
v -0.00436470 -0.00950000 0.01630000
v -0.00436470 -0.00950000 0.02580000
v -0.00436470 -0.00614693 0.02580000
v -0.00436470 -0.00586918 0.02583407
v -0.00436470 -0.00561036 0.02593398
v -0.00436470 -0.00538811 0.02609289
v -0.00336471 -0.00519615 0.02593398
v -0.00311471 -0.00562917 0.02580000
v -0.00324412 -0.00540502 0.02583407
v -0.00436470 -0.00521757 0.02630000
v -0.00436470 -0.00511036 0.02654118
v -0.00346826 -0.00501679 0.02609289
v -0.00436470 -0.00507380 0.02680000
v -0.00359767 -0.00479265 0.02654118
v -0.00354772 -0.00487916 0.02630000
v -0.00361471 -0.00476314 0.02680000
v -0.00226852 -0.00409619 0.02609289
v -0.00176852 -0.00459619 0.02580000
v -0.00195153 -0.00441318 0.02583407
v -0.00212207 -0.00424264 0.02593398
v -0.00238089 -0.00398382 0.02630000
v -0.00245153 -0.00391318 0.02654118
v -0.00247562 -0.00388909 0.02680000
v 0.00210623 -0.00950000 0.01630000
v 0.00210623 -0.00950000 0.02580000
v 0.00170571 -0.00000000 0.02619124
v 0.00182768 -0.00000000 0.02609289
v 0.00212057 -0.00000000 0.02593398
v 0.00246165 -0.00000000 0.02583407
v 0.00142556 -0.00000000 0.02666947
v 0.00152111 -0.00000000 0.02641732
v 0.00146165 -0.00000000 0.02654118
v 0.00160293 -0.00000000 0.02630000
v -0.00436470 -0.00614693 0.03280000
v -0.00436470 -0.00586918 0.03276592
v -0.00436470 -0.00511036 0.03205882
v -0.00436470 -0.00561036 0.03266603
v -0.00436470 -0.00538811 0.03250711
v -0.00436470 -0.00521757 0.03230000
v -0.00336471 -0.00519615 0.03266603
v -0.00311471 -0.00562917 0.03280000
v -0.00324412 -0.00540502 0.03276592
v -0.00436470 -0.00507380 0.03180000
v -0.00359767 -0.00479265 0.03205882
v -0.00361471 -0.00476314 0.03180000
v -0.00354772 -0.00487916 0.03230000
v -0.00346826 -0.00501679 0.03250711
v -0.00247562 -0.00388909 0.03180000
v -0.00245153 -0.00391318 0.03205882
v -0.00238089 -0.00398382 0.03230000
v -0.00226852 -0.00409619 0.03250711
v -0.00176852 -0.00459619 0.03280000
v -0.00212207 -0.00424264 0.03266603
v -0.00195153 -0.00441318 0.03276592
v 0.00342466 -0.02040000 0.01630000
v 0.00342466 -0.02040000 0.01660095
v 0.00342466 -0.02040000 0.01785711
v 0.00333825 -0.01320397 0.01630000
v 0.00417010 -0.01378851 0.01630000
v 0.00512245 -0.01414445 0.01630000
v 0.00613377 -0.01424879 0.01630000
v 0.00333825 -0.01320397 0.02580000
v 0.00417010 -0.01378851 0.02580000
v 0.00363529 -0.01235000 0.02780000
v 0.00512245 -0.01414445 0.02580000
v 0.00613377 -0.01424879 0.02580000
v 0.00532572 -0.01095463 0.02580000
v 0.00516810 -0.01074798 0.02580000
v 0.00506906 -0.01050770 0.02580000
v 0.00503529 -0.01025000 0.02580000
v 0.00553126 -0.01111369 0.02580000
v 0.00577086 -0.01121440 0.02580000
v 0.00602831 -0.01124998 0.02580000
v 0.00628623 -0.01121800 0.02580000
v 0.00532572 -0.01095463 0.02780000
v 0.00516810 -0.01074798 0.02780000
v 0.00506906 -0.01050770 0.02780000
v 0.00503529 -0.01025000 0.02780000
v 0.00553126 -0.01111369 0.02780000
v 0.00577086 -0.01121440 0.02780000
v 0.00602831 -0.01124998 0.02780000
v 0.00628623 -0.01121800 0.02780000
v 0.00937402 -0.01623421 0.01630000
v 0.00713874 -0.01409479 0.01630000
v 0.00807241 -0.01369240 0.01630000
v 0.00887448 -0.01306762 0.01630000
v 0.00713874 -0.01409479 0.02580000
v 0.00807241 -0.01369240 0.02580000
v 0.00652721 -0.01112064 0.02580000
v 0.00673495 -0.01096447 0.02580000
v 0.00746455 -0.01025000 0.02580000
v 0.00652721 -0.01112064 0.02780000
v 0.00673495 -0.01096447 0.02780000
v 0.00746455 -0.01025000 0.02780000
v 0.00887448 -0.01306762 0.02580000
v 0.00342466 -0.02040000 0.03560000
v 0.00363529 -0.01235000 0.03280000
v 0.00778051 -0.01735000 0.03560000
v 0.00506906 -0.00999231 0.02580000
v 0.00516810 -0.00975202 0.02580000
v 0.00532572 -0.00954537 0.02580000
v 0.00553126 -0.00938631 0.02580000
v 0.00577086 -0.00928560 0.02580000
v 0.00602831 -0.00925002 0.02580000
v 0.00628623 -0.00928200 0.02580000
v 0.00506906 -0.00999231 0.02780000
v 0.00516810 -0.00975202 0.02780000
v 0.00532572 -0.00954537 0.02780000
v 0.00553126 -0.00938631 0.02780000
v 0.00577086 -0.00928560 0.02780000
v 0.00602831 -0.00925002 0.02780000
v 0.00628623 -0.00928200 0.02780000
v 0.00282768 -0.00000000 0.02580000
v 0.00652721 -0.00937936 0.02580000
v 0.00673495 -0.00953553 0.02580000
v 0.00652721 -0.00937936 0.02780000
v 0.00673495 -0.00953553 0.02780000
v 0.00863529 -0.00920000 0.02580000
v 0.00863529 -0.00920000 0.02780000
v -0.00436470 -0.01235000 0.04898360
v -0.00436470 -0.01235000 0.05490000
v -0.00436470 -0.01735000 0.06630820
v -0.00436470 -0.01730501 0.06665192
v -0.00436470 -0.01729892 0.06679402
v -0.00436470 -0.01728073 0.06693511
v -0.00436470 -0.01725777 0.06701197
v -0.00436470 -0.01721334 0.06720208
v -0.00436470 -0.01717265 0.06730913
v -0.00436470 -0.01710653 0.06749199
v -0.00436470 -0.01706318 0.06758331
v -0.00436470 -0.01697682 0.06775575
v -0.00436470 -0.01695606 0.06779409
v -0.00436470 -0.01686109 0.06794030
v -0.00436470 -0.01675544 0.06810093
v -0.00436470 -0.01664913 0.06822705
v -0.00436470 -0.01639071 0.06850044
v -0.00436470 -0.01635061 0.06854092
v -0.00436470 -0.01627223 0.06861146
v -0.00436470 -0.01617641 0.06868473
v -0.00436470 -0.01587030 0.06888475
v -0.00436470 -0.01581097 0.06892408
v -0.00436470 -0.01566941 0.06900244
v -0.00436470 -0.01550478 0.06906984
v -0.00436470 -0.01526039 0.06916618
v -0.00436470 -0.01520714 0.06918315
v -0.00436470 -0.01516030 0.06919686
v -0.00436470 -0.01448349 0.06934615
v -0.00436470 -0.01443288 0.06936042
v -0.00436470 -0.01373726 0.06950320
v -0.00436470 -0.01301548 0.06955771
v -0.00436470 -0.01239231 0.06959983
v -0.00436470 -0.01235000 0.06959999
v -0.00436470 -0.00614693 0.05490000
v -0.00436470 -0.00586918 0.05493408
v -0.00436470 -0.00561036 0.05503398
v -0.00436470 -0.00538811 0.05519290
v -0.00436470 -0.00521757 0.05540000
v -0.00436470 -0.00511036 0.05564118
v -0.00336471 -0.00519615 0.05503398
v -0.00311471 -0.00562917 0.05490000
v -0.00324412 -0.00540502 0.05493408
v -0.00436470 -0.00507380 0.05590000
v -0.00354772 -0.00487916 0.05540000
v -0.00359767 -0.00479265 0.05564118
v -0.00361471 -0.00476314 0.05590000
v -0.00346826 -0.00501679 0.05519290
v -0.00238089 -0.00398382 0.05540000
v -0.00226852 -0.00409619 0.05519290
v -0.00245153 -0.00391318 0.05564118
v -0.00247562 -0.00388909 0.05590000
v -0.00176852 -0.00459619 0.05490000
v -0.00195153 -0.00441318 0.05493408
v -0.00212207 -0.00424264 0.05503398
v 0.00142556 -0.00000000 0.05576948
v -0.00436470 -0.00823669 0.06959999
v -0.00416475 -0.00821037 0.06959999
v -0.00436470 -0.00746414 0.06949829
v -0.00436470 -0.00745995 0.06949777
v -0.00436470 -0.00668349 0.06919807
v -0.00436470 -0.00518349 0.06737646
v -0.00436470 -0.00601673 0.06872132
v -0.00436470 -0.00550511 0.06810000
v -0.00341375 -0.00511122 0.06810000
v -0.00317537 -0.00552410 0.06872132
v -0.00286471 -0.00606218 0.06919807
v -0.00250294 -0.00668878 0.06949777
v -0.00211471 -0.00736122 0.06959999
v -0.00090334 -0.00546137 0.06949777
v -0.00436470 -0.00507380 0.06659999
v -0.00361471 -0.00476314 0.06659999
v -0.00356360 -0.00485167 0.06737646
v -0.00247562 -0.00388909 0.06659999
v -0.00240334 -0.00396137 0.06737646
v -0.00219142 -0.00417329 0.06810000
v -0.00185430 -0.00451041 0.06872132
v -0.00141496 -0.00494975 0.06919807
v -0.00035430 -0.00601041 0.06959999
v 0.00144976 -0.00000000 0.06699158
v 0.00155803 -0.00000000 0.06737646
v 0.00173642 -0.00000000 0.06774805
v 0.00198187 -0.00000000 0.06810000
v 0.00229019 -0.00000000 0.06842628
v 0.00363529 -0.01235000 0.05490000
v 0.00363529 -0.01235000 0.05960000
v 0.00778051 -0.01735000 0.05720000
v 0.00778051 -0.01735000 0.06630820
v 0.00779613 -0.01733907 0.06656410
v 0.00784286 -0.01730634 0.06681813
v 0.00795726 -0.01722624 0.06716098
v 0.00812824 -0.01710652 0.06749209
v 0.00835344 -0.01694883 0.06780688
v 0.00862976 -0.01675535 0.06810104
v 0.00931989 -0.01627211 0.06861156
v 0.00780092 -0.01149597 0.06180000
v 0.00811615 -0.01190927 0.06180000
v 0.00760284 -0.01101539 0.06180000
v 0.00753529 -0.01050000 0.06180000
v 0.00853529 -0.01050000 0.05960000
v 0.00866810 -0.01099798 0.05960000
v 0.00882572 -0.01120463 0.05960000
v 0.00856906 -0.01075769 0.05960000
v 0.00856906 -0.01024230 0.05960000
v 0.00952831 -0.01149998 0.05960000
v 0.00903127 -0.01136369 0.05960000
v 0.00927086 -0.01146440 0.05960000
v 0.00978623 -0.01146800 0.05960000
v 0.00852724 -0.01222738 0.06180000
v 0.00900642 -0.01242881 0.06180000
v 0.00853529 -0.01050000 0.06180000
v 0.00866810 -0.01099798 0.06180000
v 0.00882572 -0.01120463 0.06180000
v 0.00856906 -0.01075769 0.06180000
v 0.00856906 -0.01024230 0.06180000
v 0.00952133 -0.01249995 0.06180000
v 0.00952831 -0.01149998 0.06180000
v 0.00903127 -0.01136369 0.06180000
v 0.00927086 -0.01146440 0.06180000
v 0.00978623 -0.01146800 0.06180000
v 0.00780092 -0.01149597 0.06959999
v 0.00811615 -0.01190927 0.06959999
v 0.00760284 -0.01101539 0.06959999
v 0.00753529 -0.01050000 0.06959999
v 0.00852724 -0.01222738 0.06959999
v 0.00877536 -0.01235000 0.06959999
v 0.00900642 -0.01242881 0.06959969
v 0.00952133 -0.01249995 0.06959888
v 0.00363529 -0.00700000 0.05960000
v 0.00363529 -0.00700000 0.06070000
v 0.00760284 -0.00998461 0.06180000
v 0.00780092 -0.00950403 0.06180000
v 0.00811615 -0.00909073 0.06180000
v 0.00866810 -0.01000202 0.05960000
v 0.00882572 -0.00979537 0.05960000
v 0.00903127 -0.00963631 0.05960000
v 0.00927086 -0.00953560 0.05960000
v 0.00952831 -0.00950002 0.05960000
v 0.00978623 -0.00953200 0.05960000
v 0.00866810 -0.01000202 0.06180000
v 0.00882572 -0.00979537 0.06180000
v 0.00852724 -0.00877262 0.06180000
v 0.00900642 -0.00857119 0.06180000
v 0.00903127 -0.00963631 0.06180000
v 0.00927086 -0.00953560 0.06180000
v 0.00952831 -0.00950002 0.06180000
v 0.00978623 -0.00953200 0.06180000
v 0.00952133 -0.00850005 0.06180000
v 0.00760284 -0.00998461 0.06959999
v 0.00780092 -0.00950403 0.06959999
v 0.00811615 -0.00909073 0.06959999
v 0.00852724 -0.00877262 0.06959999
v 0.00900642 -0.00857119 0.06959999
v 0.00952133 -0.00850005 0.06959999
v -0.00346826 0.00501679 0.02609289
v -0.00436470 0.00507380 0.02680000
v -0.00361471 0.00476314 0.02680000
v -0.00359767 0.00479265 0.02654118
v -0.00354772 0.00487916 0.02630000
v -0.00226852 0.00409619 0.02609289
v -0.00195153 0.00441318 0.02583407
v -0.00212207 0.00424264 0.02593398
v -0.00176852 0.00459619 0.02580000
v -0.00238089 0.00398382 0.02630000
v -0.00245153 0.00391318 0.02654118
v -0.00247562 0.00388909 0.02680000
v -0.00436470 0.00950000 0.01630000
v -0.00436470 0.00538811 0.02609289
v -0.00436470 0.00561036 0.02593398
v -0.00436470 0.00586918 0.02583407
v -0.00436470 0.00614693 0.02580000
v -0.00336471 0.00519615 0.02593398
v -0.00324412 0.00540502 0.02583407
v -0.00311471 0.00562917 0.02580000
v -0.00436470 0.00521757 0.02630000
v -0.00436470 0.00511036 0.02654118
v -0.00436470 0.00950000 0.02580000
v 0.00141346 0.00000000 0.02680000
v 0.00210623 0.00950000 0.01630000
v 0.00210623 0.00950000 0.02580000
v -0.00436470 0.00507380 0.03180000
v -0.00361471 0.00476314 0.03180000
v -0.00359767 0.00479265 0.03205882
v -0.00354772 0.00487916 0.03230000
v -0.00346826 0.00501679 0.03250711
v -0.00247562 0.00388909 0.03180000
v -0.00245153 0.00391318 0.03205882
v -0.00238089 0.00398382 0.03230000
v -0.00226852 0.00409619 0.03250711
v -0.00212207 0.00424264 0.03266603
v -0.00195153 0.00441318 0.03276592
v -0.00176852 0.00459619 0.03280000
v -0.00436470 0.00511036 0.03205882
v -0.00436470 0.00521757 0.03230000
v -0.00436470 0.00538811 0.03250711
v -0.00436470 0.00561036 0.03266603
v -0.00436470 0.00586918 0.03276592
v -0.00436470 0.00614693 0.03280000
v -0.00336471 0.00519615 0.03266603
v -0.00324412 0.00540502 0.03276592
v -0.00311471 0.00562917 0.03280000
v 0.00141346 0.00000000 0.03180000
v 0.00142556 -0.00000000 0.03193052
v 0.00146165 -0.00000000 0.03205882
v 0.00152111 0.00000000 0.03218268
v 0.00160293 -0.00000000 0.03230000
v 0.00170571 -0.00000000 0.03240876
v 0.00182768 -0.00000000 0.03250711
v 0.00212057 -0.00000000 0.03266603
v 0.00246165 -0.00000000 0.03276592
v -0.00436470 0.02040000 0.01630000
v 0.00204406 0.01051479 0.01630000
v 0.00214033 0.01100563 0.01630000
v 0.00217192 0.01125213 0.01630000
v 0.00223974 0.01151247 0.01630000
v 0.00268063 0.01242860 0.01630000
v 0.00204406 0.01051479 0.02580000
v 0.00223974 0.01151247 0.02580000
v 0.00268063 0.01242860 0.02580000
v -0.00436470 0.01235000 0.03280000
v -0.00436470 0.01735000 0.03560000
v -0.00436470 0.02040000 0.03560000
v 0.00532572 0.00954537 0.02580000
v 0.00516810 0.00975202 0.02580000
v 0.00506906 0.00999231 0.02580000
v 0.00553126 0.00938631 0.02580000
v 0.00577086 0.00928560 0.02580000
v 0.00602831 0.00925002 0.02580000
v 0.00628623 0.00928200 0.02580000
v 0.00532572 0.00954537 0.02780000
v 0.00516810 0.00975202 0.02780000
v 0.00506906 0.00999231 0.02780000
v 0.00553126 0.00938631 0.02780000
v 0.00577086 0.00928560 0.02780000
v 0.00602831 0.00925002 0.02780000
v 0.00628623 0.00928200 0.02780000
v 0.00652721 0.00937936 0.02580000
v 0.00673495 0.00953553 0.02580000
v 0.00652721 0.00937936 0.02780000
v 0.00673495 0.00953553 0.02780000
v 0.00863529 0.00920000 0.02580000
v 0.00863529 0.00920000 0.02780000
v 0.00282768 0.00000000 0.03280000
v 0.00333825 0.01320397 0.01630000
v 0.00417010 0.01378851 0.01630000
v 0.00512245 0.01414445 0.01630000
v 0.00613377 0.01424879 0.01630000
v 0.00363529 0.01235000 0.02780000
v 0.00333825 0.01320397 0.02580000
v 0.00417010 0.01378851 0.02580000
v 0.00503529 0.01025000 0.02580000
v 0.00506906 0.01050770 0.02580000
v 0.00516810 0.01074798 0.02580000
v 0.00532572 0.01095463 0.02580000
v 0.00553126 0.01111369 0.02580000
v 0.00577086 0.01121440 0.02580000
v 0.00602831 0.01124998 0.02580000
v 0.00628623 0.01121800 0.02580000
v 0.00503529 0.01025000 0.02780000
v 0.00506906 0.01050770 0.02780000
v 0.00516810 0.01074798 0.02780000
v 0.00532572 0.01095463 0.02780000
v 0.00553126 0.01111369 0.02780000
v 0.00577086 0.01121440 0.02780000
v 0.00602831 0.01124998 0.02780000
v 0.00628623 0.01121800 0.02780000
v 0.00512245 0.01414445 0.02580000
v 0.00613377 0.01424879 0.02580000
v 0.00342466 0.02040000 0.01630000
v 0.00713874 0.01409479 0.01630000
v 0.00807241 0.01369240 0.01630000
v 0.00887448 0.01306762 0.01630000
v 0.00652721 0.01112064 0.02580000
v 0.00673495 0.01096447 0.02580000
v 0.00746455 0.01025000 0.02580000
v 0.00652721 0.01112064 0.02780000
v 0.00673495 0.01096447 0.02780000
v 0.00746455 0.01025000 0.02780000
v 0.00713874 0.01409479 0.02580000
v 0.00807241 0.01369240 0.02580000
v 0.00887448 0.01306762 0.02580000
v 0.00363529 0.01235000 0.03280000
v 0.00342466 0.02040000 0.02974022
v 0.00342466 0.02040000 0.03560000
v 0.00778051 0.01735000 0.03560000
v -0.00436470 0.00507380 0.05590000
v -0.00354772 0.00487916 0.05540000
v -0.00361471 0.00476314 0.05590000
v -0.00359767 0.00479265 0.05564118
v -0.00346826 0.00501679 0.05519290
v -0.00238089 0.00398382 0.05540000
v -0.00226852 0.00409619 0.05519290
v -0.00245153 0.00391318 0.05564118
v -0.00247562 0.00388909 0.05590000
v -0.00195153 0.00441318 0.05493408
v -0.00212207 0.00424264 0.05503398
v -0.00176852 0.00459619 0.05490000
v -0.00436470 0.00521757 0.05540000
v -0.00436470 0.00538811 0.05519290
v -0.00436470 0.00561036 0.05503398
v -0.00436470 0.00511036 0.05564118
v -0.00436470 0.00586918 0.05493408
v -0.00436470 0.00614693 0.05490000
v -0.00336471 0.00519615 0.05503398
v -0.00324412 0.00540502 0.05493408
v -0.00311471 0.00562917 0.05490000
v 0.00141346 0.00000000 0.05590000
v 0.00160293 -0.00000000 0.05540000
v 0.00170571 -0.00000000 0.05529124
v 0.00182768 -0.00000000 0.05519290
v 0.00146165 -0.00000000 0.05564118
v 0.00152111 -0.00000000 0.05551732
v 0.00212057 0.00000000 0.05503398
v 0.00246165 0.00000000 0.05493408
v -0.00436470 0.00507380 0.06659999
v -0.00361471 0.00476314 0.06659999
v -0.00356360 0.00485167 0.06737646
v -0.00247562 0.00388909 0.06659999
v -0.00240334 0.00396137 0.06737646
v -0.00219142 0.00417329 0.06810000
v -0.00185430 0.00451041 0.06872132
v -0.00141496 0.00494975 0.06919807
v -0.00436470 0.00518349 0.06737646
v -0.00436470 0.00550511 0.06810000
v -0.00436470 0.00601673 0.06872132
v -0.00436470 0.00668349 0.06919807
v -0.00436470 0.00745995 0.06949777
v -0.00436470 0.00746414 0.06949829
v -0.00341375 0.00511122 0.06810000
v -0.00317537 0.00552410 0.06872132
v -0.00286471 0.00606218 0.06919807
v -0.00436470 0.00823669 0.06959999
v -0.00416475 0.00821037 0.06959999
v -0.00250294 0.00668878 0.06949777
v -0.00211471 0.00736122 0.06959999
v -0.00090334 0.00546137 0.06949777
v 0.00141346 0.00000000 0.06659999
v 0.00265611 -0.00000000 0.06872132
v -0.00035430 0.00601041 0.06959999
v -0.00436470 0.01235000 0.05490000
v -0.00436470 0.01235000 0.06959999
v -0.00436470 0.01235820 0.06959999
v -0.00436470 0.01240060 0.06959982
v -0.00436470 0.01297667 0.06956209
v -0.00436470 0.01351431 0.06945618
v -0.00436470 0.01433620 0.06938501
v -0.00436470 0.01435804 0.06937925
v -0.00436470 0.01520714 0.06918315
v -0.00436470 0.01506869 0.06922216
v -0.00436470 0.01558760 0.06901422
v -0.00436470 0.01591092 0.06887013
v -0.00436470 0.01616329 0.06867141
v -0.00436470 0.01618023 0.06865423
v -0.00436470 0.01650720 0.06839302
v -0.00436470 0.01718262 0.06727929
v -0.00436470 0.01696488 0.06777871
v -0.00436470 0.01705966 0.06758168
v -0.00436470 0.01735000 0.06630820
v -0.00436470 0.01733643 0.06651971
v -0.00436470 0.01729159 0.06686277
v -0.00436470 0.01725019 0.06707554
v -0.00436470 0.01670404 0.06813182
v -0.00436470 0.01671187 0.06811816
v 0.00282768 -0.00000000 0.05490000
v 0.00353479 -0.00000000 0.06919807
v 0.00455803 0.00000000 0.06949777
v 0.00565611 0.00000000 0.06959999
v 0.00363529 0.00700000 0.05960000
v 0.00363529 0.00700000 0.06070000
v 0.00760284 0.00998461 0.06180000
v 0.00780092 0.00950403 0.06180000
v 0.00811615 0.00909073 0.06180000
v 0.00866810 0.01000202 0.05960000
v 0.00882572 0.00979537 0.05960000
v 0.00927086 0.00953560 0.05960000
v 0.00903127 0.00963631 0.05960000
v 0.00952831 0.00950002 0.05960000
v 0.00978623 0.00953200 0.05960000
v 0.00852724 0.00877262 0.06180000
v 0.00900642 0.00857119 0.06180000
v 0.00866810 0.01000202 0.06180000
v 0.00882572 0.00979537 0.06180000
v 0.00952133 0.00850005 0.06180000
v 0.00927086 0.00953560 0.06180000
v 0.00903127 0.00963631 0.06180000
v 0.00952831 0.00950002 0.06180000
v 0.00978623 0.00953200 0.06180000
v 0.00760284 0.00998461 0.06959999
v 0.00780092 0.00950403 0.06959999
v 0.00811615 0.00909073 0.06959999
v 0.00852724 0.00877262 0.06959999
v 0.00900642 0.00857119 0.06959999
v 0.00952133 0.00850005 0.06959999
v 0.00363529 0.01235000 0.05490000
v 0.00363529 0.01235000 0.05960000
v 0.00753529 0.01050000 0.06180000
v 0.00760284 0.01101539 0.06180000
v 0.00780092 0.01149597 0.06180000
v 0.00811615 0.01190927 0.06180000
v 0.00853529 0.01050000 0.05960000
v 0.00856906 0.01024230 0.05960000
v 0.00856906 0.01075769 0.05960000
v 0.00866810 0.01099798 0.05960000
v 0.00882572 0.01120463 0.05960000
v 0.00903127 0.01136369 0.05960000
v 0.00927086 0.01146440 0.05960000
v 0.00978623 0.01146800 0.05960000
v 0.00952831 0.01149998 0.05960000
v 0.00853529 0.01050000 0.06180000
v 0.00856906 0.01024230 0.06180000
v 0.00856906 0.01075769 0.06180000
v 0.00866810 0.01099798 0.06180000
v 0.00882572 0.01120463 0.06180000
v 0.00852724 0.01222738 0.06180000
v 0.00900642 0.01242881 0.06180000
v 0.00903127 0.01136369 0.06180000
v 0.00927086 0.01146440 0.06180000
v 0.00978623 0.01146800 0.06180000
v 0.00952831 0.01149998 0.06180000
v 0.00952133 0.01249995 0.06180000
v 0.00753529 0.01050000 0.06959999
v 0.00760284 0.01101539 0.06959999
v 0.00780092 0.01149597 0.06959999
v 0.00811615 0.01190927 0.06959999
v 0.00852724 0.01222738 0.06959999
v 0.00877536 0.01235000 0.06959999
v 0.00900642 0.01242881 0.06959969
v 0.00952133 0.01249995 0.06959888
v 0.00778051 0.01735000 0.05720000
v 0.00809304 0.01713117 0.06743297
v 0.00778051 0.01735000 0.06630820
v 0.00781562 0.01732542 0.06669147
v 0.00792037 0.01725207 0.06706844
v 0.00898502 0.01650660 0.06839365
v 0.00833080 0.01696469 0.06777906
v 0.00984031 0.01590772 0.06887209
v 0.01282912 -0.01235000 0.02780000
v 0.01421546 -0.01284420 0.02660000
v 0.01372125 -0.01235000 0.02728829
v 0.01219959 -0.01676886 0.03560000
v 0.01199242 -0.01440080 0.03560000
v 0.01389502 -0.00920000 0.01630000
v 0.01389502 -0.00920000 0.02580000
v 0.01941992 -0.00920000 0.01630000
v 0.01732778 -0.00920000 0.02780000
v 0.01941992 -0.00920000 0.02660000
v 0.01219959 -0.01676886 0.05570000
v 0.01199242 -0.01440080 0.05570000
v 0.01054633 -0.01698628 0.05720000
v 0.01041667 -0.01550415 0.05720000
v 0.01016075 -0.01568334 0.06899562
v 0.01002721 -0.01137064 0.05960000
v 0.01023495 -0.01121447 0.05960000
v 0.01096455 -0.01050000 0.05960000
v 0.01003718 -0.01243600 0.06180000
v 0.01051912 -0.01224128 0.06180000
v 0.01002721 -0.01137064 0.06180000
v 0.01023495 -0.01121447 0.06180000
v 0.01093462 -0.01192895 0.06180000
v 0.01096455 -0.01050000 0.06180000
v 0.01317781 -0.01235000 0.05960000
v 0.01239381 -0.01050000 0.06180000
v 0.01084083 -0.01520714 0.06918315
v 0.01003718 -0.01243600 0.06959963
v 0.01029522 -0.01235000 0.06959999
v 0.01051912 -0.01224128 0.06959999
v 0.01093462 -0.01192895 0.06959999
v 0.01287384 -0.01378362 0.06949670
v 0.01239381 -0.01050000 0.06959999
v 0.01421546 -0.01284420 0.06060000
v 0.01372125 -0.01235000 0.05991171
v 0.01492125 -0.01235000 0.06959999
v 0.01002721 -0.00962936 0.05960000
v 0.01023495 -0.00978553 0.05960000
v 0.01002721 -0.00962936 0.06180000
v 0.01023495 -0.00978553 0.06180000
v 0.01003718 -0.00856400 0.06180000
v 0.01051912 -0.00875872 0.06180000
v 0.01093462 -0.00907105 0.06180000
v 0.01003718 -0.00856400 0.06959999
v 0.01051912 -0.00875872 0.06959999
v 0.01093462 -0.00907105 0.06959999
v 0.01838556 -0.00870349 0.05960000
v 0.01895914 -0.00952264 0.06060000
v 0.02028447 -0.00700000 0.05960000
v 0.02028447 -0.00700000 0.06070000
v 0.01895914 -0.00952264 0.06959999
v 0.02091406 -0.00700000 0.06008138
v 0.02091401 -0.00700000 0.06118134
v 0.02105473 -0.00763826 0.06060000
v 0.02157251 -0.00700000 0.06060000
v 0.02157251 -0.00700000 0.06170000
v 0.02263529 -0.00530497 0.06170000
v 0.02105473 -0.00763826 0.06959999
v 0.02263529 -0.00530497 0.06959999
v 0.02174548 -0.00484863 0.06070000
v 0.02317641 -0.00205852 0.06070000
v 0.02417641 -0.00230000 0.06170000
v 0.02417641 -0.00230000 0.06959999
v 0.01389502 0.00920000 0.01630000
v 0.01389502 0.00920000 0.02580000
v 0.01282912 0.01235000 0.02780000
v 0.01372125 0.01235000 0.02728829
v 0.01421546 0.01284420 0.02660000
v 0.01199242 0.01440080 0.03560000
v 0.01219959 0.01676886 0.03560000
v 0.01941991 0.00920001 0.01630000
v 0.01732778 0.00920000 0.02780000
v 0.01941992 0.00920000 0.02660000
v 0.01002721 0.00962936 0.05960000
v 0.01023495 0.00978553 0.05960000
v 0.01003718 0.00856400 0.06180000
v 0.01051912 0.00875872 0.06180000
v 0.01002721 0.00962936 0.06180000
v 0.01023495 0.00978553 0.06180000
v 0.01093462 0.00907105 0.06180000
v 0.01003718 0.00856400 0.06959999
v 0.01051912 0.00875872 0.06959999
v 0.01093462 0.00907105 0.06959999
v 0.01199242 0.01440080 0.05570000
v 0.01219959 0.01676886 0.05570000
v 0.01002721 0.01137064 0.05960000
v 0.01023495 0.01121447 0.05960000
v 0.01096455 0.01050000 0.05960000
v 0.01002721 0.01137064 0.06180000
v 0.01023495 0.01121447 0.06180000
v 0.01003718 0.01243600 0.06180000
v 0.01051912 0.01224128 0.06180000
v 0.01096455 0.01050000 0.06180000
v 0.01093462 0.01192895 0.06180000
v 0.01317781 0.01235000 0.05960000
v 0.01239381 0.01050000 0.06180000
v 0.01003718 0.01243600 0.06959963
v 0.01029522 0.01235000 0.06959999
v 0.01051912 0.01224128 0.06959999
v 0.01093462 0.01192895 0.06959999
v 0.01084083 0.01520714 0.06918315
v 0.01239381 0.01050000 0.06959999
v 0.01287384 0.01378362 0.06949670
v 0.01041667 0.01550415 0.05720000
v 0.01054633 0.01698628 0.05720000
v 0.01372125 0.01235000 0.05991171
v 0.01421546 0.01284420 0.06060000
v 0.01492125 0.01235000 0.06959999
v 0.01838556 0.00870349 0.05960000
v 0.02028447 0.00700000 0.05960000
v 0.02028447 0.00700000 0.06070000
v 0.01895914 0.00952264 0.06060000
v 0.01895914 0.00952264 0.06959999
v 0.02174548 0.00484863 0.06070000
v 0.02317641 0.00205852 0.06070000
v 0.02417641 0.00230000 0.06170000
v 0.02417641 0.00230000 0.06959999
v 0.02091406 0.00700000 0.06008138
v 0.02091401 0.00700000 0.06118134
v 0.02105473 0.00763826 0.06060000
v 0.02157251 0.00700000 0.06060000
v 0.02157251 0.00700000 0.06170000
v 0.02263529 0.00530497 0.06170000
v 0.02105473 0.00763826 0.06959999
v 0.02263529 0.00530497 0.06959999
f 8 3 2
f 9 4 5
f 7 2 4
f 9 5 6
f 8 2 7
f 9 7 4
f 109 12 132
f 110 11 10
f 110 10 108
f 14 36 13
f 20 15 16
f 21 16 17
f 19 17 18
f 24 18 22
f 19 18 24
f 21 20 16
f 19 21 17
f 21 31 20
f 37 14 15
f 20 37 15
f 24 22 27
f 19 24 29
f 24 27 33
f 19 32 21
f 19 29 32
f 24 33 29
f 27 22 23
f 26 23 25
f 27 23 26
f 26 25 28
f 28 25 55
f 27 26 34
f 26 28 35
f 26 35 34
f 27 34 33
f 28 57 35
f 21 32 31
f 20 31 30
f 29 33 45
f 33 34 44
f 34 35 308
f 37 36 14
f 9 6 36
f 9 36 37
f 20 30 113
f 20 112 37
f 20 113 112
f 32 29 40
f 32 41 31
f 31 125 30
f 29 45 38
f 29 38 39
f 29 39 40
f 32 40 41
f 33 44 43
f 34 42 44
f 34 308 42
f 33 43 45
f 35 332 308
f 30 125 114
f 31 41 125
f 53 46 12
f 54 47 46
f 52 49 47
f 58 51 50
f 59 50 49
f 59 49 52
f 52 47 54
f 54 46 53
f 54 53 64
f 53 12 109
f 28 55 57
f 57 55 48
f 56 48 51
f 57 48 56
f 56 51 58
f 58 50 59
f 35 57 60
f 57 56 61
f 56 58 62
f 58 59 63
f 59 52 65
f 52 54 66
f 57 61 60
f 56 62 61
f 58 63 62
f 59 65 63
f 52 66 65
f 54 64 66
f 35 60 332
f 60 61 333
f 61 62 335
f 62 63 337
f 63 65 338
f 53 109 64
f 64 109 373
f 65 66 339
f 66 64 340
f 60 333 332
f 61 334 333
f 61 335 334
f 62 336 335
f 62 337 336
f 63 338 337
f 65 339 338
f 66 340 339
f 64 373 340
f 68 67 95
f 110 69 68
f 74 70 3
f 75 71 70
f 74 75 70
f 77 71 75
f 8 74 3
f 77 72 71
f 78 73 72
f 77 78 72
f 8 7 81
f 9 81 7
f 8 80 74
f 74 79 75
f 9 82 81
f 8 81 80
f 77 75 83
f 77 84 78
f 74 80 79
f 75 79 83
f 77 83 84
f 78 84 85
f 76 92 91
f 76 93 92
f 76 94 93
f 76 88 89
f 76 87 88
f 76 89 90
f 76 91 87
f 79 87 83
f 79 88 87
f 81 89 80
f 79 80 88
f 81 82 90
f 80 89 88
f 81 90 89
f 83 91 84
f 84 92 85
f 83 87 91
f 84 91 92
f 85 93 86
f 85 92 93
f 86 93 94
f 568 68 95
f 110 68 571
f 568 571 68
f 99 96 73
f 100 97 96
f 78 99 73
f 99 100 96
f 107 98 97
f 100 107 97
f 78 85 99
f 99 86 100
f 99 85 86
f 86 101 100
f 101 102 107
f 101 107 100
f 76 109 567
f 86 94 101
f 101 104 102
f 101 94 104
f 102 104 105
f 102 106 103
f 102 105 106
f 76 567 94
f 102 573 107
f 94 567 104
f 104 567 105
f 105 567 106
f 110 108 69
f 110 217 11
f 9 37 82
f 30 114 113
f 37 111 82
f 37 112 111
f 82 111 118
f 111 112 119
f 112 113 120
f 82 118 90
f 111 119 118
f 112 120 119
f 113 121 120
f 113 114 121
f 114 115 122
f 114 122 121
f 115 123 122
f 115 116 123
f 116 117 124
f 116 124 123
f 114 125 115
f 115 125 116
f 76 378 109
f 76 90 364
f 90 118 365
f 118 119 365
f 119 120 365
f 120 121 365
f 121 122 365
f 122 123 365
f 123 124 366
f 116 125 371
f 117 126 128
f 127 129 126
f 117 128 124
f 126 129 128
f 127 103 129
f 103 106 129
f 129 106 131
f 102 103 573
f 116 371 117
f 117 371 126
f 127 126 371
f 127 371 103
f 124 128 372
f 129 372 128
f 129 131 372
f 103 371 130
f 130 371 131
f 215 132 133
f 215 133 165
f 218 134 11
f 218 135 134
f 218 136 135
f 219 137 136
f 220 138 137
f 220 139 138
f 221 140 139
f 221 141 140
f 222 142 141
f 222 143 142
f 223 144 143
f 223 145 144
f 223 146 145
f 224 147 146
f 224 148 147
f 225 149 148
f 225 150 149
f 225 151 150
f 225 152 151
f 581 153 152
f 581 154 153
f 581 155 154
f 581 156 155
f 257 162 161
f 593 157 156
f 593 158 157
f 593 159 158
f 257 163 162
f 256 164 163
f 188 164 256
f 598 160 159
f 598 161 160
f 172 165 166
f 173 166 167
f 171 167 168
f 178 168 169
f 171 168 178
f 173 172 166
f 171 173 167
f 173 184 172
f 172 215 165
f 175 169 170
f 176 170 174
f 178 169 175
f 175 170 176
f 176 174 177
f 171 178 180
f 178 175 179
f 175 176 181
f 176 177 182
f 171 185 173
f 171 180 185
f 178 179 180
f 176 182 181
f 175 181 179
f 173 185 184
f 172 184 183
f 179 438 180
f 181 182 437
f 179 181 441
f 172 183 215
f 183 494 215
f 180 443 185
f 185 444 184
f 184 494 183
f 179 442 438
f 180 439 440
f 180 438 439
f 179 441 442
f 181 186 441
f 181 437 186
f 180 440 443
f 185 443 444
f 184 444 494
f 188 187 164
f 188 189 187
f 188 199 189
f 198 190 189
f 197 191 190
f 203 192 194
f 203 194 195
f 196 193 191
f 195 194 193
f 195 193 196
f 197 190 198
f 199 198 189
f 196 191 197
f 196 197 208
f 197 198 200
f 197 200 208
f 199 209 198
f 198 209 200
f 177 174 201
f 177 202 182
f 177 201 202
f 182 202 204
f 202 201 192
f 202 192 203
f 202 203 205
f 203 195 206
f 202 205 204
f 203 206 205
f 195 196 207
f 182 204 467
f 195 207 206
f 196 208 207
f 204 205 210
f 205 206 212
f 188 256 199
f 199 279 209
f 182 467 437
f 206 207 214
f 207 208 468
f 200 495 208
f 204 210 467
f 205 211 210
f 205 212 211
f 206 213 212
f 206 214 213
f 200 209 496
f 207 468 214
f 208 495 468
f 200 496 495
f 217 218 11
f 109 132 601
f 215 591 132
f 110 579 217
f 591 601 132
f 218 219 136
f 219 220 137
f 220 221 139
f 221 222 141
f 222 223 143
f 223 224 146
f 224 225 148
f 225 581 152
f 581 593 156
f 215 259 216
f 256 163 257
f 257 161 598
f 199 252 251
f 199 255 252
f 199 256 255
f 217 579 580
f 217 580 218
f 218 223 219
f 219 222 220
f 220 222 221
f 219 223 222
f 218 580 223
f 215 216 591
f 216 231 232
f 216 232 236
f 216 233 231
f 216 230 233
f 216 234 230
f 216 236 237
f 216 237 235
f 226 242 228
f 229 241 261
f 229 228 244
f 216 235 591
f 226 227 243
f 239 248 227
f 227 248 243
f 239 240 249
f 239 249 248
f 230 241 233
f 230 234 245
f 233 241 244
f 230 245 241
f 231 233 244
f 231 242 232
f 232 243 236
f 231 244 242
f 232 242 243
f 236 243 248
f 228 242 244
f 226 243 242
f 229 244 241
f 241 245 261
f 237 249 235
f 235 249 247
f 235 247 238
f 238 247 250
f 240 246 247
f 240 247 249
f 246 585 250
f 246 250 247
f 236 248 237
f 237 248 249
f 238 250 582
f 593 598 159
f 226 251 227
f 226 228 253
f 229 254 228
f 227 251 252
f 228 254 253
f 229 279 254
f 226 253 251
f 239 227 252
f 239 256 240
f 240 258 246
f 246 594 585
f 239 252 255
f 239 255 256
f 240 256 257
f 240 257 258
f 246 258 594
f 216 259 234
f 199 251 253
f 199 253 254
f 199 254 279
f 209 279 280
f 209 280 281
f 215 498 259
f 259 498 260
f 209 281 497
f 209 497 496
f 259 264 234
f 259 265 264
f 259 266 265
f 259 267 266
f 259 268 267
f 261 245 262
f 234 264 270
f 264 265 271
f 265 266 274
f 234 270 245
f 264 271 270
f 265 274 271
f 262 245 270
f 263 270 271
f 262 270 263
f 263 271 272
f 271 274 272
f 272 274 273
f 266 267 275
f 266 275 274
f 267 268 276
f 267 276 275
f 269 605 277
f 268 269 277
f 268 277 276
f 274 275 273
f 275 276 278
f 276 277 607
f 275 278 273
f 276 607 278
f 259 260 615
f 229 261 279
f 261 262 280
f 262 263 281
f 261 280 279
f 262 281 280
f 281 282 497
f 282 283 497
f 283 284 497
f 263 272 282
f 272 273 283
f 273 278 284
f 278 607 610
f 263 282 281
f 272 283 282
f 273 284 283
f 278 610 284
f 284 610 497
f 285 289 298
f 285 290 289
f 289 290 294
f 285 292 290
f 302 303 291
f 302 292 285
f 288 306 305
f 287 286 306
f 287 306 288
f 289 288 305
f 287 312 286
f 289 294 288
f 287 288 295
f 288 294 295
f 287 295 296
f 287 296 316
f 302 291 292
f 303 293 291
f 38 294 290
f 39 290 292
f 42 296 295
f 43 295 294
f 296 308 316
f 310 307 297
f 289 305 298
f 285 298 299
f 302 299 300
f 303 300 301
f 302 285 299
f 302 300 303
f 303 301 304
f 304 301 307
f 303 304 293
f 304 307 310
f 38 45 294
f 38 290 39
f 39 292 40
f 40 291 41
f 43 44 295
f 44 42 295
f 43 294 45
f 42 308 296
f 40 292 291
f 291 293 41
f 293 125 41
f 293 353 125
f 310 297 309
f 310 309 342
f 347 310 342
f 304 354 293
f 304 310 355
f 304 355 354
f 312 311 286
f 313 323 311
f 314 324 323
f 312 313 311
f 313 314 323
f 314 315 324
f 287 316 312
f 312 316 313
f 313 317 314
f 314 318 315
f 315 319 329
f 313 316 317
f 314 317 318
f 315 318 319
f 329 320 330
f 329 319 320
f 320 321 330
f 331 321 322
f 316 332 317
f 317 334 318
f 318 336 319
f 315 325 324
f 329 326 325
f 330 327 326
f 331 328 327
f 315 329 325
f 329 330 326
f 330 331 327
f 330 321 331
f 331 412 328
f 316 308 332
f 317 332 333
f 317 333 334
f 318 334 335
f 318 335 336
f 319 336 337
f 319 337 338
f 319 338 339
f 320 339 340
f 319 339 320
f 320 340 321
f 321 373 322
f 321 340 373
f 331 322 412
f 322 373 412
f 347 342 343
f 348 343 344
f 348 344 345
f 348 345 346
f 347 343 348
f 348 346 349
f 412 350 328
f 414 352 351
f 415 414 351
f 76 362 378
f 76 361 362
f 76 360 361
f 76 363 360
f 76 364 363
f 90 365 364
f 123 366 365
f 293 354 353
f 347 381 310
f 310 381 355
f 125 353 356
f 125 356 357
f 125 357 358
f 125 358 359
f 125 359 367
f 125 367 371
f 353 360 356
f 353 354 361
f 355 362 354
f 355 381 389
f 354 362 361
f 355 389 362
f 353 361 360
f 356 363 357
f 357 364 358
f 356 360 363
f 357 363 364
f 358 365 359
f 358 364 365
f 359 365 366
f 124 369 366
f 124 370 369
f 124 372 370
f 131 371 372
f 367 368 371
f 368 405 371
f 359 366 367
f 367 369 368
f 367 366 369
f 368 369 370
f 368 408 405
f 368 370 408
f 370 372 408
f 109 412 373
f 109 378 412
f 349 346 374
f 379 374 375
f 380 375 376
f 349 374 379
f 379 375 380
f 397 376 377
f 380 376 397
f 397 377 398
f 347 348 382
f 348 349 383
f 347 382 381
f 348 383 382
f 349 384 383
f 349 379 384
f 379 380 385
f 379 385 384
f 380 386 385
f 386 397 387
f 387 398 388
f 378 362 389
f 378 389 390
f 378 390 391
f 378 391 392
f 378 392 393
f 381 382 390
f 382 383 391
f 381 390 389
f 382 391 390
f 383 392 391
f 383 384 392
f 384 393 392
f 378 393 394
f 378 394 395
f 378 395 396
f 384 385 393
f 385 386 394
f 385 394 393
f 386 395 394
f 386 387 395
f 387 388 396
f 387 396 395
f 380 397 386
f 387 397 398
f 415 399 413
f 398 377 400
f 409 400 401
f 398 400 409
f 410 409 401
f 410 401 402
f 410 402 411
f 388 409 403
f 403 410 404
f 405 404 411
f 404 410 411
f 388 403 406
f 403 404 407
f 388 406 396
f 403 407 406
f 405 407 404
f 405 408 407
f 378 396 632
f 388 398 409
f 403 409 410
f 396 406 632
f 406 407 632
f 634 399 415
f 412 672 350
f 415 413 414
f 378 672 412
f 419 431 428
f 418 416 431
f 420 417 429
f 418 431 419
f 417 419 428
f 420 422 417
f 417 421 419
f 418 419 423
f 417 422 421
f 420 426 422
f 419 421 423
f 418 423 424
f 434 435 425
f 434 426 420
f 434 425 426
f 435 427 425
f 421 422 439
f 422 426 440
f 424 423 186
f 421 442 423
f 417 428 429
f 420 429 430
f 434 430 432
f 435 432 433
f 434 420 430
f 434 432 435
f 435 433 436
f 435 436 427
f 436 433 470
f 436 470 524
f 421 438 442
f 421 439 438
f 422 440 439
f 423 442 441
f 423 441 186
f 424 186 437
f 426 443 440
f 425 444 443
f 426 425 443
f 425 427 444
f 427 494 444
f 436 524 427
f 427 524 494
f 418 446 416
f 418 424 448
f 424 437 448
f 446 445 416
f 418 448 446
f 447 453 445
f 446 447 445
f 447 459 453
f 446 448 447
f 447 449 459
f 447 448 449
f 459 449 450
f 459 450 460
f 450 451 460
f 448 467 449
f 211 450 449
f 459 454 453
f 460 455 454
f 459 460 454
f 461 456 455
f 464 457 456
f 464 463 457
f 460 461 455
f 460 451 461
f 461 464 456
f 464 465 463
f 463 458 457
f 463 462 458
f 461 452 464
f 461 451 452
f 464 466 465
f 464 452 466
f 466 469 465
f 448 437 467
f 210 449 467
f 210 211 449
f 211 212 450
f 212 213 450
f 213 214 451
f 213 451 450
f 451 495 452
f 452 496 466
f 214 468 451
f 451 468 495
f 452 495 496
f 466 497 469
f 463 556 462
f 463 465 556
f 465 469 519
f 524 470 350
f 415 351 488
f 556 471 462
f 556 472 471
f 556 473 472
f 557 474 473
f 557 475 474
f 557 476 475
f 667 479 477
f 667 478 479
f 669 477 476
f 564 492 484
f 564 484 483
f 565 486 493
f 560 485 487
f 560 487 486
f 561 488 489
f 562 490 491
f 562 489 490
f 563 491 485
f 564 493 492
f 566 480 478
f 566 481 480
f 566 483 482
f 566 482 481
f 215 494 524
f 215 524 498
f 260 498 499
f 466 496 497
f 469 497 521
f 498 525 530
f 465 519 518
f 465 518 551
f 465 551 552
f 465 552 553
f 469 520 519
f 469 521 520
f 260 499 677
f 498 504 506
f 498 531 503
f 498 530 531
f 498 503 504
f 498 506 505
f 498 505 507
f 501 511 500
f 498 677 499
f 503 531 540
f 504 503 511
f 504 512 506
f 504 511 512
f 503 540 511
f 506 512 515
f 501 502 512
f 502 509 515
f 500 511 540
f 501 512 511
f 502 515 512
f 509 510 514
f 509 514 515
f 510 513 516
f 513 642 517
f 507 505 514
f 507 514 516
f 506 515 505
f 505 515 514
f 507 516 508
f 508 516 517
f 508 517 640
f 510 516 514
f 513 517 516
f 497 523 522
f 497 522 521
f 501 500 518
f 501 519 502
f 500 551 518
f 502 519 520
f 501 518 519
f 497 647 523
f 509 521 510
f 502 520 509
f 510 522 513
f 513 523 642
f 509 520 521
f 510 521 522
f 513 522 523
f 642 523 647
f 524 350 661
f 415 488 559
f 661 350 672
f 415 559 671
f 524 525 498
f 556 557 473
f 465 553 554
f 465 554 555
f 465 555 556
f 557 669 476
f 559 488 561
f 563 485 560
f 560 486 565
f 562 561 489
f 562 491 563
f 565 493 564
f 564 483 566
f 566 478 667
f 525 532 530
f 525 533 532
f 525 534 533
f 525 535 534
f 524 661 525
f 525 536 535
f 525 538 536
f 526 539 527
f 526 500 540
f 527 541 528
f 525 661 538
f 531 530 539
f 530 532 541
f 531 539 540
f 530 541 539
f 532 533 542
f 533 534 543
f 534 535 546
f 532 542 541
f 533 543 542
f 534 546 543
f 526 540 539
f 527 539 541
f 528 542 529
f 528 541 542
f 529 542 543
f 529 543 544
f 543 546 544
f 544 546 545
f 535 536 547
f 535 547 546
f 537 655 548
f 536 538 549
f 536 549 547
f 538 537 548
f 538 548 549
f 546 547 545
f 547 549 550
f 547 550 545
f 549 548 657
f 549 657 550
f 526 551 500
f 526 527 552
f 527 528 553
f 528 529 554
f 526 552 551
f 527 553 552
f 528 554 553
f 669 667 477
f 529 544 555
f 544 545 556
f 545 550 557
f 550 657 558
f 529 555 554
f 544 556 555
f 545 557 556
f 550 558 557
f 657 663 558
f 559 670 671
f 559 561 670
f 560 565 670
f 562 670 561
f 562 563 670
f 563 560 670
f 107 573 98
f 573 572 98
f 106 567 575
f 568 95 574
f 567 569 575
f 568 576 569
f 569 576 575
f 110 571 570
f 110 570 577
f 109 601 567
f 570 571 578
f 567 601 569
f 568 600 571
f 568 569 601
f 103 130 573
f 130 131 573
f 106 575 131
f 131 575 573
f 573 575 572
f 575 576 572
f 568 574 576
f 576 574 572
f 110 577 579
f 570 578 577
f 577 578 580
f 571 600 578
f 568 601 600
f 577 580 579
f 223 600 224
f 223 580 600
f 235 238 591
f 238 582 591
f 582 583 591
f 585 587 250
f 585 586 587
f 587 586 588
f 588 586 589
f 582 587 583
f 582 250 587
f 583 587 588
f 583 588 584
f 604 584 590
f 588 590 584
f 588 589 590
f 606 590 592
f 589 592 590
f 578 600 580
f 224 600 225
f 225 600 581
f 257 598 258
f 258 598 594
f 594 598 595
f 585 595 586
f 586 596 589
f 585 594 595
f 586 595 596
f 589 596 597
f 589 597 599
f 581 600 593
f 593 600 598
f 595 598 602
f 589 599 592
f 595 602 596
f 596 602 597
f 597 602 599
f 583 613 591
f 591 613 601
f 601 613 600
f 600 602 598
f 600 617 602
f 599 602 617
f 259 615 268
f 603 605 269
f 603 604 606
f 603 606 605
f 604 590 606
f 605 608 277
f 277 608 607
f 605 606 609
f 605 609 608
f 606 592 609
f 583 584 613
f 268 615 269
f 603 269 615
f 608 609 612
f 607 608 611
f 592 612 609
f 607 611 610
f 608 612 611
f 592 599 612
f 610 629 497
f 604 615 584
f 603 615 604
f 260 616 615
f 260 626 616
f 584 615 613
f 599 617 612
f 610 611 629
f 611 612 629
f 612 617 624
f 260 627 626
f 260 681 627
f 260 680 681
f 613 614 600
f 600 614 617
f 613 615 614
f 615 620 614
f 615 616 618
f 612 624 625
f 614 620 617
f 620 624 617
f 612 625 629
f 615 618 620
f 618 616 619
f 618 621 620
f 620 621 622
f 618 619 621
f 619 622 621
f 616 626 619
f 619 626 622
f 622 626 623
f 620 622 624
f 622 623 625
f 624 622 625
f 626 627 623
f 623 627 628
f 627 681 628
f 623 628 625
f 628 629 625
f 628 682 629
f 405 631 371
f 408 638 407
f 408 372 638
f 371 638 372
f 371 631 638
f 631 630 637
f 631 637 638
f 411 402 630
f 411 630 631
f 405 411 631
f 407 638 632
f 634 639 399
f 639 637 399
f 632 638 633
f 634 633 638
f 634 638 639
f 634 415 635
f 378 632 672
f 632 633 672
f 415 636 635
f 415 671 636
f 635 636 651
f 634 673 633
f 634 635 673
f 638 637 639
f 497 629 647
f 498 507 676
f 640 644 641
f 640 517 644
f 641 644 645
f 641 645 654
f 642 644 517
f 642 643 644
f 644 643 645
f 645 643 646
f 645 646 659
f 646 662 659
f 507 508 676
f 508 640 676
f 641 654 675
f 642 647 643
f 643 648 646
f 647 648 643
f 646 648 649
f 646 649 668
f 646 668 662
f 260 677 680
f 647 629 648
f 498 676 677
f 640 641 676
f 641 675 676
f 672 678 675
f 648 629 649
f 649 690 668
f 635 651 650
f 635 650 673
f 636 671 651
f 650 651 671
f 633 673 672
f 653 661 654
f 538 661 537
f 537 661 652
f 653 652 661
f 537 652 655
f 653 656 652
f 652 656 655
f 653 654 659
f 645 659 654
f 653 659 656
f 548 655 658
f 548 658 657
f 656 660 655
f 655 660 658
f 656 659 662
f 656 662 660
f 565 673 650
f 657 658 664
f 660 666 658
f 660 662 666
f 657 664 663
f 658 665 664
f 658 666 665
f 564 566 673
f 566 667 673
f 557 558 669
f 558 663 669
f 662 668 666
f 663 664 674
f 664 665 674
f 666 674 665
f 673 667 669
f 663 674 669
f 650 671 670
f 565 650 670
f 565 564 673
f 654 661 675
f 661 672 675
f 672 673 678
f 666 668 679
f 666 679 674
f 673 669 674
f 673 674 678
f 649 629 683
f 676 684 677
f 675 678 676
f 676 678 686
f 649 691 690
f 668 690 679
f 649 683 691
f 678 690 686
f 678 679 690
f 628 681 682
f 681 680 682
f 680 689 682
f 629 682 683
f 689 683 682
f 689 691 683
f 677 685 680
f 684 685 677
f 676 686 684
f 684 687 685
f 685 687 688
f 684 686 687
f 686 688 687
f 685 689 680
f 685 688 689
f 686 690 688
f 690 689 688
f 690 691 689
f 674 679 678
f 1 10 11
f 1 11 12
f 1 69 10
f 1 14 13
f 1 13 5
f 1 12 14
f 1 67 68
f 1 68 69
f 1 70 67
f 1 3 70
f 1 4 2
f 1 5 4
f 1 2 3
f 6 5 13
f 12 11 132
f 69 108 10
f 14 55 15
f 15 55 16
f 16 55 17
f 17 55 18
f 18 55 22
f 22 55 23
f 23 55 25
f 6 13 36
f 14 12 46
f 14 46 47
f 14 47 49
f 14 50 51
f 14 49 50
f 14 48 55
f 14 51 48
f 71 67 70
f 71 95 67
f 72 95 71
f 73 95 72
f 96 95 73
f 97 95 96
f 11 134 133
f 11 133 132
f 134 135 165
f 134 165 133
f 135 136 201
f 137 201 136
f 137 138 201
f 139 201 138
f 139 140 201
f 141 201 140
f 141 142 201
f 143 201 142
f 143 144 201
f 144 145 201
f 146 201 145
f 146 147 201
f 148 201 147
f 149 201 148
f 149 150 201
f 150 151 201
f 152 201 151
f 152 153 201
f 153 154 201
f 154 155 201
f 156 201 155
f 157 201 156
f 157 158 201
f 159 201 158
f 159 160 201
f 160 161 201
f 162 201 161
f 135 166 165
f 135 167 166
f 135 168 167
f 135 169 168
f 135 170 169
f 135 174 170
f 135 201 174
f 162 163 201
f 164 201 163
f 187 192 164
f 201 164 192
f 187 189 194
f 193 190 191
f 190 193 189
f 187 194 192
f 189 193 194
f 298 286 299
f 299 286 300
f 300 286 301
f 301 286 307
f 298 305 286
f 306 286 305
f 307 286 311
f 309 297 342
f 307 311 323
f 307 323 324
f 307 324 325
f 307 325 326
f 307 326 327
f 307 327 328
f 307 328 350
f 341 297 307
f 341 342 297
f 341 307 350
f 341 350 351
f 341 351 352
f 341 352 413
f 341 343 342
f 341 344 343
f 341 345 344
f 341 346 345
f 341 374 346
f 341 413 399
f 341 375 374
f 341 376 375
f 341 399 376
f 414 413 352
f 376 399 377
f 377 399 400
f 400 399 401
f 402 399 630
f 401 399 402
f 431 471 428
f 431 416 471
f 429 471 430
f 430 471 432
f 429 428 471
f 432 471 433
f 416 445 453
f 416 453 454
f 416 454 455
f 416 455 456
f 416 456 457
f 416 457 458
f 416 458 462
f 471 416 462
f 350 470 488
f 350 488 351
f 433 471 470
f 470 472 473
f 470 471 472
f 470 473 474
f 470 475 476
f 476 477 470
f 479 470 477
f 470 474 475
f 479 478 470
f 480 470 478
f 480 481 470
f 492 493 470
f 481 482 470
f 482 483 470
f 484 470 483
f 492 470 484
f 470 489 488
f 470 490 489
f 470 485 491
f 470 487 485
f 487 470 486
f 486 470 493
f 470 491 490
f 97 574 95
f 97 98 574
f 98 572 574
f 637 630 399

