# https://github.com/mikedh/trimesh
v 0.00529722 -0.01091880 0.02779980
v 0.00624203 -0.01122417 0.02779980
v 0.00529722 -0.01091880 0.02580019
v 0.00363499 -0.01091880 0.02787228
v 0.00624203 -0.01122417 0.02580019
v 0.00624203 -0.01235003 0.02787228
v 0.00212226 -0.01091880 0.02578671
v -0.00436470 -0.01091880 0.02787228
v 0.00624203 -0.01423235 0.02578671
v 0.00624203 -0.01842672 0.02787228
v -0.00436470 -0.01091880 0.02578671
v -0.00436470 -0.02040000 0.02787228
v 0.00624203 -0.01842672 0.02578671
v 0.00342422 -0.02040000 0.02787228
v -0.00436470 -0.02040000 0.02578671
v 0.00342422 -0.02040000 0.02578671
f 4 6 2
f 2 1 4
f 7 5 9
f 3 5 7
f 8 11 15
f 15 12 8
f 9 5 2
f 2 6 9
f 9 10 13
f 6 10 9
f 8 4 3
f 3 11 8
f 7 11 3
f 3 4 1
f 2 5 3
f 3 1 2
f 14 10 6
f 8 12 14
f 14 4 8
f 6 4 14
f 16 11 7
f 16 15 11
f 16 9 13
f 7 9 16
f 13 10 16
f 10 14 16
f 12 15 16
f 16 14 12

