# https://github.com/mikedh/trimesh
v 0.00042826 0.01234999 0.06959999
v 0.00042826 0.01241030 0.06959946
v 0.00002855 0.01234999 0.06959999
v 0.00042826 0.00631303 0.06959999
v 0.00042826 0.01257699 0.06958876
v 0.00002855 0.01240962 0.06959946
v 0.00002855 0.00631100 0.06959999
v 0.00042329 0.00631100 0.06959999
v 0.00042826 0.00631100 0.06954599
v 0.00042826 0.01270100 0.06958074
v 0.00002855 0.01264272 0.06958449
v 0.00002855 0.00631100 0.06413730
v 0.00042826 0.00631100 0.06413730
v 0.00042826 0.01270913 0.06958021
v 0.00002855 0.01274911 0.06957754
v 0.00002855 0.01323361 0.06413730
v 0.00042826 0.01323361 0.06413730
v 0.00042826 0.01278028 0.06957540
v 0.00002855 0.01279655 0.06957433
v 0.00002855 0.01323361 0.06949626
v 0.00042826 0.01323361 0.06949786
f 3 1 2
f 19 18 21
f 21 20 19
f 8 9 4
f 3 2 6
f 18 19 14
f 5 6 2
f 10 14 15
f 15 14 19
f 11 5 10
f 10 15 11
f 6 5 11
f 17 12 16
f 13 12 17
f 16 20 17
f 17 20 21
f 3 7 8
f 8 1 3
f 8 4 1
f 7 12 8
f 8 12 13
f 13 9 8
f 1 4 5
f 13 17 5
f 5 9 13
f 21 18 5
f 5 17 21
f 4 9 5
f 5 2 1
f 18 14 5
f 5 14 10
f 11 7 3
f 11 12 7
f 16 12 11
f 11 20 16
f 11 19 20
f 3 6 11
f 11 15 19

