# https://github.com/mikedh/trimesh
v 0.00649936 -0.01542636 0.05870362
v 0.00649936 -0.01235024 0.05870362
v 0.00789077 -0.01542636 0.05870362
v 0.00649936 -0.01542636 0.06909763
v 0.00649936 -0.01234240 0.05959956
v 0.00789077 -0.01235024 0.05870362
v 0.00789077 -0.01542636 0.06909656
v 0.00789077 -0.01521744 0.06917975
v 0.00649936 -0.01522227 0.06917762
v 0.00789077 -0.01234240 0.05960063
v 0.00649936 -0.01234240 0.06936321
v 0.00789077 -0.01520687 0.06918295
v 0.00649936 -0.01520687 0.06918295
v 0.00649936 -0.01521623 0.06917975
v 0.00789077 -0.01234240 0.06959999
v 0.00649936 -0.01234511 0.06959999
v 0.00786571 -0.01234240 0.06959999
v 0.00789077 -0.01519782 0.06918509
v 0.00649936 -0.01519359 0.06918615
v 0.00789077 -0.01235024 0.06959999
v 0.00649936 -0.01235024 0.06959999
v 0.00649936 -0.01508853 0.06920962
v 0.00789077 -0.01397118 0.06945707
v 0.00789077 -0.01242602 0.06959893
v 0.00649936 -0.01242210 0.06959893
v 0.00649936 -0.01403337 0.06944320
v 0.00789077 -0.01377041 0.06949760
v 0.00649936 -0.01376648 0.06949867
v 0.00649936 -0.01394461 0.06946240
v 0.00649936 -0.01402371 0.06944534
v 0.00649936 -0.01245712 0.06959679
v 0.00789077 -0.01247795 0.06959573
v 0.00649936 -0.01350292 0.06951893
v 0.00789077 -0.01253803 0.06959146
v 0.00649936 -0.01253894 0.06959146
f 6 2 5
f 10 6 5
f 17 11 16
f 4 7 8
f 27 28 23
f 13 8 12
f 4 8 9
f 27 34 33
f 33 28 27
f 8 13 14
f 14 9 8
f 23 22 18
f 35 33 34
f 19 18 22
f 12 18 19
f 19 13 12
f 29 23 28
f 29 30 23
f 26 22 23
f 23 30 26
f 32 35 34
f 24 20 21
f 21 25 24
f 31 32 24
f 24 25 31
f 35 32 31
f 7 4 1
f 1 3 7
f 1 2 6
f 6 3 1
f 5 11 17
f 15 10 17
f 17 10 5
f 32 7 3
f 3 6 32
f 27 23 32
f 32 10 15
f 6 10 32
f 32 8 7
f 12 8 32
f 32 18 12
f 32 34 27
f 15 20 32
f 23 18 32
f 32 20 24
f 15 17 21
f 21 20 15
f 21 17 16
f 31 2 1
f 1 4 31
f 5 2 31
f 31 11 5
f 16 11 31
f 31 14 13
f 4 9 31
f 13 19 31
f 22 26 31
f 28 33 31
f 9 14 31
f 31 29 28
f 33 35 31
f 31 19 22
f 30 29 31
f 31 26 30
f 31 21 16
f 25 21 31

