# https://github.com/mikedh/trimesh
v 0.00932939 0.01714631 0.03564479
v 0.00932939 0.01714631 0.03560000
v 0.00932939 0.01677848 0.03564480
v 0.01023516 0.01641886 0.03564516
v 0.01023516 0.01702716 0.03564514
v 0.00932939 0.01633153 0.03560000
v 0.01023516 0.01702716 0.03560000
v 0.00932939 0.01633153 0.03564482
v 0.00969690 0.01633153 0.03564496
v 0.01023516 0.01633153 0.03564516
v 0.01023516 0.01633153 0.03560000
f 3 5 1
f 4 5 3
f 9 3 8
f 4 3 9
f 9 10 4
f 3 2 6
f 1 2 3
f 6 8 3
f 4 10 7
f 7 5 4
f 7 10 11
f 6 2 7
f 7 11 6
f 7 2 1
f 1 5 7
f 9 8 6
f 11 10 9
f 6 11 9

