# https://github.com/mikedh/trimesh
v 0.01151021 0.01439098 0.03534637
v 0.01200651 0.01439098 0.03534637
v 0.01151021 0.01439098 0.03564590
v 0.01151021 0.01473844 0.03534637
v 0.01200651 0.01439098 0.03564590
v 0.01204885 0.01504582 0.03559999
v 0.01151021 0.01474388 0.03564590
v 0.01151021 0.01504582 0.03559999
v 0.01204885 0.01504582 0.03564590
v 0.01154865 0.01504582 0.03564570
v 0.01151021 0.01504582 0.03564567
f 6 2 4
f 4 2 1
f 4 8 6
f 11 7 10
f 10 7 9
f 1 2 5
f 5 3 1
f 9 5 2
f 9 2 6
f 1 3 7
f 7 4 1
f 8 4 7
f 7 11 8
f 3 5 7
f 5 9 7
f 10 9 6
f 8 11 10
f 6 8 10

