# https://github.com/mikedh/trimesh
v -0.00034738 -0.00376977 0.06913709
v -0.00090304 -0.00363936 0.06876484
v -0.00063152 -0.00376977 0.06898289
v -0.00034738 -0.00376977 0.06771279
v -0.00034738 -0.00310600 0.06877697
v -0.00090304 -0.00360701 0.06874728
v -0.00090304 -0.00376977 0.06883553
v -0.00034738 -0.00208335 0.06771279
v -0.00090304 -0.00376977 0.06771279
v -0.00034738 -0.00300332 0.06872120
v -0.00090304 -0.00355913 0.06872120
v -0.00090304 -0.00264444 0.06771279
v -0.00090304 -0.00280440 0.06798466
v -0.00034738 -0.00221409 0.06793488
v -0.00034738 -0.00297773 0.06870057
v -0.00090304 -0.00347511 0.06865359
v -0.00090304 -0.00353718 0.06870364
v -0.00034738 -0.00232931 0.06810009
v -0.00090304 -0.00288496 0.06810009
v -0.00034738 -0.00287060 0.06861399
v -0.00034738 -0.00252922 0.06830128
v -0.00090304 -0.00299820 0.06821665
v -0.00034738 -0.00245626 0.06823435
v -0.00090304 -0.00292788 0.06814569
v -0.00090304 -0.00297344 0.06819392
f 2 7 3
f 3 1 2
f 2 1 5
f 20 16 15
f 15 16 10
f 8 12 13
f 19 18 13
f 10 11 6
f 6 5 10
f 2 5 6
f 10 16 17
f 17 11 10
f 8 13 14
f 14 13 18
f 18 25 23
f 25 22 23
f 24 18 19
f 24 25 18
f 21 23 22
f 21 22 16
f 21 16 20
f 9 4 1
f 1 3 9
f 9 3 7
f 8 4 9
f 9 12 8
f 24 17 16
f 24 7 2
f 12 9 24
f 24 13 12
f 24 9 7
f 2 6 24
f 19 13 24
f 16 22 24
f 24 6 11
f 11 17 24
f 24 22 25
f 21 4 8
f 1 4 21
f 20 15 21
f 21 5 1
f 10 5 21
f 21 15 10
f 8 14 21
f 21 14 18
f 18 23 21

