# https://github.com/mikedh/trimesh
v 0.02229571 0.00537594 0.06145313
v 0.02241498 0.00519221 0.06145313
v 0.02174486 0.00484839 0.06070008
v 0.02154163 0.00537594 0.06081803
v 0.01583310 0.00537594 0.06145313
v 0.02384937 0.00239671 0.06145313
v 0.02300270 0.00239671 0.06070008
v 0.02138627 0.00537594 0.06070008
v 0.01583310 0.00537594 0.06070008
v 0.01583310 0.00239671 0.06145313
v 0.01583310 0.00239671 0.06070008
f 6 3 2
f 2 3 1
f 7 3 6
f 3 8 4
f 1 3 4
f 10 1 5
f 6 2 10
f 10 2 1
f 6 10 7
f 7 10 11
f 9 7 11
f 9 8 3
f 3 7 9
f 5 1 9
f 1 4 9
f 9 4 8
f 9 10 5
f 11 10 9

