# https://github.com/mikedh/trimesh
v 0.01221074 -0.01032056 0.06239358
v 0.01221074 -0.01032056 0.06266352
v 0.01221074 -0.00680593 0.06239358
v 0.01221972 -0.01067051 0.06239358
v 0.01221074 -0.00680593 0.06266352
v 0.01221972 -0.01067051 0.06266352
v 0.01266230 -0.00680593 0.06239358
v 0.01266230 -0.01067051 0.06239358
v 0.01266230 -0.00680593 0.06266352
v 0.01266230 -0.01067051 0.06266352
f 5 3 1
f 1 2 5
f 4 3 7
f 1 3 4
f 7 8 4
f 7 3 9
f 3 5 9
f 9 8 7
f 9 10 8
f 6 5 2
f 10 9 6
f 6 9 5
f 6 2 1
f 1 4 6
f 6 4 8
f 8 10 6

