# https://github.com/mikedh/trimesh
v 0.02417606 -0.00207307 0.06832782
v 0.02417606 -0.00230011 0.06832782
v 0.02417606 -0.00207307 0.06170062
v 0.02059179 -0.00207307 0.06832782
v 0.02340412 -0.00380532 0.06832782
v 0.02417606 -0.00230011 0.06170062
v 0.02412413 -0.00207307 0.06164835
v 0.02059179 -0.00380532 0.06832782
v 0.02059179 -0.00207307 0.06070000
v 0.02340412 -0.00380532 0.06170062
v 0.02288516 -0.00380532 0.06123839
v 0.02317394 -0.00207307 0.06070448
v 0.02323639 -0.00207307 0.06076049
v 0.02059179 -0.00380532 0.06070000
v 0.02316867 -0.00207307 0.06070000
v 0.02228059 -0.00380532 0.06070000
f 6 12 13
f 7 3 6
f 6 13 7
f 16 15 12
f 6 10 11
f 11 12 6
f 11 16 12
f 4 8 2
f 2 1 4
f 2 8 5
f 1 2 3
f 3 2 6
f 10 2 5
f 6 2 10
f 14 8 4
f 4 9 14
f 4 1 7
f 7 9 4
f 1 3 7
f 7 15 9
f 7 13 12
f 12 15 7
f 16 14 9
f 9 15 16
f 5 8 11
f 11 10 5
f 8 14 11
f 14 16 11

