# https://github.com/mikedh/trimesh
v 0.01422511 -0.01224243 0.06193052
v 0.01422511 -0.01283766 0.06193052
v 0.01422511 -0.01224243 0.06011241
v 0.01078777 -0.01224243 0.06193052
v 0.01422511 -0.01283766 0.06060006
v 0.01009989 -0.01572618 0.05948723
v 0.01297206 -0.01371509 0.05948723
v 0.01421509 -0.01284432 0.05948723
v 0.01372088 -0.01235005 0.05948723
v 0.01335064 -0.01224243 0.05961088
v 0.00996089 -0.01224243 0.06179994
v 0.01051563 -0.01224313 0.06193052
v 0.01382106 -0.01312056 0.05948723
v 0.01411616 -0.01291373 0.05948723
v 0.01371045 -0.01319803 0.05948723
v 0.01113005 -0.01500475 0.06193052
v 0.01002309 -0.01577981 0.06193052
v 0.00997216 -0.01581557 0.05948723
v 0.01333186 -0.01224243 0.05960012
v 0.00996089 -0.01235005 0.05948723
v 0.00996089 -0.01224243 0.05960012
v 0.00996089 -0.01255512 0.06193052
v 0.00996256 -0.01244540 0.06193052
v 0.00996590 -0.01581978 0.06193052
v 0.00996089 -0.01582328 0.05954320
v 0.00996089 -0.01582328 0.05948723
v 0.00996089 -0.01582293 0.06193052
f 25 26 18
f 22 23 11
f 11 23 12
f 17 18 6
f 9 19 10
f 11 12 4
f 6 2 16
f 16 17 6
f 18 17 24
f 24 27 25
f 25 18 24
f 3 8 9
f 9 10 3
f 7 2 6
f 5 7 15
f 2 7 5
f 5 14 8
f 8 3 5
f 13 5 15
f 14 5 13
f 24 2 1
f 24 22 27
f 24 16 2
f 23 22 24
f 24 12 23
f 1 4 24
f 24 4 12
f 17 16 24
f 1 3 21
f 21 4 1
f 21 10 19
f 11 4 21
f 21 3 10
f 25 27 21
f 21 22 11
f 21 26 25
f 27 22 21
f 21 20 26
f 9 20 21
f 21 19 9
f 1 2 5
f 5 3 1
f 26 20 13
f 6 18 13
f 13 18 26
f 9 8 13
f 13 20 9
f 13 7 6
f 15 7 13
f 8 14 13

