# https://github.com/mikedh/trimesh
v 0.00811862 0.01191118 0.06959999
v 0.00760061 0.01000101 0.06959999
v 0.00811862 0.01191118 0.06184714
v 0.00364527 0.01191118 0.06959999
v 0.00364527 0.01000101 0.06959999
v 0.00760061 0.01000101 0.06180595
v 0.00811599 0.01190912 0.06180595
v 0.00808052 0.01191118 0.06180595
v 0.00364527 0.01191118 0.06180595
v 0.00364527 0.01000101 0.06180595
f 8 3 7
f 7 3 6
f 5 2 1
f 5 1 4
f 4 1 3
f 3 9 4
f 8 9 3
f 1 2 3
f 2 6 3
f 2 5 10
f 10 6 2
f 10 5 4
f 4 9 10
f 7 9 8
f 6 10 7
f 7 10 9

