# https://github.com/mikedh/trimesh
v -0.00034738 -0.00176630 0.06665181
v -0.00034738 -0.00176084 0.06659998
v -0.00070386 -0.00212267 0.06665181
v -0.00034738 -0.01570977 0.06665181
v -0.00034738 -0.00176084 0.06558429
v -0.00090304 -0.00231656 0.06659998
v -0.00090304 -0.00232202 0.06665181
v -0.00090304 -0.01570977 0.06665181
v -0.00034738 -0.01570977 0.06558429
v -0.00090304 -0.00231656 0.06558429
v -0.00090304 -0.01570977 0.06558429
f 6 7 3
f 1 2 3
f 3 2 6
f 10 2 5
f 6 2 10
f 9 2 1
f 1 4 9
f 5 2 9
f 9 10 5
f 11 10 9
f 6 10 8
f 8 7 6
f 8 10 11
f 8 4 1
f 1 3 8
f 8 3 7
f 8 9 4
f 11 9 8

