# https://github.com/mikedh/trimesh
v 0.01261049 -0.01027076 0.06804330
v 0.01261049 -0.01067051 0.06804330
v 0.01261049 -0.01027076 0.06745150
v 0.01221074 -0.01027076 0.06804330
v 0.01221970 -0.01067051 0.06804330
v 0.01261049 -0.01067051 0.06745150
v 0.01221074 -0.01027076 0.06745150
v 0.01221074 -0.01032077 0.06804330
v 0.01221970 -0.01067051 0.06745150
v 0.01221074 -0.01032077 0.06745150
f 4 1 7
f 1 3 7
f 1 2 6
f 6 3 1
f 2 5 6
f 6 5 9
f 8 2 1
f 8 1 4
f 8 5 2
f 10 7 3
f 3 6 10
f 10 6 9
f 9 5 10
f 5 8 10
f 4 7 10
f 10 8 4

