# https://github.com/mikedh/trimesh
v 0.00364393 -0.00672551 0.06861880
v 0.00364393 -0.00672551 0.06438213
v 0.00316128 -0.00672551 0.06861880
v 0.00364393 -0.01626207 0.06861880
v 0.00316128 -0.00672551 0.06438213
v 0.00364393 -0.01735000 0.06438213
v 0.00316128 -0.01626207 0.06861880
v 0.00316128 -0.01626623 0.06861589
v 0.00364393 -0.01627143 0.06861133
v 0.00316128 -0.01735000 0.06438213
v 0.00364393 -0.01735000 0.06630845
v 0.00316128 -0.01630263 0.06858396
v 0.00364393 -0.01630679 0.06857940
v 0.00316128 -0.01735000 0.06630845
v 0.00364393 -0.01732504 0.06664229
v 0.00316128 -0.01632239 0.06856364
v 0.00364393 -0.01632031 0.06856530
v 0.00316128 -0.01732296 0.06665142
v 0.00364393 -0.01731880 0.06669040
v 0.00316128 -0.01730736 0.06677832
v 0.00316128 -0.01731672 0.06670533
v 0.00316128 -0.01731984 0.06668086
v 0.00316128 -0.01655641 0.06831689
v 0.00364393 -0.01671451 0.06814935
v 0.00364393 -0.01729695 0.06685836
v 0.00316128 -0.01729592 0.06686292
v 0.00316128 -0.01661050 0.06825966
v 0.00316128 -0.01669474 0.06817050
v 0.00316128 -0.01671035 0.06815391
v 0.00316128 -0.01674883 0.06810829
v 0.00364393 -0.01675507 0.06810083
v 0.00364393 -0.01722103 0.06717519
v 0.00316128 -0.01722103 0.06717685
v 0.00316128 -0.01729488 0.06686748
v 0.00316128 -0.01675507 0.06810083
v 0.00316128 -0.01686740 0.06793038
v 0.00364393 -0.01691628 0.06785615
v 0.00364393 -0.01718462 0.06727555
v 0.00364393 -0.01710558 0.06749203
v 0.00316128 -0.01716798 0.06732200
v 0.00316128 -0.01693188 0.06783168
v 0.00316128 -0.01694645 0.06780928
v 0.00364393 -0.01695165 0.06780099
v 0.00364393 -0.01709102 0.06752355
v 0.00316128 -0.01710142 0.06750240
v 0.00316128 -0.01710350 0.06749742
v 0.00316128 -0.01710558 0.06749203
v 0.00316128 -0.01695581 0.06779394
v 0.00364393 -0.01695893 0.06778772
v 0.00316128 -0.01707958 0.06754719
v 0.00316128 -0.01709726 0.06751111
v 0.00364393 -0.01705982 0.06758659
v 0.00316128 -0.01695893 0.06778813
v 0.00316128 -0.01701093 0.06768446
f 25 32 33
f 15 14 11
f 34 25 33
f 34 26 25
f 14 15 18
f 33 32 38
f 38 39 33
f 36 37 31
f 31 35 36
f 4 7 8
f 13 12 16
f 16 17 13
f 22 18 15
f 15 21 22
f 15 19 20
f 20 21 15
f 20 19 25
f 25 26 20
f 44 52 50
f 33 39 40
f 39 47 40
f 37 42 43
f 37 36 41
f 41 42 37
f 53 52 49
f 9 8 12
f 4 8 9
f 12 13 9
f 30 24 29
f 31 24 30
f 30 35 31
f 23 24 17
f 23 17 16
f 39 44 45
f 50 52 54
f 52 53 54
f 49 43 48
f 48 53 49
f 48 43 42
f 29 24 28
f 51 44 50
f 51 45 44
f 46 47 39
f 39 45 46
f 24 23 27
f 27 28 24
f 1 2 5
f 3 1 5
f 10 5 2
f 10 2 6
f 7 1 3
f 7 4 1
f 14 10 6
f 6 11 14
f 9 2 1
f 6 2 9
f 1 4 9
f 9 11 6
f 9 38 32
f 32 25 9
f 9 15 11
f 25 19 9
f 31 37 9
f 49 52 9
f 9 44 39
f 9 19 15
f 39 38 9
f 9 43 49
f 9 24 31
f 9 13 17
f 17 24 9
f 52 44 9
f 37 43 9
f 3 5 27
f 5 10 27
f 27 7 3
f 10 14 27
f 14 18 27
f 27 36 35
f 27 34 33
f 27 41 36
f 26 34 27
f 29 28 27
f 18 22 27
f 27 20 26
f 16 12 27
f 35 30 27
f 27 8 7
f 27 23 16
f 33 40 27
f 12 8 27
f 27 22 21
f 21 20 27
f 27 40 47
f 42 41 27
f 50 54 27
f 27 30 29
f 27 48 42
f 27 51 50
f 27 54 53
f 53 48 27
f 47 46 27
f 45 51 27
f 27 46 45

