# https://github.com/mikedh/trimesh
v 0.00316128 -0.01285419 0.06644975
v 0.00316128 -0.01285419 0.06281451
v 0.00266981 -0.01285419 0.06644975
v 0.00316128 -0.01733239 0.06644975
v 0.00266981 -0.01285419 0.06281451
v 0.00316128 -0.01735000 0.06281451
v 0.00266981 -0.01733107 0.06644975
v 0.00299081 -0.01733195 0.06644975
v 0.00266981 -0.01734384 0.06635438
v 0.00266981 -0.01735000 0.06630812
v 0.00316128 -0.01735000 0.06630812
v 0.00266981 -0.01735000 0.06281451
f 10 11 4
f 9 10 4
f 7 9 8
f 8 9 4
f 1 2 5
f 3 1 5
f 12 5 2
f 12 2 6
f 11 2 1
f 6 2 11
f 1 4 11
f 10 12 6
f 6 11 10
f 3 5 9
f 5 12 9
f 9 7 3
f 12 10 9
f 8 1 3
f 8 4 1
f 3 7 8

