# https://github.com/mikedh/trimesh
v 0.00095648 -0.01735000 0.06604215
v 0.00138817 -0.01735000 0.06604215
v 0.00095648 -0.01735000 0.06630816
v 0.00095648 -0.00332661 0.06604215
v 0.00138817 -0.01735000 0.06630816
v 0.00138817 -0.00332661 0.06604215
v 0.00095648 -0.01733490 0.06642350
v 0.00095648 -0.00332661 0.06645560
v 0.00138817 -0.01732941 0.06645560
v 0.00138817 -0.00332661 0.06645560
v 0.00095648 -0.01732941 0.06645560
f 7 5 9
f 9 11 7
f 5 7 3
f 1 4 6
f 6 2 1
f 2 6 10
f 10 5 2
f 9 5 10
f 10 6 4
f 4 8 10
f 8 11 10
f 10 11 9
f 3 4 1
f 3 8 4
f 3 11 8
f 3 7 11
f 1 2 3
f 2 5 3

