# https://github.com/mikedh/trimesh
v 0.00138817 -0.00722428 0.06820122
v 0.00266976 -0.00722428 0.06820122
v 0.00138817 -0.00722428 0.06887043
v 0.00138817 -0.00068988 0.06820122
v 0.00266976 -0.00722428 0.06887043
v 0.00266976 0.00002072 0.06820122
v 0.00138817 -0.00154302 0.06887043
v 0.00138817 -0.00084022 0.06836066
v 0.00205719 0.00002072 0.06820122
v 0.00266976 -0.00026153 0.06887043
v 0.00266976 0.00002072 0.06873994
v 0.00139231 -0.00153877 0.06887043
v 0.00138817 -0.00154161 0.06886978
v 0.00227108 0.00002072 0.06842768
v 0.00138817 -0.00098206 0.06849050
v 0.00263526 0.00002072 0.06872127
v 0.00138817 -0.00126857 0.06872127
f 10 11 12
f 15 17 14
f 14 17 16
f 8 15 14
f 8 9 4
f 8 14 9
f 13 16 17
f 7 12 13
f 11 16 13
f 13 12 11
f 5 3 1
f 1 2 5
f 9 2 1
f 9 6 2
f 1 4 9
f 11 5 2
f 2 6 11
f 11 10 5
f 3 5 12
f 5 10 12
f 12 7 3
f 6 9 16
f 16 11 6
f 9 14 16
f 1 3 13
f 13 4 1
f 3 7 13
f 13 8 4
f 17 15 13
f 15 8 13

