# https://github.com/mikedh/trimesh
v -0.00247527 -0.00388855 0.05870362
v -0.00247527 -0.00388855 0.05590005
v -0.00436470 -0.00507420 0.05870362
v -0.00247527 -0.01234710 0.05870362
v -0.00247527 -0.00393160 0.05564129
v -0.00436470 -0.00511063 0.05564129
v -0.00436470 -0.00507420 0.05590005
v -0.00436470 -0.01234710 0.05870362
v -0.00247527 -0.01234710 0.05490000
v -0.00247527 -0.00393409 0.05563608
v -0.00436470 -0.00521827 0.05540003
v -0.00436470 -0.01234710 0.05490000
v -0.00247527 -0.00513878 0.05490000
v -0.00247527 -0.00405663 0.05540003
v -0.00436470 -0.00538883 0.05519302
v -0.00436470 -0.00614725 0.05490000
v -0.00247527 -0.00481505 0.05493426
v -0.00247527 -0.00425534 0.05519302
v -0.00436470 -0.00561073 0.05503404
v -0.00436470 -0.00586988 0.05493426
v -0.00247527 -0.00451367 0.05503404
f 7 2 6
f 18 21 19
f 6 2 5
f 5 11 6
f 15 18 19
f 14 18 15
f 15 11 14
f 14 11 10
f 11 5 10
f 13 16 17
f 20 17 16
f 21 17 20
f 19 21 20
f 8 4 1
f 8 1 3
f 4 8 12
f 12 9 4
f 3 1 7
f 1 2 7
f 9 12 16
f 16 13 9
f 1 4 17
f 4 9 17
f 9 13 17
f 17 2 1
f 21 18 17
f 14 10 17
f 17 18 14
f 17 5 2
f 17 10 5
f 20 8 3
f 20 12 8
f 3 7 20
f 20 15 19
f 20 7 6
f 6 11 20
f 20 16 12
f 11 15 20

