# https://github.com/mikedh/trimesh
v 0.00058537 -0.00595956 0.06648395
v 0.00058537 -0.00595956 0.06529385
v 0.00005237 -0.00595956 0.06648395
v 0.00058537 -0.01732659 0.06648395
v 0.00005237 -0.00595956 0.06529385
v 0.00058537 -0.01735000 0.06529385
v 0.00005237 -0.01732659 0.06648395
v 0.00058537 -0.01732993 0.06645948
v 0.00005237 -0.01735000 0.06529385
v 0.00058537 -0.01735000 0.06630816
v 0.00005237 -0.01734108 0.06637584
v 0.00005237 -0.01735000 0.06630816
f 4 7 8
f 7 11 8
f 8 11 10
f 10 11 12
f 1 2 5
f 3 1 5
f 9 5 2
f 9 2 6
f 7 1 3
f 7 4 1
f 8 2 1
f 6 2 8
f 1 4 8
f 8 10 6
f 3 5 12
f 5 9 12
f 12 7 3
f 12 11 7
f 12 9 6
f 6 10 12

