# https://github.com/mikedh/trimesh
v 0.01199329 -0.01440100 0.03561885
v 0.01199329 -0.01440100 0.03560832
v 0.01179706 -0.01440100 0.03748856
v 0.01199174 -0.01440129 0.03748856
v 0.01219959 -0.01676822 0.03748856
v 0.01219959 -0.01676822 0.03560832
v 0.01209489 -0.01557495 0.03560000
v 0.01205611 -0.01513082 0.03560000
v 0.00427618 -0.01440100 0.03560832
v 0.00427618 -0.01440100 0.03748856
v 0.00778029 -0.01734913 0.03748856
v 0.01030018 -0.01701813 0.03560832
v 0.01030018 -0.01701813 0.03560000
v 0.01219882 -0.01676822 0.03560000
v 0.01096718 -0.01513082 0.03560000
v 0.00890800 -0.01656708 0.03560000
v 0.00427618 -0.01734913 0.03560832
v 0.00427618 -0.01734913 0.03748856
v 0.00778029 -0.01734913 0.03560832
v 0.00890800 -0.01720109 0.03560832
v 0.00890800 -0.01720109 0.03560000
f 1 3 4
f 5 1 4
f 6 13 14
f 5 11 12
f 9 15 16
f 19 17 21
f 7 8 2
f 2 6 7
f 7 6 14
f 20 12 11
f 2 3 1
f 9 10 2
f 2 10 3
f 3 10 11
f 5 4 11
f 11 4 3
f 10 18 11
f 17 10 9
f 17 18 10
f 17 11 18
f 19 11 17
f 6 2 1
f 6 1 5
f 12 6 5
f 13 6 12
f 9 2 8
f 8 15 9
f 21 17 9
f 9 16 21
f 13 21 7
f 14 13 7
f 15 8 7
f 7 16 15
f 7 21 16
f 20 11 19
f 19 21 20
f 13 12 20
f 20 21 13

