# https://github.com/mikedh/trimesh
v 0.00778041 0.01734971 0.04330042
v 0.00778350 0.01734942 0.04330042
v 0.00778041 0.01734971 0.04187767
v -0.00436470 0.01734971 0.04330042
v 0.00778350 0.01734942 0.04187767
v 0.00929681 0.01715054 0.04330042
v -0.00436470 0.01734971 0.04187767
v -0.00436470 0.01440141 0.04330042
v 0.00959948 0.01711071 0.04187767
v 0.01141082 0.01687257 0.04330042
v 0.01141082 0.01687257 0.04187767
v -0.00436470 0.01440141 0.04187767
v 0.01141082 0.01440141 0.04330042
v 0.01141082 0.01440141 0.04187767
f 10 11 6
f 9 6 11
f 5 2 6
f 6 9 5
f 4 1 7
f 7 1 3
f 10 13 11
f 11 13 14
f 12 13 8
f 14 13 12
f 12 8 4
f 4 7 12
f 2 1 4
f 4 8 2
f 2 13 10
f 8 13 2
f 10 6 2
f 5 7 3
f 5 11 14
f 14 12 5
f 5 12 7
f 5 9 11
f 3 1 5
f 1 2 5

