# https://github.com/mikedh/trimesh
v 0.01032368 -0.01455637 0.05720314
v 0.01032368 -0.01455637 0.05648113
v 0.00984435 -0.01455637 0.05720314
v 0.01032368 -0.01546019 0.05720314
v 0.00984435 -0.01455637 0.05648113
v 0.01032368 -0.01550994 0.05648113
v 0.00984435 -0.01550611 0.05720314
v 0.01032368 -0.01550994 0.05720307
v 0.00984435 -0.01550994 0.05648113
v 0.00984435 -0.01550994 0.05720307
f 4 7 8
f 8 7 10
f 1 2 5
f 3 1 5
f 4 2 1
f 4 8 6
f 6 2 4
f 4 1 3
f 3 7 4
f 3 5 9
f 9 7 3
f 9 10 7
f 9 5 2
f 9 2 6
f 6 8 9
f 8 10 9

