# https://github.com/mikedh/trimesh
v -0.00353878 0.01343275 0.06225113
v -0.00353878 0.01735000 0.06225113
v -0.00307119 0.01343275 0.06225113
v -0.00353878 0.01343275 0.06681795
v -0.00307119 0.01735000 0.06225113
v -0.00353878 0.01735000 0.06630784
v -0.00307119 0.01343275 0.06681795
v -0.00353878 0.01729785 0.06681795
v -0.00307119 0.01735000 0.06630784
v -0.00353878 0.01733735 0.06650500
v -0.00307119 0.01733620 0.06652333
v -0.00307119 0.01729862 0.06681795
v -0.00353878 0.01731894 0.06665790
v -0.00353878 0.01733543 0.06653093
v -0.00307119 0.01733505 0.06653763
v -0.00307119 0.01733274 0.06655686
v -0.00353878 0.01733390 0.06654345
f 13 8 12
f 16 15 14
f 16 13 12
f 9 6 11
f 14 15 11
f 17 16 14
f 13 16 17
f 14 11 10
f 10 11 6
f 1 2 5
f 5 3 1
f 1 3 7
f 7 4 1
f 4 7 8
f 8 7 12
f 6 5 2
f 6 9 5
f 3 5 11
f 11 7 3
f 12 7 11
f 5 9 11
f 11 16 12
f 15 16 11
f 10 2 1
f 1 4 10
f 4 8 10
f 8 13 10
f 10 6 2
f 10 17 14
f 13 17 10

