# https://github.com/mikedh/trimesh
v 0.00138817 -0.01735000 0.06069404
v 0.00266976 -0.01735000 0.06069404
v 0.00138817 -0.01735000 0.06121000
v 0.00138817 -0.00429305 0.06069404
v 0.00266976 -0.01735000 0.06121000
v 0.00266976 0.00002072 0.06069404
v 0.00138817 -0.00391558 0.06121000
v 0.00138992 -0.00002519 0.06069404
v 0.00266976 0.00002072 0.06121000
v 0.00139281 0.00002072 0.06069404
v 0.00139206 -0.00002179 0.06121000
v 0.00139281 0.00002072 0.06121000
f 8 4 7
f 7 11 8
f 11 12 8
f 8 12 10
f 5 3 1
f 1 2 5
f 1 3 4
f 3 7 4
f 8 2 1
f 8 6 2
f 8 10 6
f 1 4 8
f 3 5 9
f 9 7 3
f 9 11 7
f 9 12 11
f 9 5 2
f 2 6 9
f 6 10 9
f 10 12 9

