# https://github.com/mikedh/trimesh
v -0.00247504 0.00388925 0.02780498
v 0.00138878 0.00002436 0.02780498
v -0.00247504 0.00388925 0.03179914
v -0.00247504 0.00919381 0.02780498
v 0.00138878 0.00002436 0.03179963
v 0.00363469 0.00002436 0.02780498
v -0.00247504 0.00389014 0.03180598
v 0.00140134 0.00002436 0.03193115
v -0.00247504 0.00919381 0.03280000
v 0.00363469 0.00919381 0.02780498
v 0.00363469 0.00002436 0.03280000
v -0.00247504 0.00393143 0.03205877
v 0.00143722 0.00002436 0.03205877
v -0.00247504 0.00513775 0.03280000
v 0.00363469 0.00919381 0.03280000
v 0.00282903 0.00002436 0.03280000
v -0.00247504 0.00405619 0.03229981
v 0.00149703 0.00002436 0.03218296
v -0.00247504 0.00481463 0.03276577
v 0.00243488 0.00002436 0.03276529
v 0.00280092 0.00002436 0.03279951
v -0.00247504 0.00425545 0.03250664
v 0.00157838 0.00002436 0.03229981
v 0.00168185 0.00002436 0.03240934
v -0.00247504 0.00460909 0.03269732
v 0.00209395 0.00002436 0.03266505
v 0.00180327 0.00002436 0.03250664
v -0.00247504 0.00430392 0.03253695
v -0.00247504 0.00451395 0.03266554
f 27 22 24
f 14 20 21
f 19 20 14
f 17 24 22
f 17 12 18
f 18 12 13
f 14 21 16
f 20 19 26
f 23 17 18
f 24 17 23
f 8 13 12
f 12 7 8
f 8 3 5
f 8 7 3
f 27 26 29
f 25 26 19
f 25 29 26
f 28 22 27
f 27 29 28
f 1 4 2
f 2 10 6
f 4 10 2
f 15 10 4
f 4 9 15
f 6 10 15
f 15 11 6
f 1 2 3
f 2 5 3
f 16 15 9
f 11 15 16
f 9 14 16
f 8 2 6
f 6 11 8
f 11 16 8
f 8 5 2
f 8 23 18
f 27 24 8
f 8 26 27
f 8 21 20
f 18 13 8
f 8 16 21
f 20 26 8
f 24 23 8
f 28 4 1
f 28 9 4
f 28 14 9
f 3 7 28
f 1 3 28
f 28 17 22
f 28 19 14
f 12 17 28
f 28 7 12
f 28 25 19
f 29 25 28

