# https://github.com/mikedh/trimesh
v 0.01155871 -0.01440025 0.03981969
v 0.01148749 -0.01440025 0.04051047
v 0.01199205 -0.01440083 0.04051047
v 0.01199205 -0.01440083 0.03981969
v 0.00592947 -0.01440025 0.03981969
v 0.00592947 -0.01440025 0.04051047
v 0.01209525 -0.01557624 0.04051047
v 0.01209525 -0.01557624 0.03981969
v 0.00592947 -0.01518344 0.03981969
v 0.00592947 -0.01557624 0.04051047
v 0.00593248 -0.01557624 0.03981969
v 0.00592947 -0.01557624 0.03982524
f 1 2 3
f 1 3 4
f 11 12 9
f 6 10 7
f 7 3 6
f 6 3 2
f 6 1 5
f 6 2 1
f 4 3 7
f 7 8 4
f 7 10 12
f 12 11 8
f 12 8 7
f 5 1 9
f 1 4 9
f 8 11 9
f 9 4 8
f 9 6 5
f 10 6 9
f 9 12 10

