# https://github.com/mikedh/trimesh
v 0.02157251 -0.00700000 0.06069534
v 0.02105426 -0.00763843 0.06069534
v 0.02157251 -0.00700000 0.06059991
v 0.00993634 -0.00700000 0.06069534
v 0.02105426 -0.00763843 0.06059991
v 0.01908035 -0.00941293 0.06069534
v 0.02091302 -0.00700000 0.06008146
v 0.00993634 -0.00700000 0.05960000
v 0.00993634 -0.00959235 0.06069534
v 0.01895847 -0.00952245 0.06059991
v 0.02028428 -0.00700000 0.05960000
v 0.01895847 -0.00952245 0.06069534
v 0.00993634 -0.00959235 0.05960000
v 0.01086350 -0.01040054 0.06069534
v 0.01893227 -0.00954109 0.06069534
v 0.01770442 -0.01040054 0.06059991
v 0.01746522 -0.01040054 0.06046265
v 0.01621459 -0.01040054 0.05974508
v 0.01596172 -0.01040054 0.05960000
v 0.01838555 -0.00870327 0.05960000
v 0.01086350 -0.01040054 0.05960000
v 0.01770442 -0.01040054 0.06069534
f 5 10 11
f 20 10 19
f 11 10 20
f 10 16 17
f 22 16 15
f 10 12 15
f 15 16 10
f 7 3 5
f 7 5 11
f 6 12 10
f 5 2 6
f 10 5 6
f 19 10 18
f 10 17 18
f 13 9 4
f 4 8 13
f 14 9 13
f 13 21 14
f 8 11 20
f 19 21 20
f 20 13 8
f 21 13 20
f 2 3 1
f 5 3 2
f 4 1 7
f 7 8 4
f 7 11 8
f 1 3 7
f 4 9 6
f 6 1 4
f 6 9 14
f 14 22 6
f 6 2 1
f 22 15 6
f 6 15 12
f 18 22 14
f 14 21 18
f 18 21 19
f 18 16 22
f 18 17 16

