# https://github.com/mikedh/trimesh
v 0.01221970 -0.01067051 0.06464551
v 0.01261049 -0.01067051 0.06464551
v 0.01221970 -0.01067051 0.06529453
v 0.01221074 -0.01032076 0.06464551
v 0.01261049 -0.01016676 0.06464551
v 0.01261049 -0.01067051 0.06529453
v 0.01221074 -0.01032076 0.06529453
v 0.01221074 -0.01016676 0.06464551
v 0.01261049 -0.01016676 0.06529453
v 0.01221074 -0.01016676 0.06529453
f 6 1 2
f 3 1 6
f 8 5 2
f 8 1 4
f 2 1 8
f 4 1 7
f 7 1 3
f 7 8 4
f 10 8 7
f 3 6 9
f 10 7 9
f 9 7 3
f 5 8 9
f 9 8 10
f 2 5 9
f 9 6 2

