# https://github.com/mikedh/trimesh
v 0.01100183 -0.01550994 0.05667557
v 0.01100183 -0.01550994 0.05648113
v 0.01100183 -0.01511019 0.05664419
v 0.01097926 -0.01511019 0.05720130
v 0.01041722 -0.01550994 0.05719996
v 0.01032368 -0.01550994 0.05648113
v 0.01100183 -0.01511019 0.05648113
v 0.01074485 -0.01511019 0.05720314
v 0.01041955 -0.01550215 0.05720314
v 0.01041576 -0.01550477 0.05720314
v 0.01040846 -0.01550994 0.05720307
v 0.01032368 -0.01511019 0.05648113
v 0.01032368 -0.01550994 0.05720307
v 0.01032368 -0.01511019 0.05720314
v 0.01032368 -0.01546020 0.05720314
f 1 3 4
f 1 4 5
f 10 15 13
f 11 10 13
f 5 10 11
f 9 5 4
f 9 10 5
f 9 4 8
f 1 2 7
f 7 3 1
f 7 2 6
f 6 12 7
f 3 7 14
f 14 4 3
f 8 4 14
f 14 7 12
f 6 13 15
f 15 12 6
f 15 14 12
f 6 2 11
f 11 13 6
f 11 2 1
f 1 5 11
f 8 14 9
f 14 15 9
f 15 10 9

