# https://github.com/mikedh/trimesh
v 0.01189342 -0.01026604 0.06069545
v 0.01189342 -0.01026604 0.06179988
v 0.01189342 -0.00929367 0.06069545
v 0.01789661 -0.01026604 0.06069545
v 0.01215570 -0.01026604 0.06198921
v 0.01189342 -0.01000922 0.06198921
v 0.01189342 -0.00929367 0.06198921
v 0.01921306 -0.00929367 0.06069545
v 0.01884615 -0.00960152 0.06069545
v 0.01857239 -0.00979333 0.06198921
v 0.01789661 -0.01026604 0.06198921
v 0.01921306 -0.00929367 0.06198921
v 0.01908048 -0.00941323 0.06069545
v 0.01895866 -0.00952270 0.06069545
v 0.01895866 -0.00952270 0.06198921
f 5 6 2
f 8 12 13
f 10 11 4
f 9 10 4
f 14 10 9
f 15 10 14
f 14 13 15
f 15 13 12
f 1 4 2
f 2 11 5
f 4 11 2
f 7 3 1
f 1 2 7
f 7 2 6
f 8 3 7
f 7 12 8
f 9 3 8
f 1 3 9
f 9 4 1
f 8 13 9
f 9 13 14
f 5 11 15
f 15 6 5
f 12 7 15
f 15 7 6
f 11 10 15

