# https://github.com/mikedh/trimesh
v -0.00436470 0.01432922 0.05432757
v -0.00436470 0.01432922 0.05599567
v -0.00436470 0.01461533 0.05432757
v 0.01209464 0.01432922 0.05432757
v -0.00436470 0.01461533 0.05599567
v 0.01209464 0.01432922 0.05599567
v 0.01201086 0.01461533 0.05432757
v 0.01168541 0.01461533 0.05599567
v 0.01201086 0.01461533 0.05569993
v 0.01180785 0.01452982 0.05599567
f 10 9 8
f 6 9 10
f 1 3 7
f 7 4 1
f 1 4 6
f 6 2 1
f 5 3 1
f 1 2 5
f 9 7 3
f 3 5 9
f 9 5 8
f 4 7 9
f 9 6 4
f 2 6 10
f 8 5 10
f 10 5 2

