# https://github.com/mikedh/trimesh
v -0.00242556 -0.00749004 0.06959999
v -0.00296999 -0.00771564 0.06959999
v -0.00242556 -0.01053798 0.06959999
v -0.00242556 -0.00687385 0.06952429
v -0.00296999 -0.00740037 0.06956123
v -0.00296999 -0.01053798 0.06959999
v -0.00242556 -0.01053798 0.06650637
v -0.00242556 -0.00687385 0.06650637
v -0.00294729 -0.00687385 0.06949764
v -0.00296999 -0.00688353 0.06949764
v -0.00296999 -0.01053798 0.06650637
v -0.00296999 -0.00687385 0.06650637
v -0.00296999 -0.00687385 0.06949401
f 10 9 13
f 2 1 4
f 9 10 5
f 5 4 9
f 2 4 5
f 6 3 1
f 6 1 2
f 11 8 7
f 12 8 11
f 3 6 11
f 11 7 3
f 1 3 4
f 3 7 4
f 7 8 4
f 12 13 4
f 4 8 12
f 13 9 4
f 5 6 2
f 12 11 5
f 5 13 12
f 5 11 6
f 5 10 13

