# https://github.com/mikedh/trimesh
v 0.02167883 -0.00680593 0.06404855
v 0.02167512 -0.00680593 0.06431852
v 0.02162600 -0.00687895 0.06431852
v 0.02140079 -0.00721187 0.06431852
v 0.02141840 -0.00718993 0.06404855
v 0.01221074 -0.00680593 0.06404855
v 0.01221074 -0.00680593 0.06431852
v 0.02117002 -0.00749637 0.06431852
v 0.02123026 -0.00742184 0.06404855
v 0.01221074 -0.01032056 0.06404855
v 0.01221074 -0.01032056 0.06431852
v 0.02112368 -0.00755312 0.06404855
v 0.02105417 -0.00763862 0.06431852
v 0.02105417 -0.00763862 0.06404855
v 0.01222001 -0.01067051 0.06404855
v 0.01222001 -0.01067051 0.06431852
v 0.02086974 -0.00780471 0.06431852
v 0.02093277 -0.00774796 0.06404855
v 0.01731921 -0.01067051 0.06404855
v 0.01731921 -0.01067051 0.06431852
v 0.02081877 -0.00785048 0.06404855
v 0.02038596 -0.00823978 0.06431852
v 0.01752681 -0.01052523 0.06404855
v 0.01811069 -0.01011664 0.06431852
v 0.02025157 -0.00836047 0.06404855
v 0.01895870 -0.00952230 0.06431852
v 0.01920430 -0.00930173 0.06404855
v 0.01820893 -0.01004779 0.06404855
v 0.01895870 -0.00952230 0.06404855
f 29 24 28
f 23 28 24
f 23 24 20
f 23 20 19
f 26 24 29
f 27 25 22
f 22 26 27
f 27 26 29
f 22 25 21
f 8 13 14
f 8 9 5
f 22 21 17
f 12 8 14
f 9 8 12
f 4 8 5
f 4 5 1
f 18 17 21
f 13 17 18
f 14 13 18
f 1 2 3
f 3 4 1
f 7 1 6
f 7 2 1
f 6 10 7
f 7 10 11
f 16 10 15
f 11 10 16
f 15 19 16
f 19 20 16
f 18 10 6
f 6 1 18
f 18 19 15
f 15 10 18
f 1 5 18
f 18 23 19
f 18 12 14
f 29 28 18
f 5 9 18
f 28 23 18
f 18 27 29
f 25 27 18
f 18 21 25
f 9 12 18
f 2 7 3
f 3 7 11
f 11 16 3
f 20 24 3
f 3 16 20
f 24 26 3
f 3 26 22
f 22 17 3
f 13 8 3
f 3 17 13
f 8 4 3

