# https://github.com/mikedh/trimesh
v -0.00408375 -0.01426878 0.01663789
v -0.00408375 -0.01426878 0.02205483
v -0.00408375 -0.01319845 0.01663789
v 0.00360645 -0.01426878 0.01663789
v -0.00408375 -0.01319845 0.02205483
v 0.00360645 -0.01426878 0.02205483
v 0.00206706 -0.01319845 0.01663789
v 0.00360645 -0.01339250 0.01663789
v 0.00333320 -0.01319845 0.02205483
v 0.00360645 -0.01339240 0.02205483
v 0.00333320 -0.01319855 0.01663789
f 9 11 7
f 1 4 6
f 6 2 1
f 5 3 1
f 1 2 5
f 1 3 7
f 7 4 1
f 7 8 4
f 11 8 7
f 3 5 7
f 7 5 9
f 2 6 10
f 10 5 2
f 9 5 10
f 10 8 11
f 10 11 9
f 10 6 4
f 4 8 10

