# https://github.com/mikedh/trimesh
v 0.02164168 -0.00680556 0.06745150
v 0.02163557 -0.00680556 0.06804330
v 0.02125114 -0.00738270 0.06745150
v 0.01797503 -0.00680556 0.06745150
v 0.02122673 -0.00740937 0.06804330
v 0.01797503 -0.00680556 0.06804330
v 0.02115674 -0.00751273 0.06804330
v 0.02119551 -0.00746472 0.06745150
v 0.01797503 -0.01021172 0.06745150
v 0.01797503 -0.01021172 0.06804330
v 0.02105444 -0.00763843 0.06804330
v 0.02105444 -0.00763843 0.06745150
v 0.01835838 -0.00994333 0.06745150
v 0.01868897 -0.00971194 0.06804330
v 0.02101352 -0.00767544 0.06804330
v 0.02078415 -0.00788182 0.06804330
v 0.02096327 -0.00772045 0.06745150
v 0.01895926 -0.00952256 0.06745150
v 0.01895926 -0.00952256 0.06804330
v 0.01945963 -0.00907278 0.06745150
v 0.02050920 -0.00812888 0.06745150
f 1 2 3
f 14 10 9
f 14 18 19
f 12 8 7
f 7 11 12
f 8 3 7
f 13 14 9
f 18 14 13
f 5 3 2
f 5 7 3
f 20 16 19
f 19 18 20
f 12 11 15
f 15 16 12
f 16 20 21
f 12 16 17
f 16 21 17
f 6 2 1
f 6 1 4
f 10 6 4
f 4 9 10
f 2 6 15
f 6 10 15
f 10 14 15
f 19 16 15
f 15 14 19
f 11 7 15
f 15 5 2
f 7 5 15
f 4 1 17
f 17 9 4
f 1 3 17
f 17 8 12
f 17 3 8
f 17 13 9
f 18 13 17
f 17 20 18
f 17 21 20

