# https://github.com/mikedh/trimesh
v -0.00034738 -0.00208385 0.06771272
v -0.00034738 -0.00201422 0.06759487
v -0.00065654 -0.00239564 0.06771272
v -0.00034738 -0.01699675 0.06771272
v -0.00034738 -0.00199455 0.06756095
v -0.00090304 -0.00252580 0.06751108
v -0.00090304 -0.00264537 0.06771272
v -0.00090304 -0.01699675 0.06771272
v -0.00034738 -0.01700583 0.06769616
v -0.00034738 -0.00196730 0.06750409
v -0.00034738 -0.00190676 0.06737645
v -0.00090304 -0.00246223 0.06737645
v -0.00090304 -0.01700280 0.06770161
v -0.00090304 -0.01703610 0.06763599
v -0.00090304 -0.01707697 0.06755404
v -0.00034738 -0.01707697 0.06755338
v -0.00034738 -0.00184773 0.06717114
v -0.00090304 -0.00243802 0.06729289
v -0.00090304 -0.01709362 0.06751887
v -0.00034738 -0.01708453 0.06753749
v -0.00034738 -0.00180990 0.06696133
v -0.00063222 -0.00209596 0.06696133
v -0.00090304 -0.00241985 0.06722660
v -0.00090304 -0.01710572 0.06749195
v -0.00034738 -0.01710572 0.06749195
v -0.00034738 -0.01708908 0.06752785
v -0.00034738 -0.01726919 0.06696133
v -0.00090304 -0.00236991 0.06696133
v -0.00090304 -0.01711481 0.06746819
v -0.00034738 -0.01713297 0.06741794
v -0.00034738 -0.01725556 0.06702291
v -0.00090304 -0.01725102 0.06704358
v -0.00090304 -0.01726919 0.06696133
v -0.00090304 -0.01713297 0.06741883
v -0.00034738 -0.01715113 0.06736858
v -0.00034738 -0.01725102 0.06704299
v -0.00090304 -0.01724346 0.06707683
v -0.00090304 -0.01721621 0.06719056
v -0.00034738 -0.01719351 0.06725191
v -0.00034738 -0.01722983 0.06713568
v -0.00090304 -0.01722529 0.06715459
v -0.00034738 -0.01721621 0.06718872
f 6 7 3
f 10 11 6
f 6 5 10
f 6 11 12
f 2 3 1
f 2 5 6
f 6 3 2
f 28 23 22
f 23 17 22
f 22 17 21
f 11 17 18
f 18 12 11
f 18 17 23
f 42 39 38
f 32 33 27
f 40 42 38
f 38 39 35
f 41 40 38
f 37 40 41
f 37 32 36
f 36 40 37
f 9 4 8
f 19 24 25
f 38 35 34
f 31 32 27
f 31 36 32
f 26 19 25
f 16 9 15
f 25 24 29
f 16 15 20
f 20 15 19
f 19 26 20
f 14 15 9
f 25 29 30
f 13 9 8
f 13 14 9
f 3 7 8
f 3 4 1
f 8 4 3
f 22 21 27
f 27 33 22
f 22 33 28
f 27 21 30
f 1 4 30
f 11 10 30
f 30 2 1
f 21 17 30
f 30 10 5
f 30 17 11
f 5 2 30
f 30 35 39
f 39 42 30
f 4 9 30
f 42 40 30
f 30 31 27
f 16 20 30
f 40 36 30
f 30 9 16
f 36 31 30
f 30 26 25
f 30 20 26
f 30 29 34
f 30 34 35
f 13 7 6
f 33 32 13
f 8 7 13
f 28 33 13
f 13 23 28
f 6 12 13
f 13 18 23
f 13 41 38
f 12 18 13
f 13 32 37
f 38 34 13
f 37 41 13
f 24 19 13
f 13 29 24
f 19 15 13
f 34 29 13
f 15 14 13

