# https://github.com/mikedh/trimesh
v 0.00678203 0.01804859 0.03281924
v 0.00715312 0.01778918 0.03281924
v 0.00689117 0.01797272 0.02780420
v 0.00678203 0.01804859 0.02780420
v 0.00678203 0.01235000 0.03281924
v 0.00976893 0.01595771 0.03281924
v 0.01391786 0.01305291 0.02780420
v 0.00678203 0.01235000 0.02780420
v 0.01372067 0.01235000 0.03281924
v 0.01267871 0.01392039 0.03281924
v 0.01421546 0.01284427 0.03281924
v 0.01421546 0.01284427 0.02780420
v 0.01372067 0.01235000 0.02780420
v 0.01372868 0.01235781 0.02780420
f 2 3 1
f 1 3 4
f 11 9 14
f 14 9 13
f 14 12 11
f 3 2 6
f 7 6 10
f 3 6 7
f 7 10 11
f 11 12 7
f 8 9 5
f 13 9 8
f 8 5 1
f 1 4 8
f 6 2 1
f 1 5 6
f 6 9 11
f 5 9 6
f 11 10 6
f 13 8 7
f 7 4 3
f 7 14 13
f 7 8 4
f 12 14 7

