# https://github.com/mikedh/trimesh
v 0.01100190 -0.01511019 0.05648113
v 0.01100190 -0.01455637 0.05648113
v 0.01118375 -0.01511019 0.05648113
v 0.01100190 -0.01511019 0.05664419
v 0.01100190 -0.01455637 0.05720314
v 0.01177023 -0.01455637 0.05648113
v 0.01177016 -0.01455637 0.05720314
v 0.01100190 -0.01509436 0.05720130
v 0.01100686 -0.01511019 0.05663981
v 0.01100190 -0.01480059 0.05720314
f 6 7 3
f 8 3 7
f 10 7 5
f 10 8 7
f 8 4 9
f 3 8 9
f 2 5 7
f 6 2 7
f 3 2 6
f 1 2 3
f 4 5 2
f 4 2 1
f 4 10 5
f 8 10 4
f 1 3 9
f 9 4 1

