# https://github.com/mikedh/trimesh
v 0.00316128 -0.00002721 0.06900958
v 0.00316128 0.00002072 0.06900650
v 0.00266981 -0.00051828 0.06900958
v 0.00316128 -0.00921821 0.06900958
v 0.00316128 0.00002072 0.06716199
v 0.00266981 0.00002072 0.06873988
v 0.00266981 -0.00921821 0.06900958
v 0.00316128 -0.00921821 0.06716199
v 0.00266981 0.00002072 0.06716199
v 0.00266981 -0.00921821 0.06716199
f 3 1 2
f 2 6 3
f 7 4 1
f 7 1 3
f 4 7 8
f 8 7 10
f 1 4 2
f 4 8 2
f 2 8 5
f 9 7 3
f 3 6 9
f 10 7 9
f 5 8 9
f 9 8 10
f 9 2 5
f 6 2 9

