# https://github.com/mikedh/trimesh
v 0.00364809 0.01235019 0.05432784
v 0.00364809 0.01235019 0.05870362
v 0.00364809 0.01432922 0.05432784
v 0.01372102 0.01235019 0.05432784
v 0.00364809 0.01432922 0.05870362
v 0.01372102 0.01235019 0.05870362
v 0.01209392 0.01432922 0.05432784
v 0.01421546 0.01284422 0.05432784
v 0.01209392 0.01432922 0.05870362
v 0.01421546 0.01284422 0.05870362
f 7 4 1
f 1 3 7
f 8 4 7
f 5 3 1
f 1 2 5
f 5 7 3
f 9 7 5
f 1 4 6
f 6 2 1
f 10 5 2
f 9 5 10
f 2 6 10
f 8 7 10
f 10 7 9
f 10 4 8
f 10 6 4

