# https://github.com/mikedh/trimesh
v -0.00353883 0.01387341 0.06942817
v -0.00380784 0.01387341 0.06942703
v -0.00353883 0.01387341 0.06651598
v -0.00353883 0.01421855 0.06939824
v -0.00380784 0.01431857 0.06938855
v -0.00380784 0.01404869 0.06941193
v -0.00380784 0.01387341 0.06651598
v -0.00353883 0.01733667 0.06651598
v -0.00353883 0.01430975 0.06939026
v -0.00353883 0.01507191 0.06922093
v -0.00380784 0.01507394 0.06922065
v -0.00380784 0.01733667 0.06651598
v -0.00353883 0.01733565 0.06653137
v -0.00353883 0.01507631 0.06921979
v -0.00353883 0.01520040 0.06918502
v -0.00380784 0.01520718 0.06918302
v -0.00380784 0.01733565 0.06652767
v -0.00353883 0.01731904 0.06665823
v -0.00380784 0.01733464 0.06653593
v -0.00380784 0.01729294 0.06685520
v -0.00353883 0.01520718 0.06918302
v -0.00353883 0.01524821 0.06916506
v -0.00380784 0.01558894 0.06901369
v -0.00353883 0.01729361 0.06685121
v -0.00380784 0.01728276 0.06690823
v -0.00353883 0.01729226 0.06685891
v -0.00353883 0.01558928 0.06901341
v -0.00380784 0.01560046 0.06900856
v -0.00380784 0.01725361 0.06705817
v -0.00353883 0.01725022 0.06707527
v -0.00353883 0.01589610 0.06887658
v -0.00380784 0.01591068 0.06887002
v -0.00380784 0.01725022 0.06707527
v -0.00380784 0.01724852 0.06708040
v -0.00353883 0.01717902 0.06728964
v -0.00353883 0.01591068 0.06887002
v -0.00380784 0.01608868 0.06873006
v -0.00380784 0.01723327 0.06712630
v -0.00380784 0.01718546 0.06726997
v -0.00380784 0.01718004 0.06728622
v -0.00353883 0.01717461 0.06730076
v -0.00353883 0.01614835 0.06868302
v -0.00380784 0.01615309 0.06867903
v -0.00380784 0.01717699 0.06729391
v -0.00380784 0.01714952 0.06736204
v -0.00380784 0.01706273 0.06757527
v -0.00353883 0.01706409 0.06757185
v -0.00353883 0.01650705 0.06839283
v -0.00380784 0.01649790 0.06840024
v -0.00353883 0.01702917 0.06764511
v -0.00353883 0.01706070 0.06757926
v -0.00380784 0.01697221 0.06776341
v -0.00353883 0.01669182 0.06814796
v -0.00380784 0.01650705 0.06839283
v -0.00353883 0.01696475 0.06777881
v -0.00380784 0.01696475 0.06777881
v -0.00380784 0.01695831 0.06778764
v -0.00380784 0.01669013 0.06814996
v -0.00380784 0.01657113 0.06830788
f 2 1 6
f 1 5 6
f 16 11 15
f 15 21 16
f 4 5 1
f 4 9 5
f 10 11 5
f 5 9 10
f 22 23 16
f 16 21 22
f 49 43 42
f 49 42 48
f 49 48 54
f 42 43 37
f 37 36 42
f 32 36 37
f 31 36 32
f 14 15 11
f 11 10 14
f 58 59 53
f 53 59 54
f 54 48 53
f 28 31 32
f 8 12 13
f 58 53 57
f 57 53 55
f 57 55 56
f 52 50 46
f 55 50 52
f 56 55 52
f 51 47 46
f 46 50 51
f 31 28 27
f 27 28 23
f 23 22 27
f 26 25 30
f 29 33 30
f 30 25 29
f 24 18 20
f 20 26 24
f 25 26 20
f 20 18 13
f 34 35 30
f 30 33 34
f 46 47 41
f 19 20 13
f 40 41 35
f 17 13 12
f 17 19 13
f 39 40 35
f 46 41 45
f 35 34 38
f 38 39 35
f 41 40 44
f 44 45 41
f 7 3 1
f 7 1 2
f 3 7 12
f 8 3 12
f 1 3 41
f 41 3 8
f 21 15 41
f 48 42 41
f 41 22 21
f 41 10 9
f 15 14 41
f 42 36 41
f 41 4 1
f 9 4 41
f 36 31 41
f 41 26 30
f 8 13 41
f 41 53 48
f 47 51 41
f 41 14 10
f 41 18 24
f 55 53 41
f 41 50 55
f 41 27 22
f 30 35 41
f 41 51 50
f 31 27 41
f 13 18 41
f 24 26 41
f 44 7 2
f 44 12 7
f 16 23 44
f 44 28 32
f 2 6 44
f 44 11 16
f 32 37 44
f 44 6 5
f 5 11 44
f 54 59 44
f 44 57 56
f 44 49 54
f 33 29 44
f 43 49 44
f 44 37 43
f 46 45 44
f 44 59 58
f 23 28 44
f 44 52 46
f 58 57 44
f 56 52 44
f 44 29 25
f 25 20 44
f 44 34 33
f 20 19 44
f 44 17 12
f 19 17 44
f 40 39 44
f 44 38 34
f 39 38 44

