# https://github.com/mikedh/trimesh
v -0.00090065 0.00488035 0.05870362
v -0.00090065 0.01323361 0.05870362
v 0.00363504 0.00488035 0.05870362
v -0.00090065 0.00488035 0.06932801
v 0.00364527 0.01323361 0.05870362
v -0.00090065 0.01323361 0.06949227
v 0.00364527 0.01235535 0.05870362
v 0.00364527 0.00700485 0.05960063
v 0.00364527 0.00488035 0.06070029
v -0.00032129 0.00488035 0.06949760
v -0.00090065 0.00545931 0.06949760
v 0.00364527 0.01323361 0.06950933
v -0.00090065 0.01323280 0.06949333
v 0.00176389 0.01323361 0.06950293
v 0.00364527 0.00488035 0.06959999
v 0.00077693 0.00488035 0.06959999
v -0.00090065 0.00642997 0.06959999
v 0.00346861 0.01323361 0.06950933
v -0.00090065 0.01283455 0.06957119
v 0.00364527 0.01264811 0.06958399
v 0.00364527 0.01234963 0.06959999
v -0.00090065 0.01234963 0.06959999
v -0.00090065 0.01277486 0.06957546
v 0.00364527 0.01241669 0.06959893
v -0.00090065 0.01240769 0.06959893
f 8 9 3
f 10 16 17
f 7 8 3
f 4 10 11
f 11 10 17
f 19 12 18
f 13 19 18
f 22 21 24
f 6 13 14
f 14 13 18
f 22 24 25
f 12 19 20
f 23 20 19
f 24 20 23
f 23 25 24
f 1 3 10
f 10 4 1
f 10 9 15
f 3 9 10
f 15 16 10
f 7 2 5
f 1 2 7
f 7 3 1
f 21 16 15
f 21 22 17
f 17 16 21
f 5 2 14
f 2 6 14
f 14 12 5
f 18 12 14
f 15 9 20
f 5 12 20
f 20 7 5
f 9 8 20
f 8 7 20
f 20 21 15
f 20 24 21
f 23 2 1
f 1 4 23
f 17 22 23
f 23 6 2
f 23 11 17
f 4 11 23
f 23 13 6
f 19 13 23
f 22 25 23

