# https://github.com/mikedh/trimesh
v -0.00392760 0.02039921 0.03281855
v -0.00392760 0.02039921 0.02578740
v -0.00436466 0.02039921 0.03281855
v -0.00392760 0.01235052 0.03281855
v -0.00436466 0.02039921 0.02578740
v -0.00392760 0.01233948 0.02578740
v -0.00436466 0.01235052 0.03281855
v -0.00436466 0.01233948 0.03279997
v -0.00392760 0.01234027 0.03279997
v -0.00436466 0.01233948 0.02578740
v -0.00392760 0.01233948 0.03277519
f 7 8 4
f 8 11 9
f 4 8 9
f 1 2 5
f 3 1 5
f 10 5 2
f 10 2 6
f 11 10 6
f 11 8 10
f 3 5 7
f 5 10 7
f 10 8 7
f 7 1 3
f 7 4 1
f 9 2 1
f 6 2 9
f 1 4 9
f 9 11 6

