# https://github.com/mikedh/trimesh
v -0.00034734 -0.00344757 0.06350100
v -0.00034734 -0.00176099 0.06350100
v 0.00005237 -0.00344757 0.06350100
v -0.00034734 -0.00344757 0.06896184
v -0.00024345 -0.00165703 0.06350100
v -0.00034734 -0.00176099 0.06659965
v 0.00005237 -0.00136109 0.06350100
v 0.00005237 -0.00344757 0.06917917
v -0.00034734 -0.00300335 0.06872118
v 0.00005237 -0.00136109 0.06659965
v -0.00034734 -0.00177426 0.06674416
v 0.00005237 -0.00260366 0.06872118
v -0.00034734 -0.00297762 0.06870061
v 0.00005237 -0.00138090 0.06681308
v -0.00034734 -0.00178059 0.06681197
v 0.00005237 -0.00243537 0.06858556
v -0.00034734 -0.00287040 0.06861391
v 0.00005237 -0.00138458 0.06685199
v -0.00034734 -0.00178182 0.06681864
v 0.00005237 -0.00211656 0.06829320
v -0.00034734 -0.00252891 0.06830099
v 0.00005237 -0.00138601 0.06685977
v -0.00034734 -0.00184779 0.06717102
v 0.00005237 -0.00143666 0.06713100
v 0.00005237 -0.00139908 0.06692980
v 0.00005237 -0.00208388 0.06826319
v -0.00034734 -0.00245600 0.06823373
v -0.00034734 -0.00188761 0.06731275
v 0.00005237 -0.00149548 0.06733999
v 0.00005237 -0.00198626 0.06815981
v -0.00034734 -0.00242149 0.06819760
v -0.00034734 -0.00190558 0.06737612
v 0.00005237 -0.00150569 0.06737612
v 0.00005237 -0.00192968 0.06809978
v -0.00034734 -0.00232938 0.06809978
v -0.00034734 -0.00199402 0.06756065
v 0.00005237 -0.00161148 0.06759677
v 0.00005237 -0.00190538 0.06806532
v -0.00034734 -0.00229792 0.06805476
v -0.00034734 -0.00221419 0.06793471
v 0.00005237 -0.00167500 0.06770460
v 0.00005237 -0.00178937 0.06789858
f 5 10 7
f 6 5 2
f 10 5 6
f 36 33 32
f 26 27 21
f 17 16 21
f 9 4 8
f 8 12 9
f 10 6 11
f 31 27 26
f 33 36 37
f 26 21 20
f 20 21 16
f 12 16 13
f 13 9 12
f 13 16 17
f 10 11 14
f 14 11 15
f 15 18 14
f 19 23 24
f 24 25 19
f 19 25 22
f 22 18 19
f 19 18 15
f 28 29 24
f 24 23 28
f 33 29 28
f 32 33 28
f 30 31 26
f 34 31 30
f 40 37 36
f 42 40 38
f 35 31 34
f 34 38 35
f 41 40 42
f 37 40 41
f 39 38 40
f 39 35 38
f 1 3 4
f 3 8 4
f 5 7 3
f 5 3 1
f 1 2 5
f 3 7 41
f 41 8 3
f 7 10 41
f 41 12 8
f 22 25 41
f 10 14 41
f 33 37 41
f 26 20 41
f 41 29 33
f 41 30 26
f 41 16 12
f 41 18 22
f 24 29 41
f 41 25 24
f 42 38 41
f 41 20 16
f 41 14 18
f 34 30 41
f 41 38 34
f 39 2 1
f 1 4 39
f 39 21 27
f 39 6 2
f 39 11 6
f 39 36 32
f 4 9 39
f 39 19 15
f 17 21 39
f 27 31 39
f 15 11 39
f 39 13 17
f 32 28 39
f 9 13 39
f 23 19 39
f 39 28 23
f 39 40 36
f 31 35 39

