# https://github.com/mikedh/trimesh
v 0.00778068 0.01734971 0.04424863
v 0.00778068 0.01734971 0.04383905
v 0.00740880 0.01734971 0.04424863
v 0.00778396 0.01734942 0.04424863
v 0.00740880 0.01734971 0.04383905
v 0.00778396 0.01734942 0.04383905
v 0.00740880 0.01440141 0.04424863
v 0.00915893 0.01716873 0.04424863
v 0.00740880 0.01440141 0.04383905
v 0.00883582 0.01721116 0.04383905
v 0.01199232 0.01440141 0.04424863
v 0.00978872 0.01708588 0.04424863
v 0.01156886 0.01685179 0.04383905
v 0.01199232 0.01440141 0.04383905
v 0.01218975 0.01665608 0.04383905
v 0.01217005 0.01643122 0.04424863
v 0.01153744 0.01685583 0.04424863
v 0.01219959 0.01676865 0.04424863
v 0.01219959 0.01676865 0.04383905
f 18 19 13
f 15 11 14
f 15 19 18
f 16 15 18
f 11 15 16
f 18 13 17
f 13 12 17
f 8 6 4
f 8 12 13
f 10 8 13
f 6 8 10
f 2 5 1
f 1 5 3
f 9 11 7
f 14 11 9
f 9 7 3
f 3 5 9
f 6 1 4
f 2 1 6
f 8 16 18
f 3 7 8
f 8 1 3
f 7 11 8
f 4 1 8
f 18 17 8
f 11 16 8
f 8 17 12
f 10 15 14
f 10 5 2
f 14 9 10
f 10 9 5
f 10 13 19
f 19 15 10
f 2 6 10

