# https://github.com/mikedh/trimesh
v -0.00247729 0.01338244 0.05870467
v -0.00247729 0.01645854 0.05870467
v -0.00178597 0.01338244 0.05870467
v -0.00247729 0.01338244 0.06947399
v -0.00178597 0.01645854 0.05870467
v -0.00247729 0.01645854 0.06843101
v -0.00178597 0.01338244 0.06947715
v -0.00247729 0.01427583 0.06939700
v -0.00178597 0.01645854 0.06843101
v -0.00247729 0.01612913 0.06869782
v -0.00178597 0.01390607 0.06943180
v -0.00247729 0.01500661 0.06923460
v -0.00178597 0.01408583 0.06941598
v -0.00178597 0.01425354 0.06940122
v -0.00178597 0.01426318 0.06939911
v -0.00178597 0.01502257 0.06923038
v -0.00178597 0.01609601 0.06872418
v -0.00247729 0.01591023 0.06886971
v -0.00247729 0.01508580 0.06921667
v -0.00178597 0.01508369 0.06921667
v -0.00178597 0.01591023 0.06886971
v -0.00247729 0.01562990 0.06899521
v -0.00178597 0.01588343 0.06888237
v -0.00178597 0.01509212 0.06921456
v -0.00178597 0.01515144 0.06919874
v -0.00247729 0.01520685 0.06918292
v -0.00178597 0.01559226 0.06901208
v -0.00247729 0.01530019 0.06914179
v -0.00178597 0.01519962 0.06918503
v -0.00178597 0.01520685 0.06918292
v -0.00178597 0.01525924 0.06915972
f 8 4 7
f 26 19 25
f 11 8 7
f 21 17 18
f 29 30 26
f 26 25 29
f 13 14 8
f 8 11 13
f 8 16 12
f 8 14 15
f 15 16 8
f 19 12 20
f 20 12 16
f 21 18 23
f 27 23 22
f 22 23 18
f 10 18 17
f 9 6 10
f 10 17 9
f 24 25 19
f 19 20 24
f 27 22 28
f 28 31 27
f 30 31 28
f 26 30 28
f 1 2 5
f 5 3 1
f 1 3 4
f 3 7 4
f 6 5 2
f 6 9 5
f 3 5 24
f 24 7 3
f 5 9 24
f 21 23 24
f 14 13 24
f 9 17 24
f 24 11 7
f 30 29 24
f 24 15 14
f 24 17 21
f 24 31 30
f 24 29 25
f 24 13 11
f 16 15 24
f 24 20 16
f 27 31 24
f 24 23 27
f 28 2 1
f 1 4 28
f 4 8 28
f 28 6 2
f 28 19 26
f 8 12 28
f 28 10 6
f 28 12 19
f 28 22 18
f 18 10 28

