# https://github.com/mikedh/trimesh
v -0.00090304 -0.01102857 0.05870362
v -0.00034738 -0.01102857 0.05870362
v -0.00090304 -0.01102857 0.06180007
v -0.00090304 -0.00850000 0.05870362
v -0.00034738 -0.00850000 0.05870362
v -0.00034738 -0.01102857 0.06180007
v -0.00090304 -0.00850000 0.06180007
v -0.00034738 -0.00850000 0.05958087
v -0.00034738 -0.00850025 0.06180007
v -0.00071593 -0.00850000 0.06180007
f 8 10 9
f 1 4 5
f 5 2 1
f 1 2 6
f 6 3 1
f 7 4 1
f 1 3 7
f 3 6 10
f 10 6 9
f 10 7 3
f 2 5 8
f 8 6 2
f 9 6 8
f 8 5 4
f 4 7 8
f 7 10 8

