# https://github.com/mikedh/trimesh
v 0.02229850 0.00580210 0.06501963
v 0.02263481 0.00530495 0.06501963
v 0.02256000 0.00541580 0.06362688
v 0.02229850 0.00580210 0.06362688
v 0.01659047 0.00580210 0.06501963
v 0.02263481 0.00530495 0.06362688
v 0.02328250 0.00404231 0.06501963
v 0.02352974 0.00356079 0.06362688
v 0.02301103 0.00457187 0.06362688
v 0.01659047 0.00580210 0.06362688
v 0.01659047 0.00289849 0.06501963
v 0.02386891 0.00289849 0.06501963
v 0.02386891 0.00289849 0.06362688
v 0.01659047 0.00289849 0.06362688
f 4 1 3
f 12 13 8
f 2 6 3
f 3 1 2
f 6 2 9
f 9 2 8
f 12 8 7
f 8 2 7
f 5 1 4
f 4 10 5
f 12 11 14
f 14 13 12
f 14 11 5
f 5 10 14
f 9 4 3
f 3 6 9
f 13 14 9
f 10 4 9
f 9 14 10
f 9 8 13
f 7 11 12
f 5 11 7
f 7 1 5
f 7 2 1

