# https://github.com/mikedh/trimesh
v -0.00090065 0.01518476 0.06666640
v 0.00083160 0.01518476 0.06666640
v -0.00090065 0.01518476 0.06745360
v -0.00090065 0.01732046 0.06666640
v 0.00083160 0.01518476 0.06745360
v 0.00083160 0.01732214 0.06666640
v -0.00090065 0.01711480 0.06745360
v -0.00090065 0.01730101 0.06681411
v 0.00083160 0.01711627 0.06745360
v 0.00083160 0.01731691 0.06670608
v 0.00083160 0.01713300 0.06741253
v -0.00090065 0.01714932 0.06736868
v -0.00090065 0.01729745 0.06683284
v 0.00083160 0.01730059 0.06681750
v 0.00083160 0.01730582 0.06678976
v 0.00083160 0.01714305 0.06738779
v 0.00083160 0.01716104 0.06734333
v -0.00090065 0.01716815 0.06732199
v 0.00083160 0.01729682 0.06683700
v -0.00090065 0.01727151 0.06696638
v 0.00083160 0.01716962 0.06731775
v -0.00090065 0.01718196 0.06728061
v 0.00083160 0.01725456 0.06705391
v -0.00090065 0.01725059 0.06707348
v 0.00083160 0.01723573 0.06711848
v -0.00090065 0.01724054 0.06710415
v 0.00083160 0.01725079 0.06707248
v 0.00083160 0.01724201 0.06709953
f 6 4 8
f 11 7 9
f 24 27 23
f 23 20 24
f 19 20 23
f 28 27 24
f 21 18 17
f 7 11 12
f 17 18 12
f 13 20 19
f 6 8 10
f 8 15 10
f 26 21 25
f 25 28 26
f 26 28 24
f 17 12 16
f 16 12 11
f 14 13 19
f 8 13 14
f 14 15 8
f 18 21 22
f 21 26 22
f 5 3 1
f 1 2 5
f 4 2 1
f 4 6 2
f 3 5 7
f 5 9 7
f 14 5 2
f 2 6 14
f 14 9 5
f 14 21 17
f 14 23 27
f 14 11 9
f 27 28 14
f 6 10 14
f 19 23 14
f 17 16 14
f 14 28 25
f 25 21 14
f 14 10 15
f 14 16 11
f 1 3 22
f 22 4 1
f 22 8 4
f 22 13 8
f 3 7 22
f 24 20 22
f 7 12 22
f 22 12 18
f 20 13 22
f 22 26 24

