# https://github.com/mikedh/trimesh
v 0.00363529 0.01234549 0.05797823
v 0.00363529 0.01234549 0.05490422
v 0.00139847 0.01234549 0.05797823
v 0.00363529 0.00059127 0.05797823
v 0.00363485 0.01234549 0.05490030
v 0.00363529 0.00059127 0.05518176
v 0.00363507 0.00059127 0.05490030
v 0.00139847 0.01234549 0.05490030
v 0.00139847 0.00059127 0.05797823
v 0.00223649 0.00059127 0.05490030
v 0.00139847 0.00143004 0.05490030
v 0.00139847 0.00059127 0.05510522
v 0.00209634 0.00059127 0.05491326
v 0.00139847 0.00115620 0.05492562
v 0.00152942 0.00059127 0.05503410
v 0.00139847 0.00072244 0.05503410
v 0.00191766 0.00059127 0.05492984
v 0.00139847 0.00106416 0.05493435
v 0.00187058 0.00059127 0.05493435
f 5 2 7
f 6 7 2
f 14 17 18
f 16 15 12
f 18 15 16
f 18 17 19
f 19 15 18
f 13 14 11
f 11 10 13
f 17 14 13
f 9 1 3
f 9 4 1
f 1 2 8
f 3 1 8
f 8 2 5
f 6 2 1
f 1 4 6
f 10 8 5
f 10 11 8
f 5 7 10
f 16 9 3
f 3 8 16
f 16 14 18
f 16 12 9
f 8 11 16
f 11 14 16
f 4 9 13
f 13 6 4
f 7 6 13
f 9 12 13
f 12 15 13
f 13 10 7
f 13 19 17
f 15 19 13

