# https://github.com/mikedh/trimesh
v 0.00778049 0.01735000 0.06180665
v 0.00778049 0.01735000 0.06049999
v 0.00364527 0.01735000 0.06180665
v 0.00917353 0.01637446 0.06180665
v 0.00364527 0.01735000 0.06049999
v 0.00890458 0.01656264 0.06049999
v 0.00364527 0.01222339 0.06180665
v 0.00925092 0.01631976 0.06180665
v 0.00925202 0.01631926 0.06180191
v 0.00925202 0.01631926 0.06049999
v 0.00364527 0.01222540 0.06049999
v 0.00852202 0.01222339 0.06180665
v 0.00409590 0.01222339 0.06049999
v 0.00925202 0.01272722 0.06180665
v 0.00925202 0.01222339 0.06049999
v 0.00925202 0.01222339 0.06180000
v 0.00925202 0.01246326 0.06180665
f 8 14 9
f 7 11 13
f 4 8 9
f 9 10 4
f 10 6 4
f 4 6 2
f 2 1 4
f 17 12 16
f 11 7 3
f 3 5 11
f 2 5 1
f 1 5 3
f 13 10 15
f 13 5 2
f 2 6 13
f 13 11 5
f 13 6 10
f 15 16 13
f 13 12 7
f 16 12 13
f 17 10 9
f 9 14 17
f 15 10 17
f 17 16 15
f 17 1 3
f 3 7 17
f 14 8 17
f 7 12 17
f 8 4 17
f 17 4 1

