# https://github.com/mikedh/trimesh
v -0.00206969 -0.00453172 0.02583182
v -0.00209442 -0.00453172 0.02583317
v -0.00206969 -0.00450385 0.02583453
v -0.00206969 -0.00453172 0.03276886
v -0.00210604 -0.00453172 0.02583453
v -0.00206969 -0.00419030 0.02593436
v -0.00206969 -0.00450385 0.03276547
v -0.00210604 -0.00453172 0.03276547
v -0.00240108 -0.00453172 0.02590923
v -0.00246940 -0.00453172 0.02592689
v -0.00246940 -0.00450914 0.02593436
v -0.00206969 -0.00397575 0.02605049
v -0.00206969 -0.00419030 0.03266564
v -0.00212647 -0.00453172 0.03276071
v -0.00246940 -0.00453172 0.03267311
v -0.00246940 -0.00429776 0.02606407
v -0.00206969 -0.00389611 0.02609463
v -0.00206969 -0.00391067 0.02608580
v -0.00206969 -0.00418638 0.03266360
v -0.00246940 -0.00450914 0.03266564
v -0.00246940 -0.00425035 0.02609327
v -0.00207435 -0.00389611 0.02609802
v -0.00206969 -0.00389611 0.03230571
v -0.00206969 -0.00389741 0.03250673
v -0.00246940 -0.00444237 0.03262489
v -0.00246940 -0.00406797 0.02628342
v -0.00229309 -0.00389611 0.02630040
v -0.00207435 -0.00389611 0.03250197
v -0.00246940 -0.00425035 0.03250673
v -0.00246940 -0.00405179 0.02630040
v -0.00246940 -0.00392902 0.02653741
v -0.00243438 -0.00389611 0.02654148
v -0.00229082 -0.00389611 0.03230232
v -0.00246940 -0.00405179 0.03229960
v -0.00246940 -0.00392697 0.02654148
v -0.00246940 -0.00389611 0.02672891
v -0.00229488 -0.00389611 0.03229688
v -0.00246940 -0.00392697 0.03205852
v -0.00246940 -0.00389611 0.03187109
v -0.00243454 -0.00389611 0.03205784
v -0.00246940 -0.00392629 0.03205444
f 11 6 10
f 3 5 6
f 10 6 9
f 6 5 9
f 18 11 17
f 23 28 24
f 14 13 15
f 2 3 1
f 5 3 2
f 6 11 12
f 11 18 12
f 24 28 29
f 13 14 7
f 17 21 22
f 17 11 16
f 16 21 17
f 34 37 38
f 33 37 34
f 34 29 33
f 33 29 28
f 20 19 24
f 13 19 20
f 15 13 20
f 4 7 8
f 8 7 14
f 32 35 36
f 31 27 30
f 31 32 27
f 35 32 31
f 26 22 21
f 27 22 26
f 30 27 26
f 40 38 37
f 24 29 25
f 25 20 24
f 41 40 39
f 38 40 41
f 6 12 7
f 7 4 1
f 1 3 7
f 7 18 17
f 17 23 7
f 7 3 6
f 24 19 7
f 7 23 24
f 7 19 13
f 7 12 18
f 1 4 8
f 8 15 10
f 10 9 8
f 8 2 1
f 8 9 5
f 8 14 15
f 5 2 8
f 40 36 39
f 40 23 17
f 40 32 36
f 28 23 40
f 40 33 28
f 17 22 40
f 40 22 27
f 37 33 40
f 27 32 40
f 10 15 41
f 41 25 29
f 39 36 41
f 41 11 10
f 41 16 11
f 36 35 41
f 41 31 30
f 41 29 34
f 15 20 41
f 21 16 41
f 34 38 41
f 30 26 41
f 35 31 41
f 41 26 21
f 20 25 41

