# https://github.com/mikedh/trimesh
v 0.00928046 -0.01715259 0.05432769
v 0.00928046 -0.01550994 0.05432769
v 0.01017855 -0.01703455 0.05432769
v 0.00928046 -0.01715259 0.05719976
v 0.00928046 -0.01550994 0.05720314
v 0.01208930 -0.01550994 0.05432769
v 0.01219959 -0.01676874 0.05432769
v 0.01054658 -0.01698615 0.05719976
v 0.00928046 -0.01629983 0.05720286
v 0.01040857 -0.01550994 0.05720286
v 0.01208930 -0.01550994 0.05570025
v 0.01219959 -0.01676874 0.05570025
v 0.01041743 -0.01550994 0.05719976
f 7 8 3
f 1 3 4
f 4 3 8
f 9 4 8
f 12 8 7
f 13 12 11
f 8 12 13
f 8 13 10
f 5 9 10
f 10 9 8
f 1 2 3
f 3 6 7
f 2 6 3
f 9 2 1
f 9 5 2
f 1 4 9
f 7 6 12
f 6 11 12
f 10 6 2
f 2 5 10
f 10 11 6
f 10 13 11

