# https://github.com/mikedh/trimesh
v 0.00138839 -0.01735000 0.05870362
v 0.00364397 -0.01735000 0.05870362
v 0.00138839 -0.01735000 0.06026352
v 0.00138839 -0.00002689 0.05870362
v 0.00364397 -0.01735000 0.06026352
v 0.00364397 -0.01234929 0.05870362
v 0.00138839 -0.00002689 0.06026352
v 0.00139281 0.00002072 0.05870362
v 0.00364397 -0.00700000 0.06026352
v 0.00363514 0.00002072 0.05870362
v 0.00364397 -0.00700000 0.05959992
v 0.00139281 0.00002072 0.06026352
v 0.00363514 0.00002072 0.06026352
f 10 11 6
f 1 2 5
f 5 3 1
f 12 10 8
f 13 10 12
f 7 4 1
f 1 3 7
f 8 4 7
f 7 12 8
f 1 4 6
f 6 2 1
f 6 4 8
f 8 10 6
f 3 5 9
f 9 7 3
f 13 12 9
f 12 7 9
f 9 5 2
f 2 6 9
f 9 6 11
f 9 10 13
f 9 11 10

