# https://github.com/mikedh/trimesh
v 0.00287447 0.01233955 0.02580048
v 0.00287447 0.01265696 0.02578740
v 0.00363744 0.01233955 0.02580048
v 0.00287447 0.01233955 0.03279997
v 0.00287447 0.01311858 0.02578740
v 0.00326619 0.01311858 0.02578740
v 0.00363744 0.01311858 0.02580048
v 0.00363744 0.01233955 0.02778922
v 0.00363453 0.01233955 0.03279997
v 0.00363744 0.01235000 0.03281855
v 0.00287447 0.01235000 0.03281718
v 0.00287447 0.01311858 0.03281855
v 0.00363744 0.01311858 0.03281855
v 0.00287447 0.01235328 0.03281855
f 2 3 1
f 10 4 9
f 6 2 5
f 3 2 6
f 6 7 3
f 10 9 8
f 10 14 11
f 11 4 10
f 12 14 13
f 13 14 10
f 5 12 6
f 12 13 6
f 6 13 7
f 8 4 1
f 1 3 8
f 8 9 4
f 3 7 8
f 8 13 10
f 7 13 8
f 11 12 5
f 11 2 1
f 5 2 11
f 1 4 11
f 11 14 12

