# https://github.com/mikedh/trimesh
v -0.00155155 -0.00718206 0.05649817
v 0.00363477 -0.00718206 0.05649817
v -0.00155155 -0.00718206 0.05762864
v -0.00155155 -0.00296530 0.05649817
v 0.00363477 -0.00718206 0.05762864
v 0.00363477 -0.00076298 0.05649817
v -0.00155155 -0.00296530 0.05762864
v -0.00126062 -0.00267438 0.05649817
v 0.00363477 -0.00076298 0.05762864
v 0.00065093 -0.00076298 0.05649817
v 0.00065093 -0.00076298 0.05762864
f 4 7 8
f 10 8 11
f 11 8 7
f 5 3 1
f 1 2 5
f 9 5 2
f 2 6 9
f 1 3 7
f 7 4 1
f 8 2 1
f 8 6 2
f 1 4 8
f 8 10 6
f 3 5 11
f 5 9 11
f 11 7 3
f 11 9 6
f 6 10 11

