# https://github.com/mikedh/trimesh
v 0.00316128 -0.00249548 0.06959999
v 0.00316128 -0.00216013 0.06956879
v 0.00266981 -0.00298698 0.06959999
v 0.00316128 -0.01073258 0.06959999
v 0.00316128 -0.00157955 0.06951477
v 0.00266981 -0.00204904 0.06951269
v 0.00266981 -0.01073258 0.06959999
v 0.00316128 -0.01073258 0.06900982
v 0.00316128 -0.00139720 0.06949773
v 0.00266981 -0.00188870 0.06949773
v 0.00266981 -0.01073258 0.06900982
v 0.00316128 -0.00002644 0.06900982
v 0.00316128 -0.00129869 0.06946890
v 0.00266981 -0.00168958 0.06943949
v 0.00266981 -0.00051899 0.06900982
v 0.00266981 -0.00062169 0.06906580
v 0.00266981 -0.00086587 0.06919811
v 0.00316128 -0.00026853 0.06914097
v 0.00316128 -0.00057978 0.06925848
v 0.00266981 -0.00106499 0.06925652
v 0.00316128 -0.00037437 0.06919811
f 10 6 5
f 5 9 10
f 5 6 3
f 17 19 21
f 3 1 2
f 2 5 3
f 10 9 14
f 12 15 16
f 16 17 12
f 12 17 18
f 18 17 21
f 13 14 9
f 19 14 13
f 19 17 20
f 20 14 19
f 7 4 1
f 7 1 3
f 4 7 8
f 8 7 11
f 12 8 15
f 15 8 11
f 1 4 13
f 4 8 13
f 13 8 12
f 13 2 1
f 12 18 13
f 9 5 13
f 21 19 13
f 5 2 13
f 13 18 21
f 20 7 3
f 11 7 20
f 3 6 20
f 20 6 10
f 20 15 11
f 10 14 20
f 20 16 15
f 17 16 20

