# https://github.com/mikedh/trimesh
v 0.00363529 0.00059127 0.05797823
v 0.00139847 0.00059127 0.05797823
v 0.00363529 -0.00000278 0.05797823
v 0.00363529 0.00059127 0.05518176
v 0.00139847 0.00001524 0.05797823
v 0.00139847 0.00059127 0.05510522
v 0.00248940 -0.00000278 0.05797823
v 0.00363529 -0.00000278 0.05490030
v 0.00363507 0.00059127 0.05490030
v 0.00141293 -0.00000069 0.05797823
v 0.00139847 0.00001524 0.05590016
v 0.00141074 -0.00000278 0.05590016
v 0.00152942 0.00059127 0.05503410
v 0.00182504 -0.00000278 0.05519291
v 0.00139847 0.00042938 0.05519291
v 0.00282487 -0.00000278 0.05490030
v 0.00223649 0.00059127 0.05490030
v 0.00139847 0.00002757 0.05576878
v 0.00142300 -0.00000278 0.05576968
v 0.00187058 0.00059127 0.05493435
v 0.00245874 -0.00000278 0.05493435
v 0.00211780 -0.00000278 0.05503410
v 0.00170307 -0.00000278 0.05529145
v 0.00139847 0.00031687 0.05528391
v 0.00191766 0.00059127 0.05492984
v 0.00209634 0.00059127 0.05491326
v 0.00139847 0.00006345 0.05564131
v 0.00145891 -0.00000278 0.05564131
v 0.00160015 -0.00000278 0.05540023
v 0.00139847 0.00029971 0.05529958
v 0.00139847 0.00012107 0.05552137
v 0.00151847 -0.00000278 0.05551746
v 0.00139847 0.00020469 0.05540023
v 0.00139847 0.00012544 0.05551384
f 8 9 4
f 7 10 12
f 12 10 5
f 5 11 12
f 6 14 15
f 29 32 33
f 21 20 25
f 25 16 21
f 13 22 14
f 13 14 6
f 21 22 13
f 13 20 21
f 33 32 34
f 30 29 33
f 17 16 26
f 16 25 26
f 27 28 19
f 32 28 31
f 31 34 32
f 31 28 27
f 29 30 23
f 23 15 14
f 27 19 18
f 18 19 12
f 12 11 18
f 15 23 24
f 24 23 30
f 3 8 4
f 1 3 4
f 5 3 1
f 5 1 2
f 5 7 3
f 10 7 5
f 16 17 9
f 16 9 8
f 1 4 26
f 2 1 26
f 26 4 9
f 26 6 2
f 9 17 26
f 26 13 6
f 26 25 20
f 20 13 26
f 23 8 3
f 3 7 23
f 23 7 12
f 14 22 23
f 12 19 23
f 23 16 8
f 23 22 21
f 21 16 23
f 32 29 23
f 23 28 32
f 23 19 28
f 2 6 24
f 24 5 2
f 11 5 24
f 6 15 24
f 33 34 24
f 24 31 27
f 24 30 33
f 24 18 11
f 34 31 24
f 27 18 24

