# https://github.com/mikedh/trimesh
v -0.00138895 -0.01735000 0.05870466
v -0.00090304 -0.01735000 0.05870466
v -0.00138895 -0.01735000 0.06630677
v -0.00138895 -0.01442880 0.05870466
v -0.00090304 -0.01442880 0.05870466
v -0.00090304 -0.01735000 0.06630677
v -0.00090304 -0.01730997 0.06672800
v -0.00138895 -0.01730825 0.06673634
v -0.00138895 -0.01442880 0.06935657
v -0.00090304 -0.01444253 0.06935345
v -0.00090304 -0.01728766 0.06690109
v -0.00138895 -0.01729567 0.06683540
v -0.00138895 -0.01517197 0.06919288
v -0.00090304 -0.01497210 0.06923667
v -0.00090304 -0.01721646 0.06718991
v -0.00138895 -0.01721618 0.06719095
v -0.00138895 -0.01728652 0.06690526
v -0.00138895 -0.01729081 0.06687294
v -0.00138895 -0.01521229 0.06918036
v -0.00090304 -0.01523345 0.06917411
v -0.00090304 -0.01517740 0.06919079
v -0.00090304 -0.01710609 0.06749124
v -0.00138895 -0.01710609 0.06749124
v -0.00138895 -0.01525032 0.06916785
v -0.00138895 -0.01535211 0.06912823
v -0.00090304 -0.01543647 0.06909486
v -0.00090304 -0.01707892 0.06754858
v -0.00138895 -0.01707892 0.06754858
v -0.00138895 -0.01554798 0.06905107
v -0.00090304 -0.01555227 0.06904899
v -0.00090304 -0.01703575 0.06763513
v -0.00138895 -0.01701916 0.06766849
v -0.00138895 -0.01567266 0.06899998
v -0.00090304 -0.01559802 0.06903022
v -0.00090304 -0.01699772 0.06771124
v -0.00090304 -0.01697999 0.06774669
v -0.00138895 -0.01696998 0.06776650
v -0.00138895 -0.01578875 0.06893534
v -0.00090304 -0.01568438 0.06899372
v -0.00090304 -0.01696054 0.06778423
v -0.00138895 -0.01695425 0.06779570
v -0.00138895 -0.01600464 0.06879353
v -0.00090304 -0.01620022 0.06866528
v -0.00090304 -0.01578904 0.06893429
v -0.00090304 -0.01690479 0.06787181
v -0.00138895 -0.01688134 0.06790831
v -0.00138895 -0.01620794 0.06865903
v -0.00090304 -0.01624368 0.06863192
v -0.00090304 -0.01688448 0.06790309
v -0.00090304 -0.01675495 0.06810016
v -0.00138895 -0.01680042 0.06803134
v -0.00138895 -0.01627800 0.06860481
v -0.00090304 -0.01628086 0.06860272
v -0.00090304 -0.01669233 0.06817523
v -0.00138895 -0.01675495 0.06810016
v -0.00138895 -0.01633318 0.06855476
v -0.00090304 -0.01633747 0.06855059
v -0.00090304 -0.01655937 0.06831703
v -0.00138895 -0.01667317 0.06819713
v -0.00138895 -0.01636464 0.06852348
v -0.00090304 -0.01636035 0.06852765
v -0.00090304 -0.01648759 0.06839315
f 4 9 5
f 10 5 9
f 15 16 11
f 17 11 16
f 6 7 3
f 3 7 8
f 13 10 9
f 12 7 11
f 8 7 12
f 11 17 18
f 18 12 11
f 13 20 21
f 54 59 55
f 55 50 54
f 52 53 48
f 48 47 52
f 43 47 48
f 20 24 25
f 19 20 13
f 19 24 20
f 10 13 14
f 13 21 14
f 38 39 33
f 29 33 30
f 38 43 44
f 44 39 38
f 56 53 52
f 62 60 59
f 42 43 38
f 42 47 43
f 26 25 29
f 29 30 26
f 20 25 26
f 34 33 39
f 34 30 33
f 57 56 60
f 53 56 57
f 40 41 37
f 37 36 40
f 59 54 58
f 58 62 59
f 60 62 61
f 61 57 60
f 51 50 55
f 51 46 50
f 22 23 16
f 22 16 15
f 45 46 41
f 41 40 45
f 32 36 37
f 27 32 28
f 50 46 49
f 46 45 49
f 32 27 31
f 36 32 35
f 32 31 35
f 1 4 5
f 5 2 1
f 1 2 3
f 2 6 3
f 32 4 1
f 32 9 4
f 32 17 16
f 32 13 9
f 1 3 32
f 32 33 29
f 16 23 32
f 32 3 8
f 32 18 17
f 8 12 32
f 32 19 13
f 52 47 32
f 55 59 32
f 12 18 32
f 29 25 32
f 59 60 32
f 32 56 52
f 32 42 38
f 32 25 24
f 24 19 32
f 38 33 32
f 60 56 32
f 37 41 32
f 47 42 32
f 41 46 32
f 32 51 55
f 46 51 32
f 23 28 32
f 27 28 23
f 23 22 27
f 2 5 35
f 35 6 2
f 5 10 35
f 15 11 35
f 35 61 62
f 35 7 6
f 11 7 35
f 35 44 43
f 10 14 35
f 35 48 53
f 35 21 20
f 35 34 39
f 35 54 50
f 43 48 35
f 35 14 21
f 20 26 35
f 39 44 35
f 53 57 35
f 35 22 15
f 35 26 30
f 30 34 35
f 35 58 54
f 35 40 36
f 62 58 35
f 57 61 35
f 50 49 35
f 35 45 40
f 35 27 22
f 35 49 45
f 35 31 27

