# https://github.com/mikedh/trimesh
v 0.01096706 -0.01513066 0.03560816
v 0.01096706 -0.01557476 0.03560816
v 0.01096706 -0.01513066 0.03559999
v 0.01030094 -0.01513066 0.03560816
v 0.01096706 -0.01557476 0.03559999
v 0.01030094 -0.01557476 0.03560816
v 0.01095004 -0.01513066 0.03533850
v 0.01030094 -0.01513066 0.03533712
v 0.01031587 -0.01557476 0.03533946
v 0.01030094 -0.01557476 0.03533712
f 8 7 10
f 3 5 7
f 9 10 7
f 7 5 9
f 6 2 1
f 6 1 4
f 10 6 4
f 4 8 10
f 4 1 3
f 3 8 4
f 3 7 8
f 1 2 3
f 2 5 3
f 2 6 9
f 6 10 9
f 9 5 2

