# https://github.com/mikedh/trimesh
v -0.00178597 0.00319943 0.05870362
v -0.00247560 0.00388920 0.05870362
v -0.00178597 0.01338244 0.05870362
v -0.00178597 0.00319943 0.06519921
v -0.00247560 0.00388920 0.06659965
v -0.00247729 0.00389119 0.05870362
v -0.00247729 0.01338244 0.05870362
v -0.00178597 0.01338244 0.06947627
v -0.00178597 0.00320043 0.06660072
v -0.00247729 0.00389119 0.06659965
v -0.00247729 0.00401878 0.06737613
v -0.00247729 0.01338244 0.06947413
v -0.00186426 0.01338244 0.06947627
v -0.00247729 0.01289901 0.06956693
v -0.00178597 0.01287010 0.06956906
v -0.00178597 0.00332702 0.06731427
v -0.00178597 0.00334496 0.06737613
v -0.00247729 0.00404569 0.06742840
v -0.00247729 0.01240361 0.06959893
v -0.00178597 0.01240561 0.06959893
v -0.00178597 0.00374267 0.06806302
v -0.00247729 0.00439356 0.06809929
v -0.00247729 0.01234979 0.06959999
v -0.00178597 0.01234979 0.06959999
v -0.00178597 0.00376859 0.06809929
v -0.00247729 0.00456600 0.06827954
v -0.00247729 0.00751146 0.06959999
v -0.00178597 0.00710976 0.06959999
v -0.00178597 0.00443642 0.06871578
v -0.00247729 0.00498863 0.06872112
v -0.00247729 0.00666919 0.06949760
v -0.00178597 0.00613891 0.06949760
v -0.00178597 0.00444240 0.06872112
v -0.00247729 0.00576512 0.06919789
v -0.00178597 0.00523484 0.06919789
f 11 10 5
f 21 25 22
f 22 17 21
f 5 4 9
f 9 11 5
f 13 12 14
f 14 8 13
f 18 17 22
f 18 11 17
f 17 11 16
f 11 9 16
f 32 28 27
f 27 31 32
f 8 14 15
f 14 19 15
f 20 15 19
f 23 24 20
f 20 19 23
f 22 25 26
f 25 30 26
f 33 35 34
f 34 30 33
f 29 30 25
f 29 33 30
f 2 3 1
f 6 7 2
f 2 7 3
f 6 2 10
f 10 2 5
f 4 2 1
f 5 2 4
f 3 7 8
f 7 12 8
f 8 12 13
f 27 28 24
f 27 24 23
f 31 34 35
f 32 31 35
f 26 7 6
f 6 10 26
f 26 27 23
f 23 19 26
f 26 12 7
f 10 11 26
f 26 18 22
f 26 14 12
f 11 18 26
f 26 34 31
f 31 27 26
f 26 19 14
f 26 30 34
f 1 3 29
f 29 9 4
f 3 8 29
f 29 4 1
f 25 21 29
f 29 20 24
f 17 16 29
f 29 21 17
f 24 28 29
f 29 28 32
f 29 16 9
f 8 15 29
f 32 35 29
f 15 20 29
f 35 33 29

