# https://github.com/mikedh/trimesh
v 0.01201959 0.01438165 0.05432741
v 0.01199227 0.01440113 0.05432741
v 0.01201959 0.01235020 0.05432741
v 0.01201959 0.01438165 0.04459295
v 0.00765917 0.01440113 0.05432741
v 0.01199227 0.01440113 0.04459295
v 0.00765917 0.01235020 0.05432741
v 0.01201959 0.01235020 0.04459295
v 0.00765917 0.01440113 0.04459295
v 0.00765917 0.01235020 0.04459295
f 7 3 1
f 7 2 5
f 1 2 7
f 9 7 5
f 10 7 9
f 1 3 8
f 8 4 1
f 3 7 8
f 8 7 10
f 10 9 6
f 6 8 10
f 4 8 6
f 6 2 1
f 1 4 6
f 5 2 6
f 6 9 5

