# https://github.com/mikedh/trimesh
v 0.00138817 -0.00426829 0.06959999
v 0.00138817 -0.00317278 0.06949659
v 0.00058537 -0.00397321 0.06949659
v 0.00058537 -0.00496697 0.06958921
v 0.00058537 -0.00626768 0.06959999
v 0.00138817 -0.01238288 0.06959936
v 0.00138817 -0.00270981 0.06936274
v 0.00058537 -0.00366627 0.06940715
v 0.00058537 -0.01237949 0.06959936
v 0.00058537 -0.01259317 0.06958667
v 0.00138817 -0.01287298 0.06956701
v 0.00138817 -0.00214679 0.06919781
v 0.00058537 -0.00289805 0.06916863
v 0.00058537 -0.01288655 0.06956637
v 0.00058537 -0.01376839 0.06949532
v 0.00138817 -0.01377517 0.06949342
v 0.00058537 -0.00251818 0.06896373
v 0.00138817 -0.00126835 0.06872077
v 0.00058537 -0.01424322 0.06939954
v 0.00138817 -0.01421439 0.06940524
v 0.00058537 -0.00224346 0.06881338
v 0.00138817 -0.00091222 0.06842516
v 0.00058537 -0.00185680 0.06854759
v 0.00058537 -0.00204165 0.06869603
v 0.00058537 -0.01506570 0.06921620
v 0.00138817 -0.01520476 0.06918258
v 0.00058537 -0.00139723 0.06809973
v 0.00058537 -0.00163465 0.06834332
v 0.00138817 -0.00059510 0.06809973
v 0.00058537 -0.01536078 0.06912295
v 0.00138817 -0.01547440 0.06907918
v 0.00058537 -0.00122426 0.06785042
v 0.00138817 -0.00035259 0.06774702
v 0.00058537 -0.01568977 0.06898657
v 0.00138817 -0.01569825 0.06898276
v 0.00058537 -0.00111572 0.06766646
v 0.00138817 -0.00017114 0.06737529
v 0.00058537 -0.01592041 0.06884701
v 0.00138817 -0.01607982 0.06874297
v 0.00058537 -0.00095801 0.06732137
v 0.00138817 -0.00006430 0.06699087
v 0.00058537 -0.01626297 0.06861356
v 0.00138817 -0.01626127 0.06861610
v 0.00058537 -0.00089017 0.06707714
v 0.00138817 -0.00002530 0.06659883
v 0.00058537 -0.00085287 0.06685892
v 0.00058537 -0.01653261 0.06834459
v 0.00138817 -0.01666827 0.06819615
v 0.00138817 -0.00002530 0.06311936
v 0.00058537 -0.00082912 0.06659883
v 0.00058537 -0.01676833 0.06807372
v 0.00138817 -0.01693621 0.06782378
v 0.00058537 -0.00082912 0.06311936
v 0.00138817 -0.01735000 0.06311936
v 0.00058537 -0.01697861 0.06774575
v 0.00138817 -0.01706679 0.06756940
v 0.00058537 -0.01735000 0.06311936
v 0.00138817 -0.01735000 0.06630829
v 0.00058537 -0.01711089 0.06747171
v 0.00138817 -0.01721264 0.06719767
v 0.00058537 -0.01735000 0.06630829
v 0.00138817 -0.01730252 0.06679168
v 0.00058537 -0.01721773 0.06718435
v 0.00058537 -0.01730082 0.06680183
f 4 1 3
f 3 1 2
f 1 4 5
f 6 5 9
f 1 5 6
f 3 2 7
f 34 35 31
f 33 36 32
f 29 32 27
f 33 32 29
f 12 13 8
f 8 7 12
f 3 7 8
f 12 18 17
f 17 13 12
f 26 25 30
f 30 31 26
f 34 31 30
f 20 25 26
f 16 15 20
f 10 6 9
f 11 14 15
f 11 15 16
f 11 10 14
f 6 10 11
f 64 62 63
f 61 62 64
f 58 62 61
f 38 35 34
f 22 29 27
f 23 18 22
f 24 18 23
f 19 20 15
f 25 20 19
f 63 62 60
f 39 38 42
f 35 38 39
f 23 22 28
f 28 22 27
f 21 17 18
f 18 24 21
f 44 41 46
f 46 45 50
f 46 41 45
f 37 36 33
f 56 55 59
f 59 60 56
f 63 60 59
f 51 48 47
f 51 55 52
f 52 48 51
f 52 55 56
f 43 39 42
f 42 47 43
f 43 47 48
f 40 37 41
f 40 41 44
f 36 37 40
f 57 49 54
f 57 53 49
f 49 53 45
f 53 50 45
f 58 57 54
f 58 61 57
f 54 49 43
f 49 45 43
f 43 11 16
f 43 31 35
f 12 7 43
f 43 2 1
f 1 6 43
f 33 29 43
f 16 20 43
f 43 7 2
f 43 18 12
f 43 22 18
f 26 31 43
f 43 58 54
f 43 60 62
f 43 20 26
f 6 11 43
f 62 58 43
f 35 39 43
f 29 22 43
f 45 41 43
f 56 60 43
f 43 37 33
f 43 52 56
f 41 37 43
f 48 52 43
f 57 61 40
f 53 57 40
f 9 5 40
f 40 4 3
f 40 64 63
f 40 50 53
f 40 32 36
f 34 30 40
f 40 38 34
f 40 5 4
f 51 47 40
f 40 10 9
f 40 19 15
f 40 46 50
f 3 8 40
f 40 24 23
f 15 14 40
f 63 59 40
f 27 32 40
f 40 8 13
f 13 17 40
f 17 21 40
f 40 30 25
f 14 10 40
f 61 64 40
f 42 38 40
f 23 28 40
f 25 19 40
f 40 55 51
f 40 28 27
f 40 21 24
f 44 46 40
f 40 59 55
f 40 47 42

