# https://github.com/mikedh/trimesh
v 0.01255543 -0.01023237 0.02578671
v 0.01389393 -0.00920004 0.02578671
v 0.01794533 -0.01023237 0.02578671
v 0.00744757 -0.01023237 0.02580011
v 0.00678203 -0.00958167 0.02580011
v 0.00678203 -0.00919557 0.02580011
v 0.01941992 -0.00920004 0.02578671
v 0.01794533 -0.01023237 0.02660003
v 0.00744757 -0.01023237 0.02780000
v 0.00678203 -0.00958167 0.02780000
v 0.00678203 -0.00919557 0.02780000
v 0.00863639 -0.00919557 0.02580011
v 0.01941992 -0.00920004 0.02660003
v 0.01755195 -0.01023237 0.02682568
v 0.01585221 -0.01023237 0.02780000
v 0.00863639 -0.00919557 0.02780000
v 0.01732680 -0.00920004 0.02780000
v 0.01614540 -0.01023237 0.02763229
f 5 1 4
f 6 1 5
f 6 2 1
f 18 17 15
f 13 16 17
f 17 18 13
f 8 13 14
f 14 13 18
f 10 4 9
f 5 4 10
f 5 10 6
f 6 10 11
f 3 2 7
f 1 2 3
f 7 2 12
f 2 6 12
f 9 15 16
f 16 10 9
f 11 10 16
f 15 17 16
f 16 6 11
f 16 12 6
f 13 3 7
f 13 8 3
f 7 12 13
f 12 16 13
f 9 4 14
f 14 4 1
f 14 15 9
f 1 3 14
f 3 8 14
f 14 18 15

