# https://github.com/mikedh/trimesh
v 0.00861108 0.01724077 0.03564450
v 0.00861108 0.01724077 0.03559999
v 0.00861108 0.01677229 0.03564590
v 0.00932939 0.01714627 0.03564479
v 0.00932939 0.01714627 0.03559999
v 0.00861108 0.01676846 0.03534637
v 0.00861108 0.01660938 0.03564590
v 0.00884389 0.01660938 0.03564590
v 0.00932939 0.01660938 0.03564479
v 0.00932939 0.01660938 0.03559999
v 0.00883826 0.01660938 0.03534637
v 0.00861108 0.01660938 0.03534637
f 3 4 1
f 2 5 6
f 8 3 7
f 4 3 8
f 8 9 4
f 11 5 10
f 6 5 11
f 11 12 6
f 9 5 4
f 10 5 9
f 2 3 1
f 2 12 7
f 7 3 2
f 6 12 2
f 4 5 2
f 1 4 2
f 11 8 7
f 10 9 11
f 7 12 11
f 9 8 11

