# https://github.com/mikedh/trimesh
v 0.00709820 -0.01025805 0.06136170
v 0.00709820 -0.01025805 0.06198921
v 0.00709820 -0.00991101 0.06136170
v 0.00789070 -0.01025805 0.06136170
v 0.00709820 -0.00991146 0.06198921
v 0.00756695 -0.01025805 0.06198921
v 0.00709820 -0.00991101 0.06198583
v 0.00789070 -0.00991101 0.06136170
v 0.00789070 -0.01025805 0.06179996
v 0.00710254 -0.00991101 0.06198921
v 0.00763312 -0.00991101 0.06198921
v 0.00789070 -0.00991101 0.06179996
f 11 9 12
f 9 11 6
f 10 7 5
f 1 3 8
f 8 4 1
f 4 8 9
f 9 8 12
f 7 3 1
f 1 2 7
f 2 5 7
f 1 4 6
f 6 2 1
f 4 9 6
f 10 8 3
f 12 8 10
f 3 7 10
f 10 11 12
f 10 5 2
f 2 6 10
f 10 6 11

