# https://github.com/mikedh/trimesh
v 0.00300432 0.00487953 0.06959999
v 0.00077663 0.00487953 0.06959999
v 0.00300432 0.00394361 0.06959999
v 0.00300432 0.00487953 0.06069279
v 0.00171238 0.00394361 0.06959999
v 0.00041461 0.00487953 0.06956599
v 0.00041461 0.00424190 0.06950670
v 0.00300432 0.00394361 0.06069279
v 0.00041461 0.00487953 0.06069279
v 0.00070387 0.00394361 0.06950583
v 0.00041461 0.00414369 0.06949711
v 0.00041461 0.00394361 0.06069279
v 0.00061463 0.00394361 0.06949711
v 0.00041461 0.00411529 0.06948926
v 0.00057965 0.00394361 0.06948752
v 0.00041461 0.00394361 0.06943869
f 7 2 6
f 7 5 2
f 5 7 10
f 7 11 10
f 10 11 13
f 13 11 15
f 16 15 14
f 14 15 11
f 1 4 9
f 6 2 9
f 9 2 1
f 8 4 1
f 1 3 8
f 8 9 4
f 12 9 8
f 1 2 5
f 5 3 1
f 15 16 12
f 15 8 3
f 12 8 15
f 3 5 15
f 5 10 15
f 15 10 13
f 6 9 14
f 14 9 12
f 12 16 14
f 14 7 6
f 14 11 7

