# https://github.com/mikedh/trimesh
v 0.01221074 -0.01032056 0.06198995
v 0.01221074 -0.00680593 0.06198995
v 0.01222003 -0.01067051 0.06198995
v 0.01221074 -0.01032056 0.06959999
v 0.01221074 -0.00680593 0.06959999
v 0.02169443 -0.00680593 0.06198995
v 0.01222003 -0.01067051 0.06959999
v 0.01731927 -0.01067051 0.06198995
v 0.02161830 -0.00680593 0.06959999
v 0.02169443 -0.00680593 0.06260680
v 0.02161088 -0.00693797 0.06198995
v 0.01731927 -0.01067051 0.06959999
v 0.01895868 -0.00952230 0.06198995
v 0.02105389 -0.00763862 0.06959999
v 0.02155332 -0.00702347 0.06198995
v 0.01895868 -0.00952230 0.06959999
v 0.02073083 -0.00792918 0.06198995
v 0.02105389 -0.00763862 0.06198995
f 9 14 10
f 14 15 10
f 15 11 10
f 10 11 6
f 18 15 14
f 17 14 16
f 16 13 17
f 17 18 14
f 1 4 5
f 5 2 1
f 3 4 1
f 3 7 4
f 12 5 4
f 12 9 5
f 4 7 12
f 12 14 9
f 16 14 12
f 12 3 8
f 7 3 12
f 8 13 12
f 12 13 16
f 2 5 10
f 6 2 10
f 5 9 10
f 1 2 17
f 17 2 6
f 17 3 1
f 8 3 17
f 17 13 8
f 6 11 17
f 17 11 15
f 15 18 17

