# https://github.com/mikedh/trimesh
v 0.01168598 0.01461541 0.05667978
v 0.01138172 0.01482846 0.05667978
v 0.01110104 0.01461541 0.05667978
v 0.01168598 0.01461541 0.05606428
v 0.01164911 0.01511918 0.05606428
v 0.01110104 0.01502493 0.05667978
v 0.01110104 0.01461541 0.05606428
v 0.01110104 0.01511918 0.05606428
v 0.01159059 0.01511918 0.05611682
v 0.01144379 0.01511918 0.05624852
v 0.01110104 0.01511918 0.05655591
f 4 5 1
f 1 5 2
f 5 6 2
f 10 11 6
f 9 6 5
f 9 10 6
f 7 4 1
f 7 1 3
f 3 1 2
f 2 6 3
f 4 7 8
f 5 4 8
f 11 7 3
f 3 6 11
f 11 8 7
f 5 8 9
f 8 11 9
f 11 10 9

