# https://github.com/mikedh/trimesh
v -0.00195130 -0.01234710 0.05816164
v 0.00363474 -0.01234710 0.05816164
v -0.00195130 -0.01234710 0.05870362
v -0.00195130 -0.00336557 0.05816164
v 0.00363474 -0.01234710 0.05870362
v 0.00363474 -0.00000278 0.05816164
v -0.00195130 -0.00336557 0.05870362
v -0.00165326 -0.00306711 0.05816164
v 0.00363474 -0.00000278 0.05870362
v 0.00141017 -0.00000278 0.05816164
v -0.00145640 -0.00287015 0.05870362
v 0.00141017 -0.00000278 0.05870362
f 4 7 8
f 7 11 8
f 8 11 10
f 10 11 12
f 5 3 1
f 1 2 5
f 9 5 2
f 2 6 9
f 1 3 7
f 7 4 1
f 8 2 1
f 8 6 2
f 1 4 8
f 8 10 6
f 3 5 12
f 5 9 12
f 12 7 3
f 12 11 7
f 12 9 6
f 6 10 12

