# https://github.com/mikedh/trimesh
v 0.00364393 -0.00672447 0.06438213
v 0.00364393 -0.00672447 0.06070018
v 0.00316128 -0.00672447 0.06438213
v 0.00364393 -0.01170653 0.06438213
v 0.00363528 -0.00672447 0.06069440
v 0.00364393 -0.00700003 0.06069404
v 0.00316128 -0.00672447 0.06069404
v 0.00316128 -0.01170653 0.06438213
v 0.00364393 -0.01170653 0.06069404
v 0.00348073 -0.00672447 0.06069404
v 0.00363528 -0.00690443 0.06069404
v 0.00316128 -0.01170653 0.06069404
f 5 2 6
f 11 10 5
f 11 5 6
f 8 4 1
f 8 1 3
f 3 7 8
f 8 7 12
f 4 8 9
f 9 8 12
f 1 4 2
f 4 9 2
f 2 9 6
f 3 1 10
f 10 7 3
f 1 2 10
f 2 5 10
f 12 7 11
f 11 9 12
f 6 9 11
f 7 10 11

