# https://github.com/mikedh/trimesh
v 0.01075763 -0.00929367 0.06069545
v 0.01075763 -0.00929367 0.06179988
v 0.01075763 -0.00894152 0.06069545
v 0.01921307 -0.00929367 0.06069545
v 0.01076283 -0.00894152 0.06198921
v 0.01075763 -0.00894152 0.06179988
v 0.01116209 -0.00929367 0.06198921
v 0.01960540 -0.00894152 0.06069545
v 0.01921307 -0.00929367 0.06198921
v 0.01960540 -0.00894152 0.06198921
f 2 7 5
f 5 6 2
f 4 3 8
f 1 3 4
f 3 6 10
f 8 3 10
f 10 6 5
f 10 4 8
f 9 4 10
f 10 7 9
f 5 7 10
f 1 4 2
f 2 4 9
f 9 7 2
f 2 6 3
f 2 3 1

