# https://github.com/mikedh/trimesh
v 0.00972001 -0.01429850 0.02049218
v 0.00972001 -0.01241600 0.02049218
v 0.01213875 -0.01429850 0.02049218
v 0.00972001 -0.01429850 0.02578671
v 0.00972001 -0.01241600 0.02578671
v 0.01388769 -0.00920549 0.02578671
v 0.01389176 -0.00920250 0.02049218
v 0.01803422 -0.01017069 0.02049218
v 0.01383398 -0.01311171 0.02578671
v 0.01362157 -0.01326043 0.02578671
v 0.01213875 -0.01429850 0.02578671
v 0.01389502 -0.00920000 0.02578671
v 0.01389502 -0.00920000 0.02049218
v 0.01803422 -0.00920000 0.02049218
v 0.01803422 -0.01017069 0.02578671
v 0.01803422 -0.00920000 0.02578671
f 12 13 6
f 5 6 2
f 9 3 8
f 8 15 9
f 7 6 13
f 7 2 6
f 10 11 3
f 3 9 10
f 1 3 11
f 11 4 1
f 4 5 2
f 1 4 2
f 14 16 15
f 14 15 8
f 12 16 14
f 14 13 12
f 1 2 7
f 7 3 1
f 8 3 7
f 7 14 8
f 13 14 7
f 4 11 10
f 10 16 12
f 10 5 4
f 15 16 10
f 12 6 10
f 10 6 5
f 10 9 15

