# https://github.com/mikedh/trimesh
v 0.01372115 -0.01235000 0.03560816
v 0.01421546 -0.01284427 0.03560816
v 0.01372115 -0.01235000 0.03533712
v 0.01030087 -0.01235000 0.03560816
v 0.01421546 -0.01284427 0.03533712
v 0.01193399 -0.01449122 0.03560816
v 0.01200067 -0.01449122 0.03560784
v 0.01030087 -0.01235000 0.03533712
v 0.01030087 -0.01449122 0.03560816
v 0.01200067 -0.01449122 0.03559999
v 0.01420320 -0.01285287 0.03533712
v 0.01030087 -0.01449122 0.03533712
v 0.01186311 -0.01449122 0.03533712
v 0.01187422 -0.01448367 0.03533712
f 2 6 7
f 14 10 13
f 5 10 11
f 10 14 11
f 5 1 2
f 3 1 5
f 9 6 2
f 9 1 4
f 2 1 9
f 4 1 8
f 8 1 3
f 8 9 4
f 12 9 8
f 6 9 10
f 10 9 12
f 10 7 6
f 12 13 10
f 10 5 2
f 2 7 10
f 3 5 11
f 12 8 11
f 11 8 3
f 11 13 12
f 11 14 13

