# https://github.com/mikedh/trimesh
v 0.00223959 -0.01151195 0.02578671
v 0.00210576 -0.00950000 0.02578671
v 0.00223959 -0.01151333 0.02578671
v 0.00223959 -0.01151235 0.01630093
v 0.00210576 -0.00950000 0.01630093
v -0.00436470 -0.00950000 0.02578671
v -0.00436470 -0.01151333 0.02578671
v 0.00223959 -0.01151333 0.01630093
v -0.00436470 -0.00950000 0.01630093
v -0.00436470 -0.01151333 0.01630093
f 5 2 1
f 1 4 5
f 1 2 3
f 3 2 6
f 6 7 3
f 6 2 9
f 2 5 9
f 1 3 8
f 8 4 1
f 10 9 5
f 4 8 10
f 10 5 4
f 10 7 6
f 6 9 10
f 10 3 7
f 10 8 3

