# https://github.com/mikedh/trimesh
v 0.02169443 -0.00680593 0.06198921
v 0.02161041 -0.00693797 0.06198921
v 0.02157243 -0.00700001 0.06169991
v 0.02169443 -0.00680593 0.06169991
v 0.00993634 -0.00680593 0.06198921
v 0.02155286 -0.00702347 0.06198921
v 0.02105450 -0.00763862 0.06198921
v 0.02157243 -0.00700001 0.06060002
v 0.02158739 -0.00680593 0.06160940
v 0.00993634 -0.00680593 0.06070012
v 0.00993634 -0.00855152 0.06198921
v 0.02105450 -0.00763862 0.06060002
v 0.01895862 -0.00952230 0.06198921
v 0.02091293 -0.00700001 0.06008154
v 0.02098890 -0.00680593 0.06113769
v 0.00993634 -0.00700001 0.05960023
v 0.02041572 -0.00680593 0.06070012
v 0.00993634 -0.00959229 0.06179977
v 0.01079149 -0.01067051 0.06179977
v 0.01221982 -0.01067051 0.06198921
v 0.02028336 -0.00700001 0.05960023
v 0.01895862 -0.00952230 0.06060002
v 0.01731967 -0.01067051 0.06198921
v 0.00993634 -0.00959229 0.05960023
v 0.01079149 -0.01067051 0.05960023
v 0.01838545 -0.00870360 0.05960023
v 0.01731967 -0.01067051 0.06060002
v 0.01557714 -0.01067051 0.05960023
f 19 20 11
f 11 18 19
f 21 22 26
f 28 26 27
f 27 26 22
f 12 22 21
f 21 14 12
f 21 17 15
f 15 14 21
f 8 12 14
f 14 15 8
f 4 8 9
f 9 8 15
f 3 6 7
f 2 3 1
f 6 3 2
f 16 10 17
f 17 21 16
f 24 10 16
f 5 10 24
f 24 11 5
f 18 11 24
f 24 25 19
f 19 18 24
f 28 25 26
f 16 21 26
f 26 24 16
f 25 24 26
f 19 25 27
f 27 20 19
f 27 25 28
f 27 23 20
f 23 27 13
f 13 27 22
f 7 13 22
f 22 12 7
f 9 10 5
f 5 1 9
f 9 17 10
f 1 4 9
f 9 15 17
f 3 4 1
f 3 8 4
f 3 7 12
f 12 8 3
f 20 23 2
f 2 1 5
f 5 11 2
f 2 11 20
f 23 13 2
f 13 7 2
f 7 6 2

