# https://github.com/mikedh/trimesh
v -0.00034734 -0.01297739 0.06646531
v -0.00034734 -0.01172629 0.06646531
v 0.00005237 -0.01297739 0.06646531
v -0.00034734 -0.01297739 0.06955980
v 0.00005237 -0.01172629 0.06646531
v -0.00034734 -0.01172629 0.06959999
v 0.00005237 -0.01297739 0.06955980
v -0.00034734 -0.01284842 0.06956962
v 0.00005237 -0.01172629 0.06959999
v -0.00034734 -0.01235006 0.06959999
v 0.00005237 -0.01284327 0.06956992
v 0.00005237 -0.01282160 0.06957146
v 0.00005237 -0.01258252 0.06958772
v -0.00034734 -0.01259440 0.06958680
v 0.00005237 -0.01235006 0.06959999
v -0.00034734 -0.01240322 0.06959969
v 0.00005237 -0.01240432 0.06959969
v 0.00005237 -0.01246433 0.06959570
v 0.00005237 -0.01240922 0.06959938
v 0.00005237 -0.01242306 0.06959846
f 10 16 17
f 4 7 8
f 15 10 17
f 8 13 14
f 16 14 18
f 18 14 13
f 11 8 7
f 17 16 19
f 12 13 8
f 8 11 12
f 16 18 20
f 20 19 16
f 1 2 5
f 5 3 1
f 9 5 2
f 2 6 9
f 1 3 7
f 7 4 1
f 15 9 6
f 6 10 15
f 14 2 1
f 14 6 2
f 1 4 14
f 14 10 6
f 16 10 14
f 4 8 14
f 3 5 20
f 5 9 20
f 20 7 3
f 9 15 20
f 20 15 17
f 20 11 7
f 20 18 13
f 17 19 20
f 13 12 20
f 20 12 11

