# https://github.com/mikedh/trimesh
v -0.00206969 -0.00453218 0.02953308
v -0.00206969 -0.00453218 0.02583143
v -0.00246940 -0.00453218 0.02953308
v -0.00206969 -0.00919547 0.02953308
v -0.00206969 -0.00453674 0.02583070
v -0.00209442 -0.00453218 0.02583325
v -0.00246940 -0.00453218 0.02592680
v -0.00246940 -0.00919547 0.02953308
v -0.00206969 -0.00919547 0.02580000
v -0.00206969 -0.00457783 0.02582631
v -0.00246940 -0.00481065 0.02583435
v -0.00210604 -0.00453218 0.02583435
v -0.00240108 -0.00453218 0.02590926
v -0.00246940 -0.00460294 0.02590305
v -0.00246940 -0.00919547 0.02580000
v -0.00206969 -0.00482754 0.02580000
v -0.00246940 -0.00513432 0.02580000
v -0.00246940 -0.00495491 0.02581900
v -0.00225325 -0.00453218 0.02587162
f 17 10 16
f 5 10 11
f 11 10 18
f 10 17 18
f 11 14 19
f 19 12 11
f 2 5 6
f 11 12 6
f 6 5 11
f 13 14 7
f 13 19 14
f 8 4 1
f 8 1 3
f 4 8 15
f 15 9 4
f 9 15 17
f 17 16 9
f 1 4 5
f 4 9 5
f 5 2 1
f 9 16 5
f 16 10 5
f 18 8 3
f 18 15 8
f 3 7 18
f 18 17 15
f 7 14 18
f 18 14 11
f 3 1 13
f 1 2 13
f 13 7 3
f 2 6 13
f 12 19 13
f 13 6 12

