# https://github.com/mikedh/trimesh
v 0.00288632 0.01106463 0.06123422
v 0.00288632 0.01323361 0.06123422
v 0.00364527 0.01106463 0.06123422
v 0.00288632 0.01106463 0.06959999
v 0.00363086 0.01323361 0.06123422
v 0.00288632 0.01323361 0.06950663
v 0.00364527 0.01323149 0.06123422
v 0.00364527 0.01106463 0.06959999
v 0.00288632 0.01234997 0.06959999
v 0.00364527 0.01323361 0.06948206
v 0.00288632 0.01267948 0.06958198
v 0.00336460 0.01323361 0.06950909
v 0.00364527 0.01234997 0.06959999
v 0.00364527 0.01241748 0.06959917
v 0.00288632 0.01241579 0.06959917
v 0.00364527 0.01323361 0.06950991
v 0.00288632 0.01258351 0.06958853
v 0.00364527 0.01264827 0.06958443
v 0.00288632 0.01248712 0.06959508
f 7 5 10
f 6 11 12
f 12 11 16
f 16 11 18
f 9 13 14
f 15 9 14
f 14 18 19
f 19 15 14
f 17 18 11
f 17 19 18
f 1 3 8
f 8 4 1
f 1 2 5
f 5 3 1
f 5 7 3
f 2 6 12
f 12 5 2
f 16 10 12
f 12 10 5
f 3 7 18
f 18 8 3
f 18 13 8
f 18 10 16
f 7 10 18
f 14 13 18
f 4 8 9
f 8 13 9
f 17 2 1
f 1 4 17
f 17 6 2
f 17 11 6
f 4 9 17
f 9 15 17
f 15 19 17

