# https://github.com/mikedh/trimesh
v -0.00436470 -0.01017537 0.02578671
v -0.00436470 -0.01017537 0.02787228
v -0.00436470 -0.00950001 0.02578671
v 0.00206482 -0.01017537 0.02578671
v -0.00436470 -0.00919547 0.02787228
v 0.00363524 -0.01017537 0.02787228
v -0.00436470 -0.00919547 0.02580019
v 0.00210558 -0.00950001 0.02578671
v 0.00531750 -0.00955622 0.02580019
v 0.00504455 -0.01017537 0.02580019
v 0.00363524 -0.00919547 0.02787228
v 0.00504455 -0.01017537 0.02779980
v 0.00531750 -0.00955622 0.02779980
v 0.00531750 -0.00919547 0.02580019
v 0.00531750 -0.00919547 0.02779980
f 9 8 14
f 9 10 4
f 4 8 9
f 6 12 13
f 9 13 12
f 12 10 9
f 1 2 3
f 3 2 5
f 5 7 3
f 14 3 7
f 8 3 14
f 14 7 5
f 5 11 14
f 11 15 14
f 14 13 9
f 14 15 13
f 1 3 4
f 4 3 8
f 6 2 1
f 1 4 6
f 10 12 6
f 6 4 10
f 5 2 6
f 6 11 5
f 6 15 11
f 13 15 6

