# https://github.com/mikedh/trimesh
v -0.00436470 -0.01234394 0.02578671
v -0.00436470 -0.01234394 0.02787228
v -0.00436470 -0.01091801 0.02578671
v 0.00263948 -0.01234394 0.02578671
v -0.00436470 -0.01091801 0.02787228
v 0.00363479 -0.01234394 0.02787228
v 0.00212289 -0.01091801 0.02578671
v 0.00422962 -0.01091801 0.02580019
v 0.00422962 -0.01234394 0.02580019
v 0.00363479 -0.01091801 0.02787228
v 0.00422962 -0.01234394 0.02779980
v 0.00422962 -0.01091801 0.02779980
f 8 9 4
f 8 4 7
f 5 3 1
f 1 2 5
f 1 3 7
f 7 4 1
f 6 2 1
f 1 4 6
f 6 4 9
f 9 11 6
f 12 11 9
f 12 9 8
f 3 5 10
f 8 7 10
f 10 7 3
f 10 12 8
f 10 5 2
f 2 6 10
f 10 6 11
f 11 12 10

