# https://github.com/mikedh/trimesh
v 0.01372112 -0.01235034 0.05948723
v 0.01372737 -0.01235646 0.05948723
v 0.01372112 -0.01235034 0.05870369
v 0.00996089 -0.01235034 0.05948723
v 0.01373903 -0.01236802 0.05870369
v 0.01389478 -0.01252373 0.05948723
v 0.00996089 -0.01235034 0.05870369
v 0.00996089 -0.01582328 0.05948723
v 0.01382815 -0.01245710 0.05870369
v 0.01421546 -0.01284434 0.05948723
v 0.00996089 -0.01582294 0.05870369
v 0.00997214 -0.01581546 0.05948723
v 0.00996089 -0.01582328 0.05923341
v 0.01421546 -0.01284434 0.05870369
v 0.01335505 -0.01344679 0.05870369
v 0.00998172 -0.01580866 0.05870369
v 0.01012456 -0.01570871 0.05870369
f 3 1 2
f 2 5 3
f 10 14 9
f 11 16 13
f 13 12 8
f 13 16 12
f 12 16 17
f 10 9 6
f 6 9 5
f 5 2 6
f 12 17 15
f 10 12 15
f 15 14 10
f 1 7 4
f 3 7 1
f 13 8 4
f 4 7 13
f 7 11 13
f 6 1 4
f 4 8 6
f 6 12 10
f 8 12 6
f 6 2 1
f 15 7 3
f 3 5 15
f 15 11 7
f 15 9 14
f 15 16 11
f 5 9 15
f 15 17 16

