# https://github.com/mikedh/trimesh
v 0.00095644 -0.01028342 0.06959982
v 0.00058541 -0.01028342 0.06959982
v 0.00058541 -0.01241199 0.06959914
v 0.00095644 -0.01241263 0.06959897
v 0.00095644 -0.01028342 0.06786290
v 0.00058541 -0.01028342 0.06786290
v 0.00058541 -0.01252412 0.06959166
v 0.00095644 -0.01256794 0.06958877
v 0.00095644 -0.01686633 0.06786290
v 0.00058541 -0.01686633 0.06786290
v 0.00058541 -0.01269941 0.06957976
v 0.00095644 -0.01270521 0.06957942
v 0.00095644 -0.01686182 0.06793805
v 0.00058541 -0.01686053 0.06794026
v 0.00058541 -0.01280896 0.06957228
v 0.00095644 -0.01279156 0.06957347
v 0.00095644 -0.01681993 0.06800198
v 0.00058541 -0.01682380 0.06799620
v 0.00058541 -0.01352558 0.06951821
v 0.00095644 -0.01294172 0.06956225
v 0.00095644 -0.01675420 0.06810110
v 0.00058541 -0.01674582 0.06811113
v 0.00058541 -0.01370859 0.06950427
v 0.00095644 -0.01375113 0.06950104
v 0.00095644 -0.01673293 0.06812711
v 0.00058541 -0.01669749 0.06816911
v 0.00058541 -0.01374984 0.06950104
v 0.00058541 -0.01379431 0.06949203
v 0.00058541 -0.01424605 0.06939937
v 0.00095644 -0.01396637 0.06945684
v 0.00095644 -0.01669169 0.06817557
v 0.00095644 -0.01666978 0.06819903
v 0.00058541 -0.01662918 0.06824222
v 0.00058541 -0.01518886 0.06918821
v 0.00095644 -0.01517598 0.06919195
v 0.00095644 -0.01423188 0.06940226
v 0.00095644 -0.01663885 0.06823185
v 0.00058541 -0.01657311 0.06830155
v 0.00095644 -0.01520884 0.06918225
v 0.00058541 -0.01523849 0.06917290
v 0.00095644 -0.01656989 0.06830478
v 0.00058541 -0.01651383 0.06836429
v 0.00095644 -0.01523913 0.06917273
v 0.00058541 -0.01547177 0.06908126
v 0.00095644 -0.01642941 0.06845338
v 0.00058541 -0.01634241 0.06854553
v 0.00095644 -0.01539766 0.06911034
v 0.00058541 -0.01552591 0.06905984
v 0.00095644 -0.01556199 0.06904556
v 0.00095644 -0.01634047 0.06854723
v 0.00095644 -0.01631792 0.06857018
v 0.00058541 -0.01631534 0.06857222
v 0.00058541 -0.01557102 0.06904182
v 0.00058541 -0.01560066 0.06902975
v 0.00095644 -0.01560775 0.06902686
v 0.00095644 -0.01627152 0.06861167
v 0.00058541 -0.01627732 0.06860674
v 0.00058541 -0.01567799 0.06899744
v 0.00095644 -0.01566510 0.06900322
v 0.00095644 -0.01621867 0.06865196
v 0.00058541 -0.01621030 0.06865842
v 0.00058541 -0.01575404 0.06895545
v 0.00095644 -0.01571086 0.06897942
v 0.00095644 -0.01576757 0.06894695
f 3 1 2
f 1 3 4
f 13 10 9
f 36 29 35
f 35 29 34
f 8 4 3
f 21 18 17
f 10 13 14
f 13 17 14
f 14 17 18
f 60 61 56
f 62 63 58
f 58 63 59
f 24 29 30
f 29 36 30
f 28 29 24
f 24 27 28
f 22 18 21
f 42 41 45
f 63 62 64
f 64 62 61
f 61 60 64
f 35 34 39
f 43 39 40
f 40 39 34
f 20 19 24
f 23 27 24
f 24 19 23
f 16 12 15
f 15 20 16
f 19 20 15
f 25 31 26
f 26 22 25
f 25 22 21
f 46 45 50
f 42 45 46
f 52 46 51
f 51 46 50
f 56 61 57
f 57 51 56
f 52 51 57
f 43 40 44
f 11 12 8
f 11 15 12
f 32 33 26
f 26 31 32
f 47 44 49
f 43 44 47
f 7 8 3
f 7 11 8
f 33 32 37
f 37 38 33
f 42 38 37
f 37 41 42
f 49 44 48
f 48 53 49
f 54 55 49
f 49 53 54
f 59 55 54
f 58 59 54
f 1 5 6
f 2 1 6
f 10 6 5
f 10 5 9
f 37 5 1
f 9 5 37
f 1 4 37
f 24 30 37
f 37 13 9
f 35 39 37
f 21 17 37
f 4 8 37
f 37 25 21
f 37 36 35
f 37 12 16
f 37 60 56
f 37 59 63
f 49 55 37
f 37 17 13
f 37 20 24
f 37 45 41
f 63 64 37
f 37 30 36
f 37 47 49
f 8 12 37
f 56 51 37
f 50 45 37
f 37 64 60
f 37 55 59
f 37 39 43
f 16 20 37
f 31 25 37
f 37 51 50
f 37 32 31
f 43 47 37
f 2 6 54
f 6 10 54
f 54 3 2
f 54 48 44
f 29 28 54
f 54 38 42
f 10 14 54
f 18 22 54
f 54 34 29
f 54 62 58
f 54 14 18
f 27 23 54
f 61 62 54
f 54 28 27
f 54 57 61
f 54 22 26
f 42 46 54
f 54 40 34
f 54 23 19
f 19 15 54
f 26 33 54
f 54 46 52
f 52 57 54
f 54 44 40
f 15 11 54
f 33 38 54
f 54 7 3
f 11 7 54
f 53 48 54

