# https://github.com/mikedh/trimesh
v 0.00789036 -0.00696928 0.06198921
v 0.00789036 -0.00938607 0.06198921
v 0.00789036 -0.00696928 0.06070001
v 0.00364397 -0.00696928 0.06198921
v 0.00763304 -0.00991101 0.06198921
v 0.00789036 -0.00991101 0.06179988
v 0.00789036 -0.00700009 0.06069545
v 0.00390213 -0.00696928 0.06069950
v 0.00364397 -0.00696928 0.06070001
v 0.00364397 -0.00991101 0.06198921
v 0.00789036 -0.00991101 0.06069545
v 0.00364397 -0.00700009 0.06069545
v 0.00372961 -0.00696928 0.06069950
v 0.00364397 -0.00991101 0.06069545
f 7 8 3
f 6 2 5
f 13 12 9
f 10 2 1
f 10 1 4
f 5 2 10
f 12 11 14
f 7 11 12
f 12 10 4
f 14 10 12
f 4 9 12
f 5 10 6
f 6 10 14
f 14 11 6
f 1 2 6
f 6 11 7
f 6 3 1
f 7 3 6
f 4 1 13
f 1 3 13
f 13 3 8
f 13 9 4
f 7 12 13
f 13 8 7

