# https://github.com/mikedh/trimesh
v 0.00678206 -0.01804876 0.01630048
v 0.00678206 -0.01414972 0.01630048
v 0.00713877 -0.01779910 0.01630048
v 0.00710032 -0.01782619 0.02123388
v 0.00678206 -0.01804876 0.02123388
v 0.00713877 -0.01409476 0.01630048
v 0.00678206 -0.01414972 0.02123388
v 0.00713877 -0.01779910 0.02123388
v 0.00713801 -0.01409515 0.02123388
v 0.00713877 -0.01754169 0.02123388
f 1 3 4
f 8 4 3
f 2 7 6
f 1 4 5
f 6 7 9
f 6 9 10
f 2 6 3
f 2 3 1
f 5 2 1
f 7 2 5
f 7 5 10
f 4 8 10
f 10 5 4
f 10 9 7
f 3 6 10
f 10 8 3

