# https://github.com/mikedh/trimesh
v -0.00307119 0.00434608 0.05870362
v -0.00353878 0.00470498 0.05870362
v -0.00307119 0.00565088 0.05870362
v -0.00307119 0.00434608 0.06659907
v -0.00353878 0.00565088 0.05870362
v -0.00353878 0.00470498 0.06659907
v -0.00307119 0.00565088 0.06884825
v -0.00307119 0.00441595 0.06702408
v -0.00353878 0.00482976 0.06735873
v -0.00353878 0.00565088 0.06869234
v -0.00348143 0.00565088 0.06872114
v -0.00307119 0.00544410 0.06872114
v -0.00307119 0.00447419 0.06737660
v -0.00353878 0.00483334 0.06737759
v -0.00353878 0.00516299 0.06809951
v -0.00307119 0.00484841 0.06809951
v -0.00307119 0.00448632 0.06740043
f 15 16 10
f 12 10 16
f 17 16 15
f 15 13 17
f 14 13 15
f 11 12 7
f 10 12 11
f 9 8 13
f 13 14 9
f 9 6 4
f 4 8 9
f 5 3 1
f 5 1 2
f 2 1 6
f 1 4 6
f 1 3 8
f 3 7 8
f 8 4 1
f 16 17 8
f 7 12 8
f 8 12 16
f 8 17 13
f 3 5 11
f 11 7 3
f 5 10 11
f 9 5 2
f 2 6 9
f 9 10 5
f 15 10 9
f 9 14 15

