# https://github.com/mikedh/trimesh
v 0.01124562 -0.01508614 0.05590888
v 0.01124562 -0.01455637 0.05590888
v 0.01181945 -0.01508614 0.05590888
v 0.01124562 -0.01508614 0.05642359
v 0.01124562 -0.01455637 0.05648106
v 0.01177310 -0.01455637 0.05590888
v 0.01177552 -0.01458380 0.05590888
v 0.01177018 -0.01455637 0.05648106
v 0.01146386 -0.01508614 0.05622790
v 0.01124562 -0.01492367 0.05648106
f 6 8 7
f 7 8 3
f 10 8 5
f 4 8 10
f 3 8 9
f 9 8 4
f 8 6 2
f 2 5 8
f 1 2 7
f 7 3 1
f 2 6 7
f 10 2 1
f 10 5 2
f 1 4 10
f 1 3 9
f 9 4 1

