# https://github.com/mikedh/trimesh
v -0.00247718 0.01234549 0.05870362
v -0.00247718 0.01234549 0.05490000
v -0.00436470 0.01234549 0.05870362
v -0.00247718 0.00389014 0.05870362
v -0.00436470 0.01234549 0.05490000
v -0.00247718 0.00513990 0.05490000
v -0.00436470 0.00507452 0.05870362
v -0.00247718 0.00389014 0.05590005
v -0.00436470 0.00614716 0.05490000
v -0.00247718 0.00498513 0.05491638
v -0.00436470 0.00507452 0.05590005
v -0.00247718 0.00393318 0.05564129
v -0.00436470 0.00511093 0.05564129
v -0.00436470 0.00586990 0.05493426
v -0.00247718 0.00481712 0.05493426
v -0.00247718 0.00405815 0.05540003
v -0.00436470 0.00521770 0.05540003
v -0.00436470 0.00561084 0.05503404
v -0.00247718 0.00451502 0.05503404
v -0.00247718 0.00425679 0.05519302
v -0.00436470 0.00538820 0.05519302
f 8 11 13
f 13 12 8
f 17 12 13
f 12 17 16
f 10 9 6
f 10 15 9
f 9 15 14
f 14 15 19
f 14 19 18
f 21 16 17
f 16 21 20
f 20 21 18
f 18 19 20
f 7 4 1
f 7 1 3
f 3 1 5
f 1 2 5
f 9 5 2
f 2 6 9
f 4 7 8
f 7 11 8
f 21 7 3
f 3 5 21
f 21 11 7
f 21 14 18
f 13 11 21
f 5 9 21
f 21 17 13
f 9 14 21
f 1 4 20
f 20 2 1
f 20 6 2
f 4 8 20
f 19 15 20
f 20 8 12
f 20 10 6
f 12 16 20
f 15 10 20

