# https://github.com/mikedh/trimesh
v 0.01372085 -0.01235058 0.03533687
v 0.01375803 -0.01238767 0.03533687
v 0.01372085 -0.01235058 0.03281924
v 0.00646566 -0.01235058 0.03533687
v 0.01421546 -0.01284435 0.03533687
v 0.01421546 -0.01284435 0.03281924
v 0.00646566 -0.01235058 0.03281924
v 0.00646566 -0.01827067 0.03533687
v 0.01403946 -0.01296780 0.03533687
v 0.01205726 -0.01435582 0.03533687
v 0.00709833 -0.01782790 0.03281924
v 0.00646566 -0.01827067 0.03281924
v 0.00771658 -0.01739497 0.03533687
f 3 1 2
f 2 6 3
f 5 6 2
f 9 6 5
f 9 10 6
f 8 12 11
f 6 10 11
f 8 11 13
f 13 11 10
f 1 7 4
f 3 7 1
f 12 8 4
f 4 7 12
f 11 7 3
f 3 6 11
f 11 12 7
f 13 1 4
f 4 8 13
f 5 2 13
f 13 9 5
f 13 2 1
f 10 9 13

