# https://github.com/mikedh/trimesh
v 0.00409616 -0.01735000 0.06303453
v 0.00449587 -0.01735000 0.06303453
v 0.00409616 -0.01735000 0.06630737
v 0.00409616 -0.01484593 0.06303453
v 0.00449587 -0.01484593 0.06303453
v 0.00449587 -0.01735000 0.06630737
v 0.00449587 -0.01732769 0.06662568
v 0.00409616 -0.01732671 0.06663361
v 0.00409616 -0.01484593 0.06926432
v 0.00449587 -0.01484593 0.06926310
v 0.00449587 -0.01732279 0.06666410
v 0.00449587 -0.01730686 0.06678850
v 0.00449587 -0.01729902 0.06684948
v 0.00409616 -0.01730196 0.06682570
v 0.00409616 -0.01518811 0.06918810
v 0.00449587 -0.01489226 0.06925396
v 0.00449587 -0.01722254 0.06717207
v 0.00409616 -0.01729828 0.06685314
v 0.00409616 -0.01521164 0.06918139
v 0.00449587 -0.01519227 0.06918688
v 0.00409616 -0.01710636 0.06749161
v 0.00409616 -0.01722181 0.06717329
v 0.00449587 -0.01710636 0.06749161
v 0.00449587 -0.01522978 0.06917529
v 0.00409616 -0.01523125 0.06917468
v 0.00449587 -0.01709435 0.06751661
v 0.00409616 -0.01709288 0.06751966
v 0.00409616 -0.01527341 0.06915822
v 0.00409616 -0.01560921 0.06902589
v 0.00449587 -0.01562588 0.06901918
v 0.00449587 -0.01707351 0.06755869
v 0.00409616 -0.01706493 0.06757577
v 0.00409616 -0.01562955 0.06901735
v 0.00409616 -0.01568667 0.06899296
v 0.00449587 -0.01568838 0.06899174
v 0.00449587 -0.01697424 0.06775627
v 0.00409616 -0.01695488 0.06779530
v 0.00409616 -0.01573838 0.06896430
v 0.00449587 -0.01573790 0.06896369
v 0.00449587 -0.01695414 0.06779591
v 0.00449587 -0.01692669 0.06783920
v 0.00409616 -0.01688674 0.06790079
v 0.00409616 -0.01614625 0.06869720
v 0.00449587 -0.01616145 0.06868684
v 0.00449587 -0.01586021 0.06888380
v 0.00449587 -0.01689287 0.06789104
v 0.00449587 -0.01675536 0.06810020
v 0.00409616 -0.01677521 0.06807032
v 0.00409616 -0.01623694 0.06863744
v 0.00449587 -0.01624087 0.06863439
v 0.00409616 -0.01675536 0.06810020
v 0.00449587 -0.01672276 0.06813862
v 0.00409616 -0.01671883 0.06814350
v 0.00409616 -0.01627543 0.06860756
v 0.00449587 -0.01627396 0.06860878
v 0.00449587 -0.01665437 0.06821118
v 0.00409616 -0.01631734 0.06856853
v 0.00409616 -0.01630165 0.06858378
v 0.00449587 -0.01630656 0.06857890
v 0.00449587 -0.01636391 0.06851853
f 30 34 35
f 35 34 38
f 7 3 6
f 17 23 21
f 16 10 9
f 24 20 19
f 19 25 24
f 29 30 24
f 55 54 58
f 53 51 47
f 3 7 8
f 22 17 21
f 18 17 22
f 13 17 18
f 15 19 20
f 20 16 15
f 15 16 9
f 24 25 28
f 28 29 24
f 34 30 33
f 30 29 33
f 35 38 39
f 49 54 55
f 57 60 59
f 59 58 57
f 55 58 59
f 52 53 47
f 14 13 18
f 8 13 14
f 12 13 8
f 38 44 45
f 45 39 38
f 43 44 38
f 43 49 44
f 50 49 55
f 44 49 50
f 32 27 31
f 37 32 31
f 47 51 48
f 48 42 47
f 47 42 46
f 53 52 56
f 57 53 56
f 56 60 57
f 11 8 7
f 11 12 8
f 26 31 27
f 26 27 21
f 21 23 26
f 36 40 37
f 37 31 36
f 41 42 37
f 41 46 42
f 37 40 41
f 1 4 5
f 5 2 1
f 10 5 4
f 4 9 10
f 1 2 3
f 2 6 3
f 48 4 1
f 48 9 4
f 1 3 48
f 3 8 48
f 34 33 48
f 54 49 48
f 51 53 48
f 48 22 21
f 48 38 34
f 48 28 25
f 48 58 54
f 25 19 48
f 48 15 9
f 48 43 38
f 57 58 48
f 48 53 57
f 21 27 48
f 18 22 48
f 19 15 48
f 29 28 48
f 48 33 29
f 48 14 18
f 48 32 37
f 37 42 48
f 8 14 48
f 49 43 48
f 48 27 32
f 2 5 41
f 5 10 41
f 41 6 2
f 41 30 35
f 10 16 41
f 41 45 44
f 23 17 41
f 35 39 41
f 41 20 24
f 24 30 41
f 41 7 6
f 41 50 55
f 41 16 20
f 41 52 47
f 55 59 41
f 17 13 41
f 60 56 41
f 41 11 7
f 41 59 60
f 47 46 41
f 13 12 41
f 39 45 41
f 44 50 41
f 41 26 23
f 40 36 41
f 41 56 52
f 12 11 41
f 31 26 41
f 41 36 31

