# https://github.com/mikedh/trimesh
v 0.01111163 -0.00986639 0.06136170
v 0.01111163 -0.00986639 0.06179996
v 0.01111163 -0.00929367 0.06136170
v 0.01189270 -0.00986639 0.06136170
v 0.01116202 -0.00929367 0.06198921
v 0.01111163 -0.00929367 0.06179996
v 0.01174675 -0.00986639 0.06198921
v 0.01189270 -0.00929367 0.06136170
v 0.01189270 -0.00986639 0.06198921
v 0.01189270 -0.00929367 0.06198921
f 2 7 5
f 5 6 2
f 1 3 8
f 8 4 1
f 2 3 1
f 2 6 3
f 10 8 3
f 3 6 10
f 10 6 5
f 1 4 9
f 9 2 1
f 7 2 9
f 4 8 9
f 8 10 9
f 9 10 5
f 5 7 9

