# https://github.com/mikedh/trimesh
v 0.00925403 0.00002072 0.06070000
v 0.00925403 0.00002072 0.06959999
v 0.00925403 0.00699887 0.06070000
v 0.02317574 0.00002072 0.06070000
v 0.00925403 0.00699887 0.06959999
v 0.02417641 0.00002072 0.06959999
v 0.02028184 0.00699887 0.06070000
v 0.02317574 0.00205897 0.06070000
v 0.02417641 0.00002072 0.06170012
v 0.02148702 0.00699887 0.06959999
v 0.02417641 0.00230009 0.06959999
v 0.02091438 0.00699887 0.06118177
v 0.02174413 0.00484859 0.06070000
v 0.02263523 0.00530488 0.06170012
v 0.02417641 0.00230009 0.06170012
v 0.02263523 0.00530488 0.06959999
v 0.02157321 0.00699887 0.06170012
f 10 16 17
f 14 17 16
f 15 8 14
f 17 14 13
f 13 14 8
f 12 13 7
f 17 13 12
f 1 2 5
f 5 3 1
f 9 2 1
f 6 2 9
f 1 4 9
f 6 9 11
f 11 9 15
f 8 9 4
f 15 9 8
f 16 5 2
f 16 2 6
f 16 10 5
f 6 11 16
f 14 11 15
f 14 16 11
f 1 3 13
f 13 4 1
f 13 8 4
f 3 7 13
f 3 5 12
f 5 10 12
f 12 7 3
f 10 17 12

