# https://github.com/mikedh/trimesh
v 0.01163407 -0.01440014 0.03909424
v 0.01155840 -0.01440014 0.03981956
v 0.01199183 -0.01440096 0.03981956
v 0.01199183 -0.01440096 0.03909424
v 0.00339025 -0.01440014 0.03909424
v 0.00339025 -0.01440014 0.03981956
v 0.01217587 -0.01649764 0.03981956
v 0.01216297 -0.01635023 0.03909424
v 0.00339025 -0.01649764 0.03909424
v 0.00339025 -0.01649764 0.03981956
v 0.01217587 -0.01649764 0.03909424
f 1 2 3
f 8 3 7
f 7 11 8
f 1 3 4
f 3 8 4
f 6 10 7
f 7 3 6
f 6 3 2
f 6 1 5
f 6 2 1
f 9 6 5
f 10 6 9
f 7 10 11
f 10 9 11
f 5 1 4
f 4 9 5
f 4 11 9
f 4 8 11

