# https://github.com/mikedh/trimesh
v 0.00364439 -0.01735000 0.05870362
v 0.00364439 -0.01235073 0.05870362
v 0.00777979 -0.01735000 0.05870362
v 0.00364439 -0.01735000 0.06630740
v 0.00364439 -0.01234337 0.05960063
v 0.00366808 -0.01234337 0.05959849
v 0.00789036 -0.01235073 0.05870362
v 0.00789036 -0.01727207 0.05870362
v 0.00777979 -0.01735000 0.06630740
v 0.00779559 -0.01733824 0.06656232
v 0.00364439 -0.01732451 0.06664231
v 0.00789036 -0.01234337 0.05960063
v 0.00364439 -0.01234680 0.06959999
v 0.00369718 -0.01234337 0.05959849
v 0.00789036 -0.01727207 0.06696016
v 0.00784214 -0.01730540 0.06681617
v 0.00364439 -0.01731863 0.06669031
v 0.00789036 -0.01234680 0.06959999
v 0.00364439 -0.01241493 0.06959786
v 0.00789036 -0.01242670 0.06959786
v 0.00789036 -0.01722551 0.06715961
v 0.00364439 -0.01729658 0.06685777
v 0.00364439 -0.01244875 0.06959679
v 0.00789036 -0.01247865 0.06959573
v 0.00364439 -0.01722110 0.06717348
v 0.00789036 -0.01710494 0.06749346
v 0.00364439 -0.01270411 0.06957973
v 0.00364439 -0.01375934 0.06949973
v 0.00789036 -0.01377062 0.06949653
v 0.00364439 -0.01710592 0.06749133
v 0.00364439 -0.01709072 0.06752333
v 0.00789036 -0.01694712 0.06780811
v 0.00364439 -0.01389070 0.06947307
v 0.00789036 -0.01397206 0.06945707
v 0.00364439 -0.01695496 0.06779317
v 0.00789036 -0.01675156 0.06810355
v 0.00364439 -0.01675450 0.06810036
v 0.00364439 -0.01691575 0.06785504
v 0.00364439 -0.01413184 0.06942294
v 0.00364439 -0.01518463 0.06918935
v 0.00789036 -0.01520227 0.06918295
v 0.00364439 -0.01661481 0.06825395
v 0.00364439 -0.01671578 0.06814622
v 0.00789036 -0.01628202 0.06860166
v 0.00364439 -0.01521011 0.06918189
v 0.00789036 -0.01521698 0.06917869
v 0.00364439 -0.01632074 0.06856539
v 0.00789036 -0.01626682 0.06861446
v 0.00364439 -0.01627172 0.06861126
v 0.00364439 -0.01630701 0.06857926
v 0.00364439 -0.01523168 0.06917442
v 0.00789036 -0.01561692 0.06902190
v 0.00364439 -0.01623546 0.06863899
v 0.00789036 -0.01622957 0.06864005
v 0.00364439 -0.01561937 0.06902190
v 0.00789036 -0.01565466 0.06900696
v 0.00364439 -0.01573994 0.06896323
v 0.00789036 -0.01571200 0.06897817
v 0.00364439 -0.01567671 0.06899843
v 0.00789036 -0.01568063 0.06899523
f 6 2 5
f 7 14 12
f 9 15 10
f 10 4 9
f 25 21 26
f 26 30 25
f 15 21 22
f 21 25 22
f 16 10 15
f 15 22 16
f 4 10 11
f 31 30 26
f 60 56 59
f 59 58 60
f 57 58 59
f 54 58 57
f 57 53 54
f 37 36 43
f 32 36 37
f 35 31 32
f 32 31 26
f 10 16 17
f 17 11 10
f 17 16 22
f 42 43 36
f 36 44 42
f 42 44 47
f 47 44 50
f 50 44 49
f 53 49 48
f 49 44 48
f 54 53 48
f 38 32 37
f 35 32 38
f 24 23 27
f 24 27 28
f 24 28 29
f 23 24 20
f 20 19 23
f 20 18 13
f 13 19 20
f 34 33 39
f 34 39 40
f 40 41 34
f 28 33 34
f 29 28 34
f 40 45 46
f 46 41 40
f 46 45 51
f 51 52 46
f 55 52 51
f 56 52 55
f 59 56 55
f 7 2 6
f 6 14 7
f 14 6 12
f 12 6 5
f 5 13 12
f 13 18 12
f 1 2 3
f 3 2 7
f 7 8 3
f 15 3 8
f 9 3 15
f 1 3 4
f 4 3 9
f 46 8 7
f 7 12 46
f 26 21 46
f 46 12 18
f 46 15 8
f 46 32 26
f 46 21 15
f 54 48 46
f 29 34 46
f 46 58 54
f 56 60 46
f 46 60 58
f 46 44 36
f 36 32 46
f 46 48 44
f 46 24 29
f 18 20 46
f 46 20 24
f 46 34 41
f 46 52 56
f 55 13 5
f 55 2 1
f 5 2 55
f 55 42 47
f 1 4 55
f 55 25 30
f 4 11 55
f 55 17 22
f 55 57 59
f 55 22 25
f 47 50 55
f 30 31 55
f 55 38 37
f 55 19 13
f 55 31 35
f 55 49 53
f 53 57 55
f 37 43 55
f 28 27 55
f 55 45 40
f 11 17 55
f 43 42 55
f 55 50 49
f 35 38 55
f 27 23 55
f 40 39 55
f 23 19 55
f 55 33 28
f 39 33 55
f 51 45 55

