# https://github.com/mikedh/trimesh
v -0.00034729 -0.01735000 0.06311939
v 0.00058537 -0.01735000 0.06311939
v -0.00034729 -0.01735000 0.06350100
v -0.00034729 -0.00176125 0.06311939
v 0.00058537 -0.01735000 0.06350100
v 0.00058537 -0.00082971 0.06311939
v -0.00034729 -0.00176125 0.06350100
v 0.00017780 -0.00123564 0.06311939
v 0.00058537 -0.00082971 0.06350100
v 0.00030717 -0.00110626 0.06350100
f 10 9 6
f 8 10 6
f 7 8 4
f 10 8 7
f 5 3 1
f 1 2 5
f 9 5 2
f 2 6 9
f 8 2 1
f 8 6 2
f 1 4 8
f 3 5 7
f 5 9 7
f 9 10 7
f 1 3 7
f 7 4 1

