# https://github.com/mikedh/trimesh
v -0.00178597 0.01262924 0.06908112
v -0.00178597 0.01262924 0.06627975
v -0.00247729 0.01262924 0.06908112
v -0.00178597 0.00504432 0.06908112
v -0.00247729 0.01262924 0.06627975
v -0.00178597 0.00457775 0.06627975
v -0.00247729 0.00557472 0.06908112
v -0.00232443 0.00545729 0.06908112
v -0.00188781 0.00457775 0.06874685
v -0.00178698 0.00457775 0.06879429
v -0.00178597 0.00457932 0.06879539
v -0.00247729 0.00457775 0.06627975
v -0.00178597 0.00457775 0.06831771
v -0.00247729 0.00498915 0.06872108
v -0.00194208 0.00457775 0.06872108
v -0.00247729 0.00457775 0.06829275
v -0.00233322 0.00457775 0.06840820
f 4 10 11
f 13 11 10
f 17 14 16
f 17 15 14
f 7 14 9
f 14 15 9
f 9 8 7
f 4 8 9
f 9 10 4
f 1 2 5
f 3 1 5
f 12 5 2
f 12 2 6
f 8 1 3
f 8 4 1
f 3 7 8
f 13 2 1
f 6 2 13
f 1 4 13
f 4 11 13
f 3 5 14
f 5 12 14
f 14 7 3
f 12 16 14
f 9 12 6
f 9 16 12
f 6 13 9
f 9 13 10
f 9 17 16
f 15 17 9

