# https://github.com/mikedh/trimesh
v -0.00090065 0.01518476 0.06122211
v -0.00090065 0.01735000 0.06122211
v 0.00083160 0.01518476 0.06122211
v -0.00090065 0.01518476 0.06666587
v 0.00083160 0.01735000 0.06122211
v -0.00090065 0.01735000 0.06630775
v 0.00083160 0.01518476 0.06666587
v -0.00090065 0.01732033 0.06666587
v 0.00083160 0.01735000 0.06630775
v -0.00090065 0.01733326 0.06656834
v 0.00083160 0.01733347 0.06656514
v 0.00083160 0.01732202 0.06666587
v 0.00003940 0.01732139 0.06666587
v 0.00083160 0.01732584 0.06663762
v 0.00083160 0.01733156 0.06659286
v 0.00073478 0.01732202 0.06666587
v 0.00083160 0.01732287 0.06666000
f 13 10 8
f 10 15 11
f 11 6 10
f 9 6 11
f 10 13 14
f 14 15 10
f 16 14 13
f 17 16 12
f 14 16 17
f 1 2 5
f 5 3 1
f 1 3 7
f 7 4 1
f 6 2 1
f 1 4 6
f 4 8 6
f 8 10 6
f 6 5 2
f 6 9 5
f 4 7 16
f 16 7 12
f 16 8 4
f 16 13 8
f 3 5 17
f 17 7 3
f 12 7 17
f 5 9 17
f 9 11 17
f 17 11 15
f 15 14 17

