# https://github.com/mikedh/trimesh
v 0.00861329 -0.01440014 0.04974762
v 0.00861329 -0.01440014 0.05288585
v 0.00861329 -0.01235020 0.04974762
v 0.01199318 -0.01440014 0.04974762
v 0.00861329 -0.01235020 0.05288585
v 0.01199318 -0.01440014 0.05288585
v 0.01372107 -0.01235020 0.04974762
v 0.01381579 -0.01312422 0.04974762
v 0.01372107 -0.01235020 0.05288585
v 0.01381579 -0.01312422 0.05288585
v 0.01381579 -0.01244472 0.04974762
v 0.01381579 -0.01244472 0.05288585
f 5 3 1
f 1 2 5
f 5 7 3
f 9 7 5
f 1 4 6
f 6 2 1
f 11 4 1
f 1 3 11
f 8 4 11
f 3 7 11
f 10 4 8
f 10 6 4
f 12 5 2
f 9 5 12
f 2 6 12
f 6 10 12
f 12 7 9
f 12 11 7
f 8 11 12
f 12 10 8

