# https://github.com/mikedh/trimesh
v 0.01794555 -0.01023258 0.02660003
v 0.01794555 -0.01023258 0.02578671
v 0.01614579 -0.01023258 0.02763229
v 0.01283039 -0.01234893 0.02780000
v 0.01492191 -0.01234893 0.02660003
v 0.01492191 -0.01234893 0.02578671
v 0.01255392 -0.01023258 0.02578671
v 0.01585293 -0.01023258 0.02780000
v 0.00678203 -0.01234893 0.02780000
v 0.00980785 -0.01234893 0.02578671
v 0.00744751 -0.01023258 0.02580011
v 0.00744751 -0.01023258 0.02780000
v 0.00678203 -0.01091855 0.02780000
v 0.00678203 -0.01234893 0.02580011
v 0.00678203 -0.01091855 0.02580011
f 1 4 5
f 3 4 1
f 3 8 4
f 15 10 14
f 15 11 10
f 10 11 7
f 5 2 1
f 5 6 2
f 9 14 10
f 10 4 9
f 10 5 4
f 6 5 10
f 2 6 7
f 6 10 7
f 1 2 12
f 12 3 1
f 8 3 12
f 2 7 12
f 12 7 11
f 9 4 13
f 8 12 13
f 4 8 13
f 13 14 9
f 13 15 14
f 13 12 11
f 11 15 13

