# https://github.com/mikedh/trimesh
v 0.00342493 0.02039921 0.03534637
v 0.00342493 0.02039921 0.03281949
v -0.00436470 0.02039921 0.03534637
v 0.01279321 0.01384007 0.03534637
v 0.00976866 0.01595816 0.03281949
v -0.00436470 0.02039921 0.03281949
v -0.00436470 0.01235000 0.03534637
v 0.01403904 0.01296778 0.03534637
v 0.01408997 0.01293232 0.03281949
v -0.00436470 0.01235000 0.03281949
v 0.01372076 0.01235000 0.03534637
v 0.01414816 0.01289056 0.03534637
v 0.01421364 0.01284485 0.03281949
v 0.01372076 0.01235000 0.03281949
v 0.01384080 0.01246977 0.03534637
v 0.01421182 0.01284249 0.03534637
v 0.01419363 0.01282358 0.03281949
v 0.01414453 0.01277393 0.03534637
f 12 16 13
f 13 8 12
f 1 5 2
f 9 8 13
f 9 5 8
f 8 5 4
f 5 1 4
f 11 14 15
f 15 14 18
f 18 14 17
f 16 18 17
f 13 16 17
f 10 7 3
f 3 6 10
f 2 6 1
f 1 6 3
f 14 11 7
f 7 10 14
f 7 11 15
f 3 7 15
f 16 12 15
f 15 18 16
f 8 4 15
f 15 12 8
f 15 1 3
f 15 4 1
f 17 6 2
f 17 9 13
f 17 10 6
f 2 5 17
f 17 14 10
f 5 9 17

