# https://github.com/mikedh/trimesh
v -0.00247729 0.01338244 0.06478597
v -0.00247729 0.01645854 0.06478597
v -0.00178597 0.01338244 0.06478597
v -0.00247729 0.01338244 0.06947440
v -0.00178597 0.01645854 0.06478597
v -0.00247729 0.01645854 0.06843155
v -0.00178597 0.01338244 0.06947669
v -0.00186426 0.01338244 0.06947669
v -0.00178597 0.01365796 0.06945327
v -0.00247729 0.01406716 0.06941516
v -0.00178597 0.01645854 0.06843155
v -0.00247729 0.01612913 0.06869789
v -0.00178597 0.01408583 0.06941608
v -0.00178597 0.01425354 0.06940138
v -0.00247729 0.01427583 0.06939679
v -0.00178597 0.01611679 0.06870753
v -0.00247729 0.01591023 0.06887009
v -0.00178597 0.01601863 0.06878514
v -0.00178597 0.01609601 0.06872406
v -0.00178597 0.01507797 0.06921862
v -0.00247729 0.01507556 0.06921954
v -0.00178597 0.01589427 0.06887744
v -0.00178597 0.01591023 0.06887009
v -0.00247729 0.01559076 0.06901244
v -0.00178597 0.01578437 0.06892657
v -0.00247729 0.01508580 0.06921724
v -0.00178597 0.01509212 0.06921541
v -0.00247729 0.01530019 0.06914148
v -0.00178597 0.01561424 0.06900234
v -0.00247729 0.01519149 0.06918739
v -0.00178597 0.01519962 0.06918510
v -0.00247729 0.01520685 0.06918280
v -0.00178597 0.01525924 0.06915984
v -0.00178597 0.01520685 0.06918280
f 31 34 32
f 9 8 7
f 4 8 9
f 15 14 21
f 30 31 32
f 26 31 30
f 27 31 26
f 4 9 10
f 10 14 15
f 32 34 33
f 29 25 24
f 24 25 17
f 18 17 23
f 26 21 20
f 20 27 26
f 20 21 14
f 14 10 13
f 13 10 9
f 23 17 22
f 17 25 22
f 29 24 28
f 28 33 29
f 32 33 28
f 17 18 12
f 11 6 12
f 12 16 11
f 16 12 19
f 19 12 18
f 1 2 5
f 5 3 1
f 6 5 2
f 6 11 5
f 1 3 8
f 3 7 8
f 8 4 1
f 12 2 1
f 1 4 12
f 12 30 32
f 12 6 2
f 15 21 12
f 4 10 12
f 12 21 26
f 32 28 12
f 26 30 12
f 12 10 15
f 12 24 17
f 12 28 24
f 3 5 19
f 19 7 3
f 5 11 19
f 34 31 19
f 19 9 7
f 11 16 19
f 19 18 23
f 19 20 14
f 14 13 19
f 19 33 34
f 31 27 19
f 29 33 19
f 19 25 29
f 23 22 19
f 27 20 19
f 19 13 9
f 19 22 25

