# https://github.com/mikedh/trimesh
v -0.00247729 0.00557483 0.06908112
v -0.00232876 0.00546049 0.06908112
v -0.00247729 0.00576491 0.06919809
v -0.00247729 0.01262924 0.06908112
v -0.00178597 0.00504395 0.06908112
v -0.00178597 0.00523477 0.06919809
v -0.00178597 0.00555033 0.06930277
v -0.00247729 0.00666927 0.06949775
v -0.00247729 0.01262924 0.06958506
v -0.00178597 0.01262924 0.06908112
v -0.00178597 0.00613913 0.06949775
v -0.00247729 0.00751199 0.06959999
v -0.00213752 0.01262924 0.06958511
v -0.00247729 0.01240426 0.06959979
v -0.00178597 0.01262924 0.06958516
v -0.00178597 0.00617477 0.06950151
v -0.00178597 0.00710956 0.06959999
v -0.00247729 0.01234932 0.06959999
v -0.00247729 0.01239312 0.06959984
v -0.00178597 0.01240575 0.06959979
v -0.00178597 0.01234932 0.06959999
f 12 8 11
f 2 3 1
f 5 3 2
f 16 17 12
f 12 11 16
f 8 3 7
f 7 11 8
f 9 14 13
f 13 14 15
f 15 14 20
f 6 3 5
f 6 7 3
f 21 20 19
f 19 18 21
f 19 20 14
f 1 4 2
f 2 10 5
f 4 10 2
f 13 10 4
f 15 10 13
f 4 9 13
f 17 21 18
f 12 17 18
f 5 10 6
f 6 10 15
f 15 20 6
f 6 21 17
f 17 16 6
f 6 16 11
f 11 7 6
f 6 20 21
f 19 9 4
f 19 4 1
f 19 8 12
f 1 3 19
f 19 3 8
f 19 14 9
f 12 18 19

