# https://github.com/mikedh/trimesh
v 0.00416838 0.01378687 0.02578671
v 0.00511639 0.01414183 0.02578671
v 0.00416838 0.01379566 0.02578671
v 0.00416838 0.01378771 0.01630093
v 0.00511639 0.01414225 0.01630093
v 0.00511639 0.01806270 0.02578671
v 0.00416922 0.01806270 0.02578671
v 0.00416838 0.01806270 0.02289687
v 0.00416838 0.01806270 0.01630093
v 0.00511639 0.01806270 0.01630093
f 5 2 1
f 1 4 5
f 3 7 8
f 5 10 6
f 5 6 2
f 6 10 9
f 9 7 6
f 8 7 9
f 10 5 9
f 9 5 4
f 2 6 3
f 1 2 3
f 6 7 3
f 3 9 4
f 3 4 1
f 8 9 3

