# https://github.com/mikedh/trimesh
v 0.00866856 0.01000053 0.06179990
v 0.00925202 0.00954312 0.06179990
v 0.00866856 0.01000053 0.05960000
v 0.00760046 0.01000053 0.06180443
v 0.00925202 0.00853718 0.06180443
v 0.00925202 0.00954312 0.05960000
v 0.00364527 0.01000053 0.05960000
v 0.00364527 0.01000053 0.06180443
v 0.00925202 0.00695859 0.06180443
v 0.00925202 0.00700028 0.05960000
v 0.00364527 0.00700445 0.05960000
v 0.00364527 0.00695859 0.06180443
v 0.00925202 0.00695859 0.06070006
v 0.00364527 0.00695859 0.06070006
v 0.00364527 0.00700028 0.05960216
f 14 15 10
f 2 4 5
f 1 4 2
f 10 15 11
f 13 14 10
f 8 12 5
f 5 12 9
f 5 4 8
f 8 4 1
f 1 3 7
f 7 8 1
f 2 6 1
f 1 6 3
f 7 3 11
f 11 6 10
f 3 6 11
f 11 12 8
f 11 8 7
f 11 14 12
f 15 14 11
f 13 5 9
f 13 6 2
f 10 6 13
f 2 5 13
f 9 12 13
f 12 14 13

