# https://github.com/mikedh/trimesh
v 0.00058537 -0.00695218 0.06959999
v 0.00058537 -0.00695218 0.06648395
v 0.00005237 -0.00695218 0.06959999
v 0.00058537 -0.01234947 0.06959999
v 0.00005237 -0.00695218 0.06648395
v 0.00058537 -0.01260280 0.06648395
v 0.00005237 -0.01234947 0.06959999
v 0.00058537 -0.01240534 0.06959969
v 0.00005237 -0.01260280 0.06648395
v 0.00058537 -0.01260280 0.06958627
v 0.00005237 -0.01240423 0.06959969
v 0.00005237 -0.01240921 0.06959938
v 0.00005237 -0.01242304 0.06959847
v 0.00058537 -0.01256021 0.06958932
v 0.00005237 -0.01260280 0.06958627
f 8 4 7
f 11 8 7
f 14 15 10
f 15 14 13
f 13 14 8
f 8 11 12
f 12 13 8
f 1 2 5
f 3 1 5
f 4 1 3
f 3 7 4
f 9 5 2
f 9 2 6
f 6 10 9
f 10 15 9
f 14 2 1
f 14 10 6
f 6 2 14
f 1 4 14
f 4 8 14
f 3 5 12
f 12 7 3
f 5 9 12
f 12 9 15
f 12 11 7
f 15 13 12

