# https://github.com/mikedh/trimesh
v 0.01507538 -0.01224242 0.06959999
v 0.01051776 -0.01224242 0.06959999
v 0.01492078 -0.01235033 0.06959999
v 0.01287363 -0.01378377 0.06949639
v 0.01084117 -0.01520691 0.06918259
v 0.01023086 -0.01563425 0.06901442
v 0.01023086 -0.01563425 0.06193127
v 0.01507490 -0.01224242 0.06193127
v 0.01023086 -0.01237158 0.06959924
v 0.01029535 -0.01235033 0.06959999
v 0.01078805 -0.01224242 0.06193127
v 0.01051538 -0.01224341 0.06193127
v 0.01023086 -0.01235830 0.06193127
v 0.01023086 -0.01252831 0.06959248
v 0.01023086 -0.01277169 0.06957672
v 0.01023086 -0.01377679 0.06949714
v 0.01023086 -0.01388338 0.06947537
v 0.01023086 -0.01495455 0.06923889
v 0.01023086 -0.01520525 0.06918334
v 0.01023086 -0.01520923 0.06918184
f 7 1 6
f 1 7 8
f 6 1 5
f 1 4 5
f 12 13 2
f 3 4 1
f 3 15 4
f 4 15 16
f 2 13 9
f 11 12 2
f 2 9 10
f 10 9 3
f 15 3 14
f 3 9 14
f 6 5 20
f 5 19 20
f 18 5 4
f 18 19 5
f 4 16 17
f 17 18 4
f 7 13 11
f 11 8 7
f 13 12 11
f 11 2 1
f 1 8 11
f 1 2 10
f 10 3 1
f 17 13 7
f 17 7 6
f 17 9 13
f 17 16 15
f 15 14 17
f 6 20 17
f 17 14 9
f 17 20 19
f 19 18 17

