# https://github.com/mikedh/trimesh
v -0.00234188 0.00375538 0.05870460
v -0.00247729 0.00389038 0.05870460
v -0.00178597 0.00375538 0.05870460
v -0.00234188 0.00375538 0.06659963
v -0.00247729 0.00457775 0.05870460
v -0.00247729 0.00389038 0.06659963
v -0.00178597 0.00457775 0.05870460
v -0.00178597 0.00375538 0.06808124
v -0.00220295 0.00375538 0.06735624
v -0.00247729 0.00401813 0.06737599
v -0.00247729 0.00457775 0.06829262
v -0.00178597 0.00457775 0.06831731
v -0.00178597 0.00376786 0.06809902
v -0.00247729 0.00439260 0.06809902
v -0.00179815 0.00375538 0.06806445
v -0.00219734 0.00375538 0.06737599
v -0.00247729 0.00404558 0.06742933
v -0.00178597 0.00443599 0.06871636
v -0.00233322 0.00457775 0.06840818
v -0.00178698 0.00457775 0.06879439
v -0.00178597 0.00445322 0.06872722
v -0.00178597 0.00444203 0.06872130
v -0.00194208 0.00457775 0.06872130
f 16 15 14
f 14 17 16
f 14 15 8
f 10 6 4
f 16 17 10
f 13 18 11
f 11 14 13
f 13 14 8
f 16 10 9
f 9 10 4
f 20 23 22
f 22 23 18
f 11 18 19
f 18 23 19
f 21 12 20
f 20 22 21
f 2 5 1
f 1 7 3
f 5 7 1
f 2 1 6
f 1 4 6
f 10 5 2
f 10 11 5
f 2 6 10
f 17 14 10
f 10 14 11
f 9 1 3
f 3 8 9
f 9 15 16
f 9 4 1
f 8 15 9
f 19 7 5
f 20 12 19
f 19 12 7
f 5 11 19
f 19 23 20
f 3 7 21
f 21 8 3
f 7 12 21
f 21 13 8
f 18 13 21
f 21 22 18

