# https://github.com/mikedh/trimesh
v 0.01079043 -0.01067051 0.05960000
v 0.01079043 -0.01067051 0.06069534
v 0.01086353 -0.01040054 0.05960000
v 0.01557592 -0.01067051 0.05960000
v 0.01086353 -0.01040054 0.06069534
v 0.01731955 -0.01067051 0.06069534
v 0.01596174 -0.01040054 0.05960000
v 0.01731955 -0.01067051 0.06059991
v 0.01770537 -0.01040054 0.06069534
v 0.01770537 -0.01040054 0.06059991
f 7 10 4
f 4 10 8
f 5 6 9
f 2 6 5
f 5 3 1
f 1 2 5
f 10 7 3
f 10 5 9
f 3 5 10
f 9 6 10
f 6 8 10
f 4 6 2
f 4 2 1
f 4 8 6
f 3 7 4
f 1 3 4

