# https://github.com/mikedh/trimesh
v 0.01941992 -0.00920000 0.02049218
v 0.01941992 -0.00920000 0.01630041
v 0.01389478 -0.00920000 0.02049218
v 0.00975093 -0.01597030 0.02049218
v 0.01389478 -0.00920000 0.01630041
v 0.00807651 -0.01714274 0.01630041
v 0.00887486 -0.01306796 0.01630041
v 0.01109002 -0.01136140 0.02049218
v 0.00807651 -0.01714196 0.02049218
v 0.00807651 -0.01714274 0.01820199
v 0.00807651 -0.01368917 0.01630041
v 0.00807651 -0.01368839 0.02049218
v 0.00887486 -0.01306874 0.02049218
f 4 2 1
f 6 2 4
f 10 4 9
f 6 4 10
f 3 5 7
f 12 7 11
f 7 12 13
f 3 7 8
f 7 13 8
f 1 2 5
f 5 3 1
f 7 5 2
f 7 2 6
f 6 11 7
f 12 11 6
f 6 10 12
f 12 10 9
f 1 3 8
f 8 4 1
f 9 4 8
f 8 12 9
f 8 13 12

