# https://github.com/mikedh/trimesh
v 0.01199205 -0.01440043 0.03561883
v 0.01216879 -0.01642398 0.03833258
v 0.01199205 -0.01440043 0.03560816
v 0.01171155 -0.01440043 0.03833258
v 0.01199205 -0.01440100 0.03833258
v 0.01219797 -0.01676875 0.03833258
v 0.01219797 -0.01676875 0.03560816
v -0.00436308 -0.01440043 0.03560816
v -0.00436308 -0.01440043 0.03833258
v 0.00812824 -0.01730409 0.03833258
v 0.00777964 -0.01734971 0.03560816
v -0.00436308 -0.01734971 0.03560816
v -0.00436308 -0.01734971 0.03833258
v 0.00777964 -0.01734971 0.03833258
f 4 5 1
f 1 5 2
f 2 3 1
f 6 7 2
f 2 7 3
f 10 14 11
f 11 7 10
f 10 7 6
f 12 9 8
f 13 9 12
f 14 12 11
f 13 12 14
f 8 3 7
f 7 12 8
f 11 12 7
f 4 3 8
f 8 9 4
f 1 3 4
f 10 9 13
f 6 2 10
f 13 14 10
f 10 4 9
f 5 4 10
f 10 2 5

