# https://github.com/mikedh/trimesh
v 0.00925305 0.01631886 0.05975472
v 0.00977091 0.01595664 0.05975472
v 0.00925305 0.01631886 0.05870362
v 0.00925305 0.01223935 0.05975472
v 0.01000506 0.01579250 0.05870362
v 0.01277313 0.01385438 0.05975472
v 0.01421546 0.01284438 0.05870362
v 0.00925305 0.01235037 0.05870362
v 0.01360530 0.01223935 0.05975472
v 0.00925305 0.01223935 0.05959998
v 0.01421546 0.01284438 0.05975472
v 0.01399491 0.01262393 0.05975472
v 0.01372092 0.01235037 0.05870362
v 0.01335171 0.01223935 0.05960913
v 0.01372092 0.01235037 0.05975472
v 0.01333568 0.01223935 0.05959998
f 2 3 1
f 5 2 7
f 3 2 5
f 6 11 7
f 7 2 6
f 7 11 12
f 13 15 9
f 13 12 15
f 7 12 13
f 16 13 14
f 14 13 9
f 4 9 12
f 1 4 12
f 12 2 1
f 11 6 12
f 9 15 12
f 12 6 2
f 1 3 10
f 10 4 1
f 3 8 10
f 13 8 3
f 13 5 7
f 3 5 13
f 13 10 8
f 16 10 13
f 14 9 4
f 4 10 14
f 14 10 16

