# https://github.com/mikedh/trimesh
v -0.00138895 -0.00888178 0.06959999
v -0.00198481 -0.00888178 0.06959999
v -0.00138895 -0.01235063 0.06959999
v -0.00138895 -0.00888178 0.06739517
v -0.00198481 -0.00888178 0.06739517
v -0.00198481 -0.01050160 0.06959999
v -0.00198481 -0.01239755 0.06959956
v -0.00138895 -0.01240139 0.06959956
v -0.00138895 -0.01673938 0.06739517
v -0.00198481 -0.01673938 0.06739517
v -0.00198481 -0.01242524 0.06959783
v -0.00138895 -0.01249446 0.06959352
v -0.00138895 -0.01673938 0.06811946
v -0.00198481 -0.01673938 0.06811946
v -0.00198481 -0.01291364 0.06956482
v -0.00138895 -0.01254215 0.06959028
v -0.00138895 -0.01667631 0.06819414
v -0.00198481 -0.01667708 0.06819306
v -0.00198481 -0.01293979 0.06956287
v -0.00138895 -0.01288749 0.06956654
v -0.00138895 -0.01651017 0.06837003
v -0.00198481 -0.01641557 0.06847082
v -0.00198481 -0.01655478 0.06832341
v -0.00198481 -0.01350358 0.06952036
v -0.00138895 -0.01360280 0.06951280
v -0.00138895 -0.01647325 0.06840909
v -0.00138895 -0.01636403 0.06852434
v -0.00198481 -0.01639172 0.06849585
v -0.00198481 -0.01374278 0.06950223
v -0.00138895 -0.01374432 0.06950179
v -0.00138895 -0.01633558 0.06855305
v -0.00198481 -0.01634557 0.06854355
v -0.00198481 -0.01378201 0.06949424
v -0.00138895 -0.01384046 0.06948215
v -0.00138895 -0.01628943 0.06859492
v -0.00198481 -0.01630173 0.06858369
v -0.00198481 -0.01385354 0.06947957
v -0.00138895 -0.01431964 0.06938374
v -0.00138895 -0.01627097 0.06861110
v -0.00198481 -0.01627866 0.06860463
v -0.00198481 -0.01434426 0.06937856
v -0.00138895 -0.01516878 0.06919403
v -0.00138895 -0.01620020 0.06866592
v -0.00198481 -0.01622943 0.06864326
v -0.00198481 -0.01517878 0.06919123
v -0.00138895 -0.01520647 0.06918303
v -0.00138895 -0.01578410 0.06893872
v -0.00198481 -0.01579410 0.06893224
v -0.00198481 -0.01619867 0.06866678
v -0.00198481 -0.01522800 0.06917612
v -0.00138895 -0.01524877 0.06916921
v -0.00198481 -0.01572718 0.06896958
v -0.00138895 -0.01567411 0.06899936
v -0.00198481 -0.01567257 0.06900001
v -0.00198481 -0.01526108 0.06916490
v -0.00138895 -0.01530030 0.06914914
v -0.00138895 -0.01556797 0.06904318
v -0.00198481 -0.01554259 0.06905354
v -0.00198481 -0.01536953 0.06912217
v -0.00138895 -0.01554028 0.06905440
f 8 3 7
f 7 11 8
f 6 7 3
f 29 30 25
f 29 25 24
f 42 41 45
f 45 46 42
f 19 24 25
f 25 20 19
f 19 20 15
f 15 20 16
f 33 30 29
f 41 42 38
f 38 37 41
f 18 14 17
f 17 14 13
f 54 47 53
f 11 15 12
f 15 16 12
f 8 11 12
f 37 38 34
f 34 33 37
f 30 33 34
f 57 54 53
f 48 43 47
f 49 43 48
f 59 60 56
f 31 32 27
f 22 21 26
f 22 26 27
f 17 21 22
f 58 57 60
f 54 57 58
f 60 59 58
f 47 54 52
f 52 48 47
f 56 51 55
f 55 59 56
f 44 40 39
f 39 43 44
f 44 43 49
f 39 40 35
f 32 31 36
f 31 35 36
f 36 35 40
f 27 32 28
f 28 22 27
f 18 17 23
f 17 22 23
f 50 51 46
f 50 55 51
f 50 46 45
f 1 4 5
f 2 1 5
f 10 5 4
f 10 4 9
f 6 1 2
f 6 3 1
f 14 10 9
f 9 13 14
f 35 4 1
f 9 4 35
f 1 3 35
f 35 3 8
f 35 13 9
f 8 12 35
f 35 17 13
f 35 25 30
f 53 47 35
f 46 51 35
f 35 20 25
f 35 43 39
f 35 42 46
f 35 57 53
f 35 16 20
f 56 60 35
f 35 51 56
f 35 38 42
f 30 34 35
f 27 26 35
f 35 12 16
f 35 34 38
f 35 21 17
f 47 43 35
f 60 57 35
f 35 31 27
f 26 21 35
f 2 5 50
f 5 10 50
f 50 6 2
f 50 19 15
f 50 15 11
f 11 7 50
f 10 14 50
f 7 6 50
f 45 41 50
f 29 24 50
f 50 14 18
f 50 33 29
f 41 37 50
f 49 48 50
f 24 19 50
f 37 33 50
f 18 23 50
f 50 52 54
f 54 58 50
f 50 28 32
f 50 44 49
f 32 36 50
f 50 58 59
f 48 52 50
f 59 55 50
f 40 44 50
f 50 36 40
f 22 28 50
f 50 23 22

