# https://github.com/mikedh/trimesh
v 0.00784885 0.01730186 0.06681175
v 0.00792007 0.01725197 0.06706855
v 0.00809035 0.01713294 0.06681175
v 0.00400135 0.01730186 0.06681175
v 0.00809263 0.01713102 0.06743288
v 0.00830856 0.01697991 0.06774734
v 0.00364527 0.01725133 0.06707097
v 0.00364527 0.01714946 0.06737806
v 0.00825926 0.01701456 0.06681175
v 0.00364527 0.01730169 0.06681175
v 0.00364527 0.01729961 0.06682303
v 0.00364527 0.01710551 0.06748601
v 0.00830856 0.01697991 0.06681175
v 0.00364527 0.01696467 0.06777886
v 0.00830856 0.01696419 0.06777960
v 0.00364527 0.01566341 0.06681175
v 0.00830856 0.01566341 0.06681175
v 0.00364527 0.01688286 0.06788871
v 0.00830856 0.01688286 0.06788871
v 0.00364527 0.01566341 0.06788871
v 0.00830856 0.01566341 0.06788871
f 2 5 6
f 6 5 12
f 4 2 1
f 7 2 4
f 3 2 6
f 1 2 3
f 8 12 5
f 8 2 7
f 5 2 8
f 6 12 14
f 11 4 10
f 7 4 11
f 6 13 9
f 9 3 6
f 18 19 15
f 15 14 18
f 6 14 15
f 21 20 16
f 16 17 21
f 19 18 20
f 20 21 19
f 16 20 11
f 18 14 11
f 11 10 16
f 20 18 11
f 11 8 7
f 12 8 11
f 11 14 12
f 16 10 9
f 9 4 1
f 9 17 16
f 9 13 17
f 10 4 9
f 1 3 9
f 17 13 15
f 15 13 6
f 15 21 17
f 15 19 21

