# https://github.com/mikedh/trimesh
v 0.00550075 0.01440113 0.05432686
v 0.00056350 0.01440113 0.05432686
v 0.00550075 0.01235020 0.05432686
v 0.00550075 0.01440113 0.04871636
v 0.00056350 0.01235000 0.05432686
v 0.00056350 0.01440113 0.04871636
v 0.00342773 0.01235000 0.05432686
v 0.00550075 0.01235020 0.04871636
v 0.00056350 0.01235000 0.05045800
v 0.00056350 0.01235020 0.04871636
f 7 8 3
f 10 8 9
f 9 7 5
f 8 7 9
f 1 4 6
f 2 1 6
f 8 4 1
f 1 3 8
f 8 6 4
f 8 10 6
f 7 1 2
f 2 5 7
f 7 3 1
f 2 6 9
f 9 5 2
f 6 10 9

