# https://github.com/mikedh/trimesh
v 0.00757623 0.01749304 0.02780415
v 0.00898128 0.01650943 0.02729415
v 0.00757623 0.01749304 0.02729415
v 0.00757623 0.01235038 0.02780415
v 0.01391781 0.01305296 0.02780415
v 0.01342715 0.01339644 0.02729415
v 0.00757623 0.01234837 0.02729415
v 0.00757623 0.01234837 0.02779996
v 0.01372089 0.01235038 0.02780415
v 0.01421546 0.01284445 0.02780415
v 0.01404389 0.01296432 0.02729415
v 0.01371375 0.01234837 0.02729415
v 0.01283185 0.01234837 0.02779996
v 0.01372089 0.01235038 0.02729415
v 0.01372674 0.01235592 0.02729415
v 0.01372869 0.01235794 0.02780415
v 0.01421286 0.01284193 0.02729415
v 0.01420116 0.01285402 0.02729415
v 0.01376509 0.01239420 0.02780415
f 5 2 1
f 1 2 3
f 10 17 18
f 18 11 10
f 6 5 10
f 10 11 6
f 2 5 6
f 9 13 12
f 19 16 15
f 15 16 9
f 10 19 15
f 15 17 10
f 9 12 14
f 14 15 9
f 16 5 1
f 1 4 16
f 10 5 16
f 4 9 16
f 16 19 10
f 8 4 1
f 1 3 8
f 8 3 7
f 7 12 8
f 8 12 13
f 8 9 4
f 8 13 9
f 7 3 14
f 2 6 14
f 14 3 2
f 14 18 17
f 11 18 14
f 14 6 11
f 14 12 7
f 17 15 14

