# https://github.com/mikedh/trimesh
v 0.00266976 -0.00898559 0.06887043
v 0.00266976 -0.00898559 0.06121075
v 0.00138817 -0.00898559 0.06887043
v 0.00266976 -0.01588361 0.06887043
v 0.00138817 -0.00898559 0.06121075
v 0.00266976 -0.01735000 0.06121075
v 0.00138817 -0.01588525 0.06887043
v 0.00203260 -0.01588443 0.06887043
v 0.00266976 -0.01615544 0.06869272
v 0.00138817 -0.01735000 0.06121075
v 0.00266976 -0.01735000 0.06630745
v 0.00138817 -0.01621602 0.06865373
v 0.00266976 -0.01618409 0.06867397
v 0.00138817 -0.01735000 0.06630745
v 0.00266976 -0.01732134 0.06666063
v 0.00138817 -0.01622012 0.06865073
v 0.00266976 -0.01622503 0.06864698
v 0.00138817 -0.01731725 0.06668463
v 0.00266976 -0.01731971 0.06667788
v 0.00138817 -0.01624468 0.06863198
v 0.00266976 -0.01624959 0.06862823
v 0.00138817 -0.01730824 0.06675886
v 0.00266976 -0.01729514 0.06686759
v 0.00138817 -0.01729269 0.06687959
v 0.00138817 -0.01627170 0.06861098
v 0.00266976 -0.01626024 0.06861998
v 0.00266976 -0.01722064 0.06717803
v 0.00138817 -0.01721900 0.06718253
v 0.00138817 -0.01629217 0.06859299
v 0.00266976 -0.01627661 0.06860724
v 0.00266976 -0.01721572 0.06719152
v 0.00138817 -0.01710601 0.06749146
v 0.00138817 -0.01631755 0.06857049
v 0.00266976 -0.01631018 0.06857649
v 0.00266976 -0.01710601 0.06749146
v 0.00266976 -0.01710110 0.06750271
v 0.00138817 -0.01709291 0.06751996
v 0.00138817 -0.01634047 0.06854650
v 0.00266976 -0.01631919 0.06856749
v 0.00266976 -0.01708800 0.06753046
v 0.00138817 -0.01708309 0.06754020
v 0.00138817 -0.01652551 0.06835154
v 0.00266976 -0.01670646 0.06815883
v 0.00266976 -0.01696109 0.06778390
v 0.00138817 -0.01702741 0.06765193
v 0.00138817 -0.01703642 0.06763393
v 0.00138817 -0.01669581 0.06817082
v 0.00138817 -0.01672529 0.06813633
v 0.00266976 -0.01675476 0.06810034
v 0.00266976 -0.01695863 0.06778840
v 0.00138817 -0.01695290 0.06779890
v 0.00138817 -0.01696355 0.06777865
v 0.00138817 -0.01675476 0.06810034
v 0.00266976 -0.01682436 0.06799536
v 0.00266976 -0.01695208 0.06779965
v 0.00266976 -0.01694062 0.06781765
v 0.00266976 -0.01690951 0.06786639
v 0.00138817 -0.01690050 0.06787988
v 0.00138817 -0.01683173 0.06798411
f 33 39 34
f 34 30 33
f 7 12 13
f 13 12 17
f 33 30 29
f 30 25 29
f 7 13 9
f 24 19 23
f 17 12 16
f 16 21 17
f 20 21 16
f 8 9 4
f 7 9 8
f 14 11 15
f 51 57 58
f 49 43 48
f 32 31 35
f 18 15 19
f 14 15 18
f 27 24 23
f 26 21 20
f 26 20 25
f 26 25 30
f 55 51 50
f 49 48 53
f 53 54 49
f 47 48 43
f 19 24 22
f 22 18 19
f 24 27 28
f 28 27 31
f 28 31 32
f 57 51 56
f 51 55 56
f 54 53 59
f 57 54 59
f 58 57 59
f 42 47 43
f 42 43 39
f 46 40 45
f 41 40 46
f 32 35 36
f 38 39 33
f 38 42 39
f 44 45 40
f 52 45 44
f 51 52 44
f 50 51 44
f 32 36 37
f 37 36 40
f 40 41 37
f 1 2 5
f 3 1 5
f 10 5 2
f 10 2 6
f 11 10 6
f 11 14 10
f 8 1 3
f 3 7 8
f 8 4 1
f 44 2 1
f 6 2 44
f 44 11 6
f 44 13 17
f 1 4 44
f 44 55 50
f 44 34 39
f 39 43 44
f 30 34 44
f 23 19 44
f 4 9 44
f 44 15 11
f 44 9 13
f 17 21 44
f 44 43 49
f 49 54 44
f 44 27 23
f 19 15 44
f 44 26 30
f 44 35 31
f 31 27 44
f 21 26 44
f 44 54 57
f 44 36 35
f 57 56 44
f 44 56 55
f 40 36 44
f 3 5 37
f 37 7 3
f 5 10 37
f 37 52 51
f 37 12 7
f 10 14 37
f 33 29 37
f 14 18 37
f 37 29 25
f 25 20 37
f 37 16 12
f 37 22 24
f 20 16 37
f 37 51 58
f 46 45 37
f 58 59 37
f 37 28 32
f 37 53 48
f 48 47 37
f 18 22 37
f 24 28 37
f 37 38 33
f 37 59 53
f 47 42 37
f 37 45 52
f 37 41 46
f 42 38 37

