# https://github.com/mikedh/trimesh
v 0.00002854 0.00618915 0.06959911
v -0.00058722 0.00618915 0.06959911
v 0.00002854 0.00580386 0.06959911
v 0.00002854 0.00618915 0.06054805
v -0.00090056 0.00618915 0.06957430
v -0.00016373 0.00580386 0.06959822
v -0.00014782 0.00580386 0.06959911
v 0.00002854 0.00580386 0.06054805
v -0.00090056 0.00618915 0.06054805
v -0.00090056 0.00580386 0.06953354
v -0.00090056 0.00580386 0.06054805
f 6 2 5
f 5 10 6
f 2 6 7
f 1 4 9
f 5 2 9
f 9 2 1
f 9 10 5
f 11 10 9
f 8 4 1
f 1 3 8
f 8 9 4
f 11 9 8
f 7 10 11
f 7 8 3
f 11 8 7
f 7 6 10
f 1 2 7
f 7 3 1

