# https://github.com/mikedh/trimesh
v 0.00138817 -0.00567769 0.06121068
v 0.00138817 -0.00391451 0.06121068
v 0.00266976 -0.00567769 0.06121068
v 0.00138817 -0.00567769 0.06820122
v 0.00139206 -0.00002167 0.06121068
v 0.00138817 -0.00002558 0.06653006
v 0.00266976 0.00002072 0.06121068
v 0.00266976 -0.00567769 0.06820122
v 0.00138817 -0.00068991 0.06820122
v 0.00139281 0.00002072 0.06121068
v 0.00138817 -0.00002558 0.06659986
v 0.00266976 0.00002072 0.06820122
v 0.00205719 0.00002072 0.06820122
v 0.00196122 0.00002072 0.06809994
v 0.00138817 -0.00059397 0.06809994
v 0.00139281 0.00002072 0.06659986
v 0.00138817 -0.00006127 0.06698515
v 0.00171697 0.00002072 0.06774955
v 0.00138817 -0.00037029 0.06777898
v 0.00138817 -0.00006351 0.06699746
v 0.00142969 0.00002072 0.06699336
v 0.00153733 0.00002072 0.06737590
v 0.00138817 -0.00033348 0.06771670
v 0.00138817 -0.00017004 0.06737590
f 5 2 6
f 5 6 10
f 13 14 9
f 9 14 15
f 11 17 16
f 24 23 22
f 24 22 21
f 18 23 19
f 18 22 23
f 19 15 18
f 18 15 14
f 20 21 16
f 16 17 20
f 24 21 20
f 8 4 1
f 1 3 8
f 5 3 1
f 5 7 3
f 5 10 7
f 1 2 5
f 12 8 3
f 3 7 12
f 4 8 13
f 13 9 4
f 8 12 13
f 11 16 10
f 10 6 11
f 7 10 18
f 18 12 7
f 18 13 12
f 14 13 18
f 10 16 18
f 16 21 18
f 18 21 22
f 1 4 20
f 20 2 1
f 6 2 20
f 4 9 20
f 20 23 24
f 9 15 20
f 20 11 6
f 20 15 19
f 19 23 20
f 17 11 20

