# https://github.com/mikedh/trimesh
v -0.00436470 0.01461536 0.05432741
v -0.00436470 0.01461536 0.05606411
v -0.00436470 0.01550930 0.05432741
v 0.01201049 0.01461536 0.05432741
v -0.00436470 0.01550930 0.05606411
v 0.01168514 0.01461536 0.05606411
v 0.01208941 0.01550930 0.05432741
v 0.01201049 0.01461536 0.05569994
v 0.01168192 0.01550930 0.05606411
v 0.01208941 0.01550930 0.05569994
f 6 10 9
f 10 6 8
f 1 2 5
f 5 3 1
f 1 3 4
f 4 3 7
f 3 5 10
f 7 3 10
f 5 9 10
f 6 5 2
f 6 9 5
f 8 2 1
f 1 4 8
f 8 6 2
f 8 4 7
f 7 10 8

