# https://github.com/mikedh/trimesh
v 0.02340440 -0.00380532 0.06959999
v 0.01865114 -0.00380532 0.06959999
v 0.02263483 -0.00530514 0.06959999
v 0.02340440 -0.00380532 0.06170012
v 0.01865114 -0.00680526 0.06959999
v 0.01865114 -0.00380532 0.06070000
v 0.02161867 -0.00680526 0.06959999
v 0.02169404 -0.00680526 0.06260702
v 0.02263483 -0.00530514 0.06170012
v 0.02174522 -0.00484876 0.06070000
v 0.02228029 -0.00380532 0.06070000
v 0.01865114 -0.00680526 0.06070000
v 0.02169404 -0.00680526 0.06170012
v 0.02041686 -0.00680526 0.06070000
v 0.02158796 -0.00680526 0.06161039
v 0.02098962 -0.00680526 0.06113821
f 8 3 7
f 10 11 4
f 4 9 10
f 10 9 13
f 14 10 16
f 15 10 13
f 15 16 10
f 12 5 2
f 2 6 12
f 2 5 3
f 3 1 2
f 5 7 3
f 2 1 11
f 11 6 2
f 1 4 11
f 9 8 13
f 3 8 9
f 9 4 1
f 1 3 9
f 10 12 6
f 6 11 10
f 10 14 12
f 15 7 5
f 5 12 15
f 13 8 15
f 15 8 7
f 12 14 15
f 14 16 15

