# https://github.com/mikedh/trimesh
v 0.00778049 0.01735000 0.06049986
v 0.00890458 0.01656264 0.06049986
v 0.00907967 0.01644020 0.05959674
v 0.00778049 0.01735000 0.05959674
v 0.00364527 0.01735000 0.06049986
v 0.00925202 0.01631926 0.06049986
v 0.00925202 0.01631926 0.05959674
v 0.00364527 0.01735000 0.05959674
v 0.00364527 0.01222540 0.06049986
v 0.00925202 0.01222339 0.06049986
v 0.00925202 0.01235035 0.05959674
v 0.00364527 0.01235035 0.05959674
v 0.00364527 0.01222339 0.06036671
v 0.00409590 0.01222339 0.06049986
v 0.00925202 0.01222339 0.05960001
v 0.00364527 0.01222339 0.05960001
f 7 3 6
f 6 3 2
f 3 1 2
f 4 1 3
f 13 14 9
f 14 10 6
f 14 1 5
f 5 9 14
f 6 2 14
f 14 2 1
f 5 1 4
f 4 8 5
f 13 9 5
f 13 12 16
f 5 8 13
f 8 12 13
f 13 15 10
f 10 14 13
f 16 15 13
f 6 10 11
f 11 7 6
f 10 15 11
f 11 4 3
f 3 7 11
f 8 4 11
f 11 12 8
f 11 15 16
f 16 12 11

