# https://github.com/mikedh/trimesh
v 0.00364397 -0.01025805 0.06198921
v 0.00364397 -0.01025805 0.06528830
v 0.00364397 -0.00998808 0.06198921
v 0.00756674 -0.01025805 0.06198921
v 0.00364397 -0.00998808 0.06528830
v 0.00756674 -0.01025805 0.06528830
v 0.00760199 -0.00998808 0.06198921
v 0.00760083 -0.00999876 0.06198921
v 0.00756867 -0.01024507 0.06528830
v 0.00760199 -0.00998808 0.06528830
f 7 10 8
f 10 9 8
f 8 9 4
f 4 9 6
f 1 2 5
f 5 3 1
f 3 5 10
f 7 3 10
f 1 3 8
f 8 3 7
f 8 4 1
f 6 5 2
f 6 10 5
f 6 9 10
f 6 2 1
f 1 4 6

