# https://github.com/mikedh/trimesh
v -0.00195130 -0.01234710 0.05490010
v -0.00074754 -0.01234710 0.05490010
v -0.00195130 -0.01234710 0.05589639
v -0.00195130 -0.00473686 0.05490010
v -0.00074754 -0.01234710 0.05589639
v -0.00074754 -0.00357633 0.05490010
v -0.00195130 -0.00336596 0.05589639
v -0.00195130 -0.00441383 0.05493404
v -0.00074754 -0.00320943 0.05493414
v -0.00074754 -0.00330215 0.05492546
v -0.00074754 -0.00355938 0.05490156
v -0.00074754 -0.00216156 0.05589639
v -0.00195130 -0.00336596 0.05589493
v -0.00195130 -0.00408481 0.05503030
v -0.00074754 -0.00287543 0.05503187
v -0.00074754 -0.00219347 0.05569752
v -0.00195130 -0.00340883 0.05565773
v -0.00195130 -0.00407285 0.05503401
v -0.00074754 -0.00286845 0.05503411
v -0.00074754 -0.00219546 0.05568992
v -0.00195130 -0.00341382 0.05564115
v -0.00074754 -0.00220942 0.05564115
v -0.00195130 -0.00380066 0.05518148
v -0.00074754 -0.00283256 0.05505342
v -0.00195130 -0.00354542 0.05541283
v -0.00074754 -0.00231710 0.05544911
v -0.00195130 -0.00377972 0.05519299
v -0.00074754 -0.00257532 0.05519299
v -0.00195130 -0.00355440 0.05539995
v -0.00074754 -0.00232109 0.05544287
v -0.00195130 -0.00376975 0.05520079
v -0.00074754 -0.00252847 0.05523054
v -0.00074754 -0.00235100 0.05539995
f 4 8 9
f 6 4 11
f 10 4 9
f 10 11 4
f 9 8 14
f 15 14 18
f 18 19 15
f 9 14 15
f 31 32 28
f 31 28 27
f 24 19 18
f 17 20 22
f 22 21 17
f 16 20 17
f 29 33 32
f 25 33 29
f 29 32 31
f 25 21 26
f 26 21 22
f 23 24 18
f 28 24 23
f 23 27 28
f 16 17 13
f 13 7 12
f 12 16 13
f 30 33 25
f 25 26 30
f 1 2 5
f 5 3 1
f 12 7 5
f 5 7 3
f 4 2 1
f 4 6 2
f 1 3 13
f 3 7 13
f 13 4 1
f 8 4 13
f 13 14 8
f 31 27 13
f 18 14 13
f 13 23 18
f 13 21 25
f 13 29 31
f 13 17 21
f 25 29 13
f 27 23 13
f 30 10 9
f 30 5 2
f 12 5 30
f 2 6 30
f 6 11 30
f 30 16 12
f 11 10 30
f 22 20 30
f 9 15 30
f 30 28 32
f 30 15 19
f 32 33 30
f 30 20 16
f 19 24 30
f 30 24 28
f 30 26 22

