# https://github.com/mikedh/trimesh
v 0.02162991 -0.00680556 0.06852754
v 0.02162204 -0.00680556 0.06927789
v 0.02149507 -0.00699346 0.06927789
v 0.02148917 -0.00701382 0.06852754
v 0.01660301 -0.00680556 0.06852754
v 0.01660301 -0.00680556 0.06927789
v 0.02110040 -0.00757613 0.06927789
v 0.02112501 -0.00755170 0.06852754
v 0.01660301 -0.00840526 0.06852754
v 0.01660301 -0.00840526 0.06927789
v 0.02108416 -0.00759993 0.06927789
v 0.02107579 -0.00761214 0.06927789
v 0.02105463 -0.00763813 0.06927789
v 0.02105463 -0.00763813 0.06852754
v 0.02020132 -0.00840526 0.06852754
v 0.02020132 -0.00840526 0.06927789
v 0.02097294 -0.00771173 0.06927789
f 15 14 17
f 17 16 15
f 14 8 13
f 13 17 14
f 12 13 8
f 8 4 3
f 3 7 8
f 1 2 3
f 3 4 1
f 8 7 11
f 11 12 8
f 6 2 1
f 6 1 5
f 10 6 5
f 5 9 10
f 9 15 16
f 16 10 9
f 5 1 4
f 4 9 5
f 4 15 9
f 4 14 15
f 4 8 14
f 2 6 11
f 6 10 11
f 10 16 11
f 16 17 11
f 17 13 11
f 13 12 11
f 11 3 2
f 7 3 11

