# https://github.com/mikedh/trimesh
v -0.00436470 -0.00919547 0.02580000
v -0.00436470 -0.00614730 0.02580000
v -0.00246944 -0.00919547 0.02580000
v -0.00436470 -0.00919547 0.03280000
v -0.00436470 -0.00586952 0.02583426
v -0.00246944 -0.00481092 0.02583426
v -0.00246944 -0.00513427 0.02580000
v -0.00246944 -0.00919547 0.03280000
v -0.00436470 -0.00614730 0.03280000
v -0.00436470 -0.00561040 0.02593430
v -0.00246944 -0.00476145 0.02585071
v -0.00246944 -0.00513427 0.03280000
v -0.00246944 -0.00481092 0.03276574
v -0.00436470 -0.00586952 0.03276574
v -0.00279837 -0.00476145 0.02593430
v -0.00436470 -0.00538818 0.02609327
v -0.00246944 -0.00476145 0.03274930
v -0.00436470 -0.00561040 0.03266570
v -0.00313564 -0.00476145 0.02609327
v -0.00436470 -0.00521761 0.02630020
v -0.00258020 -0.00476145 0.03272120
v -0.00279837 -0.00476145 0.03266570
v -0.00436470 -0.00538818 0.03250674
v -0.00339444 -0.00476145 0.02630020
v -0.00436470 -0.00511040 0.02654139
v -0.00302433 -0.00476145 0.03255950
v -0.00313564 -0.00476145 0.03250674
v -0.00436470 -0.00521761 0.03229980
v -0.00355695 -0.00476145 0.02654139
v -0.00436470 -0.00507395 0.02680039
v -0.00339444 -0.00476145 0.03229980
v -0.00436470 -0.00511040 0.03205861
v -0.00361242 -0.00476145 0.02680039
v -0.00436470 -0.00507395 0.03179961
v -0.00355695 -0.00476145 0.03205861
v -0.00361242 -0.00476145 0.03179961
f 6 5 11
f 2 6 7
f 5 6 2
f 11 5 10
f 18 17 21
f 18 14 17
f 25 24 20
f 19 16 20
f 20 24 19
f 24 25 29
f 29 25 30
f 30 33 29
f 10 16 15
f 16 19 15
f 11 10 15
f 14 9 13
f 9 12 13
f 17 14 13
f 35 36 34
f 28 23 27
f 27 31 28
f 32 35 34
f 31 35 32
f 28 31 32
f 22 23 18
f 22 18 21
f 26 27 23
f 23 22 26
f 8 4 1
f 1 3 8
f 2 3 1
f 2 7 3
f 30 34 36
f 36 33 30
f 4 8 12
f 12 9 4
f 13 8 3
f 13 6 11
f 3 7 13
f 7 6 13
f 11 17 13
f 13 12 8
f 1 4 32
f 4 9 32
f 32 2 1
f 5 2 32
f 32 10 5
f 30 25 32
f 32 34 30
f 20 16 32
f 32 23 28
f 32 16 10
f 14 18 32
f 32 9 14
f 32 25 20
f 18 23 32
f 26 17 11
f 21 17 26
f 26 29 33
f 36 35 26
f 33 36 26
f 26 19 24
f 24 29 26
f 11 15 26
f 26 15 19
f 26 35 31
f 31 27 26
f 26 22 21

