# https://github.com/mikedh/trimesh
v -0.00242551 -0.00440170 0.05870362
v -0.00242551 -0.00383899 0.05870362
v -0.00198481 -0.00440170 0.05870362
v -0.00242551 -0.00440170 0.06815052
v -0.00198481 -0.00339837 0.05870362
v -0.00242551 -0.00383899 0.06659937
v -0.00198481 -0.00440170 0.06850257
v -0.00198481 -0.00398082 0.06811502
v -0.00242551 -0.00435289 0.06809967
v -0.00198481 -0.00339837 0.06659937
v -0.00242551 -0.00383948 0.06660417
v -0.00198481 -0.00340249 0.06664446
v -0.00198481 -0.00396658 0.06809967
v -0.00198481 -0.00395371 0.06808145
v -0.00198481 -0.00356093 0.06741380
v -0.00242551 -0.00397837 0.06737638
v -0.00198481 -0.00340289 0.06664830
v -0.00198481 -0.00354285 0.06737638
v -0.00198481 -0.00353116 0.06733418
f 12 10 6
f 6 17 12
f 8 4 7
f 15 16 9
f 9 14 15
f 13 14 9
f 9 8 13
f 4 8 9
f 17 16 19
f 11 17 6
f 11 16 17
f 18 16 15
f 18 19 16
f 2 5 3
f 2 3 1
f 1 3 4
f 3 7 4
f 5 2 10
f 10 2 6
f 11 2 1
f 1 4 11
f 6 2 11
f 4 9 11
f 11 9 16
f 3 5 18
f 18 7 3
f 5 10 18
f 18 12 17
f 15 14 18
f 10 12 18
f 18 8 7
f 13 8 18
f 18 14 13
f 17 19 18

