# https://github.com/mikedh/trimesh
v -0.00198481 -0.01056756 0.06649628
v -0.00198481 -0.01056756 0.06466955
v -0.00242551 -0.01056756 0.06649628
v -0.00198481 -0.01732477 0.06649628
v -0.00242551 -0.01056756 0.06466955
v -0.00198481 -0.01734934 0.06466955
v -0.00242551 -0.01732477 0.06649628
v -0.00198481 -0.01733008 0.06645783
v -0.00242551 -0.01734934 0.06466955
v -0.00198481 -0.01734934 0.06630817
v -0.00242551 -0.01734934 0.06630817
f 4 7 8
f 10 8 11
f 11 8 7
f 1 2 5
f 3 1 5
f 9 5 2
f 9 2 6
f 7 1 3
f 7 4 1
f 8 2 1
f 6 2 8
f 1 4 8
f 8 10 6
f 3 5 11
f 5 9 11
f 11 7 3
f 11 9 6
f 6 10 11

