# https://github.com/mikedh/trimesh
v 0.00898258 0.01566325 0.06898060
v 0.00898258 0.01522609 0.06917467
v 0.00898258 0.01566325 0.06788871
v 0.00364527 0.01566325 0.06898060
v 0.00898258 0.01520692 0.06918302
v 0.00364527 0.01520692 0.06918302
v 0.00898258 0.01286500 0.06788871
v 0.00364527 0.01566325 0.06788871
v 0.00898258 0.01519295 0.06918712
v 0.00364527 0.01519843 0.06918548
v 0.00898258 0.01286500 0.06956183
v 0.00364527 0.01286500 0.06788871
v 0.00898258 0.01519021 0.06918777
v 0.00364527 0.01514146 0.06920153
v 0.00898258 0.01386586 0.06947503
v 0.00364527 0.01407951 0.06943687
v 0.00593829 0.01286500 0.06955053
v 0.00364527 0.01286500 0.06954201
v 0.00898258 0.01511735 0.06920398
v 0.00364527 0.01509790 0.06921119
v 0.00898258 0.01390887 0.06947126
f 2 1 4
f 16 18 17
f 11 16 17
f 9 10 14
f 15 16 11
f 15 21 16
f 16 21 19
f 9 5 6
f 6 10 9
f 6 5 2
f 6 2 4
f 16 19 20
f 20 19 14
f 9 14 13
f 14 19 13
f 1 3 8
f 4 1 8
f 8 3 7
f 7 12 8
f 7 11 17
f 17 12 7
f 17 18 12
f 12 18 20
f 20 18 16
f 4 8 20
f 20 8 12
f 20 6 4
f 20 14 10
f 10 6 20
f 13 11 7
f 13 3 1
f 7 3 13
f 1 2 13
f 13 5 9
f 13 15 11
f 2 5 13
f 21 15 13
f 13 19 21

