# https://github.com/mikedh/trimesh
v 0.00935771 0.01269522 0.02572593
v 0.01111909 0.01269522 0.02572593
v 0.00980855 0.01234790 0.02572593
v 0.00757623 0.01234790 0.02580007
v 0.00757623 0.01269522 0.02580007
v 0.01111909 0.01269522 0.02729399
v 0.01111909 0.01234790 0.02572593
v 0.00757623 0.01234790 0.02729399
v 0.00757623 0.01269522 0.02729399
v 0.01111909 0.01234790 0.02729399
f 1 3 4
f 5 1 4
f 7 8 4
f 4 3 7
f 10 8 7
f 7 1 2
f 3 1 7
f 2 6 7
f 6 10 7
f 9 8 10
f 9 10 6
f 2 1 5
f 5 6 2
f 5 9 6
f 4 8 5
f 8 9 5

