# https://github.com/mikedh/trimesh
v 0.01003831 0.00738376 0.06180595
v 0.01003831 0.00738376 0.06709579
v 0.01003831 0.00856449 0.06180595
v 0.02126131 0.00738376 0.06180595
v 0.01003831 0.00856436 0.06709579
v 0.02125142 0.00738376 0.06709579
v 0.01052058 0.00875966 0.06180595
v 0.02105368 0.00763833 0.06180595
v 0.02113497 0.00753906 0.06709579
v 0.02126131 0.00738376 0.06644803
v 0.01052058 0.00875953 0.06709579
v 0.02121846 0.00743602 0.06709579
v 0.01098418 0.00875966 0.06709579
v 0.01980680 0.00875966 0.06180595
v 0.02096359 0.00771969 0.06709579
v 0.02105368 0.00763833 0.06709579
v 0.02106906 0.00761988 0.06709579
v 0.02065380 0.00799864 0.06709579
v 0.01980680 0.00875966 0.06709579
v 0.02047143 0.00816256 0.06709579
f 7 11 13
f 18 8 14
f 6 10 12
f 20 14 19
f 20 18 14
f 15 16 8
f 8 18 15
f 9 12 10
f 4 8 9
f 9 10 4
f 8 16 17
f 17 9 8
f 1 3 8
f 8 4 1
f 8 3 7
f 7 14 8
f 13 14 7
f 19 14 13
f 5 3 1
f 1 2 5
f 7 3 5
f 5 11 7
f 1 4 10
f 10 2 1
f 10 6 2
f 2 6 17
f 17 5 2
f 19 13 17
f 17 13 11
f 11 5 17
f 6 12 17
f 17 20 19
f 16 15 17
f 18 20 17
f 17 15 18
f 12 9 17

