# https://github.com/mikedh/trimesh
v 0.01171233 -0.01440014 0.03833265
v 0.01163407 -0.01440014 0.03909416
v 0.01199183 -0.01440096 0.03909416
v 0.01199183 -0.01440096 0.03833265
v 0.00339025 -0.01440014 0.03833265
v 0.00339025 -0.01440014 0.03909416
v 0.01216297 -0.01635023 0.03909416
v 0.01217587 -0.01649764 0.03833265
v 0.00339025 -0.01649764 0.03833265
v 0.00339025 -0.01649764 0.03909416
v 0.01217587 -0.01649764 0.03909416
f 1 2 3
f 1 3 4
f 8 4 7
f 7 11 8
f 7 4 3
f 6 1 5
f 6 2 1
f 5 9 6
f 6 9 10
f 4 9 5
f 5 1 4
f 8 9 4
f 11 9 8
f 10 9 11
f 7 6 10
f 7 3 2
f 2 6 7
f 10 11 7

