# https://github.com/mikedh/trimesh
v -0.00436470 0.00524290 0.05870362
v -0.00436470 0.00803653 0.05870362
v -0.00380787 0.00524290 0.05870362
v -0.00436470 0.00524290 0.06751008
v -0.00380787 0.00803653 0.05870362
v -0.00436470 0.00803653 0.06957335
v -0.00380787 0.00524290 0.06802829
v -0.00380787 0.00524618 0.06803576
v -0.00380787 0.00527462 0.06809974
v -0.00436470 0.00550514 0.06809974
v -0.00380787 0.00803653 0.06959574
v -0.00436470 0.00745981 0.06949764
v -0.00380787 0.00722928 0.06949764
v -0.00380787 0.00788339 0.06957761
v -0.00380787 0.00551417 0.06839083
v -0.00436470 0.00601678 0.06872032
v -0.00380787 0.00668483 0.06928758
v -0.00436470 0.00668347 0.06919801
v -0.00380787 0.00578626 0.06872032
v -0.00380787 0.00645294 0.06919801
f 11 6 14
f 6 13 14
f 12 13 6
f 13 12 17
f 8 4 7
f 8 9 4
f 20 17 18
f 18 17 12
f 19 16 15
f 4 9 10
f 9 15 10
f 10 15 16
f 1 2 5
f 5 3 1
f 2 6 5
f 5 6 11
f 1 3 4
f 3 7 4
f 18 19 20
f 18 16 19
f 3 5 15
f 15 7 3
f 15 5 11
f 11 14 15
f 15 17 20
f 20 19 15
f 15 14 13
f 15 8 7
f 13 17 15
f 9 8 15
f 10 2 1
f 10 6 2
f 1 4 10
f 10 12 6
f 10 18 12
f 16 18 10

