# https://github.com/mikedh/trimesh
v 0.02386817 0.00289820 0.06501963
v 0.02417641 0.00229995 0.06501963
v 0.02386817 0.00289820 0.06362688
v 0.00925403 0.00289820 0.06501963
v 0.02417641 0.00229995 0.06362688
v 0.02417641 0.00002072 0.06501963
v 0.00925403 0.00289820 0.06362688
v 0.00925403 0.00002072 0.06501963
v 0.02417641 0.00002072 0.06362688
v 0.00925403 0.00002072 0.06362688
f 8 6 2
f 8 1 4
f 2 1 8
f 4 1 7
f 7 1 3
f 7 8 4
f 10 8 7
f 6 8 9
f 9 8 10
f 5 7 3
f 10 7 5
f 5 9 10
f 5 1 2
f 3 1 5
f 2 6 5
f 6 9 5

