# https://github.com/mikedh/trimesh
v 0.01507928 0.01223935 0.06859533
v 0.01021482 0.01564548 0.06859533
v 0.01343921 0.01223935 0.06859533
v 0.01507879 0.01223935 0.06212481
v 0.01436758 0.01273769 0.06212481
v 0.01003714 0.01576955 0.06859533
v 0.01004504 0.01576436 0.06212481
v 0.01051934 0.01224142 0.06859533
v 0.01064125 0.01223935 0.06212481
v 0.01003714 0.01243633 0.06859533
v 0.01003714 0.01576955 0.06212481
v 0.01051934 0.01224142 0.06212481
v 0.01003714 0.01243633 0.06212481
f 2 7 6
f 1 4 5
f 5 2 1
f 7 2 5
f 6 7 11
f 12 9 8
f 8 9 3
f 11 10 6
f 13 10 11
f 9 5 4
f 13 11 9
f 9 12 13
f 7 5 9
f 9 11 7
f 1 3 9
f 9 4 1
f 8 3 1
f 6 10 8
f 8 2 6
f 1 2 8
f 13 12 8
f 8 10 13

