# https://github.com/mikedh/trimesh
v -0.00296999 -0.00771598 0.06959969
v -0.00296999 -0.00706473 0.06951972
v -0.00361222 -0.00798231 0.06959969
v -0.00296999 -0.01237324 0.06959969
v -0.00340558 -0.00706473 0.06949749
v -0.00296999 -0.00706473 0.06644597
v -0.00361222 -0.00715116 0.06949749
v -0.00361222 -0.01237726 0.06959938
v -0.00361222 -0.01259937 0.06958548
v -0.00296999 -0.01295314 0.06956171
v -0.00358267 -0.00706473 0.06946940
v -0.00361222 -0.00706473 0.06644597
v -0.00296999 -0.01733201 0.06644597
v -0.00361222 -0.01299535 0.06955862
v -0.00296999 -0.01360037 0.06951293
v -0.00361222 -0.01733201 0.06644597
v -0.00296999 -0.01729884 0.06679731
v -0.00361222 -0.01366268 0.06950830
v -0.00296999 -0.01372700 0.06950274
v -0.00361222 -0.01729985 0.06678033
v -0.00296999 -0.01728477 0.06690753
v -0.00361222 -0.01728276 0.06691803
v -0.00361222 -0.01375615 0.06949904
v -0.00296999 -0.01409082 0.06943050
v -0.00296999 -0.01720839 0.06721287
v -0.00361222 -0.01721643 0.06718632
v -0.00361222 -0.01440439 0.06936597
v -0.00296999 -0.01438027 0.06937091
v -0.00296999 -0.01711392 0.06747066
v -0.00361222 -0.01711090 0.06747899
v -0.00361222 -0.01517021 0.06919370
v -0.00296999 -0.01522348 0.06917734
v -0.00296999 -0.01706970 0.06756791
v -0.00361222 -0.01707271 0.06756297
v -0.00361222 -0.01524056 0.06917178
v -0.00296999 -0.01531996 0.06914183
v -0.00296999 -0.01697925 0.06774852
v -0.00361222 -0.01697221 0.06776303
v -0.00361222 -0.01554307 0.06905384
v -0.00296999 -0.01553001 0.06905848
v -0.00296999 -0.01687070 0.06792604
v -0.00361222 -0.01686467 0.06793283
v -0.00361222 -0.01569282 0.06898870
v -0.00296999 -0.01567071 0.06900136
v -0.00296999 -0.01676317 0.06808843
v -0.00361222 -0.01680136 0.06803039
v -0.00361222 -0.01581342 0.06892078
v -0.00296999 -0.01579734 0.06893066
v -0.00296999 -0.01671091 0.06815296
v -0.00361222 -0.01676216 0.06808905
v -0.00296999 -0.01609985 0.06873307
v -0.00361222 -0.01618327 0.06867904
v -0.00296999 -0.01665864 0.06821316
v -0.00361222 -0.01665563 0.06821718
v -0.00296999 -0.01618830 0.06867441
v -0.00361222 -0.01627171 0.06861112
v -0.00296999 -0.01658729 0.06829004
v -0.00361222 -0.01649684 0.06838667
v -0.00296999 -0.01625865 0.06862007
v -0.00361222 -0.01634508 0.06854443
v -0.00296999 -0.01633302 0.06855524
v -0.00296999 -0.01642849 0.06845737
v -0.00361222 -0.01639633 0.06849164
f 4 1 3
f 3 1 2
f 11 12 7
f 8 4 3
f 11 7 5
f 5 7 3
f 3 2 5
f 31 35 32
f 27 31 28
f 28 31 32
f 23 27 24
f 27 28 24
f 24 19 23
f 9 10 4
f 4 8 9
f 32 35 36
f 17 16 13
f 26 21 25
f 10 9 14
f 14 15 10
f 45 50 46
f 41 46 42
f 45 46 41
f 41 42 38
f 38 37 41
f 21 26 22
f 22 17 21
f 43 48 44
f 47 48 43
f 15 14 18
f 19 15 18
f 23 19 18
f 29 33 30
f 25 29 30
f 30 26 25
f 16 17 20
f 17 22 20
f 49 53 54
f 49 54 50
f 49 50 45
f 56 59 55
f 55 52 56
f 61 59 56
f 60 61 56
f 51 52 55
f 47 52 51
f 51 48 47
f 44 40 39
f 39 43 44
f 39 40 36
f 39 36 35
f 34 30 33
f 34 33 37
f 34 37 38
f 57 58 54
f 54 53 57
f 60 63 62
f 62 61 60
f 62 63 58
f 58 57 62
f 12 6 13
f 13 16 12
f 5 2 6
f 6 12 5
f 5 12 11
f 63 12 16
f 35 31 63
f 63 8 3
f 3 7 63
f 63 7 12
f 63 27 23
f 50 54 63
f 60 56 63
f 63 31 27
f 63 34 38
f 63 46 50
f 63 9 8
f 38 42 63
f 23 18 63
f 16 20 63
f 63 39 35
f 63 14 9
f 42 46 63
f 63 22 26
f 63 52 47
f 47 43 63
f 63 18 14
f 26 30 63
f 63 20 22
f 54 58 63
f 63 56 52
f 43 39 63
f 30 34 63
f 13 6 62
f 1 4 62
f 62 2 1
f 4 10 62
f 6 2 62
f 62 15 19
f 62 28 32
f 62 29 25
f 62 17 13
f 32 36 62
f 19 24 62
f 37 33 62
f 25 21 62
f 62 24 28
f 10 15 62
f 55 59 62
f 21 17 62
f 62 40 44
f 45 41 62
f 36 40 62
f 62 49 45
f 62 41 37
f 62 59 61
f 62 51 55
f 44 48 62
f 62 33 29
f 53 49 62
f 48 51 62
f 62 57 53

