# https://github.com/mikedh/trimesh
v -0.00242556 -0.00687385 0.06952412
v -0.00242556 -0.00666433 0.06950137
v -0.00248211 -0.00687385 0.06952146
v -0.00242556 -0.00687385 0.06650637
v -0.00294729 -0.00687385 0.06949782
v -0.00242556 -0.00662938 0.06949753
v -0.00296999 -0.00687385 0.06650637
v -0.00242556 -0.00642474 0.06650637
v -0.00242556 -0.00642474 0.06942988
v -0.00296999 -0.00687385 0.06949398
v -0.00296999 -0.00642474 0.06650637
v -0.00296999 -0.00642474 0.06932086
f 12 10 9
f 5 6 9
f 5 9 10
f 2 3 1
f 5 3 2
f 6 5 2
f 11 4 7
f 8 4 11
f 7 10 11
f 11 10 12
f 8 11 9
f 9 11 12
f 3 4 1
f 7 4 3
f 3 10 7
f 3 5 10
f 1 4 2
f 2 4 8
f 8 9 2
f 9 6 2

