# https://github.com/mikedh/trimesh
v 0.00789036 -0.01161374 0.06959923
v 0.00761849 -0.01105430 0.06959923
v 0.00789036 -0.01199804 0.06959923
v 0.00789036 -0.01161374 0.06180529
v 0.00364397 -0.01105430 0.06959923
v 0.00761849 -0.01105430 0.06180529
v 0.00364397 -0.01199804 0.06959923
v 0.00789036 -0.01199804 0.06180529
v 0.00364397 -0.01105430 0.06180529
v 0.00364397 -0.01199804 0.06180529
f 6 2 1
f 1 4 6
f 1 2 3
f 3 2 5
f 5 7 3
f 5 2 9
f 2 6 9
f 8 4 1
f 1 3 8
f 10 6 4
f 10 9 6
f 4 8 10
f 10 7 5
f 5 9 10
f 10 3 7
f 10 8 3

