# https://github.com/mikedh/trimesh
v -0.00211419 0.00426378 0.02780498
v -0.00211419 0.00426378 0.03267483
v -0.00211419 0.00919381 0.02780498
v 0.00363529 0.00426378 0.02780498
v -0.00180128 0.00426378 0.03276577
v -0.00211419 0.00453839 0.03276577
v -0.00211419 0.00919381 0.03280000
v 0.00363529 0.00919381 0.02780498
v 0.00363529 0.00426378 0.03280000
v -0.00211419 0.00458328 0.03277066
v -0.00158686 0.00426378 0.03278582
v -0.00211419 0.00486175 0.03280000
v 0.00363529 0.00919381 0.03280000
v -0.00087830 0.00426378 0.03280000
v -0.00143547 0.00426378 0.03279951
v -0.00176808 0.00459631 0.03280000
f 2 5 6
f 11 15 12
f 15 14 16
f 12 15 16
f 10 11 12
f 5 11 10
f 10 6 5
f 8 4 1
f 1 3 8
f 3 7 13
f 13 8 3
f 13 9 4
f 4 8 13
f 4 9 11
f 11 2 1
f 1 4 11
f 11 5 2
f 9 14 11
f 11 14 15
f 7 12 16
f 16 13 7
f 9 13 16
f 16 14 9
f 10 7 3
f 10 3 1
f 1 2 10
f 10 12 7
f 2 6 10

