# https://github.com/mikedh/trimesh
v 0.01507538 -0.01224243 0.06959999
v 0.01051760 -0.01224243 0.06959999
v 0.01492118 -0.01235005 0.06959999
v 0.01287359 -0.01378379 0.06949639
v 0.01084101 -0.01520702 0.06918259
v 0.01016115 -0.01568306 0.06899490
v 0.00996089 -0.01582328 0.06890407
v 0.00996089 -0.01582328 0.06631329
v 0.00996590 -0.01581978 0.06193127
v 0.01507488 -0.01224243 0.06193127
v 0.00996089 -0.01244575 0.06959924
v 0.01029532 -0.01235005 0.06959999
v 0.01078794 -0.01224243 0.06193127
v 0.01051560 -0.01224313 0.06193127
v 0.00996089 -0.01266835 0.06958498
v 0.00996089 -0.01377608 0.06949714
v 0.00996089 -0.01389352 0.06947312
v 0.00996089 -0.01484280 0.06926366
v 0.00996089 -0.01516495 0.06919235
v 0.00996089 -0.01520421 0.06918334
v 0.00996089 -0.01521017 0.06918184
v 0.00996089 -0.01567745 0.06899791
v 0.00996089 -0.01568306 0.06899565
v 0.00996089 -0.01582293 0.06193127
v 0.00996089 -0.01244575 0.06844612
v 0.00996240 -0.01244540 0.06193127
v 0.00996089 -0.01255512 0.06193127
f 1 9 10
f 8 1 7
f 8 9 1
f 1 4 5
f 7 1 6
f 1 5 6
f 4 15 16
f 2 11 12
f 2 13 14
f 14 11 2
f 3 12 11
f 3 11 15
f 3 4 1
f 3 15 4
f 22 6 5
f 5 21 22
f 4 16 17
f 14 26 25
f 11 14 25
f 7 6 23
f 6 22 23
f 18 5 4
f 4 17 18
f 27 25 26
f 5 18 19
f 9 8 24
f 20 21 5
f 5 19 20
f 1 10 13
f 13 2 1
f 1 2 3
f 2 12 3
f 24 13 10
f 24 10 9
f 24 14 13
f 24 26 14
f 24 27 26
f 20 17 16
f 20 8 7
f 15 11 20
f 20 16 15
f 20 24 8
f 20 22 21
f 7 23 20
f 11 25 20
f 20 23 22
f 20 18 17
f 25 27 20
f 20 19 18
f 27 24 20

