# https://github.com/mikedh/trimesh
v -0.00429254 0.01349838 0.06391827
v -0.00436470 0.01350026 0.06391827
v -0.00380787 0.01349838 0.06391827
v -0.00436470 0.01349838 0.06918947
v -0.00436470 0.01735000 0.06391827
v -0.00380787 0.01735000 0.06391827
v -0.00380787 0.01349838 0.06945908
v -0.00436470 0.01349838 0.06945908
v -0.00436470 0.01735000 0.06630840
v -0.00380787 0.01735000 0.06630840
v -0.00380787 0.01404883 0.06941189
v -0.00380787 0.01431839 0.06938856
v -0.00436470 0.01433649 0.06938476
v -0.00436470 0.01733643 0.06651996
v -0.00380787 0.01734661 0.06636102
v -0.00380787 0.01505056 0.06922582
v -0.00436470 0.01506904 0.06922202
v -0.00436470 0.01729156 0.06686227
v -0.00380787 0.01732474 0.06661327
v -0.00380787 0.01733567 0.06652810
v -0.00380787 0.01507394 0.06922039
v -0.00380787 0.01511918 0.06920792
v -0.00436470 0.01520740 0.06918296
v -0.00380787 0.01729307 0.06685467
v -0.00436470 0.01725009 0.06707546
v -0.00380787 0.01726706 0.06698866
v -0.00380787 0.01520740 0.06918296
v -0.00380787 0.01558857 0.06901371
v -0.00436470 0.01591054 0.06886996
v -0.00436470 0.01718260 0.06727888
v -0.00380787 0.01718562 0.06726966
v -0.00380787 0.01724858 0.06707980
v -0.00380787 0.01725009 0.06707491
v -0.00380787 0.01570545 0.06896163
v -0.00380787 0.01591054 0.06886996
v -0.00380787 0.01599273 0.06880540
v -0.00380787 0.01608850 0.06873000
v -0.00436470 0.01616315 0.06867087
v -0.00380787 0.01706271 0.06757453
v -0.00380787 0.01710268 0.06747634
v -0.00380787 0.01714943 0.06736134
v -0.00380787 0.01717695 0.06729353
v -0.00380787 0.01717996 0.06728594
v -0.00436470 0.01705932 0.06758158
v -0.00380787 0.01614543 0.06868497
v -0.00380787 0.01649794 0.06840017
v -0.00436470 0.01650699 0.06839258
v -0.00380787 0.01615297 0.06867901
v -0.00380787 0.01706045 0.06757941
v -0.00436470 0.01696469 0.06777850
v -0.00380787 0.01700314 0.06769876
v -0.00380787 0.01650699 0.06839258
v -0.00380787 0.01657108 0.06830795
v -0.00436470 0.01670379 0.06813165
v -0.00380787 0.01696469 0.06777850
v -0.00380787 0.01695828 0.06778718
v -0.00380787 0.01669022 0.06814955
v -0.00380787 0.01669550 0.06814250
f 1 4 2
f 15 14 20
f 10 14 15
f 9 14 10
f 13 8 12
f 25 33 26
f 18 26 24
f 25 26 18
f 20 14 19
f 14 18 19
f 19 18 24
f 25 30 31
f 30 44 39
f 11 8 7
f 11 12 8
f 30 42 43
f 43 31 30
f 32 33 25
f 25 31 32
f 30 39 40
f 51 44 50
f 51 50 55
f 29 23 28
f 28 23 27
f 12 16 17
f 13 12 17
f 41 42 30
f 30 40 41
f 49 39 44
f 44 51 49
f 53 54 47
f 47 52 53
f 34 35 29
f 29 28 34
f 21 17 16
f 54 58 56
f 50 54 56
f 55 50 56
f 57 58 54
f 54 53 57
f 38 48 46
f 47 38 46
f 46 52 47
f 37 38 29
f 17 21 22
f 23 17 22
f 27 23 22
f 45 48 38
f 38 37 45
f 29 35 36
f 36 37 29
f 2 5 1
f 1 6 3
f 5 6 1
f 9 6 5
f 9 10 6
f 3 7 8
f 8 1 3
f 4 1 8
f 17 5 2
f 2 4 17
f 17 23 29
f 50 44 17
f 17 9 5
f 17 30 25
f 4 8 17
f 25 18 17
f 17 44 30
f 14 9 17
f 17 54 50
f 17 8 13
f 17 18 14
f 29 38 17
f 47 54 17
f 17 38 47
f 3 6 36
f 36 7 3
f 36 26 33
f 6 10 36
f 36 43 42
f 36 15 20
f 52 46 36
f 36 51 55
f 20 19 36
f 10 15 36
f 39 49 36
f 36 11 7
f 24 26 36
f 36 19 24
f 36 16 12
f 33 32 36
f 36 53 52
f 12 11 36
f 35 34 36
f 31 43 36
f 36 32 31
f 36 40 39
f 42 41 36
f 36 28 27
f 36 41 40
f 36 49 51
f 48 45 36
f 55 56 36
f 58 57 36
f 36 34 28
f 36 21 16
f 36 56 58
f 36 57 53
f 36 46 48
f 27 22 36
f 36 22 21
f 36 45 37

