# https://github.com/mikedh/trimesh
v 0.00002854 0.01265344 0.06958383
v -0.00090056 0.01283479 0.06957179
v -0.00090056 0.01265344 0.06958338
v 0.00002854 0.01265344 0.06502657
v 0.00002854 0.01279668 0.06957402
v 0.00002854 0.01323361 0.06949640
v -0.00090056 0.01323361 0.06949327
v -0.00090056 0.01265344 0.06502657
v 0.00002854 0.01323361 0.06502657
v -0.00090056 0.01323361 0.06502657
f 2 1 5
f 5 6 2
f 3 1 2
f 2 6 7
f 9 5 1
f 1 4 9
f 6 5 9
f 10 7 9
f 9 7 6
f 2 7 8
f 8 3 2
f 8 7 10
f 8 9 4
f 10 9 8
f 8 4 1
f 1 3 8

