# https://github.com/mikedh/trimesh
v 0.01000564 0.01290553 0.06153640
v 0.01000564 0.01223941 0.06153640
v 0.01000564 0.01290553 0.06033727
v 0.00925257 0.01290553 0.06153640
v 0.00991084 0.01223935 0.06153640
v 0.01000564 0.01223935 0.06101109
v 0.01000564 0.01223935 0.06033727
v 0.00925257 0.01290553 0.06033727
v 0.00925257 0.01223935 0.06153640
v 0.00925257 0.01223935 0.06033727
f 6 2 5
f 9 2 1
f 9 1 4
f 5 2 9
f 4 1 8
f 1 3 8
f 8 9 4
f 10 9 8
f 7 8 3
f 10 8 7
f 1 2 6
f 6 3 1
f 6 7 3
f 5 9 6
f 6 9 10
f 10 7 6

