# https://github.com/mikedh/trimesh
v 0.00092146 -0.01730363 0.06679293
v 0.00095644 -0.01730363 0.06679293
v 0.00095644 -0.01730209 0.06680506
v 0.00095644 -0.01729189 0.06688412
v 0.00058541 -0.01730183 0.06680462
v 0.00058541 -0.01730333 0.06679293
v 0.00095644 -0.01686762 0.06679293
v 0.00095644 -0.01721890 0.06718443
v 0.00058541 -0.01729108 0.06688769
v 0.00058541 -0.01686762 0.06679293
v 0.00095644 -0.01686762 0.06793037
v 0.00058541 -0.01721852 0.06718566
v 0.00095644 -0.01710652 0.06749198
v 0.00058541 -0.01686762 0.06793037
v 0.00058541 -0.01687842 0.06791400
v 0.00095644 -0.01687612 0.06791745
v 0.00058541 -0.01710652 0.06749198
v 0.00095644 -0.01710114 0.06750334
v 0.00058541 -0.01689528 0.06788827
v 0.00095644 -0.01689784 0.06788438
v 0.00058541 -0.01709960 0.06750657
v 0.00095644 -0.01708202 0.06754365
v 0.00058541 -0.01708069 0.06754643
v 0.00058541 -0.01691120 0.06786378
v 0.00095644 -0.01694163 0.06781690
v 0.00095644 -0.01707463 0.06755846
v 0.00058541 -0.01706695 0.06757394
v 0.00058541 -0.01693634 0.06782503
v 0.00058541 -0.01695358 0.06779842
v 0.00095644 -0.01695337 0.06779875
v 0.00095644 -0.01702128 0.06766502
v 0.00058541 -0.01701594 0.06767582
v 0.00058541 -0.01695802 0.06779029
v 0.00095644 -0.01695576 0.06779441
v 0.00095644 -0.01699439 0.06771869
v 0.00058541 -0.01696596 0.06777559
v 0.00095644 -0.01696336 0.06778038
v 0.00095644 -0.01696515 0.06777704
f 5 6 1
f 5 1 4
f 12 8 13
f 13 17 12
f 3 1 2
f 3 4 1
f 9 4 8
f 8 12 9
f 5 4 9
f 18 17 13
f 33 34 29
f 17 18 21
f 21 18 23
f 25 20 24
f 30 29 34
f 25 29 30
f 23 18 22
f 22 26 23
f 28 29 25
f 25 24 28
f 19 24 20
f 23 26 27
f 26 32 27
f 33 36 37
f 36 38 37
f 37 34 33
f 36 32 31
f 31 32 26
f 20 16 15
f 15 19 20
f 11 14 15
f 15 16 11
f 35 38 36
f 36 31 35
f 10 7 2
f 2 1 10
f 10 1 6
f 10 11 7
f 10 14 11
f 14 10 15
f 15 10 6
f 15 6 5
f 15 36 33
f 15 12 17
f 5 9 15
f 15 9 12
f 17 21 15
f 29 28 15
f 33 29 15
f 15 21 23
f 23 27 15
f 15 32 36
f 15 28 24
f 24 19 15
f 15 27 32
f 7 11 35
f 2 7 35
f 35 3 2
f 13 8 35
f 8 4 35
f 4 3 35
f 35 18 13
f 11 16 35
f 35 22 18
f 35 20 25
f 35 30 34
f 35 16 20
f 25 30 35
f 26 22 35
f 34 37 35
f 35 37 38
f 35 31 26

