# https://github.com/mikedh/trimesh
v -0.00296999 -0.00813747 0.06959999
v -0.00296999 -0.00813747 0.06883783
v -0.00361222 -0.00813747 0.06959999
v -0.00296999 -0.01234946 0.06959999
v -0.00361222 -0.00813747 0.06883783
v -0.00296999 -0.01594044 0.06883783
v -0.00361222 -0.01234946 0.06959999
v -0.00296999 -0.01238766 0.06959984
v -0.00361222 -0.01594044 0.06883783
v -0.00296999 -0.01580217 0.06892870
v -0.00361222 -0.01589231 0.06886976
v -0.00361222 -0.01239377 0.06959977
v -0.00296999 -0.01239606 0.06959977
v -0.00296999 -0.01579835 0.06893101
v -0.00361222 -0.01580370 0.06892781
v -0.00361222 -0.01241745 0.06959820
v -0.00296999 -0.01243960 0.06959686
v -0.00296999 -0.01575863 0.06895302
v -0.00361222 -0.01567002 0.06900211
v -0.00361222 -0.01260078 0.06958582
v -0.00361222 -0.01298577 0.06955978
v -0.00296999 -0.01277876 0.06957388
v -0.00296999 -0.01568148 0.06899570
v -0.00296999 -0.01567002 0.06900181
v -0.00296999 -0.01562419 0.06902076
v -0.00296999 -0.01560204 0.06902987
v -0.00296999 -0.01552183 0.06906277
v -0.00361222 -0.01556919 0.06904337
v -0.00296999 -0.01299341 0.06955903
v -0.00296999 -0.01295369 0.06956202
v -0.00361222 -0.01366333 0.06950860
v -0.00296999 -0.01330049 0.06953591
v -0.00296999 -0.01542024 0.06910283
v -0.00361222 -0.01525753 0.06916706
v -0.00361222 -0.01551343 0.06906605
v -0.00296999 -0.01360069 0.06951323
v -0.00361222 -0.01373895 0.06950286
v -0.00296999 -0.01370610 0.06950525
v -0.00296999 -0.01528961 0.06915431
v -0.00296999 -0.01525524 0.06916773
v -0.00296999 -0.01520712 0.06918318
v -0.00361222 -0.01520712 0.06918318
v -0.00361222 -0.01377409 0.06949570
v -0.00296999 -0.01375805 0.06949913
v -0.00296999 -0.01374048 0.06950264
v -0.00296999 -0.01516739 0.06919482
v -0.00361222 -0.01517809 0.06919161
v -0.00361222 -0.01397881 0.06945369
v -0.00296999 -0.01409110 0.06943079
v -0.00296999 -0.01516434 0.06919564
v -0.00361222 -0.01516205 0.06919623
v -0.00361222 -0.01440428 0.06936633
v -0.00296999 -0.01437984 0.06937141
f 8 12 13
f 13 12 16
f 7 8 4
f 12 8 7
f 44 45 37
f 53 49 52
f 52 50 53
f 36 31 38
f 38 31 37
f 37 45 38
f 17 20 21
f 16 20 17
f 13 16 17
f 21 31 32
f 32 31 36
f 48 52 49
f 49 44 48
f 50 52 51
f 40 41 34
f 34 41 42
f 35 27 34
f 21 30 22
f 22 17 21
f 29 30 21
f 21 32 29
f 42 41 46
f 50 51 46
f 43 44 37
f 43 48 44
f 40 34 39
f 24 19 23
f 23 19 18
f 25 19 24
f 28 27 35
f 28 19 27
f 42 46 47
f 47 46 51
f 33 34 27
f 33 39 34
f 27 19 26
f 19 25 26
f 14 15 10
f 19 15 14
f 18 19 14
f 11 9 6
f 6 10 11
f 10 15 11
f 1 2 5
f 3 1 5
f 9 5 2
f 9 2 6
f 7 1 3
f 7 4 1
f 14 2 1
f 6 2 14
f 1 4 14
f 14 49 53
f 14 8 13
f 4 8 14
f 45 44 14
f 14 10 6
f 14 38 45
f 53 50 14
f 14 41 40
f 14 44 49
f 13 17 14
f 14 32 36
f 40 39 14
f 36 38 14
f 50 46 14
f 14 22 30
f 27 26 14
f 30 29 14
f 24 23 14
f 17 22 14
f 14 29 32
f 14 46 41
f 14 25 24
f 14 23 18
f 14 33 27
f 39 33 14
f 14 26 25
f 3 5 11
f 5 9 11
f 11 7 3
f 11 16 12
f 21 20 11
f 37 31 11
f 12 7 11
f 11 34 42
f 11 20 16
f 11 31 21
f 11 28 35
f 42 47 11
f 52 48 11
f 11 51 52
f 35 34 11
f 11 43 37
f 48 43 11
f 19 28 11
f 11 15 19
f 11 47 51

