# https://github.com/mikedh/trimesh
v 0.00058541 -0.01735000 0.06604223
v 0.00095644 -0.01735000 0.06604223
v 0.00058541 -0.01735000 0.06630822
v 0.00058541 -0.01684247 0.06604223
v 0.00095644 -0.01684247 0.06604223
v 0.00095644 -0.01735000 0.06630822
v 0.00095644 -0.01731647 0.06669340
v 0.00058541 -0.01731522 0.06670038
v 0.00058541 -0.01684247 0.06679282
v 0.00095644 -0.01684247 0.06679282
v 0.00095644 -0.01731423 0.06671089
v 0.00058541 -0.01731234 0.06672294
v 0.00058541 -0.01730330 0.06679282
v 0.00095644 -0.01730365 0.06679282
v 0.00058541 -0.01731195 0.06672602
v 0.00065574 -0.01730340 0.06679282
v 0.00058541 -0.01730335 0.06679260
f 6 7 3
f 16 17 15
f 15 11 16
f 16 11 14
f 13 17 16
f 8 3 7
f 7 11 12
f 12 8 7
f 12 11 15
f 1 4 5
f 5 2 1
f 10 5 4
f 4 9 10
f 2 5 11
f 11 6 2
f 5 10 11
f 11 10 14
f 11 7 6
f 1 2 3
f 2 6 3
f 9 13 16
f 16 10 9
f 14 10 16
f 12 4 1
f 12 9 4
f 12 13 9
f 12 17 13
f 1 3 12
f 3 8 12

