# https://github.com/mikedh/trimesh
v -0.00247735 0.00389055 0.05870362
v -0.00307119 0.00434612 0.05870362
v -0.00247735 0.00574383 0.05870362
v -0.00247735 0.00389055 0.06659950
v -0.00307119 0.00574383 0.05870362
v -0.00307119 0.00434612 0.06659950
v -0.00247735 0.00574383 0.06908112
v -0.00247735 0.00401828 0.06737558
v -0.00307119 0.00441597 0.06702411
v -0.00307119 0.00574383 0.06890843
v -0.00269809 0.00574383 0.06908112
v -0.00247735 0.00557438 0.06908112
v -0.00307119 0.00447420 0.06737659
v -0.00247735 0.00404567 0.06742941
v -0.00307119 0.00544411 0.06872051
v -0.00247735 0.00498837 0.06872051
v -0.00261687 0.00568142 0.06908112
v -0.00307119 0.00484831 0.06809985
v -0.00247735 0.00439274 0.06809985
v -0.00307119 0.00538098 0.06865549
f 15 16 10
f 9 4 8
f 12 10 16
f 4 9 6
f 20 19 16
f 20 18 19
f 20 16 15
f 19 18 14
f 17 11 10
f 10 12 17
f 8 14 13
f 13 14 18
f 13 9 8
f 5 3 1
f 5 1 2
f 2 1 6
f 1 4 6
f 3 5 11
f 11 7 3
f 5 10 11
f 1 3 14
f 3 7 14
f 14 4 1
f 8 4 14
f 7 12 14
f 16 19 14
f 14 12 16
f 17 12 7
f 7 11 17
f 13 5 2
f 13 10 5
f 15 10 13
f 2 6 13
f 13 6 9
f 13 20 15
f 18 20 13

