# https://github.com/mikedh/trimesh
v 0.00360645 -0.01573671 0.02023511
v 0.00360645 -0.01573671 0.01663736
v 0.00240189 -0.01573671 0.02023511
v 0.00360645 -0.02027263 0.02023511
v 0.00240189 -0.01573671 0.01663736
v 0.00360645 -0.02027263 0.01663736
v 0.00240189 -0.02040000 0.02023511
v 0.00342462 -0.02040000 0.02023511
v 0.00240189 -0.02040000 0.01663736
v 0.00342462 -0.02040000 0.01663736
f 1 2 5
f 3 1 5
f 3 5 9
f 9 7 3
f 8 1 3
f 3 7 8
f 8 4 1
f 7 9 8
f 9 10 8
f 6 5 2
f 6 9 5
f 6 10 9
f 6 2 1
f 1 4 6
f 4 8 6
f 6 8 10

