# https://github.com/mikedh/trimesh
v 0.00138817 -0.00391742 0.05870362
v 0.00138817 -0.00391742 0.06026352
v 0.00138817 -0.00002554 0.05870362
v 0.00363507 -0.00391742 0.05870362
v 0.00363507 -0.00391742 0.06026352
v 0.00138817 -0.00002554 0.06026352
v 0.00139279 0.00002072 0.05870362
v 0.00363507 0.00002072 0.05870362
v 0.00363507 0.00002072 0.06026352
v 0.00139279 0.00002072 0.06026352
f 1 3 8
f 8 4 1
f 8 3 7
f 1 4 5
f 5 2 1
f 4 8 5
f 5 8 9
f 10 8 7
f 9 8 10
f 2 5 6
f 6 5 9
f 9 10 6
f 6 3 1
f 1 2 6
f 7 3 6
f 6 10 7

