# https://github.com/mikedh/trimesh
v 0.00364402 -0.01660287 0.06190608
v 0.00364402 -0.01484593 0.06190608
v 0.00409612 -0.01660287 0.06190608
v 0.00364402 -0.01660287 0.06826756
v 0.00409612 -0.01484593 0.06190608
v 0.00364402 -0.01484593 0.06926370
v 0.00409612 -0.01660287 0.06826684
v 0.00409612 -0.01636519 0.06851822
v 0.00364402 -0.01632117 0.06856504
v 0.00409612 -0.01484593 0.06926370
v 0.00364402 -0.01486468 0.06926010
v 0.00409612 -0.01631738 0.06856864
v 0.00409612 -0.01630208 0.06858448
v 0.00364402 -0.01630724 0.06857944
v 0.00409612 -0.01487052 0.06925866
v 0.00364402 -0.01518507 0.06918952
v 0.00409612 -0.01498902 0.06923273
v 0.00409612 -0.01490028 0.06925218
v 0.00409612 -0.01627319 0.06861041
v 0.00364402 -0.01627215 0.06861113
v 0.00364402 -0.01520726 0.06918303
v 0.00409612 -0.01519264 0.06918736
v 0.00409612 -0.01518765 0.06918880
v 0.00409612 -0.01624240 0.06863418
v 0.00364402 -0.01623225 0.06864139
v 0.00364402 -0.01523237 0.06917511
v 0.00409612 -0.01521431 0.06918087
v 0.00409612 -0.01614626 0.06869757
v 0.00364402 -0.01574057 0.06896335
v 0.00409612 -0.01527347 0.06915854
v 0.00409612 -0.01523082 0.06917511
v 0.00364402 -0.01560333 0.06902889
v 0.00409612 -0.01553316 0.06905627
v 0.00409612 -0.01614076 0.06870117
v 0.00409612 -0.01573781 0.06896479
v 0.00409612 -0.01569293 0.06899000
v 0.00364402 -0.01567710 0.06899864
v 0.00409612 -0.01562964 0.06901809
v 0.00409612 -0.01561158 0.06902529
v 0.00409612 -0.01568003 0.06899648
f 11 10 6
f 4 7 8
f 9 8 12
f 4 8 9
f 17 11 16
f 26 27 21
f 32 37 38
f 36 37 29
f 29 35 36
f 24 25 20
f 24 20 19
f 13 9 12
f 19 20 13
f 10 11 15
f 23 17 16
f 31 27 26
f 26 30 31
f 26 32 33
f 33 30 26
f 38 37 40
f 37 36 40
f 25 24 28
f 29 25 28
f 14 13 20
f 9 13 14
f 11 17 18
f 18 15 11
f 16 21 22
f 22 23 16
f 22 21 27
f 39 32 38
f 39 33 32
f 34 35 29
f 29 28 34
f 1 2 5
f 5 3 1
f 10 5 2
f 2 6 10
f 1 3 7
f 7 4 1
f 14 2 1
f 14 6 2
f 1 4 14
f 14 25 29
f 14 11 6
f 4 9 14
f 29 37 14
f 16 11 14
f 26 21 14
f 20 25 14
f 14 32 26
f 14 21 16
f 37 32 14
f 3 5 34
f 5 10 34
f 34 7 3
f 34 22 27
f 34 8 7
f 34 24 19
f 19 13 34
f 27 31 34
f 12 8 34
f 10 15 34
f 34 18 17
f 34 36 35
f 38 40 34
f 34 13 12
f 34 39 38
f 17 23 34
f 34 31 30
f 30 33 34
f 34 40 36
f 34 28 24
f 15 18 34
f 23 22 34
f 33 39 34

