# https://github.com/mikedh/trimesh
v 0.01232003 0.00875983 0.06180616
v 0.01232003 0.00875983 0.06403660
v 0.01232003 0.01042763 0.06180616
v 0.01980764 0.00875983 0.06180616
v 0.01232003 0.01042763 0.06403660
v 0.01980764 0.00875983 0.06403660
v 0.01234128 0.01044842 0.06403660
v 0.01239406 0.01049990 0.06180616
v 0.01895891 0.00952274 0.06180616
v 0.01895891 0.00952274 0.06403660
v 0.01239406 0.01049990 0.06403660
v 0.01685100 0.01050092 0.06180616
v 0.01756194 0.01050092 0.06180616
v 0.01756194 0.01050092 0.06403660
v 0.01727830 0.01050092 0.06403660
f 12 8 11
f 12 11 15
f 7 3 5
f 7 11 8
f 8 3 7
f 1 4 6
f 6 2 1
f 3 9 4
f 3 4 1
f 3 8 12
f 12 13 3
f 13 9 3
f 1 2 3
f 2 5 3
f 15 13 12
f 14 13 15
f 10 9 13
f 10 13 14
f 10 6 4
f 4 9 10
f 2 6 7
f 14 15 7
f 7 5 2
f 7 10 14
f 7 15 11
f 6 10 7

