# https://github.com/mikedh/trimesh
v 0.02211068 0.00607943 0.06959999
v 0.02263531 0.00530492 0.06959999
v 0.02221665 0.00592299 0.06808438
v 0.02211068 0.00607943 0.06808438
v 0.02211068 0.00250435 0.06959999
v 0.02284971 0.00488704 0.06808438
v 0.02263531 0.00530492 0.06808438
v 0.02359165 0.00344020 0.06959999
v 0.02348945 0.00363969 0.06808438
v 0.02211068 0.00250435 0.06808438
v 0.02359165 0.00250435 0.06959999
v 0.02359165 0.00344020 0.06808438
v 0.02359165 0.00250435 0.06808438
f 2 3 1
f 1 3 4
f 9 2 8
f 8 12 9
f 3 2 7
f 2 9 6
f 6 7 2
f 11 2 1
f 1 5 11
f 8 2 11
f 8 11 12
f 12 11 13
f 10 11 5
f 13 11 10
f 10 5 1
f 1 4 10
f 6 12 13
f 6 4 3
f 13 10 6
f 6 10 4
f 6 9 12
f 3 7 6

