# https://github.com/mikedh/trimesh
v 0.00138839 -0.01735000 0.05870362
v 0.00364397 -0.01735000 0.05870362
v 0.00138839 -0.01735000 0.06026352
v 0.00138839 -0.00699348 0.05870362
v 0.00364397 -0.01735000 0.06026352
v 0.00364397 -0.01234915 0.05870362
v 0.00138839 -0.00699348 0.06026352
v 0.00363514 -0.00699348 0.05870362
v 0.00364397 -0.00700058 0.06026352
v 0.00364397 -0.00700058 0.05959992
v 0.00363514 -0.00699348 0.06026352
f 10 6 8
f 1 2 5
f 5 3 1
f 7 4 1
f 1 3 7
f 1 4 6
f 6 2 1
f 4 8 6
f 3 5 11
f 11 7 3
f 11 5 9
f 11 8 4
f 4 7 11
f 10 5 2
f 9 5 10
f 2 6 10
f 10 11 9
f 8 11 10

