# https://github.com/mikedh/trimesh
v 0.01261049 -0.01027076 0.06637380
v 0.01221074 -0.01027076 0.06637380
v 0.01261049 -0.01067051 0.06637380
v 0.01261049 -0.01027076 0.06582483
v 0.01221074 -0.01032077 0.06637380
v 0.01221074 -0.01027076 0.06582483
v 0.01221970 -0.01067051 0.06637380
v 0.01261049 -0.01067051 0.06582483
v 0.01221074 -0.01032077 0.06582483
v 0.01221970 -0.01067051 0.06582483
f 2 1 6
f 1 4 6
f 1 3 8
f 8 4 1
f 3 7 8
f 8 7 10
f 5 3 1
f 5 1 2
f 5 7 3
f 9 6 4
f 4 8 9
f 9 8 10
f 10 7 9
f 7 5 9
f 2 6 9
f 9 5 2

