# https://github.com/mikedh/trimesh
v 0.01041208 -0.00680573 0.06198921
v 0.01041208 -0.00680573 0.06070001
v 0.00993634 -0.00680573 0.06198921
v 0.01041208 -0.00856401 0.06198921
v 0.00993634 -0.00680573 0.06070001
v 0.01041208 -0.00700008 0.06069545
v 0.00993634 -0.00855145 0.06198921
v 0.01003767 -0.00856401 0.06198921
v 0.01041208 -0.00856401 0.06069545
v 0.00993634 -0.00700008 0.06069545
v 0.00993634 -0.00856401 0.06179988
v 0.00993634 -0.00856401 0.06069545
f 7 11 8
f 9 2 1
f 1 4 9
f 6 2 9
f 1 2 5
f 3 1 5
f 10 7 3
f 3 5 10
f 12 11 10
f 10 11 7
f 6 9 10
f 10 9 12
f 10 2 6
f 10 5 2
f 8 4 1
f 8 1 3
f 3 7 8
f 8 9 4
f 8 11 12
f 12 9 8

