# https://github.com/mikedh/trimesh
v 0.01756201 0.01050092 0.06959999
v 0.01507899 0.01223935 0.06959999
v 0.01239313 0.01050092 0.06959999
v 0.01756201 0.01050092 0.06371479
v 0.01098356 0.01223935 0.06959999
v 0.01507899 0.01223935 0.06180595
v 0.01098356 0.01188098 0.06959999
v 0.01098356 0.01188098 0.06180595
v 0.01239313 0.01050109 0.06180595
v 0.01685046 0.01050092 0.06180595
v 0.01756137 0.01050092 0.06180595
v 0.01098356 0.01223935 0.06180595
f 9 3 8
f 4 11 6
f 10 3 9
f 7 8 3
f 5 2 12
f 2 6 12
f 4 2 1
f 4 6 2
f 10 12 6
f 6 11 10
f 9 8 10
f 10 8 12
f 1 3 10
f 10 4 1
f 11 4 10
f 1 2 7
f 7 2 5
f 7 3 1
f 5 12 7
f 12 8 7

