# https://github.com/mikedh/trimesh
v 0.00925257 0.00699902 0.06180595
v 0.00925257 0.00853713 0.06180595
v 0.01003831 0.00699902 0.06180595
v 0.00925257 0.00699902 0.06959999
v 0.01003831 0.00856456 0.06180595
v 0.00925257 0.00853713 0.06959999
v 0.01003831 0.00699902 0.06959999
v 0.01003831 0.00856441 0.06958168
v 0.01003715 0.00856395 0.06959999
v 0.01003831 0.00856303 0.06959999
f 5 2 6
f 5 6 8
f 10 8 9
f 9 8 6
f 7 4 1
f 1 3 7
f 2 3 1
f 2 5 3
f 1 4 6
f 6 2 1
f 8 7 3
f 3 5 8
f 8 10 7
f 4 7 9
f 7 10 9
f 9 6 4

