# https://github.com/mikedh/trimesh
v -0.00436392 0.00919491 0.02580048
v -0.00436392 0.00919491 0.03279997
v -0.00436392 0.00950095 0.02578740
v 0.00363752 0.00919491 0.02580048
v 0.00363517 0.00919491 0.03279997
v -0.00436392 0.01235076 0.03281855
v 0.00210616 0.00950095 0.02578740
v -0.00436392 0.02040000 0.02578740
v 0.00363752 0.00919491 0.02779473
v 0.00363752 0.01341478 0.02578740
v 0.00363752 0.00919600 0.02780024
v 0.00363752 0.01235076 0.03281855
v -0.00436392 0.02040000 0.03281855
v 0.00342446 0.02040000 0.02578740
v 0.00363752 0.02025082 0.02578740
v 0.00363752 0.02025082 0.03281855
v 0.00342446 0.02040000 0.03281855
f 4 7 10
f 11 12 5
f 9 11 5
f 1 2 13
f 13 3 1
f 8 3 13
f 13 2 6
f 1 3 7
f 7 4 1
f 8 13 17
f 17 14 8
f 12 13 6
f 16 17 12
f 12 17 13
f 6 2 12
f 2 5 12
f 15 3 8
f 15 7 3
f 8 14 15
f 15 10 7
f 15 17 16
f 14 17 15
f 9 2 1
f 1 4 9
f 9 5 2
f 16 12 9
f 4 10 9
f 10 15 9
f 12 11 9
f 9 15 16

