# https://github.com/mikedh/trimesh
v 0.00138800 -0.00002610 0.06311893
v 0.00138800 -0.00002610 0.05870405
v 0.00063167 -0.00078196 0.06311893
v 0.00138800 -0.00827516 0.06311893
v -0.00034738 -0.00176151 0.05870405
v 0.00138800 -0.00827516 0.05870405
v 0.00017791 -0.00123580 0.06311893
v -0.00034738 -0.00827516 0.06311893
v -0.00034738 -0.00176151 0.06311893
v -0.00034738 -0.00827516 0.05870405
f 1 2 3
f 3 2 5
f 5 9 7
f 7 3 5
f 6 2 1
f 1 4 6
f 10 9 5
f 8 9 10
f 2 6 10
f 5 2 10
f 10 6 4
f 4 8 10
f 7 4 1
f 7 9 8
f 7 8 4
f 1 3 7

