# https://github.com/mikedh/trimesh
v 0.00360660 -0.02027207 0.01630093
v 0.00360660 -0.01378692 0.01630093
v 0.00512145 -0.01921185 0.01630093
v 0.00360660 -0.02027207 0.02578671
v 0.00416791 -0.01378692 0.01630093
v 0.00360660 -0.01378692 0.02578671
v 0.00512145 -0.01414435 0.01630093
v 0.00512145 -0.01921185 0.02578671
v 0.00416791 -0.01378692 0.02578671
v 0.00512145 -0.01414435 0.02578671
f 1 3 8
f 8 4 1
f 3 7 8
f 8 7 10
f 6 2 1
f 1 4 6
f 1 2 5
f 5 3 1
f 5 7 3
f 4 8 9
f 9 8 10
f 9 6 4
f 10 7 9
f 7 5 9
f 2 6 9
f 9 5 2

