# https://github.com/mikedh/trimesh
v 0.00678172 0.01300303 0.03281924
v 0.00363752 0.01300303 0.03281924
v 0.00678172 0.01235002 0.03281924
v 0.00678172 0.01300303 0.02782120
v 0.00363752 0.01235649 0.03281924
v 0.00363752 0.01300303 0.02782120
v 0.00364121 0.01235002 0.03281924
v 0.00367692 0.01234906 0.02782120
v 0.00678172 0.01235002 0.02782120
v 0.00363752 0.01235002 0.03281875
v 0.00363752 0.01235002 0.02782120
f 9 3 8
f 8 3 7
f 7 10 8
f 7 5 10
f 8 10 11
f 1 4 6
f 2 1 6
f 9 4 1
f 1 3 9
f 7 1 2
f 7 3 1
f 2 5 7
f 11 6 4
f 11 9 8
f 4 9 11
f 2 6 11
f 11 5 2
f 10 5 11

