# https://github.com/mikedh/trimesh
v -0.00001885 -0.00143405 0.05589639
v -0.00001885 -0.00145862 0.05571947
v -0.00047746 -0.00189237 0.05589639
v -0.00001885 -0.01234710 0.05589639
v -0.00001885 -0.00146610 0.05569304
v -0.00047746 -0.00193296 0.05566358
v -0.00047746 -0.00192121 0.05570650
v -0.00047746 -0.01234710 0.05589639
v -0.00001885 -0.01234710 0.05490010
v -0.00001885 -0.00148106 0.05564115
v -0.00047746 -0.00193937 0.05564115
v -0.00047746 -0.01234710 0.05490010
v -0.00001885 -0.00284853 0.05490010
v -0.00001885 -0.00157293 0.05547096
v -0.00047746 -0.00204086 0.05545720
v -0.00047746 -0.00330684 0.05490010
v -0.00047746 -0.00330043 0.05490059
v -0.00001885 -0.00283571 0.05490117
v -0.00001885 -0.00158469 0.05545369
v -0.00047746 -0.00204407 0.05545242
v -0.00047746 -0.00328548 0.05490195
v -0.00001885 -0.00262952 0.05492029
v -0.00001885 -0.00162208 0.05539995
v -0.00047746 -0.00206650 0.05541985
v -0.00047746 -0.00301946 0.05492663
v -0.00001885 -0.00248102 0.05493414
v -0.00001885 -0.00177805 0.05524858
v -0.00047746 -0.00208039 0.05539995
v -0.00047746 -0.00294040 0.05493414
v -0.00001885 -0.00244149 0.05494565
v -0.00047746 -0.00293399 0.05493570
v -0.00001885 -0.00180904 0.05522371
v -0.00047746 -0.00225026 0.05523727
v -0.00001885 -0.00243615 0.05494721
v -0.00047746 -0.00259854 0.05503411
v -0.00001885 -0.00222248 0.05500973
v -0.00001885 -0.00184750 0.05519299
v -0.00047746 -0.00228765 0.05520733
v -0.00047746 -0.00257183 0.05504845
v -0.00001885 -0.00211565 0.05504718
v -0.00001885 -0.00212419 0.05504259
v -0.00001885 -0.00214022 0.05503411
v -0.00001885 -0.00219791 0.05501694
v -0.00001885 -0.00185711 0.05518733
v -0.00047746 -0.00231436 0.05518792
v -0.00047746 -0.00230581 0.05519299
v -0.00001885 -0.00208253 0.05506512
v -0.00001885 -0.00199706 0.05511145
f 17 13 16
f 3 1 2
f 11 10 14
f 45 46 37
f 10 11 5
f 3 2 7
f 37 46 38
f 6 7 2
f 2 5 6
f 6 5 11
f 23 24 19
f 15 11 14
f 23 27 28
f 28 24 23
f 35 39 40
f 40 39 45
f 31 36 34
f 35 36 31
f 29 31 26
f 37 38 32
f 14 19 20
f 20 15 14
f 20 19 24
f 33 28 27
f 27 32 33
f 33 32 38
f 35 42 43
f 43 36 35
f 41 42 35
f 35 40 41
f 44 45 37
f 29 26 25
f 18 13 17
f 30 31 34
f 30 26 31
f 45 44 48
f 21 18 17
f 22 25 26
f 22 21 25
f 18 21 22
f 47 40 45
f 45 48 47
f 8 4 1
f 8 1 3
f 4 8 12
f 12 9 4
f 9 12 16
f 16 13 9
f 21 8 3
f 21 12 8
f 21 39 35
f 17 16 21
f 46 45 21
f 21 16 12
f 3 7 21
f 21 33 38
f 21 38 46
f 21 6 11
f 45 39 21
f 24 28 21
f 11 15 21
f 7 6 21
f 35 31 21
f 21 20 24
f 21 31 29
f 15 20 21
f 28 33 21
f 29 25 21
f 1 4 47
f 4 9 47
f 9 13 47
f 10 5 47
f 47 2 1
f 14 10 47
f 34 36 47
f 47 44 37
f 42 41 47
f 47 27 23
f 47 5 2
f 47 19 14
f 23 19 47
f 37 32 47
f 47 43 42
f 13 18 47
f 47 32 27
f 36 43 47
f 47 41 40
f 47 30 34
f 47 22 26
f 26 30 47
f 47 48 44
f 18 22 47

