# https://github.com/mikedh/trimesh
v 0.00363752 0.01340872 0.02580005
v 0.00363752 0.01340872 0.02782120
v 0.00363752 0.01341475 0.02578691
v 0.00678172 0.01340872 0.02580005
v 0.00678172 0.01340872 0.02782120
v 0.00363752 0.02025096 0.02782120
v 0.00363752 0.02025096 0.02578691
v 0.00678172 0.01414947 0.02578691
v 0.00678172 0.01804880 0.02782120
v 0.00423835 0.01983035 0.02782120
v 0.00556559 0.01890072 0.02578691
v 0.00678172 0.01804880 0.02578691
v 0.00602483 0.01857924 0.02782120
f 3 4 1
f 4 3 8
f 12 11 13
f 13 9 12
f 10 7 6
f 10 11 7
f 10 13 11
f 5 2 1
f 1 4 5
f 3 2 6
f 1 2 3
f 6 7 3
f 8 3 7
f 7 11 8
f 8 11 12
f 8 5 4
f 8 9 5
f 12 9 8
f 6 2 10
f 2 5 10
f 5 9 10
f 9 13 10

