# https://github.com/mikedh/trimesh
v 0.01003831 0.00699887 0.06750964
v 0.01003831 0.00699887 0.06959999
v 0.01003831 0.00856438 0.06750964
v 0.02148786 0.00699887 0.06750964
v 0.01003831 0.00856300 0.06959999
v 0.02148786 0.00699887 0.06959999
v 0.01003831 0.00856438 0.06958158
v 0.01052135 0.00875966 0.06750964
v 0.02119086 0.00746940 0.06750964
v 0.01052135 0.00875966 0.06959999
v 0.02105413 0.00763831 0.06959999
v 0.01980674 0.00875966 0.06750964
v 0.02105413 0.00763831 0.06750964
v 0.01980674 0.00875966 0.06959999
v 0.02072014 0.00793890 0.06750964
v 0.02056772 0.00807592 0.06750964
f 9 6 4
f 16 12 14
f 11 16 14
f 11 9 13
f 6 9 11
f 7 5 10
f 15 11 13
f 16 11 15
f 1 4 6
f 6 2 1
f 10 12 8
f 14 12 10
f 2 6 11
f 11 5 2
f 14 10 11
f 10 5 11
f 7 3 1
f 1 2 7
f 2 5 7
f 8 3 7
f 7 10 8
f 1 3 15
f 15 4 1
f 15 3 8
f 8 12 15
f 15 9 4
f 13 9 15
f 12 16 15

