# https://github.com/mikedh/trimesh
v 0.00844707 0.01688295 0.06788882
v 0.00898258 0.01650651 0.06839373
v 0.00898258 0.01650818 0.06793178
v 0.00879868 0.01663689 0.06788882
v 0.00364527 0.01688283 0.06788882
v 0.00364527 0.01658555 0.06828899
v 0.00898258 0.01592317 0.06885996
v 0.00364527 0.01650675 0.06839341
v 0.00364527 0.01601928 0.06878450
v 0.00898258 0.01650818 0.06788882
v 0.00364527 0.01566325 0.06788882
v 0.00898258 0.01591302 0.06886798
v 0.00364527 0.01590920 0.06887118
v 0.00898258 0.01590800 0.06887193
v 0.00898258 0.01566325 0.06788882
v 0.00364527 0.01566325 0.06898052
v 0.00364527 0.01590132 0.06887471
v 0.00898258 0.01589487 0.06887781
v 0.00898258 0.01566325 0.06898063
v 0.00488347 0.01566325 0.06898063
v 0.00364527 0.01576820 0.06893403
v 0.00898258 0.01586550 0.06889085
f 3 1 2
f 2 8 9
f 13 14 9
f 6 1 5
f 2 1 6
f 6 8 2
f 4 3 10
f 1 3 4
f 2 9 7
f 20 21 16
f 19 22 20
f 21 20 18
f 18 20 22
f 12 9 14
f 12 7 9
f 21 18 17
f 17 18 14
f 17 14 13
f 5 1 4
f 4 11 5
f 4 15 11
f 10 15 4
f 11 15 20
f 20 15 19
f 20 16 11
f 12 15 10
f 19 15 12
f 12 3 2
f 2 7 12
f 10 3 12
f 14 18 12
f 12 22 19
f 12 18 22
f 5 11 17
f 13 9 17
f 11 16 17
f 17 6 5
f 17 9 8
f 8 6 17
f 16 21 17

