# https://github.com/mikedh/trimesh
v 0.01030087 -0.01608581 0.03559999
v 0.01030087 -0.01608581 0.03560816
v 0.01030087 -0.01558526 0.03533712
v 0.01070062 -0.01608581 0.03559999
v 0.01070062 -0.01608581 0.03560816
v 0.01030087 -0.01557476 0.03560816
v 0.01030087 -0.01557476 0.03533712
v 0.01031586 -0.01557476 0.03533946
v 0.01070062 -0.01557476 0.03559999
v 0.01070062 -0.01557476 0.03560816
f 3 4 1
f 8 9 4
f 3 7 8
f 4 3 8
f 1 2 7
f 7 3 1
f 7 2 6
f 6 10 8
f 8 7 6
f 8 10 9
f 5 2 1
f 1 4 5
f 9 10 5
f 4 9 5
f 6 2 5
f 5 10 6

