# https://github.com/mikedh/trimesh
v 0.00364527 0.01711884 0.06745360
v 0.00364527 0.01710553 0.06748621
v 0.00364527 0.01323399 0.06745360
v 0.00238776 0.01711770 0.06745360
v -0.00090065 0.01707929 0.06754036
v -0.00090065 0.01706483 0.06757076
v -0.00090065 0.01696481 0.06777891
v 0.00364527 0.01696443 0.06777911
v 0.00364527 0.01323399 0.06951015
v -0.00090065 0.01323399 0.06745360
v -0.00090065 0.01711465 0.06745360
v -0.00090065 0.01665258 0.06819984
v 0.00364527 0.01658527 0.06828902
v 0.00364527 0.01407980 0.06943687
v 0.00163440 0.01323399 0.06950270
v -0.00090065 0.01323399 0.06949324
v -0.00090065 0.01663242 0.06822682
v 0.00364527 0.01650654 0.06839350
v -0.00090065 0.01661873 0.06824514
v 0.00364527 0.01514200 0.06920154
v -0.00090065 0.01422546 0.06940728
v -0.00090065 0.01375730 0.06944794
v 0.00364527 0.01601899 0.06878444
v -0.00090065 0.01650692 0.06839330
v -0.00090065 0.01610075 0.06872022
v 0.00364527 0.01520703 0.06918303
v -0.00090065 0.01520703 0.06918303
v -0.00090065 0.01510054 0.06921322
v 0.00364527 0.01601290 0.06878927
v -0.00090065 0.01607261 0.06874257
v 0.00364527 0.01560217 0.06900769
v -0.00090065 0.01527625 0.06915243
v 0.00364527 0.01590908 0.06887120
v -0.00090065 0.01590984 0.06887060
v 0.00364527 0.01576799 0.06893401
v -0.00090065 0.01559380 0.06901131
v -0.00090065 0.01584899 0.06889777
v -0.00090065 0.01566530 0.06897950
f 4 11 5
f 28 21 20
f 1 4 2
f 2 4 5
f 14 20 21
f 21 22 14
f 18 25 23
f 8 12 13
f 7 12 8
f 8 2 7
f 24 25 18
f 15 22 16
f 9 14 15
f 15 14 22
f 30 34 33
f 33 29 30
f 30 29 23
f 30 23 25
f 6 2 5
f 6 7 2
f 18 13 19
f 19 24 18
f 31 32 26
f 26 32 27
f 20 26 27
f 28 20 27
f 17 13 12
f 17 19 13
f 33 34 37
f 33 37 35
f 35 36 32
f 32 31 35
f 36 35 38
f 38 35 37
f 3 10 4
f 1 3 4
f 10 11 4
f 15 10 3
f 3 9 15
f 16 10 15
f 35 9 3
f 35 3 1
f 35 29 33
f 35 14 9
f 35 13 18
f 1 2 35
f 35 2 8
f 35 26 20
f 20 14 35
f 18 23 35
f 8 13 35
f 23 29 35
f 35 31 26
f 38 10 16
f 5 11 38
f 38 11 10
f 38 30 25
f 38 21 28
f 16 22 38
f 38 17 12
f 38 22 21
f 25 24 38
f 12 7 38
f 38 6 5
f 34 30 38
f 28 27 38
f 7 6 38
f 24 19 38
f 32 36 38
f 38 27 32
f 19 17 38
f 38 37 34

