# https://github.com/mikedh/trimesh
v -0.00436470 -0.00919547 0.02580000
v -0.00436470 -0.00614709 0.02580000
v -0.00246944 -0.00919547 0.02580000
v -0.00436470 -0.00919547 0.03280000
v -0.00436470 -0.00586940 0.02583426
v -0.00246944 -0.00481063 0.02583426
v -0.00246944 -0.00513409 0.02580000
v -0.00246944 -0.00919547 0.03280000
v -0.00436470 -0.00614709 0.03280000
v -0.00436470 -0.00561043 0.02593430
v -0.00246944 -0.00450954 0.02593430
v -0.00246944 -0.00513409 0.03280000
v -0.00246944 -0.00481063 0.03276574
v -0.00436470 -0.00586940 0.03276574
v -0.00246944 -0.00429789 0.02606380
v -0.00436470 -0.00538838 0.02609327
v -0.00246944 -0.00425056 0.02609327
v -0.00246944 -0.00450954 0.03266570
v -0.00436470 -0.00561043 0.03266570
v -0.00436470 -0.00521781 0.02630020
v -0.00246944 -0.00405191 0.02630020
v -0.00246944 -0.00444245 0.03262459
v -0.00246944 -0.00425056 0.03250674
v -0.00436470 -0.00538838 0.03250674
v -0.00246944 -0.00392919 0.02653727
v -0.00436470 -0.00511068 0.02654139
v -0.00246944 -0.00392711 0.02654139
v -0.00246944 -0.00421936 0.03247453
v -0.00246944 -0.00405191 0.03229980
v -0.00436470 -0.00521781 0.03229980
v -0.00436470 -0.00507428 0.02680039
v -0.00246944 -0.00388291 0.02680039
v -0.00246944 -0.00392711 0.03205861
v -0.00436470 -0.00511068 0.03205861
v -0.00436470 -0.00507428 0.03179961
v -0.00246944 -0.00388291 0.03179961
f 6 7 2
f 26 31 32
f 16 20 21
f 21 17 16
f 29 33 30
f 10 15 11
f 17 15 10
f 16 17 10
f 20 26 27
f 27 26 32
f 34 30 33
f 34 36 35
f 34 33 36
f 13 9 12
f 5 11 6
f 5 10 11
f 6 2 5
f 25 21 20
f 20 27 25
f 19 18 22
f 22 23 19
f 19 23 24
f 29 30 24
f 9 13 14
f 14 13 18
f 14 18 19
f 29 24 28
f 28 24 23
f 8 4 1
f 1 3 8
f 2 3 1
f 2 7 3
f 31 35 36
f 32 31 36
f 4 8 9
f 8 12 9
f 1 4 14
f 16 10 14
f 14 2 1
f 14 35 31
f 14 20 16
f 4 9 14
f 31 26 14
f 14 26 20
f 14 5 2
f 19 24 14
f 14 34 35
f 30 34 14
f 10 5 14
f 14 24 30
f 28 8 3
f 6 11 28
f 28 12 8
f 3 7 28
f 28 7 6
f 28 33 29
f 32 36 28
f 28 15 17
f 28 27 32
f 17 21 28
f 36 33 28
f 28 22 18
f 11 15 28
f 28 13 12
f 21 25 28
f 18 13 28
f 28 25 27
f 23 22 28

