# https://github.com/mikedh/trimesh
v -0.00138895 -0.00680605 0.06959999
v -0.00198481 -0.00650683 0.06952020
v -0.00198481 -0.00726274 0.06959999
v -0.00198481 -0.01050204 0.06959999
v -0.00138895 -0.01237488 0.06959969
v -0.00138895 -0.00583571 0.06949718
v -0.00198481 -0.00629241 0.06949718
v -0.00198481 -0.01243545 0.06959692
v -0.00138895 -0.01289457 0.06956623
v -0.00138895 -0.00561160 0.06942352
v -0.00198481 -0.00588901 0.06936368
v -0.00140383 -0.00495259 0.06920194
v -0.00198481 -0.01291637 0.06956470
v -0.00198481 -0.01359961 0.06951283
v -0.00138895 -0.01299148 0.06955887
v -0.00138895 -0.00495259 0.06646464
v -0.00198481 -0.00539839 0.06920102
v -0.00198481 -0.00495259 0.06893125
v -0.00198481 -0.01374740 0.06950086
v -0.00138895 -0.01358265 0.06951375
v -0.00198481 -0.00495259 0.06646464
v -0.00138895 -0.01732831 0.06646464
v -0.00138895 -0.01431918 0.06938393
v -0.00138895 -0.01375588 0.06949933
v -0.00198481 -0.01434341 0.06937841
v -0.00198481 -0.01732831 0.06646464
v -0.00138895 -0.01730651 0.06673779
v -0.00198481 -0.01520714 0.06918229
v -0.00138895 -0.01521926 0.06917861
v -0.00198481 -0.01730530 0.06674914
v -0.00138895 -0.01729197 0.06686116
v -0.00198481 -0.01556693 0.06904388
v -0.00138895 -0.01536947 0.06912183
v -0.00198481 -0.01728834 0.06688449
v -0.00138895 -0.01721929 0.06717329
v -0.00138895 -0.01554028 0.06905431
v -0.00198481 -0.01567475 0.06899876
v -0.00138895 -0.01567111 0.06900091
v -0.00198481 -0.01721444 0.06719416
v -0.00138895 -0.01713812 0.06740132
v -0.00198481 -0.01579104 0.06893401
v -0.00138895 -0.01579104 0.06893370
v -0.00198481 -0.01709572 0.06751150
v -0.00138895 -0.01709330 0.06751764
v -0.00198481 -0.01620050 0.06866485
v -0.00138895 -0.01619565 0.06866853
v -0.00138895 -0.01596064 0.06882260
v -0.00198481 -0.01702183 0.06766434
v -0.00138895 -0.01701820 0.06766986
v -0.00198481 -0.01632042 0.06856603
v -0.00138895 -0.01628045 0.06860316
v -0.00138895 -0.01696247 0.06778035
v -0.00198481 -0.01696368 0.06777697
v -0.00138895 -0.01635071 0.06853687
v -0.00198481 -0.01646337 0.06841933
v -0.00138895 -0.01689100 0.06789360
v -0.00198481 -0.01688494 0.06790311
v -0.00138895 -0.01644762 0.06843621
v -0.00198481 -0.01667537 0.06819437
v -0.00138895 -0.01680620 0.06802219
v -0.00198481 -0.01676380 0.06808603
v -0.00138895 -0.01667537 0.06819375
v -0.00138895 -0.01675411 0.06810076
f 16 12 10
f 12 7 10
f 3 1 2
f 6 10 7
f 6 7 2
f 2 1 6
f 1 3 4
f 28 29 23
f 24 19 23
f 5 4 8
f 1 4 5
f 12 18 17
f 28 23 25
f 25 23 19
f 39 34 35
f 11 7 12
f 12 17 11
f 13 14 9
f 8 13 9
f 9 5 8
f 31 35 34
f 34 30 31
f 33 29 28
f 20 14 19
f 20 19 24
f 27 31 30
f 27 26 22
f 27 30 26
f 38 41 42
f 46 41 45
f 37 41 38
f 50 54 51
f 51 45 50
f 46 45 51
f 15 9 14
f 14 20 15
f 39 35 40
f 43 40 44
f 39 40 43
f 47 41 46
f 47 42 41
f 38 36 32
f 32 37 38
f 32 36 33
f 32 33 28
f 62 58 59
f 63 62 59
f 57 52 56
f 48 44 49
f 48 43 44
f 49 52 48
f 55 59 58
f 55 58 54
f 55 54 50
f 63 59 61
f 57 56 60
f 60 61 57
f 63 61 60
f 53 52 57
f 53 48 52
f 26 16 22
f 26 21 16
f 16 21 18
f 18 12 16
f 22 16 60
f 46 51 60
f 60 23 29
f 16 10 60
f 60 6 1
f 1 5 60
f 10 6 60
f 24 23 60
f 9 15 60
f 29 33 60
f 60 40 35
f 60 36 38
f 5 9 60
f 60 20 24
f 35 31 60
f 60 27 22
f 60 62 63
f 54 58 60
f 49 44 60
f 31 27 60
f 33 36 60
f 38 42 60
f 60 47 46
f 60 51 54
f 60 52 49
f 60 15 20
f 44 40 60
f 42 47 60
f 60 58 62
f 60 56 52
f 2 7 53
f 21 26 53
f 8 4 53
f 53 13 8
f 53 3 2
f 53 18 21
f 19 14 53
f 53 4 3
f 26 30 53
f 28 25 53
f 53 17 18
f 7 11 53
f 53 25 19
f 53 34 39
f 50 45 53
f 53 11 17
f 53 14 13
f 53 30 34
f 39 43 53
f 53 32 28
f 53 45 41
f 41 37 53
f 57 61 53
f 37 32 53
f 53 55 50
f 43 48 53
f 59 55 53
f 53 61 59

