# https://github.com/mikedh/trimesh
v -0.00090056 0.00905564 0.06502657
v -0.00090056 0.01265339 0.06502657
v 0.00002854 0.00905564 0.06502657
v -0.00090056 0.00905564 0.06959999
v 0.00002854 0.01265339 0.06502657
v -0.00090056 0.01265339 0.06958343
v 0.00002854 0.00905564 0.06959999
v -0.00090056 0.01234982 0.06959999
v 0.00002854 0.01265339 0.06958343
v -0.00090056 0.01240757 0.06959955
v 0.00002854 0.01264317 0.06958432
v 0.00002854 0.01234982 0.06959999
v 0.00002854 0.01240969 0.06959955
f 12 13 8
f 9 6 11
f 10 8 13
f 13 11 10
f 10 11 6
f 1 2 5
f 5 3 1
f 1 3 7
f 7 4 1
f 6 5 2
f 9 5 6
f 4 7 8
f 7 12 8
f 3 5 11
f 11 7 3
f 11 5 9
f 11 12 7
f 11 13 12
f 10 2 1
f 1 4 10
f 10 6 2
f 4 8 10

