# https://github.com/mikedh/trimesh
v 0.00364397 -0.00696928 0.06197169
v 0.00364397 0.00002072 0.06197169
v 0.00393149 -0.00696928 0.06197169
v 0.00364397 -0.00696928 0.06959999
v 0.00393149 0.00002072 0.06197169
v 0.00364397 0.00002072 0.06923557
v 0.00393149 -0.00696928 0.06959999
v 0.00364397 -0.00201278 0.06959999
v 0.00393149 0.00002072 0.06931995
v 0.00364397 -0.00091461 0.06949768
v 0.00393149 -0.00172472 0.06959999
v 0.00393149 -0.00062655 0.06949768
f 9 6 10
f 9 10 12
f 1 2 5
f 5 3 1
f 1 3 7
f 7 4 1
f 6 5 2
f 9 5 6
f 3 5 12
f 12 7 3
f 12 5 9
f 12 11 7
f 8 2 1
f 1 4 8
f 8 6 2
f 8 10 6
f 4 7 8
f 7 11 8
f 11 12 8
f 8 12 10

