# https://github.com/mikedh/trimesh
v -0.00361222 -0.00813736 0.06683908
v -0.00361222 -0.00706473 0.06683908
v -0.00296999 -0.00813736 0.06683908
v -0.00361222 -0.00813736 0.06959972
v -0.00296999 -0.00706473 0.06683908
v -0.00361222 -0.00706473 0.06946487
v -0.00296999 -0.00813736 0.06959972
v -0.00361222 -0.00798143 0.06959972
v -0.00296999 -0.00706473 0.06952000
v -0.00361222 -0.00715083 0.06949784
v -0.00355318 -0.00706473 0.06947433
v -0.00296999 -0.00771545 0.06959972
v -0.00296999 -0.00769875 0.06959783
v -0.00361222 -0.00794510 0.06959540
v -0.00340562 -0.00706473 0.06949784
v -0.00296999 -0.00763680 0.06959027
v -0.00361222 -0.00742973 0.06953216
f 6 10 11
f 10 15 11
f 9 15 17
f 17 16 9
f 14 16 17
f 17 15 10
f 13 16 14
f 14 8 13
f 13 8 12
f 1 2 5
f 5 3 1
f 1 3 7
f 7 4 1
f 11 5 2
f 9 5 11
f 2 6 11
f 11 15 9
f 4 7 8
f 7 12 8
f 17 2 1
f 1 4 17
f 17 6 2
f 17 10 6
f 4 8 17
f 17 8 14
f 3 5 13
f 13 7 3
f 13 5 9
f 13 12 7
f 9 16 13

