# https://github.com/mikedh/trimesh
v 0.00364809 -0.01426691 0.05526050
v 0.00364809 -0.01426691 0.05870362
v 0.00364809 -0.01235000 0.05526050
v 0.01218287 -0.01426691 0.05526050
v 0.00364809 -0.01235000 0.05870362
v 0.01218287 -0.01426691 0.05870362
v 0.00439492 -0.01235000 0.05526050
v 0.01229873 -0.01418622 0.05526050
v 0.01372102 -0.01235019 0.05870362
v 0.01421546 -0.01284424 0.05870362
v 0.01372102 -0.01235019 0.05526050
v 0.01421546 -0.01284424 0.05526050
v 0.01378618 -0.01241530 0.05526050
f 10 12 13
f 3 5 7
f 9 13 11
f 10 13 9
f 11 7 9
f 9 7 5
f 10 6 8
f 6 4 8
f 8 12 10
f 1 2 5
f 5 3 1
f 4 2 1
f 4 6 2
f 9 5 2
f 9 6 10
f 2 6 9
f 1 3 8
f 8 13 12
f 8 4 1
f 3 7 8
f 11 13 8
f 8 7 11

