# https://github.com/mikedh/trimesh
v 0.02162229 -0.00680593 0.06927796
v 0.02161860 -0.00680593 0.06959999
v 0.02109994 -0.00757620 0.06927796
v 0.01221074 -0.00680593 0.06927796
v 0.02105387 -0.00763862 0.06959999
v 0.01221074 -0.00680593 0.06959999
v 0.02107506 -0.00761252 0.06927796
v 0.01221074 -0.01032056 0.06927796
v 0.02104097 -0.00765073 0.06927796
v 0.02105387 -0.00763862 0.06927796
v 0.01895894 -0.00952230 0.06959999
v 0.01221074 -0.01032056 0.06959999
v 0.01221996 -0.01067051 0.06927796
v 0.02097280 -0.00771202 0.06927796
v 0.01895894 -0.00952230 0.06927796
v 0.02050020 -0.00813688 0.06927796
v 0.01731910 -0.01067051 0.06959999
v 0.01221996 -0.01067051 0.06959999
v 0.01731910 -0.01067051 0.06927796
f 1 2 3
f 5 3 2
f 5 9 10
f 11 9 5
f 16 11 15
f 7 5 10
f 3 5 7
f 14 9 11
f 11 16 14
f 6 1 4
f 6 2 1
f 4 8 6
f 6 8 12
f 19 15 11
f 11 17 19
f 18 8 13
f 12 8 18
f 13 19 18
f 19 17 18
f 2 6 5
f 5 6 12
f 12 18 5
f 17 11 5
f 5 18 17
f 14 8 4
f 4 1 14
f 14 19 13
f 13 8 14
f 14 15 19
f 1 3 14
f 14 16 15
f 10 9 14
f 14 7 10
f 3 7 14

