# https://github.com/mikedh/trimesh
v 0.00316128 0.00002072 0.06612207
v 0.00316128 0.00002072 0.06501625
v 0.00266981 0.00002072 0.06612207
v 0.00316128 -0.00921821 0.06612207
v 0.00266981 0.00002072 0.06501625
v 0.00316128 -0.00921549 0.06501625
v 0.00266981 -0.00921821 0.06612207
v 0.00316128 -0.00921821 0.06510318
v 0.00266981 -0.00921821 0.06501625
v 0.00293880 -0.00921821 0.06501625
f 6 8 10
f 7 4 1
f 7 1 3
f 3 1 5
f 1 2 5
f 5 7 3
f 9 7 5
f 1 4 8
f 8 2 1
f 8 6 2
f 10 5 2
f 9 5 10
f 2 6 10
f 4 7 10
f 10 7 9
f 10 8 4

