# https://github.com/mikedh/trimesh
v -0.00380784 0.00499763 0.06234474
v -0.00380784 0.00896880 0.06234474
v -0.00353883 0.00499763 0.06234474
v -0.00380784 0.00499763 0.06747654
v -0.00353883 0.00896880 0.06234474
v -0.00380784 0.00896880 0.06959999
v -0.00353883 0.00499763 0.06772723
v -0.00373608 0.00499763 0.06754401
v -0.00380784 0.00524604 0.06803546
v -0.00353883 0.00896880 0.06959999
v -0.00380784 0.00806221 0.06959999
v -0.00353883 0.00512086 0.06800421
v -0.00355018 0.00499763 0.06771729
v -0.00353883 0.00516324 0.06809937
v -0.00380784 0.00527481 0.06809937
v -0.00353883 0.00795103 0.06959999
v -0.00380784 0.00722910 0.06949773
v -0.00353883 0.00711753 0.06949773
v -0.00353883 0.00551856 0.06853116
v -0.00380784 0.00568068 0.06859295
v -0.00380784 0.00645314 0.06919803
v -0.00353883 0.00634157 0.06919803
v -0.00353883 0.00567484 0.06872078
v -0.00380784 0.00578642 0.06872078
v -0.00353883 0.00604183 0.06898355
f 14 15 9
f 14 9 13
f 20 15 14
f 21 24 25
f 12 13 7
f 14 13 12
f 19 20 14
f 21 25 22
f 22 17 21
f 18 17 22
f 18 16 11
f 11 17 18
f 9 4 8
f 8 13 9
f 24 20 23
f 20 19 23
f 23 25 24
f 1 2 5
f 5 3 1
f 10 5 2
f 2 6 10
f 11 2 1
f 11 6 2
f 15 20 11
f 1 4 11
f 11 9 15
f 11 24 21
f 11 20 24
f 21 17 11
f 11 4 9
f 11 10 6
f 11 16 10
f 1 3 8
f 3 7 8
f 7 13 8
f 8 4 1
f 3 5 23
f 23 7 3
f 10 16 23
f 5 10 23
f 14 12 23
f 23 19 14
f 23 16 18
f 23 12 7
f 18 22 23
f 23 22 25

