# https://github.com/mikedh/trimesh
v 0.02164892 -0.00680593 0.06681450
v 0.02164130 -0.00680593 0.06745144
v 0.02135939 -0.00722285 0.06745144
v 0.02127642 -0.00735564 0.06681450
v 0.01300004 -0.00680593 0.06681450
v 0.01300004 -0.00680593 0.06745144
v 0.02119514 -0.00746497 0.06745144
v 0.02123663 -0.00741352 0.06681450
v 0.01300004 -0.01067051 0.06681450
v 0.01300004 -0.01067051 0.06745144
v 0.02105461 -0.00763862 0.06745144
v 0.02111218 -0.00756750 0.06681450
v 0.01732025 -0.01067051 0.06681450
v 0.01732025 -0.01067051 0.06745144
v 0.01931146 -0.00920564 0.06681450
v 0.02105461 -0.00763862 0.06681450
v 0.01895842 -0.00952230 0.06745144
v 0.01860285 -0.00977161 0.06681450
v 0.01895842 -0.00952230 0.06681450
f 13 18 14
f 17 18 19
f 17 14 18
f 19 15 17
f 11 15 16
f 11 17 15
f 16 12 11
f 7 12 8
f 7 11 12
f 8 4 7
f 1 2 3
f 3 4 1
f 3 7 4
f 6 2 1
f 6 1 5
f 10 6 5
f 5 9 10
f 9 13 14
f 14 10 9
f 5 1 12
f 12 9 5
f 12 13 9
f 12 18 13
f 12 15 19
f 19 18 12
f 1 4 12
f 16 15 12
f 12 4 8
f 2 6 3
f 6 10 3
f 10 14 3
f 14 17 3
f 17 11 3
f 11 7 3

