# https://github.com/mikedh/trimesh
v 0.00678206 -0.01804915 0.02123432
v 0.00678206 -0.01414973 0.02123432
v 0.00710032 -0.01782617 0.02123432
v 0.00678206 -0.01804915 0.02578627
v 0.00713801 -0.01409514 0.02123432
v 0.00678206 -0.01414973 0.02578627
v 0.00713877 -0.01409437 0.02578627
v 0.00713877 -0.01779907 0.02123432
v 0.00713877 -0.01779907 0.02578627
v 0.00713877 -0.01754164 0.02123432
f 7 2 6
f 5 2 7
f 3 4 1
f 9 3 8
f 4 3 9
f 10 5 7
f 1 4 6
f 6 2 1
f 9 6 4
f 7 6 9
f 1 2 10
f 2 5 10
f 10 3 1
f 8 3 10
f 7 9 10
f 10 9 8

