# https://github.com/mikedh/trimesh
v 0.00879195 -0.01664178 0.06481061
v 0.00879195 -0.01234611 0.06481061
v 0.00901898 -0.01648282 0.06481061
v 0.00879195 -0.01664178 0.06822073
v 0.00952128 -0.01250002 0.06481061
v 0.00879195 -0.01235578 0.06959997
v 0.00952314 -0.01250002 0.06959857
v 0.00952314 -0.01612958 0.06481061
v 0.00952314 -0.01612958 0.06870407
v 0.00931988 -0.01627172 0.06861125
v 0.00879195 -0.01627635 0.06860703
v 0.00952314 -0.01252231 0.06481061
v 0.00879195 -0.01242853 0.06959950
v 0.00900646 -0.01242895 0.06959950
v 0.00952128 -0.01250002 0.06959857
v 0.00952314 -0.01377464 0.06949777
v 0.00952314 -0.01591385 0.06884519
v 0.00879195 -0.01625658 0.06862203
v 0.00879195 -0.01627172 0.06861125
v 0.00879195 -0.01626836 0.06861406
v 0.00879195 -0.01244998 0.06959810
v 0.00879195 -0.01333224 0.06953152
v 0.00879195 -0.01377295 0.06949777
v 0.00879195 -0.01382384 0.06948746
v 0.00952314 -0.01384823 0.06948277
v 0.00952314 -0.01569139 0.06899052
v 0.00879195 -0.01576036 0.06894598
v 0.00952314 -0.01391005 0.06947011
v 0.00879195 -0.01393738 0.06946402
v 0.00879195 -0.01569560 0.06898817
v 0.00879195 -0.01570065 0.06898489
v 0.00952314 -0.01568256 0.06899568
v 0.00952314 -0.01514429 0.06919726
v 0.00879195 -0.01512663 0.06920101
v 0.00879195 -0.01568172 0.06899614
v 0.00952314 -0.01567710 0.06899802
v 0.00879195 -0.01520064 0.06918461
v 0.00952314 -0.01520274 0.06918414
v 0.00879195 -0.01564345 0.06901161
v 0.00952314 -0.01555220 0.06904724
v 0.00879195 -0.01521410 0.06918086
v 0.00952314 -0.01521157 0.06918132
v 0.00952314 -0.01548197 0.06907490
f 7 2 6
f 5 2 7
f 3 4 1
f 9 3 8
f 4 3 9
f 12 5 7
f 4 9 10
f 9 18 10
f 4 10 11
f 41 38 37
f 6 13 14
f 7 6 14
f 15 13 21
f 21 22 15
f 7 14 15
f 15 14 13
f 15 22 23
f 15 16 7
f 23 16 15
f 20 10 18
f 30 32 35
f 42 38 41
f 29 28 24
f 24 16 23
f 33 28 29
f 33 37 38
f 19 11 10
f 10 20 19
f 17 18 9
f 26 30 31
f 32 30 26
f 31 27 26
f 26 27 18
f 18 17 26
f 41 39 36
f 36 39 35
f 35 32 36
f 16 24 25
f 25 24 28
f 34 33 29
f 37 33 34
f 43 42 41
f 41 36 40
f 40 43 41
f 1 2 12
f 2 5 12
f 12 3 1
f 8 3 12
f 34 6 2
f 34 2 1
f 1 4 34
f 23 22 34
f 34 30 35
f 34 20 18
f 34 13 6
f 4 11 34
f 34 39 41
f 21 13 34
f 34 22 21
f 41 37 34
f 18 27 34
f 11 19 34
f 34 24 23
f 34 27 31
f 31 30 34
f 35 39 34
f 29 24 34
f 34 19 20
f 8 12 40
f 40 12 7
f 40 9 8
f 7 16 40
f 40 33 38
f 38 42 40
f 40 36 32
f 32 26 40
f 28 33 40
f 40 17 9
f 40 26 17
f 16 25 40
f 40 25 28
f 42 43 40

