# https://github.com/mikedh/trimesh
v 0.00807651 -0.01714228 0.02049218
v 0.00807651 -0.01368903 0.02049218
v 0.00972001 -0.01599166 0.02049218
v 0.00861577 -0.01676521 0.02578671
v 0.00807651 -0.01714228 0.02578671
v 0.00887413 -0.01306814 0.02049218
v 0.00807651 -0.01368903 0.02578671
v 0.00887349 -0.01306861 0.02578671
v 0.00972001 -0.01241673 0.02049218
v 0.00972001 -0.01599166 0.02578671
v 0.00972001 -0.01241673 0.02578671
f 1 3 4
f 10 4 3
f 1 4 5
f 8 2 7
f 8 11 9
f 6 8 9
f 2 8 6
f 5 2 1
f 7 2 5
f 3 9 11
f 11 10 3
f 7 5 8
f 4 10 8
f 8 5 4
f 10 11 8
f 6 9 3
f 6 3 1
f 1 2 6

