# https://github.com/mikedh/trimesh
v -0.00307119 0.00574391 0.06308690
v -0.00307119 0.00648840 0.06308690
v -0.00247735 0.00574391 0.06308690
v -0.00307119 0.00574391 0.06890918
v -0.00247735 0.00648840 0.06308690
v -0.00307119 0.00648840 0.06908112
v -0.00247735 0.00574391 0.06908112
v -0.00269809 0.00574391 0.06908112
v -0.00307119 0.00598420 0.06908112
v -0.00247735 0.00648840 0.06908112
f 8 9 4
f 5 3 1
f 1 2 5
f 9 6 2
f 9 2 1
f 1 4 9
f 2 6 10
f 10 5 2
f 10 7 3
f 3 5 10
f 3 7 8
f 8 4 1
f 1 3 8
f 6 9 8
f 8 10 6
f 7 10 8

