# https://github.com/mikedh/trimesh
v 0.00364527 0.00002072 0.06070000
v 0.00364527 0.00695859 0.06070000
v 0.00925202 0.00002072 0.06070000
v 0.00364527 0.00002072 0.06923584
v 0.00925202 0.00695859 0.06070000
v 0.00364527 0.00695859 0.06959999
v 0.00925202 0.00002072 0.06959999
v 0.00453335 0.00002072 0.06949632
v 0.00364527 0.00075960 0.06945276
v 0.00925202 0.00695859 0.06959999
v 0.00364527 0.00201122 0.06959999
v 0.00563549 0.00002072 0.06959999
v 0.00453774 0.00002072 0.06949719
v 0.00364527 0.00091308 0.06949719
f 14 12 11
f 12 14 13
f 8 9 4
f 14 9 8
f 8 13 14
f 5 3 1
f 1 2 5
f 2 6 10
f 10 5 2
f 10 7 3
f 3 5 10
f 6 11 12
f 12 10 6
f 7 10 12
f 9 6 2
f 9 2 1
f 1 4 9
f 9 11 6
f 9 14 11
f 3 7 8
f 8 4 1
f 1 3 8
f 7 12 8
f 12 13 8

