# https://github.com/mikedh/trimesh
v -0.00296999 -0.00598508 0.06644566
v -0.00296999 -0.00598508 0.05870437
v -0.00361222 -0.00598508 0.06644566
v -0.00296999 -0.01733109 0.06644566
v -0.00361222 -0.00598508 0.05870437
v -0.00296999 -0.01735000 0.05870437
v -0.00361222 -0.01733109 0.06644566
v -0.00296999 -0.01735000 0.06630774
v -0.00361222 -0.01735000 0.05870437
v -0.00361222 -0.01735000 0.06630774
f 1 2 5
f 3 1 5
f 9 5 2
f 9 2 6
f 8 2 1
f 6 2 8
f 1 4 8
f 7 1 3
f 7 4 1
f 3 5 10
f 5 9 10
f 10 7 3
f 10 9 6
f 6 8 10
f 10 8 4
f 4 7 10

