# https://github.com/mikedh/trimesh
v -0.00361222 -0.00598380 0.05870463
v -0.00361222 -0.00476129 0.05870463
v -0.00296999 -0.00598380 0.05870463
v -0.00361222 -0.00598380 0.06892046
v -0.00296999 -0.00426843 0.05870463
v -0.00361222 -0.00476129 0.06659979
v -0.00296999 -0.00598380 0.06911096
v -0.00296999 -0.00536650 0.06872079
v -0.00361222 -0.00570504 0.06872079
v -0.00296999 -0.00426843 0.06659979
v -0.00361222 -0.00487196 0.06737607
v -0.00296999 -0.00494030 0.06827662
v -0.00296999 -0.00477086 0.06809936
v -0.00361222 -0.00519337 0.06809936
v -0.00296999 -0.00439622 0.06737607
f 10 6 11
f 11 15 10
f 8 4 7
f 14 13 15
f 14 15 11
f 13 14 9
f 4 8 9
f 13 9 12
f 12 9 8
f 2 5 3
f 2 3 1
f 1 3 4
f 3 7 4
f 5 2 10
f 2 6 10
f 9 2 1
f 1 4 9
f 11 6 9
f 9 6 2
f 9 14 11
f 3 5 12
f 12 7 3
f 5 10 12
f 15 13 12
f 12 10 15
f 12 8 7

