# https://github.com/mikedh/trimesh
v -0.00380787 0.01735000 0.06391772
v -0.00380787 0.01735000 0.06322096
v -0.00436470 0.01735000 0.06391772
v -0.00380787 0.01349838 0.06391772
v -0.00436470 0.01735000 0.06322096
v -0.00380787 0.01349838 0.06322096
v -0.00436470 0.01350026 0.06391772
v -0.00429254 0.01349838 0.06391772
v -0.00436470 0.01349838 0.06322096
v -0.00436470 0.01349838 0.06327498
f 10 8 7
f 3 1 5
f 1 2 5
f 1 4 6
f 6 2 1
f 6 5 2
f 9 5 6
f 8 4 1
f 8 1 3
f 3 7 8
f 10 7 3
f 3 5 10
f 10 5 9
f 10 6 4
f 9 6 10
f 4 8 10

