# https://github.com/mikedh/trimesh
v -0.00396260 -0.01426691 0.05488836
v -0.00396260 -0.01426691 0.05870362
v -0.00396260 -0.01235010 0.05488836
v 0.00364809 -0.01426691 0.05488836
v -0.00396260 -0.01234710 0.05870362
v 0.00364809 -0.01426691 0.05870362
v -0.00396260 -0.01234728 0.05490031
v 0.00363095 -0.01234710 0.05490031
v 0.00364809 -0.01235010 0.05488836
v -0.00396260 -0.01234710 0.05774569
v 0.00363468 -0.01234710 0.05870362
v 0.00364809 -0.01235010 0.05870362
v 0.00363468 -0.01234710 0.05490031
f 7 10 8
f 3 7 8
f 6 2 1
f 1 4 6
f 2 6 11
f 5 2 11
f 6 12 11
f 9 4 1
f 1 3 9
f 9 6 4
f 9 12 6
f 9 11 12
f 13 11 9
f 1 2 10
f 10 2 5
f 10 3 1
f 10 7 3
f 5 11 8
f 8 11 13
f 8 10 5
f 8 9 3
f 13 9 8

