# https://github.com/mikedh/trimesh
v 0.02281671 0.00495072 0.06229804
v 0.02397425 0.00269429 0.06229804
v 0.02401296 0.00261890 0.06199991
v 0.02281671 0.00495072 0.06199991
v 0.02092272 0.00495072 0.06229804
v 0.02413790 0.00237508 0.06229804
v 0.02413790 0.00237508 0.06199991
v 0.02092272 0.00495072 0.06199991
v 0.02092272 0.00237508 0.06229804
v 0.02092272 0.00237508 0.06199991
f 1 3 4
f 6 3 2
f 2 3 1
f 7 3 6
f 9 1 5
f 6 2 9
f 9 2 1
f 6 9 7
f 7 9 10
f 8 7 10
f 8 4 3
f 3 7 8
f 8 9 5
f 10 9 8
f 5 1 8
f 1 4 8

