# https://github.com/mikedh/trimesh
v -0.00206969 -0.00482754 0.03280000
v -0.00206969 -0.00468876 0.03278529
v -0.00210604 -0.00453218 0.03276578
v -0.00246940 -0.00481065 0.03276578
v -0.00246940 -0.00513432 0.03280000
v -0.00206969 -0.00919547 0.03280000
v -0.00206969 -0.00453218 0.03276866
v -0.00212647 -0.00453218 0.03276067
v -0.00216552 -0.00453218 0.03275075
v -0.00246940 -0.00453218 0.03267337
v -0.00246940 -0.00919547 0.03280000
v -0.00206969 -0.00919547 0.02953308
v -0.00206969 -0.00453218 0.02953308
v -0.00246940 -0.00453218 0.02953308
v -0.00246940 -0.00919547 0.02953308
f 5 1 4
f 4 1 3
f 7 3 2
f 2 3 1
f 9 10 4
f 4 3 8
f 8 9 4
f 11 6 1
f 1 5 11
f 15 13 12
f 15 14 13
f 15 12 6
f 6 11 15
f 6 12 2
f 1 6 2
f 12 13 2
f 13 7 2
f 10 11 5
f 10 5 4
f 14 15 10
f 10 15 11
f 8 7 13
f 13 14 8
f 8 3 7
f 14 10 8
f 10 9 8

