# https://github.com/mikedh/trimesh
v 0.00778010 0.01734971 0.04974304
v 0.00846387 0.01725994 0.04974304
v 0.00778010 0.01734971 0.04801833
v -0.00199837 0.01734971 0.04974304
v 0.00972440 0.01709425 0.04801833
v 0.01180768 0.01682032 0.04974304
v -0.00199837 0.01734971 0.04801833
v -0.00199837 0.01440141 0.04974304
v 0.01181185 0.01681975 0.04801833
v 0.01219959 0.01676865 0.04974304
v 0.01219959 0.01676865 0.04801833
v -0.00199837 0.01440141 0.04801833
v 0.01199113 0.01440141 0.04974304
v 0.01214261 0.01611803 0.04974304
v 0.01212038 0.01586402 0.04801833
v 0.01199113 0.01440141 0.04801833
v 0.01200364 0.01453275 0.04801833
v 0.01208285 0.01543739 0.04974304
f 17 13 16
f 3 1 2
f 2 5 3
f 10 11 6
f 5 2 6
f 13 17 18
f 15 11 10
f 9 6 11
f 5 6 9
f 14 15 10
f 17 15 14
f 14 18 17
f 4 1 7
f 7 1 3
f 12 13 8
f 16 13 12
f 12 8 4
f 4 7 12
f 9 7 3
f 3 5 9
f 16 12 9
f 9 12 7
f 11 15 9
f 9 17 16
f 9 15 17
f 14 1 4
f 4 8 14
f 10 6 14
f 8 13 14
f 14 2 1
f 14 6 2
f 13 18 14

