# https://github.com/mikedh/trimesh
v -0.00090304 -0.00643286 0.06959999
v -0.00090304 -0.01109874 0.06959999
v -0.00034738 -0.01234882 0.06959999
v -0.00034917 -0.00600847 0.06959981
v -0.00034738 -0.00490675 0.06949774
v -0.00090304 -0.00591848 0.06954577
v -0.00090304 -0.01236706 0.06959990
v -0.00034738 -0.01239867 0.06959972
v -0.00034738 -0.00388165 0.06919708
v -0.00090304 -0.00445439 0.06920244
v -0.00090304 -0.00546369 0.06949774
v -0.00090304 -0.01239867 0.06959963
v -0.00034738 -0.01241935 0.06959863
v -0.00034738 -0.00377099 0.06913694
v -0.00044452 -0.00377099 0.06908454
v -0.00090304 -0.00443737 0.06919671
v -0.00090304 -0.01247285 0.06959490
v -0.00090304 -0.01287171 0.06956788
v -0.00034738 -0.01284739 0.06956961
v -0.00034738 -0.00377099 0.06867062
v -0.00090304 -0.00377099 0.06883564
v -0.00090304 -0.01366942 0.06950757
v -0.00034738 -0.01365726 0.06950829
v -0.00090304 -0.00377099 0.06867062
v -0.00034738 -0.01619145 0.06867062
v -0.00034738 -0.01374603 0.06950156
v -0.00090304 -0.01375211 0.06950029
v -0.00090304 -0.01619388 0.06867062
v -0.00034738 -0.01602242 0.06878151
v -0.00034738 -0.01379832 0.06949110
v -0.00090304 -0.01378981 0.06949274
v -0.00034738 -0.01577800 0.06894153
v -0.00090304 -0.01577922 0.06894117
v -0.00034738 -0.01427986 0.06939203
v -0.00090304 -0.01430053 0.06938766
v -0.00034738 -0.01567342 0.06899957
v -0.00090304 -0.01569896 0.06898575
v -0.00034738 -0.01517485 0.06919225
v -0.00090304 -0.01517850 0.06919125
v -0.00090304 -0.01567829 0.06899721
v -0.00034738 -0.01561506 0.06902386
v -0.00090304 -0.01562235 0.06902077
v -0.00034738 -0.01521620 0.06917997
v -0.00090304 -0.01520890 0.06918198
v -0.00034738 -0.01555669 0.06904761
v -0.00090304 -0.01554817 0.06905134
v -0.00090304 -0.01558952 0.06903433
v -0.00090304 -0.01524660 0.06916988
v -0.00034738 -0.01524417 0.06917051
v -0.00034738 -0.01545697 0.06908727
v -0.00090304 -0.01533537 0.06913531
v -0.00090304 -0.01527578 0.06915869
v -0.00034738 -0.01538280 0.06911647
v -0.00034738 -0.01542049 0.06910165
f 3 5 4
f 1 3 4
f 4 5 1
f 2 3 1
f 31 30 27
f 3 2 7
f 7 8 3
f 12 8 7
f 27 30 26
f 15 9 14
f 15 21 16
f 16 9 15
f 1 5 6
f 5 11 6
f 5 9 10
f 10 11 5
f 10 9 16
f 27 26 22
f 18 22 19
f 28 25 29
f 29 32 28
f 37 32 36
f 31 35 34
f 30 31 34
f 13 17 18
f 18 19 13
f 12 17 13
f 13 8 12
f 23 22 26
f 23 19 22
f 41 45 46
f 49 48 52
f 53 52 51
f 49 52 53
f 40 37 36
f 28 32 33
f 32 37 33
f 35 39 38
f 38 34 35
f 50 51 46
f 46 45 50
f 36 41 42
f 42 40 36
f 39 44 43
f 43 38 39
f 43 44 48
f 43 48 49
f 54 53 51
f 51 50 54
f 47 41 46
f 47 42 41
f 20 25 24
f 24 25 28
f 20 24 15
f 15 14 20
f 24 21 15
f 54 25 20
f 54 5 3
f 20 14 54
f 3 8 54
f 54 26 30
f 54 9 5
f 54 41 36
f 54 29 25
f 14 9 54
f 30 34 54
f 36 32 54
f 8 13 54
f 32 29 54
f 54 23 26
f 49 53 54
f 54 13 19
f 19 23 54
f 45 41 54
f 54 50 45
f 34 38 54
f 54 43 49
f 38 43 54
f 47 2 1
f 47 10 16
f 47 24 28
f 12 7 47
f 47 21 24
f 47 31 27
f 47 17 12
f 47 7 2
f 47 35 31
f 28 33 47
f 16 21 47
f 1 6 47
f 18 17 47
f 27 22 47
f 48 44 47
f 47 6 11
f 11 10 47
f 47 22 18
f 46 51 47
f 47 52 48
f 47 39 35
f 51 52 47
f 37 40 47
f 47 33 37
f 47 44 39
f 40 42 47

