# https://github.com/mikedh/trimesh
v -0.00436470 0.00923375 0.05870362
v -0.00436470 0.01735000 0.05870362
v -0.00380787 0.00923375 0.05870362
v -0.00436470 0.00923375 0.06959999
v -0.00436470 0.01735000 0.06630740
v -0.00380787 0.01735000 0.05870362
v -0.00380787 0.00923375 0.06959999
v -0.00436470 0.01235043 0.06959999
v -0.00380787 0.01735000 0.06630740
v -0.00436470 0.01733570 0.06651965
v -0.00380787 0.01733570 0.06652712
v -0.00380787 0.01235043 0.06959999
v -0.00380787 0.01240207 0.06959893
v -0.00436470 0.01240128 0.06959893
v -0.00436470 0.01729121 0.06686203
v -0.00380787 0.01732458 0.06661245
v -0.00380787 0.01258957 0.06958719
v -0.00436470 0.01297727 0.06956160
v -0.00436470 0.01724990 0.06707535
v -0.00380787 0.01729200 0.06685990
v -0.00380787 0.01729280 0.06685457
v -0.00380787 0.01295423 0.06956266
v -0.00380787 0.01431832 0.06938774
v -0.00436470 0.01433580 0.06938454
v -0.00380787 0.01723321 0.06712548
v -0.00380787 0.01724831 0.06707962
v -0.00380787 0.01724990 0.06707429
v -0.00436470 0.01718237 0.06727907
v -0.00380787 0.01718555 0.06726947
v -0.00380787 0.01432468 0.06938667
v -0.00380787 0.01507068 0.06922135
v -0.00436470 0.01506830 0.06922135
v -0.00436470 0.01705923 0.06758092
v -0.00380787 0.01706240 0.06757452
v -0.00380787 0.01717998 0.06728547
v -0.00436470 0.01520653 0.06918295
v -0.00380787 0.01520653 0.06918295
v -0.00436470 0.01696468 0.06777824
v -0.00380787 0.01706002 0.06757986
v -0.00380787 0.01535828 0.06911576
v -0.00380787 0.01550208 0.06905176
v -0.00380787 0.01582781 0.06890670
v -0.00436470 0.01591043 0.06886937
v -0.00380787 0.01696468 0.06777824
v -0.00436470 0.01670330 0.06813129
v -0.00380787 0.01591043 0.06886937
v -0.00380787 0.01599226 0.06880538
v -0.00436470 0.01616307 0.06867099
v -0.00380787 0.01669536 0.06814195
v -0.00436470 0.01650707 0.06839260
v -0.00380787 0.01668980 0.06814942
v -0.00380787 0.01614559 0.06868485
v -0.00380787 0.01650707 0.06839260
f 11 5 10
f 5 11 9
f 8 12 13
f 18 22 23
f 24 18 23
f 30 24 23
f 17 22 18
f 14 8 13
f 13 17 14
f 14 17 18
f 31 24 30
f 46 43 42
f 36 31 37
f 36 42 43
f 15 11 10
f 29 19 28
f 28 35 29
f 24 31 32
f 31 36 32
f 40 36 37
f 20 15 19
f 44 38 45
f 44 45 49
f 50 53 51
f 45 50 51
f 49 45 51
f 48 53 50
f 42 36 41
f 36 40 41
f 15 20 21
f 27 20 19
f 28 33 34
f 34 35 28
f 53 48 52
f 11 15 16
f 15 21 16
f 19 29 25
f 39 33 38
f 39 34 33
f 38 44 39
f 47 48 43
f 47 52 48
f 47 43 46
f 26 27 19
f 19 25 26
f 1 2 6
f 6 3 1
f 1 3 7
f 7 4 1
f 9 6 2
f 2 5 9
f 4 7 8
f 7 12 8
f 48 2 1
f 1 4 48
f 48 5 2
f 48 15 10
f 4 8 48
f 10 5 48
f 48 18 24
f 48 14 18
f 45 38 48
f 48 50 45
f 28 19 48
f 8 14 48
f 48 33 28
f 48 36 43
f 19 15 48
f 24 32 48
f 48 32 36
f 38 33 48
f 3 6 26
f 26 7 3
f 26 17 13
f 26 12 7
f 6 9 26
f 26 40 37
f 13 12 26
f 42 41 26
f 26 9 11
f 30 23 26
f 26 31 30
f 46 42 26
f 26 23 22
f 22 17 26
f 37 31 26
f 26 44 49
f 26 29 35
f 35 34 26
f 49 51 26
f 26 39 44
f 11 16 26
f 26 51 53
f 26 41 40
f 26 21 20
f 20 27 26
f 26 25 29
f 53 52 26
f 26 16 21
f 26 47 46
f 34 39 26
f 52 47 26

