# https://github.com/mikedh/trimesh
v 0.01909459 -0.00940084 0.06529459
v 0.01996175 -0.00862119 0.06529459
v 0.01932837 -0.00919075 0.06582483
v 0.01909459 -0.00940084 0.06582483
v 0.01909459 -0.00680556 0.06529459
v 0.02087168 -0.00780292 0.06529459
v 0.02091673 -0.00776253 0.06582483
v 0.01909459 -0.00680556 0.06582483
v 0.02166536 -0.00680556 0.06529459
v 0.02105463 -0.00763830 0.06529459
v 0.02105463 -0.00763830 0.06582483
v 0.02165957 -0.00680556 0.06582483
v 0.02144844 -0.00712565 0.06529459
v 0.02159012 -0.00690819 0.06582483
v 0.02131583 -0.00731313 0.06582483
v 0.02133671 -0.00729052 0.06529459
v 0.02130199 -0.00733345 0.06582483
v 0.02115855 -0.00751027 0.06582483
f 1 3 4
f 2 3 1
f 3 2 7
f 16 17 10
f 17 16 15
f 10 7 6
f 6 7 2
f 11 7 10
f 9 12 14
f 14 15 9
f 9 15 13
f 13 15 16
f 10 17 18
f 18 11 10
f 9 5 8
f 8 12 9
f 8 5 1
f 1 4 8
f 13 5 9
f 1 5 13
f 13 2 1
f 10 6 13
f 13 16 10
f 13 6 2
f 12 8 18
f 18 4 3
f 3 7 18
f 18 8 4
f 18 14 12
f 17 15 18
f 7 11 18
f 15 14 18

