# https://github.com/mikedh/trimesh
v 0.00789077 -0.01000426 0.06069555
v 0.00802103 -0.01000426 0.06069555
v 0.00789077 -0.01000426 0.06179997
v 0.00789077 -0.00700031 0.06069555
v 0.00866760 -0.01000301 0.06069555
v 0.00866715 -0.01000426 0.06177942
v 0.00866715 -0.01000426 0.06179997
v 0.00789077 -0.00938619 0.06180595
v 0.00789077 -0.00680556 0.06070001
v 0.00903298 -0.00700031 0.06069555
v 0.00903119 -0.00963605 0.06069555
v 0.00903298 -0.00963542 0.06179997
v 0.00903298 -0.00856741 0.06180595
v 0.00789077 -0.00680556 0.06180595
v 0.00903298 -0.00680556 0.06070001
v 0.00903298 -0.00954587 0.06069555
v 0.00903298 -0.00680556 0.06180595
f 12 11 16
f 8 3 7
f 5 11 12
f 8 7 13
f 13 7 12
f 6 2 5
f 12 7 6
f 6 5 12
f 3 4 1
f 3 14 9
f 9 4 3
f 8 14 3
f 15 4 9
f 10 4 15
f 9 14 17
f 17 15 9
f 10 15 13
f 13 16 10
f 12 16 13
f 15 17 13
f 13 14 8
f 13 17 14
f 1 4 2
f 2 4 10
f 10 16 2
f 2 16 11
f 11 5 2
f 6 3 1
f 1 2 6
f 6 7 3

