# https://github.com/mikedh/trimesh
v 0.01941992 -0.00920000 0.02049218
v 0.01941992 -0.00920000 0.01930724
v 0.01389478 -0.00920000 0.02049218
v 0.00807651 -0.01714274 0.02049218
v 0.01389478 -0.00920000 0.01930724
v 0.00807651 -0.01714274 0.01930724
v 0.01046378 -0.01184343 0.01930724
v 0.01109002 -0.01136139 0.02049218
v 0.00807651 -0.01368839 0.02049218
v 0.00807651 -0.01368839 0.01930724
v 0.00887486 -0.01306796 0.01930724
v 0.00887486 -0.01306874 0.02049218
v 0.00864946 -0.01324290 0.01930724
v 0.00832635 -0.01349402 0.01930724
f 9 12 13
f 13 12 11
f 3 5 7
f 11 12 8
f 8 7 11
f 3 7 8
f 10 9 14
f 9 13 14
f 6 1 4
f 6 2 1
f 4 9 6
f 6 9 10
f 5 3 1
f 1 2 5
f 1 3 8
f 4 1 8
f 8 9 4
f 8 12 9
f 2 6 14
f 14 6 10
f 14 5 2
f 14 7 5
f 14 13 11
f 11 7 14

