# https://github.com/mikedh/trimesh
v 0.00717732 -0.01501386 0.04271398
v 0.00717732 -0.01501386 0.04340124
v 0.00717732 -0.01440014 0.04271398
v 0.01204605 -0.01501386 0.04271398
v 0.00717732 -0.01440014 0.04340124
v 0.01204605 -0.01501386 0.04340124
v 0.01125970 -0.01440014 0.04271398
v 0.01199220 -0.01440080 0.04271398
v 0.01118869 -0.01440014 0.04340124
v 0.01199220 -0.01440080 0.04340124
f 10 8 7
f 10 7 9
f 1 4 6
f 6 2 1
f 4 8 6
f 6 8 10
f 5 3 1
f 1 2 5
f 1 3 7
f 7 4 1
f 7 8 4
f 2 6 9
f 9 6 10
f 9 5 2
f 3 5 9
f 9 7 3

