# https://github.com/mikedh/trimesh
v 0.00789036 -0.00696952 0.06959999
v 0.00364397 -0.00696952 0.06959999
v 0.00789036 -0.00938608 0.06959999
v 0.00789036 -0.00696952 0.06198995
v 0.00364397 -0.00950133 0.06959999
v 0.00364397 -0.00696952 0.06198995
v 0.00780264 -0.00950133 0.06959999
v 0.00780306 -0.00950108 0.06198995
v 0.00789036 -0.00938608 0.06198995
v 0.00364397 -0.00950133 0.06198995
v 0.00780264 -0.00950133 0.06198995
f 8 3 7
f 8 9 3
f 11 8 7
f 1 4 6
f 2 1 6
f 3 1 2
f 2 5 3
f 5 7 3
f 2 6 10
f 10 5 2
f 9 4 1
f 1 3 9
f 11 6 4
f 11 10 6
f 4 9 11
f 9 8 11
f 11 7 5
f 5 10 11

