# https://github.com/mikedh/trimesh
v 0.00364809 0.01432903 0.05616728
v 0.00364809 0.01235015 0.05616728
v 0.00364809 0.01432903 0.05489369
v -0.00436470 0.01432903 0.05616728
v 0.00363476 0.01234568 0.05616728
v 0.00364809 0.01235015 0.05489369
v -0.00436470 0.01432903 0.05489369
v -0.00436470 0.01234704 0.05616728
v 0.00363476 0.01234568 0.05490004
v -0.00436156 0.01234568 0.05616728
v -0.00436470 0.01235015 0.05489369
v -0.00436470 0.01234568 0.05490004
f 10 8 12
f 4 1 7
f 1 3 7
f 6 7 3
f 11 7 6
f 1 2 6
f 6 3 1
f 8 2 1
f 8 1 4
f 5 2 8
f 8 10 5
f 9 2 5
f 9 6 2
f 4 7 12
f 12 7 11
f 12 8 4
f 11 6 12
f 6 9 12
f 5 10 12
f 12 9 5

