# https://github.com/mikedh/trimesh
v 0.00925257 0.01631926 0.06212480
v 0.01000564 0.01579164 0.06212480
v 0.00952030 0.01613180 0.06033744
v 0.00925257 0.01631926 0.06033744
v 0.00925257 0.01290560 0.06212480
v 0.00964141 0.01604693 0.06033744
v 0.01000564 0.01290560 0.06212480
v 0.01000564 0.01579164 0.06033744
v 0.00925257 0.01290560 0.06033744
v 0.01000564 0.01290560 0.06033744
f 1 2 3
f 1 3 4
f 2 8 6
f 6 3 2
f 1 5 7
f 7 2 1
f 2 7 8
f 8 7 10
f 9 7 5
f 10 7 9
f 9 5 1
f 1 4 9
f 6 8 10
f 6 4 3
f 10 9 6
f 6 9 4

