# https://github.com/mikedh/trimesh
v -0.00380787 0.00524286 0.06802898
v -0.00396354 0.00524286 0.06788384
v -0.00436470 0.00518346 0.06737631
v -0.00380787 0.00495287 0.06737631
v -0.00380787 0.00524286 0.05870362
v -0.00436470 0.00524286 0.06750959
v -0.00436470 0.00507378 0.06659950
v -0.00380787 0.00484315 0.06659950
v -0.00380787 0.00484315 0.05870362
v -0.00436470 0.00524286 0.05870362
v -0.00436470 0.00507378 0.05870362
f 4 1 3
f 3 8 4
f 7 8 3
f 2 6 3
f 3 1 2
f 1 4 9
f 9 5 1
f 9 4 8
f 9 7 11
f 8 7 9
f 10 7 3
f 3 6 10
f 11 7 10
f 1 5 10
f 10 2 1
f 6 2 10
f 5 9 10
f 10 9 11

