# https://github.com/mikedh/trimesh
v 0.00778049 0.01735000 0.05959665
v 0.00882884 0.01661586 0.05959665
v 0.00778049 0.01735000 0.05870362
v 0.00364527 0.01735000 0.05959665
v 0.00907967 0.01644015 0.05959665
v 0.00925202 0.01631877 0.05870362
v 0.00364527 0.01735000 0.05870362
v 0.00364527 0.01235000 0.05959665
v 0.00925202 0.01631877 0.05959665
v 0.00925202 0.01235049 0.05870362
v 0.00364527 0.01235587 0.05870362
v 0.00925202 0.01235049 0.05959665
v 0.00364527 0.01235000 0.05870458
f 5 9 6
f 6 3 5
f 10 13 11
f 2 3 1
f 2 5 3
f 9 10 6
f 12 10 9
f 4 1 3
f 3 7 4
f 13 12 8
f 13 10 12
f 6 10 11
f 11 3 6
f 7 3 11
f 11 8 4
f 4 7 11
f 11 13 8
f 2 1 4
f 4 8 2
f 8 12 2
f 12 9 2
f 9 5 2

