# https://github.com/mikedh/trimesh
v 0.00364809 0.01432903 0.05674785
v 0.00364809 0.01235015 0.05674785
v 0.00364809 0.01432903 0.05616741
v -0.00436470 0.01432903 0.05674785
v 0.00363476 0.01234782 0.05674785
v 0.00363476 0.01234568 0.05616741
v 0.00364809 0.01235015 0.05616741
v -0.00436470 0.01432903 0.05616741
v -0.00436470 0.01234782 0.05674785
v 0.00180333 0.01234568 0.05674785
v -0.00436156 0.01234568 0.05616741
v -0.00436470 0.01234704 0.05616741
v -0.00435999 0.01234568 0.05674785
f 6 7 2
f 13 12 11
f 5 10 6
f 6 2 5
f 12 13 9
f 1 3 8
f 4 1 8
f 2 3 1
f 2 7 3
f 12 8 3
f 12 7 6
f 3 7 12
f 6 11 12
f 13 11 6
f 6 10 13
f 9 1 4
f 9 2 1
f 10 5 9
f 9 13 10
f 9 5 2
f 4 8 9
f 8 12 9

