# https://github.com/mikedh/trimesh
v -0.00307119 0.01234966 0.06959999
v -0.00307119 0.01237005 0.06959992
v -0.00353878 0.01234966 0.06959999
v -0.00307119 0.00775745 0.06959999
v -0.00307119 0.01240328 0.06959978
v -0.00353878 0.01240177 0.06959978
v -0.00353878 0.00795156 0.06959999
v -0.00353878 0.00763736 0.06956148
v -0.00307119 0.00720910 0.06953270
v -0.00307119 0.01288592 0.06956816
v -0.00353878 0.01294257 0.06956440
v -0.00353878 0.00711847 0.06949774
v -0.00307119 0.00692436 0.06949774
v -0.00307119 0.01292293 0.06956572
v -0.00307119 0.01343275 0.06946799
v -0.00353878 0.01343275 0.06946785
v -0.00353878 0.00634202 0.06919814
v -0.00307119 0.00668719 0.06940626
v -0.00307119 0.01343275 0.06888991
v -0.00353878 0.01343275 0.06888991
v -0.00353878 0.00591075 0.06888991
v -0.00307119 0.00614791 0.06919814
v -0.00307119 0.00571664 0.06888991
f 4 7 8
f 11 14 15
f 15 16 11
f 4 8 9
f 9 8 13
f 13 8 12
f 3 1 2
f 14 11 10
f 10 11 5
f 5 11 6
f 6 2 5
f 3 2 6
f 17 22 18
f 18 12 17
f 13 12 18
f 21 20 19
f 21 19 23
f 7 4 1
f 7 1 3
f 19 20 16
f 16 15 19
f 22 21 23
f 22 17 21
f 20 21 6
f 6 7 3
f 6 8 7
f 6 16 20
f 21 17 6
f 17 12 6
f 6 11 16
f 6 12 8
f 1 4 18
f 23 19 18
f 4 9 18
f 19 15 18
f 18 22 23
f 15 14 18
f 18 2 1
f 14 10 18
f 18 9 13
f 5 2 18
f 18 10 5

