# https://github.com/mikedh/trimesh
v 0.02163476 -0.00680556 0.06804330
v 0.02163036 -0.00680556 0.06852753
v 0.02150824 -0.00699330 0.06804330
v 0.01266043 -0.00680556 0.06804330
v 0.02115239 -0.00751067 0.06852753
v 0.02127540 -0.00733733 0.06804330
v 0.01266043 -0.00680556 0.06852753
v 0.01266043 -0.00840526 0.06804330
v 0.02112427 -0.00755170 0.06852753
v 0.02117172 -0.00749000 0.06804330
v 0.01266043 -0.00840526 0.06852753
v 0.02020171 -0.00840526 0.06804330
v 0.02105398 -0.00763813 0.06852753
v 0.02109264 -0.00759069 0.06804330
v 0.02115590 -0.00751255 0.06804330
v 0.02020171 -0.00840526 0.06852753
v 0.02065948 -0.00799359 0.06804330
v 0.02101357 -0.00767509 0.06804330
v 0.02105398 -0.00763813 0.06804330
f 1 2 3
f 17 16 12
f 18 16 17
f 13 18 19
f 13 16 18
f 6 3 2
f 14 13 19
f 10 6 5
f 5 6 2
f 9 14 15
f 13 14 9
f 9 15 10
f 10 5 9
f 7 2 1
f 7 1 4
f 11 7 4
f 4 8 11
f 8 12 16
f 16 11 8
f 4 1 14
f 14 8 4
f 14 12 8
f 14 6 10
f 1 3 14
f 19 18 14
f 14 17 12
f 10 15 14
f 18 17 14
f 3 6 14
f 2 7 9
f 7 11 9
f 11 16 9
f 16 13 9
f 9 5 2

