# https://github.com/mikedh/trimesh
v 0.00393154 -0.00416685 0.06197169
v 0.00393154 0.00002072 0.06197169
v 0.00443715 -0.00416685 0.06197169
v 0.00393154 -0.00416685 0.06959999
v 0.00443715 0.00002072 0.06197169
v 0.00393154 0.00002072 0.06931995
v 0.00443715 -0.00416685 0.06959999
v 0.00393154 -0.00172465 0.06959999
v 0.00443715 0.00002072 0.06940807
v 0.00393154 -0.00062693 0.06949768
v 0.00443715 0.00001826 0.06946707
v 0.00443715 -0.00121924 0.06959999
v 0.00443715 -0.00012111 0.06949768
f 9 6 11
f 13 8 12
f 8 13 10
f 10 13 11
f 11 6 10
f 1 2 5
f 5 3 1
f 1 3 7
f 7 4 1
f 9 5 2
f 2 6 9
f 4 7 8
f 7 12 8
f 3 5 13
f 13 7 3
f 13 9 11
f 13 12 7
f 5 9 13
f 10 2 1
f 1 4 10
f 10 6 2
f 4 8 10

