# https://github.com/mikedh/trimesh
v 0.01472256 -0.01234900 0.02671490
v 0.01398802 -0.01234900 0.02713617
v 0.01398802 -0.01261670 0.02730117
v 0.01420511 -0.01283378 0.02730117
v 0.01421546 -0.01284416 0.02730117
v 0.01421316 -0.01284576 0.02671490
v 0.01398802 -0.01234900 0.02671490
v 0.01398802 -0.01300351 0.02730117
v 0.01415132 -0.01288914 0.02671490
v 0.01418713 -0.01286402 0.02671490
v 0.01398802 -0.01300351 0.02671490
f 3 1 2
f 2 1 7
f 1 3 4
f 4 5 1
f 8 11 9
f 9 5 8
f 1 5 6
f 5 9 10
f 10 6 5
f 8 3 7
f 7 3 2
f 7 11 8
f 4 3 8
f 8 5 4
f 11 7 10
f 10 7 1
f 10 9 11
f 1 6 10

