# https://github.com/mikedh/trimesh
v -0.00090304 -0.01731350 0.06665181
v -0.00034738 -0.01731502 0.06665181
v -0.00090304 -0.01731198 0.06668622
v -0.00090304 -0.00232272 0.06665181
v -0.00034738 -0.01731198 0.06671809
v -0.00034738 -0.00176564 0.06665181
v -0.00090304 -0.01731046 0.06671003
v -0.00090304 -0.00232576 0.06669906
v -0.00034738 -0.01730589 0.06676673
v -0.00090304 -0.01729524 0.06684525
v -0.00090304 -0.01729980 0.06680865
v -0.00090304 -0.01730437 0.06677013
v -0.00090304 -0.01730893 0.06672860
v -0.00034738 -0.00178086 0.06681229
v -0.00090304 -0.00233185 0.06675689
v -0.00034738 -0.01728915 0.06689659
v -0.00090304 -0.01728763 0.06690192
v -0.00063222 -0.00209593 0.06696126
v -0.00034738 -0.00180978 0.06696126
v -0.00090304 -0.00236990 0.06696126
v -0.00034738 -0.01728002 0.06692679
v -0.00090304 -0.01727241 0.06695366
v -0.00034738 -0.01726936 0.06696126
v -0.00090304 -0.01726936 0.06696126
f 18 19 14
f 22 23 24
f 16 22 17
f 6 4 8
f 8 14 6
f 1 2 3
f 5 3 2
f 23 22 21
f 22 16 21
f 14 8 15
f 15 20 18
f 18 14 15
f 7 5 13
f 3 5 7
f 13 5 12
f 5 11 12
f 10 9 16
f 10 16 17
f 5 9 10
f 10 11 5
f 4 6 2
f 4 2 1
f 23 20 24
f 23 19 18
f 18 20 23
f 2 6 9
f 19 23 9
f 6 14 9
f 9 14 19
f 9 5 2
f 23 21 9
f 9 21 16
f 10 4 1
f 24 20 10
f 10 8 4
f 10 22 24
f 20 15 10
f 17 22 10
f 1 3 10
f 13 12 10
f 10 15 8
f 10 7 13
f 3 7 10
f 10 12 11

