# https://github.com/mikedh/trimesh
v -0.00436470 0.01235015 0.05432784
v -0.00436470 0.01234568 0.05490014
v -0.00436470 0.01432903 0.05432784
v 0.01372076 0.01235015 0.05432784
v -0.00436470 0.01234568 0.05870362
v 0.00363590 0.01234568 0.05490014
v -0.00436470 0.01432903 0.05870362
v 0.01209300 0.01432903 0.05432784
v 0.01412088 0.01275132 0.05432784
v 0.01418636 0.01281618 0.05870362
v 0.01372076 0.01235015 0.05870362
v 0.00363590 0.01234568 0.05870362
v 0.01209300 0.01432903 0.05870362
v 0.01365711 0.01323483 0.05432784
v 0.01421364 0.01284433 0.05432784
v 0.01421364 0.01284433 0.05870362
v 0.01404632 0.01296240 0.05870362
f 14 8 13
f 15 10 9
f 9 10 4
f 16 10 15
f 4 10 11
f 15 14 17
f 17 16 15
f 17 14 13
f 7 8 3
f 13 8 7
f 2 3 1
f 2 7 3
f 5 7 2
f 1 4 6
f 6 2 1
f 9 4 1
f 1 3 9
f 9 14 15
f 3 8 9
f 8 14 9
f 12 7 5
f 13 7 12
f 12 17 13
f 10 16 12
f 12 11 10
f 16 17 12
f 5 2 12
f 2 6 12
f 12 6 4
f 4 11 12

