# https://github.com/mikedh/trimesh
v 0.00807651 0.01368917 0.01630092
v 0.00807651 0.01714274 0.01630092
v 0.00887486 0.01306796 0.01630092
v 0.00807874 0.01368684 0.02572592
v 0.00807651 0.01368917 0.02572592
v 0.00807651 0.01714274 0.02572592
v 0.01941992 0.00920078 0.02572592
v 0.01941881 0.00920078 0.01630092
v 0.01389478 0.00920000 0.01630092
v 0.00891372 0.01303764 0.02572592
v 0.01389478 0.00920000 0.02572592
f 8 2 7
f 1 4 5
f 7 2 6
f 7 11 9
f 9 8 7
f 10 9 11
f 9 10 3
f 3 10 4
f 3 4 1
f 6 2 1
f 1 5 6
f 10 5 4
f 10 11 7
f 7 6 10
f 10 6 5
f 1 2 3
f 2 8 3
f 8 9 3

