# https://github.com/mikedh/trimesh
v 0.00364527 0.01222339 0.06629506
v 0.00364527 0.01222339 0.06959999
v 0.00364527 0.01286500 0.06629506
v 0.00781544 0.01222339 0.06629506
v 0.00364527 0.01235000 0.06959999
v 0.00852178 0.01222339 0.06959999
v 0.00364527 0.01286500 0.06954176
v 0.00898258 0.01286500 0.06629506
v 0.00852387 0.01222508 0.06629506
v 0.00852178 0.01222339 0.06950197
v 0.00364527 0.01241752 0.06959967
v 0.00877517 0.01235000 0.06959999
v 0.00898258 0.01242876 0.06959967
v 0.00898258 0.01242072 0.06959967
v 0.00364527 0.01286400 0.06954209
v 0.00593829 0.01286500 0.06955050
v 0.00898258 0.01286500 0.06956182
v 0.00898258 0.01242072 0.06629506
v 0.00364527 0.01264845 0.06958446
f 17 19 13
f 7 15 16
f 16 15 19
f 16 19 17
f 11 13 19
f 13 11 5
f 4 9 10
f 10 9 18
f 13 5 12
f 14 13 12
f 6 14 12
f 8 17 13
f 13 18 8
f 14 18 13
f 16 17 8
f 3 7 16
f 8 3 16
f 9 3 8
f 1 3 9
f 9 4 1
f 8 18 9
f 1 2 5
f 5 3 1
f 5 7 3
f 5 15 7
f 19 15 5
f 5 11 19
f 10 2 1
f 1 4 10
f 10 6 2
f 10 18 14
f 10 14 6
f 2 6 12
f 12 5 2

