# https://github.com/mikedh/trimesh
v 0.00925257 0.00628820 0.06070043
v 0.00925257 0.00628820 0.06501920
v 0.00925257 0.00699880 0.06070043
v 0.02076543 0.00628820 0.06070043
v 0.00925257 0.00699880 0.06501920
v 0.02196882 0.00628820 0.06501920
v 0.02028307 0.00699880 0.06070043
v 0.02118905 0.00628820 0.06102220
v 0.02152270 0.00699880 0.06501920
v 0.02199007 0.00628820 0.06362683
v 0.02091413 0.00699880 0.06118118
v 0.02157269 0.00699880 0.06170042
v 0.02201881 0.00628820 0.06170042
f 9 6 10
f 7 8 4
f 11 8 7
f 13 8 12
f 12 8 11
f 12 10 13
f 9 10 12
f 1 2 5
f 5 3 1
f 2 6 5
f 5 6 9
f 1 4 8
f 8 2 1
f 13 10 8
f 8 6 2
f 8 10 6
f 7 4 1
f 1 3 7
f 3 5 12
f 12 5 9
f 12 7 3
f 11 7 12

