# https://github.com/mikedh/trimesh
v 0.00002854 0.00685973 0.06959999
v -0.00090056 0.00685973 0.06959999
v 0.00002854 0.00618922 0.06959999
v 0.00002854 0.00685973 0.06502657
v -0.00090056 0.00642968 0.06959999
v -0.00090056 0.00685973 0.06502657
v -0.00058722 0.00618922 0.06959999
v 0.00002854 0.00618922 0.06502657
v -0.00090056 0.00618922 0.06957448
v -0.00090056 0.00618922 0.06502657
f 9 7 5
f 1 4 6
f 2 1 6
f 8 4 1
f 1 3 8
f 8 6 4
f 10 6 8
f 7 9 10
f 7 8 3
f 10 8 7
f 2 6 5
f 5 6 10
f 10 9 5
f 5 1 2
f 5 3 1
f 5 7 3

