# https://github.com/mikedh/trimesh
v -0.00436470 -0.01235009 0.03281924
v -0.00337309 -0.01238011 0.03281924
v -0.00337309 -0.01235009 0.03281682
v -0.00337309 -0.01234311 0.03279987
v -0.00436470 -0.01234311 0.03279987
v -0.00436470 -0.01947555 0.03281924
v -0.00337309 -0.01947555 0.03281924
v -0.00337309 -0.01234311 0.02787249
v -0.00436470 -0.01234311 0.02787249
v -0.00436470 -0.01947555 0.02787249
v -0.00337309 -0.01947555 0.02787249
f 1 2 3
f 3 4 1
f 1 4 5
f 1 6 7
f 7 2 1
f 3 11 8
f 2 7 3
f 8 4 3
f 3 7 11
f 10 7 6
f 11 7 10
f 8 11 10
f 10 9 8
f 5 6 1
f 5 10 6
f 9 10 5
f 5 4 8
f 8 9 5

