# https://github.com/mikedh/trimesh
v 0.01199221 0.01440113 0.03625404
v 0.01201646 0.01438386 0.03625404
v 0.01199221 0.01440113 0.03564590
v 0.00402806 0.01440113 0.03625404
v 0.01201881 0.01438165 0.03625404
v 0.01201881 0.01438165 0.03564590
v 0.00402806 0.01440113 0.03564590
v 0.00402806 0.01235020 0.03625404
v 0.01201881 0.01235020 0.03625404
v 0.01201881 0.01235020 0.03564590
v 0.00402806 0.01235020 0.03564590
f 3 1 2
f 2 6 3
f 5 6 2
f 4 1 7
f 7 1 3
f 5 9 6
f 6 9 10
f 11 7 3
f 11 6 10
f 3 6 11
f 11 9 8
f 10 9 11
f 11 8 4
f 4 7 11
f 2 1 4
f 4 8 2
f 2 9 5
f 8 9 2

