# https://github.com/mikedh/trimesh
v 0.00512145 -0.01414408 0.01943362
v 0.00613321 -0.01424875 0.01943362
v 0.00613539 -0.01424875 0.01631534
v 0.00512145 -0.01414408 0.01630000
v 0.00512145 -0.01921140 0.01943362
v 0.00613539 -0.01788194 0.01943362
v 0.00613539 -0.01424875 0.01630000
v 0.00512145 -0.01921140 0.01630000
v 0.00613539 -0.01850152 0.01943362
v 0.00613539 -0.01850152 0.01630000
f 2 3 1
f 2 6 3
f 1 4 8
f 8 5 1
f 7 4 1
f 1 3 7
f 1 5 9
f 9 2 1
f 6 2 9
f 10 7 3
f 6 9 10
f 3 6 10
f 10 8 4
f 4 7 10
f 5 8 10
f 10 9 5

