# https://github.com/mikedh/trimesh
v 0.01369049 -0.01321175 0.05990310
v 0.01369049 -0.01281204 0.05990310
v 0.01389928 -0.01306560 0.05990310
v 0.01369049 -0.01321175 0.06031824
v 0.01369049 -0.01281204 0.06031824
v 0.01409300 -0.01281204 0.05990310
v 0.01390066 -0.01306462 0.06031824
v 0.01421546 -0.01284424 0.05990310
v 0.01421546 -0.01284424 0.06031824
v 0.01418329 -0.01281204 0.06031824
v 0.01418329 -0.01281204 0.05990363
f 3 4 1
f 9 3 8
f 6 11 8
f 4 3 7
f 3 9 7
f 9 11 10
f 8 11 9
f 5 2 1
f 1 4 5
f 6 3 1
f 1 2 6
f 8 3 6
f 10 11 6
f 2 5 6
f 6 5 10
f 7 9 10
f 10 5 7
f 7 5 4

