# https://github.com/mikedh/trimesh
v 0.00879195 -0.01234577 0.06481061
v 0.00952128 -0.01250035 0.06481061
v 0.00879195 -0.01233861 0.06180665
v 0.00879195 -0.01664136 0.06481061
v 0.00952314 -0.01252226 0.06481061
v 0.00952314 -0.01249993 0.06183899
v 0.00952314 -0.01249993 0.06180665
v 0.00879195 -0.01664136 0.06180665
v 0.00882445 -0.01661904 0.06481061
v 0.00952314 -0.01612958 0.06481061
v 0.00952314 -0.01612958 0.06180665
v 0.00907166 -0.01644592 0.06180665
v 0.00893632 -0.01654069 0.06481061
v 0.00921953 -0.01634230 0.06481061
v 0.00929654 -0.01628838 0.06180665
f 2 3 1
f 4 8 9
f 6 2 5
f 6 7 3
f 3 2 6
f 12 9 8
f 9 12 13
f 13 12 14
f 11 10 15
f 10 14 15
f 14 12 15
f 8 4 1
f 1 3 8
f 5 10 6
f 6 10 11
f 11 7 6
f 13 2 1
f 1 4 13
f 5 2 13
f 13 10 5
f 4 9 13
f 13 14 10
f 15 8 3
f 3 7 15
f 15 7 11
f 15 12 8

