# https://github.com/mikedh/trimesh
v 0.00042830 0.00967793 0.06246929
v 0.00042830 0.01323361 0.06246929
v 0.00142950 0.01060140 0.06246929
v 0.00142950 0.00967793 0.06246999
v 0.00042830 0.00967793 0.06959930
v 0.00142950 0.01323361 0.06246929
v 0.00042830 0.01323361 0.06949809
v 0.00142950 0.00967793 0.06959930
v 0.00042830 0.01241039 0.06959930
v 0.00142950 0.01323361 0.06950158
v 0.00042830 0.01278006 0.06957556
v 0.00142950 0.01241248 0.06959930
v 0.00142950 0.01250507 0.06959371
v 0.00042830 0.01257747 0.06958883
v 0.00142950 0.01273898 0.06957836
f 1 3 4
f 10 7 11
f 9 12 13
f 9 13 14
f 14 13 11
f 10 11 15
f 11 13 15
f 1 2 6
f 6 3 1
f 7 6 2
f 10 6 7
f 8 5 1
f 1 4 8
f 5 8 12
f 12 9 5
f 14 2 1
f 1 5 14
f 14 7 2
f 5 9 14
f 14 11 7
f 3 6 15
f 15 4 3
f 15 6 10
f 15 8 4
f 15 12 8
f 15 13 12

