# https://github.com/mikedh/trimesh
v -0.00034738 -0.01510799 0.06867062
v -0.00034738 -0.01510799 0.06771288
v -0.00090304 -0.01510799 0.06867062
v -0.00034738 -0.01619305 0.06867062
v -0.00090304 -0.01510799 0.06771288
v -0.00034738 -0.01699751 0.06771288
v -0.00090304 -0.01619379 0.06867062
v -0.00039094 -0.01619323 0.06867062
v -0.00034738 -0.01620433 0.06866321
v -0.00090304 -0.01699769 0.06771288
v -0.00034738 -0.01696791 0.06777195
v -0.00090304 -0.01620045 0.06866621
v -0.00034738 -0.01621377 0.06865609
v -0.00090304 -0.01696920 0.06776970
v -0.00034738 -0.01695589 0.06779417
v -0.00090304 -0.01622856 0.06864483
v -0.00034738 -0.01623448 0.06864024
v -0.00090304 -0.01695515 0.06779558
v -0.00034738 -0.01695385 0.06779773
v -0.00090304 -0.01627203 0.06861146
v -0.00034738 -0.01627203 0.06861146
v -0.00090304 -0.01692629 0.06784030
v -0.00034738 -0.01690668 0.06787058
v -0.00090304 -0.01627573 0.06860817
v -0.00034738 -0.01628332 0.06860142
v -0.00034738 -0.01688874 0.06789824
v -0.00090304 -0.01689651 0.06788615
v -0.00090304 -0.01629497 0.06859083
v -0.00034738 -0.01630052 0.06858595
v -0.00090304 -0.01683251 0.06798375
v -0.00090304 -0.01688485 0.06790405
v -0.00034738 -0.01675537 0.06810104
v -0.00090304 -0.01630755 0.06857949
v -0.00034738 -0.01632753 0.06856158
v -0.00090304 -0.01675537 0.06810104
v -0.00034738 -0.01668194 0.06818814
v -0.00090304 -0.01672411 0.06813817
v -0.00090304 -0.01633270 0.06855661
v -0.00090304 -0.01633788 0.06855145
v -0.00034738 -0.01633585 0.06855323
v -0.00090304 -0.01660129 0.06827393
v -0.00090304 -0.01667731 0.06819339
v -0.00090304 -0.01668175 0.06818823
v -0.00090304 -0.01669063 0.06817783
v -0.00034738 -0.01642519 0.06845966
v -0.00090304 -0.01646015 0.06842329
v -0.00090304 -0.01636064 0.06852848
v -0.00034738 -0.01635583 0.06853298
v -0.00090304 -0.01643444 0.06845047
f 10 6 11
f 19 18 15
f 10 11 14
f 11 15 14
f 14 15 18
f 22 18 19
f 26 32 35
f 8 9 4
f 40 47 48
f 16 20 21
f 27 26 31
f 22 26 27
f 23 22 19
f 23 26 22
f 30 26 35
f 31 26 30
f 12 8 7
f 9 8 12
f 12 13 9
f 16 13 12
f 24 25 21
f 21 20 24
f 39 40 34
f 34 38 39
f 47 40 39
f 17 16 21
f 17 13 16
f 25 24 29
f 33 38 34
f 34 29 33
f 36 44 37
f 32 36 37
f 35 32 37
f 43 36 42
f 43 44 36
f 42 36 41
f 36 46 41
f 45 46 36
f 28 29 24
f 28 33 29
f 46 45 49
f 49 45 48
f 48 47 49
f 3 1 5
f 1 2 5
f 5 6 10
f 2 6 5
f 3 7 8
f 8 1 3
f 8 4 1
f 45 2 1
f 45 6 2
f 1 4 45
f 45 11 6
f 19 15 45
f 45 29 34
f 4 9 45
f 21 25 45
f 45 15 11
f 45 23 19
f 45 40 48
f 32 26 45
f 34 40 45
f 45 17 21
f 45 36 32
f 26 23 45
f 9 13 45
f 13 17 45
f 25 29 45
f 3 5 49
f 49 7 3
f 49 5 10
f 49 27 31
f 10 14 49
f 18 22 49
f 47 39 49
f 49 14 18
f 49 30 35
f 38 33 49
f 49 24 20
f 20 16 49
f 49 12 7
f 22 27 49
f 31 30 49
f 16 12 49
f 49 28 24
f 49 39 38
f 35 37 49
f 49 43 42
f 42 41 49
f 49 37 44
f 44 43 49
f 49 41 46
f 33 28 49

