# https://github.com/mikedh/trimesh
v 0.01372076 -0.01235000 0.03533687
v 0.01406087 -0.01269041 0.03533687
v 0.01410452 -0.01273375 0.03281924
v 0.01372076 -0.01235000 0.03281924
v -0.00436470 -0.01235000 0.03533687
v 0.01416635 -0.01279678 0.03533687
v 0.01421364 -0.01284485 0.03533687
v 0.01421364 -0.01284485 0.03281924
v -0.00436470 -0.01235000 0.03281924
v -0.00436470 -0.02039921 0.03533687
v 0.01420273 -0.01285273 0.03533687
v 0.01408997 -0.01293232 0.03281924
v -0.00436470 -0.02039921 0.03281924
v 0.00342493 -0.02039921 0.03533687
v 0.01410452 -0.01292207 0.03533687
v 0.01267863 -0.01392044 0.03281924
v 0.00342493 -0.02039921 0.03281924
f 3 1 2
f 4 1 3
f 8 3 7
f 7 3 6
f 3 2 6
f 11 12 8
f 11 15 12
f 11 8 7
f 14 17 16
f 16 15 14
f 12 15 16
f 13 10 5
f 5 9 13
f 5 1 4
f 4 9 5
f 17 14 10
f 10 13 17
f 11 1 5
f 5 10 11
f 7 6 11
f 10 14 11
f 11 2 1
f 11 6 2
f 14 15 11
f 16 13 9
f 16 4 3
f 9 4 16
f 3 8 16
f 8 12 16
f 16 17 13

