# https://github.com/mikedh/trimesh
v 0.00898258 0.01241880 0.06180665
v 0.00898258 0.01650830 0.06180665
v 0.00925257 0.01246283 0.06180665
v 0.00925257 0.01246283 0.06959896
v 0.00898258 0.01242080 0.06959972
v 0.00925117 0.01632016 0.06180665
v 0.00898258 0.01650830 0.06793141
v 0.00925257 0.01272703 0.06180665
v 0.00925257 0.01389992 0.06947309
v 0.00898258 0.01386590 0.06947462
v 0.00898258 0.01243241 0.06959896
v 0.00925257 0.01631896 0.06189743
v 0.00925257 0.01631896 0.06854320
v 0.00898258 0.01650630 0.06839292
v 0.00898504 0.01650630 0.06839292
v 0.00898258 0.01519010 0.06918779
v 0.00898258 0.01391354 0.06947004
v 0.00898258 0.01390913 0.06947080
v 0.00925257 0.01519250 0.06918703
v 0.00898258 0.01594027 0.06884604
v 0.00925257 0.01590785 0.06887198
v 0.00898258 0.01519290 0.06918703
v 0.00925257 0.01520692 0.06918245
v 0.00898258 0.01592306 0.06885978
v 0.00898258 0.01590785 0.06887122
v 0.00898258 0.01588823 0.06888037
v 0.00925257 0.01587863 0.06888495
v 0.00898258 0.01520692 0.06918245
v 0.00898258 0.01522613 0.06917406
f 1 3 4
f 4 5 1
f 12 6 13
f 7 6 2
f 13 6 7
f 6 12 8
f 15 7 14
f 15 14 13
f 13 7 15
f 16 9 19
f 19 22 16
f 23 22 19
f 9 16 17
f 17 18 9
f 4 9 10
f 9 18 10
f 20 21 13
f 13 14 20
f 5 4 11
f 4 10 11
f 24 25 21
f 21 20 24
f 27 29 23
f 21 25 26
f 26 27 21
f 29 27 26
f 22 23 28
f 23 29 28
f 1 2 8
f 8 3 1
f 2 6 8
f 27 4 3
f 3 8 27
f 27 9 4
f 27 12 13
f 19 9 27
f 27 8 12
f 13 21 27
f 27 23 19
f 28 2 1
f 1 5 28
f 28 7 2
f 14 7 28
f 28 17 16
f 28 16 22
f 28 26 25
f 28 20 14
f 18 17 28
f 28 10 18
f 5 11 28
f 25 24 28
f 28 11 10
f 28 24 20
f 29 26 28

