# https://github.com/mikedh/trimesh
v 0.02384870 0.00239647 0.06145313
v 0.02392954 0.00224018 0.06145313
v 0.02333118 0.00239647 0.06099260
v 0.01583310 0.00239647 0.06145313
v 0.02392954 0.00002095 0.06145313
v 0.02317585 0.00205831 0.06070008
v 0.02300228 0.00239647 0.06070008
v 0.01583310 0.00239647 0.06070008
v 0.01583310 0.00002095 0.06145313
v 0.02317585 0.00002095 0.06070008
v 0.01583310 0.00002095 0.06070008
f 2 6 7
f 3 1 2
f 2 7 3
f 2 5 10
f 10 6 2
f 5 9 10
f 10 9 11
f 1 5 2
f 4 9 1
f 1 9 5
f 8 10 11
f 8 7 6
f 6 10 8
f 8 9 4
f 11 9 8
f 4 1 3
f 3 8 4
f 7 8 3

