# https://github.com/mikedh/trimesh
v 0.00531493 -0.01440014 0.03828204
v 0.00531493 -0.01440014 0.04060795
v 0.00531493 -0.01235020 0.03828204
v 0.01199272 -0.01440014 0.03828204
v 0.00531493 -0.01235020 0.04060795
v 0.01199272 -0.01440014 0.04060795
v 0.01372055 -0.01235020 0.03828204
v 0.01223756 -0.01422896 0.03828204
v 0.01372055 -0.01235020 0.04060795
v 0.01269501 -0.01390867 0.04060795
v 0.01385996 -0.01248907 0.04060795
v 0.01390265 -0.01253181 0.03828204
v 0.01403858 -0.01296809 0.03828204
v 0.01413530 -0.01290026 0.04060795
v 0.01395929 -0.01258821 0.04060795
v 0.01401593 -0.01264480 0.03828204
v 0.01421459 -0.01284427 0.03828204
v 0.01421459 -0.01284427 0.04060795
v 0.01406646 -0.01269537 0.04060795
v 0.01416841 -0.01279731 0.03828204
v 0.01411438 -0.01274353 0.04060795
f 17 14 13
f 18 14 17
f 20 18 17
f 8 6 4
f 16 12 11
f 11 15 16
f 11 12 7
f 11 7 9
f 19 20 16
f 16 15 19
f 6 8 10
f 10 8 13
f 10 13 14
f 18 20 21
f 20 19 21
f 5 3 1
f 1 2 5
f 5 7 3
f 9 7 5
f 1 4 6
f 6 2 1
f 8 4 1
f 1 3 8
f 7 12 8
f 3 7 8
f 17 13 8
f 8 20 17
f 8 12 16
f 16 20 8
f 21 5 2
f 9 5 21
f 2 6 21
f 14 18 21
f 21 10 14
f 21 11 9
f 15 11 21
f 21 19 15
f 6 10 21

