# https://github.com/mikedh/trimesh
v 0.01052021 0.00875983 0.06180595
v 0.01052112 0.00875983 0.06959999
v 0.01239297 0.01050092 0.06959999
v 0.01239388 0.01049990 0.06180595
v 0.01980764 0.00875983 0.06180595
v 0.01980764 0.00875983 0.06959999
v 0.01756124 0.01050092 0.06959999
v 0.01685032 0.01050092 0.06180595
v 0.01895853 0.00952274 0.06180595
v 0.01895853 0.00952274 0.06959999
v 0.01841762 0.00990147 0.06180595
v 0.01756124 0.01050092 0.06180595
f 2 3 1
f 1 3 4
f 3 8 4
f 7 10 11
f 11 12 7
f 9 11 10
f 6 2 1
f 1 5 6
f 2 6 10
f 3 2 10
f 10 7 3
f 3 7 12
f 12 8 3
f 9 5 1
f 1 4 9
f 9 4 8
f 8 12 9
f 12 11 9
f 9 6 5
f 9 10 6

