# https://github.com/mikedh/trimesh
v -0.00436470 -0.02040000 0.02787249
v -0.00436470 -0.02040000 0.03281924
v -0.00436470 -0.01947563 0.02787249
v 0.00342388 -0.02040000 0.02787249
v -0.00436470 -0.01947563 0.03281924
v 0.00342388 -0.02040000 0.03281924
v 0.00365305 -0.01947563 0.02787249
v 0.00365305 -0.02024001 0.02787249
v 0.00364991 -0.01947563 0.03281924
v 0.00365305 -0.02024001 0.03281924
v 0.00365305 -0.01947563 0.02812622
f 9 10 11
f 1 2 5
f 5 3 1
f 1 3 8
f 8 3 7
f 8 4 1
f 3 5 11
f 7 3 11
f 5 9 11
f 11 8 7
f 10 8 11
f 6 5 2
f 6 9 5
f 6 10 9
f 6 2 1
f 1 4 6
f 4 8 6
f 6 8 10

