# https://github.com/mikedh/trimesh
v 0.00713226 0.01409579 0.01630092
v 0.00678215 0.01414958 0.01630092
v 0.00807639 0.01409579 0.01630092
v 0.00713226 0.01409579 0.02572592
v 0.00678215 0.01804876 0.01630092
v 0.00678215 0.01414958 0.02572592
v 0.00807639 0.01714246 0.01630092
v 0.00807639 0.01409579 0.02572592
v 0.00678215 0.01804876 0.02572592
v 0.00695537 0.01792764 0.02572592
v 0.00807639 0.01714246 0.02572592
f 10 7 5
f 11 7 10
f 5 9 10
f 2 1 6
f 6 1 4
f 7 1 2
f 2 5 7
f 3 1 7
f 8 1 3
f 4 1 8
f 3 7 8
f 8 7 11
f 9 5 2
f 2 6 9
f 10 6 4
f 10 8 11
f 4 8 10
f 10 9 6

