# https://github.com/mikedh/trimesh
v 0.00058537 -0.01260326 0.06958616
v 0.00005237 -0.01260326 0.06958586
v 0.00005237 -0.01269944 0.06957948
v 0.00058537 -0.01281226 0.06957189
v 0.00058537 -0.01260326 0.06648425
v 0.00005237 -0.01260326 0.06648425
v 0.00005237 -0.01282798 0.06957067
v 0.00005237 -0.01294635 0.06956187
v 0.00058537 -0.01297779 0.06955944
v 0.00058537 -0.01732654 0.06648425
v 0.00005237 -0.01732654 0.06648425
v 0.00005237 -0.01308738 0.06955124
v 0.00005237 -0.01363438 0.06950994
v 0.00058537 -0.01363300 0.06950994
v 0.00058537 -0.01731313 0.06671200
v 0.00005237 -0.01731128 0.06672475
v 0.00005237 -0.01378235 0.06949445
v 0.00058537 -0.01372779 0.06950265
v 0.00058537 -0.01729417 0.06685988
v 0.00005237 -0.01729371 0.06686140
v 0.00005237 -0.01386835 0.06947684
v 0.00058537 -0.01380963 0.06948899
v 0.00058537 -0.01721787 0.06718601
v 0.00005237 -0.01721741 0.06718784
v 0.00005237 -0.01400753 0.06944830
v 0.00058537 -0.01394002 0.06946227
v 0.00058537 -0.01709442 0.06751700
v 0.00005237 -0.01709442 0.06751731
v 0.00005237 -0.01413006 0.06942309
v 0.00058537 -0.01424704 0.06939910
v 0.00058537 -0.01704725 0.06761266
v 0.00005237 -0.01702136 0.06766489
v 0.00005237 -0.01426693 0.06939485
v 0.00058537 -0.01521389 0.06918047
v 0.00058537 -0.01694784 0.06780609
v 0.00005237 -0.01697096 0.06776479
v 0.00005237 -0.01524349 0.06916954
v 0.00005237 -0.01536648 0.06912277
v 0.00058537 -0.01541688 0.06910273
v 0.00058537 -0.01687478 0.06791936
v 0.00005237 -0.01690345 0.06787533
v 0.00005237 -0.01548763 0.06907510
v 0.00058537 -0.01554311 0.06905293
v 0.00058537 -0.01680912 0.06801866
v 0.00005237 -0.01682207 0.06799922
v 0.00005237 -0.01556762 0.06904321
v 0.00058537 -0.01564345 0.06901193
v 0.00058537 -0.01672405 0.06813739
v 0.00005237 -0.01676381 0.06808728
v 0.00005237 -0.01565917 0.06900495
v 0.00058537 -0.01576691 0.06894817
v 0.00058537 -0.01664220 0.06822849
v 0.00005237 -0.01670370 0.06816138
v 0.00005237 -0.01575304 0.06895606
v 0.00005237 -0.01599949 0.06879633
v 0.00005237 -0.01611416 0.06872133
v 0.00058537 -0.01614005 0.06870402
v 0.00058537 -0.01656267 0.06831260
v 0.00005237 -0.01663388 0.06823790
v 0.00005237 -0.01623623 0.06863843
v 0.00058537 -0.01623762 0.06863722
v 0.00058537 -0.01644662 0.06843528
v 0.00005237 -0.01633287 0.06855492
v 0.00058537 -0.01633240 0.06855523
f 18 13 17
f 24 19 23
f 3 1 2
f 4 3 7
f 1 3 4
f 22 18 17
f 34 30 33
f 33 37 34
f 15 11 10
f 52 53 48
f 63 64 61
f 27 24 23
f 48 53 49
f 19 24 20
f 8 4 7
f 13 18 14
f 34 37 38
f 50 51 47
f 47 46 50
f 54 51 50
f 57 51 56
f 60 63 61
f 61 57 60
f 60 57 56
f 64 63 62
f 31 35 36
f 24 27 28
f 27 31 28
f 36 35 41
f 48 49 44
f 16 15 19
f 19 20 16
f 11 15 16
f 4 8 9
f 13 14 9
f 42 46 43
f 46 47 43
f 56 51 55
f 51 54 55
f 59 62 63
f 53 52 59
f 32 31 36
f 32 28 31
f 45 44 49
f 13 9 12
f 12 9 8
f 21 25 26
f 21 26 22
f 21 22 17
f 30 26 29
f 26 25 29
f 29 33 30
f 39 38 42
f 42 43 39
f 34 38 39
f 58 59 52
f 62 59 58
f 40 45 41
f 44 45 40
f 40 41 35
f 1 5 6
f 2 1 6
f 11 6 5
f 11 5 10
f 2 6 29
f 6 11 29
f 53 59 29
f 50 46 29
f 17 13 29
f 29 3 2
f 29 45 49
f 36 41 29
f 11 16 29
f 13 12 29
f 29 60 56
f 7 3 29
f 37 33 29
f 29 38 37
f 56 55 29
f 29 49 53
f 29 20 24
f 29 8 7
f 42 38 29
f 29 46 42
f 29 54 50
f 63 60 29
f 24 28 29
f 29 32 36
f 29 16 20
f 29 21 17
f 29 55 54
f 29 59 63
f 28 32 29
f 41 45 29
f 29 12 8
f 25 21 29
f 40 5 1
f 10 5 40
f 18 22 40
f 35 31 40
f 40 15 10
f 40 30 34
f 40 26 30
f 1 4 40
f 61 64 40
f 23 19 40
f 40 52 48
f 40 27 23
f 40 14 18
f 4 9 40
f 19 15 40
f 40 57 61
f 64 62 40
f 48 44 40
f 22 26 40
f 40 47 51
f 51 57 40
f 34 39 40
f 40 31 27
f 40 58 52
f 40 9 14
f 40 43 47
f 40 39 43
f 62 58 40

