# https://github.com/mikedh/trimesh
v -0.00436470 -0.01730850 0.06662402
v -0.00436470 -0.01526528 0.06662402
v -0.00361228 -0.01730850 0.06662402
v -0.00361228 -0.01730129 0.06677995
v -0.00436470 -0.01729889 0.06679412
v -0.00361228 -0.01526528 0.06662402
v -0.00436470 -0.01526528 0.06916433
v -0.00361228 -0.01728489 0.06690777
v -0.00436470 -0.01728069 0.06693513
v -0.00361228 -0.01526528 0.06916408
v -0.00436470 -0.01550493 0.06906982
v -0.00361228 -0.01728229 0.06692792
v -0.00361228 -0.01721408 0.06719973
v -0.00436470 -0.01721328 0.06720221
v -0.00361228 -0.01552113 0.06906311
v -0.00436470 -0.01566956 0.06900243
v -0.00361228 -0.01710646 0.06749218
v -0.00436470 -0.01710646 0.06749218
v -0.00361228 -0.01567016 0.06900193
v -0.00436470 -0.01581099 0.06892385
v -0.00361228 -0.01580439 0.06892758
v -0.00361228 -0.01567616 0.06899870
v -0.00361228 -0.01706725 0.06757474
v -0.00436470 -0.01706305 0.06758345
v -0.00436470 -0.01617647 0.06868461
v -0.00361228 -0.01618187 0.06868064
v -0.00361228 -0.01698463 0.06774012
v -0.00436470 -0.01697663 0.06775578
v -0.00436470 -0.01627229 0.06861125
v -0.00361228 -0.01621367 0.06865627
v -0.00361228 -0.01697503 0.06775902
v -0.00436470 -0.01695602 0.06779433
v -0.00361228 -0.01629829 0.06858788
v -0.00361228 -0.01627229 0.06861125
v -0.00436470 -0.01635050 0.06854088
v -0.00361228 -0.01696243 0.06778239
v -0.00361228 -0.01695563 0.06779483
v -0.00361228 -0.01686961 0.06792713
v -0.00361228 -0.01686621 0.06793235
v -0.00436470 -0.01686101 0.06794006
v -0.00361228 -0.01634610 0.06854461
v -0.00436470 -0.01639051 0.06850034
v -0.00361228 -0.01638411 0.06850631
v -0.00361228 -0.01635950 0.06853118
v -0.00361228 -0.01680159 0.06803058
v -0.00436470 -0.01675538 0.06810071
v -0.00361228 -0.01641171 0.06847721
v -0.00436470 -0.01664896 0.06822704
v -0.00361228 -0.01675538 0.06810071
v -0.00361228 -0.01642112 0.06846726
v -0.00361228 -0.01665896 0.06821510
v -0.00361228 -0.01665516 0.06821958
f 1 3 4
f 1 4 5
f 11 10 7
f 11 15 10
f 21 20 26
f 25 29 26
f 26 20 25
f 46 49 48
f 9 13 14
f 12 13 9
f 9 5 12
f 18 14 17
f 17 14 13
f 19 15 16
f 15 11 16
f 20 21 16
f 46 40 39
f 39 40 32
f 52 48 51
f 51 48 49
f 8 5 4
f 8 12 5
f 23 24 18
f 18 17 23
f 29 35 33
f 35 41 33
f 43 35 42
f 19 16 22
f 22 16 21
f 45 49 46
f 46 39 45
f 38 32 37
f 38 39 32
f 27 28 24
f 24 23 27
f 29 33 34
f 44 41 35
f 35 43 44
f 42 48 47
f 47 43 42
f 28 27 31
f 32 28 31
f 26 29 30
f 29 34 30
f 50 48 52
f 50 47 48
f 37 32 36
f 32 31 36
f 1 2 6
f 6 3 1
f 10 6 2
f 2 7 10
f 28 2 1
f 28 7 2
f 29 25 28
f 28 35 29
f 46 48 28
f 18 24 28
f 1 5 28
f 28 11 7
f 28 40 46
f 28 5 9
f 42 35 28
f 28 14 18
f 28 25 20
f 32 40 28
f 20 16 28
f 28 48 42
f 9 14 28
f 28 16 11
f 3 6 36
f 6 10 36
f 36 4 3
f 52 51 36
f 10 15 36
f 36 8 4
f 36 15 19
f 36 21 26
f 36 38 37
f 41 44 36
f 49 45 36
f 13 12 36
f 36 17 13
f 26 30 36
f 19 22 36
f 36 51 49
f 12 8 36
f 36 23 17
f 36 33 41
f 36 50 52
f 36 22 21
f 36 45 39
f 39 38 36
f 36 27 23
f 36 34 33
f 36 44 43
f 43 47 36
f 36 31 27
f 36 30 34
f 47 50 36

