# https://github.com/mikedh/trimesh
v -0.00436470 0.00803653 0.05870362
v -0.00436470 0.00923375 0.05870362
v -0.00380787 0.00803653 0.05870362
v -0.00436470 0.00803653 0.06957333
v -0.00380787 0.00923375 0.05870362
v -0.00436470 0.00923375 0.06959999
v -0.00380787 0.00803653 0.06959679
v -0.00436470 0.00823681 0.06959999
v -0.00380787 0.00923375 0.06959999
v -0.00380787 0.00806266 0.06959999
f 8 4 7
f 10 8 7
f 1 2 5
f 5 3 1
f 1 3 4
f 3 7 4
f 9 5 2
f 2 6 9
f 8 2 1
f 8 6 2
f 1 4 8
f 3 5 10
f 10 7 3
f 5 9 10
f 10 9 6
f 6 8 10

