# https://github.com/mikedh/trimesh
v 0.00990512 -0.01614759 0.03560816
v 0.00990512 -0.01656723 0.03560816
v 0.00990512 -0.01614759 0.03559999
v 0.00944440 -0.01614759 0.03560816
v 0.00990512 -0.01656723 0.03559999
v 0.00944440 -0.01656723 0.03560816
v 0.00949780 -0.01614759 0.03533712
v 0.00944440 -0.01614759 0.03533712
v 0.00944440 -0.01656723 0.03559999
v 0.00944440 -0.01618497 0.03533712
f 10 8 7
f 9 10 5
f 5 10 7
f 7 3 5
f 6 1 4
f 6 2 1
f 1 3 8
f 4 1 8
f 8 3 7
f 10 6 4
f 4 8 10
f 9 6 10
f 2 6 5
f 5 6 9
f 5 3 1
f 1 2 5

