# https://github.com/mikedh/trimesh
v -0.00380784 0.01347332 0.06075384
v -0.00380784 0.01387307 0.06075384
v -0.00353883 0.01347332 0.06075384
v -0.00380784 0.01347332 0.06946109
v -0.00353883 0.01387307 0.06075384
v -0.00380784 0.01387307 0.06942698
v -0.00353883 0.01347332 0.06946194
v -0.00356306 0.01347332 0.06946194
v -0.00380784 0.01373682 0.06943892
v -0.00353883 0.01387307 0.06942784
f 7 10 8
f 10 9 8
f 8 9 4
f 6 9 10
f 1 2 5
f 5 3 1
f 3 5 10
f 10 7 3
f 1 3 8
f 3 7 8
f 8 4 1
f 6 2 1
f 1 4 6
f 4 9 6
f 6 5 2
f 6 10 5

