# https://github.com/mikedh/trimesh
v 0.01342256 -0.00207307 0.06070000
v 0.01342256 -0.00207307 0.06409015
v 0.01342256 0.00002072 0.06070000
v 0.02316797 -0.00207307 0.06070000
v 0.01342256 0.00002072 0.06409015
v 0.02417641 -0.00207307 0.06409015
v 0.02317639 0.00002072 0.06070000
v 0.02317639 -0.00205852 0.06070000
v 0.02323639 -0.00207307 0.06076041
v 0.02417641 0.00002072 0.06409015
v 0.02417641 -0.00207307 0.06170029
v 0.02417641 0.00002072 0.06170029
f 4 8 9
f 9 8 11
f 1 2 5
f 5 3 1
f 10 5 2
f 10 2 6
f 1 3 8
f 8 4 1
f 3 7 8
f 3 5 12
f 12 7 3
f 5 10 12
f 12 8 7
f 11 8 12
f 12 10 6
f 6 11 12
f 9 2 1
f 6 2 9
f 1 4 9
f 9 11 6

