# https://github.com/mikedh/trimesh
v 0.00372961 -0.00696928 0.06069944
v 0.00789036 -0.00696928 0.06070031
v 0.00364397 -0.00696928 0.06070031
v 0.00364397 0.00002072 0.06070031
v 0.00789036 0.00002072 0.06070031
v 0.00789036 -0.00696928 0.06959999
v 0.00364397 -0.00696928 0.06959999
v 0.00364397 0.00002072 0.06923582
v 0.00789036 0.00002072 0.06959999
v 0.00364397 -0.00201278 0.06959999
v 0.00364397 -0.00091461 0.06949719
v 0.00453316 0.00002072 0.06949632
v 0.00563560 0.00002072 0.06959999
v 0.00453732 0.00002072 0.06949719
v 0.00364397 -0.00111851 0.06951635
f 3 4 1
f 4 5 1
f 1 5 2
f 10 13 14
f 8 11 12
f 12 11 14
f 10 14 15
f 14 11 15
f 1 7 3
f 2 6 1
f 6 7 1
f 9 6 2
f 2 5 9
f 13 7 6
f 6 9 13
f 13 10 7
f 12 9 5
f 4 8 12
f 12 5 4
f 12 13 9
f 12 14 13
f 3 7 15
f 15 4 3
f 15 8 4
f 7 10 15
f 15 11 8

