# https://github.com/mikedh/trimesh
v 0.00757623 0.01749304 0.02729399
v 0.00894918 0.01653169 0.02729399
v 0.00757623 0.01749304 0.02572593
v 0.00757623 0.01269522 0.02729399
v 0.00894918 0.01653169 0.02572593
v 0.00894918 0.01269522 0.02729399
v 0.00757623 0.01390642 0.02572593
v 0.00757623 0.01269522 0.02580007
v 0.00894918 0.01301035 0.02572593
v 0.00894918 0.01269522 0.02580007
f 10 8 9
f 8 7 9
f 1 4 6
f 6 2 1
f 1 2 5
f 5 3 1
f 8 6 4
f 10 6 8
f 7 4 1
f 1 3 7
f 7 8 4
f 2 6 9
f 9 5 2
f 9 6 10
f 3 5 9
f 9 7 3

