# https://github.com/mikedh/trimesh
v 0.02073483 -0.00680576 0.06198921
v 0.02073483 -0.00792581 0.06198921
v 0.02073483 -0.00680576 0.06096541
v 0.01041208 -0.00680576 0.06198921
v 0.02073483 -0.00792581 0.06096541
v 0.01960514 -0.00894152 0.06198921
v 0.01041208 -0.00680576 0.06096541
v 0.01041208 -0.00871530 0.06198921
v 0.01960514 -0.00894152 0.06096541
v 0.01076270 -0.00894152 0.06198921
v 0.01041208 -0.00894152 0.06096541
v 0.01041208 -0.00894152 0.06179990
f 10 8 12
f 4 1 7
f 1 3 7
f 8 2 1
f 8 1 4
f 6 2 8
f 8 10 6
f 5 7 3
f 5 9 11
f 11 7 5
f 1 2 5
f 5 3 1
f 5 2 6
f 6 9 5
f 6 10 12
f 12 9 6
f 11 9 12
f 4 7 12
f 12 7 11
f 12 8 4

