# https://github.com/mikedh/trimesh
v -0.00155158 -0.00296501 0.05762864
v -0.00155158 -0.00296501 0.05590012
v -0.00184709 -0.00326065 0.05762864
v -0.00155158 -0.01142506 0.05762864
v -0.00155158 -0.00296584 0.05589656
v -0.00195130 -0.00336499 0.05590012
v -0.00195130 -0.00336499 0.05762864
v -0.00195130 -0.01142506 0.05762864
v -0.00155158 -0.01142506 0.05589656
v -0.00195130 -0.00336582 0.05589656
v -0.00195130 -0.01142506 0.05589656
f 6 7 3
f 1 2 3
f 3 2 6
f 4 9 2
f 1 4 2
f 2 9 5
f 8 4 1
f 1 3 8
f 8 3 7
f 8 9 4
f 8 11 9
f 11 8 10
f 10 7 6
f 10 8 7
f 10 2 5
f 6 2 10
f 5 9 10
f 9 11 10

