# https://github.com/mikedh/trimesh
v 0.00058537 -0.00507136 0.06959940
v 0.00058537 -0.00486275 0.06957970
v 0.00005237 -0.00460564 0.06950627
v 0.00005237 -0.00555972 0.06959522
v 0.00005237 -0.01249870 0.06959283
v 0.00058537 -0.01246312 0.06959522
v 0.00058537 -0.00399437 0.06949672
v 0.00005237 -0.00421915 0.06941255
v 0.00058537 -0.01274612 0.06957612
v 0.00005237 -0.01284961 0.06956895
v 0.00058537 -0.00357554 0.06938032
v 0.00058537 -0.00295781 0.06919944
v 0.00005237 -0.00342354 0.06916363
v 0.00005237 -0.01356599 0.06951463
v 0.00058537 -0.01369212 0.06950269
v 0.00058537 -0.00226731 0.06882635
v 0.00005237 -0.00260528 0.06872069
v 0.00005237 -0.01377944 0.06949434
v 0.00058537 -0.01418857 0.06941017
v 0.00058537 -0.00204253 0.06869622
v 0.00005237 -0.00243710 0.06858459
v 0.00005237 -0.01426457 0.06939464
v 0.00058537 -0.01528981 0.06915109
v 0.00058537 -0.00185818 0.06854698
v 0.00005237 -0.00212177 0.06829686
v 0.00058537 -0.00162694 0.06833686
v 0.00005237 -0.01529628 0.06914870
v 0.00005237 -0.01566175 0.06900006
v 0.00058537 -0.01569894 0.06898037
v 0.00005237 -0.00196491 0.06813270
v 0.00058537 -0.00137143 0.06806107
v 0.00005237 -0.01620994 0.06865085
v 0.00058537 -0.01606279 0.06875353
v 0.00005237 -0.00179188 0.06789810
v 0.00058537 -0.00122590 0.06785035
v 0.00005237 -0.01653983 0.06833686
v 0.00058537 -0.01626331 0.06861026
v 0.00005237 -0.00164149 0.06764380
v 0.00058537 -0.00109006 0.06761336
v 0.00005237 -0.01678563 0.06804734
v 0.00058537 -0.01664494 0.06822224
v 0.00005237 -0.00150727 0.06737578
v 0.00058537 -0.00096069 0.06732862
v 0.00005237 -0.01694896 0.06779961
v 0.00058537 -0.01689236 0.06789034
v 0.00005237 -0.00143935 0.06713043
v 0.00058537 -0.00089116 0.06707730
v 0.00005237 -0.01710744 0.06747547
v 0.00058537 -0.01707671 0.06754292
v 0.00005237 -0.00138437 0.06683614
v 0.00058537 -0.00085235 0.06684867
v 0.00005237 -0.01722063 0.06717043
v 0.00058537 -0.01720931 0.06720565
v 0.00005237 -0.00136335 0.06659915
v 0.00058537 -0.00082971 0.06659915
v 0.00005237 -0.01729987 0.06679674
v 0.00058537 -0.01730149 0.06679614
v 0.00005237 -0.00136335 0.06350160
v 0.00027333 -0.00114181 0.06350160
v 0.00058537 -0.00082971 0.06350160
v 0.00005237 -0.01735000 0.06630904
v 0.00058537 -0.01735000 0.06630904
v 0.00005237 -0.01735000 0.06350160
v 0.00058537 -0.01735000 0.06350160
f 4 1 3
f 4 5 1
f 1 5 6
f 3 1 2
f 2 7 3
f 14 18 15
f 27 23 22
f 29 23 28
f 28 23 27
f 61 62 57
f 42 38 39
f 58 54 59
f 59 55 60
f 54 55 59
f 8 11 12
f 12 13 8
f 7 11 8
f 3 7 8
f 9 14 15
f 9 6 5
f 19 22 23
f 18 22 19
f 15 18 19
f 41 36 40
f 61 57 56
f 50 51 55
f 50 55 54
f 46 42 43
f 43 42 39
f 16 20 17
f 17 13 16
f 16 13 12
f 10 9 5
f 14 9 10
f 32 36 37
f 36 41 37
f 45 41 40
f 52 57 53
f 52 56 57
f 53 48 52
f 46 43 47
f 47 50 46
f 51 50 47
f 21 20 24
f 17 20 21
f 30 31 34
f 30 25 26
f 26 31 30
f 25 21 26
f 26 21 24
f 32 37 33
f 33 28 32
f 29 28 33
f 44 45 40
f 49 48 53
f 49 44 48
f 45 44 49
f 35 34 31
f 38 34 35
f 39 38 35
f 61 63 62
f 62 63 64
f 59 63 58
f 59 60 64
f 64 63 59
f 44 63 61
f 44 54 58
f 44 4 3
f 58 63 44
f 17 21 44
f 40 36 44
f 5 4 44
f 44 52 48
f 27 22 44
f 3 8 44
f 38 42 44
f 44 28 27
f 61 56 44
f 44 13 17
f 18 14 44
f 44 22 18
f 32 28 44
f 44 36 32
f 44 34 38
f 44 42 46
f 44 8 13
f 44 50 54
f 44 10 5
f 46 50 44
f 44 25 30
f 14 10 44
f 56 52 44
f 44 21 25
f 30 34 44
f 35 62 64
f 64 60 35
f 35 23 29
f 12 11 35
f 15 19 35
f 35 57 62
f 1 6 35
f 35 2 1
f 35 9 15
f 35 43 39
f 35 16 12
f 60 55 35
f 7 2 35
f 35 11 7
f 35 49 53
f 53 57 35
f 55 51 35
f 24 20 35
f 6 9 35
f 35 19 23
f 35 26 24
f 29 33 35
f 20 16 35
f 51 47 35
f 35 37 41
f 41 45 35
f 35 47 43
f 31 26 35
f 35 33 37
f 45 49 35

