# https://github.com/mikedh/trimesh
v -0.00361222 -0.00706473 0.06644566
v -0.00361222 -0.00598407 0.06644566
v -0.00296999 -0.00706473 0.06644566
v -0.00361222 -0.00706473 0.06946478
v -0.00296999 -0.00598407 0.06644566
v -0.00361222 -0.00598407 0.06892067
v -0.00296999 -0.00706473 0.06952016
v -0.00340562 -0.00706473 0.06949789
v -0.00361222 -0.00675878 0.06934741
v -0.00296999 -0.00598407 0.06911087
v -0.00361222 -0.00637190 0.06919784
v -0.00296999 -0.00688319 0.06949789
v -0.00296999 -0.00621554 0.06924028
v -0.00296999 -0.00610584 0.06919784
f 7 12 8
f 4 8 9
f 9 8 12
f 10 6 11
f 11 14 10
f 13 9 12
f 13 11 9
f 14 11 13
f 1 2 5
f 5 3 1
f 6 5 2
f 6 10 5
f 1 3 8
f 3 7 8
f 8 4 1
f 11 2 1
f 1 4 11
f 11 6 2
f 4 9 11
f 3 5 13
f 13 7 3
f 5 10 13
f 13 12 7
f 10 14 13

