# https://github.com/mikedh/trimesh
v 0.00678203 -0.01235062 0.03281924
v 0.00678203 -0.01235062 0.02787249
v 0.00365305 -0.01235062 0.03281924
v 0.00678203 -0.01804858 0.03281924
v 0.00365305 -0.01235062 0.02787249
v 0.00678203 -0.01804858 0.02787249
v 0.00365305 -0.01871317 0.03281924
v 0.00583347 -0.01871317 0.03281924
v 0.00588340 -0.01867829 0.02787249
v 0.00365305 -0.01871317 0.02787249
v 0.00583347 -0.01871317 0.02787249
f 4 8 9
f 9 8 11
f 9 6 4
f 1 2 5
f 3 1 5
f 3 5 10
f 10 7 3
f 8 1 3
f 3 7 8
f 8 4 1
f 7 10 8
f 10 11 8
f 6 2 1
f 1 4 6
f 9 5 2
f 9 10 5
f 9 11 10
f 2 6 9

