# https://github.com/mikedh/trimesh
v 0.01756201 0.01050092 0.06959999
v 0.01507902 0.01223935 0.06959999
v 0.01239342 0.01050092 0.06959999
v 0.01756201 0.01050092 0.06371479
v 0.01052170 0.01223935 0.06959999
v 0.01507902 0.01223935 0.06180595
v 0.01239273 0.01050109 0.06180595
v 0.01685081 0.01050092 0.06180595
v 0.01756132 0.01050092 0.06180595
v 0.01052170 0.01223935 0.06180595
f 5 7 3
f 10 7 5
f 4 9 6
f 8 3 7
f 1 2 3
f 3 2 5
f 5 2 10
f 2 6 10
f 4 2 1
f 4 6 2
f 8 10 6
f 7 10 8
f 6 9 8
f 1 3 8
f 8 4 1
f 9 4 8

