# https://github.com/mikedh/trimesh
v 0.00139286 0.00002111 0.06069279
v 0.00041846 0.00099530 0.06069279
v 0.00363515 0.00002111 0.06069279
v 0.00139286 0.00002111 0.06659983
v 0.00041467 0.00099914 0.06069279
v 0.00041467 0.00099991 0.06660245
v 0.00041467 0.00099914 0.06077911
v 0.00363515 0.00394322 0.06069279
v 0.00364496 0.00002111 0.06070064
v 0.00142987 0.00002111 0.06699305
v 0.00041467 0.00394322 0.06069279
v 0.00041467 0.00106480 0.06709419
v 0.00364306 0.00394322 0.06070064
v 0.00364496 0.00394322 0.06070849
v 0.00364496 0.00002111 0.06923642
v 0.00153739 0.00002111 0.06737581
v 0.00041467 0.00114390 0.06737581
v 0.00041467 0.00394322 0.06943869
v 0.00364496 0.00394322 0.06959999
v 0.00364496 0.00075645 0.06945177
v 0.00057976 0.00394322 0.06948752
v 0.00041467 0.00312032 0.06919805
v 0.00351402 0.00002111 0.06919805
v 0.00171703 0.00002111 0.06774898
v 0.00041467 0.00140502 0.06786581
v 0.00171260 0.00394322 0.06959999
v 0.00364496 0.00201058 0.06959999
v 0.00364496 0.00091312 0.06949711
v 0.00061455 0.00394322 0.06949711
v 0.00041467 0.00233966 0.06877432
v 0.00263513 0.00002111 0.06872113
v 0.00196118 0.00002111 0.06809948
v 0.00041467 0.00144496 0.06792335
v 0.00070405 0.00394322 0.06950583
v 0.00041467 0.00224174 0.06872113
v 0.00041467 0.00209045 0.06859907
v 0.00227112 0.00002111 0.06842730
v 0.00041467 0.00156783 0.06809948
v 0.00041467 0.00204130 0.06855896
f 3 8 9
f 13 14 9
f 9 8 13
f 2 7 5
f 4 2 1
f 26 27 19
f 23 22 31
f 15 22 23
f 6 4 10
f 7 2 6
f 2 4 6
f 21 20 28
f 28 29 21
f 18 22 21
f 15 20 21
f 21 22 15
f 34 28 27
f 34 29 28
f 27 26 34
f 31 22 30
f 30 35 31
f 38 32 37
f 16 24 17
f 10 16 17
f 36 37 31
f 31 35 36
f 33 24 32
f 33 32 38
f 12 6 10
f 10 17 12
f 38 37 39
f 37 36 39
f 25 17 24
f 24 33 25
f 8 3 2
f 5 11 2
f 2 11 8
f 3 1 2
f 20 14 19
f 9 14 20
f 20 15 9
f 19 27 20
f 27 28 20
f 8 11 34
f 19 14 34
f 34 13 8
f 11 18 34
f 14 13 34
f 34 26 19
f 18 21 34
f 34 21 29
f 9 15 24
f 24 3 9
f 24 4 1
f 24 1 3
f 24 23 31
f 10 4 24
f 15 23 24
f 24 16 10
f 31 37 24
f 24 37 32
f 25 11 5
f 25 18 11
f 5 7 25
f 25 22 18
f 7 6 25
f 6 12 25
f 25 30 22
f 35 30 25
f 25 33 38
f 25 36 35
f 38 39 25
f 25 12 17
f 25 39 36

