# https://github.com/mikedh/trimesh
v 0.00932943 0.01567663 0.03534637
v 0.00972914 0.01567663 0.03534637
v 0.00932943 0.01567663 0.03564590
v 0.00932943 0.01626544 0.03534637
v 0.00972914 0.01598562 0.03534637
v 0.00972914 0.01567663 0.03564590
v 0.00932943 0.01626967 0.03564590
v 0.00932943 0.01633146 0.03559999
v 0.00972914 0.01633146 0.03559999
v 0.00972914 0.01599004 0.03564590
v 0.00972914 0.01633146 0.03564497
v 0.00932943 0.01633146 0.03564482
f 9 4 8
f 9 5 4
f 11 12 7
f 7 10 11
f 6 3 1
f 1 2 6
f 1 4 5
f 5 2 1
f 8 12 9
f 9 12 11
f 10 6 2
f 10 9 11
f 2 5 10
f 5 9 10
f 7 4 1
f 1 3 7
f 8 4 7
f 7 12 8
f 3 6 7
f 6 10 7

