# https://github.com/mikedh/trimesh
v -0.00090065 0.01234960 0.06959999
v -0.00178597 0.01234960 0.06959999
v -0.00090065 0.00642997 0.06959999
v -0.00090065 0.01240775 0.06959893
v -0.00178597 0.00710948 0.06959999
v -0.00178597 0.01240560 0.06959893
v -0.00090065 0.00545970 0.06949760
v -0.00090065 0.01277497 0.06957546
v -0.00178597 0.00613921 0.06949760
v -0.00178597 0.01287081 0.06956906
v -0.00090065 0.00443558 0.06919789
v -0.00090065 0.01283420 0.06957119
v -0.00178597 0.00523463 0.06919789
v -0.00090065 0.01331449 0.06948587
v -0.00178597 0.01331449 0.06948267
v -0.00090065 0.00355684 0.06872112
v -0.00178597 0.00444312 0.06872112
v -0.00090065 0.01331449 0.05870362
v -0.00178597 0.01331449 0.05870362
v -0.00090065 0.00347284 0.06865285
v -0.00178597 0.00443666 0.06871578
v -0.00090065 0.00231519 0.05870362
v -0.00178597 0.00320039 0.05870362
v -0.00178597 0.00376791 0.06809929
v -0.00090065 0.00288271 0.06809929
v -0.00090065 0.00231519 0.06660072
v -0.00178597 0.00320039 0.06660072
v -0.00178597 0.00374314 0.06806302
v -0.00090065 0.00280194 0.06798410
v -0.00090065 0.00241750 0.06722574
v -0.00178597 0.00332746 0.06731427
v -0.00178597 0.00334469 0.06737613
v -0.00090065 0.00245950 0.06737613
f 2 1 4
f 10 12 14
f 14 15 10
f 7 3 9
f 12 10 8
f 2 4 6
f 4 8 6
f 6 8 10
f 13 16 11
f 11 9 13
f 7 9 11
f 5 9 3
f 25 20 24
f 30 33 32
f 30 27 26
f 17 20 16
f 17 16 13
f 32 33 29
f 25 24 29
f 31 30 32
f 27 30 31
f 21 24 20
f 20 17 21
f 32 29 28
f 28 29 24
f 23 19 18
f 23 18 22
f 18 19 15
f 15 14 18
f 5 3 1
f 5 1 2
f 27 23 22
f 22 26 27
f 29 26 22
f 22 18 29
f 1 3 29
f 18 14 29
f 29 4 1
f 7 11 29
f 14 12 29
f 29 3 7
f 12 8 29
f 29 20 25
f 29 8 4
f 16 20 29
f 29 11 16
f 29 30 26
f 33 30 29
f 19 23 28
f 23 27 28
f 28 15 19
f 2 6 28
f 28 10 15
f 13 9 28
f 28 5 2
f 28 6 10
f 9 5 28
f 24 21 28
f 28 17 13
f 28 31 32
f 27 31 28
f 28 21 17

