# https://github.com/mikedh/trimesh
v 0.00903298 -0.00680593 0.06180595
v 0.00903298 -0.00680593 0.06070017
v 0.00789077 -0.00680593 0.06180595
v 0.00903298 -0.00856779 0.06180595
v 0.00789077 -0.00680593 0.06070017
v 0.00903298 -0.00700001 0.05960000
v 0.00789077 -0.00938610 0.06180595
v 0.00855758 -0.01067051 0.06179990
v 0.00903298 -0.00963542 0.06179990
v 0.00789077 -0.00700001 0.05960000
v 0.00903298 -0.00963542 0.05960000
v 0.00789077 -0.01067051 0.06179990
v 0.00855758 -0.01067051 0.05960000
v 0.00789077 -0.01067051 0.05960000
f 8 7 12
f 4 7 8
f 8 9 4
f 3 7 4
f 4 1 3
f 6 2 11
f 11 2 1
f 1 4 11
f 11 4 9
f 14 12 5
f 5 7 3
f 5 10 14
f 5 12 7
f 1 2 5
f 3 1 5
f 5 2 6
f 6 10 5
f 14 10 13
f 6 11 13
f 13 10 6
f 13 12 14
f 8 12 13
f 13 11 9
f 13 9 8

