# https://github.com/mikedh/trimesh
v 0.00861108 0.01567672 0.03534637
v 0.00932939 0.01567672 0.03534637
v 0.00861108 0.01567672 0.03564590
v 0.00861108 0.01660938 0.03534637
v 0.00932939 0.01626544 0.03534637
v 0.00932939 0.01567672 0.03564590
v 0.00861108 0.01660938 0.03564590
v 0.00883826 0.01660938 0.03534637
v 0.00932939 0.01660938 0.03559999
v 0.00932939 0.01626964 0.03564590
v 0.00884389 0.01660938 0.03564590
v 0.00932939 0.01660938 0.03564479
f 5 8 9
f 11 10 12
f 1 2 6
f 6 3 1
f 7 4 1
f 1 3 7
f 1 4 8
f 8 2 1
f 8 5 2
f 2 5 9
f 9 6 2
f 12 10 9
f 9 10 6
f 4 7 11
f 11 8 4
f 12 9 11
f 11 9 8
f 3 6 11
f 11 7 3
f 6 10 11

