# https://github.com/mikedh/trimesh
v -0.00436470 0.00923416 0.06908112
v -0.00380787 0.00923416 0.06908112
v -0.00436470 0.00923416 0.06959999
v -0.00436470 0.01349796 0.06908112
v -0.00380787 0.00923416 0.06959999
v -0.00380787 0.01349796 0.06908112
v -0.00436470 0.01234998 0.06959999
v -0.00436470 0.01349796 0.06945930
v -0.00380787 0.01234998 0.06959999
v -0.00380787 0.01349796 0.06945961
v -0.00380787 0.01240175 0.06959979
v -0.00436470 0.01240050 0.06959979
v -0.00436470 0.01297657 0.06956205
v -0.00380787 0.01295361 0.06956363
v -0.00380787 0.01293775 0.06956469
f 14 13 15
f 13 12 15
f 15 12 11
f 10 8 13
f 10 13 14
f 7 9 11
f 11 12 7
f 1 4 6
f 6 2 1
f 1 2 5
f 5 3 1
f 2 6 10
f 10 5 2
f 14 15 10
f 10 9 5
f 11 9 10
f 10 15 11
f 10 6 4
f 4 8 10
f 7 4 1
f 1 3 7
f 7 8 4
f 13 8 7
f 7 12 13
f 3 5 7
f 5 9 7

