# https://github.com/mikedh/trimesh
v 0.00778086 0.01734971 0.04187767
v 0.00778500 0.01734942 0.04187767
v 0.00778086 0.01734971 0.04015744
v 0.00514357 0.01734971 0.04187767
v 0.00836454 0.01727322 0.04015744
v 0.00959961 0.01711071 0.04187767
v 0.00514357 0.01734971 0.04015744
v 0.00514357 0.01440141 0.04187767
v 0.01060258 0.01697879 0.04015744
v 0.01171883 0.01683187 0.04187767
v 0.00514357 0.01440141 0.04015744
v 0.01199237 0.01440141 0.04187767
v 0.01185077 0.01681455 0.04015744
v 0.01219890 0.01676865 0.04187767
v 0.01199237 0.01440141 0.04015744
v 0.01204279 0.01497699 0.04015744
v 0.01211463 0.01579878 0.04015744
v 0.01216091 0.01632961 0.04187767
v 0.01219890 0.01676865 0.04015744
v 0.01214226 0.01611659 0.04015744
f 1 2 3
f 14 19 13
f 3 2 5
f 2 6 5
f 5 6 9
f 16 12 15
f 16 17 12
f 18 19 14
f 12 17 18
f 14 13 10
f 10 13 9
f 9 6 10
f 19 18 20
f 20 18 17
f 3 7 1
f 1 7 4
f 11 12 8
f 15 12 11
f 11 8 4
f 4 7 11
f 10 18 14
f 4 8 10
f 10 1 4
f 8 12 10
f 2 1 10
f 10 6 2
f 12 18 10
f 20 13 19
f 20 7 3
f 15 11 20
f 20 11 7
f 3 5 20
f 20 16 15
f 9 13 20
f 20 5 9
f 17 16 20

