# https://github.com/mikedh/trimesh
v 0.00789077 -0.01727224 0.06180665
v 0.00789077 -0.01161378 0.06180665
v 0.00879195 -0.01664131 0.06180665
v 0.00835336 -0.01694874 0.06780652
v 0.00789077 -0.01727224 0.06696127
v 0.00879195 -0.01233888 0.06180665
v 0.00789077 -0.01161378 0.06959999
v 0.00879195 -0.01664131 0.06822075
v 0.00862973 -0.01675487 0.06810098
v 0.00789077 -0.01675487 0.06810098
v 0.00789077 -0.01694154 0.06781720
v 0.00789077 -0.01694930 0.06780499
v 0.00789077 -0.01710385 0.06749680
v 0.00812824 -0.01710606 0.06749146
v 0.00795729 -0.01722571 0.06716038
v 0.00789077 -0.01722571 0.06716114
v 0.00879195 -0.01235605 0.06959923
v 0.00789077 -0.01235051 0.06959999
v 0.00877528 -0.01235051 0.06959999
v 0.00879195 -0.01627627 0.06860675
v 0.00789077 -0.01628402 0.06859989
v 0.00789077 -0.01673437 0.06812310
v 0.00789077 -0.01674877 0.06810784
v 0.00789077 -0.01710606 0.06749146
v 0.00879195 -0.01242862 0.06959923
v 0.00789077 -0.01242585 0.06959923
v 0.00879195 -0.01627183 0.06861133
v 0.00789077 -0.01628014 0.06860370
v 0.00879195 -0.01245022 0.06959770
v 0.00789077 -0.01247792 0.06959618
v 0.00879195 -0.01626796 0.06861438
v 0.00789077 -0.01627183 0.06861133
v 0.00879195 -0.01268675 0.06958016
v 0.00789077 -0.01377025 0.06949853
v 0.00879195 -0.01625632 0.06862201
v 0.00789077 -0.01626186 0.06861896
v 0.00879195 -0.01333209 0.06953134
v 0.00879195 -0.01393754 0.06946421
v 0.00879195 -0.01377302 0.06949777
v 0.00789077 -0.01397133 0.06945658
v 0.00879195 -0.01570073 0.06898513
v 0.00789077 -0.01571236 0.06897827
v 0.00789077 -0.01519775 0.06918576
v 0.00879195 -0.01510912 0.06920483
v 0.00879195 -0.01568189 0.06899581
v 0.00789077 -0.01570294 0.06898437
v 0.00789077 -0.01521714 0.06917966
v 0.00879195 -0.01520661 0.06918271
v 0.00879195 -0.01520052 0.06918424
v 0.00879195 -0.01512629 0.06920102
v 0.00789077 -0.01568078 0.06899657
v 0.00879195 -0.01566749 0.06900191
v 0.00879195 -0.01521381 0.06918042
v 0.00789077 -0.01561708 0.06902175
v 0.00879195 -0.01541766 0.06910032
v 0.00879195 -0.01540215 0.06910642
f 3 8 4
f 1 3 4
f 2 7 6
f 17 6 7
f 9 4 8
f 1 4 5
f 19 17 7
f 52 51 45
f 40 38 34
f 34 38 39
f 4 9 10
f 18 19 7
f 56 53 47
f 54 52 47
f 51 52 54
f 20 9 8
f 43 49 50
f 38 40 43
f 4 12 13
f 13 14 4
f 24 14 13
f 11 12 4
f 4 10 11
f 47 52 55
f 55 56 47
f 9 20 21
f 21 20 27
f 38 43 44
f 44 43 50
f 49 43 48
f 48 43 47
f 47 53 48
f 17 19 25
f 25 18 26
f 19 18 25
f 34 33 30
f 30 25 26
f 34 39 37
f 37 33 34
f 16 14 24
f 23 10 9
f 28 27 32
f 28 21 27
f 31 36 32
f 32 27 31
f 42 41 46
f 46 41 45
f 45 51 46
f 29 30 33
f 25 30 29
f 15 16 5
f 14 16 15
f 15 5 4
f 4 14 15
f 9 21 22
f 22 23 9
f 42 36 35
f 36 31 35
f 35 41 42
f 1 2 6
f 6 3 1
f 22 2 1
f 22 7 2
f 1 5 22
f 34 30 22
f 22 18 7
f 12 11 22
f 32 36 22
f 10 23 22
f 22 54 47
f 22 40 34
f 47 43 22
f 22 13 12
f 26 18 22
f 51 54 22
f 22 28 32
f 22 43 40
f 24 13 22
f 22 11 10
f 5 16 22
f 22 36 42
f 22 30 26
f 22 16 24
f 22 46 51
f 21 28 22
f 42 46 22
f 3 6 35
f 35 8 3
f 6 17 35
f 38 44 35
f 35 20 8
f 53 56 35
f 35 52 45
f 35 55 52
f 45 41 35
f 35 39 38
f 35 48 53
f 27 20 35
f 50 49 35
f 17 25 35
f 56 55 35
f 35 37 39
f 35 44 50
f 49 48 35
f 35 31 27
f 33 37 35
f 35 29 33
f 25 29 35

