# https://github.com/mikedh/trimesh
v 0.00287373 0.02039921 0.03281855
v 0.00287373 0.02039921 0.02578740
v -0.00392760 0.02039921 0.03281855
v 0.00287373 0.01235368 0.03281855
v -0.00392760 0.02039921 0.02578740
v 0.00287373 0.01265745 0.02578740
v -0.00392760 0.01235052 0.03281855
v 0.00287373 0.01235052 0.03281718
v -0.00392760 0.01233948 0.02578740
v 0.00287373 0.01233948 0.02580048
v 0.00263736 0.01233948 0.02578740
v -0.00392760 0.01234027 0.03279997
v 0.00287373 0.01233948 0.03279997
v -0.00392760 0.01233948 0.03277519
f 11 6 10
f 12 14 13
f 12 13 7
f 8 4 7
f 7 13 8
f 3 1 5
f 1 2 5
f 9 5 6
f 6 5 2
f 6 11 9
f 3 7 4
f 4 1 3
f 9 11 10
f 10 14 9
f 13 14 10
f 3 5 12
f 12 7 3
f 12 5 9
f 9 14 12
f 8 2 1
f 8 6 2
f 1 4 8
f 8 10 6
f 13 10 8

