# https://github.com/mikedh/trimesh
v -0.00178597 0.01331557 0.05870362
v -0.00178597 0.01735000 0.05870362
v -0.00090065 0.01331557 0.05870362
v -0.00178597 0.01331557 0.06948094
v -0.00090065 0.01735000 0.05870362
v -0.00178597 0.01735000 0.06630611
v -0.00090065 0.01331557 0.06948622
v -0.00178597 0.01386292 0.06943450
v -0.00090065 0.01735000 0.06630611
v -0.00178597 0.01733618 0.06652248
v -0.00090065 0.01422545 0.06940706
v -0.00178597 0.01415397 0.06940917
v -0.00090065 0.01734013 0.06645915
v -0.00178597 0.01733381 0.06655414
v -0.00090065 0.01733302 0.06656681
v -0.00178597 0.01426849 0.06939756
v -0.00178597 0.01425388 0.06939967
v -0.00090065 0.01500658 0.06923291
v -0.00178597 0.01502317 0.06923080
v -0.00178597 0.01732907 0.06659320
v -0.00090065 0.01732907 0.06659847
v -0.00090065 0.01510057 0.06921180
v -0.00178597 0.01508833 0.06921602
v -0.00178597 0.01729827 0.06682645
v -0.00090065 0.01730103 0.06681273
v -0.00090065 0.01520760 0.06918225
v -0.00178597 0.01519535 0.06918647
v -0.00178597 0.01725048 0.06707238
v -0.00090065 0.01725048 0.06707238
v -0.00090065 0.01587342 0.06888672
v -0.00178597 0.01528974 0.06914636
v -0.00178597 0.01520760 0.06918225
v -0.00178597 0.01724298 0.06709560
v -0.00178597 0.01719717 0.06723492
v -0.00090065 0.01718177 0.06728030
v -0.00090065 0.01590936 0.06886877
v -0.00178597 0.01589396 0.06887722
v -0.00178597 0.01717150 0.06731091
v -0.00090065 0.01716755 0.06732041
v -0.00178597 0.01591015 0.06886877
v -0.00090065 0.01610089 0.06871995
v -0.00178597 0.01707435 0.06755050
v -0.00090065 0.01707948 0.06753995
v -0.00178597 0.01609576 0.06872418
v -0.00090065 0.01650647 0.06839276
v -0.00178597 0.01696417 0.06777743
v -0.00090065 0.01698352 0.06773837
v -0.00178597 0.01650647 0.06839276
v -0.00090065 0.01665258 0.06819961
v -0.00178597 0.01659137 0.06828088
v -0.00178597 0.01666522 0.06818167
v -0.00090065 0.01696417 0.06777743
f 40 36 41
f 8 4 7
f 7 11 8
f 8 11 12
f 26 32 27
f 37 30 36
f 37 36 40
f 16 11 19
f 23 19 22
f 17 11 16
f 12 11 17
f 9 6 10
f 44 41 45
f 45 48 44
f 40 41 44
f 39 38 43
f 49 52 46
f 35 38 39
f 28 29 25
f 28 25 24
f 30 37 31
f 26 30 31
f 31 32 26
f 18 19 11
f 18 22 19
f 9 10 13
f 13 10 15
f 25 21 20
f 24 25 20
f 20 21 15
f 46 52 47
f 42 43 38
f 42 47 43
f 46 47 42
f 51 49 46
f 34 35 29
f 38 35 34
f 15 10 14
f 14 20 15
f 49 51 50
f 45 49 50
f 50 48 45
f 29 28 33
f 33 34 29
f 1 2 5
f 5 3 1
f 1 3 4
f 3 7 4
f 6 5 2
f 6 9 5
f 22 27 23
f 26 27 22
f 3 5 47
f 47 7 3
f 5 9 47
f 36 30 47
f 47 18 11
f 47 11 7
f 47 41 36
f 47 49 45
f 45 41 47
f 47 30 26
f 47 21 25
f 25 29 47
f 26 22 47
f 39 43 47
f 47 35 39
f 15 21 47
f 9 13 47
f 52 49 47
f 29 35 47
f 22 18 47
f 47 13 15
f 33 2 1
f 1 4 33
f 33 6 2
f 4 8 33
f 23 27 33
f 33 37 40
f 33 17 16
f 33 19 23
f 32 31 33
f 40 44 33
f 33 8 12
f 46 42 33
f 24 20 33
f 33 27 32
f 33 28 24
f 16 19 33
f 12 17 33
f 33 10 6
f 33 44 48
f 33 51 46
f 33 31 37
f 38 34 33
f 33 42 38
f 33 14 10
f 48 50 33
f 20 14 33
f 33 50 51

