# https://github.com/mikedh/trimesh
v 0.02113458 -0.00680566 0.06198921
v 0.02113458 -0.00680566 0.06125245
v 0.02073483 -0.00680566 0.06198921
v 0.02113458 -0.00753978 0.06198921
v 0.02098913 -0.00680566 0.06113790
v 0.02113458 -0.00700011 0.06109520
v 0.02073483 -0.00680566 0.06109520
v 0.02073483 -0.00792593 0.06198921
v 0.02105471 -0.00763816 0.06198921
v 0.02113458 -0.00753978 0.06109520
v 0.02093341 -0.00680566 0.06109520
v 0.02073483 -0.00792593 0.06109520
v 0.02103937 -0.00765197 0.06109520
v 0.02105471 -0.00763816 0.06109520
f 8 12 13
f 13 9 8
f 5 2 6
f 6 11 5
f 9 13 14
f 7 12 8
f 7 8 3
f 3 8 9
f 9 1 3
f 9 4 1
f 1 4 10
f 10 2 1
f 6 2 10
f 5 7 3
f 3 1 5
f 1 2 5
f 5 11 7
f 12 7 14
f 6 10 14
f 7 11 14
f 14 11 6
f 14 13 12
f 4 9 14
f 14 10 4

