# https://github.com/mikedh/trimesh
v 0.00363523 0.00002346 0.02783994
v 0.00364565 0.00002346 0.02780000
v 0.00203243 0.00002346 0.02783994
v 0.00363523 -0.00919547 0.02783994
v 0.00364565 0.00002346 0.02580000
v 0.00364565 -0.00919547 0.02780000
v 0.00203243 0.00002346 0.02596873
v 0.00203243 -0.00919547 0.02783994
v 0.00280343 0.00002346 0.02580000
v 0.00364565 -0.00919547 0.02580000
v 0.00209624 0.00002346 0.02593399
v 0.00203243 -0.00008845 0.02593399
v 0.00203243 -0.00919547 0.02580000
v 0.00243736 0.00002346 0.02583415
v 0.00203243 -0.00079600 0.02580000
v 0.00203243 -0.00042959 0.02583415
f 14 15 16
f 11 14 16
f 15 14 9
f 7 11 12
f 12 11 16
f 8 1 3
f 4 1 8
f 4 8 6
f 6 8 13
f 13 10 6
f 2 1 6
f 6 1 4
f 6 5 2
f 6 10 5
f 9 10 13
f 13 15 9
f 5 10 9
f 2 5 9
f 3 1 9
f 9 1 2
f 9 7 3
f 9 11 7
f 14 11 9
f 12 8 3
f 13 8 12
f 3 7 12
f 12 15 13
f 16 15 12

