# https://github.com/mikedh/trimesh
v 0.01148749 -0.01440025 0.04051054
v 0.01141929 -0.01440025 0.04116842
v 0.01199205 -0.01440083 0.04116842
v 0.01199205 -0.01440083 0.04051054
v 0.00592947 -0.01440025 0.04051054
v 0.00592947 -0.01440025 0.04116842
v 0.01209525 -0.01557624 0.04116842
v 0.01209525 -0.01557624 0.04051054
v 0.00592947 -0.01557624 0.04051054
v 0.00592947 -0.01557624 0.04116842
f 1 2 3
f 1 3 4
f 6 10 7
f 7 3 6
f 6 3 2
f 6 1 5
f 6 2 1
f 9 6 5
f 10 6 9
f 7 10 9
f 9 8 7
f 5 1 4
f 4 9 5
f 8 9 4
f 4 3 7
f 7 8 4

