# https://github.com/mikedh/trimesh
v -0.00047746 -0.00189160 0.05589639
v -0.00047746 -0.00192128 0.05570650
v -0.00074742 -0.00216179 0.05589639
v -0.00047746 -0.01234710 0.05589639
v -0.00047746 -0.00192230 0.05570094
v -0.00074742 -0.00219351 0.05569752
v -0.00074742 -0.01234710 0.05589639
v -0.00047746 -0.01234710 0.05490010
v -0.00047746 -0.00193970 0.05564115
v -0.00074742 -0.00219556 0.05568992
v -0.00074742 -0.01234710 0.05490010
v -0.00047746 -0.00330600 0.05490010
v -0.00047746 -0.00204102 0.05545720
v -0.00074742 -0.00220989 0.05564115
v -0.00074742 -0.00357618 0.05490010
v -0.00047746 -0.00329985 0.05490059
v -0.00047746 -0.00204409 0.05545242
v -0.00074742 -0.00231633 0.05544911
v -0.00074742 -0.00355981 0.05490156
v -0.00047746 -0.00293960 0.05493414
v -0.00074742 -0.00330190 0.05492546
v -0.00047746 -0.00206661 0.05541985
v -0.00074742 -0.00235112 0.05539995
v -0.00074742 -0.00297031 0.05500407
v -0.00047746 -0.00289559 0.05494701
v -0.00074742 -0.00320979 0.05493414
v -0.00047746 -0.00208093 0.05539995
v -0.00047746 -0.00225083 0.05523727
v -0.00074742 -0.00252920 0.05523054
v -0.00074742 -0.00286796 0.05503411
v -0.00047746 -0.00272059 0.05499822
v -0.00047746 -0.00228767 0.05520733
v -0.00074742 -0.00257526 0.05519299
v -0.00074742 -0.00258651 0.05518675
v -0.00047746 -0.00242481 0.05512813
v -0.00047746 -0.00259265 0.05503723
v -0.00047746 -0.00259880 0.05503411
v -0.00047746 -0.00260494 0.05503226
v -0.00047746 -0.00230609 0.05519299
v -0.00047746 -0.00231837 0.05518597
f 16 12 15
f 10 9 14
f 3 1 2
f 2 6 3
f 20 26 24
f 30 31 24
f 20 16 21
f 21 26 20
f 14 9 13
f 23 27 28
f 28 29 23
f 5 10 6
f 6 2 5
f 9 10 5
f 30 37 38
f 38 31 30
f 20 24 25
f 25 24 31
f 19 16 15
f 19 21 16
f 33 29 28
f 14 13 18
f 39 33 32
f 32 33 28
f 23 18 22
f 27 23 22
f 36 37 30
f 30 35 36
f 40 33 39
f 17 18 13
f 17 22 18
f 34 40 35
f 33 40 34
f 34 35 30
f 7 4 1
f 7 1 3
f 4 7 11
f 11 8 4
f 11 12 8
f 15 12 11
f 1 4 17
f 4 8 17
f 8 12 17
f 17 16 20
f 28 27 17
f 17 2 1
f 12 16 17
f 17 38 37
f 20 25 17
f 17 13 9
f 9 5 17
f 17 32 28
f 27 22 17
f 17 5 2
f 31 38 17
f 17 25 31
f 39 32 17
f 37 36 17
f 17 40 39
f 17 36 35
f 35 40 17
f 34 7 3
f 3 6 34
f 34 11 7
f 15 11 34
f 30 24 34
f 14 18 34
f 34 10 14
f 34 19 15
f 6 10 34
f 34 24 26
f 26 21 34
f 34 23 29
f 21 19 34
f 29 33 34
f 34 18 23

