# https://github.com/mikedh/trimesh
v 0.00944440 -0.01614763 0.03560816
v 0.00944440 -0.01656723 0.03560816
v 0.00944440 -0.01614763 0.03533712
v -0.00436470 -0.01614763 0.03560816
v 0.00944440 -0.01656723 0.03559996
v -0.00436470 -0.01656723 0.03560816
v 0.00944440 -0.01618501 0.03533712
v -0.00436470 -0.01614763 0.03533712
v 0.00889696 -0.01656723 0.03533712
v 0.00891047 -0.01655811 0.03533712
v -0.00436470 -0.01656723 0.03533712
f 10 5 9
f 7 5 10
f 6 2 1
f 6 1 4
f 4 1 8
f 1 3 8
f 8 6 4
f 11 6 8
f 2 6 5
f 5 6 11
f 11 9 5
f 1 2 5
f 5 3 1
f 5 7 3
f 10 8 3
f 11 8 10
f 10 9 11
f 3 7 10

