# https://github.com/mikedh/trimesh
v -0.00436470 -0.00768758 0.05870362
v -0.00436470 -0.00507407 0.05870362
v -0.00361228 -0.00768758 0.05870362
v -0.00436470 -0.00768758 0.06952672
v -0.00361228 -0.00476156 0.05870362
v -0.00436470 -0.00507407 0.06659903
v -0.00361228 -0.00768758 0.06956393
v -0.00361228 -0.00715050 0.06949802
v -0.00436470 -0.00746387 0.06949802
v -0.00361228 -0.00476156 0.06659903
v -0.00436470 -0.00518378 0.06737613
v -0.00361228 -0.00675864 0.06934707
v -0.00436470 -0.00745986 0.06949696
v -0.00361228 -0.00487184 0.06737613
v -0.00436470 -0.00550517 0.06809902
v -0.00361228 -0.00637166 0.06919717
v -0.00436470 -0.00668331 0.06919717
v -0.00361228 -0.00519352 0.06809902
v -0.00436470 -0.00601675 0.06872092
v -0.00361228 -0.00595001 0.06889632
v -0.00361228 -0.00570511 0.06872092
f 10 6 11
f 11 14 10
f 8 4 7
f 18 19 21
f 21 19 20
f 16 20 17
f 17 20 19
f 19 18 15
f 15 18 14
f 15 14 11
f 16 17 12
f 8 12 13
f 13 12 17
f 4 8 9
f 8 13 9
f 2 5 3
f 2 3 1
f 1 3 4
f 3 7 4
f 5 2 10
f 2 6 10
f 3 5 12
f 12 7 3
f 5 10 12
f 12 8 7
f 12 10 14
f 14 18 12
f 21 20 12
f 12 18 21
f 12 20 16
f 9 2 1
f 1 4 9
f 11 6 9
f 9 6 2
f 9 15 11
f 9 17 19
f 19 15 9
f 9 13 17

