# https://github.com/mikedh/trimesh
v 0.00511916 0.01735640 0.03559999
v 0.00511916 0.01734954 0.03564590
v 0.00511916 0.01735640 0.03534637
v -0.00436470 0.01735640 0.03559999
v 0.00511916 0.01235049 0.03564590
v -0.00436470 0.01734954 0.03564590
v 0.00511916 0.01235049 0.03534637
v -0.00436470 0.01735640 0.03534637
v -0.00436470 0.01235049 0.03564590
v -0.00436470 0.01235049 0.03534637
f 1 3 8
f 4 1 8
f 1 2 7
f 7 3 1
f 7 2 5
f 7 9 10
f 5 9 7
f 7 8 3
f 10 8 7
f 4 8 6
f 6 8 10
f 10 9 6
f 6 2 1
f 6 1 4
f 5 2 6
f 6 9 5

