# https://github.com/mikedh/trimesh
v -0.00198481 -0.00726240 0.06959999
v -0.00198481 -0.00629141 0.06949760
v -0.00242551 -0.00749086 0.06959999
v -0.00198481 -0.01050225 0.06959999
v -0.00242551 -0.00592805 0.06926507
v -0.00242551 -0.00663168 0.06949760
v -0.00198481 -0.00538727 0.06919806
v -0.00242551 -0.01234942 0.06959999
v -0.00198481 -0.01239439 0.06959953
v -0.00242551 -0.00572632 0.06919806
v -0.00198481 -0.00461073 0.06872162
v -0.00242551 -0.01239317 0.06959953
v -0.00198481 -0.01291330 0.06956477
v -0.00242551 -0.00528033 0.06892422
v -0.00198481 -0.00440170 0.06850358
v -0.00232202 -0.00440170 0.06823396
v -0.00242551 -0.00473103 0.06849392
v -0.00242551 -0.00495099 0.06872162
v -0.00242551 -0.01293396 0.06956321
v -0.00242551 -0.01374088 0.06950243
v -0.00198481 -0.01350269 0.06952035
v -0.00198481 -0.00440170 0.06800782
v -0.00242551 -0.00440170 0.06815105
v -0.00242551 -0.01435944 0.06937572
v -0.00198481 -0.01374210 0.06950212
v -0.00242551 -0.00440170 0.06800782
v -0.00198481 -0.01681667 0.06800782
v -0.00242551 -0.01516758 0.06919416
v -0.00198481 -0.01517001 0.06919338
v -0.00198481 -0.01434365 0.06937853
v -0.00198481 -0.01403862 0.06944134
v -0.00242551 -0.01681667 0.06800782
v -0.00198481 -0.01675470 0.06810102
v -0.00242551 -0.01520647 0.06918309
v -0.00198481 -0.01520890 0.06918231
v -0.00242551 -0.01675470 0.06810102
v -0.00198481 -0.01668057 0.06818970
v -0.00242551 -0.01525144 0.06916829
v -0.00198481 -0.01525144 0.06916860
v -0.00242551 -0.01666355 0.06820840
v -0.00198481 -0.01666720 0.06820419
v -0.00242551 -0.01552730 0.06905966
v -0.00198481 -0.01554188 0.06905374
v -0.00242551 -0.01646911 0.06841568
v -0.00198481 -0.01639134 0.06849719
v -0.00242551 -0.01566948 0.06900153
v -0.00198481 -0.01556011 0.06904641
v -0.00242551 -0.01637311 0.06851621
v -0.00198481 -0.01633908 0.06855018
v -0.00242551 -0.01633908 0.06855112
v -0.00242551 -0.01568649 0.06899280
v -0.00198481 -0.01567191 0.06899997
v -0.00198481 -0.01630141 0.06858416
v -0.00198481 -0.01627589 0.06860707
v -0.00242551 -0.01627467 0.06860816
v -0.00242551 -0.01579344 0.06893358
v -0.00198481 -0.01579222 0.06893404
v -0.00198481 -0.01569379 0.06898812
v -0.00198481 -0.01620176 0.06866473
v -0.00242551 -0.01619447 0.06867081
v -0.00198481 -0.01605836 0.06875918
f 3 1 2
f 5 2 7
f 4 8 9
f 21 20 25
f 21 13 20
f 20 13 19
f 3 2 6
f 2 5 6
f 12 13 9
f 12 19 13
f 9 8 12
f 29 30 24
f 30 31 24
f 24 31 25
f 25 20 24
f 10 5 7
f 7 11 10
f 29 24 28
f 52 51 58
f 58 51 57
f 57 51 56
f 16 11 15
f 18 11 17
f 17 16 23
f 11 16 17
f 14 11 18
f 14 10 11
f 36 33 37
f 37 40 36
f 29 28 34
f 38 39 34
f 42 43 39
f 42 39 38
f 57 56 60
f 54 59 60
f 55 54 60
f 29 34 35
f 35 34 39
f 46 51 52
f 57 60 61
f 61 60 59
f 45 44 41
f 41 44 40
f 41 40 37
f 49 53 50
f 45 49 50
f 50 53 54
f 50 54 55
f 47 46 52
f 42 46 47
f 43 42 47
f 48 44 45
f 45 50 48
f 26 22 27
f 27 32 26
f 3 8 4
f 4 1 3
f 16 15 22
f 22 26 16
f 16 26 23
f 36 32 27
f 27 33 36
f 27 22 47
f 47 21 25
f 22 15 47
f 54 53 47
f 47 2 1
f 1 4 47
f 7 2 47
f 9 13 47
f 25 31 47
f 47 33 27
f 47 4 9
f 13 21 47
f 47 59 54
f 47 30 29
f 47 11 7
f 52 58 47
f 47 31 30
f 47 41 37
f 15 11 47
f 29 35 47
f 37 33 47
f 39 43 47
f 47 58 57
f 57 61 47
f 47 49 45
f 47 35 39
f 47 61 59
f 45 41 47
f 47 53 49
f 48 8 3
f 5 10 48
f 48 12 8
f 48 26 32
f 20 19 48
f 3 6 48
f 23 26 48
f 48 42 38
f 48 24 20
f 48 6 5
f 32 36 48
f 19 12 48
f 48 14 18
f 38 34 48
f 48 17 23
f 55 60 48
f 48 28 24
f 48 56 51
f 18 17 48
f 10 14 48
f 48 36 40
f 48 34 28
f 51 46 48
f 48 60 56
f 40 44 48
f 48 46 42
f 48 50 55

