# https://github.com/mikedh/trimesh
v -0.00307119 0.01339738 0.06189768
v -0.00307119 0.01735000 0.06189768
v -0.00247741 0.01339738 0.06189768
v -0.00307119 0.01339738 0.06947107
v -0.00247741 0.01735000 0.06189768
v -0.00307119 0.01735000 0.06630690
v -0.00247741 0.01339738 0.06947330
v -0.00307119 0.01429538 0.06939247
v -0.00247741 0.01735000 0.06630690
v -0.00307119 0.01733607 0.06652195
v -0.00247741 0.01733839 0.06648636
v -0.00247741 0.01427643 0.06939617
v -0.00307119 0.01504366 0.06922710
v -0.00307119 0.01733491 0.06653678
v -0.00247741 0.01733414 0.06654494
v -0.00247741 0.01500729 0.06923378
v -0.00247741 0.01508622 0.06921598
v -0.00307119 0.01508080 0.06921820
v -0.00307119 0.01729506 0.06684378
v -0.00247741 0.01733104 0.06657386
v -0.00247741 0.01519184 0.06918706
v -0.00307119 0.01512414 0.06920634
v -0.00247741 0.01726179 0.06701508
v -0.00247741 0.01729622 0.06683488
v -0.00307119 0.01724902 0.06707737
v -0.00247741 0.01520732 0.06918261
v -0.00307119 0.01520423 0.06918335
v -0.00247741 0.01724979 0.06707440
v -0.00307119 0.01718131 0.06728129
v -0.00247741 0.01717473 0.06730131
v -0.00307119 0.01571842 0.06895570
v -0.00307119 0.01523053 0.06917223
v -0.00247741 0.01562982 0.06899500
v -0.00307119 0.01717667 0.06729464
v -0.00307119 0.01716970 0.06731244
v -0.00247741 0.01716429 0.06732727
v -0.00307119 0.01588711 0.06888006
v -0.00247741 0.01590994 0.06886894
v -0.00307119 0.01706485 0.06756901
v -0.00247741 0.01707027 0.06755863
v -0.00307119 0.01590994 0.06886894
v -0.00247741 0.01610339 0.06871840
v -0.00307119 0.01603723 0.06877031
v -0.00307119 0.01702964 0.06764317
v -0.00247741 0.01706214 0.06757568
v -0.00247741 0.01612931 0.06869764
v -0.00307119 0.01612854 0.06869764
v -0.00307119 0.01697083 0.06776552
v -0.00247741 0.01698979 0.06772622
v -0.00307119 0.01650693 0.06839287
v -0.00247741 0.01650693 0.06839287
v -0.00307119 0.01696426 0.06777813
v -0.00247741 0.01696426 0.06777813
v -0.00307119 0.01668414 0.06815706
v -0.00247741 0.01665705 0.06819265
v -0.00307119 0.01695458 0.06779147
v -0.00307119 0.01694917 0.06779889
f 8 4 7
f 11 9 6
f 33 38 37
f 13 8 12
f 12 8 7
f 51 50 46
f 38 42 43
f 54 50 51
f 31 33 37
f 26 33 31
f 17 18 13
f 30 28 25
f 25 28 23
f 19 23 24
f 25 23 19
f 37 38 41
f 38 43 41
f 42 46 47
f 47 43 42
f 47 46 50
f 53 54 55
f 55 54 51
f 18 17 22
f 32 27 26
f 26 31 32
f 13 12 16
f 16 17 13
f 20 19 24
f 57 54 53
f 48 52 53
f 21 22 17
f 27 22 21
f 26 27 21
f 19 20 14
f 53 52 56
f 56 57 53
f 49 48 53
f 35 40 36
f 36 30 35
f 15 14 20
f 11 6 10
f 10 15 11
f 14 15 10
f 40 35 39
f 29 30 25
f 44 45 40
f 40 39 44
f 49 45 44
f 48 49 44
f 34 35 30
f 30 29 34
f 1 2 5
f 5 3 1
f 1 3 4
f 3 7 4
f 6 5 2
f 6 9 5
f 3 5 45
f 45 7 3
f 5 9 45
f 38 33 45
f 45 9 11
f 45 23 28
f 45 12 7
f 45 42 38
f 45 49 53
f 45 16 12
f 45 33 26
f 51 46 45
f 26 21 45
f 28 30 45
f 45 46 42
f 53 55 45
f 36 40 45
f 45 30 36
f 24 23 45
f 45 55 51
f 17 16 45
f 45 20 24
f 45 21 17
f 11 15 45
f 45 15 20
f 34 2 1
f 1 4 34
f 4 8 34
f 13 18 34
f 34 6 2
f 34 8 13
f 34 31 37
f 25 19 34
f 34 47 50
f 37 41 34
f 50 54 34
f 54 57 34
f 34 22 27
f 34 56 52
f 34 41 43
f 43 47 34
f 27 32 34
f 18 22 34
f 34 32 31
f 34 29 25
f 52 48 34
f 19 14 34
f 57 56 34
f 34 10 6
f 14 10 34
f 34 39 35
f 48 44 34
f 34 44 39

