# https://github.com/mikedh/trimesh
v 0.01199221 0.01440113 0.03791115
v 0.01201881 0.01438165 0.03791115
v 0.01201646 0.01438366 0.03734735
v 0.01199221 0.01440113 0.03734735
v 0.00402806 0.01440113 0.03791115
v 0.01201881 0.01438165 0.03734735
v 0.01201881 0.01235020 0.03791115
v 0.00402806 0.01440113 0.03734735
v 0.00402806 0.01235020 0.03791115
v 0.01201881 0.01235020 0.03734735
v 0.00402806 0.01235020 0.03734735
f 2 3 1
f 4 1 3
f 6 3 2
f 9 7 2
f 9 1 5
f 2 1 9
f 8 9 5
f 11 9 8
f 7 9 10
f 10 9 11
f 5 1 4
f 4 8 5
f 11 8 6
f 6 10 11
f 6 4 3
f 8 4 6
f 2 7 6
f 7 10 6

