# https://github.com/mikedh/trimesh
v 0.00573458 -0.01456730 0.05870362
v 0.00573458 -0.01235002 0.05870362
v 0.00649922 -0.01456730 0.05870362
v 0.00573458 -0.01456730 0.06932481
v 0.00649922 -0.01235002 0.05870362
v 0.00573458 -0.01234261 0.05959956
v 0.00649922 -0.01456730 0.06932481
v 0.00573458 -0.01445775 0.06934934
v 0.00649922 -0.01234261 0.05959956
v 0.00573458 -0.01234261 0.06942614
v 0.00649922 -0.01403350 0.06944320
v 0.00573458 -0.01405245 0.06944000
v 0.00649922 -0.01234261 0.06936321
v 0.00573458 -0.01234631 0.06959999
v 0.00649922 -0.01234501 0.06959999
v 0.00649922 -0.01402370 0.06944534
v 0.00649922 -0.01394465 0.06946240
v 0.00573458 -0.01376432 0.06949867
v 0.00573458 -0.01235002 0.06959999
v 0.00649922 -0.01235002 0.06959999
v 0.00649922 -0.01376628 0.06949867
v 0.00649922 -0.01350254 0.06951893
v 0.00573458 -0.01257238 0.06958933
v 0.00573458 -0.01241993 0.06959893
v 0.00649922 -0.01242210 0.06959893
v 0.00649922 -0.01253884 0.06959146
v 0.00573458 -0.01246283 0.06959679
v 0.00573458 -0.01244562 0.06959786
v 0.00649922 -0.01245695 0.06959679
f 15 10 14
f 13 10 15
f 4 7 8
f 7 12 8
f 11 12 7
f 11 16 12
f 12 16 17
f 18 12 17
f 21 18 17
f 22 26 23
f 22 23 18
f 22 18 21
f 23 26 27
f 28 25 24
f 28 27 29
f 29 25 28
f 29 27 26
f 25 20 19
f 19 24 25
f 1 2 5
f 5 3 1
f 7 4 1
f 1 3 7
f 6 10 9
f 9 10 13
f 9 2 6
f 9 5 2
f 3 5 29
f 29 7 3
f 29 9 13
f 5 9 29
f 13 15 29
f 21 17 29
f 29 11 7
f 29 22 21
f 16 11 29
f 29 17 16
f 26 22 29
f 15 20 29
f 29 20 25
f 1 4 19
f 19 2 1
f 6 2 19
f 19 10 6
f 14 10 19
f 4 8 19
f 19 12 18
f 18 23 19
f 19 8 12
f 23 27 19
f 19 27 28
f 28 24 19
f 19 20 15
f 19 15 14

