# https://github.com/mikedh/trimesh
v 0.01041208 -0.00856422 0.06198921
v 0.01003767 -0.00856422 0.06198921
v 0.01041208 -0.00871547 0.06198921
v 0.01041208 -0.00856422 0.06136170
v 0.00993634 -0.00856422 0.06179996
v 0.00993634 -0.00894152 0.06179996
v 0.01041208 -0.00894152 0.06179996
v 0.01041208 -0.00894152 0.06136170
v 0.00993634 -0.00856422 0.06136170
v 0.00993634 -0.00894152 0.06136170
f 5 6 2
f 1 2 3
f 6 7 3
f 3 2 6
f 1 4 9
f 5 2 9
f 9 2 1
f 8 4 1
f 1 3 8
f 8 3 7
f 5 9 10
f 10 6 5
f 10 8 7
f 10 7 6
f 10 9 4
f 4 8 10

