# https://github.com/mikedh/trimesh
v 0.00778038 0.01735000 0.06630815
v 0.00781553 0.01732542 0.06669142
v 0.00778038 0.01735000 0.06481300
v 0.00364527 0.01735000 0.06630815
v 0.00364527 0.01732893 0.06663253
v 0.00364527 0.01731356 0.06674992
v 0.00364527 0.01730171 0.06681155
v 0.00784885 0.01730171 0.06681155
v 0.00825926 0.01701459 0.06681155
v 0.00364527 0.01735000 0.06481300
v 0.00830856 0.01697991 0.06481300
v 0.00364527 0.01286500 0.06681155
v 0.00830856 0.01697991 0.06681155
v 0.00364527 0.01286500 0.06481300
v 0.00830856 0.01286500 0.06481300
v 0.00830856 0.01286500 0.06681155
f 2 3 1
f 4 5 2
f 2 1 4
f 5 6 2
f 2 6 7
f 7 8 2
f 9 2 8
f 9 13 11
f 11 3 9
f 3 2 9
f 12 14 15
f 15 16 12
f 13 15 11
f 16 15 13
f 14 10 3
f 11 15 3
f 3 15 14
f 3 10 4
f 4 1 3
f 6 14 12
f 4 10 6
f 12 7 6
f 6 10 14
f 6 5 4
f 9 7 12
f 12 16 9
f 16 13 9
f 9 8 7

