# https://github.com/mikedh/trimesh
v 0.00364393 -0.00672551 0.06438213
v 0.00364393 -0.00672551 0.06070018
v 0.00316128 -0.00672551 0.06438213
v 0.00364393 -0.01735000 0.06438213
v 0.00363528 -0.00672551 0.06069440
v 0.00364393 -0.00700009 0.06069404
v 0.00316128 -0.00672551 0.06069404
v 0.00316128 -0.01735000 0.06438213
v 0.00364393 -0.01735000 0.06069404
v 0.00363528 -0.00690440 0.06069404
v 0.00348073 -0.00672551 0.06069404
v 0.00316128 -0.01735000 0.06069404
f 5 2 6
f 10 11 5
f 10 5 6
f 8 4 1
f 8 1 3
f 3 7 8
f 8 7 12
f 4 8 9
f 9 8 12
f 1 4 2
f 4 9 2
f 2 9 6
f 3 1 11
f 11 7 3
f 1 2 11
f 2 5 11
f 12 7 10
f 10 9 12
f 6 9 10
f 7 11 10

