# https://github.com/mikedh/trimesh
v 0.00266976 -0.01037544 0.06887043
v 0.00176030 -0.01037544 0.06887043
v 0.00266976 -0.01588276 0.06887043
v 0.00266976 -0.01037544 0.06646058
v 0.00176030 -0.01037544 0.06646058
v 0.00176030 -0.01588413 0.06887043
v 0.00203271 -0.01588413 0.06887043
v 0.00266976 -0.01597126 0.06881264
v 0.00266976 -0.01732938 0.06646553
v 0.00253961 -0.01732938 0.06646058
v 0.00176030 -0.01732938 0.06646058
v 0.00176030 -0.01613873 0.06870413
v 0.00266976 -0.01618774 0.06867111
v 0.00266976 -0.01732733 0.06651931
v 0.00266976 -0.01732121 0.06666132
v 0.00176030 -0.01731780 0.06667830
v 0.00176030 -0.01622314 0.06864822
v 0.00266976 -0.01622451 0.06864681
v 0.00266976 -0.01731916 0.06667830
v 0.00176030 -0.01731372 0.06671487
v 0.00176030 -0.01625242 0.06862605
v 0.00266976 -0.01625990 0.06862039
v 0.00266976 -0.01731372 0.06672053
v 0.00176030 -0.01731099 0.06673633
v 0.00266976 -0.01627148 0.06861143
v 0.00176030 -0.01627556 0.06860765
v 0.00266976 -0.01729466 0.06686796
v 0.00176030 -0.01729806 0.06683564
v 0.00266976 -0.01630960 0.06857722
v 0.00176030 -0.01631437 0.06857250
v 0.00266976 -0.01721977 0.06717886
v 0.00176030 -0.01729261 0.06687645
v 0.00176030 -0.01633683 0.06854986
v 0.00266976 -0.01631913 0.06856731
v 0.00266976 -0.01721501 0.06719207
v 0.00176030 -0.01721092 0.06720340
v 0.00176030 -0.01721841 0.06718169
v 0.00176030 -0.01656352 0.06831043
v 0.00266976 -0.01649613 0.06838073
v 0.00266976 -0.01710541 0.06749236
v 0.00176030 -0.01710541 0.06749236
v 0.00176030 -0.01663772 0.06823188
v 0.00266976 -0.01667449 0.06819201
v 0.00266976 -0.01709587 0.06751336
v 0.00176030 -0.01708702 0.06753128
v 0.00176030 -0.01669967 0.06816583
v 0.00266976 -0.01670580 0.06815875
v 0.00266976 -0.01707681 0.06755204
v 0.00176030 -0.01706388 0.06757870
v 0.00176030 -0.01675482 0.06810096
v 0.00266976 -0.01673031 0.06812997
v 0.00266976 -0.01696040 0.06778369
v 0.00176030 -0.01696245 0.06777991
v 0.00266976 -0.01675482 0.06810096
v 0.00266976 -0.01674188 0.06811629
v 0.00176030 -0.01691003 0.06786460
v 0.00266976 -0.01695155 0.06780020
v 0.00176030 -0.01695564 0.06779312
v 0.00266976 -0.01690867 0.06786648
v 0.00176030 -0.01693045 0.06783275
v 0.00266976 -0.01693998 0.06781813
v 0.00266976 -0.01692977 0.06783393
f 10 4 9
f 9 11 10
f 26 30 29
f 11 15 16
f 14 11 9
f 14 15 11
f 37 32 31
f 25 26 29
f 27 31 32
f 37 31 36
f 40 41 36
f 52 57 58
f 54 50 56
f 51 46 50
f 47 46 51
f 3 7 8
f 7 13 8
f 18 13 12
f 12 17 18
f 12 13 7
f 12 7 6
f 18 17 22
f 20 16 15
f 28 27 32
f 24 27 28
f 24 20 19
f 19 20 15
f 40 36 35
f 35 36 31
f 53 52 58
f 49 52 53
f 48 52 49
f 54 56 59
f 58 57 60
f 57 56 60
f 42 46 47
f 55 50 54
f 55 51 50
f 21 22 17
f 25 22 21
f 26 25 21
f 23 27 24
f 24 19 23
f 49 45 44
f 44 48 49
f 44 45 41
f 44 41 40
f 62 59 56
f 43 42 47
f 39 34 33
f 33 34 29
f 29 30 33
f 61 56 57
f 61 62 56
f 39 33 38
f 38 43 39
f 42 43 38
f 1 4 5
f 2 1 5
f 10 5 4
f 11 5 10
f 7 1 2
f 2 6 7
f 7 3 1
f 61 4 1
f 9 4 61
f 1 3 61
f 40 35 61
f 18 22 61
f 29 34 61
f 61 14 9
f 61 19 15
f 15 14 61
f 61 25 29
f 27 23 61
f 54 59 61
f 61 13 18
f 3 8 61
f 31 27 61
f 57 52 61
f 61 43 47
f 47 51 61
f 61 8 13
f 61 22 25
f 61 55 54
f 61 35 31
f 52 48 61
f 61 44 40
f 61 34 39
f 51 55 61
f 61 23 19
f 48 44 61
f 59 62 61
f 39 43 61
f 2 5 38
f 38 6 2
f 38 5 11
f 41 45 38
f 11 16 38
f 38 32 37
f 38 28 32
f 16 20 38
f 30 26 38
f 58 60 38
f 37 36 38
f 38 53 58
f 26 21 38
f 38 12 6
f 38 36 41
f 38 45 49
f 38 56 50
f 50 46 38
f 17 12 38
f 38 20 24
f 24 28 38
f 49 53 38
f 38 60 56
f 46 42 38
f 38 21 17
f 38 33 30

