# https://github.com/mikedh/trimesh
v 0.00789237 -0.00680489 0.06070000
v 0.00789237 -0.00680489 0.06959999
v 0.00789237 0.00002005 0.06070000
v 0.02041586 -0.00680489 0.06070000
v 0.00789237 0.00002005 0.06959999
v 0.02161783 -0.00680489 0.06959999
v 0.02317530 0.00002005 0.06070000
v 0.02174536 -0.00484841 0.06070000
v 0.02098815 -0.00680489 0.06113821
v 0.02417482 0.00002005 0.06959999
v 0.02169435 -0.00680489 0.06260702
v 0.02263489 -0.00530479 0.06959999
v 0.02417482 0.00002005 0.06170012
v 0.02317530 -0.00205870 0.06070000
v 0.02417482 -0.00230059 0.06170012
v 0.02263489 -0.00530479 0.06170012
v 0.02169435 -0.00680489 0.06170012
v 0.02158754 -0.00680489 0.06161039
v 0.02417482 -0.00230059 0.06959999
f 8 14 15
f 15 16 8
f 8 16 17
f 11 12 6
f 4 8 9
f 18 8 17
f 18 9 8
f 5 3 1
f 1 2 5
f 13 7 3
f 13 5 10
f 3 5 13
f 19 13 10
f 15 13 19
f 7 13 14
f 14 13 15
f 10 5 12
f 12 5 2
f 2 6 12
f 12 19 10
f 15 19 12
f 12 16 15
f 3 7 8
f 1 3 8
f 8 4 1
f 7 14 8
f 16 12 11
f 17 16 11
f 18 6 2
f 18 2 1
f 1 4 18
f 18 11 6
f 17 11 18
f 4 9 18

