# https://github.com/mikedh/trimesh
v 0.01130401 -0.01440025 0.04228367
v 0.01125995 -0.01440025 0.04271398
v 0.01199205 -0.01440083 0.04271398
v 0.01199205 -0.01440083 0.04228367
v 0.00592947 -0.01440025 0.04228367
v 0.00592947 -0.01440025 0.04271398
v 0.01207473 -0.01534174 0.04271398
v 0.01207775 -0.01537650 0.04228367
v 0.00592947 -0.01557624 0.04228367
v 0.00592947 -0.01557624 0.04271398
v 0.01209525 -0.01557624 0.04271398
v 0.01209525 -0.01557624 0.04228367
f 2 3 1
f 1 3 4
f 11 12 7
f 7 4 3
f 8 7 12
f 4 7 8
f 9 12 10
f 10 12 11
f 5 9 10
f 10 6 5
f 2 1 5
f 5 6 2
f 7 10 11
f 6 10 7
f 7 2 6
f 3 2 7
f 5 1 8
f 8 9 5
f 8 12 9
f 1 4 8

