# https://github.com/mikedh/trimesh
v 0.00058541 -0.00126142 0.06604238
v 0.00058541 -0.00082810 0.06604238
v 0.00095644 -0.00126142 0.06604238
v 0.00058541 -0.00126142 0.06790617
v 0.00095644 -0.00045707 0.06604238
v 0.00058541 -0.00082810 0.06660009
v 0.00095644 -0.00126142 0.06834702
v 0.00067859 -0.00126142 0.06803996
v 0.00058541 -0.00122291 0.06785112
v 0.00095644 -0.00045707 0.06660009
v 0.00058541 -0.00084731 0.06680721
v 0.00095644 -0.00048384 0.06688978
v 0.00095644 -0.00047352 0.06677833
v 0.00095644 -0.00124189 0.06832897
v 0.00093555 -0.00126142 0.06832761
v 0.00072047 -0.00126142 0.06809997
v 0.00095644 -0.00102535 0.06809997
v 0.00095644 -0.00093204 0.06796618
v 0.00095644 -0.00082873 0.06781773
v 0.00095644 -0.00077896 0.06773335
v 0.00058541 -0.00112118 0.06767830
v 0.00058541 -0.00085353 0.06687421
v 0.00058541 -0.00085645 0.06690557
v 0.00095644 -0.00048880 0.06694257
v 0.00095644 -0.00123331 0.06831994
v 0.00095644 -0.00113921 0.06822044
v 0.00092124 -0.00126142 0.06831250
v 0.00085473 -0.00126142 0.06824210
v 0.00095644 -0.00074637 0.06767785
v 0.00058541 -0.00110141 0.06764468
v 0.00058541 -0.00085826 0.06691527
v 0.00095644 -0.00049077 0.06695340
v 0.00095644 -0.00048982 0.06694821
v 0.00095644 -0.00073959 0.06766386
v 0.00058541 -0.00108874 0.06761828
v 0.00058541 -0.00088865 0.06707794
v 0.00095644 -0.00050715 0.06704094
v 0.00095644 -0.00060156 0.06737643
v 0.00058541 -0.00097259 0.06737643
f 39 38 37
f 19 9 18
f 35 38 39
f 39 37 36
f 8 9 4
f 8 16 17
f 17 18 8
f 8 18 9
f 30 29 34
f 34 35 30
f 38 35 34
f 20 29 30
f 20 9 19
f 24 12 23
f 14 15 7
f 17 16 28
f 9 20 21
f 21 20 30
f 10 6 13
f 6 12 13
f 32 36 37
f 11 12 6
f 17 28 26
f 24 23 33
f 23 32 33
f 36 32 31
f 31 32 23
f 22 23 12
f 12 11 22
f 15 14 25
f 25 26 15
f 15 26 27
f 27 26 28
f 2 5 3
f 2 3 1
f 5 2 6
f 6 10 5
f 22 2 1
f 1 4 22
f 22 35 39
f 4 9 22
f 9 21 22
f 30 35 22
f 22 6 2
f 39 36 22
f 22 11 6
f 22 21 30
f 36 31 22
f 22 31 23
f 3 5 25
f 25 7 3
f 25 12 24
f 19 18 25
f 5 10 25
f 25 37 38
f 25 20 19
f 10 13 25
f 25 18 17
f 38 34 25
f 25 34 29
f 29 20 25
f 25 14 7
f 17 26 25
f 25 13 12
f 25 32 37
f 24 33 25
f 25 33 32
f 1 3 27
f 3 7 27
f 27 4 1
f 7 15 27
f 27 8 4
f 16 8 27
f 27 28 16

