# https://github.com/mikedh/trimesh
v -0.00090065 0.00488035 0.05870362
v 0.00363504 0.00488035 0.05870362
v -0.00090065 0.00488035 0.06054787
v -0.00090065 0.01323361 0.05870362
v 0.00364527 0.00700485 0.05960002
v 0.00364527 0.00700076 0.05960200
v 0.00363504 0.00488035 0.06054787
v 0.00364527 0.01235535 0.05870362
v -0.00090065 0.01323361 0.06054787
v 0.00364527 0.01323361 0.05870362
v 0.00364527 0.00700076 0.06054787
v 0.00364527 0.01323361 0.06054787
f 2 8 5
f 6 2 5
f 1 3 9
f 9 4 1
f 2 3 1
f 2 7 3
f 1 4 10
f 10 2 1
f 8 2 10
f 4 9 10
f 10 9 12
f 11 9 3
f 3 7 11
f 12 9 11
f 6 10 12
f 8 10 6
f 5 8 6
f 12 11 6
f 7 2 6
f 6 11 7

