# https://github.com/mikedh/trimesh
v 0.01372113 -0.01235020 0.04854837
v 0.01381077 -0.01243970 0.04854837
v 0.01372113 -0.01235020 0.04688151
v 0.00748206 -0.01235020 0.04854837
v 0.01421546 -0.01284427 0.04854837
v 0.01394259 -0.01257135 0.04688151
v 0.00748206 -0.01235020 0.04688151
v 0.00748206 -0.01440014 0.04854837
v 0.01398279 -0.01300722 0.04688151
v 0.01421546 -0.01284427 0.04688151
v 0.01377386 -0.01315352 0.04854837
v 0.00748206 -0.01440014 0.04688151
v 0.01199296 -0.01440014 0.04854837
v 0.01263690 -0.01394941 0.04688151
v 0.01199296 -0.01440014 0.04688151
v 0.01229747 -0.01418702 0.04688151
f 3 1 2
f 14 11 13
f 13 15 16
f 16 14 13
f 5 11 9
f 11 14 9
f 5 9 10
f 6 2 5
f 5 10 6
f 3 2 6
f 1 7 4
f 3 7 1
f 11 1 4
f 4 8 11
f 5 2 11
f 8 13 11
f 11 2 1
f 12 8 4
f 4 7 12
f 15 13 8
f 8 12 15
f 6 7 3
f 6 12 7
f 6 15 12
f 6 16 15
f 14 16 6
f 6 9 14
f 6 10 9

