# https://github.com/mikedh/trimesh
v 0.00176331 0.01432903 0.05870362
v 0.00176331 0.01234568 0.05870362
v 0.00176331 0.01432903 0.05674785
v -0.00436470 0.01432903 0.05870362
v 0.00176331 0.01234568 0.05674785
v -0.00436470 0.01234568 0.05870362
v -0.00436470 0.01432903 0.05674785
v -0.00436050 0.01234568 0.05674785
v -0.00436470 0.01234568 0.05870074
v -0.00436470 0.01234782 0.05674785
f 9 10 8
f 6 2 1
f 6 1 4
f 4 1 7
f 1 3 7
f 1 2 5
f 5 3 1
f 10 7 3
f 10 5 8
f 3 5 10
f 2 6 9
f 9 5 2
f 8 5 9
f 9 6 4
f 4 7 9
f 7 10 9

