# https://github.com/mikedh/trimesh
v 0.00829825 -0.01351708 0.01630000
v 0.00829746 -0.01351708 0.01930712
v 0.00887457 -0.01306749 0.01630000
v 0.01325395 -0.01351708 0.01630000
v 0.00887457 -0.01306770 0.01930712
v 0.01325395 -0.01351708 0.01930712
v 0.01108627 -0.01136377 0.01630000
v 0.01108627 -0.01136377 0.01930712
v 0.01632974 -0.01136377 0.01630000
v 0.01632974 -0.01136377 0.01930712
f 3 1 2
f 3 8 7
f 5 3 2
f 8 3 5
f 4 3 7
f 4 7 9
f 1 3 4
f 2 1 4
f 4 6 2
f 9 7 10
f 7 8 10
f 10 4 9
f 6 4 10
f 2 6 5
f 6 10 5
f 5 10 8

