# https://github.com/mikedh/trimesh
v -0.00247729 0.01234792 0.06959999
v -0.00247729 0.01240325 0.06959786
v -0.00353883 0.01237427 0.06959893
v -0.00353883 0.00795316 0.06959999
v -0.00247729 0.00751315 0.06959999
v -0.00247729 0.01289727 0.06956586
v -0.00353883 0.01292889 0.06956480
v -0.00353883 0.00711926 0.06949653
v -0.00247729 0.00667135 0.06949653
v -0.00247729 0.01428447 0.06939414
v -0.00353883 0.01430818 0.06938987
v -0.00353883 0.00634332 0.06919682
v -0.00247729 0.00576631 0.06919682
v -0.00247729 0.01508411 0.06921708
v -0.00353883 0.01480219 0.06928001
v -0.00353883 0.00604296 0.06898350
v -0.00247729 0.00499038 0.06872112
v -0.00353883 0.01520531 0.06918295
v -0.00353883 0.01507489 0.06921922
v -0.00247729 0.01520531 0.06918295
v -0.00353883 0.00567673 0.06872112
v -0.00247729 0.00439493 0.06809929
v -0.00353883 0.01560448 0.06900590
v -0.00247729 0.01562819 0.06899523
v -0.00353883 0.00551996 0.06853126
v -0.00247729 0.00401947 0.06737613
v -0.00353883 0.00516427 0.06809929
v -0.00353883 0.01578627 0.06892484
v -0.00247729 0.01589298 0.06887684
v -0.00247729 0.00389169 0.06659858
v -0.00353883 0.00483229 0.06736760
v -0.00353883 0.01590879 0.06886937
v -0.00247729 0.01612748 0.06869765
v -0.00247729 0.00389169 0.05870362
v -0.00353883 0.00470714 0.06659858
v -0.00331605 0.00453588 0.05870362
v -0.00353883 0.01605107 0.06875845
v -0.00247729 0.01650556 0.06839154
v -0.00353883 0.01649897 0.06839794
v -0.00353883 0.01613538 0.06869125
v -0.00247729 0.01735000 0.05870362
v -0.00353883 0.00470714 0.05870362
v -0.00247729 0.01666496 0.06818035
v -0.00353883 0.01668604 0.06815262
v -0.00353883 0.01735000 0.05870362
v -0.00247729 0.01735000 0.06630740
v -0.00247729 0.01696269 0.06777718
v -0.00353883 0.01686916 0.06790517
v -0.00353883 0.01735000 0.06630740
v -0.00353883 0.01733419 0.06653032
v -0.00247729 0.01733287 0.06654632
v -0.00353883 0.01696664 0.06776864
v -0.00247729 0.01706413 0.06756706
v -0.00353883 0.01706281 0.06757132
v -0.00353883 0.01729204 0.06685350
v -0.00247729 0.01729335 0.06684390
v -0.00247729 0.01717347 0.06730147
v -0.00353883 0.01717742 0.06728761
v -0.00353883 0.01725120 0.06706149
v -0.00247729 0.01726042 0.06701562
v -0.00247729 0.01724856 0.06707429
v -0.00353883 0.01722353 0.06715002
f 36 35 42
f 36 34 30
f 30 35 36
f 4 5 1
f 4 1 3
f 31 35 30
f 5 4 9
f 26 31 30
f 27 31 26
f 26 22 27
f 53 54 47
f 13 12 17
f 13 9 8
f 8 12 13
f 8 9 4
f 10 7 6
f 18 19 14
f 20 18 14
f 11 7 10
f 10 14 11
f 22 17 21
f 2 6 7
f 2 7 3
f 3 1 2
f 43 44 38
f 52 47 54
f 38 44 39
f 15 14 19
f 15 11 14
f 32 29 33
f 38 39 33
f 23 18 20
f 46 49 50
f 50 51 46
f 62 61 59
f 57 58 54
f 57 54 53
f 57 62 58
f 61 62 57
f 16 17 12
f 16 21 17
f 27 22 25
f 22 21 25
f 47 52 48
f 48 43 47
f 44 43 48
f 40 33 39
f 28 29 32
f 24 23 20
f 24 28 23
f 29 28 24
f 59 61 60
f 32 33 37
f 33 40 37
f 55 60 56
f 59 60 55
f 55 56 51
f 51 50 55
f 42 45 36
f 41 34 36
f 36 45 41
f 41 45 49
f 49 46 41
f 1 5 60
f 30 34 60
f 13 17 60
f 41 46 60
f 60 34 41
f 60 26 30
f 60 9 13
f 53 47 60
f 46 51 60
f 60 24 20
f 20 14 60
f 5 9 60
f 22 26 60
f 60 2 1
f 60 57 53
f 60 17 22
f 10 6 60
f 60 14 10
f 60 43 38
f 38 33 60
f 6 2 60
f 47 43 60
f 60 33 29
f 51 56 60
f 61 57 60
f 29 24 60
f 42 35 55
f 35 31 55
f 55 45 42
f 55 4 3
f 54 58 55
f 55 8 4
f 55 31 27
f 55 19 18
f 7 11 55
f 55 49 45
f 3 7 55
f 55 16 12
f 55 15 19
f 18 23 55
f 12 8 55
f 55 52 54
f 44 48 55
f 32 37 55
f 55 62 59
f 27 25 55
f 55 39 44
f 11 15 55
f 55 28 32
f 55 50 49
f 58 62 55
f 21 16 55
f 55 25 21
f 55 48 52
f 55 40 39
f 23 28 55
f 55 37 40

