# https://github.com/mikedh/trimesh
v -0.00296999 -0.00813836 0.06883783
v -0.00296999 -0.00813836 0.06683928
v -0.00361222 -0.00813836 0.06883783
v -0.00296999 -0.01593997 0.06883783
v -0.00361222 -0.00813836 0.06683928
v -0.00296999 -0.01729431 0.06683928
v -0.00361222 -0.01594086 0.06883783
v -0.00345976 -0.01594086 0.06883783
v -0.00296999 -0.01618556 0.06867720
v -0.00361222 -0.01729342 0.06683928
v -0.00296999 -0.01728356 0.06692184
v -0.00361222 -0.01618108 0.06868053
v -0.00296999 -0.01619273 0.06867192
v -0.00361222 -0.01728445 0.06690776
v -0.00361222 -0.01728176 0.06692791
v -0.00296999 -0.01721454 0.06719751
v -0.00361222 -0.01721902 0.06717853
v -0.00361222 -0.01621335 0.06865627
v -0.00296999 -0.01623217 0.06864179
v -0.00361222 -0.01721364 0.06719966
v -0.00296999 -0.01712311 0.06744618
v -0.00361222 -0.01711594 0.06746575
v -0.00361222 -0.01627519 0.06860853
v -0.00296999 -0.01627161 0.06861147
v -0.00296999 -0.01710608 0.06749216
v -0.00361222 -0.01710608 0.06749216
v -0.00296999 -0.01627788 0.06860618
v -0.00361222 -0.01634600 0.06854475
v -0.00296999 -0.01634242 0.06854808
v -0.00296999 -0.01708816 0.06753011
v -0.00361222 -0.01706575 0.06757785
v -0.00361222 -0.01635945 0.06853125
v -0.00296999 -0.01637827 0.06851168
v -0.00296999 -0.01707023 0.06756748
v -0.00296999 -0.01706754 0.06757296
v -0.00296999 -0.01699673 0.06771539
v -0.00296999 -0.01698687 0.06773515
v -0.00361222 -0.01701287 0.06768331
v -0.00361222 -0.01638365 0.06850640
v -0.00361222 -0.01641143 0.06847725
v -0.00296999 -0.01644280 0.06844380
v -0.00296999 -0.01697343 0.06776137
v -0.00361222 -0.01698418 0.06774005
v -0.00361222 -0.01665523 0.06821958
v -0.00296999 -0.01655305 0.06832699
v -0.00296999 -0.01696447 0.06777800
v -0.00361222 -0.01695550 0.06779483
v -0.00361222 -0.01669019 0.06817810
v -0.00296999 -0.01671081 0.06815326
v -0.00296999 -0.01665972 0.06821352
v -0.00296999 -0.01695461 0.06779541
v -0.00296999 -0.01692861 0.06783650
v -0.00361222 -0.01686945 0.06792709
v -0.00361222 -0.01675473 0.06810082
v -0.00296999 -0.01675473 0.06810082
v -0.00296999 -0.01672515 0.06813624
v -0.00296999 -0.01684077 0.06797072
v -0.00296999 -0.01678341 0.06805817
v -0.00361222 -0.01680133 0.06803059
v -0.00361222 -0.01676638 0.06808341
f 8 9 4
f 11 10 6
f 48 54 55
f 49 50 44
f 44 48 49
f 25 22 21
f 21 22 16
f 16 22 20
f 24 19 18
f 18 23 24
f 27 23 29
f 24 23 27
f 56 48 55
f 56 49 48
f 44 50 45
f 45 41 44
f 58 59 53
f 53 57 58
f 58 60 59
f 54 60 58
f 55 54 58
f 52 53 47
f 52 57 53
f 47 51 52
f 26 22 25
f 25 31 26
f 37 42 43
f 43 42 47
f 17 11 16
f 16 20 17
f 13 18 19
f 12 8 7
f 9 8 12
f 12 13 9
f 18 13 12
f 29 23 28
f 28 32 29
f 29 32 33
f 46 51 47
f 47 42 46
f 30 31 25
f 30 34 31
f 37 31 36
f 38 31 37
f 37 43 38
f 11 17 15
f 41 33 40
f 44 41 40
f 31 34 35
f 35 36 31
f 10 11 14
f 11 15 14
f 39 33 32
f 39 40 33
f 1 2 5
f 3 1 5
f 10 5 2
f 10 2 6
f 8 1 3
f 8 4 1
f 3 7 8
f 35 2 1
f 6 2 35
f 1 4 35
f 4 9 35
f 35 11 6
f 51 46 35
f 25 21 35
f 29 33 35
f 35 52 51
f 16 11 35
f 35 27 29
f 9 13 35
f 35 19 24
f 50 49 35
f 35 56 55
f 35 45 50
f 55 58 35
f 35 21 16
f 24 27 35
f 49 56 35
f 41 45 35
f 35 42 37
f 35 58 57
f 57 52 35
f 35 30 25
f 35 13 19
f 35 33 41
f 35 46 42
f 34 30 35
f 37 36 35
f 3 5 39
f 39 7 3
f 5 10 39
f 22 26 39
f 39 43 47
f 54 48 39
f 39 48 44
f 47 53 39
f 44 40 39
f 31 38 39
f 53 59 39
f 39 60 54
f 39 20 22
f 23 18 39
f 39 12 7
f 59 60 39
f 39 26 31
f 39 28 23
f 39 17 20
f 18 12 39
f 32 28 39
f 39 38 43
f 39 15 17
f 10 14 39
f 39 14 15

