# https://github.com/mikedh/trimesh
v 0.00778010 0.01734971 0.04801813
v 0.00972440 0.01709425 0.04801813
v 0.00878213 0.01721809 0.04761842
v 0.00778010 0.01734971 0.04761842
v -0.00199837 0.01734971 0.04801813
v 0.01181185 0.01681975 0.04801813
v 0.00969522 0.01709801 0.04761842
v -0.00199837 0.01734971 0.04761842
v -0.00199837 0.01440141 0.04801813
v 0.01219959 0.01676865 0.04801813
v 0.01219959 0.01676865 0.04761842
v -0.00199837 0.01440141 0.04761842
v 0.01199113 0.01440141 0.04801813
v 0.01212038 0.01586402 0.04801813
v 0.01203560 0.01489530 0.04761842
v 0.01199113 0.01440141 0.04761842
v 0.01200364 0.01453275 0.04801813
f 3 1 2
f 4 1 3
f 15 11 10
f 10 11 6
f 3 2 6
f 17 13 16
f 16 15 17
f 3 6 7
f 7 6 11
f 14 15 10
f 14 17 15
f 5 1 4
f 4 8 5
f 12 13 9
f 16 13 12
f 12 9 5
f 5 8 12
f 16 12 7
f 7 15 16
f 7 4 3
f 8 4 7
f 7 12 8
f 11 15 7
f 14 1 5
f 5 9 14
f 10 6 14
f 9 13 14
f 14 2 1
f 14 6 2
f 13 17 14

