# https://github.com/mikedh/trimesh
v 0.02251742 0.00547844 0.06322704
v 0.02263484 0.00530491 0.06322704
v 0.02257459 0.00539453 0.06229805
v 0.02253771 0.00544883 0.06229805
v 0.02251742 0.00547844 0.06229805
v 0.01712319 0.00547844 0.06322704
v 0.02275163 0.00507740 0.06229805
v 0.02263484 0.00530491 0.06229805
v 0.02334423 0.00392271 0.06322704
v 0.01712319 0.00547844 0.06229805
v 0.01712319 0.00380756 0.06322704
v 0.02291269 0.00476354 0.06229805
v 0.02340325 0.00380756 0.06322704
v 0.02340325 0.00380756 0.06229805
v 0.01712319 0.00380756 0.06229805
f 2 7 8
f 2 8 3
f 3 1 2
f 4 5 1
f 4 1 3
f 7 2 9
f 9 12 7
f 13 14 9
f 14 12 9
f 6 1 5
f 5 10 6
f 13 11 15
f 15 14 13
f 15 11 6
f 6 10 15
f 12 4 3
f 3 8 12
f 14 15 12
f 10 5 12
f 12 15 10
f 8 7 12
f 5 4 12
f 9 11 13
f 6 11 9
f 9 1 6
f 9 2 1

