# https://github.com/mikedh/trimesh
v -0.00090065 0.00231412 0.05870467
v -0.00178597 0.00319952 0.05870467
v -0.00090065 0.00544830 0.05870467
v -0.00090065 0.00231412 0.06340274
v -0.00178597 0.00544830 0.05870467
v -0.00178597 0.00319952 0.06519937
v -0.00090065 0.00544830 0.06948339
v -0.00090065 0.00231473 0.06660097
v -0.00178597 0.00544830 0.06926792
v -0.00178597 0.00319982 0.06659991
v -0.00090334 0.00544830 0.06949395
v -0.00090065 0.00452363 0.06922356
v -0.00090065 0.00241659 0.06722625
v -0.00178597 0.00523416 0.06919716
v -0.00090065 0.00443528 0.06919716
v -0.00090065 0.00444847 0.06920138
v -0.00172296 0.00544830 0.06928482
v -0.00178597 0.00332684 0.06731392
v -0.00090065 0.00245892 0.06737624
v -0.00178597 0.00334402 0.06737624
v -0.00178597 0.00444203 0.06872080
v -0.00090065 0.00355693 0.06872080
v -0.00090065 0.00280192 0.06798356
v -0.00178597 0.00374254 0.06806278
v -0.00178597 0.00442975 0.06871024
v -0.00090065 0.00347256 0.06865320
v -0.00090065 0.00288260 0.06809975
v -0.00178597 0.00376800 0.06809975
f 13 19 20
f 18 13 20
f 10 13 18
f 10 6 8
f 6 4 8
f 8 13 10
f 12 7 11
f 22 15 14
f 14 15 9
f 17 12 11
f 22 14 21
f 26 21 25
f 22 21 26
f 27 26 28
f 28 26 25
f 20 19 23
f 27 28 23
f 12 17 16
f 16 17 9
f 9 15 16
f 20 23 24
f 24 23 28
f 5 3 1
f 5 1 2
f 2 1 4
f 4 6 2
f 3 5 17
f 17 7 3
f 11 7 17
f 5 9 17
f 1 3 16
f 3 7 16
f 16 4 1
f 19 13 16
f 7 12 16
f 13 8 16
f 16 15 22
f 16 8 4
f 16 23 19
f 22 26 16
f 16 26 27
f 27 23 16
f 24 5 2
f 24 9 5
f 2 6 24
f 24 18 20
f 24 6 10
f 10 18 24
f 25 21 24
f 24 14 9
f 24 21 14
f 24 28 25

