# https://github.com/mikedh/trimesh
v 0.00512145 -0.01921189 0.01943392
v 0.00512145 -0.01414448 0.01943392
v 0.00590493 -0.01866323 0.01943392
v 0.00512145 -0.01921189 0.02578671
v 0.00613321 -0.01424915 0.01943392
v 0.00512145 -0.01414398 0.02578671
v 0.00613539 -0.01424866 0.02577054
v 0.00613539 -0.01850151 0.01943392
v 0.00613539 -0.01850151 0.02578671
v 0.00541325 -0.01900751 0.02578671
v 0.00613539 -0.01788191 0.01943392
v 0.00613539 -0.01424866 0.02578671
f 2 6 7
f 7 6 12
f 5 2 7
f 3 4 1
f 3 8 9
f 11 5 7
f 4 3 10
f 10 3 9
f 2 4 6
f 1 4 2
f 9 8 11
f 7 12 11
f 11 12 9
f 1 2 11
f 2 5 11
f 11 3 1
f 8 3 11
f 6 4 10
f 10 12 6
f 9 12 10

