# https://github.com/mikedh/trimesh
v -0.00242556 -0.00384029 0.06473680
v -0.00242556 -0.00384029 0.06317073
v -0.00296999 -0.00426879 0.06473680
v -0.00242556 -0.01734868 0.06473680
v -0.00296999 -0.00426879 0.06317073
v -0.00242556 -0.01734868 0.06317073
v -0.00296999 -0.01734868 0.06473680
v -0.00296999 -0.01733413 0.06317073
v -0.00296898 -0.01734868 0.06317073
v -0.00296999 -0.01734868 0.06318913
f 8 9 10
f 7 4 1
f 7 1 3
f 3 1 5
f 1 2 5
f 1 4 6
f 6 2 1
f 9 5 2
f 8 5 9
f 2 6 9
f 10 7 3
f 3 5 10
f 10 5 8
f 4 7 10
f 10 6 4
f 10 9 6

