# https://github.com/mikedh/trimesh
v 0.01099903 -0.01455637 0.05720314
v 0.01099903 -0.01455637 0.05648120
v -0.00436470 -0.01455637 0.05720314
v 0.01099903 -0.01480074 0.05720314
v 0.01121869 -0.01550994 0.05648113
v 0.01118361 -0.01511016 0.05648113
v -0.00436470 -0.01455637 0.05648120
v -0.00436470 -0.01550994 0.05720314
v 0.01041786 -0.01550200 0.05720314
v 0.01099903 -0.01509429 0.05720130
v 0.01100056 -0.01550994 0.05648113
v 0.01041633 -0.01550994 0.05719989
v 0.01100056 -0.01511016 0.05648113
v -0.00436470 -0.01550994 0.05648120
v 0.00822587 -0.01550994 0.05720314
v 0.01041481 -0.01550462 0.05720314
v 0.01040718 -0.01550994 0.05720300
f 6 1 5
f 6 2 1
f 17 16 15
f 5 1 4
f 4 10 5
f 12 16 17
f 5 10 12
f 10 16 12
f 9 16 10
f 10 4 9
f 3 1 7
f 1 2 7
f 7 14 8
f 7 8 3
f 12 11 5
f 12 15 8
f 8 14 12
f 14 11 12
f 17 15 12
f 5 11 13
f 13 6 5
f 13 7 2
f 2 6 13
f 13 11 14
f 14 7 13
f 3 8 9
f 9 1 3
f 8 15 9
f 9 15 16
f 9 4 1

