# https://github.com/mikedh/trimesh
v 0.01398794 -0.01234894 0.02713617
v 0.01398794 -0.01234894 0.02671490
v 0.01372203 -0.01234894 0.02728843
v 0.01372061 -0.01235005 0.02730117
v 0.01398794 -0.01261676 0.02730117
v 0.01398794 -0.01300399 0.02671490
v 0.00678203 -0.01234894 0.02671490
v 0.01298563 -0.01234894 0.02730117
v 0.01370016 -0.01234949 0.02730117
v 0.01398794 -0.01300399 0.02730117
v 0.00768206 -0.01741920 0.02671490
v 0.00678203 -0.01804859 0.02671490
v 0.00678203 -0.01234894 0.02730117
v 0.00825058 -0.01702081 0.02730117
v 0.00678203 -0.01804859 0.02730117
v 0.00730470 -0.01768312 0.02671490
f 4 5 1
f 10 11 6
f 16 15 12
f 16 11 15
f 3 4 1
f 15 11 14
f 11 10 14
f 3 8 9
f 4 3 9
f 15 13 7
f 7 12 15
f 10 2 1
f 10 6 2
f 1 5 10
f 7 2 16
f 16 12 7
f 2 6 16
f 6 11 16
f 1 2 8
f 8 2 7
f 7 13 8
f 8 3 1
f 13 15 9
f 15 14 9
f 5 4 9
f 9 10 5
f 9 14 10
f 9 8 13

