# https://github.com/mikedh/trimesh
v -0.00247522 0.00388850 0.03179892
v -0.00436470 0.00507409 0.02680039
v -0.00247522 0.00388902 0.02680039
v -0.00247522 0.00393160 0.03205861
v -0.00436470 0.00511045 0.03205861
v -0.00436470 0.00507409 0.03179961
v -0.00436470 0.00511045 0.02654139
v -0.00247522 0.00393057 0.02654687
v -0.00247522 0.00405624 0.03229980
v -0.00436470 0.00521794 0.03229980
v -0.00436470 0.00521794 0.02630020
v -0.00247522 0.00393160 0.02654139
v -0.00247522 0.00425514 0.03250674
v -0.00436470 0.00538828 0.03250674
v -0.00247522 0.00405624 0.02630020
v -0.00436470 0.00538828 0.02609327
v -0.00247522 0.00430343 0.03253688
v -0.00436470 0.00561055 0.03266570
v -0.00247522 0.00425514 0.02609327
v -0.00436470 0.00561055 0.02593430
v -0.00247522 0.00451376 0.03266570
v -0.00436470 0.00586968 0.03276574
v -0.00247522 0.00444573 0.02597610
v -0.00436470 0.00586968 0.02583426
v -0.00247522 0.00451376 0.02593430
v -0.00247522 0.00481496 0.03276574
v -0.00436470 0.00614700 0.03280000
v -0.00247522 0.00481496 0.02583426
v -0.00247522 0.00470330 0.02587126
v -0.00436470 0.00614700 0.02580000
v -0.00247522 0.00513849 0.03280000
v -0.00436470 0.00919381 0.03280000
v -0.00247522 0.00513849 0.02580000
v -0.00436470 0.00919381 0.02580000
v -0.00247522 0.00919381 0.03280000
v -0.00247522 0.00919381 0.02580000
f 2 1 6
f 1 5 6
f 3 1 2
f 26 31 27
f 4 5 1
f 10 9 14
f 10 4 9
f 5 4 10
f 14 9 13
f 18 13 17
f 14 13 18
f 22 26 27
f 21 18 17
f 21 22 18
f 26 22 21
f 24 30 28
f 28 30 33
f 15 12 11
f 11 16 15
f 15 16 19
f 24 25 20
f 20 19 16
f 29 25 24
f 24 28 29
f 7 11 12
f 12 8 7
f 7 8 3
f 7 3 2
f 23 20 25
f 19 20 23
f 35 34 32
f 36 34 35
f 32 27 35
f 27 31 35
f 36 33 30
f 30 34 36
f 7 27 32
f 5 10 7
f 2 6 7
f 32 34 7
f 7 6 5
f 34 30 7
f 7 10 14
f 7 22 27
f 14 18 7
f 7 30 24
f 24 20 7
f 18 22 7
f 16 11 7
f 7 20 16
f 36 35 23
f 23 28 33
f 1 3 23
f 23 33 36
f 23 4 1
f 17 13 23
f 3 8 23
f 31 26 23
f 23 35 31
f 9 4 23
f 23 13 9
f 23 12 15
f 23 8 12
f 23 21 17
f 26 21 23
f 15 19 23
f 25 29 23
f 23 29 28

