# https://github.com/mikedh/trimesh
v 0.00613546 -0.01850193 0.01630093
v 0.00678203 -0.01804904 0.01630093
v 0.00613546 -0.01850193 0.01710975
v 0.00613546 -0.01424872 0.01630093
v 0.00678203 -0.01414945 0.01630093
v 0.00678203 -0.01804904 0.02578671
v 0.00613546 -0.01850150 0.02578671
v 0.00613546 -0.01424829 0.02577093
v 0.00678203 -0.01414945 0.02578671
v 0.00613546 -0.01424872 0.02578671
f 6 7 3
f 5 4 8
f 8 9 5
f 10 9 8
f 4 5 2
f 4 2 1
f 2 5 9
f 9 6 2
f 10 7 9
f 9 7 6
f 1 2 3
f 2 6 3
f 8 4 1
f 1 3 8
f 8 7 10
f 8 3 7

