# https://github.com/mikedh/trimesh
v 0.01968173 0.00250437 0.06501963
v 0.01968173 0.00627130 0.06501963
v 0.02211068 0.00250437 0.06501963
v 0.01968173 0.00250437 0.06959999
v 0.02198062 0.00627130 0.06501963
v 0.01968173 0.00627130 0.06959999
v 0.02211068 0.00607917 0.06501963
v 0.02211068 0.00250437 0.06959999
v 0.02198062 0.00627130 0.06959999
v 0.02211068 0.00607917 0.06959999
f 1 3 8
f 8 4 1
f 3 7 8
f 8 7 10
f 6 2 1
f 1 4 6
f 1 2 5
f 5 3 1
f 5 7 3
f 4 8 9
f 9 8 10
f 9 6 4
f 10 7 9
f 7 5 9
f 2 6 9
f 9 5 2

