# https://github.com/mikedh/trimesh
v 0.00827650 -0.01728477 0.03559999
v 0.00890856 -0.01720161 0.03559999
v 0.00890856 -0.01720161 0.03560365
v 0.00890856 -0.01720154 0.03560816
v 0.00827650 -0.01728463 0.03560816
v 0.00827650 -0.01700270 0.03533712
v 0.00889842 -0.01656723 0.03533712
v 0.00890856 -0.01656723 0.03559999
v 0.00890856 -0.01656723 0.03560816
v 0.00827650 -0.01656723 0.03560816
v 0.00827650 -0.01656723 0.03533712
f 6 2 1
f 6 7 2
f 7 6 11
f 2 7 8
f 4 5 1
f 1 2 3
f 3 4 1
f 1 5 11
f 11 6 1
f 11 5 10
f 8 11 10
f 7 11 8
f 10 9 8
f 10 5 4
f 4 9 10
f 3 8 9
f 2 8 3
f 9 4 3

