# https://github.com/mikedh/trimesh
v 0.00946471 0.01617077 0.02572593
v 0.00946471 0.01617077 0.01974121
v 0.00849220 0.01617077 0.02572593
v 0.01378479 0.01314574 0.02572593
v 0.00849220 0.01617077 0.01974121
v 0.01378479 0.01314574 0.01974121
v 0.00849220 0.01336547 0.02572593
v 0.01378479 0.00928492 0.02572593
v 0.00849220 0.01336547 0.01974121
v 0.01378479 0.00928492 0.01974121
v 0.00858443 0.01329335 0.01974121
v 0.00887457 0.01306755 0.02572593
v 0.01373661 0.00932199 0.01974121
v 0.00887457 0.01306755 0.01974121
f 11 7 9
f 11 12 7
f 11 14 12
f 13 10 8
f 8 12 13
f 12 14 13
f 4 6 1
f 1 6 2
f 3 1 5
f 5 1 2
f 5 7 3
f 9 7 5
f 4 8 10
f 10 6 4
f 12 8 4
f 12 1 3
f 4 1 12
f 3 7 12
f 2 6 13
f 9 5 13
f 13 5 2
f 6 10 13
f 13 11 9
f 14 11 13

