# https://github.com/mikedh/trimesh
v 0.00364393 -0.00201311 0.06959999
v 0.00364393 -0.00111892 0.06951672
v 0.00316128 -0.00241158 0.06959221
v 0.00316128 -0.00249606 0.06959999
v 0.00364393 -0.01234960 0.06959999
v 0.00364393 -0.00091490 0.06949771
v 0.00316128 -0.00149987 0.06950731
v 0.00316128 -0.01234960 0.06959999
v 0.00364393 -0.01241336 0.06959971
v 0.00316128 -0.00139786 0.06949771
v 0.00364393 0.00002072 0.06923608
v 0.00316128 -0.01241176 0.06959971
v 0.00316128 -0.01242930 0.06959855
v 0.00316128 -0.01255362 0.06959020
v 0.00316128 -0.01264766 0.06958386
v 0.00364393 -0.01266360 0.06958280
v 0.00351404 0.00002072 0.06919804
v 0.00316128 -0.00129903 0.06946889
v 0.00364393 0.00002072 0.06861880
v 0.00316128 -0.01270504 0.06957982
v 0.00364393 -0.01375862 0.06950011
v 0.00316128 0.00002072 0.06900672
v 0.00316128 -0.00037457 0.06919804
v 0.00316128 -0.00052758 0.06924309
v 0.00316128 0.00002072 0.06861880
v 0.00364393 -0.01626265 0.06861880
v 0.00316128 -0.01291863 0.06956369
v 0.00316128 -0.01375702 0.06950030
v 0.00316128 -0.01386063 0.06947907
v 0.00316128 -0.01414912 0.06941991
v 0.00364393 -0.01413000 0.06942366
v 0.00316128 -0.01626265 0.06861880
v 0.00364393 -0.01623236 0.06864194
v 0.00316128 -0.01514213 0.06919900
v 0.00364393 -0.01518357 0.06918959
v 0.00316128 -0.01625149 0.06862715
v 0.00316128 -0.01619411 0.06866720
v 0.00316128 -0.01621005 0.06865664
v 0.00316128 -0.01622758 0.06864454
v 0.00316128 -0.01623395 0.06863993
v 0.00364393 -0.01574622 0.06895956
v 0.00316128 -0.01574463 0.06896120
v 0.00316128 -0.01610166 0.06872771
v 0.00316128 -0.01518198 0.06918998
v 0.00316128 -0.01518835 0.06918844
v 0.00364393 -0.01518995 0.06918786
v 0.00364393 -0.01573984 0.06896360
v 0.00316128 -0.01572869 0.06897013
v 0.00316128 -0.01520429 0.06918393
v 0.00364393 -0.01521385 0.06918095
v 0.00364393 -0.01567609 0.06899875
v 0.00316128 -0.01567609 0.06899894
v 0.00316128 -0.01522979 0.06917557
v 0.00316128 -0.01523298 0.06917451
v 0.00364393 -0.01523139 0.06917509
v 0.00364393 -0.01560277 0.06902900
v 0.00316128 -0.01566652 0.06900298
v 0.00316128 -0.01536527 0.06912255
v 0.00316128 -0.01554539 0.06905177
v 0.00364393 -0.01551829 0.06906233
v 0.00316128 -0.01556930 0.06904236
v 0.00316128 -0.01558205 0.06903726
f 4 1 3
f 9 5 8
f 10 11 17
f 10 6 11
f 10 7 6
f 22 23 17
f 33 32 26
f 48 51 52
f 20 21 16
f 6 7 2
f 2 7 3
f 3 1 2
f 17 23 24
f 42 33 41
f 27 28 21
f 21 20 27
f 16 9 15
f 15 20 16
f 31 30 35
f 21 30 31
f 21 28 29
f 29 30 21
f 18 10 17
f 17 24 18
f 43 33 42
f 43 37 33
f 47 48 42
f 42 41 47
f 51 48 47
f 12 9 8
f 35 30 34
f 35 45 46
f 55 50 54
f 32 33 36
f 33 37 38
f 38 39 33
f 9 12 13
f 44 45 35
f 35 34 44
f 50 46 49
f 49 46 45
f 58 60 55
f 55 54 58
f 33 39 40
f 40 36 33
f 14 15 9
f 9 13 14
f 53 54 50
f 50 49 53
f 56 60 61
f 60 58 59
f 59 61 60
f 51 56 57
f 52 51 57
f 56 61 62
f 62 57 56
f 25 19 26
f 26 32 25
f 4 5 1
f 8 5 4
f 22 11 19
f 17 11 22
f 19 25 22
f 26 19 46
f 46 9 16
f 16 21 46
f 1 5 46
f 19 11 46
f 46 33 26
f 55 60 46
f 11 6 46
f 5 9 46
f 46 2 1
f 51 47 46
f 46 56 51
f 6 2 46
f 46 50 55
f 46 31 35
f 46 41 33
f 21 31 46
f 46 60 56
f 46 47 41
f 62 4 3
f 62 48 52
f 62 25 32
f 8 4 62
f 62 24 23
f 62 29 28
f 62 22 25
f 28 27 62
f 3 7 62
f 7 10 62
f 23 22 62
f 42 48 62
f 10 18 62
f 62 43 42
f 62 34 30
f 62 49 45
f 62 27 20
f 20 15 62
f 30 29 62
f 62 12 8
f 62 18 24
f 32 36 62
f 37 43 62
f 62 38 37
f 62 40 39
f 45 44 62
f 54 53 62
f 39 38 62
f 62 13 12
f 62 44 34
f 15 14 62
f 62 58 54
f 36 40 62
f 62 14 13
f 62 53 49
f 62 59 58
f 61 59 62
f 52 57 62

