# https://github.com/mikedh/trimesh
v 0.00529599 0.00958420 0.02779981
v 0.00504255 0.01030569 0.02779981
v 0.00363784 0.00958420 0.02779981
v 0.00529599 0.00958420 0.02580000
v 0.00363817 0.01030569 0.02779981
v 0.00504255 0.01030569 0.02580000
v 0.00363752 0.00958420 0.02736304
v 0.00363752 0.00958420 0.02580000
v 0.00363752 0.01030569 0.02657545
v 0.00363752 0.01030569 0.02580000
f 7 3 5
f 7 5 9
f 8 4 1
f 8 3 7
f 1 3 8
f 1 4 6
f 6 2 1
f 4 8 6
f 6 8 10
f 5 3 1
f 1 2 5
f 2 6 9
f 9 6 10
f 9 5 2
f 9 8 7
f 10 8 9

