# https://github.com/mikedh/trimesh
v 0.00005237 -0.00687188 0.06646526
v 0.00005237 -0.00687188 0.06601915
v -0.00034734 -0.00687188 0.06646526
v 0.00005237 -0.01732846 0.06646526
v -0.00034734 -0.00687188 0.06601915
v 0.00005237 -0.01735000 0.06601915
v -0.00034734 -0.01732846 0.06646526
v 0.00005237 -0.01732949 0.06646234
v -0.00034734 -0.01735000 0.06601915
v 0.00005237 -0.01735000 0.06630817
v -0.00034734 -0.01733154 0.06644317
v 0.00005237 -0.01733359 0.06643281
v -0.00034734 -0.01735000 0.06630817
f 10 12 13
f 4 7 8
f 11 13 12
f 12 8 11
f 11 8 7
f 1 2 5
f 3 1 5
f 9 5 2
f 9 2 6
f 7 1 3
f 7 4 1
f 13 9 6
f 6 10 13
f 8 2 1
f 6 2 8
f 1 4 8
f 8 10 6
f 8 12 10
f 3 5 11
f 5 9 11
f 11 7 3
f 9 13 11

