# https://github.com/mikedh/trimesh
v 0.00335029 0.01356419 0.01630093
v 0.00335029 0.02040000 0.01630093
v 0.00384991 0.01356419 0.01630093
v 0.00335029 0.01356419 0.02578671
v 0.00342469 0.02040000 0.01630093
v 0.00335029 0.02040000 0.02578671
v 0.00416838 0.01378770 0.01630093
v 0.00416838 0.01378703 0.02578671
v 0.00385023 0.01356419 0.02578671
v 0.00416838 0.01987870 0.01630093
v 0.00342469 0.02040000 0.02578671
v 0.00416838 0.01987870 0.02578671
f 8 3 7
f 9 3 8
f 6 2 1
f 1 4 6
f 3 4 1
f 3 9 4
f 7 10 8
f 8 10 12
f 1 2 5
f 5 10 7
f 5 3 1
f 7 3 5
f 11 8 12
f 4 9 11
f 11 6 4
f 9 8 11
f 12 10 11
f 10 5 11
f 2 6 11
f 11 5 2

