# https://github.com/mikedh/trimesh
v -0.00308944 0.01234549 0.05870362
v -0.00308944 0.01234549 0.05490000
v -0.00361866 0.01234549 0.05870362
v -0.00308944 0.00514006 0.05870362
v -0.00361866 0.01234549 0.05490000
v -0.00308944 0.00560979 0.05490000
v -0.00361866 0.00514006 0.05870362
v -0.00308944 0.00514006 0.05498266
v -0.00361866 0.00583831 0.05490000
v -0.00308944 0.00532061 0.05493053
v -0.00361866 0.00514006 0.05514946
v -0.00308944 0.00528676 0.05493426
v -0.00329165 0.00514006 0.05503404
v -0.00361866 0.00530157 0.05503404
v -0.00361866 0.00536716 0.05500872
v -0.00361866 0.00556042 0.05493426
v -0.00361866 0.00565352 0.05492271
f 13 11 14
f 14 8 13
f 10 9 6
f 10 12 9
f 16 12 8
f 9 12 17
f 12 16 17
f 15 8 14
f 15 16 8
f 7 4 1
f 7 1 3
f 3 1 5
f 1 2 5
f 4 7 13
f 13 8 4
f 7 11 13
f 9 5 2
f 2 6 9
f 1 4 10
f 10 2 1
f 4 8 10
f 10 6 2
f 8 12 10
f 15 7 3
f 3 5 15
f 14 11 15
f 15 11 7
f 5 9 15
f 9 17 15
f 15 17 16

