# https://github.com/mikedh/trimesh
v 0.00364527 0.00141160 0.06070000
v 0.00364527 0.00261085 0.06070000
v 0.00431204 0.00141160 0.06070000
v 0.00364527 0.00141160 0.06954337
v 0.00431204 0.00261085 0.06070000
v 0.00364527 0.00261085 0.06959999
v 0.00431204 0.00141160 0.06959999
v 0.00378807 0.00141160 0.06955731
v 0.00364527 0.00167666 0.06956863
v 0.00431204 0.00261085 0.06959999
v 0.00364527 0.00201087 0.06959999
v 0.00424448 0.00141160 0.06959999
v 0.00396384 0.00141160 0.06957386
f 4 8 9
f 9 8 11
f 13 12 11
f 11 8 13
f 5 3 1
f 1 2 5
f 2 6 10
f 10 5 2
f 10 7 3
f 3 5 10
f 6 11 12
f 12 10 6
f 7 10 12
f 9 6 2
f 9 2 1
f 1 4 9
f 9 11 6
f 3 7 13
f 13 4 1
f 1 3 13
f 7 12 13
f 13 8 4

