# https://github.com/mikedh/trimesh
v -0.00090304 -0.01734984 0.06180084
v -0.00090304 -0.01570977 0.06180084
v -0.00034738 -0.01734984 0.06180084
v -0.00090304 -0.01734984 0.06630799
v -0.00034738 -0.01570977 0.06180084
v -0.00090304 -0.01570977 0.06665133
v -0.00034738 -0.01734984 0.06630799
v -0.00034738 -0.01731500 0.06665133
v -0.00090304 -0.01731355 0.06665133
v -0.00034738 -0.01570977 0.06665133
f 4 7 8
f 8 9 4
f 1 2 5
f 5 3 1
f 3 5 10
f 10 7 3
f 8 7 10
f 10 5 2
f 2 6 10
f 6 9 10
f 10 9 8
f 4 2 1
f 4 6 2
f 4 9 6
f 1 3 4
f 3 7 4

