# https://github.com/mikedh/trimesh
v 0.01491421 0.01035620 0.01974121
v 0.01239441 0.01035620 0.01974121
v 0.01491421 0.00920011 0.01974121
v 0.01491421 0.01035620 0.01674885
v 0.01389494 0.00920000 0.01974121
v 0.01239441 0.01035620 0.01674885
v 0.01365764 0.00938278 0.01674885
v 0.01390925 0.00920000 0.01974121
v 0.01491421 0.00920011 0.01674885
v 0.01389494 0.00920000 0.01674885
f 7 5 2
f 6 7 2
f 3 8 9
f 10 8 5
f 10 9 8
f 5 7 10
f 2 1 6
f 1 4 6
f 2 5 8
f 8 1 2
f 8 3 1
f 1 3 9
f 9 4 1
f 10 6 4
f 7 6 10
f 4 9 10

