# https://github.com/mikedh/trimesh
v 0.01107621 -0.01440014 0.04448848
v 0.01103856 -0.01440014 0.04485533
v 0.01199220 -0.01440080 0.04485533
v 0.01199220 -0.01440080 0.04448848
v 0.00717732 -0.01440014 0.04448848
v 0.00717732 -0.01440014 0.04485533
v 0.01203890 -0.01493222 0.04485533
v 0.01204605 -0.01501386 0.04448848
v 0.00717732 -0.01501386 0.04448848
v 0.00717732 -0.01501386 0.04485533
v 0.01204605 -0.01501386 0.04485533
f 1 2 3
f 1 3 4
f 8 4 7
f 7 11 8
f 7 4 3
f 6 1 5
f 6 2 1
f 5 9 6
f 6 9 10
f 4 9 5
f 5 1 4
f 8 9 4
f 11 9 8
f 10 9 11
f 7 6 10
f 7 3 2
f 2 6 7
f 10 11 7

