# https://github.com/mikedh/trimesh
v 0.02167238 -0.00680593 0.06464551
v 0.02166476 -0.00680593 0.06529453
v 0.02144823 -0.00712600 0.06529453
v 0.02133658 -0.00729057 0.06529453
v 0.02137887 -0.00723798 0.06464551
v 0.01303129 -0.00680593 0.06464551
v 0.01303129 -0.00680593 0.06529453
v 0.02122577 -0.00742752 0.06464551
v 0.02105407 -0.00763862 0.06529453
v 0.01303129 -0.01067051 0.06464551
v 0.01303129 -0.01067051 0.06529453
v 0.02105407 -0.00763862 0.06464551
v 0.02095511 -0.00772791 0.06464551
v 0.01996125 -0.00862151 0.06529453
v 0.01732054 -0.01067051 0.06464551
v 0.01732054 -0.01067051 0.06529453
v 0.01943936 -0.00909063 0.06464551
v 0.01895893 -0.00952230 0.06529453
v 0.01856815 -0.00979620 0.06464551
v 0.01895893 -0.00952230 0.06464551
f 15 19 16
f 18 19 20
f 18 16 19
f 13 14 17
f 17 14 18
f 17 18 20
f 9 13 12
f 9 14 13
f 12 8 9
f 4 8 5
f 4 9 8
f 4 5 1
f 1 2 3
f 3 4 1
f 7 2 1
f 7 1 6
f 11 7 6
f 6 10 11
f 10 15 16
f 16 11 10
f 6 1 17
f 17 10 6
f 17 15 10
f 17 19 15
f 1 5 17
f 20 19 17
f 17 8 12
f 12 13 17
f 5 8 17
f 2 7 3
f 7 11 3
f 11 16 3
f 16 18 3
f 18 14 3
f 14 9 3
f 9 4 3

