# https://github.com/mikedh/trimesh
v 0.00794490 0.01567674 0.03534637
v 0.00861102 0.01567674 0.03534637
v 0.00794490 0.01567674 0.03564590
v 0.00794490 0.01687588 0.03534637
v 0.00861102 0.01567674 0.03564590
v 0.00861102 0.01676835 0.03534637
v 0.00794490 0.01687588 0.03564590
v 0.00845763 0.01687588 0.03534637
v 0.00861102 0.01677222 0.03564590
v 0.00861102 0.01687588 0.03559999
v 0.00846291 0.01687588 0.03564590
v 0.00861102 0.01687588 0.03564453
f 6 8 10
f 11 9 12
f 1 2 5
f 5 3 1
f 7 4 1
f 1 3 7
f 1 4 8
f 8 2 1
f 8 6 2
f 2 6 10
f 10 5 2
f 12 9 10
f 10 9 5
f 4 7 11
f 11 8 4
f 12 10 11
f 11 10 8
f 3 5 11
f 11 7 3
f 5 9 11

