# https://github.com/mikedh/trimesh
v 0.00194632 -0.01735000 0.03833258
v 0.00194632 -0.01735000 0.04588643
v 0.00194632 -0.01649764 0.03833258
v 0.00777934 -0.01735000 0.03833258
v 0.00194632 -0.01649764 0.04588643
v 0.00778015 -0.01735000 0.04588643
v 0.01021045 -0.01649764 0.03833258
v 0.01021045 -0.01703037 0.03833258
v 0.01021045 -0.01649764 0.04588643
v 0.01021045 -0.01703037 0.04588643
f 6 4 8
f 6 8 10
f 1 2 5
f 5 3 1
f 4 2 1
f 4 6 2
f 3 5 9
f 7 3 9
f 1 3 8
f 8 3 7
f 8 4 1
f 10 5 2
f 2 6 10
f 10 9 5
f 7 9 10
f 10 8 7

