# https://github.com/mikedh/trimesh
v 0.00041435 0.00099911 0.06069279
v 0.00011238 0.00130108 0.06069279
v 0.00041435 0.00487953 0.06069279
v 0.00041435 0.00099911 0.06073275
v -0.00090065 0.00231449 0.06660092
v -0.00032849 0.00174207 0.06069279
v -0.00090065 0.00487953 0.06069279
v 0.00041435 0.00487953 0.06956627
v 0.00041435 0.00099987 0.06660266
v 0.00041435 0.00106482 0.06709428
v -0.00090065 0.00241666 0.06722630
v -0.00090065 0.00231449 0.06069279
v -0.00090065 0.00487953 0.06932741
v -0.00032141 0.00487953 0.06949766
v 0.00041435 0.00414340 0.06949766
v 0.00041435 0.00108306 0.06716029
v 0.00041435 0.00114383 0.06737570
v -0.00090065 0.00245883 0.06737570
v -0.00090065 0.00443512 0.06919799
v 0.00041435 0.00312012 0.06919799
v 0.00041435 0.00140478 0.06786645
v -0.00090065 0.00280220 0.06798371
v -0.00090065 0.00355656 0.06872114
v 0.00041435 0.00224194 0.06872114
v 0.00041435 0.00156773 0.06809923
v -0.00090065 0.00288272 0.06809923
v -0.00090065 0.00347223 0.06865339
v 0.00041435 0.00209076 0.06859954
v 0.00041435 0.00204177 0.06855958
f 5 12 6
f 4 9 5
f 5 9 10
f 1 4 2
f 5 6 2
f 2 4 5
f 20 15 19
f 14 15 8
f 13 19 14
f 14 19 15
f 24 20 23
f 20 19 23
f 11 16 17
f 17 18 11
f 10 16 11
f 5 10 11
f 21 18 17
f 21 25 26
f 26 25 29
f 22 21 26
f 18 21 22
f 27 28 24
f 24 23 27
f 29 28 27
f 26 29 27
f 2 3 1
f 2 7 3
f 2 12 7
f 2 6 12
f 14 8 3
f 3 7 14
f 7 13 14
f 3 8 28
f 1 3 28
f 17 16 28
f 28 4 1
f 8 15 28
f 9 4 28
f 28 10 9
f 28 20 24
f 28 16 10
f 28 15 20
f 28 21 17
f 25 21 28
f 28 29 25
f 7 12 27
f 27 12 5
f 27 13 7
f 27 19 13
f 27 22 26
f 5 11 27
f 27 23 19
f 27 11 18
f 18 22 27

