# https://github.com/mikedh/trimesh
v -0.00296999 -0.00642474 0.06473680
v -0.00296999 -0.00587853 0.06473680
v -0.00242556 -0.00642474 0.06473680
v -0.00296999 -0.00642474 0.06932061
v -0.00242556 -0.00587853 0.06473680
v -0.00296999 -0.00587853 0.06903533
v -0.00242556 -0.00642474 0.06942995
v -0.00242556 -0.00592767 0.06926502
v -0.00242556 -0.00587853 0.06924849
v -0.00296999 -0.00616027 0.06921909
v -0.00296999 -0.00610584 0.06919795
v -0.00296519 -0.00587853 0.06903763
v -0.00262532 -0.00587853 0.06919795
f 8 4 7
f 8 9 4
f 6 11 12
f 11 13 12
f 10 13 11
f 9 13 10
f 4 9 10
f 1 2 5
f 5 3 1
f 1 3 4
f 3 7 4
f 3 5 8
f 8 7 3
f 5 9 8
f 12 5 2
f 12 9 5
f 2 6 12
f 12 13 9
f 10 2 1
f 1 4 10
f 10 6 2
f 10 11 6

