# https://github.com/mikedh/trimesh
v 0.02165369 -0.00680556 0.06637380
v 0.02164814 -0.00680556 0.06681450
v 0.02156495 -0.00692921 0.06681450
v 0.02138563 -0.00719435 0.06681450
v 0.02151227 -0.00701445 0.06637380
v 0.01221074 -0.00680556 0.06637380
v 0.01221074 -0.00680556 0.06681450
v 0.02125993 -0.00737984 0.06681450
v 0.02134958 -0.00725443 0.06637380
v 0.01221074 -0.01032043 0.06637380
v 0.01221074 -0.01032043 0.06681450
v 0.02123682 -0.00741337 0.06681450
v 0.02126547 -0.00737774 0.06637380
v 0.01226620 -0.01037422 0.06637380
v 0.01224032 -0.01034942 0.06681450
v 0.02105472 -0.00763834 0.06681450
v 0.02112497 -0.00755171 0.06637380
v 0.01226620 -0.01037422 0.06681450
v 0.01226528 -0.01037352 0.06681450
v 0.01774285 -0.01037422 0.06637380
v 0.02105472 -0.00763834 0.06637380
v 0.02066743 -0.00798661 0.06681450
v 0.02096321 -0.00772078 0.06637380
v 0.01774285 -0.01037422 0.06681450
v 0.01835753 -0.00994386 0.06637380
v 0.01916355 -0.00933848 0.06681450
v 0.01895835 -0.00952258 0.06637380
v 0.01860340 -0.00977129 0.06681450
v 0.01895835 -0.00952258 0.06681450
f 21 17 16
f 15 10 14
f 11 10 15
f 25 24 20
f 25 27 29
f 12 17 13
f 12 16 17
f 29 27 26
f 14 18 19
f 19 15 14
f 24 25 28
f 28 25 29
f 13 9 8
f 8 12 13
f 9 5 8
f 21 16 23
f 23 26 27
f 4 5 1
f 4 8 5
f 22 23 16
f 26 23 22
f 1 2 3
f 3 4 1
f 7 1 6
f 7 2 1
f 6 10 7
f 7 10 11
f 14 20 18
f 20 24 18
f 23 10 6
f 6 1 23
f 23 20 14
f 14 10 23
f 23 17 21
f 1 5 23
f 23 9 13
f 13 17 23
f 23 25 20
f 23 5 9
f 27 25 23
f 2 7 3
f 3 7 11
f 11 15 3
f 3 19 18
f 3 18 24
f 24 28 3
f 29 26 3
f 16 12 3
f 3 22 16
f 15 19 3
f 3 28 29
f 12 8 3
f 8 4 3
f 26 22 3

