# https://github.com/mikedh/trimesh
v 0.00723381 0.01773308 0.03534637
v 0.01405238 0.01295860 0.03534637
v 0.00723381 0.01773308 0.03281949
v 0.00055962 0.01773308 0.03534637
v 0.01414862 0.01289010 0.03534637
v 0.01421546 0.01284426 0.03281949
v 0.01408981 0.01293225 0.03281949
v 0.00055962 0.01773308 0.03281949
v 0.00055962 0.01235053 0.03534637
v 0.01421278 0.01284215 0.03534637
v 0.01419674 0.01282581 0.03534637
v 0.01414461 0.01277365 0.03534637
v 0.01383182 0.01246118 0.03534637
v 0.01372087 0.01235053 0.03281949
v 0.00055962 0.01235053 0.03281949
v 0.01372087 0.01235053 0.03534637
f 7 2 6
f 3 2 7
f 5 10 6
f 6 2 5
f 1 2 3
f 6 10 11
f 11 12 6
f 6 12 13
f 13 14 6
f 16 14 13
f 15 9 4
f 4 8 15
f 3 8 1
f 1 8 4
f 14 8 3
f 14 7 6
f 14 15 8
f 3 7 14
f 14 16 9
f 9 15 14
f 9 16 13
f 4 9 13
f 10 5 13
f 13 1 4
f 13 11 10
f 13 5 2
f 2 1 13
f 12 11 13

