# https://github.com/mikedh/trimesh
v 0.00360645 -0.01989461 0.01663736
v 0.00360645 -0.02027270 0.01663736
v 0.00360645 -0.01989461 0.01630003
v -0.00436470 -0.01989461 0.01663736
v 0.00360645 -0.02027270 0.01630003
v 0.00342465 -0.02040000 0.01663736
v -0.00436470 -0.01989461 0.01630003
v -0.00436470 -0.02040000 0.01663736
v 0.00342465 -0.02040000 0.01630003
v -0.00436470 -0.02040000 0.01630003
f 8 2 1
f 8 1 4
f 6 2 8
f 4 1 7
f 1 3 7
f 7 8 4
f 10 8 7
f 6 8 9
f 9 8 10
f 5 7 3
f 10 7 5
f 5 9 10
f 1 2 5
f 5 3 1
f 5 2 6
f 6 9 5

