# https://github.com/mikedh/trimesh
v 0.01177023 -0.01455664 0.05870362
v 0.00998079 -0.01580907 0.05870362
v 0.00778388 -0.01734672 0.05720329
v 0.01177023 -0.01455664 0.05720329
v -0.00436470 -0.01455664 0.05870362
v 0.00777914 -0.01735000 0.05870362
v 0.00777914 -0.01735000 0.05720329
v -0.00436470 -0.01455664 0.05720329
v -0.00436470 -0.01735000 0.05870362
v -0.00436470 -0.01735000 0.05720329
f 1 3 4
f 2 3 1
f 6 3 2
f 7 3 6
f 9 2 1
f 9 1 5
f 6 2 9
f 6 9 7
f 7 9 10
f 8 7 10
f 8 4 3
f 3 7 8
f 5 1 8
f 1 4 8
f 8 9 5
f 10 9 8

