# https://github.com/mikedh/trimesh
v 0.02251677 0.00548586 0.06202405
v 0.02251677 0.00548586 0.06199991
v 0.02251279 0.00548586 0.06229804
v 0.02263494 0.00530496 0.06229804
v 0.02263494 0.00530496 0.06199991
v 0.00925389 0.00548586 0.06199991
v 0.00925389 0.00548586 0.06229804
v 0.02275178 0.00507752 0.06229804
v 0.02277435 0.00503349 0.06199991
v 0.00925389 0.00495097 0.06199991
v 0.00925389 0.00495097 0.06229804
v 0.02281286 0.00495835 0.06229804
v 0.02281551 0.00495097 0.06199991
v 0.02281551 0.00495097 0.06229804
f 3 4 1
f 8 9 5
f 5 4 8
f 9 8 12
f 12 14 13
f 13 9 12
f 11 10 13
f 13 14 11
f 6 10 11
f 11 7 6
f 13 10 9
f 9 10 6
f 6 2 9
f 2 5 9
f 1 2 6
f 6 7 1
f 1 7 3
f 1 5 2
f 1 4 5
f 3 7 12
f 7 11 12
f 12 11 14
f 12 4 3
f 12 8 4

