# https://github.com/mikedh/trimesh
v 0.00058537 -0.00506999 0.06959993
v 0.00005237 -0.00452901 0.06949996
v 0.00005237 -0.00551251 0.06959147
v 0.00005237 -0.00560242 0.06959963
v 0.00058537 -0.00595956 0.06959993
v 0.00058537 -0.00403927 0.06950389
v 0.00005237 -0.00450541 0.06949755
v 0.00058537 -0.00397247 0.06949755
v 0.00005237 -0.00595956 0.06959963
v 0.00058537 -0.00595956 0.06651458
v 0.00005237 -0.00428490 0.06943322
v 0.00058537 -0.00392073 0.06948244
v 0.00005237 -0.00595956 0.06651458
v 0.00058537 -0.00082809 0.06651458
v 0.00058537 -0.00366557 0.06940785
v 0.00058537 -0.00357365 0.06938097
v 0.00005237 -0.00348223 0.06919795
v 0.00005237 -0.00136153 0.06651458
v 0.00058537 -0.00082809 0.06660005
v 0.00058537 -0.00330793 0.06930305
v 0.00005237 -0.00266700 0.06875550
v 0.00058537 -0.00294979 0.06919795
v 0.00058537 -0.00221795 0.06880111
v 0.00005237 -0.00136153 0.06660005
v 0.00058537 -0.00085371 0.06687427
v 0.00005237 -0.00137208 0.06671753
v 0.00005237 -0.00138464 0.06685223
v 0.00005237 -0.00260421 0.06872107
v 0.00058537 -0.00207077 0.06872107
v 0.00058537 -0.00085672 0.06690538
v 0.00005237 -0.00138514 0.06685525
v 0.00058537 -0.00085823 0.06691535
v 0.00005237 -0.00258412 0.06870537
v 0.00058537 -0.00185579 0.06854742
v 0.00005237 -0.00243544 0.06858547
v 0.00005237 -0.00143687 0.06713128
v 0.00058537 -0.00088887 0.06707813
v 0.00058537 -0.00169757 0.06840275
v 0.00058537 -0.00166391 0.06837195
v 0.00005237 -0.00217274 0.06834477
v 0.00005237 -0.00150569 0.06737652
v 0.00058537 -0.00097275 0.06737652
v 0.00058537 -0.00158756 0.06830188
v 0.00005237 -0.00208434 0.06826322
v 0.00005237 -0.00154336 0.06745504
v 0.00058537 -0.00106065 0.06755954
v 0.00005237 -0.00206424 0.06824238
v 0.00058537 -0.00139669 0.06809984
v 0.00005237 -0.00159058 0.06755319
v 0.00058537 -0.00110184 0.06764501
v 0.00005237 -0.00161167 0.06759699
v 0.00005237 -0.00192963 0.06809984
v 0.00058537 -0.00134345 0.06802373
v 0.00005237 -0.00190552 0.06806541
v 0.00058537 -0.00113047 0.06769423
v 0.00005237 -0.00162272 0.06761601
v 0.00058537 -0.00122340 0.06785128
v 0.00005237 -0.00178949 0.06789900
v 0.00005237 -0.00167496 0.06770481
f 3 4 1
f 3 1 2
f 2 1 6
f 6 8 2
f 16 17 11
f 17 22 23
f 20 17 16
f 20 22 17
f 12 11 8
f 2 8 7
f 8 11 7
f 17 23 21
f 21 23 29
f 29 28 21
f 33 28 29
f 29 35 33
f 16 11 15
f 11 12 15
f 40 43 44
f 34 35 29
f 42 37 41
f 41 37 36
f 39 40 35
f 43 40 39
f 31 36 32
f 32 36 37
f 58 57 55
f 53 57 58
f 46 51 50
f 47 43 48
f 48 52 47
f 44 43 47
f 35 34 38
f 38 39 35
f 26 19 24
f 58 55 59
f 54 53 58
f 48 53 54
f 54 52 48
f 45 46 42
f 45 42 41
f 56 59 55
f 56 55 50
f 50 51 56
f 51 46 49
f 46 45 49
f 27 25 19
f 19 26 27
f 30 25 27
f 27 32 30
f 31 32 27
f 4 5 1
f 9 5 4
f 14 10 13
f 13 18 14
f 10 5 13
f 13 5 9
f 14 18 19
f 18 24 19
f 25 10 14
f 1 5 25
f 16 15 25
f 25 6 1
f 25 5 10
f 25 20 16
f 25 53 48
f 8 6 25
f 29 23 25
f 25 32 37
f 25 23 22
f 22 20 25
f 25 12 8
f 48 43 25
f 25 34 29
f 25 15 12
f 14 19 25
f 37 42 25
f 43 39 25
f 50 55 25
f 25 46 50
f 30 32 25
f 25 38 34
f 25 55 57
f 57 53 25
f 42 46 25
f 39 38 25
f 2 7 27
f 18 13 27
f 28 33 27
f 9 4 27
f 27 13 9
f 27 3 2
f 4 3 27
f 27 54 58
f 27 11 17
f 27 40 44
f 17 21 27
f 27 7 11
f 27 24 18
f 41 36 27
f 27 21 28
f 27 33 35
f 35 40 27
f 44 47 27
f 27 36 31
f 51 49 27
f 58 59 27
f 27 47 52
f 27 26 24
f 27 45 41
f 52 54 27
f 27 56 51
f 59 56 27
f 27 49 45

