# https://github.com/mikedh/trimesh
v 0.01111041 0.01567663 0.03564552
v 0.01077811 0.01525613 0.03564590
v 0.01111041 0.01525613 0.03564552
v 0.01111041 0.01567663 0.03559999
v 0.01063178 0.01567663 0.03564532
v 0.01063178 0.01535850 0.03564590
v 0.01063178 0.01525613 0.03564590
v 0.01111041 0.01525613 0.03559999
v 0.01077090 0.01525613 0.03534637
v 0.01063178 0.01535356 0.03534637
v 0.01063178 0.01567663 0.03559999
v 0.01063178 0.01525613 0.03534637
f 6 1 5
f 6 2 1
f 1 2 3
f 2 6 7
f 9 10 4
f 4 8 9
f 10 11 4
f 12 10 9
f 4 3 8
f 1 3 4
f 4 11 5
f 5 1 4
f 9 8 12
f 12 3 2
f 8 3 12
f 2 7 12
f 12 7 6
f 12 6 5
f 5 11 12
f 12 11 10

