# https://github.com/mikedh/trimesh
v -0.00138895 -0.01674015 0.06811891
v -0.00198481 -0.01674015 0.06811891
v -0.00138895 -0.01675543 0.06810093
v -0.00138895 -0.01674015 0.06646464
v -0.00198481 -0.01675543 0.06810093
v -0.00198481 -0.01674015 0.06646464
v -0.00198481 -0.01676432 0.06808749
v -0.00138895 -0.01680072 0.06803211
v -0.00138895 -0.01732947 0.06646464
v -0.00198481 -0.01732947 0.06646464
v -0.00198481 -0.01683153 0.06798530
v -0.00138895 -0.01688167 0.06790903
v -0.00138895 -0.01730870 0.06673784
v -0.00198481 -0.01730674 0.06674918
v -0.00198481 -0.01688011 0.06791130
v -0.00198481 -0.01688316 0.06790660
v -0.00198481 -0.01695488 0.06779615
v -0.00138895 -0.01695459 0.06779664
v -0.00138895 -0.01729064 0.06687809
v -0.00198481 -0.01729399 0.06684829
v -0.00198481 -0.01697161 0.06776522
v -0.00138895 -0.01695886 0.06778887
v -0.00138895 -0.01728695 0.06690675
v -0.00198481 -0.01728568 0.06691242
v -0.00198481 -0.01697893 0.06775065
v -0.00138895 -0.01697028 0.06776765
v -0.00138895 -0.01721645 0.06719226
v -0.00198481 -0.01721581 0.06719421
v -0.00138895 -0.01698753 0.06773332
v -0.00198481 -0.01700386 0.06770093
v -0.00138895 -0.01710649 0.06749186
v -0.00198481 -0.01710649 0.06749186
v -0.00138895 -0.01701949 0.06766951
v -0.00198481 -0.01703403 0.06764069
v -0.00138895 -0.01708260 0.06754239
v -0.00198481 -0.01707268 0.06756328
v -0.00138895 -0.01707366 0.06756101
v -0.00138895 -0.01707626 0.06755566
f 28 27 31
f 28 31 32
f 13 10 9
f 24 23 27
f 24 27 28
f 21 22 17
f 23 24 20
f 3 7 8
f 11 15 12
f 12 8 11
f 11 8 7
f 5 7 3
f 12 17 18
f 18 17 22
f 12 15 16
f 16 17 12
f 23 20 19
f 19 20 13
f 10 13 14
f 13 20 14
f 35 36 32
f 35 32 31
f 36 37 33
f 38 37 36
f 36 35 38
f 36 33 34
f 26 22 21
f 30 34 33
f 29 30 33
f 30 29 25
f 25 29 26
f 25 26 21
f 1 4 6
f 2 1 6
f 10 6 4
f 10 4 9
f 5 1 2
f 5 3 1
f 29 4 1
f 9 4 29
f 29 31 27
f 23 19 29
f 1 3 29
f 27 23 29
f 29 13 9
f 29 8 12
f 12 18 29
f 3 8 29
f 29 35 31
f 29 18 22
f 29 19 13
f 37 38 29
f 29 33 37
f 29 38 35
f 22 26 29
f 2 6 25
f 6 10 25
f 25 24 28
f 28 32 25
f 10 14 25
f 15 11 25
f 21 17 25
f 25 16 15
f 32 36 25
f 25 5 2
f 25 20 24
f 25 11 7
f 7 5 25
f 17 16 25
f 25 14 20
f 36 34 25
f 34 30 25

