# https://github.com/mikedh/trimesh
v 0.01150018 -0.01513060 0.03559999
v 0.01150018 -0.01513060 0.03560816
v 0.01150018 -0.01474553 0.03533768
v 0.01205627 -0.01513060 0.03559999
v 0.01152081 -0.01513060 0.03560816
v 0.01150018 -0.01449143 0.03560816
v 0.01150018 -0.01449143 0.03533712
v 0.01186296 -0.01449143 0.03533712
v 0.01200031 -0.01449143 0.03559999
v 0.01205627 -0.01513060 0.03560564
v 0.01193384 -0.01449143 0.03560816
v 0.01200031 -0.01449143 0.03560784
f 3 4 1
f 8 9 4
f 8 3 7
f 4 3 8
f 12 11 10
f 5 10 11
f 6 7 3
f 1 2 3
f 3 2 6
f 11 7 6
f 11 8 7
f 11 12 9
f 9 8 11
f 9 12 10
f 4 9 10
f 5 2 1
f 1 4 5
f 4 10 5
f 6 2 5
f 5 11 6

