# https://github.com/mikedh/trimesh
v -0.00072564 0.01235000 0.04913818
v -0.00072564 0.01235020 0.04871636
v 0.00056350 0.01235020 0.04871636
v 0.00056350 0.01235000 0.05045800
v -0.00072564 0.01235000 0.05432686
v -0.00072564 0.01440113 0.04871636
v 0.00056350 0.01440113 0.04871636
v 0.00056350 0.01235000 0.05432686
v -0.00072564 0.01440113 0.05432686
v 0.00056350 0.01440113 0.05432686
f 2 3 1
f 1 3 4
f 7 2 6
f 3 2 7
f 9 2 1
f 1 5 9
f 6 2 9
f 9 7 6
f 10 7 9
f 3 7 8
f 8 4 3
f 8 7 10
f 8 9 5
f 10 9 8
f 8 5 1
f 1 4 8

