# https://github.com/mikedh/trimesh
v -0.00361228 -0.00896872 0.06959970
v -0.00361228 -0.00896872 0.06662378
v -0.00436470 -0.00896872 0.06959970
v -0.00361228 -0.01239408 0.06959970
v -0.00436470 -0.00896872 0.06662378
v -0.00361228 -0.01252426 0.06662378
v -0.00436470 -0.01239199 0.06959970
v -0.00388921 -0.01252426 0.06959096
v -0.00361228 -0.01252426 0.06959096
v -0.00436470 -0.01252426 0.06662378
v -0.00436470 -0.01252426 0.06959067
f 9 4 8
f 7 11 8
f 8 4 7
f 1 2 5
f 3 1 5
f 9 2 1
f 6 2 9
f 1 4 9
f 7 1 3
f 7 4 1
f 6 9 10
f 10 9 8
f 8 11 10
f 3 5 10
f 10 7 3
f 11 7 10
f 10 5 2
f 10 2 6

