# https://github.com/mikedh/trimesh
v 0.01057937 -0.01508614 0.05590888
v 0.01057937 -0.01455637 0.05590888
v 0.01124556 -0.01508614 0.05590888
v 0.01057937 -0.01508614 0.05648106
v 0.01057937 -0.01455637 0.05648106
v 0.01124556 -0.01455637 0.05590888
v 0.01124556 -0.01508614 0.05642359
v 0.01118158 -0.01508614 0.05648106
v 0.01124556 -0.01455637 0.05648106
v 0.01124556 -0.01492367 0.05648106
f 8 7 10
f 1 2 6
f 6 3 1
f 5 2 1
f 1 4 5
f 5 6 2
f 9 6 5
f 1 3 7
f 7 4 1
f 7 8 4
f 4 8 10
f 9 5 10
f 10 5 4
f 3 6 10
f 10 6 9
f 10 7 3

