# https://github.com/mikedh/trimesh
v 0.00138817 -0.00002530 0.06537590
v 0.00138817 -0.00002530 0.06356607
v 0.00107549 -0.00033797 0.06537590
v 0.00138817 -0.00236028 0.06537590
v 0.00073091 -0.00068264 0.06356607
v 0.00138817 -0.00236028 0.06356607
v 0.00058537 -0.00082823 0.06537590
v 0.00058537 -0.00236028 0.06537590
v 0.00058537 -0.00082823 0.06356607
v 0.00058537 -0.00236028 0.06356607
f 1 2 3
f 7 3 5
f 5 9 7
f 5 3 2
f 8 4 1
f 8 3 7
f 1 3 8
f 9 8 7
f 10 8 9
f 1 4 6
f 6 2 1
f 4 8 6
f 6 8 10
f 10 9 5
f 5 6 10
f 2 6 5

