# https://github.com/mikedh/trimesh
v 0.00363752 0.00919385 0.02580000
v 0.00363752 0.00919385 0.02779413
v 0.00363752 0.00958413 0.02580000
v 0.00602390 0.00919385 0.02580000
v 0.00363752 0.00919507 0.02779981
v 0.00495405 0.00919385 0.02779981
v 0.00363752 0.00958413 0.02736304
v 0.00529603 0.00958413 0.02580000
v 0.00602390 0.00925066 0.02580000
v 0.00602390 0.00919385 0.02779981
v 0.00363775 0.00958413 0.02779981
v 0.00529603 0.00958413 0.02779981
v 0.00602390 0.00925066 0.02583426
v 0.00602390 0.00924910 0.02779981
f 2 6 5
f 5 11 7
f 12 14 13
f 1 4 10
f 10 2 1
f 6 2 10
f 7 8 3
f 12 8 7
f 7 11 12
f 7 3 1
f 1 2 7
f 7 2 5
f 1 3 9
f 9 4 1
f 3 8 9
f 12 11 14
f 5 6 14
f 14 11 5
f 6 10 14
f 13 10 4
f 4 9 13
f 13 14 10
f 13 8 12
f 13 9 8

