# https://github.com/mikedh/trimesh
v 0.01096706 -0.01449143 0.03560816
v 0.01096706 -0.01449143 0.03533712
v 0.01030094 -0.01449143 0.03560816
v 0.01096706 -0.01513060 0.03560816
v 0.01096706 -0.01511871 0.03533847
v 0.01030094 -0.01513060 0.03533712
v 0.01030094 -0.01449143 0.03533712
v 0.01030094 -0.01513060 0.03560816
v 0.01096706 -0.01513060 0.03559999
v 0.01095004 -0.01513060 0.03533850
f 2 6 7
f 5 6 2
f 6 5 10
f 9 10 5
f 8 4 1
f 8 1 3
f 3 1 7
f 1 2 7
f 7 8 3
f 6 8 7
f 1 4 9
f 9 2 1
f 9 5 2
f 4 8 9
f 9 8 6
f 6 10 9

