# https://github.com/mikedh/trimesh
v 0.00316128 -0.00249749 0.06959999
v 0.00266986 -0.00298889 0.06959999
v 0.00266986 -0.01237989 0.06959933
v 0.00316128 -0.01238839 0.06959867
v 0.00316128 -0.00139907 0.06949704
v 0.00266986 -0.00189046 0.06949704
v 0.00266986 -0.01256353 0.06958937
v 0.00316128 -0.01264344 0.06958339
v 0.00316128 -0.00056760 0.06925328
v 0.00266986 -0.00086686 0.06919682
v 0.00266986 -0.01272846 0.06957741
v 0.00316128 -0.01300052 0.06955748
v 0.00316128 -0.00037546 0.06919682
v 0.00316128 0.00002072 0.06900620
v 0.00266986 0.00002072 0.06873919
v 0.00266986 -0.01375547 0.06950036
v 0.00316128 -0.01375717 0.06950036
v 0.00316128 0.00002072 0.06281451
v 0.00266986 0.00002072 0.06281451
v 0.00266986 -0.01407343 0.06943527
v 0.00266986 -0.01416695 0.06941601
v 0.00316128 -0.01412445 0.06942398
v 0.00316128 -0.01735000 0.06281451
v 0.00266986 -0.01735000 0.06281451
v 0.00266986 -0.01502563 0.06922406
v 0.00316128 -0.01510555 0.06920612
v 0.00316128 -0.01735000 0.06630688
v 0.00266986 -0.01735000 0.06630688
v 0.00266986 -0.01520586 0.06918221
v 0.00316128 -0.01521267 0.06918022
v 0.00316128 -0.01731769 0.06668348
v 0.00266986 -0.01731089 0.06673396
v 0.00266986 -0.01558334 0.06903609
v 0.00316128 -0.01536570 0.06912177
v 0.00316128 -0.01729389 0.06686680
v 0.00266986 -0.01729219 0.06687145
v 0.00316128 -0.01549832 0.06906930
v 0.00266986 -0.01568026 0.06899490
v 0.00316128 -0.01564115 0.06901217
v 0.00316128 -0.01722077 0.06717632
v 0.00266986 -0.01721737 0.06718429
v 0.00266986 -0.01576018 0.06895040
v 0.00316128 -0.01573297 0.06896568
v 0.00316128 -0.01714596 0.06738289
v 0.00266986 -0.01710175 0.06749713
v 0.00266986 -0.01608834 0.06873587
v 0.00316128 -0.01619377 0.06866679
v 0.00316128 -0.01603903 0.06876775
v 0.00316128 -0.01709155 0.06752170
v 0.00266986 -0.01706774 0.06757086
v 0.00266986 -0.01621247 0.06865351
v 0.00316128 -0.01628558 0.06859705
v 0.00266986 -0.01695552 0.06779137
v 0.00266986 -0.01701843 0.06766916
v 0.00316128 -0.01693342 0.06782724
v 0.00266986 -0.01631449 0.06857048
v 0.00316128 -0.01660185 0.06826827
v 0.00266986 -0.01690961 0.06786643
v 0.00316128 -0.01673788 0.06811949
v 0.00266986 -0.01675488 0.06810022
v 0.00266986 -0.01682459 0.06799528
v 0.00266986 -0.01659335 0.06827757
v 0.00266986 -0.01669027 0.06817528
f 3 4 1
f 3 1 2
f 2 1 6
f 10 14 15
f 5 6 1
f 9 10 6
f 6 5 9
f 4 3 7
f 33 38 39
f 39 38 43
f 14 10 13
f 10 9 13
f 16 17 12
f 29 33 34
f 34 30 29
f 20 17 16
f 20 21 17
f 17 21 22
f 57 63 59
f 31 28 27
f 36 35 40
f 40 41 36
f 16 12 11
f 4 7 8
f 7 11 8
f 8 11 12
f 37 33 39
f 37 34 33
f 26 25 29
f 29 30 26
f 21 25 26
f 26 22 21
f 47 51 52
f 42 43 38
f 52 51 56
f 56 57 52
f 50 49 54
f 50 45 49
f 49 45 44
f 44 45 41
f 44 41 40
f 32 31 35
f 35 36 32
f 28 31 32
f 43 42 48
f 48 42 47
f 51 47 46
f 47 42 46
f 63 57 62
f 57 56 62
f 55 58 53
f 49 55 53
f 54 49 53
f 60 55 59
f 59 63 60
f 61 58 55
f 55 60 61
f 19 18 23
f 23 24 19
f 19 14 18
f 15 14 19
f 28 24 23
f 23 27 28
f 23 18 48
f 1 4 48
f 48 27 23
f 48 5 1
f 18 14 48
f 40 35 48
f 39 43 48
f 48 47 52
f 48 31 27
f 14 13 48
f 59 55 48
f 48 9 5
f 4 8 48
f 48 26 30
f 17 22 48
f 48 57 59
f 48 13 9
f 48 12 17
f 30 34 48
f 48 37 39
f 48 55 49
f 52 57 48
f 35 31 48
f 48 8 12
f 34 37 48
f 22 26 48
f 48 44 40
f 49 44 48
f 61 19 24
f 61 3 2
f 61 10 15
f 15 19 61
f 2 6 61
f 29 25 61
f 24 28 61
f 61 7 3
f 6 10 61
f 38 33 61
f 16 11 61
f 41 45 61
f 61 36 41
f 61 33 29
f 61 20 16
f 51 46 61
f 21 20 61
f 61 25 21
f 61 42 38
f 63 62 61
f 61 50 54
f 61 11 7
f 28 32 61
f 61 56 51
f 54 53 61
f 45 50 61
f 61 32 36
f 61 46 42
f 61 62 56
f 61 53 58
f 61 60 63

