# https://github.com/mikedh/trimesh
v -0.00361866 0.00919381 0.03019932
v -0.00361866 0.00919381 0.02580000
v -0.00436470 0.00919381 0.03019932
v -0.00361866 0.00476484 0.03019932
v -0.00436470 0.00919381 0.02580000
v -0.00361866 0.00583826 0.02580000
v -0.00436470 0.00507395 0.03019932
v -0.00436470 0.00507395 0.02680002
v -0.00361866 0.00476527 0.02679873
v -0.00436470 0.00614694 0.02580000
v -0.00361866 0.00565314 0.02582283
v -0.00361866 0.00480169 0.02654119
v -0.00436470 0.00511080 0.02654119
v -0.00436470 0.00586948 0.02583446
v -0.00361866 0.00556037 0.02583446
v -0.00361866 0.00480429 0.02653473
v -0.00436470 0.00521788 0.02630001
v -0.00436470 0.00561066 0.02593437
v -0.00361866 0.00530155 0.02593437
v -0.00361866 0.00490877 0.02630001
v -0.00436470 0.00538826 0.02609329
v -0.00361866 0.00511643 0.02606659
v -0.00361866 0.00507915 0.02609329
f 4 7 8
f 4 8 9
f 12 9 8
f 22 23 21
f 21 18 22
f 22 18 19
f 13 12 8
f 11 10 6
f 14 15 19
f 19 18 14
f 14 11 15
f 10 11 14
f 16 13 17
f 17 20 16
f 12 13 16
f 7 4 1
f 7 1 3
f 3 1 5
f 1 2 5
f 10 5 2
f 2 6 10
f 20 17 21
f 21 23 20
f 14 7 3
f 3 5 14
f 21 17 14
f 14 8 7
f 5 10 14
f 14 18 21
f 14 13 8
f 17 13 14
f 1 4 16
f 16 2 1
f 16 6 2
f 4 9 16
f 16 20 23
f 23 22 16
f 9 12 16
f 19 15 16
f 16 22 19
f 16 11 6
f 15 11 16

