# https://github.com/mikedh/trimesh
v 0.01357566 0.00944635 0.01630000
v 0.01389510 0.00920000 0.01630000
v 0.01357566 0.00944635 0.01674881
v 0.01357566 0.01329220 0.01630000
v 0.01491421 0.00920040 0.01630000
v 0.01389510 0.00920000 0.01674881
v 0.01357566 0.01329220 0.01674881
v 0.01491421 0.01235487 0.01630000
v 0.01491421 0.00920040 0.01674881
v 0.01491421 0.01235487 0.01674881
f 8 2 1
f 1 4 8
f 5 2 8
f 5 8 9
f 9 8 10
f 7 4 1
f 1 3 7
f 7 8 4
f 10 8 7
f 6 9 10
f 10 7 6
f 6 7 3
f 1 2 6
f 6 3 1
f 6 2 5
f 5 9 6

