# https://github.com/mikedh/trimesh
v -0.00436376 -0.01091788 0.02578671
v -0.00436376 -0.01091788 0.02787228
v -0.00436376 -0.01017537 0.02578671
v 0.00212260 -0.01091788 0.02578671
v -0.00436376 -0.01017537 0.02787228
v 0.00363495 -0.01091788 0.02787228
v 0.00206396 -0.01017537 0.02578671
v 0.00529768 -0.01091788 0.02580019
v 0.00363495 -0.01017537 0.02787228
v 0.00529768 -0.01091788 0.02779980
v 0.00504421 -0.01017537 0.02580019
v 0.00504421 -0.01017537 0.02779980
f 8 4 7
f 7 11 8
f 9 10 12
f 10 9 6
f 8 11 10
f 10 11 12
f 1 2 5
f 5 3 1
f 7 4 1
f 1 3 7
f 12 11 9
f 3 5 9
f 9 7 3
f 11 7 9
f 1 4 6
f 6 2 1
f 6 4 8
f 8 10 6
f 6 5 2
f 6 9 5

