# https://github.com/mikedh/trimesh
v -0.00436470 -0.00896837 0.05870362
v -0.00436470 -0.00814806 0.05870362
v -0.00361228 -0.00896837 0.05870362
v -0.00436470 -0.00896837 0.06959999
v -0.00361228 -0.00814806 0.05870362
v -0.00436470 -0.00814806 0.06958826
v -0.00361228 -0.00896837 0.06959999
v -0.00436470 -0.00823671 0.06959999
v -0.00361228 -0.00814806 0.06959999
v -0.00401427 -0.00814806 0.06959999
f 6 8 10
f 1 2 5
f 5 3 1
f 1 3 7
f 7 4 1
f 3 5 7
f 7 5 9
f 8 2 1
f 1 4 8
f 8 6 2
f 10 5 2
f 9 5 10
f 2 6 10
f 4 7 10
f 10 7 9
f 10 8 4

