# https://github.com/mikedh/trimesh
v 0.01204605 -0.01501386 0.05387636
v 0.01199449 -0.01442465 0.05387636
v 0.00864769 -0.01501386 0.05387636
v 0.01204605 -0.01501386 0.04485537
v 0.01199216 -0.01440080 0.05387636
v 0.01199216 -0.01440080 0.04485537
v 0.00864769 -0.01440014 0.05387636
v 0.00864769 -0.01501386 0.04485537
v 0.01010670 -0.01440014 0.05387636
v 0.01103845 -0.01440014 0.04485537
v 0.00864769 -0.01440014 0.04485537
f 1 4 2
f 5 10 9
f 6 10 5
f 5 2 6
f 6 2 4
f 8 4 1
f 8 1 3
f 11 8 3
f 3 7 11
f 3 1 9
f 9 7 3
f 1 2 9
f 9 2 5
f 9 11 7
f 10 11 9
f 4 8 6
f 8 11 6
f 6 11 10

