# https://github.com/mikedh/trimesh
v 0.00316128 -0.01073323 0.06844850
v 0.00316128 -0.01073323 0.06644975
v 0.00275814 -0.01073323 0.06844850
v 0.00316128 -0.01643186 0.06844850
v 0.00266981 -0.01073323 0.06644975
v 0.00316128 -0.01733243 0.06644975
v 0.00266981 -0.01073323 0.06819591
v 0.00266981 -0.01073452 0.06844850
v 0.00289257 -0.01643250 0.06844850
v 0.00316128 -0.01647385 0.06840448
v 0.00266981 -0.01733113 0.06644975
v 0.00316128 -0.01732726 0.06656655
v 0.00266981 -0.01732209 0.06666105
v 0.00266981 -0.01643250 0.06844850
v 0.00266981 -0.01657657 0.06829628
v 0.00316128 -0.01660177 0.06826909
v 0.00316128 -0.01732338 0.06665185
v 0.00316128 -0.01732144 0.06666770
v 0.00316128 -0.01731627 0.06670878
v 0.00316128 -0.01730723 0.06677863
v 0.00316128 -0.01729625 0.06686315
v 0.00266981 -0.01731434 0.06672053
v 0.00266981 -0.01664699 0.06822174
v 0.00316128 -0.01671030 0.06815405
v 0.00266981 -0.01729495 0.06686785
v 0.00316128 -0.01722066 0.06717717
v 0.00266981 -0.01722066 0.06717874
v 0.00266981 -0.01670642 0.06815874
v 0.00316128 -0.01671417 0.06814974
v 0.00316128 -0.01721872 0.06718343
v 0.00316128 -0.01710631 0.06749197
v 0.00266981 -0.01710631 0.06749197
v 0.00266981 -0.01674195 0.06811628
v 0.00266981 -0.01675487 0.06810083
v 0.00316128 -0.01675487 0.06810083
v 0.00316128 -0.01709727 0.06751114
v 0.00266981 -0.01710115 0.06750312
v 0.00266981 -0.01685759 0.06794548
v 0.00316128 -0.01685113 0.06795527
v 0.00316128 -0.01708952 0.06752719
v 0.00266981 -0.01708758 0.06753090
v 0.00266981 -0.01691186 0.06786272
v 0.00316128 -0.01686987 0.06792690
v 0.00316128 -0.01707078 0.06756495
v 0.00266981 -0.01706755 0.06757140
v 0.00266981 -0.01707724 0.06755184
v 0.00266981 -0.01694093 0.06781812
v 0.00316128 -0.01693189 0.06783162
v 0.00266981 -0.01701845 0.06766962
v 0.00316128 -0.01695579 0.06779405
v 0.00266981 -0.01695191 0.06780031
v 0.00316128 -0.01695191 0.06780070
v 0.00266981 -0.01696096 0.06778388
v 0.00266981 -0.01695644 0.06779268
f 3 7 8
f 13 11 6
f 29 34 35
f 13 20 21
f 21 27 25
f 26 27 21
f 32 27 31
f 9 10 4
f 28 29 24
f 24 16 28
f 28 16 23
f 22 21 25
f 13 21 22
f 12 13 6
f 12 17 13
f 19 20 13
f 30 27 26
f 30 31 27
f 35 34 39
f 15 9 14
f 10 9 15
f 15 16 10
f 23 16 15
f 34 29 33
f 29 28 33
f 13 17 18
f 18 19 13
f 45 40 44
f 38 42 43
f 43 39 38
f 38 39 34
f 52 54 50
f 37 36 40
f 31 36 37
f 32 31 37
f 49 44 50
f 49 45 44
f 54 52 51
f 41 37 40
f 50 54 53
f 53 49 50
f 47 48 43
f 43 42 47
f 52 48 47
f 47 51 52
f 40 45 46
f 46 41 40
f 11 2 6
f 5 2 11
f 3 2 5
f 1 2 3
f 5 7 3
f 9 8 14
f 9 4 1
f 1 3 9
f 9 3 8
f 6 2 48
f 48 2 1
f 1 4 48
f 50 44 48
f 26 21 48
f 4 10 48
f 48 29 35
f 48 16 24
f 48 30 26
f 24 29 48
f 48 21 20
f 48 12 6
f 20 19 48
f 48 52 50
f 10 16 48
f 17 12 48
f 35 39 48
f 48 18 17
f 31 30 48
f 48 39 43
f 19 18 48
f 44 40 48
f 48 36 31
f 40 36 48
f 5 11 46
f 46 7 5
f 14 8 46
f 8 7 46
f 11 13 46
f 46 27 32
f 46 15 14
f 46 38 34
f 25 27 46
f 34 33 46
f 46 22 25
f 46 28 23
f 13 22 46
f 46 47 42
f 23 15 46
f 46 33 28
f 32 37 46
f 42 38 46
f 54 51 46
f 45 49 46
f 46 53 54
f 37 41 46
f 49 53 46
f 51 47 46

