# https://github.com/mikedh/trimesh
v 0.01827132 -0.01000426 0.06315475
v 0.01740312 -0.01061208 0.06315475
v 0.01827132 -0.01000426 0.06266355
v 0.01289962 -0.01000426 0.06315475
v 0.01731950 -0.01067044 0.06315475
v 0.01731950 -0.01067044 0.06266355
v 0.01764239 -0.01044453 0.06266355
v 0.01289962 -0.01000426 0.06266355
v 0.01289962 -0.01067044 0.06315475
v 0.01289962 -0.01067044 0.06266355
f 2 3 1
f 6 2 5
f 3 2 7
f 2 6 7
f 9 2 1
f 9 1 4
f 5 2 9
f 4 1 8
f 1 3 8
f 8 9 4
f 10 9 8
f 5 9 6
f 6 9 10
f 7 8 3
f 10 8 7
f 7 6 10

