# https://github.com/mikedh/trimesh
v 0.00138839 -0.01735000 0.06026352
v 0.00364397 -0.01735000 0.06026352
v 0.00138839 -0.01735000 0.06069404
v 0.00138839 -0.00002689 0.06026352
v 0.00364397 -0.01735000 0.06069404
v 0.00364397 -0.00700000 0.06026352
v 0.00138839 -0.00429305 0.06069404
v 0.00138994 -0.00002519 0.06069404
v 0.00139281 0.00002072 0.06069404
v 0.00139281 0.00002072 0.06026352
v 0.00364397 -0.00702721 0.06069404
v 0.00363514 0.00002072 0.06026352
v 0.00363514 0.00002072 0.06069404
f 9 10 4
f 4 7 8
f 9 4 8
f 12 13 6
f 11 6 13
f 5 3 1
f 1 2 5
f 1 3 7
f 7 4 1
f 13 12 10
f 13 10 9
f 6 2 1
f 1 4 6
f 6 4 10
f 10 12 6
f 3 5 11
f 11 13 9
f 11 7 3
f 9 8 11
f 11 8 7
f 11 5 2
f 2 6 11

