# https://github.com/mikedh/trimesh
v 0.00316128 -0.00672447 0.06069482
v 0.00316128 -0.00513673 0.06069482
v 0.00363528 -0.00672447 0.06069482
v 0.00316128 -0.00672447 0.06861802
v 0.00325176 -0.00513673 0.06069482
v 0.00316128 -0.00513673 0.06861802
v 0.00363528 -0.00513673 0.06069559
v 0.00364393 -0.00513673 0.06070025
v 0.00364393 -0.00672447 0.06070025
v 0.00364393 -0.00672447 0.06861802
v 0.00364393 -0.00513673 0.06861802
f 8 9 3
f 8 3 7
f 5 7 3
f 6 2 1
f 1 4 6
f 10 4 1
f 1 3 10
f 10 3 9
f 11 10 9
f 11 9 8
f 11 6 4
f 4 10 11
f 2 6 5
f 8 7 5
f 5 11 8
f 6 11 5
f 1 2 5
f 5 3 1

