# https://github.com/mikedh/trimesh
v 0.00364527 0.01222339 0.06180665
v 0.00364527 0.01222339 0.06507743
v 0.00364527 0.01286500 0.06180665
v 0.00852178 0.01222339 0.06180665
v 0.00800665 0.01222339 0.06507743
v 0.00364527 0.01286500 0.06507743
v 0.00898258 0.01286500 0.06180665
v 0.00898258 0.01241884 0.06180665
v 0.00852492 0.01222571 0.06507743
v 0.00898258 0.01286500 0.06507743
v 0.00898258 0.01242072 0.06507743
f 4 8 9
f 9 5 4
f 11 9 8
f 1 2 6
f 6 3 1
f 3 6 10
f 7 3 10
f 1 3 8
f 8 3 7
f 8 4 1
f 5 2 1
f 1 4 5
f 11 6 2
f 11 10 6
f 2 5 11
f 5 9 11
f 7 10 11
f 11 8 7

