# https://github.com/mikedh/trimesh
v -0.00090065 0.00231458 0.05870362
v 0.00039451 0.00101902 0.05870362
v -0.00090065 0.00231458 0.06069279
v -0.00090065 0.00487953 0.05870362
v 0.00011256 0.00130106 0.06069279
v 0.00139263 0.00002072 0.05870362
v 0.00139263 0.00002072 0.06069279
v -0.00090065 0.00487953 0.06069279
v 0.00363529 0.00487953 0.05870362
v 0.00363529 0.00002072 0.05870362
v 0.00363529 0.00002072 0.06069279
v 0.00363529 0.00487953 0.06069279
f 2 3 1
f 7 2 6
f 3 2 5
f 2 7 5
f 10 2 1
f 1 4 10
f 10 4 9
f 6 2 10
f 12 10 9
f 11 10 12
f 6 10 7
f 7 10 11
f 8 4 1
f 1 3 8
f 9 4 8
f 8 12 9
f 11 12 5
f 5 7 11
f 5 8 3
f 12 8 5

