# https://github.com/mikedh/trimesh
v 0.00287447 0.01311858 0.02578671
v 0.00326619 0.01311858 0.02578671
v 0.00287447 0.01311858 0.02645296
v 0.00287447 0.02039929 0.02578671
v 0.00363744 0.01341437 0.02578671
v 0.00363744 0.01311858 0.02580002
v 0.00363744 0.01311858 0.02645296
v 0.00287447 0.02039929 0.02645296
v 0.00342463 0.02039929 0.02578671
v 0.00363744 0.02025032 0.02578671
v 0.00363744 0.02025032 0.02645296
v 0.00342463 0.02039929 0.02645296
v 0.00345809 0.02037648 0.02645296
f 5 6 2
f 11 10 13
f 10 9 13
f 9 12 13
f 8 4 1
f 1 3 8
f 5 10 7
f 7 6 5
f 7 10 11
f 7 3 1
f 1 2 7
f 7 2 6
f 1 4 9
f 9 10 5
f 9 2 1
f 5 2 9
f 4 8 12
f 12 9 4
f 13 8 3
f 13 7 11
f 3 7 13
f 13 12 8

