# https://github.com/mikedh/trimesh
v 0.00342463 0.02039929 0.03281924
v 0.00287447 0.02039929 0.03281924
v 0.00363744 0.02025032 0.03281924
v 0.00346504 0.02037149 0.03032553
v 0.00342463 0.02039929 0.03032553
v 0.00287447 0.02039929 0.03032553
v 0.00287447 0.01378215 0.03281924
v 0.00363744 0.02025032 0.03032553
v 0.00363744 0.01311858 0.03281924
v 0.00287447 0.01311858 0.03032553
v 0.00287447 0.01311858 0.03281900
v 0.00322959 0.01311858 0.03281924
v 0.00363744 0.01311858 0.03032553
f 3 4 1
f 8 4 3
f 5 1 4
f 12 7 11
f 3 9 13
f 13 8 3
f 10 11 7
f 2 6 7
f 7 6 10
f 10 6 5
f 4 8 5
f 5 13 10
f 8 13 5
f 2 1 5
f 5 6 2
f 12 11 10
f 10 13 12
f 12 13 9
f 12 9 3
f 12 1 2
f 3 1 12
f 2 7 12

