# https://github.com/mikedh/trimesh
v 0.00065136 -0.00076298 0.05589656
v 0.00065077 -0.00076298 0.05589910
v 0.00141129 -0.00000278 0.05589656
v 0.00363500 -0.00076298 0.05589656
v 0.00065077 -0.00076298 0.05762864
v 0.00141071 -0.00000278 0.05590012
v 0.00363529 -0.00000278 0.05589656
v 0.00363500 -0.00076298 0.05762864
v 0.00141071 -0.00000278 0.05762864
v 0.00363529 -0.00000278 0.05762864
f 2 3 1
f 6 3 2
f 4 3 7
f 4 1 3
f 9 10 7
f 7 3 9
f 3 6 9
f 2 5 9
f 9 6 2
f 1 4 8
f 8 5 2
f 2 1 8
f 10 9 8
f 8 9 5
f 7 10 8
f 8 4 7

