# https://github.com/mikedh/trimesh
v 0.00511698 0.01414204 0.02494825
v 0.00613376 0.01424881 0.02494825
v 0.00511639 0.01504587 0.02494825
v 0.00511639 0.01414253 0.01636095
v 0.00511639 0.01414253 0.01630085
v 0.00613406 0.01424881 0.01630085
v 0.00613406 0.01541088 0.02494825
v 0.00511639 0.01921544 0.02494825
v 0.00511639 0.01921544 0.01630085
v 0.00613406 0.01850280 0.01630085
v 0.00613406 0.01850280 0.02494825
v 0.00525326 0.01911960 0.02494825
f 6 7 2
f 3 4 1
f 6 2 1
f 1 4 5
f 1 5 6
f 12 9 8
f 12 10 9
f 12 11 10
f 9 4 3
f 3 8 9
f 5 4 9
f 5 9 10
f 6 5 10
f 6 10 11
f 11 7 6
f 12 8 3
f 3 1 12
f 12 2 7
f 12 1 2
f 7 11 12

