# https://github.com/mikedh/trimesh
v 0.02276969 0.00002072 0.06145313
v 0.02341177 0.00002072 0.06145313
v 0.02276969 0.00002072 0.06199991
v 0.02276969 0.00450166 0.06145313
v 0.02341177 0.00002072 0.06199991
v 0.02341177 0.00324955 0.06145313
v 0.02276969 0.00504291 0.06199991
v 0.02276969 0.00504291 0.06170003
v 0.02341177 0.00379080 0.06199991
v 0.02341177 0.00379080 0.06170003
f 4 8 6
f 6 8 10
f 5 3 1
f 1 2 5
f 3 5 9
f 7 3 9
f 1 3 8
f 8 3 7
f 8 4 1
f 7 9 8
f 9 10 8
f 6 5 2
f 6 9 5
f 6 10 9
f 6 2 1
f 1 4 6

