# https://github.com/mikedh/trimesh
v 0.00261630 0.01240442 0.06959979
v 0.00261630 0.01241423 0.06959938
v 0.00234639 0.01241423 0.06959938
v 0.00234639 0.01237989 0.06959979
v 0.00261630 0.00487953 0.06959979
v 0.00261630 0.01248865 0.06959468
v 0.00234639 0.01251890 0.06959264
v 0.00234639 0.00487953 0.06959979
v 0.00261630 0.00487953 0.06751137
v 0.00261630 0.01268981 0.06958139
v 0.00234639 0.01270126 0.06958057
v 0.00234639 0.00487953 0.06751137
v 0.00261630 0.01323361 0.06751137
v 0.00261630 0.01323361 0.06950596
v 0.00234639 0.01323361 0.06950514
v 0.00234639 0.01323361 0.06751137
f 4 1 3
f 11 10 14
f 14 15 11
f 3 1 2
f 2 6 3
f 7 6 10
f 10 11 7
f 3 6 7
f 12 16 9
f 9 16 13
f 8 9 5
f 12 9 8
f 8 5 1
f 1 4 8
f 15 14 13
f 13 16 15
f 5 9 2
f 1 5 2
f 13 14 2
f 2 9 13
f 14 10 2
f 10 6 2
f 12 8 7
f 7 4 3
f 7 16 12
f 7 8 4
f 7 15 16
f 7 11 15

