# https://github.com/mikedh/trimesh
v -0.00307119 0.01343275 0.06888984
v -0.00307119 0.01343275 0.06830503
v -0.00353878 0.01343275 0.06888984
v -0.00307119 0.00571715 0.06888984
v -0.00353878 0.01343275 0.06830503
v -0.00307119 0.00565088 0.06830503
v -0.00353878 0.00591063 0.06888984
v -0.00311060 0.00573315 0.06888984
v -0.00307119 0.00565088 0.06884823
v -0.00353878 0.00565088 0.06830503
v -0.00353878 0.00567526 0.06872131
v -0.00340869 0.00585655 0.06888984
v -0.00348143 0.00565088 0.06872131
v -0.00353878 0.00565088 0.06869240
f 8 9 4
f 12 7 9
f 9 8 12
f 9 7 11
f 13 11 14
f 9 11 13
f 1 2 5
f 3 1 5
f 10 5 2
f 10 2 6
f 9 2 1
f 6 2 9
f 1 4 9
f 12 1 3
f 12 4 1
f 3 7 12
f 12 8 4
f 3 5 11
f 5 10 11
f 11 7 3
f 10 14 11
f 13 10 6
f 6 9 13
f 13 14 10

