# https://github.com/mikedh/trimesh
v 0.00058541 -0.00669183 0.06604215
v 0.00095644 -0.00669183 0.06604215
v 0.00058541 -0.00669183 0.06959999
v 0.00058541 -0.00529553 0.06604215
v 0.00095644 -0.00529553 0.06604215
v 0.00095644 -0.00669183 0.06959999
v 0.00058541 -0.00626717 0.06959999
v 0.00058541 -0.00529553 0.06959965
v 0.00095644 -0.00529553 0.06959965
v 0.00095644 -0.00636804 0.06959999
f 9 8 7
f 9 7 10
f 1 4 5
f 5 2 1
f 1 2 6
f 6 3 1
f 8 5 4
f 9 5 8
f 7 4 1
f 1 3 7
f 7 8 4
f 2 5 10
f 10 6 2
f 10 5 9
f 3 6 10
f 10 7 3

