# https://github.com/mikedh/trimesh
v 0.00316128 -0.00513673 0.06069482
v 0.00316128 0.00002072 0.06069482
v 0.00325176 -0.00513673 0.06069482
v 0.00316128 -0.00513673 0.06861802
v 0.00363528 0.00002072 0.06069482
v 0.00316128 0.00002072 0.06861802
v 0.00363528 -0.00513673 0.06069559
v 0.00364393 -0.00513673 0.06861802
v 0.00364393 0.00002072 0.06070025
v 0.00364393 -0.00513673 0.06070025
v 0.00364393 0.00002072 0.06861802
f 10 5 9
f 5 10 7
f 5 7 3
f 1 4 6
f 6 2 1
f 2 6 11
f 11 5 2
f 9 5 11
f 11 6 4
f 11 4 8
f 8 10 11
f 11 10 9
f 3 4 1
f 8 4 3
f 3 10 8
f 3 7 10
f 1 2 3
f 2 5 3

