# https://github.com/mikedh/trimesh
v -0.00353883 0.00470491 0.06234527
v -0.00380784 0.00484316 0.06234527
v -0.00353883 0.00499763 0.06234527
v -0.00353883 0.00470491 0.06659973
v -0.00380784 0.00499763 0.06234527
v -0.00380784 0.00484316 0.06659973
v -0.00353883 0.00499763 0.06772737
v -0.00353883 0.00482975 0.06735852
v -0.00380784 0.00495284 0.06737644
v -0.00380784 0.00499763 0.06747708
v -0.00355018 0.00499763 0.06771684
v -0.00353883 0.00483330 0.06737749
v -0.00373608 0.00499763 0.06754400
f 4 9 6
f 9 12 10
f 8 9 4
f 8 12 9
f 13 10 12
f 11 12 7
f 11 13 12
f 5 3 1
f 5 1 2
f 1 4 6
f 2 1 6
f 10 5 2
f 2 6 10
f 10 6 9
f 3 7 8
f 1 3 8
f 8 4 1
f 7 12 8
f 11 7 3
f 3 5 11
f 5 10 11
f 10 13 11

