# https://github.com/mikedh/trimesh
v 0.00203237 0.00002346 0.02783994
v 0.00203237 0.00002346 0.02596873
v 0.00138914 0.00002346 0.02783994
v 0.00203237 -0.00919547 0.02783994
v 0.00180496 0.00002346 0.02609213
v 0.00203237 -0.00008845 0.02593399
v 0.00138655 -0.00073463 0.02593399
v 0.00138914 0.00002346 0.02680000
v 0.00138655 -0.00002708 0.02783994
v 0.00138655 -0.00919547 0.02783994
v 0.00203237 -0.00919547 0.02580000
v 0.00168212 0.00002346 0.02619078
v 0.00138655 -0.00044132 0.02609293
v 0.00203237 -0.00042959 0.02583415
v 0.00138655 -0.00099545 0.02585751
v 0.00140147 0.00002346 0.02666881
v 0.00138655 -0.00007581 0.02654121
v 0.00138655 -0.00003971 0.02666821
v 0.00138655 -0.00002708 0.02680000
v 0.00138655 -0.00919547 0.02580000
v 0.00203237 -0.00079600 0.02580000
v 0.00157862 0.00002346 0.02630000
v 0.00138655 -0.00032941 0.02618339
v 0.00138655 -0.00144128 0.02580000
v 0.00138655 -0.00107577 0.02583415
v 0.00143732 0.00002346 0.02654121
v 0.00138655 -0.00013808 0.02641342
v 0.00149725 0.00002346 0.02641661
v 0.00138655 -0.00021660 0.02630000
f 14 21 24
f 7 2 6
f 14 24 25
f 22 23 29
f 5 2 7
f 15 6 14
f 14 25 15
f 7 6 15
f 12 23 22
f 13 5 7
f 13 12 5
f 23 12 13
f 18 19 8
f 18 8 17
f 17 8 16
f 27 26 29
f 27 16 26
f 17 16 27
f 22 29 28
f 29 26 28
f 10 11 4
f 10 20 11
f 3 4 1
f 3 10 4
f 9 10 3
f 11 20 24
f 24 21 11
f 4 11 6
f 1 4 6
f 11 21 6
f 6 21 14
f 6 2 1
f 9 3 19
f 3 8 19
f 20 10 27
f 27 10 9
f 7 15 27
f 27 18 17
f 27 24 20
f 9 19 27
f 27 25 24
f 27 29 23
f 27 13 7
f 27 15 25
f 23 13 27
f 19 18 27
f 1 2 28
f 28 3 1
f 28 16 8
f 28 8 3
f 2 5 28
f 28 12 22
f 5 12 28
f 26 16 28

