# https://github.com/mikedh/trimesh
v 0.02169443 -0.00680593 0.06260623
v 0.02169443 -0.00680593 0.06239358
v 0.02169354 -0.00680593 0.06266352
v 0.02168912 -0.00681274 0.06266352
v 0.02152114 -0.00706017 0.06266352
v 0.02154059 -0.00703595 0.06239358
v 0.02164580 -0.00688084 0.06239358
v 0.02166525 -0.00685133 0.06239358
v 0.01266235 -0.00680593 0.06239358
v 0.01266235 -0.00680593 0.06266352
v 0.02152645 -0.00705638 0.06239358
v 0.02150876 -0.00707795 0.06266352
v 0.01266235 -0.01067051 0.06239358
v 0.01266235 -0.01067051 0.06266352
v 0.02116573 -0.00750129 0.06266352
v 0.02114981 -0.00752097 0.06239358
v 0.01731896 -0.01067051 0.06239358
v 0.01731896 -0.01067051 0.06266352
v 0.02105433 -0.00763862 0.06266352
v 0.02105433 -0.00763862 0.06239358
v 0.01851958 -0.00983025 0.06239358
v 0.01752231 -0.01052826 0.06266352
v 0.01735521 -0.01064516 0.06266352
v 0.02079705 -0.00787016 0.06266352
v 0.02074843 -0.00791404 0.06239358
v 0.01895899 -0.00952230 0.06266352
v 0.01840553 -0.00991008 0.06266352
v 0.01839581 -0.00991689 0.06266352
v 0.01895899 -0.00952230 0.06239358
f 26 21 29
f 29 25 26
f 26 25 24
f 8 2 1
f 1 7 8
f 1 3 4
f 4 5 1
f 6 5 11
f 6 7 1
f 1 5 6
f 11 15 16
f 11 5 12
f 12 15 11
f 19 25 20
f 24 25 19
f 20 16 19
f 19 16 15
f 21 26 27
f 27 28 21
f 17 21 22
f 21 28 22
f 23 18 17
f 17 22 23
f 1 2 3
f 3 2 9
f 9 10 3
f 14 10 9
f 9 13 14
f 13 17 14
f 17 18 14
f 9 2 16
f 16 13 9
f 16 17 13
f 16 21 17
f 16 25 29
f 29 21 16
f 16 6 11
f 2 8 16
f 20 25 16
f 16 8 7
f 7 6 16
f 23 3 10
f 23 14 18
f 10 14 23
f 23 12 5
f 23 4 3
f 23 26 24
f 5 4 23
f 23 27 26
f 24 19 23
f 15 12 23
f 23 19 15
f 28 27 23
f 23 22 28

