# https://github.com/mikedh/trimesh
v 0.00827650 -0.01656731 0.03560816
v 0.00827650 -0.01728469 0.03560816
v 0.00827650 -0.01656731 0.03533712
v -0.00436470 -0.01656731 0.03560816
v 0.00827650 -0.01728477 0.03559999
v 0.00777907 -0.01734999 0.03560816
v 0.00777536 -0.01735299 0.03559999
v 0.00827650 -0.01700265 0.03533712
v -0.00436470 -0.01656731 0.03533712
v -0.00436470 -0.01734999 0.03560816
v 0.00777536 -0.01735299 0.03533712
v 0.00805996 -0.01715417 0.03533712
v -0.00436470 -0.01735299 0.03559999
v -0.00436470 -0.01735299 0.03533712
f 2 6 7
f 7 11 5
f 5 2 7
f 8 5 12
f 12 5 11
f 1 3 9
f 4 1 9
f 2 1 4
f 4 10 2
f 2 10 6
f 4 9 13
f 13 9 14
f 13 10 4
f 14 11 13
f 13 11 7
f 6 10 13
f 7 6 13
f 5 3 1
f 1 2 5
f 5 8 3
f 12 9 3
f 14 9 12
f 12 11 14
f 3 8 12

