# https://github.com/mikedh/trimesh
v 0.01111909 0.01234790 0.02572593
v 0.01111909 0.01234790 0.02729399
v 0.01111909 0.01269522 0.02572593
v 0.01407073 0.01234790 0.02572593
v 0.01111909 0.01269522 0.02729399
v 0.01371391 0.01234790 0.02729399
v 0.01407073 0.01269522 0.02572593
v 0.01407073 0.01234790 0.02708952
v 0.01405022 0.01269522 0.02729399
v 0.01372344 0.01234790 0.02728862
v 0.01372113 0.01235001 0.02729399
v 0.01407073 0.01269522 0.02680492
v 0.01407073 0.01254259 0.02693003
v 0.01406640 0.01269522 0.02729231
v 0.01372662 0.01235558 0.02729399
f 13 12 14
f 14 8 13
f 14 9 15
f 6 10 11
f 11 10 8
f 11 8 14
f 14 15 11
f 1 3 7
f 7 4 1
f 5 3 1
f 1 2 5
f 9 7 3
f 3 5 9
f 14 12 9
f 9 12 7
f 1 4 10
f 10 2 1
f 10 6 2
f 4 8 10
f 4 7 13
f 7 12 13
f 13 8 4
f 2 6 11
f 11 5 2
f 11 9 5
f 11 15 9

