# https://github.com/mikedh/trimesh
v 0.01016838 0.01461541 0.05606428
v 0.01016838 0.01461541 0.05667978
v 0.01016838 0.01511918 0.05606428
v 0.01110104 0.01461541 0.05606428
v 0.01016838 0.01511918 0.05667978
v 0.01110104 0.01461541 0.05667978
v 0.01110104 0.01511918 0.05606428
v 0.01096655 0.01511918 0.05667978
v 0.01110104 0.01502493 0.05667978
v 0.01110104 0.01511918 0.05655591
f 8 9 10
f 1 3 7
f 7 4 1
f 1 4 6
f 6 2 1
f 5 3 1
f 1 2 5
f 2 6 9
f 8 5 9
f 9 5 2
f 10 7 3
f 3 5 10
f 10 5 8
f 4 7 10
f 10 6 4
f 10 9 6

