# https://github.com/mikedh/trimesh
v 0.00142950 0.00989842 0.06054805
v 0.00142950 0.01323361 0.06054805
v 0.00189168 0.00989842 0.06054805
v 0.00142950 0.00989842 0.06959911
v 0.00189168 0.01323361 0.06054805
v 0.00142950 0.01323361 0.06950164
v 0.00189168 0.00989842 0.06959911
v 0.00142950 0.01241255 0.06959911
v 0.00189168 0.01323361 0.06950341
v 0.00142950 0.01273901 0.06957784
v 0.00163446 0.01323361 0.06950253
v 0.00189168 0.01241353 0.06959911
v 0.00189168 0.01245956 0.06959645
v 0.00142950 0.01251571 0.06959291
v 0.00189168 0.01272008 0.06957962
v 0.00142950 0.01258329 0.06958848
v 0.00189168 0.01256958 0.06958936
f 6 10 11
f 11 10 9
f 9 10 15
f 15 14 17
f 13 8 12
f 13 14 8
f 13 17 14
f 16 15 10
f 16 14 15
f 1 2 5
f 5 3 1
f 1 3 7
f 7 4 1
f 11 5 2
f 9 5 11
f 2 6 11
f 4 7 8
f 7 12 8
f 3 5 13
f 13 7 3
f 13 5 9
f 13 12 7
f 9 15 13
f 15 17 13
f 16 2 1
f 1 4 16
f 16 6 2
f 16 10 6
f 4 8 16
f 8 14 16

