# https://github.com/mikedh/trimesh
v -0.00436470 0.01314239 0.01630049
v -0.00436470 0.01314239 0.02129469
v -0.00436470 0.01369207 0.01630049
v 0.00328535 0.01314239 0.01630049
v -0.00436470 0.01369207 0.02129469
v 0.00328610 0.01314239 0.02129469
v 0.00335029 0.01369207 0.01630049
v 0.00335029 0.01321245 0.01630049
v 0.00335029 0.01369207 0.02129469
v 0.00335029 0.01321245 0.02129469
f 6 4 8
f 6 8 10
f 1 2 5
f 5 3 1
f 4 2 1
f 4 6 2
f 3 5 9
f 7 3 9
f 1 3 8
f 8 3 7
f 8 4 1
f 10 5 2
f 2 6 10
f 10 9 5
f 7 9 10
f 10 8 7

