# https://github.com/mikedh/trimesh
v 0.01023203 0.01567663 0.03564517
v 0.01023203 0.01567663 0.03559999
v 0.01017696 0.01567663 0.03564590
v 0.01023203 0.01563809 0.03564590
v 0.01023203 0.01563335 0.03534637
v 0.01017024 0.01567663 0.03534637
v 0.00794483 0.01567663 0.03564590
v 0.01023203 0.01485638 0.03564590
v 0.01023203 0.01485638 0.03534637
v 0.00794483 0.01567663 0.03534637
v 0.00794483 0.01485638 0.03564590
v 0.00794483 0.01485638 0.03534637
f 1 3 4
f 5 6 2
f 7 10 11
f 11 10 12
f 8 11 9
f 9 11 12
f 4 3 7
f 7 11 4
f 4 11 8
f 12 10 6
f 6 9 12
f 5 9 6
f 2 4 8
f 8 9 2
f 2 9 5
f 1 4 2
f 2 3 1
f 7 3 2
f 2 10 7
f 2 6 10

