# https://github.com/mikedh/trimesh
v 0.00807651 0.01368916 0.01630000
v 0.00807651 0.01368916 0.01674881
v 0.00807651 0.01714198 0.01630000
v 0.00887479 0.01306836 0.01630000
v 0.00807651 0.01714198 0.01674881
v 0.00887479 0.01306836 0.01674881
v 0.00860296 0.01677433 0.01674881
v 0.01357566 0.01329287 0.01630000
v 0.01357566 0.00944602 0.01630000
v 0.01357566 0.00944602 0.01674881
v 0.01357566 0.01329287 0.01674881
f 8 3 7
f 7 11 8
f 5 7 3
f 11 10 9
f 11 9 8
f 1 3 4
f 8 9 4
f 4 3 8
f 1 4 6
f 6 2 1
f 9 10 6
f 6 4 9
f 10 11 5
f 2 6 5
f 11 7 5
f 5 6 10
f 5 3 1
f 1 2 5

