# https://github.com/mikedh/trimesh
v 0.01000564 0.01290553 0.06212481
v 0.01000564 0.01243995 0.06212481
v 0.01000564 0.01290553 0.06153652
v 0.00925257 0.01290553 0.06212481
v 0.00998618 0.01223935 0.06180003
v 0.01000564 0.01223948 0.06180003
v 0.00925257 0.01246284 0.06212481
v 0.00925257 0.01223935 0.06180003
v 0.01000564 0.01223941 0.06153652
v 0.00925257 0.01290553 0.06153652
v 0.00991084 0.01223935 0.06153652
v 0.00925257 0.01223935 0.06153652
f 11 9 5
f 6 2 5
f 5 9 6
f 2 7 8
f 5 2 8
f 1 3 10
f 4 1 10
f 7 1 4
f 7 2 1
f 11 10 3
f 12 10 11
f 3 9 11
f 6 3 1
f 6 9 3
f 1 2 6
f 4 10 8
f 8 10 12
f 8 7 4
f 12 11 8
f 8 11 5

