# https://github.com/mikedh/trimesh
v 0.00925257 0.00699887 0.06180595
v 0.00925257 0.00699887 0.06959999
v 0.00925257 0.00853715 0.06180595
v 0.02157164 0.00699887 0.06180595
v 0.00925257 0.00853715 0.06959999
v 0.02148723 0.00699887 0.06959999
v 0.01052113 0.00875966 0.06180595
v 0.02156441 0.00700869 0.06180595
v 0.02105433 0.00763831 0.06959999
v 0.01052113 0.00875966 0.06959999
v 0.01980747 0.00875966 0.06180595
v 0.02105433 0.00763831 0.06180595
v 0.01980747 0.00875966 0.06959999
f 9 8 12
f 9 6 4
f 4 8 9
f 1 4 6
f 6 2 1
f 10 11 7
f 13 11 10
f 5 3 1
f 1 2 5
f 7 3 5
f 5 10 7
f 1 3 8
f 8 4 1
f 8 3 7
f 7 11 8
f 11 12 8
f 2 6 9
f 13 10 9
f 9 5 2
f 10 5 9
f 9 11 13
f 9 12 11

