# https://github.com/mikedh/trimesh
v 0.02073483 -0.00752618 0.06069545
v 0.02073483 -0.00752618 0.06109520
v 0.02073483 -0.00739624 0.06069545
v 0.02113458 -0.00752618 0.06069545
v 0.02113458 -0.00752618 0.06109520
v 0.02073483 -0.00680563 0.06109520
v 0.02073483 -0.00700003 0.06069678
v 0.02091404 -0.00700003 0.06069545
v 0.02113458 -0.00700003 0.06069545
v 0.02113458 -0.00700003 0.06109520
v 0.02093341 -0.00680563 0.06109520
v 0.02073483 -0.00680563 0.06094337
f 3 7 8
f 8 7 12
f 12 9 8
f 11 12 6
f 9 12 11
f 11 10 9
f 5 2 1
f 1 4 5
f 3 4 1
f 3 9 4
f 8 9 3
f 1 2 12
f 12 2 6
f 12 3 1
f 7 3 12
f 10 5 4
f 4 9 10
f 2 5 11
f 6 2 11
f 5 10 11

