# https://github.com/mikedh/trimesh
v 0.00166030 -0.00116979 0.05490010
v 0.00156138 -0.00116979 0.05490907
v 0.00217711 -0.00060080 0.05490468
v 0.00222923 -0.00060080 0.05490010
v 0.00363495 -0.00116979 0.05490010
v 0.00129186 -0.00116979 0.05493414
v 0.00186079 -0.00060080 0.05493414
v 0.00363495 -0.00060080 0.05490010
v 0.00363495 -0.00116979 0.05589639
v 0.00119792 -0.00116979 0.05496164
v 0.00095063 -0.00116979 0.05503411
v 0.00151989 -0.00060080 0.05503411
v 0.00363495 -0.00060080 0.05589639
v 0.00024429 -0.00116979 0.05589639
v 0.00066451 -0.00116979 0.05518938
v 0.00123045 -0.00060080 0.05519114
v 0.00147707 -0.00060080 0.05505732
v 0.00081355 -0.00060080 0.05589639
v 0.00083048 -0.00060080 0.05574970
v 0.00026653 -0.00116979 0.05573107
v 0.00065787 -0.00116979 0.05519299
v 0.00122713 -0.00060080 0.05519299
v 0.00083114 -0.00060080 0.05574687
v 0.00029209 -0.00116979 0.05564115
v 0.00086101 -0.00060080 0.05564115
v 0.00057091 -0.00116979 0.05526321
v 0.00112291 -0.00060080 0.05527687
v 0.00093271 -0.00060080 0.05549953
v 0.00037540 -0.00116979 0.05548285
v 0.00043316 -0.00116979 0.05539995
v 0.00100242 -0.00060080 0.05539995
f 4 1 3
f 3 1 2
f 2 6 3
f 11 12 7
f 3 6 7
f 14 18 19
f 31 30 28
f 28 24 25
f 11 7 10
f 10 7 6
f 27 30 31
f 25 24 20
f 14 19 20
f 29 28 30
f 24 28 29
f 30 27 26
f 26 27 21
f 15 16 11
f 21 16 15
f 17 12 11
f 11 16 17
f 21 27 22
f 22 16 21
f 25 20 23
f 23 20 19
f 14 9 18
f 9 13 18
f 8 9 5
f 8 13 9
f 4 8 5
f 5 1 4
f 5 9 15
f 15 9 14
f 11 10 15
f 15 1 5
f 30 26 15
f 15 2 1
f 6 2 15
f 15 29 30
f 14 20 15
f 15 10 6
f 15 20 24
f 24 29 15
f 15 26 21
f 23 18 13
f 13 8 23
f 23 4 3
f 3 7 23
f 8 4 23
f 31 28 23
f 23 19 18
f 23 7 12
f 23 22 27
f 23 28 25
f 23 27 31
f 12 17 23
f 23 17 16
f 16 22 23

