# https://github.com/mikedh/trimesh
v 0.00780134 0.00950353 0.06958948
v 0.00760037 0.01000078 0.06959999
v 0.00780052 0.00950407 0.06959999
v 0.00779930 0.00950353 0.06959999
v 0.00780134 0.00950353 0.06423001
v 0.00364527 0.01000078 0.06959999
v 0.00760037 0.01000078 0.06423001
v 0.00364527 0.00950353 0.06959999
v 0.00364527 0.00950353 0.06423001
v 0.00364527 0.01000078 0.06423001
f 3 4 1
f 1 2 3
f 1 5 7
f 7 2 1
f 8 9 5
f 8 5 1
f 1 4 8
f 8 3 2
f 8 2 6
f 4 3 8
f 9 8 10
f 10 8 6
f 2 7 10
f 6 2 10
f 5 9 10
f 10 7 5

