# https://github.com/mikedh/trimesh
v 0.00042830 0.00631133 0.06246929
v 0.00042830 0.00967758 0.06246929
v 0.00142950 0.00631133 0.06246929
v 0.00042830 0.00631133 0.06954555
v 0.00142950 0.00967758 0.06246999
v 0.00142950 0.00967659 0.06246929
v 0.00042830 0.00967758 0.06959930
v 0.00142950 0.00631133 0.06959930
v 0.00047230 0.00631133 0.06959930
v 0.00042830 0.00631297 0.06959930
v 0.00142950 0.00967758 0.06959930
f 2 5 6
f 10 4 9
f 1 2 6
f 6 3 1
f 3 6 11
f 11 8 3
f 11 6 5
f 2 7 11
f 11 5 2
f 4 2 1
f 4 7 2
f 4 10 7
f 7 10 9
f 9 11 7
f 8 11 9
f 1 3 9
f 3 8 9
f 9 4 1

