# https://github.com/mikedh/trimesh
v -0.00302647 0.01314304 0.02496488
v 0.00328600 0.01314304 0.02496488
v -0.00302647 0.01314304 0.02578663
v -0.00302647 0.02040000 0.02496488
v 0.00328600 0.01314304 0.02578663
v 0.00329599 0.01315370 0.02496488
v -0.00302647 0.02040000 0.02578663
v 0.00334967 0.02040000 0.02496488
v 0.00334967 0.01321267 0.02578663
v 0.00334967 0.01321267 0.02496488
v 0.00334967 0.02040000 0.02578663
f 9 5 6
f 6 10 9
f 2 6 5
f 1 3 7
f 7 4 1
f 11 7 3
f 3 5 11
f 11 5 9
f 4 7 11
f 8 4 11
f 11 10 8
f 9 10 11
f 1 4 2
f 2 4 8
f 8 10 2
f 10 6 2
f 2 3 1
f 2 5 3

