# https://github.com/mikedh/trimesh
v 0.00139847 0.00001535 0.05797860
v 0.00141293 -0.00000037 0.05797860
v 0.00141074 -0.00000158 0.05870354
v 0.00139847 0.00001535 0.05870354
v 0.00139847 0.01234549 0.05797860
v 0.00248940 -0.00000158 0.05797860
v 0.00363529 -0.00000158 0.05870354
v 0.00139847 0.01234549 0.05870354
v 0.00363529 0.01234549 0.05797860
v 0.00363529 -0.00000158 0.05797860
v 0.00363529 0.01234549 0.05870354
f 1 3 4
f 2 3 1
f 3 2 6
f 8 5 1
f 1 4 8
f 11 8 4
f 11 3 7
f 11 4 3
f 11 10 9
f 7 10 11
f 11 9 5
f 5 8 11
f 5 9 6
f 1 5 6
f 9 10 6
f 6 2 1
f 7 3 6
f 6 10 7

