# https://github.com/mikedh/trimesh
v -0.00155148 -0.00985800 0.05762864
v -0.00088530 -0.00985800 0.05762864
v -0.00155148 -0.00985800 0.05816164
v -0.00155148 -0.00296547 0.05762864
v -0.00088530 -0.00985800 0.05816164
v -0.00088530 -0.00245145 0.05762864
v -0.00155148 -0.00296547 0.05816164
v -0.00103803 -0.00245145 0.05762864
v -0.00088530 -0.00245145 0.05816164
v -0.00103803 -0.00245145 0.05816164
f 5 3 1
f 1 2 5
f 9 5 2
f 2 6 9
f 8 2 1
f 8 6 2
f 1 4 8
f 1 3 7
f 7 4 1
f 3 5 10
f 5 9 10
f 10 7 3
f 10 9 6
f 6 8 10
f 10 8 4
f 4 7 10

