# https://github.com/mikedh/trimesh
v 0.01040765 -0.00871366 0.06198995
v 0.00993634 -0.00855135 0.06198995
v 0.01093841 -0.00871366 0.06198995
v 0.01040765 -0.00871366 0.06959999
v 0.00993634 -0.00680556 0.06198995
v 0.00993634 -0.00855135 0.06959999
v 0.01093841 -0.00680556 0.06198995
v 0.01093841 -0.00871366 0.06959999
v 0.00993634 -0.00680556 0.06959999
v 0.01093841 -0.00680556 0.06959999
f 2 1 6
f 6 1 4
f 7 1 2
f 2 5 7
f 3 1 7
f 8 1 3
f 4 1 8
f 3 7 8
f 8 7 10
f 9 6 4
f 9 8 10
f 4 8 9
f 9 7 5
f 10 7 9
f 9 5 2
f 2 6 9

