# https://github.com/mikedh/trimesh
v 0.01289909 -0.01000426 0.06315475
v 0.01289909 -0.01067044 0.06315475
v 0.01289909 -0.01000426 0.06266355
v 0.01221074 -0.01000426 0.06315475
v 0.01289909 -0.01067044 0.06266355
v 0.01221971 -0.01067044 0.06315475
v 0.01221074 -0.01000426 0.06266355
v 0.01221074 -0.01032075 0.06315475
v 0.01221971 -0.01067044 0.06266355
v 0.01221074 -0.01032075 0.06266355
f 4 1 7
f 1 3 7
f 1 2 5
f 5 3 1
f 2 6 5
f 5 6 9
f 8 2 1
f 8 1 4
f 8 6 2
f 10 7 3
f 3 5 10
f 10 5 9
f 9 6 10
f 6 8 10
f 4 7 10
f 10 8 4

