# https://github.com/mikedh/trimesh
v -0.00034734 -0.00441759 0.06350159
v -0.00034734 -0.00344757 0.06350159
v 0.00005237 -0.00441759 0.06350159
v -0.00034734 -0.00441759 0.06935453
v 0.00005237 -0.00344757 0.06350159
v -0.00034734 -0.00344757 0.06896176
v 0.00005237 -0.00441759 0.06947200
v -0.00014120 -0.00441759 0.06941531
v -0.00034734 -0.00388220 0.06919789
v 0.00005237 -0.00344757 0.06917860
v -0.00034734 -0.00365183 0.06907281
v -0.00011197 -0.00344757 0.06908976
v 0.00005237 -0.00348242 0.06919789
v -0.00034734 -0.00387869 0.06919613
f 12 13 10
f 7 13 8
f 13 9 8
f 8 9 4
f 14 9 13
f 13 12 14
f 11 12 6
f 11 14 12
f 1 2 5
f 5 3 1
f 3 5 13
f 13 7 3
f 5 10 13
f 12 5 2
f 12 10 5
f 2 6 12
f 1 3 8
f 3 7 8
f 8 4 1
f 11 2 1
f 1 4 11
f 11 6 2
f 4 9 11
f 9 14 11

