# https://github.com/mikedh/trimesh
v -0.00178597 0.00319943 0.05870362
v -0.00234186 0.00375533 0.05870362
v -0.00178597 0.00375533 0.05870362
v -0.00178597 0.00319943 0.06519955
v -0.00234186 0.00375533 0.06659953
v -0.00178597 0.00375533 0.06808214
v -0.00178597 0.00319959 0.06660045
v -0.00178597 0.00332666 0.06731467
v -0.00220293 0.00375533 0.06735598
v -0.00179810 0.00375533 0.06806470
v -0.00178597 0.00374248 0.06806286
v -0.00178597 0.00334402 0.06737618
v -0.00219732 0.00375533 0.06737618
f 3 1 2
f 4 7 5
f 13 12 10
f 8 9 5
f 5 7 8
f 13 9 8
f 8 12 13
f 6 10 11
f 11 10 12
f 4 5 2
f 2 1 4
f 6 3 10
f 10 3 2
f 2 5 10
f 5 9 10
f 10 9 13
f 11 3 6
f 1 3 11
f 11 4 1
f 7 4 11
f 11 8 7
f 12 8 11

