# https://github.com/mikedh/trimesh
v -0.00296999 -0.00587828 0.06473680
v -0.00296999 -0.00426859 0.06473680
v -0.00242556 -0.00587828 0.06473680
v -0.00296999 -0.00587828 0.06903556
v -0.00242556 -0.00383897 0.06473680
v -0.00296999 -0.00426859 0.06660020
v -0.00242556 -0.00587828 0.06924889
v -0.00262532 -0.00587828 0.06919765
v -0.00242556 -0.00527936 0.06892426
v -0.00296999 -0.00557902 0.06885183
v -0.00242556 -0.00383897 0.06660020
v -0.00296999 -0.00431651 0.06689170
v -0.00242556 -0.00383957 0.06660506
v -0.00242556 -0.00572516 0.06919765
v -0.00242556 -0.00494856 0.06872109
v -0.00296999 -0.00536641 0.06872109
v -0.00296999 -0.00439636 0.06737621
v -0.00242556 -0.00397852 0.06737621
v -0.00242556 -0.00473056 0.06849363
v -0.00296999 -0.00494018 0.06827677
v -0.00296999 -0.00459161 0.06775384
v -0.00242556 -0.00428916 0.06797644
v -0.00242556 -0.00435304 0.06809967
v -0.00296999 -0.00477088 0.06809967
f 13 11 6
f 17 18 13
f 7 14 8
f 4 8 9
f 9 8 14
f 17 13 12
f 12 13 6
f 15 16 10
f 10 9 15
f 4 9 10
f 20 23 24
f 20 16 15
f 21 18 17
f 19 20 15
f 23 20 19
f 22 21 24
f 24 23 22
f 18 21 22
f 2 5 3
f 2 3 1
f 5 2 11
f 2 6 11
f 1 3 8
f 3 7 8
f 8 4 1
f 21 2 1
f 1 4 21
f 17 12 21
f 21 6 2
f 21 20 24
f 4 10 21
f 21 12 6
f 21 10 16
f 16 20 21
f 3 5 22
f 22 7 3
f 5 11 22
f 15 9 22
f 22 14 7
f 22 13 18
f 11 13 22
f 22 9 14
f 22 19 15
f 23 19 22

