# https://github.com/mikedh/trimesh
v -0.00242556 -0.00384029 0.06317058
v -0.00242556 -0.00384029 0.06197144
v -0.00296999 -0.00426879 0.06317058
v -0.00242556 -0.01734868 0.06317058
v -0.00296999 -0.00426879 0.06197144
v -0.00242556 -0.01734868 0.06197144
v -0.00296999 -0.01733413 0.06317058
v -0.00296898 -0.01734868 0.06317058
v -0.00296999 -0.01734868 0.06197144
v -0.00296999 -0.01734868 0.06216326
f 10 8 7
f 3 1 5
f 1 2 5
f 1 4 6
f 6 2 1
f 6 5 2
f 9 5 6
f 8 4 1
f 8 1 3
f 3 7 8
f 10 7 3
f 3 5 10
f 10 5 9
f 10 6 4
f 9 6 10
f 4 8 10

