# https://github.com/mikedh/trimesh
v 0.00002868 0.00487967 0.06054805
v 0.00002868 0.00631100 0.06054805
v 0.00142950 0.00487967 0.06054805
v 0.00002868 0.00487967 0.06953000
v 0.00142950 0.00631100 0.06054805
v 0.00002868 0.00631100 0.06959911
v 0.00142950 0.00487967 0.06959911
v 0.00068939 0.00487967 0.06959113
v 0.00002868 0.00559554 0.06959645
v 0.00142950 0.00631100 0.06959911
v 0.00002868 0.00562749 0.06959911
v 0.00077647 0.00487967 0.06959911
f 9 12 11
f 8 9 4
f 12 9 8
f 5 3 1
f 1 2 5
f 2 6 10
f 10 5 2
f 10 7 3
f 3 5 10
f 6 11 12
f 12 10 6
f 7 10 12
f 9 6 2
f 9 2 1
f 1 4 9
f 9 11 6
f 3 7 8
f 8 4 1
f 1 3 8
f 7 12 8

