# https://github.com/mikedh/trimesh
v 0.00364397 -0.00696928 0.06070006
v 0.00372961 -0.00696928 0.06069944
v 0.00364397 -0.00696928 0.06197082
v 0.00364397 0.00002072 0.06070006
v 0.00789036 -0.00696928 0.06070006
v 0.00789036 0.00002072 0.06070006
v 0.00732584 -0.00696928 0.06197082
v 0.00364397 0.00002072 0.06197082
v 0.00789036 -0.00696928 0.06170336
v 0.00789036 0.00002072 0.06197082
v 0.00789036 -0.00696791 0.06197082
f 1 4 2
f 5 2 6
f 6 2 4
f 11 7 9
f 1 3 8
f 8 4 1
f 10 6 8
f 8 6 4
f 7 11 10
f 10 8 7
f 7 8 3
f 9 6 10
f 5 6 9
f 10 11 9
f 1 2 9
f 9 3 1
f 9 2 5
f 9 7 3

