# https://github.com/mikedh/trimesh
v 0.00364397 -0.01025805 0.06069545
v 0.00364397 -0.01025805 0.06198921
v 0.00364397 -0.00991101 0.06069545
v 0.00709820 -0.01025805 0.06069545
v 0.00364397 -0.00991101 0.06198921
v 0.00709820 -0.01025805 0.06198921
v 0.00709820 -0.00991101 0.06069545
v 0.00375691 -0.00991101 0.06198921
v 0.00709820 -0.00991146 0.06198921
v 0.00709820 -0.00991101 0.06198579
f 9 10 8
f 1 3 7
f 7 4 1
f 1 4 6
f 6 2 1
f 5 3 1
f 1 2 5
f 4 7 10
f 10 6 4
f 9 6 10
f 2 6 8
f 8 6 9
f 8 5 2
f 8 7 3
f 3 5 8
f 8 10 7

