# https://github.com/mikedh/trimesh
v 0.01372118 -0.01235020 0.03828204
v 0.01410009 -0.01272888 0.03828204
v 0.01372118 -0.01235020 0.03654979
v 0.00405541 -0.01235020 0.03828204
v 0.01421546 -0.01284427 0.03828204
v 0.01421546 -0.01284427 0.03654979
v 0.00405541 -0.01235020 0.03654979
v 0.00405541 -0.01440014 0.03828204
v 0.01411203 -0.01291672 0.03654979
v 0.01234078 -0.01415671 0.03828204
v 0.00405541 -0.01440014 0.03654979
v 0.01199270 -0.01440014 0.03828204
v 0.01199270 -0.01440014 0.03654979
f 3 1 2
f 13 10 12
f 5 10 9
f 10 13 9
f 5 9 6
f 6 2 5
f 3 2 6
f 1 7 4
f 3 7 1
f 10 1 4
f 4 8 10
f 5 2 10
f 8 12 10
f 10 2 1
f 11 8 4
f 4 7 11
f 13 12 8
f 8 11 13
f 6 7 3
f 6 11 7
f 6 13 11
f 6 9 13

