# https://github.com/mikedh/trimesh
v 0.00366767 -0.01234239 0.05959839
v 0.00369677 -0.01234239 0.05959839
v 0.00364397 -0.01234239 0.05960012
v 0.00364397 -0.01105442 0.05960012
v 0.00789036 -0.01105442 0.05960012
v 0.00789036 -0.01234239 0.05960012
v 0.00364397 -0.01234239 0.06180453
v 0.00364397 -0.01105442 0.06180453
v 0.00789036 -0.01105442 0.06179999
v 0.00789036 -0.01234239 0.06180453
v 0.00761849 -0.01105442 0.06180453
v 0.00789036 -0.01161387 0.06180453
f 3 4 1
f 5 6 2
f 9 11 12
f 8 4 3
f 3 7 8
f 2 7 3
f 3 1 2
f 2 10 7
f 6 10 2
f 2 4 5
f 2 1 4
f 4 8 11
f 5 4 11
f 11 9 5
f 12 10 6
f 5 9 12
f 12 6 5
f 12 8 7
f 7 10 12
f 12 11 8

