# https://github.com/mikedh/trimesh
v 0.00925257 0.00547844 0.06229805
v 0.00925257 0.00547844 0.06322704
v 0.00925257 0.00580210 0.06229805
v 0.02251781 0.00547844 0.06229805
v 0.00925257 0.00580210 0.06322704
v 0.02251651 0.00547844 0.06322704
v 0.02231395 0.00580210 0.06229805
v 0.02229967 0.00580210 0.06322704
v 0.02248015 0.00553369 0.06322704
v 0.02230876 0.00580210 0.06267428
f 4 7 6
f 9 6 7
f 8 9 10
f 10 9 7
f 1 3 7
f 7 4 1
f 1 4 6
f 6 2 1
f 5 3 1
f 1 2 5
f 2 6 9
f 8 5 9
f 9 5 2
f 10 7 3
f 3 5 10
f 10 5 8

