# https://github.com/mikedh/trimesh
v 0.00222928 -0.00060080 0.05490010
v 0.00217735 -0.00060080 0.05490468
v 0.00282483 -0.00000278 0.05490010
v 0.00363501 -0.00060080 0.05490010
v 0.00186079 -0.00060080 0.05493414
v 0.00363529 -0.00000278 0.05490010
v 0.00245855 -0.00000278 0.05493424
v 0.00363501 -0.00060080 0.05589639
v 0.00211769 -0.00000278 0.05503411
v 0.00151965 -0.00060080 0.05503411
v 0.00363529 -0.00000278 0.05589639
v 0.00081361 -0.00060080 0.05589639
v 0.00147684 -0.00060080 0.05505732
v 0.00123044 -0.00060080 0.05519114
v 0.00182516 -0.00000278 0.05519299
v 0.00141109 -0.00000278 0.05589639
v 0.00142297 -0.00000278 0.05576931
v 0.00083046 -0.00060080 0.05574970
v 0.00122713 -0.00060080 0.05519299
v 0.00170307 -0.00000278 0.05529120
v 0.00145888 -0.00000278 0.05564115
v 0.00086112 -0.00060080 0.05564115
v 0.00112299 -0.00060080 0.05527687
v 0.00160031 -0.00000278 0.05539995
v 0.00100228 -0.00060080 0.05539995
v 0.00151855 -0.00000278 0.05551719
v 0.00093267 -0.00060080 0.05549953
f 2 3 1
f 2 5 3
f 26 27 22
f 5 10 9
f 26 22 21
f 22 18 21
f 3 5 7
f 5 9 7
f 17 21 18
f 12 16 17
f 17 18 12
f 13 9 10
f 13 14 9
f 19 20 15
f 15 14 19
f 9 14 15
f 23 20 19
f 25 20 23
f 24 20 25
f 24 25 27
f 24 27 26
f 4 11 8
f 6 11 4
f 4 3 6
f 1 3 4
f 8 11 16
f 12 8 16
f 1 4 23
f 23 8 12
f 23 4 8
f 12 18 23
f 23 2 1
f 5 2 23
f 23 10 5
f 23 13 10
f 23 22 27
f 27 25 23
f 23 18 22
f 19 14 23
f 14 13 23
f 24 11 6
f 6 3 24
f 24 16 11
f 9 15 24
f 3 7 24
f 26 21 24
f 24 7 9
f 24 17 16
f 21 17 24
f 24 15 20

