# https://github.com/mikedh/trimesh
v 0.01096718 -0.01513060 0.03559999
v 0.01096718 -0.01513060 0.03560816
v 0.01096718 -0.01511871 0.03533847
v 0.01150012 -0.01513060 0.03559999
v 0.01150012 -0.01513060 0.03560816
v 0.01096718 -0.01449143 0.03560816
v 0.01150012 -0.01474553 0.03533768
v 0.01096718 -0.01449143 0.03533712
v 0.01150012 -0.01449143 0.03533712
v 0.01150012 -0.01449143 0.03560816
f 3 4 1
f 8 9 3
f 4 3 7
f 7 3 9
f 10 9 8
f 10 8 6
f 1 2 3
f 6 8 3
f 3 2 6
f 5 2 1
f 1 4 5
f 6 2 5
f 5 10 6
f 9 10 7
f 7 5 4
f 10 5 7

