# https://github.com/mikedh/trimesh
v 0.01028040 0.01514599 0.05666594
v 0.01028040 0.01511918 0.05666636
v 0.01028040 0.01550939 0.05666594
v 0.01095531 0.01511918 0.05666594
v 0.01028040 0.01511918 0.05720314
v 0.01028040 0.01550939 0.05720314
v 0.01101258 0.01550939 0.05666594
v 0.01097839 0.01511918 0.05666594
v 0.01096642 0.01511918 0.05720314
v 0.01040921 0.01550939 0.05720314
v 0.01041716 0.01550939 0.05719999
f 9 8 7
f 7 11 9
f 11 10 9
f 4 2 1
f 2 6 3
f 2 3 1
f 5 6 2
f 3 6 10
f 7 3 10
f 10 11 7
f 9 6 5
f 9 10 6
f 1 3 4
f 4 3 7
f 7 8 4
f 5 2 4
f 4 9 5
f 8 9 4

