# https://github.com/mikedh/trimesh
v 0.00711159 -0.01734981 0.05870463
v 0.00711159 -0.01542666 0.05870463
v 0.00778049 -0.01734981 0.05870463
v 0.00711159 -0.01734981 0.06630783
v 0.00789070 -0.01542666 0.05870463
v 0.00711159 -0.01542666 0.06909760
v 0.00789070 -0.01727262 0.05870463
v 0.00784280 -0.01730632 0.06681756
v 0.00778049 -0.01734981 0.06630783
v 0.00779612 -0.01733889 0.06656320
v 0.00711159 -0.01733663 0.06657643
v 0.00789070 -0.01542666 0.06909658
v 0.00711159 -0.01564599 0.06901112
v 0.00789070 -0.01565560 0.06900705
v 0.00789070 -0.01727262 0.06696102
v 0.00789070 -0.01722612 0.06716043
v 0.00711159 -0.01730463 0.06682468
v 0.00711159 -0.01732025 0.06670462
v 0.00711159 -0.01733569 0.06658457
v 0.00711159 -0.01568045 0.06899688
v 0.00789070 -0.01568120 0.06899586
v 0.00789070 -0.01710638 0.06749109
v 0.00711159 -0.01722273 0.06717060
v 0.00711159 -0.01722518 0.06716348
v 0.00711159 -0.01723497 0.06712177
v 0.00711159 -0.01571019 0.06898060
v 0.00789070 -0.01570341 0.06898365
v 0.00789070 -0.01710394 0.06749618
v 0.00711159 -0.01710375 0.06749720
v 0.00711159 -0.01710638 0.06749109
v 0.00711159 -0.01623734 0.06863569
v 0.00789070 -0.01623019 0.06863976
v 0.00789070 -0.01694975 0.06780446
v 0.00711159 -0.01709584 0.06751348
v 0.00711159 -0.01626125 0.06861941
v 0.00789070 -0.01626219 0.06861840
v 0.00789070 -0.01694560 0.06781158
v 0.00711159 -0.01695144 0.06780140
v 0.00711159 -0.01701940 0.06766609
v 0.00711159 -0.01627217 0.06861127
v 0.00789070 -0.01627217 0.06861127
v 0.00711159 -0.01694410 0.06781361
v 0.00789070 -0.01675526 0.06810053
v 0.00711159 -0.01690757 0.06786957
v 0.00711159 -0.01694014 0.06781972
v 0.00711159 -0.01627575 0.06860822
v 0.00789070 -0.01628045 0.06860415
v 0.00789070 -0.01674924 0.06810765
v 0.00711159 -0.01674849 0.06810867
v 0.00711159 -0.01675526 0.06810053
v 0.00711159 -0.01628478 0.06860008
v 0.00711159 -0.01628874 0.06859601
v 0.00711159 -0.01672646 0.06813309
f 4 10 11
f 8 7 15
f 8 3 7
f 9 10 4
f 3 8 9
f 9 8 10
f 30 23 22
f 52 53 47
f 47 53 48
f 18 8 17
f 44 43 50
f 16 23 24
f 16 22 23
f 16 8 15
f 24 25 16
f 16 25 17
f 17 8 16
f 48 53 49
f 49 43 48
f 50 43 49
f 40 41 35
f 26 31 32
f 32 27 26
f 52 47 51
f 19 11 10
f 10 8 19
f 8 18 19
f 43 44 37
f 37 42 38
f 37 38 33
f 30 22 29
f 33 34 28
f 34 29 28
f 28 29 22
f 33 38 39
f 39 34 33
f 31 35 36
f 36 35 41
f 36 32 31
f 21 20 26
f 26 27 21
f 46 51 47
f 46 47 41
f 46 41 40
f 45 37 44
f 42 37 45
f 13 20 14
f 20 21 14
f 14 12 6
f 6 13 14
f 5 2 12
f 2 6 12
f 3 2 5
f 1 2 3
f 5 7 3
f 1 3 9
f 9 4 1
f 45 2 1
f 45 6 2
f 50 49 45
f 1 4 45
f 45 18 17
f 45 13 6
f 45 23 30
f 17 25 45
f 38 42 45
f 26 20 45
f 4 11 45
f 24 23 45
f 40 35 45
f 45 44 50
f 45 53 52
f 45 31 26
f 45 25 24
f 45 39 38
f 11 19 45
f 30 29 45
f 45 49 53
f 45 35 31
f 45 20 13
f 52 51 45
f 45 19 18
f 45 46 40
f 45 29 34
f 34 39 45
f 51 46 45
f 14 7 5
f 5 12 14
f 15 7 14
f 48 43 14
f 14 47 48
f 14 36 41
f 33 28 14
f 14 37 33
f 14 16 15
f 41 47 14
f 22 16 14
f 27 32 14
f 43 37 14
f 14 28 22
f 32 36 14
f 14 21 27

