# https://github.com/mikedh/trimesh
v 0.00364527 0.01075519 0.05960000
v 0.00364527 0.01075519 0.06180595
v 0.00364527 0.01191118 0.05960000
v 0.00856867 0.01075519 0.05960000
v 0.00364527 0.01191118 0.06180595
v 0.00756862 0.01075519 0.06180595
v 0.00925202 0.01191118 0.05960000
v 0.00925202 0.01145664 0.05960000
v 0.00856867 0.01075519 0.06179990
v 0.00808017 0.01191118 0.06180595
v 0.00925202 0.01145664 0.06179990
v 0.00811585 0.01190926 0.06180595
v 0.00925202 0.01191118 0.06179990
f 10 12 13
f 11 6 9
f 12 6 11
f 13 12 11
f 1 2 5
f 5 3 1
f 1 3 8
f 8 3 7
f 8 4 1
f 3 5 10
f 7 3 10
f 10 13 7
f 6 2 1
f 1 4 6
f 4 9 6
f 6 5 2
f 6 10 5
f 12 10 6
f 7 13 11
f 11 8 7
f 4 8 11
f 11 9 4

