# https://github.com/mikedh/trimesh
v 0.00261635 0.01170358 0.06123422
v 0.00261635 0.01323346 0.06123422
v 0.00288632 0.01170358 0.06123422
v 0.00261635 0.01170358 0.06959999
v 0.00288632 0.01323346 0.06123422
v 0.00261635 0.01323346 0.06950581
v 0.00288632 0.01170358 0.06959999
v 0.00261635 0.01235013 0.06959999
v 0.00288632 0.01323346 0.06950663
v 0.00261635 0.01269055 0.06958116
v 0.00288632 0.01235013 0.06959999
v 0.00288632 0.01241603 0.06959917
v 0.00261635 0.01241543 0.06959917
v 0.00288632 0.01267947 0.06958198
v 0.00261635 0.01249840 0.06959426
v 0.00288632 0.01258347 0.06958853
v 0.00288632 0.01248702 0.06959508
f 9 6 10
f 9 10 14
f 16 14 10
f 17 13 12
f 15 13 17
f 17 16 15
f 15 16 10
f 11 12 8
f 8 12 13
f 1 2 5
f 5 3 1
f 1 3 7
f 7 4 1
f 6 5 2
f 9 5 6
f 3 5 12
f 12 7 3
f 12 5 9
f 12 11 7
f 12 16 17
f 9 14 12
f 14 16 12
f 8 2 1
f 1 4 8
f 8 6 2
f 8 10 6
f 8 15 10
f 13 15 8
f 4 7 8
f 7 11 8

