# https://github.com/mikedh/trimesh
v 0.00083160 0.01518476 0.06122272
v 0.00083160 0.01735000 0.06122272
v 0.00213629 0.01518476 0.06122272
v 0.00083160 0.01518476 0.06745360
v 0.00213629 0.01735000 0.06122272
v 0.00083160 0.01735000 0.06630807
v 0.00213629 0.01518476 0.06745360
v 0.00083160 0.01711622 0.06745360
v 0.00213629 0.01735000 0.06630807
v 0.00083160 0.01733347 0.06656548
v 0.00213629 0.01711749 0.06745360
v 0.00083160 0.01716116 0.06734319
v 0.00213629 0.01733050 0.06661122
v 0.00083160 0.01733156 0.06659293
v 0.00213629 0.01715564 0.06735905
v 0.00213629 0.01716031 0.06734563
v 0.00083160 0.01724085 0.06710286
v 0.00083160 0.01732584 0.06663745
v 0.00083160 0.01731694 0.06670577
v 0.00213629 0.01730952 0.06677104
v 0.00213629 0.01725102 0.06707176
v 0.00083160 0.01725081 0.06707237
v 0.00083160 0.01730592 0.06678934
v 0.00083160 0.01730062 0.06681740
v 0.00213629 0.01729892 0.06682594
v 0.00213629 0.01725399 0.06705712
v 0.00083160 0.01725611 0.06704553
f 15 12 11
f 8 11 12
f 10 9 6
f 10 13 9
f 16 12 15
f 26 22 21
f 13 10 14
f 21 22 17
f 17 16 21
f 12 16 17
f 26 25 24
f 24 25 20
f 20 23 24
f 20 13 19
f 19 23 20
f 22 26 27
f 26 24 27
f 13 14 18
f 18 19 13
f 1 2 5
f 5 3 1
f 1 3 7
f 7 4 1
f 4 7 8
f 7 11 8
f 9 5 2
f 2 6 9
f 3 5 25
f 25 7 3
f 15 11 25
f 25 11 7
f 5 9 25
f 9 13 25
f 25 13 20
f 25 16 15
f 21 16 25
f 25 26 21
f 18 2 1
f 1 4 18
f 18 6 2
f 4 8 18
f 18 8 12
f 18 10 6
f 18 24 23
f 12 17 18
f 18 14 10
f 18 17 22
f 23 19 18
f 22 27 18
f 18 27 24

