# https://github.com/mikedh/trimesh
v 0.00996089 -0.01582328 0.06631324
v 0.00996089 -0.01582294 0.06193052
v 0.01002276 -0.01577987 0.06193052
v 0.01023086 -0.01563401 0.06193052
v 0.01016073 -0.01568319 0.06899557
v 0.00996089 -0.01582328 0.06890398
v 0.00996089 -0.01255513 0.06193052
v 0.01023086 -0.01235806 0.06193052
v 0.01023086 -0.01563401 0.06901434
v 0.01023086 -0.01520900 0.06918175
v 0.00996089 -0.01521002 0.06918175
v 0.00996089 -0.01567743 0.06899782
v 0.00996089 -0.01568286 0.06899557
v 0.00996089 -0.01568591 0.06899407
v 0.00996219 -0.01244557 0.06193052
v 0.00996089 -0.01244557 0.06844604
v 0.00996089 -0.01244557 0.06959915
v 0.01023086 -0.01237162 0.06959990
v 0.01023086 -0.01520493 0.06918325
v 0.00996089 -0.01520425 0.06918325
v 0.00996089 -0.01266842 0.06958489
v 0.01023086 -0.01252833 0.06959240
v 0.01003718 -0.01243607 0.06959915
v 0.00996089 -0.01516524 0.06919226
v 0.01023086 -0.01495460 0.06923881
v 0.01023086 -0.01277188 0.06957663
v 0.00996089 -0.01377589 0.06949705
v 0.01023086 -0.01377657 0.06949705
v 0.00996089 -0.01484267 0.06926358
v 0.01023086 -0.01388342 0.06947528
v 0.00996089 -0.01389360 0.06947303
f 17 18 8
f 3 4 1
f 1 2 3
f 4 9 5
f 1 4 5
f 8 15 16
f 16 17 8
f 1 5 6
f 7 16 15
f 28 26 21
f 26 22 21
f 21 22 17
f 23 22 18
f 18 17 23
f 17 22 23
f 28 21 27
f 10 5 9
f 10 11 5
f 14 6 5
f 5 13 14
f 5 11 12
f 12 13 5
f 30 27 31
f 28 27 30
f 29 24 25
f 25 30 29
f 29 30 31
f 25 24 19
f 11 10 19
f 11 19 20
f 20 19 24
f 7 8 4
f 4 3 7
f 7 3 2
f 7 15 8
f 8 18 19
f 4 8 19
f 19 9 4
f 18 22 19
f 19 26 28
f 19 22 26
f 19 10 9
f 28 30 19
f 19 30 25
f 20 2 1
f 17 16 20
f 1 6 20
f 20 7 2
f 16 7 20
f 20 21 17
f 31 27 20
f 20 12 11
f 20 27 21
f 6 14 20
f 20 14 13
f 13 12 20
f 20 29 31
f 24 29 20

