# https://github.com/mikedh/trimesh
v -0.00178597 0.01262924 0.06958518
v -0.00178597 0.01287101 0.06956920
v -0.00247729 0.01289931 0.06956707
v -0.00247729 0.01262924 0.06958411
v -0.00178597 0.01262924 0.05870468
v -0.00178597 0.01292401 0.06955855
v -0.00247729 0.01292401 0.06956174
v -0.00247729 0.01262924 0.05870468
v -0.00178597 0.01292401 0.05870468
v -0.00247729 0.01292401 0.05870468
f 3 1 2
f 2 6 3
f 4 1 3
f 3 6 7
f 9 2 1
f 1 5 9
f 6 2 9
f 10 7 9
f 9 7 6
f 3 7 8
f 8 4 3
f 8 7 10
f 8 9 5
f 10 9 8
f 8 5 1
f 1 4 8

