# https://github.com/mikedh/trimesh
v 0.01369049 -0.01321169 0.06031840
v 0.01369049 -0.01224208 0.06031840
v 0.01411558 -0.01291412 0.06031840
v 0.01369238 -0.01321046 0.06193052
v 0.01369049 -0.01321169 0.06193052
v 0.01422511 -0.01224208 0.06031840
v 0.01369049 -0.01224208 0.06193052
v 0.01421543 -0.01284416 0.06031840
v 0.01422511 -0.01283742 0.06060010
v 0.01422511 -0.01283742 0.06193052
v 0.01422511 -0.01249353 0.06031840
v 0.01422511 -0.01224208 0.06193052
v 0.01422511 -0.01283457 0.06059774
f 1 4 5
f 3 4 1
f 3 9 4
f 3 8 9
f 4 9 10
f 8 11 13
f 9 8 13
f 4 10 7
f 7 5 4
f 7 10 12
f 6 2 7
f 7 12 6
f 7 2 1
f 1 5 7
f 11 2 6
f 1 2 11
f 11 3 1
f 8 3 11
f 12 10 13
f 6 12 13
f 13 10 9
f 13 11 6

