# https://github.com/mikedh/trimesh
v 0.01756165 0.01050092 0.06180595
v 0.01895836 0.00952257 0.06180595
v 0.01756165 0.01050092 0.06060019
v 0.01685087 0.01050092 0.06180595
v 0.01923973 0.00926992 0.06180595
v 0.01895836 0.00952257 0.06060019
v 0.01838544 0.00870362 0.05960000
v 0.01581803 0.01050092 0.05960000
v 0.01239295 0.01050092 0.06180487
v 0.01239408 0.01049989 0.06180595
v 0.02105454 0.00763853 0.06180595
v 0.02105454 0.00763853 0.06060019
v 0.02028387 0.00700024 0.05960000
v 0.01096573 0.01050092 0.05960000
v 0.01096460 0.01050092 0.06179990
v 0.01002895 0.00856307 0.06180595
v 0.02156531 0.00700881 0.06180595
v 0.02157322 0.00699921 0.06169992
v 0.02157209 0.00700024 0.06060019
v 0.02091329 0.00700024 0.06008152
v 0.02091442 0.00699921 0.06118104
v 0.02028274 0.00699921 0.06070017
v 0.01002895 0.00700024 0.05960000
v 0.01096460 0.01049989 0.05960000
v 0.01096460 0.01050092 0.06179709
v 0.01002895 0.00963055 0.06179990
v 0.01002895 0.00699921 0.06180595
v 0.02157096 0.00699921 0.06180595
v 0.01002895 0.00699921 0.06080856
v 0.01002895 0.00963055 0.05960000
f 7 6 13
f 10 15 16
f 23 13 22
f 22 29 23
f 16 15 26
f 7 8 3
f 3 6 7
f 15 10 9
f 12 13 6
f 18 19 12
f 12 11 18
f 21 22 13
f 21 19 18
f 14 24 25
f 25 24 30
f 17 28 18
f 18 11 17
f 4 9 10
f 13 12 20
f 20 12 19
f 20 21 13
f 19 21 20
f 6 2 5
f 11 12 5
f 5 12 6
f 26 30 23
f 26 27 16
f 23 29 26
f 29 27 26
f 7 13 24
f 24 8 7
f 24 13 23
f 23 30 24
f 14 8 24
f 1 2 3
f 3 2 6
f 21 27 29
f 18 28 21
f 29 22 21
f 28 27 21
f 30 26 25
f 25 26 15
f 4 8 14
f 1 3 4
f 14 25 4
f 4 3 8
f 15 9 4
f 4 25 15
f 5 10 16
f 5 2 1
f 16 27 5
f 28 17 5
f 5 27 28
f 1 4 5
f 5 17 11
f 5 4 10

