# https://github.com/mikedh/trimesh
v 0.01021045 -0.01649764 0.05432741
v 0.00286592 -0.01649764 0.05432741
v 0.01021045 -0.01703037 0.05432741
v 0.01021045 -0.01649764 0.04588643
v 0.00286592 -0.01735000 0.05432741
v 0.00286592 -0.01649764 0.04588643
v 0.00778025 -0.01735000 0.05432741
v 0.01021045 -0.01703037 0.04588643
v 0.00286592 -0.01735000 0.04588643
v 0.00777953 -0.01735000 0.04588643
f 8 3 7
f 10 8 7
f 1 4 6
f 2 1 6
f 3 1 2
f 2 5 3
f 5 7 3
f 2 6 9
f 9 5 2
f 8 4 1
f 1 3 8
f 10 6 4
f 10 9 6
f 4 8 10
f 10 7 5
f 5 9 10

