# https://github.com/mikedh/trimesh
v -0.00090502 0.00388683 0.03280000
v -0.00105516 0.00388683 0.03280000
v -0.00090502 0.00373224 0.03279951
v -0.00090502 0.00388683 0.02780498
v -0.00142545 0.00388683 0.03276577
v -0.00090502 0.00336609 0.03276577
v -0.00090502 0.00231864 0.02780498
v -0.00247321 0.00388683 0.02780498
v -0.00173755 0.00388683 0.03267434
v -0.00090502 0.00311601 0.03269243
v -0.00090502 0.00231864 0.03179816
v -0.00247321 0.00388683 0.03179669
v -0.00176626 0.00388683 0.03266554
v -0.00090502 0.00302513 0.03266554
v -0.00090502 0.00231925 0.03180354
v -0.00247214 0.00388683 0.03180598
v -0.00204413 0.00388683 0.03251495
v -0.00090502 0.00274327 0.03251250
v -0.00090502 0.00235226 0.03200694
v -0.00242547 0.00388683 0.03205681
v -0.00205902 0.00388683 0.03250664
v -0.00090502 0.00273283 0.03250664
v -0.00090502 0.00236653 0.03205730
v -0.00090502 0.00247707 0.03225532
v -0.00228576 0.00388683 0.03229688
v -0.00206531 0.00388683 0.03250175
v -0.00090502 0.00269537 0.03247681
v -0.00090502 0.00250808 0.03229981
v -0.00228377 0.00388683 0.03229981
v -0.00090502 0.00269092 0.03247290
f 4 7 8
f 23 20 19
f 16 19 20
f 15 12 11
f 15 16 12
f 19 16 15
f 2 5 6
f 14 10 9
f 13 14 9
f 9 10 6
f 6 5 9
f 24 20 23
f 29 24 28
f 29 28 30
f 30 26 29
f 1 2 3
f 3 2 6
f 27 26 30
f 27 22 26
f 17 14 13
f 20 24 25
f 24 29 25
f 26 22 21
f 14 17 18
f 17 21 18
f 18 21 22
f 7 11 12
f 8 7 12
f 1 4 21
f 21 4 8
f 21 16 20
f 13 9 21
f 8 12 21
f 12 16 21
f 21 2 1
f 21 17 13
f 5 2 21
f 21 9 5
f 21 29 26
f 20 25 21
f 21 25 29
f 7 4 18
f 18 4 1
f 18 11 7
f 23 19 18
f 18 24 23
f 18 27 30
f 18 10 14
f 18 15 11
f 6 10 18
f 30 28 18
f 19 15 18
f 1 3 18
f 28 24 18
f 18 3 6
f 22 27 18

