# https://github.com/mikedh/trimesh
v 0.01002669 0.01137081 0.05960000
v 0.01096418 0.01050092 0.06179709
v 0.01002669 0.01137081 0.06179990
v 0.01002669 0.01223935 0.05960000
v 0.01096565 0.01050092 0.05960000
v 0.01096418 0.01050092 0.06179990
v 0.01002669 0.01223935 0.06179990
v 0.01239291 0.01050109 0.06180595
v 0.01052236 0.01223935 0.06180595
v 0.01333630 0.01223935 0.05960000
v 0.01581832 0.01050092 0.05960000
v 0.01239291 0.01050092 0.06180487
v 0.01685096 0.01050092 0.06180595
v 0.01507925 0.01223935 0.06180595
v 0.01335253 0.01223935 0.05960928
v 0.01756201 0.01050092 0.06060019
v 0.01756201 0.01050092 0.06180595
v 0.01507925 0.01223935 0.06060019
f 5 2 1
f 16 11 15
f 11 10 15
f 9 7 3
f 3 8 9
f 16 15 18
f 6 12 8
f 6 8 3
f 8 12 13
f 11 5 10
f 1 4 10
f 10 5 1
f 7 4 1
f 1 3 7
f 18 10 4
f 4 7 18
f 18 9 14
f 18 15 10
f 7 9 18
f 18 17 16
f 14 17 18
f 6 3 1
f 1 2 6
f 16 17 13
f 13 11 16
f 2 5 13
f 13 5 11
f 13 6 2
f 12 6 13
f 14 9 13
f 13 17 14
f 13 9 8

