# https://github.com/mikedh/trimesh
v -0.00361866 0.01234549 0.05870362
v -0.00361866 0.01234549 0.05490000
v -0.00436470 0.01234549 0.05870362
v -0.00361866 0.00476552 0.05870362
v -0.00436470 0.01234549 0.05490000
v -0.00361866 0.00583851 0.05490000
v -0.00436470 0.00507421 0.05870362
v -0.00416819 0.00499258 0.05870362
v -0.00361866 0.00476552 0.05589893
v -0.00436470 0.00614720 0.05490000
v -0.00361866 0.00565300 0.05492271
v -0.00436470 0.00507421 0.05590005
v -0.00361866 0.00480188 0.05564129
v -0.00436470 0.00511057 0.05564129
v -0.00436470 0.00586968 0.05493426
v -0.00361866 0.00556025 0.05493426
v -0.00361866 0.00490873 0.05540003
v -0.00436470 0.00521816 0.05540003
v -0.00436470 0.00561070 0.05503404
v -0.00361866 0.00536731 0.05500872
v -0.00361866 0.00507940 0.05519302
v -0.00436470 0.00538883 0.05519302
v -0.00361866 0.00530201 0.05503404
f 8 9 4
f 14 9 12
f 12 8 7
f 9 8 12
f 18 17 14
f 19 23 21
f 13 9 14
f 14 17 13
f 15 16 19
f 20 23 19
f 19 16 20
f 11 10 6
f 11 15 10
f 16 15 11
f 19 21 22
f 3 1 5
f 1 2 5
f 10 5 2
f 2 6 10
f 8 4 1
f 8 1 3
f 3 7 8
f 1 4 11
f 11 2 1
f 11 6 2
f 9 13 11
f 4 9 11
f 11 21 23
f 23 20 11
f 17 21 11
f 11 13 17
f 11 20 16
f 22 7 3
f 3 5 22
f 22 12 7
f 22 15 19
f 5 10 22
f 14 12 22
f 22 18 14
f 10 15 22
f 22 21 17
f 17 18 22

