# https://github.com/mikedh/trimesh
v 0.00205819 0.01440141 0.04974321
v 0.00205819 0.01440141 0.05432696
v 0.00205819 0.01734971 0.04974321
v 0.01199212 0.01440141 0.04974321
v 0.00205819 0.01734971 0.05432696
v 0.01199212 0.01440141 0.05432696
v 0.00778010 0.01734971 0.04974321
v 0.01214202 0.01611110 0.04974321
v 0.00778010 0.01734971 0.05432696
v 0.01219959 0.01676865 0.05432696
v 0.00846506 0.01725994 0.04974321
v 0.01219959 0.01676865 0.04974321
v 0.01017846 0.01703450 0.05432696
v 0.01180748 0.01682032 0.04974321
f 9 11 7
f 10 6 8
f 6 4 8
f 8 12 10
f 10 12 14
f 11 9 13
f 13 14 11
f 10 14 13
f 1 2 5
f 5 3 1
f 4 2 1
f 4 6 2
f 3 5 9
f 9 7 3
f 1 3 14
f 3 7 14
f 14 4 1
f 12 8 14
f 7 11 14
f 14 8 4
f 13 5 2
f 13 6 10
f 2 6 13
f 13 9 5

