# https://github.com/mikedh/trimesh
v 0.01113483 -0.01440014 0.04392153
v 0.01107621 -0.01440014 0.04448843
v 0.01199220 -0.01440080 0.04448843
v 0.01199220 -0.01440080 0.04392153
v 0.00717732 -0.01440014 0.04392153
v 0.00717732 -0.01440014 0.04448843
v 0.01204605 -0.01501386 0.04448843
v 0.01204605 -0.01501386 0.04392153
v 0.00717732 -0.01501386 0.04392153
v 0.00717732 -0.01501386 0.04448843
f 1 2 3
f 1 3 4
f 6 10 7
f 7 3 6
f 6 3 2
f 6 1 5
f 6 2 1
f 9 6 5
f 10 6 9
f 7 10 9
f 9 8 7
f 5 1 4
f 4 9 5
f 8 9 4
f 4 3 7
f 7 8 4

