# https://github.com/mikedh/trimesh
v 0.02168320 -0.00680593 0.06364418
v 0.02167857 -0.00680593 0.06404855
v 0.02161552 -0.00689900 0.06404855
v 0.02144584 -0.00714945 0.06404855
v 0.02144491 -0.00715740 0.06364418
v 0.01221074 -0.00680593 0.06364418
v 0.01221074 -0.00680593 0.06404855
v 0.02141802 -0.00718993 0.06404855
v 0.02105455 -0.00763862 0.06404855
v 0.02105455 -0.00763862 0.06364418
v 0.01221074 -0.01032056 0.06364418
v 0.01221074 -0.01032056 0.06404855
v 0.02086354 -0.00781038 0.06404855
v 0.01920475 -0.00930173 0.06404855
v 0.01895904 -0.00952230 0.06364418
v 0.01222002 -0.01067051 0.06364418
v 0.01222002 -0.01067051 0.06404855
v 0.01895904 -0.00952230 0.06404855
v 0.01820892 -0.01004779 0.06404855
v 0.01811156 -0.01011589 0.06364418
v 0.01731972 -0.01067051 0.06364418
v 0.01731972 -0.01067051 0.06404855
v 0.01740131 -0.01061338 0.06404855
f 20 19 21
f 15 19 20
f 23 22 21
f 21 19 23
f 15 10 14
f 18 19 15
f 15 14 18
f 10 5 9
f 13 14 10
f 10 9 13
f 8 9 5
f 4 8 5
f 4 5 1
f 1 2 3
f 3 4 1
f 7 1 6
f 7 2 1
f 6 11 7
f 7 11 12
f 17 11 16
f 12 11 17
f 16 21 17
f 21 22 17
f 20 11 6
f 6 1 20
f 20 21 16
f 16 11 20
f 1 5 20
f 20 10 15
f 20 5 10
f 2 7 3
f 3 7 12
f 22 23 3
f 12 17 3
f 3 17 22
f 3 23 19
f 19 18 3
f 3 18 14
f 14 13 3
f 3 13 9
f 9 8 3
f 8 4 3

