# https://github.com/mikedh/trimesh
v 0.02219340 0.00201980 0.06145313
v 0.02276969 0.00201980 0.06145313
v 0.02219340 0.00201980 0.06199991
v 0.02219340 0.00537594 0.06145313
v 0.02276969 0.00201980 0.06199991
v 0.02276969 0.00450167 0.06145313
v 0.02219340 0.00537594 0.06199991
v 0.02229590 0.00537594 0.06145313
v 0.02276969 0.00504279 0.06199991
v 0.02241566 0.00519228 0.06145313
v 0.02276969 0.00496558 0.06166476
v 0.02258720 0.00537594 0.06199991
v 0.02259076 0.00537594 0.06170003
v 0.02276969 0.00504279 0.06170003
v 0.02263526 0.00530497 0.06199991
v 0.02263526 0.00530497 0.06170003
f 10 8 13
f 16 10 13
f 6 10 11
f 11 16 14
f 10 16 11
f 13 12 15
f 15 16 13
f 1 2 5
f 5 3 1
f 7 4 1
f 1 3 7
f 4 7 12
f 12 8 4
f 13 8 12
f 1 4 10
f 10 2 1
f 10 6 2
f 4 8 10
f 2 6 11
f 11 5 2
f 9 5 11
f 11 14 9
f 3 5 15
f 15 5 9
f 15 7 3
f 15 12 7
f 9 14 15
f 14 16 15

