# https://github.com/mikedh/trimesh
v -0.00242556 -0.00749110 0.06959999
v -0.00242556 -0.00663030 0.06949718
v -0.00296994 -0.00771721 0.06959999
v -0.00296994 -0.01238353 0.06959857
v -0.00242556 -0.01241658 0.06959761
v -0.00296994 -0.00688417 0.06949718
v -0.00242556 -0.00572718 0.06919731
v -0.00296994 -0.01273657 0.06957619
v -0.00242556 -0.01293888 0.06956239
v -0.00296994 -0.00616089 0.06921873
v -0.00242556 -0.00495100 0.06872084
v -0.00296994 -0.01297326 0.06956001
v -0.00242556 -0.01354581 0.06951669
v -0.00296994 -0.00536884 0.06872084
v -0.00296994 -0.00503960 0.06837860
v -0.00242556 -0.00435466 0.06809920
v -0.00296994 -0.01372696 0.06950289
v -0.00242556 -0.01374151 0.06950194
v -0.00296994 -0.00494175 0.06827626
v -0.00242556 -0.00397913 0.06736903
v -0.00296994 -0.00439829 0.06737617
v -0.00296994 -0.00455961 0.06768889
v -0.00296994 -0.00477250 0.06809920
v -0.00296994 -0.01418315 0.06941103
v -0.00242556 -0.01436298 0.06937437
v -0.00242556 -0.00384161 0.06660554
v -0.00296994 -0.00432821 0.06695634
v -0.00296994 -0.01437884 0.06937057
v -0.00296994 -0.01525022 0.06916637
v -0.00242556 -0.01526080 0.06916208
v -0.00242556 -0.00384161 0.06473727
v -0.00296994 -0.00427003 0.06660030
v -0.00296994 -0.01553055 0.06905832
v -0.00242556 -0.01554509 0.06905213
v -0.00296994 -0.00427003 0.06473727
v -0.00242556 -0.01734868 0.06473727
v -0.00296994 -0.01566939 0.06900120
v -0.00242556 -0.01567203 0.06899977
v -0.00296994 -0.01734868 0.06473727
v -0.00242556 -0.01734868 0.06630900
v -0.00296994 -0.01579765 0.06893028
v -0.00242556 -0.01579632 0.06893123
v -0.00296994 -0.01734868 0.06630900
v -0.00242556 -0.01730372 0.06675785
v -0.00296994 -0.01609913 0.06873274
v -0.00242556 -0.01593120 0.06884222
v -0.00296994 -0.01729182 0.06685020
v -0.00242556 -0.01728256 0.06691684
v -0.00296994 -0.01623135 0.06864135
v -0.00242556 -0.01623400 0.06863897
v -0.00296994 -0.01721645 0.06718101
v -0.00242556 -0.01721381 0.06719529
v -0.00296994 -0.01639796 0.06848951
v -0.00242556 -0.01635433 0.06853330
v -0.00296994 -0.01710009 0.06750088
v -0.00242556 -0.01709348 0.06751325
v -0.00296994 -0.01672589 0.06813252
v -0.00242556 -0.01666374 0.06820772
v -0.00296994 -0.01704191 0.06762083
v -0.00242556 -0.01697976 0.06774696
v -0.00242556 -0.01675365 0.06810015
v -0.00296994 -0.01685811 0.06794307
v -0.00296994 -0.01694406 0.06780979
v -0.00242556 -0.01687266 0.06791927
f 3 1 2
f 4 5 1
f 4 1 3
f 6 2 7
f 3 2 6
f 15 11 16
f 9 5 8
f 5 4 8
f 24 25 18
f 16 23 19
f 19 15 16
f 7 11 10
f 10 6 7
f 52 56 55
f 44 43 40
f 29 30 25
f 24 18 17
f 11 15 14
f 14 10 11
f 27 26 32
f 27 21 26
f 20 21 16
f 26 21 20
f 22 23 16
f 16 21 22
f 48 52 51
f 51 52 55
f 47 44 48
f 43 44 47
f 48 51 47
f 28 25 24
f 28 29 25
f 30 29 33
f 12 17 18
f 9 8 12
f 54 50 49
f 30 33 34
f 37 42 38
f 41 42 37
f 38 34 37
f 37 34 33
f 9 12 13
f 13 12 18
f 57 61 58
f 54 49 53
f 53 58 54
f 57 58 53
f 45 49 50
f 45 42 41
f 62 61 57
f 46 45 50
f 42 45 46
f 63 60 64
f 64 62 63
f 61 62 64
f 59 60 63
f 56 60 59
f 55 56 59
f 39 31 36
f 39 35 31
f 31 35 26
f 35 32 26
f 43 39 36
f 36 40 43
f 36 31 64
f 1 5 64
f 16 11 64
f 64 44 40
f 64 40 36
f 64 2 1
f 64 5 9
f 7 2 64
f 64 11 7
f 64 34 38
f 31 26 64
f 54 58 64
f 64 20 16
f 56 52 64
f 25 30 64
f 64 18 25
f 38 42 64
f 64 52 48
f 48 44 64
f 64 50 54
f 26 20 64
f 64 60 56
f 9 13 64
f 30 34 64
f 64 13 18
f 64 58 61
f 64 46 50
f 42 46 64
f 35 39 59
f 24 17 59
f 59 32 35
f 43 47 59
f 59 4 3
f 6 10 59
f 39 43 59
f 59 27 32
f 3 6 59
f 59 19 23
f 23 22 59
f 59 8 4
f 15 19 59
f 41 37 59
f 59 14 15
f 59 28 24
f 57 53 59
f 59 12 8
f 10 14 59
f 21 27 59
f 59 22 21
f 59 51 55
f 59 47 51
f 29 28 59
f 59 33 29
f 17 12 59
f 59 62 57
f 59 37 33
f 59 45 41
f 59 53 49
f 49 45 59
f 63 62 59

