# https://github.com/mikedh/trimesh
v 0.00443720 -0.00124381 0.06197169
v 0.00443720 0.00002060 0.06197169
v 0.00499158 -0.00124381 0.06197169
v 0.00443720 -0.00124381 0.06959999
v 0.00499158 0.00002060 0.06197169
v 0.00443720 0.00002060 0.06940807
v 0.00499158 -0.00124381 0.06959999
v 0.00443720 -0.00121893 0.06959999
v 0.00499158 0.00002060 0.06953950
v 0.00443720 0.00001837 0.06946707
v 0.00453305 0.00002060 0.06949619
v 0.00499158 -0.00066440 0.06959999
v 0.00453734 0.00002060 0.06949768
v 0.00443720 -0.00012101 0.06949768
f 14 13 10
f 11 6 10
f 10 13 11
f 13 14 8
f 8 12 9
f 9 13 8
f 1 2 5
f 5 3 1
f 1 3 7
f 7 4 1
f 3 5 12
f 12 7 3
f 12 5 9
f 11 5 2
f 9 5 11
f 2 6 11
f 11 13 9
f 8 2 1
f 1 4 8
f 8 6 2
f 10 6 8
f 8 14 10
f 4 7 8
f 7 12 8

