# https://github.com/mikedh/trimesh
v 0.01023207 0.01485638 0.03534637
v 0.01063178 0.01485638 0.03534637
v 0.01023207 0.01485638 0.03564590
v 0.01023207 0.01563335 0.03534637
v 0.01063178 0.01485638 0.03564590
v 0.01063178 0.01535346 0.03534637
v 0.01023207 0.01563809 0.03564590
v 0.01023207 0.01567663 0.03559999
v 0.01063178 0.01567663 0.03559999
v 0.01063178 0.01535844 0.03564590
v 0.01063178 0.01567663 0.03564532
v 0.01023207 0.01567663 0.03564517
f 9 4 8
f 9 6 4
f 11 12 7
f 7 10 11
f 5 3 1
f 1 2 5
f 1 4 6
f 6 2 1
f 8 12 9
f 9 12 11
f 10 5 2
f 10 9 11
f 2 6 10
f 6 9 10
f 7 4 1
f 1 3 7
f 8 4 7
f 7 12 8
f 3 5 7
f 5 10 7

