# https://github.com/mikedh/trimesh
v 0.00223959 -0.01151206 0.02578671
v 0.00204434 -0.01051135 0.02574957
v 0.00204434 -0.01051135 0.02578671
v 0.00223959 -0.01151333 0.02578671
v 0.00223959 -0.01151245 0.01630093
v 0.00204369 -0.01051135 0.01630093
v -0.00436470 -0.01051135 0.02578671
v -0.00436470 -0.01151333 0.02578671
v 0.00223959 -0.01151333 0.01630093
v -0.00436470 -0.01051135 0.01630093
v -0.00436470 -0.01151333 0.01630093
f 5 2 1
f 1 2 3
f 2 5 6
f 7 3 6
f 6 10 7
f 6 3 2
f 4 3 7
f 1 3 4
f 7 8 4
f 7 10 11
f 11 8 7
f 10 6 9
f 9 6 5
f 9 11 10
f 1 4 9
f 9 5 1
f 9 4 8
f 8 11 9

