# https://github.com/mikedh/trimesh
v 0.00675576 0.01440141 0.03564626
v 0.00675576 0.01440141 0.03924365
v 0.00675576 0.01734971 0.03564626
v 0.01141860 0.01440141 0.03564626
v 0.00675576 0.01734971 0.03924365
v 0.01141860 0.01440141 0.03924365
v 0.00778064 0.01734971 0.03564626
v 0.01141860 0.01687141 0.03564626
v 0.00778064 0.01734971 0.03924365
v 0.01141860 0.01687141 0.03924365
v 0.00778657 0.01734913 0.03564626
v 0.01118897 0.01690172 0.03924365
v 0.00778566 0.01734913 0.03924365
v 0.00824720 0.01728852 0.03924365
v 0.01030881 0.01701747 0.03924365
f 11 7 9
f 14 15 11
f 10 8 12
f 8 11 12
f 11 15 12
f 11 9 13
f 13 14 11
f 1 4 6
f 6 2 1
f 4 8 6
f 6 8 10
f 5 3 1
f 1 2 5
f 1 3 7
f 7 4 1
f 7 8 4
f 7 11 8
f 3 5 9
f 9 7 3
f 2 6 13
f 13 6 10
f 13 5 2
f 13 9 5
f 10 12 13
f 15 14 13
f 13 12 15

