# https://github.com/mikedh/trimesh
v -0.00198481 -0.01735000 0.05870362
v -0.00198481 -0.01203734 0.05870362
v -0.00138895 -0.01735000 0.05870362
v -0.00198481 -0.01735000 0.06630815
v -0.00138895 -0.01203734 0.05870362
v -0.00198481 -0.01203734 0.06646464
v -0.00138895 -0.01735000 0.06630815
v -0.00198481 -0.01733024 0.06645781
v -0.00138895 -0.01203734 0.06646464
v -0.00198481 -0.01732920 0.06646464
v -0.00138895 -0.01732920 0.06646464
f 8 4 7
f 10 8 11
f 11 8 7
f 1 2 5
f 5 3 1
f 1 3 4
f 3 7 4
f 9 5 2
f 2 6 9
f 8 2 1
f 8 6 2
f 8 10 6
f 1 4 8
f 3 5 11
f 11 7 3
f 5 9 11
f 6 10 11
f 11 9 6

