# https://github.com/mikedh/trimesh
v 0.00363752 0.01234397 0.02580000
v 0.00363752 0.01234397 0.02779588
v 0.00363752 0.01340872 0.02580000
v 0.00678172 0.01234397 0.02580000
v 0.00363906 0.01234397 0.02779983
v 0.00363752 0.01235001 0.02782120
v 0.00363752 0.01340872 0.02782120
v 0.00678172 0.01340872 0.02580000
v 0.00678172 0.01234397 0.02779983
v 0.00367692 0.01234907 0.02782120
v 0.00678172 0.01340872 0.02782120
v 0.00678172 0.01235001 0.02782120
f 2 5 6
f 5 9 10
f 6 5 10
f 10 9 12
f 1 3 8
f 8 4 1
f 7 8 3
f 11 8 7
f 2 3 1
f 2 7 3
f 6 7 2
f 4 8 9
f 9 8 11
f 11 12 9
f 1 4 9
f 9 2 1
f 5 2 9
f 10 12 11
f 11 7 10
f 10 7 6

