# https://github.com/mikedh/trimesh
v 0.00794490 0.01732839 0.03564423
v 0.00794490 0.01732839 0.03559999
v 0.00794490 0.01723834 0.03564590
v 0.00861102 0.01724073 0.03564450
v 0.00794490 0.01723493 0.03534637
v 0.00861102 0.01724073 0.03559999
v 0.00794490 0.01687588 0.03564590
v 0.00846291 0.01687588 0.03564590
v 0.00861102 0.01687588 0.03564453
v 0.00794490 0.01687588 0.03534637
v 0.00796192 0.01722301 0.03534637
v 0.00861102 0.01687588 0.03559999
v 0.00845763 0.01687588 0.03534637
v 0.00822735 0.01703716 0.03534637
f 3 4 1
f 2 6 5
f 14 6 13
f 8 3 7
f 4 3 8
f 8 9 4
f 13 6 12
f 5 6 11
f 6 14 11
f 2 3 1
f 2 10 7
f 7 3 2
f 5 10 2
f 1 4 2
f 4 6 2
f 7 10 12
f 12 10 13
f 12 8 7
f 9 8 12
f 12 6 4
f 4 9 12
f 11 10 5
f 13 10 11
f 11 14 13

