# https://github.com/mikedh/trimesh
v 0.01389512 0.00920039 0.01974121
v 0.01378479 0.00928497 0.01974121
v 0.01491421 0.00920039 0.01974121
v 0.01389512 0.00920039 0.02572593
v 0.01378479 0.01314576 0.01974121
v 0.01378479 0.00928497 0.02572593
v 0.01491421 0.01235475 0.01974121
v 0.01491421 0.00920039 0.02572593
v 0.01378479 0.01314576 0.02572593
v 0.01491421 0.01235475 0.02572593
f 2 1 6
f 6 1 4
f 7 1 2
f 2 5 7
f 3 1 7
f 8 1 3
f 4 1 8
f 3 7 8
f 8 7 10
f 9 6 4
f 9 8 10
f 4 8 9
f 9 7 5
f 10 7 9
f 9 5 2
f 2 6 9

