# https://github.com/mikedh/trimesh
v 0.01287861 -0.01067051 0.06315484
v 0.01287861 -0.01067051 0.06364418
v 0.01287861 -0.01031254 0.06315484
v 0.01731960 -0.01067051 0.06315484
v 0.01287861 -0.01031254 0.06364418
v 0.01731960 -0.01067051 0.06364418
v 0.01783061 -0.01031254 0.06315484
v 0.01743693 -0.01058837 0.06315484
v 0.01783061 -0.01031254 0.06364418
v 0.01775013 -0.01036900 0.06315484
v 0.01781752 -0.01032179 0.06315484
f 7 9 11
f 6 11 9
f 8 6 4
f 11 6 10
f 6 8 10
f 1 2 5
f 5 3 1
f 3 5 9
f 7 3 9
f 6 2 1
f 1 4 6
f 6 5 2
f 6 9 5
f 1 3 10
f 10 3 7
f 10 4 1
f 7 11 10
f 10 8 4

