# https://github.com/mikedh/trimesh
v 0.00555277 -0.01235036 0.02787228
v 0.00555277 -0.01112302 0.02779980
v 0.00529765 -0.01091788 0.02779980
v 0.00423046 -0.01235036 0.02787228
v 0.00555277 -0.01890959 0.02787228
v 0.00555277 -0.01112302 0.02580019
v 0.00529765 -0.01091788 0.02580019
v 0.00423046 -0.01091788 0.02779980
v 0.00423046 -0.01983578 0.02787228
v 0.00553064 -0.01892531 0.02578671
v 0.00555277 -0.01890959 0.02578671
v 0.00555277 -0.01418876 0.02578671
v 0.00423046 -0.01091788 0.02580019
v 0.00423046 -0.01381078 0.02578671
v 0.00423046 -0.01983578 0.02578671
f 9 10 5
f 2 3 1
f 15 10 9
f 11 5 10
f 7 6 12
f 12 14 7
f 7 14 13
f 4 9 5
f 5 1 4
f 4 1 8
f 1 3 8
f 7 3 2
f 2 6 7
f 12 15 14
f 10 15 12
f 12 11 10
f 1 5 12
f 12 2 1
f 6 2 12
f 5 11 12
f 13 9 4
f 4 8 13
f 13 15 9
f 14 15 13
f 13 8 3
f 13 3 7

