# https://github.com/mikedh/trimesh
v 0.00234634 0.01234963 0.06959999
v 0.00234634 0.01241423 0.06959972
v 0.00189177 0.01234963 0.06959999
v 0.00234634 0.00488035 0.06959999
v 0.00234634 0.01270126 0.06958085
v 0.00189177 0.01245921 0.06959676
v 0.00189177 0.01241341 0.06959972
v 0.00189177 0.00488035 0.06959999
v 0.00234634 0.00488035 0.06684536
v 0.00189177 0.01272007 0.06957950
v 0.00189177 0.01257778 0.06958894
v 0.00234634 0.01323361 0.06950508
v 0.00189177 0.00488035 0.06684779
v 0.00234634 0.01323361 0.06684536
v 0.00189239 0.00488035 0.06684536
v 0.00192746 0.01323361 0.06950373
v 0.00189177 0.01323361 0.06950346
v 0.00189177 0.00516819 0.06684536
v 0.00189177 0.01323361 0.06684536
f 3 1 2
f 10 5 12
f 15 13 18
f 17 10 16
f 16 10 12
f 6 2 5
f 5 10 11
f 11 6 5
f 3 2 7
f 2 6 7
f 8 4 1
f 8 1 3
f 4 9 2
f 1 4 2
f 9 14 2
f 14 12 2
f 12 5 2
f 15 9 4
f 4 8 15
f 8 13 15
f 15 14 9
f 18 19 15
f 15 19 14
f 16 12 14
f 14 19 16
f 16 19 17
f 7 8 3
f 7 19 18
f 7 13 8
f 18 13 7
f 17 19 7
f 7 10 17
f 7 11 10
f 6 11 7

