# https://github.com/mikedh/trimesh
v 0.00176027 -0.00898559 0.06887043
v 0.00176027 -0.00898559 0.06646058
v 0.00138821 -0.00898559 0.06887043
v 0.00176027 -0.01588431 0.06887043
v 0.00138821 -0.00898559 0.06646058
v 0.00176027 -0.01733006 0.06646058
v 0.00138821 -0.01588513 0.06887043
v 0.00176027 -0.01605012 0.06876240
v 0.00138821 -0.01733006 0.06646058
v 0.00176027 -0.01732025 0.06665047
v 0.00138821 -0.01605421 0.06876004
v 0.00176027 -0.01615794 0.06869186
v 0.00138821 -0.01731780 0.06668538
v 0.00176027 -0.01731862 0.06667830
v 0.00138821 -0.01613017 0.06871026
v 0.00176027 -0.01622084 0.06865058
v 0.00176027 -0.01731535 0.06670661
v 0.00138821 -0.01730637 0.06677478
v 0.00138821 -0.01621594 0.06865389
v 0.00138821 -0.01622002 0.06865082
v 0.00138821 -0.01624126 0.06863478
v 0.00176027 -0.01623227 0.06864185
v 0.00176027 -0.01729330 0.06687645
v 0.00138821 -0.01729248 0.06687999
v 0.00138821 -0.01627148 0.06861143
v 0.00176027 -0.01624942 0.06862864
v 0.00176027 -0.01721897 0.06718169
v 0.00138821 -0.01721897 0.06718311
v 0.00176027 -0.01627148 0.06861143
v 0.00138821 -0.01629516 0.06859043
v 0.00176027 -0.01627556 0.06860812
v 0.00176027 -0.01720998 0.06720694
v 0.00176027 -0.01711932 0.06745651
v 0.00138821 -0.01710625 0.06749213
v 0.00138821 -0.01631722 0.06857062
v 0.00176027 -0.01629680 0.06858902
v 0.00176027 -0.01710625 0.06749213
v 0.00138821 -0.01708338 0.06754072
v 0.00138821 -0.01632947 0.06855835
v 0.00176027 -0.01631804 0.06856967
v 0.00176027 -0.01708828 0.06752987
v 0.00176027 -0.01704826 0.06761054
v 0.00176027 -0.01703274 0.06764168
v 0.00138821 -0.01696413 0.06777873
v 0.00176027 -0.01638583 0.06849867
v 0.00176027 -0.01632784 0.06855953
v 0.00138821 -0.01655818 0.06831703
v 0.00176027 -0.01698781 0.06773132
v 0.00176027 -0.01696331 0.06778015
v 0.00176027 -0.01695841 0.06778935
v 0.00138821 -0.01695269 0.06779902
v 0.00176027 -0.01663087 0.06823966
v 0.00138821 -0.01669540 0.06817125
v 0.00176027 -0.01663822 0.06823188
v 0.00176027 -0.01693390 0.06782874
v 0.00138821 -0.01690042 0.06787993
v 0.00176027 -0.01669867 0.06816748
v 0.00138821 -0.01672154 0.06814082
v 0.00176027 -0.01670765 0.06815710
v 0.00176027 -0.01687591 0.06791744
v 0.00138821 -0.01687101 0.06792498
v 0.00138821 -0.01675502 0.06810096
v 0.00176027 -0.01675502 0.06810096
v 0.00176027 -0.01677545 0.06807029
f 8 4 7
f 55 51 50
f 34 37 38
f 28 23 27
f 10 9 6
f 35 39 40
f 58 62 63
f 50 51 44
f 32 28 27
f 23 28 24
f 36 35 40
f 31 35 36
f 30 31 25
f 30 35 31
f 25 26 21
f 16 12 15
f 15 19 16
f 40 39 46
f 39 45 46
f 47 45 39
f 60 61 55
f 51 55 56
f 55 61 56
f 59 58 63
f 41 38 37
f 41 42 38
f 43 44 38
f 38 42 43
f 28 32 33
f 34 28 33
f 33 37 34
f 18 17 23
f 23 24 18
f 25 31 29
f 29 26 25
f 16 19 20
f 20 21 16
f 16 21 22
f 22 21 26
f 11 12 8
f 11 15 12
f 11 8 7
f 45 47 52
f 53 59 57
f 58 59 53
f 61 60 64
f 62 61 64
f 63 62 64
f 50 44 49
f 14 17 13
f 17 18 13
f 13 10 14
f 9 10 13
f 54 53 57
f 47 53 54
f 54 52 47
f 44 43 48
f 48 49 44
f 1 2 5
f 3 1 5
f 4 1 3
f 3 7 4
f 9 5 2
f 9 2 6
f 3 5 13
f 13 7 3
f 5 9 13
f 13 20 19
f 39 35 13
f 25 21 13
f 13 44 51
f 13 47 39
f 34 38 13
f 13 28 34
f 51 56 13
f 13 30 25
f 13 61 62
f 62 58 13
f 38 44 13
f 13 24 28
f 35 30 13
f 58 53 13
f 19 15 13
f 13 11 7
f 13 56 61
f 13 18 24
f 21 20 13
f 15 11 13
f 13 53 47
f 48 2 1
f 6 2 48
f 1 4 48
f 48 12 16
f 4 8 48
f 48 29 31
f 23 17 48
f 27 23 48
f 48 55 50
f 48 36 40
f 48 10 6
f 40 46 48
f 50 49 48
f 48 41 37
f 8 12 48
f 14 10 48
f 48 17 14
f 48 32 27
f 16 22 48
f 48 59 63
f 63 64 48
f 37 33 48
f 31 36 48
f 48 46 45
f 48 60 55
f 57 59 48
f 42 41 48
f 48 43 42
f 48 33 32
f 26 29 48
f 48 22 26
f 45 52 48
f 48 64 60
f 48 54 57
f 52 54 48

