# https://github.com/mikedh/trimesh
v 0.00985650 -0.01556703 0.03560816
v 0.00985650 -0.01556703 0.03533712
v 0.00892375 -0.01556703 0.03560816
v 0.00985650 -0.01614755 0.03560816
v 0.00985650 -0.01589633 0.03533712
v 0.00892375 -0.01556703 0.03533712
v 0.00892375 -0.01614755 0.03560816
v 0.00985650 -0.01614755 0.03559999
v 0.00949777 -0.01614755 0.03533712
v 0.00892375 -0.01614755 0.03533712
f 9 5 8
f 7 4 1
f 7 1 3
f 3 1 6
f 1 2 6
f 6 7 3
f 10 7 6
f 5 6 2
f 10 6 5
f 5 9 10
f 4 7 8
f 8 7 10
f 10 9 8
f 1 4 8
f 8 2 1
f 8 5 2

