# https://github.com/mikedh/trimesh
v -0.00198481 -0.00495238 0.05870362
v -0.00198481 -0.00339847 0.05870362
v -0.00138895 -0.00495238 0.05870362
v -0.00198481 -0.00495238 0.06893100
v -0.00138895 -0.00280242 0.05870362
v -0.00198481 -0.00339847 0.06659930
v -0.00138895 -0.00495238 0.06920550
v -0.00142371 -0.00495238 0.06919521
v -0.00138895 -0.00492355 0.06919727
v -0.00138895 -0.00404504 0.06872127
v -0.00198481 -0.00494902 0.06892894
v -0.00138895 -0.00280242 0.06659930
v -0.00198481 -0.00340289 0.06664865
v -0.00141217 -0.00495238 0.06919933
v -0.00141870 -0.00495238 0.06919727
v -0.00138895 -0.00400379 0.06868734
v -0.00198481 -0.00461037 0.06872127
v -0.00138895 -0.00281252 0.06670828
v -0.00198481 -0.00344793 0.06688922
v -0.00138895 -0.00342604 0.06815788
v -0.00198481 -0.00398085 0.06811470
v -0.00198481 -0.00353128 0.06733438
v -0.00138895 -0.00291860 0.06727475
v -0.00138895 -0.00337090 0.06809928
v -0.00198481 -0.00396653 0.06809928
v -0.00198481 -0.00354286 0.06737551
v -0.00138895 -0.00294701 0.06737551
v -0.00138895 -0.00332081 0.06802731
v -0.00198481 -0.00395370 0.06808077
v -0.00198481 -0.00356096 0.06741354
v -0.00138895 -0.00299079 0.06746701
v -0.00198481 -0.00356496 0.06742074
f 22 23 18
f 9 10 4
f 12 6 13
f 13 18 12
f 8 9 4
f 20 17 16
f 16 17 10
f 21 17 20
f 4 10 11
f 10 17 11
f 22 18 19
f 18 13 19
f 7 9 14
f 24 28 25
f 25 21 24
f 24 21 20
f 29 28 31
f 31 32 29
f 25 28 29
f 26 27 23
f 26 23 22
f 9 8 15
f 15 14 9
f 31 27 30
f 27 26 30
f 30 32 31
f 2 5 3
f 2 3 1
f 5 2 6
f 6 12 5
f 3 5 24
f 24 7 3
f 5 12 24
f 24 18 23
f 24 9 7
f 23 27 24
f 12 18 24
f 10 9 24
f 20 16 24
f 31 28 24
f 24 27 31
f 24 16 10
f 1 3 15
f 3 7 15
f 15 4 1
f 15 8 4
f 7 14 15
f 30 2 1
f 1 4 30
f 30 21 25
f 30 6 2
f 4 11 30
f 25 29 30
f 30 13 6
f 22 19 30
f 17 21 30
f 30 11 17
f 30 19 13
f 30 29 32
f 30 26 22

