# https://github.com/mikedh/trimesh
v -0.00034730 -0.01297739 0.06955989
v 0.00005237 -0.01297739 0.06646561
v -0.00034730 -0.01297739 0.06646561
v -0.00034730 -0.01364742 0.06950900
v 0.00005237 -0.01372410 0.06950325
v 0.00005237 -0.01300337 0.06955777
v 0.00005237 -0.01732859 0.06646561
v -0.00034730 -0.01732859 0.06646561
v -0.00034730 -0.01377436 0.06949598
v 0.00005237 -0.01380333 0.06949022
v 0.00005237 -0.01731069 0.06673063
v -0.00034730 -0.01731155 0.06671852
v -0.00034730 -0.01428211 0.06939179
v 0.00005237 -0.01393452 0.06946327
v 0.00005237 -0.01729238 0.06687057
v -0.00034730 -0.01730005 0.06680999
v -0.00034730 -0.01520048 0.06918461
v 0.00005237 -0.01517365 0.06919249
v 0.00005237 -0.01426720 0.06939481
v 0.00005237 -0.01405677 0.06943813
v 0.00005237 -0.01721741 0.06718769
v -0.00034730 -0.01728855 0.06689692
v 0.00005237 -0.01522987 0.06917553
v -0.00034730 -0.01538961 0.06911374
v 0.00005237 -0.01711177 0.06747664
v -0.00034730 -0.01721698 0.06718920
v 0.00005237 -0.01528866 0.06915342
v -0.00034730 -0.01558938 0.06903468
v 0.00005237 -0.01547012 0.06908194
v 0.00005237 -0.01538876 0.06911404
v 0.00005237 -0.01708153 0.06754418
v -0.00034730 -0.01708068 0.06754570
v -0.00034730 -0.01711518 0.06746695
v 0.00005237 -0.01556809 0.06904317
v -0.00034730 -0.01569076 0.06899046
v 0.00005237 -0.01565796 0.06900561
v 0.00005237 -0.01702658 0.06765474
v -0.00034730 -0.01701252 0.06768230
v -0.00034730 -0.01578192 0.06893928
v 0.00005237 -0.01575423 0.06895533
v 0.00005237 -0.01696183 0.06778286
v -0.00034730 -0.01696141 0.06778377
v -0.00034730 -0.01606774 0.06875209
v 0.00005237 -0.01614654 0.06870030
v 0.00005237 -0.01692818 0.06783708
v -0.00034730 -0.01691626 0.06785555
v -0.00034730 -0.01620873 0.06865941
v 0.00005237 -0.01620958 0.06865850
v 0.00005237 -0.01689368 0.06789038
v -0.00034730 -0.01684384 0.06796610
v -0.00034730 -0.01627177 0.06861125
v 0.00005237 -0.01627177 0.06861125
v 0.00005237 -0.01682851 0.06798943
v -0.00034730 -0.01675482 0.06810059
v -0.00034730 -0.01633780 0.06855067
v 0.00005237 -0.01633098 0.06855703
v 0.00005237 -0.01674076 0.06811755
v -0.00034730 -0.01669177 0.06817570
v -0.00034730 -0.01644046 0.06844285
v 0.00005237 -0.01639445 0.06849100
v 0.00005237 -0.01669177 0.06817570
v 0.00005237 -0.01663384 0.06823779
v 0.00005237 -0.01652863 0.06834925
f 1 2 3
f 6 2 1
f 22 15 21
f 21 26 22
f 25 26 21
f 16 11 15
f 15 22 16
f 58 54 57
f 61 58 57
f 48 44 47
f 47 52 48
f 56 52 51
f 51 55 56
f 51 52 47
f 26 25 33
f 47 44 43
f 44 39 43
f 17 18 13
f 9 13 10
f 35 39 40
f 40 39 44
f 11 16 12
f 12 8 7
f 7 11 12
f 53 57 54
f 56 55 60
f 62 58 61
f 37 41 42
f 31 37 32
f 25 31 32
f 32 33 25
f 19 13 18
f 1 4 5
f 5 6 1
f 5 4 9
f 9 10 5
f 23 18 17
f 27 23 24
f 24 23 17
f 35 40 36
f 36 28 35
f 34 28 36
f 50 53 54
f 45 46 42
f 42 41 45
f 63 60 59
f 59 60 55
f 59 62 63
f 58 62 59
f 38 37 42
f 38 32 37
f 13 19 20
f 27 24 30
f 46 45 49
f 49 50 46
f 53 50 49
f 14 10 13
f 13 20 14
f 29 30 24
f 29 24 28
f 29 28 34
f 8 3 2
f 2 7 8
f 3 8 38
f 1 3 38
f 8 12 38
f 42 46 38
f 58 59 38
f 38 51 47
f 17 13 38
f 38 4 1
f 38 22 26
f 38 54 58
f 38 50 54
f 38 39 35
f 47 43 38
f 38 16 22
f 38 24 17
f 55 51 38
f 26 33 38
f 38 43 39
f 38 13 9
f 9 4 38
f 35 28 38
f 38 12 16
f 33 32 38
f 28 24 38
f 46 50 38
f 38 59 55
f 29 7 2
f 2 6 29
f 61 57 29
f 29 62 61
f 29 11 7
f 21 15 29
f 44 48 29
f 6 5 29
f 29 25 21
f 15 11 29
f 29 52 56
f 56 60 29
f 29 19 18
f 29 40 44
f 29 48 52
f 34 36 29
f 29 31 25
f 41 37 29
f 53 49 29
f 18 23 29
f 57 53 29
f 29 60 63
f 63 62 29
f 29 37 31
f 29 45 41
f 29 5 10
f 29 23 27
f 29 36 40
f 10 14 29
f 29 20 19
f 27 30 29
f 29 49 45
f 29 14 20

