# https://github.com/mikedh/trimesh
v 0.00300432 0.00394361 0.06069279
v 0.00300432 0.00487953 0.06069279
v 0.00363523 0.00394361 0.06069279
v 0.00300432 0.00394361 0.06959999
v 0.00363523 0.00487953 0.06069279
v 0.00300432 0.00487953 0.06959999
v 0.00364527 0.00487953 0.06070064
v 0.00364333 0.00394361 0.06070064
v 0.00364527 0.00394361 0.06959999
v 0.00364527 0.00487953 0.06959999
v 0.00364527 0.00394361 0.06070849
f 7 3 5
f 7 11 8
f 8 3 7
f 1 4 6
f 6 2 1
f 5 3 1
f 1 2 5
f 2 6 10
f 7 5 10
f 10 5 2
f 9 11 10
f 10 11 7
f 4 9 10
f 10 6 4
f 8 9 4
f 8 4 1
f 1 3 8
f 8 11 9

