# https://github.com/mikedh/trimesh
v 0.01179939 -0.01440043 0.03748864
v 0.01171252 -0.01440043 0.03833250
v 0.01199174 -0.01440100 0.03833250
v 0.01199174 -0.01440100 0.03748864
v 0.00427618 -0.01440043 0.03748864
v 0.00427618 -0.01440043 0.03833250
v 0.01216935 -0.01642398 0.03833250
v 0.01219959 -0.01676875 0.03748864
v 0.00427618 -0.01734971 0.03748864
v 0.00427618 -0.01734971 0.03833250
v 0.01219959 -0.01676875 0.03833250
v 0.00812931 -0.01730409 0.03833250
v 0.00802150 -0.01731824 0.03748864
v 0.00778029 -0.01734971 0.03748864
v 0.00778029 -0.01734971 0.03833250
f 8 4 7
f 7 11 8
f 8 11 12
f 3 7 4
f 4 1 3
f 3 1 2
f 8 12 13
f 14 13 15
f 15 13 12
f 5 6 1
f 1 6 2
f 5 9 10
f 10 6 5
f 5 1 13
f 13 9 5
f 13 4 8
f 13 1 4
f 13 14 9
f 2 6 15
f 15 12 11
f 11 7 15
f 6 10 15
f 15 3 2
f 7 3 15
f 9 14 15
f 15 10 9

