# https://github.com/mikedh/trimesh
v 0.01030106 -0.01701856 0.03559999
v 0.01219941 -0.01676871 0.03559999
v 0.01030106 -0.01701856 0.03560463
v 0.01030106 -0.01558530 0.03533712
v 0.01219941 -0.01676871 0.03560816
v 0.01186282 -0.01449143 0.03533712
v 0.01200017 -0.01449143 0.03559999
v 0.01030106 -0.01701831 0.03560816
v 0.01030106 -0.01449143 0.03533712
v 0.01200017 -0.01449143 0.03560784
v 0.01193382 -0.01449143 0.03560816
v 0.01030106 -0.01449143 0.03560816
f 4 2 1
f 4 6 2
f 6 4 9
f 2 6 7
f 8 3 5
f 10 11 5
f 3 9 4
f 3 4 1
f 3 8 12
f 12 9 3
f 11 9 12
f 6 9 11
f 11 7 6
f 10 7 11
f 12 8 5
f 5 11 12
f 5 3 1
f 1 2 5
f 5 7 10
f 2 7 5

