# https://github.com/mikedh/trimesh
v 0.02165962 -0.00680593 0.06582483
v 0.02165291 -0.00680593 0.06637380
v 0.02134977 -0.00725425 0.06637380
v 0.02134305 -0.00727278 0.06582483
v 0.01308112 -0.00680593 0.06582483
v 0.01308112 -0.00680593 0.06637380
v 0.02126580 -0.00737796 0.06637380
v 0.02130191 -0.00733332 0.06582483
v 0.01308112 -0.01067051 0.06582483
v 0.01308112 -0.01067051 0.06637380
v 0.02105419 -0.00763862 0.06637380
v 0.02115832 -0.00751037 0.06582483
v 0.01731999 -0.01067051 0.06582483
v 0.01731999 -0.01067051 0.06637380
v 0.02023547 -0.00837484 0.06637380
v 0.02009608 -0.00850044 0.06582483
v 0.02091648 -0.00776271 0.06582483
v 0.02105419 -0.00763862 0.06582483
v 0.01735274 -0.01064781 0.06637380
v 0.01895911 -0.00952230 0.06582483
v 0.01895911 -0.00952230 0.06637380
f 13 20 19
f 19 14 13
f 21 19 20
f 20 16 21
f 16 17 11
f 11 17 18
f 18 12 11
f 15 21 16
f 16 11 15
f 7 12 8
f 7 11 12
f 8 4 7
f 1 2 3
f 3 4 1
f 3 7 4
f 6 2 1
f 6 1 5
f 10 6 5
f 5 9 10
f 9 13 14
f 14 10 9
f 5 1 17
f 17 9 5
f 17 13 9
f 17 20 13
f 17 16 20
f 1 4 17
f 17 12 18
f 17 4 8
f 8 12 17
f 2 6 3
f 6 10 3
f 10 14 3
f 14 19 3
f 19 21 3
f 21 15 3
f 3 15 11
f 11 7 3

