# https://github.com/mikedh/trimesh
v 0.02168850 -0.00680556 0.06315484
v 0.02168293 -0.00680556 0.06364418
v 0.02159943 -0.00692948 0.06364418
v 0.02147697 -0.00711760 0.06315484
v 0.01221074 -0.00680556 0.06315484
v 0.01221074 -0.00680556 0.06364418
v 0.02144450 -0.00715742 0.06364418
v 0.02119587 -0.00746431 0.06364418
v 0.02115412 -0.00751580 0.06315484
v 0.01221074 -0.01031251 0.06315484
v 0.01221074 -0.01031251 0.06364418
v 0.02105392 -0.00763835 0.06364418
v 0.02112536 -0.00755116 0.06315484
v 0.01783097 -0.01031251 0.06315484
v 0.01783097 -0.01031251 0.06364418
v 0.02080158 -0.00786595 0.06364418
v 0.02094352 -0.00773825 0.06315484
v 0.02105392 -0.00763835 0.06315484
v 0.01895910 -0.00952262 0.06315484
v 0.01895910 -0.00952262 0.06364418
v 0.02082663 -0.00784364 0.06315484
f 19 21 20
f 20 21 16
f 18 13 12
f 18 12 17
f 17 12 16
f 16 21 17
f 8 13 9
f 8 12 13
f 8 9 4
f 7 8 4
f 1 2 3
f 3 4 1
f 3 7 4
f 6 2 1
f 6 1 5
f 11 6 5
f 5 10 11
f 10 14 15
f 15 11 10
f 14 19 20
f 20 15 14
f 5 1 17
f 17 10 5
f 17 14 10
f 1 4 17
f 17 19 14
f 17 13 18
f 4 9 17
f 9 13 17
f 17 21 19
f 2 6 3
f 6 11 3
f 11 15 3
f 15 20 3
f 3 20 16
f 16 12 3
f 12 8 3
f 8 7 3

