# https://github.com/mikedh/trimesh
v 0.00095648 -0.00332524 0.06604249
v 0.00095648 -0.00045717 0.06604249
v 0.00138817 -0.00332524 0.06604249
v 0.00095648 -0.00332524 0.06941679
v 0.00138817 -0.00002530 0.06604249
v 0.00095648 -0.00045717 0.06660023
v 0.00138817 -0.00332524 0.06951223
v 0.00122206 -0.00332524 0.06949457
v 0.00095648 -0.00322769 0.06938825
v 0.00138817 -0.00002530 0.06660023
v 0.00095648 -0.00048721 0.06692564
v 0.00138817 -0.00316955 0.06949763
v 0.00131933 -0.00332524 0.06950578
v 0.00123275 -0.00332524 0.06949763
v 0.00138817 -0.00270892 0.06936278
v 0.00095648 -0.00258618 0.06920042
v 0.00138817 -0.00006115 0.06698576
v 0.00095648 -0.00048883 0.06694262
v 0.00138817 -0.00214655 0.06919804
v 0.00095648 -0.00257810 0.06919804
v 0.00095648 -0.00049076 0.06695349
v 0.00138817 -0.00006341 0.06699799
v 0.00138817 -0.00126794 0.06872114
v 0.00095648 -0.00234585 0.06907202
v 0.00095648 -0.00050724 0.06704112
v 0.00095648 -0.00060156 0.06737672
v 0.00138817 -0.00017001 0.06737672
v 0.00138817 -0.00098175 0.06849016
v 0.00095648 -0.00169303 0.06871605
v 0.00095648 -0.00169949 0.06872114
v 0.00095648 -0.00193659 0.06884987
v 0.00095648 -0.00072430 0.06763215
v 0.00138817 -0.00033345 0.06771707
v 0.00138817 -0.00084027 0.06836041
v 0.00095648 -0.00124210 0.06832916
v 0.00095648 -0.00136194 0.06843887
v 0.00095648 -0.00145174 0.06852107
v 0.00095648 -0.00074659 0.06767835
v 0.00095648 -0.00076339 0.06770722
v 0.00095648 -0.00077405 0.06772522
v 0.00138817 -0.00037028 0.06777923
v 0.00138817 -0.00059381 0.06809988
v 0.00095648 -0.00123338 0.06831999
v 0.00095648 -0.00082896 0.06781762
v 0.00095648 -0.00101760 0.06808867
v 0.00095648 -0.00102568 0.06809988
v 0.00095648 -0.00113938 0.06822047
f 26 27 22
f 26 22 25
f 33 27 26
f 43 34 42
f 7 12 13
f 12 14 13
f 8 14 12
f 24 20 19
f 19 23 24
f 16 15 19
f 19 20 16
f 21 25 22
f 11 10 6
f 18 21 17
f 17 21 22
f 17 11 18
f 10 11 17
f 31 23 30
f 31 24 23
f 35 34 43
f 34 35 28
f 4 8 9
f 15 16 9
f 12 15 9
f 9 8 12
f 32 33 26
f 32 38 33
f 33 38 39
f 43 42 47
f 42 46 47
f 45 42 41
f 45 46 42
f 41 44 45
f 37 28 36
f 36 28 35
f 29 28 37
f 23 28 29
f 30 23 29
f 41 33 40
f 33 39 40
f 40 44 41
f 2 5 3
f 2 3 1
f 5 2 10
f 2 6 10
f 1 3 8
f 3 7 8
f 8 4 1
f 7 13 8
f 8 13 14
f 3 5 28
f 28 7 3
f 28 12 7
f 28 42 34
f 19 15 28
f 27 33 28
f 28 22 27
f 5 10 28
f 28 15 12
f 28 17 22
f 28 33 41
f 41 42 28
f 28 23 19
f 10 17 28
f 40 2 1
f 1 4 40
f 40 6 2
f 26 25 40
f 20 24 40
f 40 31 30
f 40 21 18
f 4 9 40
f 40 35 43
f 18 11 40
f 30 29 40
f 37 36 40
f 40 16 20
f 25 21 40
f 40 11 6
f 40 32 26
f 43 47 40
f 24 31 40
f 40 45 44
f 40 9 16
f 38 32 40
f 40 39 38
f 40 47 46
f 46 45 40
f 40 36 35
f 40 29 37

