# https://github.com/mikedh/trimesh
v 0.01199221 0.01440113 0.03734735
v 0.01201646 0.01438366 0.03734735
v 0.01201646 0.01438386 0.03625404
v 0.01199221 0.01440113 0.03625404
v 0.00402806 0.01440113 0.03734735
v 0.01201881 0.01438165 0.03734735
v 0.01201881 0.01438165 0.03625404
v 0.00402806 0.01440113 0.03625404
v 0.00402806 0.01235020 0.03734735
v 0.01201881 0.01235020 0.03734735
v 0.01201881 0.01235020 0.03625404
v 0.00402806 0.01235020 0.03625404
f 6 3 2
f 3 1 2
f 4 1 3
f 7 3 6
f 5 1 4
f 4 8 5
f 6 2 10
f 5 9 10
f 10 1 5
f 10 2 1
f 6 10 7
f 7 10 11
f 3 7 12
f 12 4 3
f 8 4 12
f 12 7 11
f 12 9 5
f 5 8 12
f 12 10 9
f 11 10 12

