# https://github.com/mikedh/trimesh
v 0.00925302 0.01631886 0.06033727
v 0.00925302 0.01631886 0.05975472
v 0.00925302 0.01223935 0.06033727
v 0.00976888 0.01595783 0.06033727
v 0.00973647 0.01598060 0.05975472
v 0.00925302 0.01223935 0.05975472
v 0.01391632 0.01223935 0.06033727
v 0.00986886 0.01588794 0.05975472
v 0.01391632 0.01305405 0.06033727
v 0.01360543 0.01223935 0.05975472
v 0.01391632 0.01223935 0.05993298
v 0.01391632 0.01305405 0.05975472
v 0.01372093 0.01235037 0.05975472
v 0.01391632 0.01254526 0.05975472
f 5 2 1
f 9 8 4
f 8 5 4
f 4 5 1
f 12 8 9
f 13 11 10
f 14 11 13
f 1 2 6
f 6 3 1
f 1 3 4
f 4 3 7
f 7 9 4
f 3 6 11
f 7 3 11
f 6 10 11
f 11 9 7
f 14 12 11
f 11 12 9
f 13 6 2
f 2 5 13
f 13 5 8
f 13 10 6
f 8 12 13
f 13 12 14

