# https://github.com/mikedh/trimesh
v 0.02020177 -0.00840548 0.06852753
v 0.01920879 -0.00929819 0.06852753
v 0.02020177 -0.00840548 0.06804330
v 0.01265955 -0.00840548 0.06852753
v 0.01895851 -0.00952281 0.06852753
v 0.01895851 -0.00952281 0.06804330
v 0.01265955 -0.00840548 0.06804330
v 0.01265955 -0.01067051 0.06852753
v 0.01839373 -0.00991838 0.06852753
v 0.01777137 -0.01035431 0.06804330
v 0.01265955 -0.01067051 0.06804330
v 0.01731954 -0.01067051 0.06852753
v 0.01731954 -0.01067051 0.06804330
f 2 3 1
f 10 9 12
f 12 13 10
f 5 9 10
f 5 10 6
f 6 2 5
f 3 2 6
f 1 3 7
f 4 1 7
f 4 7 11
f 11 8 4
f 9 1 4
f 4 8 9
f 8 12 9
f 9 2 1
f 5 2 9
f 13 12 8
f 8 11 13
f 6 7 3
f 6 11 7
f 6 13 11
f 6 10 13

