# https://github.com/mikedh/trimesh
v 0.00138817 -0.00679680 0.06026352
v 0.00363507 -0.00679680 0.06026352
v 0.00138817 -0.00679680 0.06069404
v 0.00138817 -0.00002532 0.06026352
v 0.00363507 -0.00679680 0.06069404
v 0.00363507 0.00002072 0.06026352
v 0.00138817 -0.00429162 0.06069404
v 0.00138993 -0.00002399 0.06069404
v 0.00139279 0.00002072 0.06069404
v 0.00139279 0.00002072 0.06026352
v 0.00363507 0.00002072 0.06069404
f 9 4 8
f 10 4 9
f 7 8 4
f 5 3 1
f 1 2 5
f 11 5 2
f 2 6 11
f 10 2 1
f 10 6 2
f 1 4 10
f 10 11 6
f 9 11 10
f 3 5 7
f 5 11 7
f 7 11 9
f 9 8 7
f 1 3 7
f 7 4 1

