# https://github.com/mikedh/trimesh
v 0.01219797 0.01676865 0.05432741
v 0.01218500 0.01660701 0.05432741
v 0.01219797 0.01676865 0.03564590
v 0.01219473 0.01676923 0.03564590
v 0.01017770 0.01703450 0.05432741
v 0.01199205 0.01440141 0.05432741
v 0.01199205 0.01440141 0.03564590
v 0.00778612 0.01734913 0.03564590
v 0.00777964 0.01734971 0.05432741
v -0.00436308 0.01440141 0.05432741
v -0.00436308 0.01440141 0.03564590
v 0.00777964 0.01734971 0.03564590
v -0.00436308 0.01734971 0.05432741
v -0.00436308 0.01734971 0.03564590
f 2 3 1
f 2 7 3
f 6 7 2
f 12 9 8
f 5 8 9
f 8 5 4
f 4 5 1
f 1 3 4
f 13 9 14
f 14 9 12
f 11 6 10
f 11 7 6
f 10 13 11
f 13 14 11
f 5 13 10
f 10 6 5
f 5 2 1
f 6 2 5
f 5 9 13
f 7 11 4
f 4 14 12
f 3 7 4
f 12 8 4
f 4 11 14

