# https://github.com/mikedh/trimesh
v -0.00337299 -0.01947555 0.02787249
v 0.00365305 -0.01947555 0.02787249
v -0.00337299 -0.01947555 0.03281924
v -0.00337299 -0.01234311 0.02787249
v 0.00365305 -0.01947555 0.02812622
v 0.00365305 -0.01235009 0.02787249
v 0.00365030 -0.01947555 0.03281924
v -0.00337299 -0.01238011 0.03281924
v -0.00337299 -0.01234311 0.03279987
v 0.00362898 -0.01234311 0.02787249
v 0.00365305 -0.01239966 0.03281924
v 0.00363517 -0.01234311 0.02787394
v 0.00365305 -0.01235009 0.03281924
v 0.00362554 -0.01235009 0.03281924
v -0.00337299 -0.01235009 0.03281682
v 0.00363448 -0.01234311 0.03279987
v 0.00363517 -0.01234311 0.03278922
f 10 12 6
f 7 5 11
f 15 8 14
f 14 9 15
f 17 16 13
f 1 2 5
f 5 3 1
f 5 7 3
f 8 4 1
f 1 3 8
f 8 9 4
f 15 9 8
f 1 4 10
f 10 2 1
f 10 6 2
f 2 6 11
f 11 5 2
f 11 6 13
f 3 7 14
f 14 8 3
f 14 11 13
f 7 11 14
f 14 16 9
f 13 16 14
f 4 9 17
f 17 10 4
f 12 10 17
f 9 16 17
f 13 6 17
f 6 12 17

