# https://github.com/mikedh/trimesh
v 0.01369013 -0.01224243 0.06193052
v 0.01369013 -0.01321205 0.06193052
v 0.01369013 -0.01224243 0.05990306
v 0.01078779 -0.01224243 0.06193052
v 0.01357258 -0.01329443 0.06193052
v 0.01343677 -0.01338978 0.05990306
v 0.01369013 -0.01321205 0.05990306
v 0.00996126 -0.01224243 0.05990306
v 0.00996126 -0.01224243 0.06179994
v 0.01051544 -0.01224313 0.06193052
v 0.01322466 -0.01353806 0.06193052
v 0.00996600 -0.01581978 0.06193052
v 0.00996126 -0.01582328 0.05990306
v 0.00996126 -0.01255512 0.06193052
v 0.00996235 -0.01244540 0.06193052
v 0.00996126 -0.01582293 0.06193052
f 6 7 2
f 12 16 13
f 13 6 12
f 9 10 4
f 15 9 14
f 15 10 9
f 11 12 6
f 5 6 2
f 5 11 6
f 7 3 1
f 1 2 7
f 16 9 8
f 8 13 16
f 14 9 16
f 8 3 6
f 6 13 8
f 3 7 6
f 1 3 4
f 4 3 8
f 8 9 4
f 5 2 1
f 14 16 5
f 5 15 14
f 1 4 5
f 16 12 5
f 5 4 10
f 10 15 5
f 12 11 5

