# https://github.com/mikedh/trimesh
v -0.00307119 0.00598487 0.06908112
v -0.00247735 0.00557443 0.06908112
v -0.00307119 0.00605609 0.06913247
v -0.00307119 0.01339661 0.06908112
v -0.00247735 0.00576510 0.06919809
v -0.00307119 0.00614798 0.06919809
v -0.00247735 0.01339661 0.06908112
v -0.00307119 0.01339661 0.06947241
v -0.00247735 0.00664802 0.06949069
v -0.00307119 0.00692446 0.06949775
v -0.00247735 0.01339661 0.06947327
v -0.00307119 0.01338666 0.06947444
v -0.00247735 0.00666946 0.06949775
v -0.00307119 0.00775760 0.06959999
v -0.00307119 0.01337441 0.06947688
v -0.00307119 0.01309261 0.06953239
v -0.00307119 0.01292338 0.06956571
v -0.00247735 0.01289887 0.06956739
v -0.00247735 0.00751179 0.06959999
v -0.00307119 0.01234983 0.06959999
v -0.00307119 0.01289964 0.06956728
v -0.00247735 0.01240419 0.06959979
v -0.00247735 0.01234983 0.06959999
v -0.00307119 0.01237893 0.06959989
v -0.00307119 0.01240266 0.06959979
v -0.00247735 0.01239271 0.06959984
f 14 10 13
f 13 19 14
f 1 2 3
f 2 6 3
f 10 6 5
f 5 6 2
f 11 17 18
f 21 25 22
f 21 22 18
f 18 17 21
f 9 13 10
f 10 5 9
f 26 24 23
f 25 24 26
f 22 25 26
f 23 24 20
f 12 11 8
f 12 15 11
f 17 11 16
f 11 15 16
f 1 4 7
f 7 2 1
f 11 7 4
f 4 8 11
f 2 7 26
f 26 5 2
f 18 22 26
f 26 23 19
f 19 13 26
f 13 9 26
f 26 11 18
f 7 11 26
f 26 9 5
f 19 23 20
f 14 19 20
f 16 8 4
f 16 4 1
f 16 10 14
f 1 3 16
f 16 6 10
f 16 12 8
f 16 3 6
f 16 21 17
f 25 21 16
f 16 24 25
f 14 20 16
f 16 20 24
f 15 12 16

