# https://github.com/mikedh/trimesh
v -0.00178597 0.00544830 0.06883719
v -0.00090065 0.00544830 0.06883719
v -0.00178597 0.00544830 0.06926892
v -0.00178597 0.01331557 0.06883719
v -0.00090065 0.00544830 0.06948374
v -0.00090065 0.01331557 0.06883719
v -0.00090334 0.00544830 0.06949389
v -0.00178597 0.00613908 0.06949770
v -0.00178597 0.01331557 0.06948292
v -0.00090065 0.00545908 0.06949770
v -0.00090065 0.01331557 0.06948620
v -0.00178597 0.00684602 0.06957222
v -0.00178597 0.01287045 0.06956931
v -0.00090065 0.00643017 0.06959992
v -0.00090065 0.01283426 0.06957177
v -0.00178597 0.00710939 0.06959992
v -0.00178597 0.01265329 0.06958357
v -0.00090065 0.01277496 0.06957573
v -0.00090065 0.01235603 0.06959992
v -0.00178597 0.01235603 0.06959992
v -0.00178597 0.01240532 0.06959977
v -0.00090065 0.01240763 0.06959977
v -0.00090065 0.01238683 0.06959984
v -0.00178597 0.01238838 0.06959984
f 5 10 7
f 8 3 7
f 7 10 8
f 12 8 10
f 12 10 14
f 14 16 12
f 15 11 13
f 9 13 11
f 17 22 18
f 18 13 17
f 15 13 18
f 21 22 17
f 21 24 22
f 22 24 23
f 24 19 23
f 20 19 24
f 1 4 6
f 6 2 1
f 1 2 5
f 5 3 1
f 7 3 5
f 9 6 4
f 9 11 6
f 2 6 23
f 6 11 23
f 14 10 23
f 23 5 2
f 10 5 23
f 23 11 15
f 15 18 23
f 23 18 22
f 23 19 14
f 20 4 1
f 20 12 16
f 1 3 20
f 3 8 20
f 20 9 4
f 8 12 20
f 17 13 20
f 13 9 20
f 20 21 17
f 24 21 20
f 14 19 20
f 20 16 14

