# https://github.com/mikedh/trimesh
v 0.00789077 -0.01727280 0.06696127
v 0.00879195 -0.01664169 0.06822075
v 0.00862973 -0.01675527 0.06810098
v 0.00812824 -0.01710628 0.06749146
v 0.00795729 -0.01722603 0.06716038
v 0.00789077 -0.01722603 0.06716114
v 0.00789077 -0.01727228 0.06180665
v 0.00879195 -0.01664169 0.06180665
v 0.00879195 -0.01627628 0.06860675
v 0.00789077 -0.01628399 0.06859989
v 0.00789077 -0.01674910 0.06810784
v 0.00789077 -0.01675527 0.06810098
v 0.00789077 -0.01694953 0.06780499
v 0.00835336 -0.01694851 0.06780652
v 0.00789077 -0.01710628 0.06749146
v 0.00789077 -0.01710371 0.06749680
v 0.00789077 -0.01202297 0.06180665
v 0.00879195 -0.01233904 0.06180665
v 0.00879195 -0.01627166 0.06861133
v 0.00789077 -0.01627166 0.06861133
v 0.00826259 -0.01202297 0.06180665
v 0.00789077 -0.01202297 0.06959999
v 0.00826250 -0.01202297 0.06959999
v 0.00879195 -0.01235600 0.06959923
v 0.00879195 -0.01626806 0.06861438
v 0.00789077 -0.01626189 0.06861896
v 0.00789077 -0.01235035 0.06959999
v 0.00877528 -0.01235035 0.06959999
v 0.00879195 -0.01242847 0.06959923
v 0.00879195 -0.01570068 0.06898513
v 0.00789077 -0.01570325 0.06898437
v 0.00789077 -0.01242590 0.06959923
v 0.00789077 -0.01247780 0.06959618
v 0.00879195 -0.01245005 0.06959770
v 0.00879195 -0.01569554 0.06898818
v 0.00789077 -0.01568115 0.06899657
v 0.00789077 -0.01253845 0.06959160
v 0.00879195 -0.01268697 0.06958016
v 0.00879195 -0.01568166 0.06899581
v 0.00879195 -0.01566727 0.06900191
v 0.00789077 -0.01521706 0.06917966
v 0.00789077 -0.01377034 0.06949853
v 0.00879195 -0.01333196 0.06953134
v 0.00879195 -0.01540208 0.06910642
v 0.00879195 -0.01521398 0.06918042
v 0.00789077 -0.01519805 0.06918576
v 0.00879195 -0.01393737 0.06946421
v 0.00879195 -0.01377291 0.06949777
v 0.00789077 -0.01397181 0.06945658
v 0.00879195 -0.01520679 0.06918271
v 0.00879195 -0.01520062 0.06918424
v 0.00879195 -0.01512661 0.06920102
f 8 2 1
f 7 8 1
f 18 21 23
f 23 24 18
f 1 2 3
f 31 25 30
f 47 48 42
f 47 46 52
f 1 3 4
f 4 3 14
f 13 3 12
f 14 3 13
f 13 4 14
f 10 3 2
f 20 25 26
f 25 31 26
f 52 46 51
f 41 45 46
f 40 41 36
f 49 47 42
f 46 47 49
f 42 48 43
f 43 38 42
f 29 27 32
f 32 33 29
f 6 4 15
f 15 4 16
f 4 13 16
f 12 3 11
f 3 10 11
f 9 10 2
f 46 45 50
f 50 51 46
f 39 40 36
f 45 41 44
f 41 40 44
f 42 38 37
f 38 33 37
f 34 33 38
f 34 29 33
f 28 29 24
f 24 23 28
f 27 29 28
f 5 6 1
f 1 4 5
f 4 6 5
f 20 10 19
f 10 9 19
f 19 25 20
f 36 31 35
f 35 39 36
f 35 31 30
f 21 7 17
f 8 7 21
f 21 18 8
f 17 22 23
f 23 21 17
f 37 22 17
f 37 7 1
f 37 31 36
f 17 7 37
f 20 26 37
f 12 11 37
f 37 13 12
f 36 41 37
f 37 49 42
f 37 27 22
f 15 16 37
f 32 27 37
f 1 6 37
f 37 10 20
f 37 26 31
f 37 41 46
f 46 49 37
f 37 33 32
f 37 6 15
f 37 16 13
f 37 11 10
f 28 23 22
f 22 27 28
f 8 18 35
f 2 8 35
f 35 43 48
f 24 29 35
f 18 24 35
f 35 47 52
f 30 25 35
f 52 51 35
f 48 47 35
f 35 50 45
f 35 9 2
f 25 19 35
f 38 43 35
f 45 44 35
f 35 34 38
f 51 50 35
f 40 39 35
f 35 44 40
f 29 34 35
f 35 19 9

