# https://github.com/mikedh/trimesh
v 0.01372115 -0.01235020 0.04688141
v 0.01384516 -0.01247402 0.04688141
v 0.01372115 -0.01235020 0.04586116
v 0.00829536 -0.01235020 0.04688141
v 0.01385733 -0.01248626 0.04586116
v 0.01395700 -0.01258580 0.04688141
v 0.00829536 -0.01235020 0.04586116
v 0.00829536 -0.01440014 0.04688141
v 0.01399003 -0.01261891 0.04586116
v 0.01421546 -0.01284427 0.04688141
v 0.01421546 -0.01284427 0.04586116
v 0.00829536 -0.01440014 0.04586116
v 0.01199310 -0.01440014 0.04688141
v 0.01413781 -0.01289866 0.04688141
v 0.01416620 -0.01287879 0.04586116
v 0.01199310 -0.01440014 0.04586116
v 0.01248393 -0.01405657 0.04586116
v 0.01349631 -0.01334778 0.04688141
f 3 1 2
f 17 18 13
f 13 16 17
f 17 14 18
f 10 14 15
f 14 17 15
f 10 15 11
f 11 6 10
f 5 2 6
f 3 2 5
f 6 11 9
f 9 5 6
f 1 7 4
f 3 7 1
f 12 8 4
f 4 7 12
f 14 1 4
f 4 8 14
f 10 6 14
f 8 13 14
f 14 2 1
f 13 18 14
f 6 2 14
f 16 13 8
f 8 12 16
f 9 7 3
f 9 12 7
f 9 16 12
f 9 17 16
f 9 15 17
f 9 11 15
f 3 5 9

