# https://github.com/mikedh/trimesh
v -0.00436308 -0.01735000 0.05432741
v -0.00436308 -0.01735000 0.05720286
v -0.00436308 -0.01551012 0.05432741
v 0.00777964 -0.01735000 0.05432741
v -0.00436308 -0.01551012 0.05720286
v 0.00777964 -0.01735000 0.05720286
v 0.01208934 -0.01551012 0.05432741
v 0.01017770 -0.01703462 0.05432741
v 0.01040794 -0.01551012 0.05720286
v 0.01054576 -0.01698617 0.05719977
v 0.00778450 -0.01734676 0.05720286
v 0.01208934 -0.01551012 0.05570025
v 0.01219797 -0.01676877 0.05432741
v 0.01219797 -0.01676877 0.05570025
v 0.01041605 -0.01551012 0.05719977
v 0.01042415 -0.01551012 0.05719301
f 8 6 4
f 14 8 13
f 6 8 10
f 8 14 10
f 10 11 6
f 9 11 10
f 10 14 12
f 12 16 10
f 9 10 15
f 15 10 16
f 5 3 1
f 1 2 5
f 1 4 6
f 6 2 1
f 8 4 1
f 1 3 8
f 8 7 13
f 3 7 8
f 13 7 14
f 7 12 14
f 11 5 2
f 9 5 11
f 2 6 11
f 15 7 3
f 3 5 15
f 15 5 9
f 15 12 7
f 15 16 12

