# https://github.com/mikedh/trimesh
v 0.00316128 0.00002072 0.06501614
v 0.00316128 0.00002072 0.06404965
v 0.00266981 0.00002072 0.06501614
v 0.00316128 -0.00921549 0.06501614
v 0.00266981 0.00002072 0.06404965
v 0.00316128 -0.00921821 0.06404965
v 0.00266981 -0.00921821 0.06501614
v 0.00293880 -0.00921821 0.06501614
v 0.00316128 -0.00921821 0.06488966
v 0.00266981 -0.00921821 0.06404965
f 8 9 4
f 3 1 5
f 1 2 5
f 6 2 9
f 9 2 1
f 1 4 9
f 10 2 6
f 10 5 2
f 10 7 3
f 3 5 10
f 3 7 8
f 8 4 1
f 8 1 3
f 6 9 8
f 8 10 6
f 7 10 8

