# https://github.com/mikedh/trimesh
v 0.01373519 0.00699890 0.06180595
v 0.01373519 0.00738362 0.06180595
v 0.02157088 0.00699890 0.06180595
v 0.01373519 0.00699890 0.06750964
v 0.01373519 0.00738362 0.06750964
v 0.02126098 0.00738362 0.06180595
v 0.02156551 0.00700858 0.06180595
v 0.02148726 0.00699890 0.06750964
v 0.02124487 0.00738362 0.06750964
v 0.02126098 0.00738362 0.06647006
f 9 8 10
f 6 10 7
f 7 8 3
f 7 10 8
f 1 3 8
f 8 4 1
f 5 2 1
f 1 4 5
f 4 8 5
f 5 8 9
f 10 6 2
f 2 5 10
f 10 5 9
f 1 2 7
f 7 3 1
f 2 6 7

