# https://github.com/mikedh/trimesh
v 0.00402806 0.01235020 0.03791115
v 0.00402806 0.01235020 0.04075796
v 0.00402806 0.01440113 0.03791115
v 0.01201881 0.01235020 0.03791115
v 0.00402806 0.01440113 0.04075796
v 0.01201881 0.01235020 0.04075796
v 0.01199221 0.01440113 0.03791115
v 0.01201881 0.01438165 0.03791115
v 0.01199221 0.01440113 0.04075796
v 0.01201881 0.01438165 0.04075796
v 0.01200942 0.01438868 0.04075796
f 11 7 9
f 11 8 7
f 11 10 8
f 1 4 6
f 6 2 1
f 5 3 1
f 1 2 5
f 5 7 3
f 9 7 5
f 1 3 8
f 8 4 1
f 3 7 8
f 10 6 4
f 4 8 10
f 2 6 11
f 11 5 2
f 9 5 11
f 6 10 11

