# https://github.com/mikedh/trimesh
v 0.00364581 0.00375429 0.02779988
v 0.00364581 0.00375429 0.02580000
v 0.00363526 0.00375429 0.02780479
v 0.00364581 0.00002436 0.02779988
v 0.00364581 0.00002436 0.02580000
v -0.00092621 0.00375429 0.02580000
v 0.00363526 0.00002436 0.02780479
v -0.00234082 0.00375429 0.02780479
v 0.00280313 0.00002436 0.02580000
v -0.00099360 0.00375429 0.02580628
v 0.00138852 0.00002436 0.02780479
v -0.00234082 0.00375429 0.02680112
v 0.00243688 0.00002436 0.02583415
v -0.00129246 0.00375429 0.02583415
v 0.00138852 0.00002436 0.02680014
v -0.00234024 0.00375429 0.02679543
v 0.00140141 0.00002436 0.02666884
v 0.00209583 0.00002436 0.02593405
v -0.00163351 0.00375429 0.02593405
v -0.00229394 0.00375429 0.02654657
v 0.00143716 0.00002436 0.02654127
v 0.00180458 0.00002436 0.02609203
v -0.00192593 0.00375429 0.02609282
v -0.00229218 0.00375429 0.02654127
v 0.00149693 0.00002436 0.02641665
v -0.00228984 0.00375429 0.02653617
v 0.00168152 0.00002436 0.02619075
v -0.00193648 0.00375429 0.02610126
v 0.00157838 0.00002436 0.02630007
v -0.00215564 0.00375429 0.02630694
v -0.00215096 0.00375429 0.02630007
v -0.00214510 0.00375429 0.02629379
f 21 20 24
f 20 21 17
f 17 16 20
f 15 12 17
f 12 16 17
f 29 25 31
f 22 19 18
f 22 27 28
f 30 31 25
f 28 27 32
f 32 27 29
f 29 31 32
f 19 22 23
f 23 22 28
f 6 9 10
f 10 13 14
f 9 13 10
f 26 30 25
f 26 25 21
f 26 21 24
f 5 2 1
f 1 4 5
f 1 3 7
f 7 4 1
f 11 3 8
f 11 7 3
f 15 11 12
f 12 11 8
f 2 5 9
f 9 6 2
f 13 5 4
f 15 17 13
f 13 11 15
f 4 7 13
f 7 11 13
f 13 22 18
f 13 9 5
f 13 25 29
f 21 25 13
f 13 17 21
f 29 27 13
f 27 22 13
f 19 14 13
f 18 19 13
f 1 2 26
f 8 3 26
f 26 3 1
f 2 6 26
f 24 20 26
f 28 32 26
f 26 12 8
f 26 14 19
f 26 16 12
f 19 23 26
f 20 16 26
f 6 10 26
f 31 30 26
f 26 32 31
f 26 23 28
f 26 10 14

