# https://github.com/mikedh/trimesh
v 0.00234651 0.00488035 0.06054805
v 0.00363523 0.00488035 0.06054805
v 0.00234651 0.00488035 0.06123340
v 0.00234651 0.01323361 0.06054805
v 0.00364527 0.00700076 0.06054805
v 0.00364527 0.00488035 0.06070007
v 0.00364527 0.00488035 0.06123340
v 0.00234651 0.01323361 0.06123340
v 0.00364527 0.01323361 0.06054805
v 0.00364527 0.01323116 0.06123340
v 0.00363078 0.01323361 0.06123340
v 0.00364527 0.01323361 0.06078554
f 5 6 2
f 12 11 10
f 8 4 1
f 1 3 8
f 1 4 2
f 2 9 5
f 4 9 2
f 7 3 1
f 1 2 7
f 7 2 6
f 11 8 3
f 3 7 11
f 11 7 10
f 5 9 12
f 12 6 5
f 10 7 12
f 12 7 6
f 12 9 4
f 4 8 12
f 8 11 12

