# https://github.com/mikedh/trimesh
v 0.01221074 -0.01032077 0.06681450
v 0.01221074 -0.01027076 0.06681450
v 0.01221971 -0.01067051 0.06681450
v 0.01221074 -0.01032077 0.06745144
v 0.01221074 -0.01027076 0.06745144
v 0.01300004 -0.01027076 0.06681450
v 0.01221971 -0.01067051 0.06745144
v 0.01300004 -0.01067051 0.06681450
v 0.01300004 -0.01027076 0.06745144
v 0.01300004 -0.01067051 0.06745144
f 1 2 8
f 8 3 1
f 8 2 6
f 9 8 6
f 10 8 9
f 1 3 7
f 7 4 1
f 3 8 7
f 7 8 10
f 10 9 5
f 5 7 10
f 4 7 5
f 5 2 1
f 1 4 5
f 6 2 5
f 5 9 6

