# https://github.com/mikedh/trimesh
v -0.00090304 -0.00643230 0.06959984
v -0.00090304 -0.00617516 0.06957287
v -0.00138895 -0.00680475 0.06959984
v -0.00090304 -0.01238600 0.06959984
v -0.00090304 -0.00591710 0.06954575
v -0.00138895 -0.00583474 0.06949775
v -0.00138895 -0.01238234 0.06959984
v -0.00138895 -0.01239972 0.06959969
v -0.00090304 -0.01240155 0.06959969
v -0.00090304 -0.00546229 0.06949775
v -0.00090337 -0.00546138 0.06949775
v -0.00090304 -0.00508069 0.06938591
v -0.00138895 -0.00554557 0.06940206
v -0.00138895 -0.01240613 0.06959939
v -0.00090304 -0.01240521 0.06959954
v -0.00090304 -0.00508069 0.06804337
v -0.00138895 -0.00508069 0.06924771
v -0.00090304 -0.01267975 0.06958095
v -0.00138895 -0.01288473 0.06956693
v -0.00138895 -0.00508069 0.06804337
v -0.00090304 -0.01442852 0.06804337
v -0.00090304 -0.01286734 0.06956815
v -0.00138895 -0.01289114 0.06956647
v -0.00138895 -0.01442852 0.06804337
v -0.00090304 -0.01442852 0.06935742
v -0.00090304 -0.01288016 0.06956723
v -0.00138895 -0.01289937 0.06956586
v -0.00138895 -0.01442852 0.06935757
v -0.00090304 -0.01430223 0.06938774
v -0.00138895 -0.01432053 0.06938393
v -0.00118571 -0.01442852 0.06935757
v -0.00090304 -0.01294330 0.06956251
v -0.00138895 -0.01304762 0.06955474
v -0.00090304 -0.01386756 0.06947703
v -0.00138895 -0.01384102 0.06948236
v -0.00090304 -0.01318580 0.06954423
v -0.00138895 -0.01374493 0.06950202
v -0.00090304 -0.01361316 0.06951192
v -0.00090304 -0.01379069 0.06949272
v -0.00090304 -0.01374585 0.06950187
f 9 4 8
f 7 8 4
f 13 12 17
f 13 6 12
f 12 6 11
f 38 37 40
f 33 38 36
f 37 38 33
f 25 29 30
f 34 30 29
f 12 11 10
f 32 33 36
f 19 18 14
f 14 18 15
f 8 14 15
f 9 8 15
f 31 30 28
f 25 30 31
f 40 37 39
f 37 34 39
f 35 34 37
f 30 34 35
f 5 10 11
f 5 6 3
f 5 11 6
f 22 19 26
f 18 19 22
f 27 32 26
f 33 32 27
f 3 1 2
f 2 5 3
f 26 19 23
f 23 27 26
f 20 16 21
f 21 24 20
f 20 12 16
f 17 12 20
f 7 4 1
f 7 1 3
f 21 25 31
f 31 24 21
f 31 28 24
f 21 16 2
f 2 25 21
f 9 15 2
f 1 4 2
f 26 32 2
f 16 12 2
f 2 4 9
f 2 38 40
f 40 39 2
f 2 29 25
f 36 38 2
f 2 22 26
f 2 34 29
f 12 10 2
f 2 32 36
f 2 15 18
f 2 39 34
f 10 5 2
f 18 22 2
f 23 20 24
f 24 28 23
f 3 6 23
f 17 20 23
f 23 7 3
f 37 33 23
f 23 13 17
f 8 7 23
f 23 14 8
f 6 13 23
f 23 19 14
f 28 30 23
f 23 35 37
f 30 35 23
f 33 27 23

