# https://github.com/mikedh/trimesh
v 0.01111163 -0.01026614 0.06136170
v 0.01111163 -0.01026614 0.06179996
v 0.01111163 -0.00986643 0.06136170
v 0.01189270 -0.01026614 0.06136170
v 0.01174675 -0.00986643 0.06198921
v 0.01111163 -0.00986643 0.06179996
v 0.01189270 -0.01026614 0.06179996
v 0.01189270 -0.01000929 0.06198921
v 0.01189270 -0.00986643 0.06136170
v 0.01189270 -0.00986643 0.06198921
f 6 2 5
f 8 10 5
f 5 2 8
f 2 7 8
f 1 3 9
f 9 4 1
f 6 9 3
f 5 10 6
f 6 10 9
f 6 3 1
f 1 2 6
f 1 4 7
f 7 2 1
f 4 9 8
f 9 10 8
f 8 7 4

