# https://github.com/mikedh/trimesh
v 0.00627843 0.00695859 0.06246610
v 0.00627843 0.00950323 0.06246610
v 0.00811400 0.00695859 0.06246610
v 0.00627843 0.00695859 0.06959999
v 0.00780118 0.00950323 0.06246610
v 0.00627843 0.00950323 0.06959999
v 0.00811400 0.00909345 0.06246610
v 0.00811400 0.00695859 0.06959999
v 0.00780118 0.00950323 0.06958952
v 0.00779956 0.00950323 0.06959999
v 0.00811400 0.00909345 0.06959999
f 9 10 11
f 1 3 8
f 8 4 1
f 3 7 8
f 8 7 11
f 6 2 1
f 1 4 6
f 1 2 5
f 5 3 1
f 5 7 3
f 4 8 10
f 10 8 11
f 10 6 4
f 2 6 9
f 9 5 2
f 6 10 9
f 11 7 9
f 7 5 9

