# https://github.com/mikedh/trimesh
v 0.02417606 -0.00207307 0.06959987
v 0.02417606 -0.00230011 0.06959987
v 0.02417606 -0.00207307 0.06832857
v 0.02059179 -0.00207307 0.06959987
v 0.02417606 -0.00230011 0.06832857
v 0.02340412 -0.00380532 0.06959987
v 0.02059179 -0.00207307 0.06832857
v 0.02059179 -0.00380532 0.06959987
v 0.02340412 -0.00380532 0.06832857
v 0.02059179 -0.00380532 0.06832857
f 8 2 1
f 8 1 4
f 6 2 8
f 4 1 7
f 1 3 7
f 7 8 4
f 10 8 7
f 6 8 9
f 9 8 10
f 5 7 3
f 10 7 5
f 5 9 10
f 1 2 5
f 5 3 1
f 5 2 6
f 6 9 5

