# https://github.com/mikedh/trimesh
v -0.00242551 -0.01732532 0.06649628
v -0.00242551 -0.01670997 0.06649628
v -0.00198481 -0.01732532 0.06649628
v -0.00198481 -0.01730677 0.06674914
v -0.00242551 -0.01730526 0.06675743
v -0.00198481 -0.01670997 0.06649628
v -0.00242551 -0.01670997 0.06800767
v -0.00198481 -0.01729213 0.06686262
v -0.00242551 -0.01729002 0.06687609
v -0.00242551 -0.01729153 0.06686440
v -0.00198481 -0.01670997 0.06800767
v -0.00242551 -0.01681672 0.06800767
v -0.00198481 -0.01728569 0.06691234
v -0.00242551 -0.01728478 0.06691663
v -0.00198481 -0.01681672 0.06800767
v -0.00242551 -0.01687449 0.06791994
v -0.00198481 -0.01683153 0.06798519
v -0.00198481 -0.01721581 0.06719420
v -0.00242551 -0.01721533 0.06719568
v -0.00198481 -0.01687756 0.06791520
v -0.00242551 -0.01688316 0.06790662
v -0.00198481 -0.01688316 0.06790662
v -0.00198481 -0.01710653 0.06749189
v -0.00242551 -0.01710653 0.06749189
v -0.00198481 -0.01688816 0.06789893
v -0.00242551 -0.01695509 0.06779580
v -0.00198481 -0.01691352 0.06785987
v -0.00198481 -0.01707605 0.06755611
v -0.00242551 -0.01707003 0.06756883
v -0.00242551 -0.01697256 0.06776354
v -0.00198481 -0.01695702 0.06779225
v -0.00198481 -0.01695491 0.06779609
v -0.00198481 -0.01707268 0.06756321
v -0.00198481 -0.01701376 0.06768113
v -0.00198481 -0.01698756 0.06773351
v -0.00242551 -0.01699701 0.06771472
v -0.00198481 -0.01697159 0.06776532
f 1 3 4
f 1 4 5
f 10 5 4
f 13 18 14
f 29 24 23
f 19 18 23
f 23 24 19
f 14 18 19
f 9 10 4
f 8 9 4
f 14 9 8
f 8 13 14
f 30 36 35
f 35 36 29
f 30 35 37
f 16 20 17
f 17 15 12
f 12 16 17
f 31 26 30
f 30 37 31
f 32 26 31
f 28 29 23
f 28 33 29
f 34 35 29
f 29 33 34
f 27 25 21
f 27 21 26
f 27 26 32
f 21 25 22
f 16 21 22
f 22 20 16
f 1 2 6
f 6 3 1
f 11 6 2
f 2 7 11
f 15 11 7
f 7 12 15
f 21 2 1
f 21 7 2
f 21 9 14
f 1 5 21
f 21 12 7
f 14 19 21
f 21 36 30
f 5 10 21
f 24 29 21
f 21 19 24
f 10 9 21
f 29 36 21
f 30 26 21
f 21 16 12
f 3 6 22
f 6 11 22
f 22 8 4
f 22 4 3
f 23 18 22
f 18 13 22
f 11 15 22
f 35 34 22
f 13 8 22
f 32 31 22
f 15 17 22
f 22 37 35
f 22 28 23
f 22 17 20
f 22 27 32
f 22 31 37
f 33 28 22
f 22 34 33
f 25 27 22

