# https://github.com/mikedh/trimesh
v -0.00436470 -0.01550994 0.05432762
v -0.00436470 -0.01550994 0.05648106
v -0.00436470 -0.01455637 0.05432762
v 0.01208945 -0.01550994 0.05432762
v -0.00436470 -0.01455637 0.05648106
v 0.01121810 -0.01550994 0.05648106
v 0.01200570 -0.01455637 0.05432762
v 0.01208945 -0.01550994 0.05569979
v 0.01176894 -0.01455637 0.05648106
v 0.01200570 -0.01455637 0.05569979
f 9 6 8
f 8 10 9
f 1 3 7
f 7 4 1
f 5 3 1
f 1 2 5
f 2 6 5
f 5 6 9
f 10 7 3
f 3 5 10
f 10 5 9
f 1 4 8
f 8 2 1
f 8 6 2
f 4 7 8
f 7 10 8

