# https://github.com/mikedh/trimesh
v -0.00090065 0.01331557 0.06948588
v -0.00090065 0.01369982 0.06945282
v -0.00107267 0.01331557 0.06948554
v -0.00090065 0.01331557 0.06600533
v -0.00090065 0.01384238 0.06944056
v -0.00178597 0.01331557 0.06948281
v -0.00178597 0.01425388 0.06940171
v -0.00090065 0.01735000 0.06600533
v -0.00178597 0.01331557 0.06600533
v -0.00090065 0.01422545 0.06940716
v -0.00090065 0.01510057 0.06921327
v -0.00178597 0.01508399 0.06921736
v -0.00178597 0.01735000 0.06600533
v -0.00090065 0.01735000 0.06630827
v -0.00090065 0.01517916 0.06919112
v -0.00178597 0.01518627 0.06918907
v -0.00178597 0.01509228 0.06921531
v -0.00178597 0.01735000 0.06630827
v -0.00178597 0.01733618 0.06652295
v -0.00090065 0.01733302 0.06656861
v -0.00090065 0.01520720 0.06918294
v -0.00178597 0.01520720 0.06918294
v -0.00178597 0.01733381 0.06655634
v -0.00178597 0.01733223 0.06656963
v -0.00178597 0.01732907 0.06659417
v -0.00090065 0.01730103 0.06681430
v -0.00090065 0.01537780 0.06910729
v -0.00178597 0.01528974 0.06914648
v -0.00178597 0.01525972 0.06915977
v -0.00178597 0.01729866 0.06682657
v -0.00090065 0.01729748 0.06683304
v -0.00090065 0.01566530 0.06897950
v -0.00178597 0.01564555 0.06898837
v -0.00178597 0.01729708 0.06683475
v -0.00178597 0.01725048 0.06707430
v -0.00090065 0.01727141 0.06696662
v -0.00090065 0.01584894 0.06889772
v -0.00178597 0.01591015 0.06887046
v -0.00178597 0.01724298 0.06709713
v -0.00090065 0.01724456 0.06709202
v -0.00090065 0.01725048 0.06707362
v -0.00090065 0.01590975 0.06887046
v -0.00090065 0.01610089 0.06872018
v -0.00178597 0.01610444 0.06871746
v -0.00178597 0.01719717 0.06723514
v -0.00178597 0.01717189 0.06731113
v -0.00090065 0.01718177 0.06728080
v -0.00090065 0.01650686 0.06839305
v -0.00178597 0.01650686 0.06839305
v -0.00178597 0.01716360 0.06733158
v -0.00090065 0.01715689 0.06734998
v -0.00090065 0.01716794 0.06732204
v -0.00090065 0.01661862 0.06824482
v -0.00178597 0.01665693 0.06819405
v -0.00178597 0.01707435 0.06755103
v -0.00090065 0.01707948 0.06754046
v -0.00090065 0.01663244 0.06822642
v -0.00090065 0.01665258 0.06819950
v -0.00090065 0.01696456 0.06777866
v -0.00178597 0.01696456 0.06777866
v -0.00178597 0.01706803 0.06756432
v -0.00090065 0.01698352 0.06774015
v -0.00178597 0.01698707 0.06773231
f 3 7 6
f 44 48 49
f 11 12 7
f 7 10 11
f 7 3 5
f 5 10 7
f 43 44 38
f 38 42 43
f 48 44 43
f 38 33 37
f 37 42 38
f 16 21 22
f 2 3 1
f 2 5 3
f 22 21 29
f 21 28 29
f 33 28 27
f 27 28 21
f 12 11 17
f 11 16 17
f 21 16 15
f 15 16 11
f 32 37 33
f 33 27 32
f 49 48 54
f 54 59 60
f 30 26 25
f 19 14 18
f 41 35 40
f 55 56 50
f 51 52 46
f 46 50 51
f 51 50 56
f 60 59 62
f 59 54 58
f 20 25 26
f 20 19 23
f 14 19 20
f 31 26 30
f 46 52 47
f 39 40 35
f 60 62 63
f 53 54 48
f 24 20 23
f 25 20 24
f 36 35 41
f 36 31 35
f 34 31 30
f 35 31 34
f 40 39 45
f 45 47 40
f 46 47 45
f 61 63 62
f 61 62 56
f 61 56 55
f 57 58 54
f 54 53 57
f 4 9 13
f 8 4 13
f 3 4 1
f 6 9 3
f 3 9 4
f 8 13 14
f 13 18 14
f 61 9 6
f 61 13 9
f 6 7 61
f 61 16 22
f 61 44 49
f 61 18 13
f 12 17 61
f 38 44 61
f 7 12 61
f 61 33 38
f 61 19 18
f 61 28 33
f 22 29 61
f 61 50 46
f 49 54 61
f 61 29 28
f 61 34 30
f 30 25 61
f 61 17 16
f 61 54 60
f 60 63 61
f 23 19 61
f 61 24 23
f 55 50 61
f 61 39 35
f 46 45 61
f 25 24 61
f 35 34 61
f 61 45 39
f 1 4 57
f 57 4 8
f 57 62 59
f 26 31 57
f 57 2 1
f 48 43 57
f 57 27 21
f 57 11 10
f 10 5 57
f 57 43 42
f 42 37 57
f 8 14 57
f 5 2 57
f 21 15 57
f 37 32 57
f 57 47 52
f 57 20 26
f 57 15 11
f 57 32 27
f 52 51 57
f 41 40 57
f 57 51 56
f 56 62 57
f 59 58 57
f 14 20 57
f 57 53 48
f 40 47 57
f 57 36 41
f 31 36 57

