# https://github.com/mikedh/trimesh
v -0.00211423 0.00919381 0.03280000
v -0.00211423 0.00919381 0.02780498
v -0.00247504 0.00919381 0.03280000
v -0.00211423 0.00486189 0.03280000
v -0.00247504 0.00919381 0.02780498
v -0.00211423 0.00388683 0.02780498
v -0.00247504 0.00513877 0.03280000
v -0.00211423 0.00458345 0.03277066
v -0.00247504 0.00388891 0.02780498
v -0.00211423 0.00388683 0.03245628
v -0.00247334 0.00388683 0.02780498
v -0.00247504 0.00481514 0.03276577
v -0.00211423 0.00453825 0.03276577
v -0.00247504 0.00388891 0.03179914
v -0.00228391 0.00388683 0.03229981
v -0.00211423 0.00393722 0.03250321
v -0.00247504 0.00425514 0.03250664
v -0.00247504 0.00407332 0.03231790
v -0.00247334 0.00388683 0.03179669
v -0.00247504 0.00460838 0.03269732
v -0.00211423 0.00423540 0.03266603
v -0.00247504 0.00388995 0.03180598
v -0.00247217 0.00388683 0.03180598
v -0.00228589 0.00388683 0.03229688
v -0.00247504 0.00405618 0.03229981
v -0.00211423 0.00394189 0.03250664
v -0.00247504 0.00430345 0.03253695
v -0.00247504 0.00451384 0.03266554
v -0.00211423 0.00395228 0.03251250
v -0.00247504 0.00393150 0.03205877
v -0.00242548 0.00388683 0.03205681
f 29 21 28
f 28 26 29
f 13 12 21
f 28 21 20
f 21 12 20
f 4 7 8
f 7 12 8
f 12 13 8
f 16 17 10
f 26 17 16
f 10 17 18
f 27 26 28
f 27 17 26
f 15 18 25
f 10 18 15
f 31 30 23
f 30 22 23
f 14 19 23
f 23 22 14
f 25 30 24
f 24 15 25
f 24 30 31
f 1 2 5
f 3 1 5
f 11 5 2
f 11 2 6
f 11 9 5
f 7 1 3
f 7 4 1
f 9 11 19
f 19 14 9
f 16 2 1
f 16 10 6
f 6 2 16
f 1 4 16
f 21 29 16
f 4 8 16
f 16 29 26
f 16 13 21
f 16 8 13
f 3 5 22
f 5 9 22
f 22 7 3
f 9 14 22
f 28 20 22
f 22 12 7
f 22 27 28
f 22 20 12
f 25 18 22
f 22 18 17
f 17 27 22
f 22 30 25
f 6 10 24
f 24 11 6
f 24 19 11
f 10 15 24
f 24 23 19
f 31 23 24

