# https://github.com/mikedh/trimesh
v 0.01051674 -0.00218845 -0.00112678
v 0.01051674 -0.00101729 -0.00112678
v 0.01112313 -0.00218845 -0.00112678
v 0.01051674 -0.00218845 0.01439905
v 0.01112313 -0.00101729 -0.00112678
v 0.01051674 -0.00101729 0.01440969
v 0.01112313 -0.00218845 0.01439905
v 0.01112313 -0.00196571 0.01440969
v 0.01095721 -0.00183845 0.01440969
v 0.01080299 -0.00169699 0.01440969
v 0.01066159 -0.00154291 0.01440969
v 0.01053414 -0.00137668 0.01440969
v 0.01051674 -0.00134951 0.01440969
v 0.01112313 -0.00101729 0.01440969
f 7 8 4
f 4 10 11
f 4 8 9
f 9 10 4
f 12 13 4
f 4 11 12
f 1 2 5
f 5 3 1
f 14 5 2
f 2 6 14
f 13 2 1
f 13 6 2
f 1 4 13
f 3 5 7
f 5 14 7
f 14 8 7
f 1 3 7
f 7 4 1
f 12 14 6
f 12 8 14
f 6 13 12
f 12 9 8
f 12 11 10
f 10 9 12

