# https://github.com/mikedh/trimesh
v 0.01295013 0.00045036 0.02020000
v 0.01297198 0.00049517 0.01870148
v 0.01516018 0.00045923 0.01870148
v 0.01514828 0.00045317 0.01921986
v 0.01496591 0.00044841 0.01988184
v 0.01465158 0.00052570 0.02011126
v 0.01423147 0.00054237 0.02019252
v 0.01407787 0.00082166 0.02019692
v 0.01391151 0.00108320 0.02019692
v 0.01370210 0.00131183 0.02019692
v 0.01335446 0.00155713 0.02019692
v 0.01307799 0.00176866 0.02018988
v 0.01299665 0.00210489 0.02013018
v 0.01295424 0.00260740 0.01953186
v 0.01295360 0.00266022 0.01872436
v 0.01319827 0.00260783 0.01870148
v 0.01510782 0.00069891 0.01870148
v 0.01509528 0.00069566 0.01924098
v 0.01510436 0.00045404 0.01954036
v 0.01502194 0.00079547 0.01953186
v 0.01487159 0.00074805 0.01989798
v 0.01456894 0.00085739 0.02010392
v 0.01429766 0.00093619 0.02017125
v 0.01366381 0.00166170 0.02017125
v 0.01343602 0.00179767 0.02017125
v 0.01339253 0.00215404 0.02004349
v 0.01304662 0.00242618 0.01989812
v 0.01329540 0.00252188 0.01953186
v 0.01319567 0.00259506 0.01924098
v 0.01295771 0.00264702 0.01924098
v 0.01347604 0.00235582 0.01981305
v 0.01342304 0.00253725 0.01870148
v 0.01503665 0.00092429 0.01870148
v 0.01497976 0.00102756 0.01924098
v 0.01484541 0.00122133 0.01953186
v 0.01471042 0.00127654 0.01981305
v 0.01475585 0.00105224 0.01989798
v 0.01454385 0.00130252 0.01998291
v 0.01444131 0.00112109 0.02010392
v 0.01419231 0.00129884 0.02013766
v 0.01375294 0.00196633 0.02004349
v 0.01394136 0.00157272 0.02013766
v 0.01387041 0.00215057 0.01981305
v 0.01352752 0.00247966 0.01924098
v 0.01372136 0.00234543 0.01953186
v 0.01364066 0.00244697 0.01870148
v 0.01494666 0.00114187 0.01870148
v 0.01482681 0.00134366 0.01924098
v 0.01459771 0.00160974 0.01953186
v 0.01452286 0.00155258 0.01981305
v 0.01428663 0.00163724 0.01998291
v 0.01409994 0.00190679 0.01989798
v 0.01430480 0.00180460 0.01981305
v 0.01410989 0.00209774 0.01953186
v 0.01384358 0.00232659 0.01924098
v 0.01384964 0.00233828 0.01870148
v 0.01477424 0.00144996 0.01870148
v 0.01462952 0.00163399 0.01924098
v 0.01437165 0.00187150 0.01953186
v 0.01439977 0.00189986 0.01924098
v 0.01413412 0.00212935 0.01924098
v 0.01414147 0.00214018 0.01870148
v 0.01456765 0.00173575 0.01870148
v 0.01440843 0.00190938 0.01870148
f 2 3 1
f 1 15 2
f 14 15 1
f 1 13 14
f 1 5 6
f 6 7 1
f 27 14 13
f 31 14 27
f 16 2 15
f 31 43 45
f 45 43 54
f 17 18 3
f 40 39 51
f 31 27 26
f 26 43 31
f 41 43 26
f 26 27 13
f 54 43 53
f 52 41 51
f 52 43 41
f 51 53 52
f 52 53 43
f 64 62 60
f 47 57 48
f 48 57 58
f 18 17 33
f 3 18 4
f 18 19 4
f 4 19 5
f 1 3 4
f 4 5 1
f 22 39 23
f 39 40 23
f 7 6 23
f 23 6 22
f 30 16 15
f 30 29 16
f 15 14 30
f 14 29 30
f 28 29 14
f 28 14 31
f 31 45 28
f 16 29 32
f 46 32 44
f 44 32 29
f 44 28 45
f 29 28 44
f 58 57 63
f 64 60 63
f 63 60 58
f 54 60 61
f 61 60 62
f 54 53 59
f 59 60 54
f 58 60 59
f 47 48 34
f 34 33 47
f 18 33 34
f 51 41 42
f 42 40 51
f 12 13 1
f 1 11 12
f 7 23 8
f 1 7 8
f 55 56 46
f 46 44 55
f 55 44 45
f 55 45 54
f 54 61 55
f 62 56 55
f 55 61 62
f 49 48 58
f 58 59 49
f 20 19 18
f 18 34 20
f 5 19 20
f 24 23 40
f 40 42 24
f 24 42 41
f 50 59 53
f 50 49 59
f 50 53 51
f 48 49 35
f 35 34 48
f 35 20 34
f 10 24 11
f 10 11 1
f 25 12 11
f 11 24 25
f 13 12 25
f 25 26 13
f 41 26 25
f 25 24 41
f 49 50 36
f 36 35 49
f 20 35 36
f 1 8 9
f 9 10 1
f 9 8 23
f 23 24 9
f 24 10 9
f 5 20 21
f 20 36 21
f 21 6 5
f 22 6 21
f 38 50 51
f 38 36 50
f 51 39 38
f 38 39 22
f 37 21 36
f 36 38 37
f 22 21 37
f 37 38 22
f 63 62 64
f 3 2 63
f 63 17 3
f 2 16 63
f 47 33 63
f 63 32 46
f 46 56 63
f 63 57 47
f 63 56 62
f 63 33 17
f 16 32 63

