# https://github.com/mikedh/trimesh
v -0.02045227 0.00700938 0.01317269
v -0.02045227 0.00865823 0.01317269
v -0.01980982 0.00700938 0.01317269
v -0.02045227 0.00700938 0.01590000
v -0.01980982 0.00865823 0.01317269
v -0.02045227 0.00865823 0.01558255
v -0.01980982 0.00700938 0.01590000
v -0.02045227 0.00841726 0.01590000
v -0.01980982 0.00865823 0.01440004
v -0.01980982 0.00861078 0.01590000
v -0.02041932 0.00865823 0.01557667
v -0.01998026 0.00865823 0.01525228
v -0.02006875 0.00865823 0.01540500
v -0.02012070 0.00865823 0.01545306
v -0.02020139 0.00865823 0.01549978
v -0.02027347 0.00865823 0.01553395
v -0.02030315 0.00865823 0.01554410
v -0.01998290 0.00865823 0.01526002
v -0.01999806 0.00865823 0.01530408
v -0.02002768 0.00865823 0.01535507
v -0.02005089 0.00865823 0.01538337
f 10 6 8
f 9 12 10
f 11 6 10
f 10 14 15
f 15 16 10
f 19 20 10
f 13 14 10
f 10 16 17
f 17 11 10
f 10 12 18
f 18 19 10
f 10 20 21
f 21 13 10
f 1 2 5
f 5 3 1
f 1 3 7
f 7 4 1
f 8 2 1
f 1 4 8
f 8 6 2
f 4 7 8
f 8 7 10
f 3 5 9
f 9 7 3
f 10 7 9
f 21 5 2
f 2 6 21
f 21 9 5
f 12 9 21
f 21 15 14
f 6 11 21
f 21 17 16
f 14 13 21
f 16 15 21
f 20 19 21
f 21 18 12
f 11 17 21
f 19 18 21

