# https://github.com/mikedh/trimesh
v -0.01972907 -0.01199614 0.01439967
v -0.02061147 -0.01199614 0.01489042
v -0.01972907 -0.01240000 0.01439967
v -0.01972907 -0.01199614 0.00446828
v -0.02064096 -0.01199744 0.01489042
v -0.02074654 -0.01199614 0.01489042
v -0.02069992 -0.01200001 0.01489042
v -0.02069992 -0.01240000 0.01439967
v -0.01972907 -0.01240000 0.00446828
v -0.02074654 -0.01199614 0.00446828
v -0.02074654 -0.01199800 0.01489042
v -0.02074654 -0.01239795 0.01439967
v -0.02073050 -0.01239866 0.00446828
v -0.02069992 -0.01240000 0.00446828
v -0.02074654 -0.01215012 0.00446828
v -0.02074564 -0.01239798 0.00446828
f 2 3 1
f 3 7 8
f 16 12 15
f 3 2 5
f 5 7 3
f 12 8 11
f 11 8 7
f 13 12 16
f 13 14 8
f 13 8 12
f 1 4 10
f 6 2 10
f 10 2 1
f 9 4 1
f 1 3 9
f 6 10 11
f 10 15 11
f 11 15 12
f 11 2 6
f 11 5 2
f 7 5 11
f 14 9 3
f 3 8 14
f 13 10 4
f 4 9 13
f 16 15 13
f 13 15 10
f 9 14 13

