# https://github.com/mikedh/trimesh
v 0.00248045 -0.00645030 0.01700000
v -0.00053401 -0.00645030 0.01700000
v 0.00248045 -0.00700003 0.01700000
v 0.00248045 -0.00645030 -0.01439819
v -0.00053401 -0.00645030 -0.01439819
v -0.02270000 -0.00679591 0.01439880
v -0.02200246 -0.00679591 0.01700000
v -0.02200246 -0.00700003 0.01700000
v 0.00248045 -0.00752741 0.01589763
v 0.00248045 -0.00650006 -0.01589702
v -0.02230070 -0.00679591 -0.01588735
v -0.02232535 -0.00679591 -0.01579710
v -0.02270000 -0.00679591 -0.01439819
v 0.00094980 -0.00650006 -0.01589702
v -0.02229577 -0.00679591 -0.01589702
v -0.02270000 -0.00752741 0.01439880
v -0.02244859 -0.00752741 0.01533355
v -0.02229577 -0.00752741 0.01589763
v 0.00248045 -0.00752741 -0.01589702
v -0.00055373 -0.00752741 -0.01592925
v -0.00055866 -0.00748629 -0.01592925
v -0.00056605 -0.00742619 -0.01592925
v -0.00057098 -0.00740026 -0.01592925
v -0.00058577 -0.00734111 -0.01592925
v -0.00059316 -0.00731570 -0.01592925
v -0.00061042 -0.00725792 -0.01592925
v -0.00064493 -0.00717737 -0.01592925
v -0.00068436 -0.00709998 -0.01592925
v -0.00073119 -0.00702639 -0.01592925
v -0.00078542 -0.00695733 -0.01592925
v -0.00080267 -0.00693761 -0.01592925
v -0.00084457 -0.00689301 -0.01592925
v -0.00090866 -0.00683408 -0.01592925
v -0.00095796 -0.00679591 -0.01592925
v -0.02229824 -0.00752741 -0.01589057
v -0.02231303 -0.00752741 -0.01583900
v -0.02232289 -0.00752741 -0.01580354
v -0.02229577 -0.00752741 -0.01589702
v -0.02270000 -0.00752741 -0.01439819
v -0.01739821 -0.00679591 -0.01592925
v -0.01739821 -0.00752741 -0.01592925
f 6 7 2
f 12 13 5
f 10 19 20
f 8 16 17
f 17 18 8
f 13 12 39
f 5 15 11
f 11 12 5
f 15 38 11
f 23 10 22
f 14 15 5
f 37 39 12
f 12 11 37
f 21 10 20
f 21 22 10
f 15 14 40
f 35 11 38
f 36 37 11
f 11 35 36
f 33 34 10
f 10 32 33
f 10 29 30
f 26 27 10
f 28 29 10
f 10 27 28
f 31 32 10
f 10 30 31
f 24 10 23
f 25 26 10
f 10 24 25
f 8 7 16
f 16 7 6
f 2 3 1
f 8 3 2
f 2 7 8
f 5 13 2
f 2 13 6
f 9 3 18
f 18 3 8
f 39 16 6
f 6 13 39
f 9 19 4
f 1 3 4
f 4 3 9
f 19 10 4
f 4 2 1
f 5 2 4
f 14 4 10
f 5 4 14
f 40 41 38
f 40 38 15
f 34 14 10
f 34 40 14
f 36 19 9
f 20 19 36
f 9 18 36
f 36 17 16
f 36 41 20
f 18 17 36
f 38 41 36
f 16 39 36
f 39 37 36
f 36 35 38
f 20 41 25
f 25 21 20
f 23 22 25
f 22 21 25
f 41 40 25
f 40 34 25
f 25 30 29
f 34 33 25
f 32 31 25
f 25 33 32
f 29 28 25
f 27 26 25
f 25 28 27
f 25 31 30
f 25 24 23

