# https://github.com/mikedh/trimesh
v 0.01221586 -0.00246885 -0.01440723
v 0.01221586 -0.00121617 -0.01440723
v 0.01270488 -0.00246885 -0.01440723
v 0.01221586 -0.00246885 0.01439851
v 0.01270488 -0.00123272 -0.01440723
v 0.01221586 -0.00001771 -0.01439877
v 0.01270243 -0.00001771 -0.01439877
v 0.01270488 -0.00246885 0.01439851
v 0.01249998 -0.00239999 0.01440980
v 0.01229083 -0.00239063 0.01440980
v 0.01228408 -0.00238991 0.01440980
v 0.01221586 -0.00238079 0.01440980
v 0.01270488 -0.00001795 -0.01439877
v 0.01221586 -0.00001771 0.01440980
v 0.01270488 -0.00001771 -0.01364844
v 0.01270488 -0.00239087 0.01440980
v 0.01270234 -0.00239111 0.01440980
v 0.01270488 -0.00001771 0.01440980
f 7 2 6
f 2 7 5
f 5 7 13
f 9 4 8
f 13 7 15
f 17 8 16
f 9 8 17
f 10 4 9
f 11 12 4
f 4 10 11
f 1 2 5
f 5 3 1
f 8 4 1
f 1 3 8
f 6 2 12
f 12 2 1
f 1 4 12
f 12 14 6
f 15 8 3
f 3 5 15
f 18 16 15
f 15 5 13
f 16 8 15
f 6 14 15
f 15 14 18
f 15 7 6
f 11 16 18
f 14 12 11
f 18 14 11
f 9 17 11
f 11 17 16
f 11 10 9

