# https://github.com/mikedh/trimesh
v -0.02074755 0.01202328 -0.00851451
v -0.02186619 0.01202328 -0.01439944
v -0.02186998 0.01202037 -0.00851451
v -0.02074755 0.01067144 -0.00851451
v -0.02074755 0.01202328 -0.01508433
v -0.02183991 0.01202328 -0.01445989
v -0.02198553 0.01193185 -0.01439944
v -0.02199158 0.01192629 -0.00851451
v -0.02267960 0.01067144 -0.00851451
v -0.02074755 0.01067144 -0.01439944
v -0.02074755 0.01085127 -0.01508433
v -0.02151481 0.01202328 -0.01508433
v -0.02181683 0.01202328 -0.01450748
v -0.02169882 0.01191703 -0.01508433
v -0.02174175 0.01188791 -0.01508433
v -0.02179811 0.01184597 -0.01508433
v -0.02211413 0.01181408 -0.01439944
v -0.02208784 0.01183816 -0.00851451
v -0.02184501 0.01180971 -0.01508433
v -0.02186752 0.01179145 -0.01508433
v -0.02193012 0.01173455 -0.01508433
v -0.02266958 0.01074753 -0.00851451
v -0.02267960 0.01067144 -0.01439944
v -0.02092021 0.01067144 -0.01508433
v -0.02153920 0.01201071 -0.01508433
v -0.02155604 0.01202328 -0.01501230
v -0.02167499 0.01202328 -0.01479558
v -0.02165646 0.01194402 -0.01508433
v -0.02223176 0.01168546 -0.01439944
v -0.02211413 0.01181408 -0.00851451
v -0.02198156 0.01168718 -0.01508433
v -0.02201541 0.01165211 -0.01508433
v -0.02263176 0.01091783 -0.00851451
v -0.02266958 0.01074753 -0.01439944
v -0.02249426 0.01068044 -0.01508433
v -0.02160861 0.01197300 -0.01508433
v -0.02163736 0.01202328 -0.01486697
v -0.02233805 0.01154704 -0.01439944
v -0.02223687 0.01167884 -0.00851451
v -0.02206175 0.01160143 -0.01508433
v -0.02209503 0.01156305 -0.01508433
v -0.02214212 0.01150218 -0.01508433
v -0.02257937 0.01108417 -0.00851451
v -0.02263176 0.01091783 -0.01439944
v -0.02247289 0.01078961 -0.01508433
v -0.02248897 0.01071564 -0.01508433
v -0.02243185 0.01139990 -0.01439944
v -0.02233805 0.01154704 -0.00851451
v -0.02218789 0.01144184 -0.01508433
v -0.02220529 0.01141644 -0.01508433
v -0.02251261 0.01124534 -0.00851451
v -0.02257937 0.01108417 -0.01439944
v -0.02244320 0.01090963 -0.01508433
v -0.02245531 0.01086715 -0.01508433
v -0.02251261 0.01124534 -0.01439944
v -0.02243185 0.01139990 -0.00851451
v -0.02224500 0.01135385 -0.01508433
v -0.02227299 0.01130846 -0.01508433
v -0.02229663 0.01126492 -0.01508433
v -0.02237285 0.01110468 -0.01508433
v -0.02240462 0.01102753 -0.01508433
v -0.02241994 0.01098267 -0.01508433
v -0.02233181 0.01119757 -0.01508433
v -0.02234637 0.01116793 -0.01508433
f 1 2 3
f 11 10 24
f 35 23 34
f 24 23 35
f 7 3 2
f 29 39 30
f 30 17 29
f 46 35 34
f 38 48 39
f 38 39 29
f 3 7 8
f 34 44 45
f 45 46 34
f 45 44 54
f 57 58 47
f 50 38 49
f 50 47 38
f 57 47 50
f 17 7 21
f 18 8 7
f 18 7 17
f 17 30 18
f 29 40 41
f 63 64 55
f 44 52 53
f 54 44 53
f 60 52 55
f 60 61 52
f 55 64 60
f 20 21 7
f 17 21 31
f 42 38 29
f 29 41 42
f 49 38 42
f 55 47 59
f 59 63 55
f 59 47 58
f 52 61 62
f 62 53 52
f 28 27 36
f 6 15 16
f 6 7 2
f 6 16 7
f 7 16 19
f 19 20 7
f 17 31 32
f 29 17 32
f 32 40 29
f 37 36 27
f 36 37 25
f 14 13 27
f 14 27 28
f 6 13 14
f 15 6 14
f 12 25 26
f 26 25 37
f 11 5 1
f 1 4 11
f 4 10 11
f 23 10 4
f 23 4 9
f 24 10 23
f 22 23 9
f 34 23 22
f 44 22 33
f 34 22 44
f 43 51 52
f 52 51 55
f 52 33 43
f 52 44 33
f 47 51 56
f 55 51 47
f 56 48 47
f 48 38 47
f 18 4 1
f 9 4 18
f 1 3 18
f 18 48 56
f 56 51 18
f 43 33 18
f 18 22 9
f 33 22 18
f 39 48 18
f 18 30 39
f 18 51 43
f 3 8 18
f 5 11 14
f 14 11 24
f 14 12 5
f 24 35 14
f 64 63 14
f 16 15 14
f 14 58 57
f 14 45 54
f 35 46 14
f 57 50 14
f 14 62 61
f 14 19 16
f 46 45 14
f 54 53 14
f 14 50 49
f 14 60 64
f 40 32 14
f 14 41 40
f 49 42 14
f 14 59 58
f 61 60 14
f 14 25 12
f 21 20 14
f 14 31 21
f 14 42 41
f 63 59 14
f 53 62 14
f 28 36 14
f 20 19 14
f 14 32 31
f 36 25 14
f 1 5 26
f 5 12 26
f 26 2 1
f 26 6 2
f 27 13 26
f 26 37 27
f 26 13 6

