# https://github.com/mikedh/trimesh
v 0.01250014 -0.00300000 -0.01830000
v 0.01249926 -0.00299969 -0.01830000
v 0.01276159 -0.00298840 -0.01830000
v 0.01250014 -0.00300000 -0.01440723
v 0.01249926 -0.00125011 -0.01830000
v 0.01249926 -0.00299969 -0.01440723
v 0.01302098 -0.00295423 -0.01830000
v 0.01276159 -0.00298840 -0.01440723
v 0.01373305 0.00020260 -0.01830000
v 0.01249926 -0.00125011 -0.01440723
v 0.01327655 -0.00289749 -0.01830000
v 0.01302098 -0.00295423 -0.01440723
v 0.01549089 0.00020260 -0.01830000
v 0.01373305 0.00020260 -0.01440723
v 0.01352624 -0.00281880 -0.01830000
v 0.01327655 -0.00289749 -0.01440723
v 0.01550000 -0.00000023 -0.01830000
v 0.01549089 0.00020260 -0.01440723
v 0.01376800 -0.00271880 -0.01830000
v 0.01352624 -0.00281880 -0.01440723
v 0.01548854 -0.00026168 -0.01830000
v 0.01549971 0.00000040 -0.01440723
v 0.01548854 -0.00026168 -0.01440723
v 0.01399978 -0.00259779 -0.01830000
v 0.01376800 -0.00271880 -0.01440723
v 0.01545417 -0.00052125 -0.01830000
v 0.01545417 -0.00052125 -0.01440723
v 0.01422068 -0.00245735 -0.01830000
v 0.01399978 -0.00259779 -0.01440723
v 0.01539777 -0.00077674 -0.01830000
v 0.01539777 -0.00077674 -0.01440723
v 0.01442808 -0.00229810 -0.01830000
v 0.01422068 -0.00245735 -0.01440723
v 0.01531905 -0.00102628 -0.01830000
v 0.01531905 -0.00102628 -0.01440723
v 0.01462108 -0.00212129 -0.01830000
v 0.01442808 -0.00229810 -0.01440723
v 0.01521887 -0.00126798 -0.01830000
v 0.01521887 -0.00126798 -0.01440723
v 0.01479792 -0.00192818 -0.01830000
v 0.01462108 -0.00212129 -0.01440723
v 0.01509784 -0.00149996 -0.01830000
v 0.01509784 -0.00149996 -0.01440723
v 0.01495743 -0.00172065 -0.01830000
v 0.01479792 -0.00192818 -0.01440723
v 0.01495743 -0.00172065 -0.01440723
f 13 18 17
f 17 18 22
f 22 23 17
f 17 23 21
f 6 5 2
f 10 5 6
f 14 13 9
f 18 13 14
f 9 5 14
f 14 5 10
f 4 6 1
f 1 6 2
f 8 1 3
f 4 1 8
f 25 15 19
f 20 15 25
f 21 23 27
f 27 26 21
f 12 3 7
f 12 8 3
f 30 31 35
f 35 34 30
f 30 26 27
f 27 31 30
f 29 24 28
f 29 28 33
f 29 25 19
f 19 24 29
f 42 43 46
f 42 46 44
f 39 38 34
f 39 34 35
f 39 42 38
f 43 42 39
f 40 13 17
f 2 5 40
f 40 42 44
f 9 13 40
f 34 38 40
f 40 5 9
f 40 1 2
f 17 21 40
f 7 3 40
f 19 15 40
f 40 24 19
f 36 32 40
f 3 1 40
f 40 30 34
f 40 11 7
f 40 21 26
f 40 32 28
f 28 24 40
f 26 30 40
f 15 11 40
f 38 42 40
f 46 45 40
f 44 46 40
f 36 40 41
f 41 40 45
f 16 15 20
f 16 11 15
f 16 12 7
f 7 11 16
f 37 6 4
f 37 16 20
f 18 14 37
f 10 6 37
f 37 14 10
f 37 22 18
f 37 39 35
f 4 8 37
f 27 23 37
f 35 31 37
f 20 25 37
f 37 29 33
f 23 22 37
f 37 31 27
f 8 12 37
f 46 43 37
f 37 45 46
f 25 29 37
f 43 39 37
f 37 41 45
f 12 16 37
f 28 32 37
f 33 28 37
f 37 32 36
f 36 41 37

