# https://github.com/mikedh/trimesh
v 0.01465633 -0.00156085 -0.00150675
v 0.01312514 -0.00156085 -0.00150675
v 0.01465633 -0.00190135 -0.00150675
v 0.01465633 -0.00156085 -0.01440723
v 0.01312514 -0.00190135 -0.00150675
v 0.01312514 -0.00156085 -0.01440723
v 0.01465633 -0.00190135 -0.01440723
v 0.01312514 -0.00190135 -0.01438450
v 0.01312514 -0.00189868 -0.01440723
v 0.01312634 -0.00190135 -0.01440723
f 10 8 9
f 5 3 1
f 5 1 2
f 2 1 6
f 1 4 6
f 1 3 7
f 7 4 1
f 3 5 8
f 8 7 3
f 10 7 8
f 9 6 4
f 9 7 10
f 4 7 9
f 9 5 2
f 2 6 9
f 9 8 5

