# https://github.com/mikedh/trimesh
v -0.02074663 -0.01020733 0.01021878
v -0.02270000 -0.01020733 0.01021878
v -0.02074663 -0.01062373 0.01021878
v -0.02074663 -0.01020733 -0.01439882
v -0.02270000 -0.01040000 0.01021878
v -0.02270000 -0.01020733 -0.01439882
v -0.02268585 -0.01062373 0.01021878
v -0.02074663 -0.01062373 -0.01439882
v -0.02095027 -0.01062373 -0.01508492
v -0.02104817 -0.01020733 -0.01508492
v -0.02269235 -0.01057429 0.01021878
v -0.02270000 -0.01040000 -0.01439882
v -0.02251644 -0.01020733 -0.01508492
v -0.02268585 -0.01062373 -0.01439882
v -0.02250172 -0.01062373 -0.01508492
v -0.02269235 -0.01057429 -0.01439882
v -0.02251644 -0.01040000 -0.01508492
v -0.02251568 -0.01043962 -0.01508492
v -0.02250956 -0.01055831 -0.01508492
v -0.02251243 -0.01051071 -0.01508492
f 4 8 9
f 9 10 4
f 16 15 14
f 18 16 12
f 17 18 12
f 15 16 19
f 16 18 20
f 20 19 16
f 1 3 4
f 3 8 4
f 3 7 15
f 15 8 3
f 9 8 15
f 7 14 15
f 11 3 1
f 11 1 2
f 11 7 3
f 2 5 11
f 12 5 2
f 2 6 12
f 2 1 13
f 1 4 13
f 13 4 10
f 13 6 2
f 16 14 7
f 7 11 16
f 16 11 5
f 5 12 16
f 17 12 6
f 6 13 17
f 9 15 20
f 20 13 10
f 20 10 9
f 20 17 13
f 18 17 20
f 15 19 20

