# https://github.com/mikedh/trimesh
v -0.00053206 0.00699999 0.01700000
v -0.00257755 0.00699999 0.01700000
v -0.00053206 0.00620285 0.01700000
v -0.00053206 0.00700938 0.01589988
v -0.00257755 0.00620285 0.01700000
v -0.00257755 0.00700938 0.01589988
v -0.00053206 0.00620285 -0.01289051
v -0.00053206 0.00700938 -0.01289051
v -0.00257755 0.00620285 -0.01289051
v -0.00257755 0.00700938 -0.01289051
f 5 3 1
f 5 1 2
f 3 7 4
f 1 3 4
f 7 8 4
f 2 1 4
f 4 6 2
f 9 7 3
f 3 5 9
f 10 5 2
f 2 6 10
f 10 9 5
f 10 4 8
f 6 4 10
f 10 8 7
f 7 9 10

