# https://github.com/mikedh/trimesh
v -0.02144756 -0.00960524 0.01579990
v -0.02180388 -0.00960966 0.01578578
v -0.02168556 -0.00962810 0.01579918
v -0.02174227 -0.00976407 0.01579990
v -0.02144756 -0.00999993 0.01579990
v -0.02144756 -0.00960524 0.01475472
v -0.02213854 -0.00960524 0.01562076
v -0.02188311 -0.00969841 0.01577944
v -0.02181328 -0.00973101 0.01579417
v -0.02203776 -0.00961490 0.01569831
v -0.02193678 -0.00963618 0.01575273
v -0.02184198 -0.00995744 0.01579867
v -0.02178076 -0.00985672 0.01579990
v -0.02192297 -0.01017456 0.01579447
v -0.02199330 -0.01020727 0.01578169
v -0.02145471 -0.01020727 0.01475472
v -0.02144756 -0.00999993 0.01475472
v -0.02233560 -0.00963034 0.01475472
v -0.02225137 -0.00960524 0.01547671
v -0.02214305 -0.00972482 0.01565953
v -0.02219320 -0.00960524 0.01556172
v -0.02219584 -0.00970560 0.01560490
v -0.02193620 -0.00991872 0.01578506
v -0.02185432 -0.00982996 0.01579417
v -0.02198438 -0.00978257 0.01575764
v -0.02208321 -0.00974656 0.01570547
v -0.02190290 -0.01001726 0.01579488
v -0.02200995 -0.01001897 0.01577156
v -0.02202513 -0.01013401 0.01577156
v -0.02206842 -0.01020727 0.01575703
v -0.02244814 -0.01020727 0.01475472
v -0.02239035 -0.00979713 0.01475472
v -0.02238751 -0.00979784 0.01523915
v -0.02233061 -0.00962887 0.01525327
v -0.02230534 -0.00963323 0.01538268
v -0.02229153 -0.00967077 0.01545348
v -0.02225558 -0.00968380 0.01552193
v -0.02223766 -0.00983803 0.01560490
v -0.02218330 -0.00985259 0.01565953
v -0.02212180 -0.00986903 0.01570547
v -0.02203228 -0.00989302 0.01575365
v -0.02212131 -0.01012558 0.01573156
v -0.02219662 -0.01020727 0.01568633
v -0.02244324 -0.01009741 0.01475472
v -0.02244647 -0.01020727 0.01522994
v -0.02241601 -0.00991306 0.01475472
v -0.02242052 -0.00994659 0.01523915
v -0.02236293 -0.00980444 0.01538013
v -0.02231748 -0.00981664 0.01548776
v -0.02230769 -0.00996645 0.01555374
v -0.02223129 -0.00997995 0.01564183
v -0.02218830 -0.01011969 0.01569135
v -0.02211592 -0.01000028 0.01572460
v -0.02224902 -0.01011444 0.01564183
v -0.02228418 -0.01020727 0.01561063
v -0.02244040 -0.01009765 0.01523915
v -0.02243247 -0.01020727 0.01533327
v -0.02241503 -0.01009989 0.01538013
v -0.02238164 -0.00995337 0.01541686
v -0.02230338 -0.01010961 0.01558556
v -0.02238732 -0.01010230 0.01545348
v -0.02234922 -0.01010566 0.01552193
v -0.02235118 -0.01020727 0.01552510
v -0.02240044 -0.01020727 0.01543282
f 15 16 5
f 18 19 6
f 15 5 14
f 17 5 16
f 7 2 1
f 1 2 3
f 19 18 34
f 11 2 10
f 2 7 10
f 15 14 27
f 27 23 15
f 15 23 28
f 25 23 8
f 8 2 11
f 11 25 8
f 48 59 49
f 47 59 48
f 32 46 47
f 20 10 7
f 9 3 2
f 2 8 9
f 54 55 43
f 19 37 21
f 31 45 44
f 45 56 44
f 47 46 44
f 44 56 47
f 57 56 45
f 36 48 49
f 36 37 19
f 49 37 36
f 47 48 33
f 33 48 34
f 33 32 47
f 18 32 33
f 33 34 18
f 3 9 4
f 1 3 4
f 12 27 14
f 13 4 12
f 12 4 9
f 5 13 12
f 12 14 5
f 24 8 23
f 24 9 8
f 23 27 24
f 27 12 24
f 24 12 9
f 30 42 43
f 41 42 28
f 41 23 25
f 41 28 23
f 43 42 52
f 52 54 43
f 51 54 52
f 64 63 61
f 61 63 62
f 55 54 60
f 60 63 55
f 62 63 60
f 60 54 51
f 7 21 22
f 22 20 7
f 22 21 37
f 34 48 35
f 48 36 35
f 19 34 35
f 35 36 19
f 29 30 15
f 15 28 29
f 28 42 29
f 42 30 29
f 58 57 64
f 64 61 58
f 58 61 59
f 56 57 58
f 58 59 47
f 47 56 58
f 50 61 62
f 62 60 50
f 49 59 50
f 59 61 50
f 50 60 51
f 20 22 38
f 38 50 51
f 38 22 37
f 38 37 49
f 49 50 38
f 53 52 42
f 53 40 52
f 42 41 53
f 41 40 53
f 51 52 39
f 52 40 39
f 39 40 20
f 39 38 51
f 20 38 39
f 26 41 25
f 26 40 41
f 26 25 11
f 11 10 26
f 10 20 26
f 20 40 26
f 17 6 1
f 1 5 17
f 1 6 21
f 6 19 21
f 21 7 1
f 44 16 31
f 6 17 44
f 44 18 6
f 44 17 16
f 44 32 18
f 46 32 44
f 4 5 1
f 4 13 5
f 63 16 15
f 31 16 63
f 64 57 63
f 63 45 31
f 15 30 63
f 43 55 63
f 63 57 45
f 63 30 43

