# https://github.com/mikedh/trimesh
v 0.01465633 -0.00190135 -0.01440723
v 0.01465633 -0.00074004 -0.01440723
v 0.01481886 -0.00190135 -0.01440723
v 0.01465633 -0.00190135 0.01439851
v 0.01502943 -0.00074004 -0.01440723
v 0.01465633 -0.00074004 0.01440980
v 0.01495744 -0.00172072 -0.01440723
v 0.01502943 -0.00190135 -0.01439877
v 0.01502943 -0.00190135 0.01439851
v 0.01465633 -0.00105049 0.01440980
v 0.01502943 -0.00160761 -0.01440723
v 0.01502943 -0.00074004 0.01439851
v 0.01478077 -0.00074004 0.01440980
v 0.01475527 -0.00082086 0.01440980
v 0.01475268 -0.00082723 0.01440980
v 0.01467518 -0.00101434 0.01440980
f 10 4 9
f 9 12 13
f 7 11 8
f 8 3 7
f 9 13 14
f 16 10 9
f 9 14 15
f 15 16 9
f 9 8 11
f 5 12 11
f 11 12 9
f 10 6 2
f 10 2 1
f 1 4 10
f 3 4 1
f 9 4 3
f 3 8 9
f 2 6 13
f 5 2 13
f 13 12 5
f 1 2 7
f 7 2 5
f 5 11 7
f 7 3 1
f 6 10 15
f 15 13 6
f 15 14 13
f 10 16 15

