# https://github.com/mikedh/trimesh
v -0.00053186 -0.00389061 -0.00357053
v -0.00262232 -0.00389061 -0.00357053
v -0.00053186 -0.00446966 -0.00357053
v -0.00053186 -0.00389061 -0.01439956
v -0.00262232 -0.00446966 -0.00357053
v -0.00262232 -0.00389061 -0.01439956
v -0.00053186 -0.00446966 -0.01439956
v -0.00086826 -0.00446966 -0.01441017
v -0.00090734 -0.00443395 -0.01441017
v -0.00097651 -0.00438084 -0.01441017
v -0.00105017 -0.00433396 -0.01441017
v -0.00112752 -0.00429366 -0.01441017
v -0.00120814 -0.00426028 -0.01441017
v -0.00129122 -0.00423403 -0.01441017
v -0.00137655 -0.00421516 -0.01441017
v -0.00146290 -0.00420377 -0.01441017
v -0.00155008 -0.00419997 -0.01441017
v -0.00262232 -0.00446966 -0.01439956
v -0.00163704 -0.00420377 -0.01441017
v -0.00172360 -0.00421516 -0.01441017
v -0.00180872 -0.00423403 -0.01441017
v -0.00189201 -0.00426028 -0.01441017
v -0.00197242 -0.00429366 -0.01441017
v -0.00204998 -0.00433396 -0.01441017
v -0.00212344 -0.00438084 -0.01441017
v -0.00219260 -0.00443395 -0.01441017
v -0.00223168 -0.00446966 -0.01441017
f 8 4 7
f 17 6 4
f 27 18 6
f 10 11 4
f 12 13 4
f 4 11 12
f 16 17 4
f 4 15 16
f 4 13 14
f 14 15 4
f 9 4 8
f 9 10 4
f 6 17 19
f 19 20 6
f 21 22 6
f 6 20 21
f 6 24 25
f 6 22 23
f 23 24 6
f 26 27 6
f 6 25 26
f 5 3 1
f 5 1 2
f 2 1 6
f 1 4 6
f 1 3 7
f 7 4 1
f 18 5 2
f 2 6 18
f 3 5 27
f 27 7 3
f 8 7 27
f 5 18 27
f 8 27 26
f 13 12 26
f 26 14 13
f 22 21 26
f 17 16 26
f 26 9 8
f 11 10 26
f 26 12 11
f 26 16 15
f 15 14 26
f 26 19 17
f 26 23 22
f 10 9 26
f 20 19 26
f 26 21 20
f 26 25 24
f 24 23 26

