# https://github.com/mikedh/trimesh
v 0.01204997 -0.00045004 0.01927291
v 0.01204997 -0.00045004 0.01870148
v 0.01195912 0.00000031 0.01870148
v 0.01150647 0.00000031 0.01915416
v 0.01150647 -0.00045004 0.01927291
v 0.01205588 -0.00111228 0.01927291
v 0.01205588 -0.00054100 0.01870148
v 0.01150647 0.00000031 0.01870148
v 0.01150647 -0.00249019 0.01927291
v 0.01205588 -0.00264552 0.01927291
v 0.01205588 -0.00266220 0.01870148
v 0.01150647 -0.00250791 0.01870148
v 0.01150647 -0.00249384 0.01924086
v 0.01158220 -0.00252147 0.01927291
v 0.01203399 -0.00264266 0.01927291
v 0.01203340 -0.00264604 0.01924086
v 0.01205588 -0.00264891 0.01924086
v 0.01203179 -0.00265881 0.01870148
v 0.01157720 -0.00253710 0.01870148
v 0.01158107 -0.00252459 0.01924086
v 0.01180455 -0.00259522 0.01924086
v 0.01180546 -0.00259183 0.01927291
v 0.01184107 -0.00259991 0.01927291
v 0.01180180 -0.00260799 0.01870148
f 1 3 4
f 4 3 8
f 5 1 4
f 7 1 6
f 3 1 2
f 1 7 2
f 16 21 24
f 9 13 14
f 14 13 20
f 21 22 14
f 14 20 21
f 19 13 12
f 20 13 19
f 24 21 19
f 21 20 19
f 17 16 11
f 10 16 17
f 11 16 18
f 18 16 24
f 15 16 10
f 23 22 21
f 21 16 23
f 16 15 23
f 9 5 13
f 4 8 13
f 13 5 4
f 8 12 13
f 6 10 17
f 11 7 17
f 17 7 6
f 18 8 3
f 18 7 11
f 18 12 8
f 3 2 18
f 18 2 7
f 18 19 12
f 24 19 18
f 23 10 6
f 6 1 23
f 23 5 9
f 1 5 23
f 9 14 23
f 23 14 22
f 23 15 10

