# https://github.com/mikedh/trimesh
v -0.02074755 0.01202328 0.00523199
v -0.02186638 0.01202328 0.00523199
v -0.02074755 0.01067144 0.00523199
v -0.02074755 0.01202328 -0.00851316
v -0.02189116 0.01200449 0.00523199
v -0.02186638 0.01202328 -0.00851316
v -0.02187376 0.01201773 -0.00851316
v -0.02267960 0.01067144 0.00523199
v -0.02074755 0.01067144 -0.00851316
v -0.02198553 0.01193197 0.00523199
v -0.02198553 0.01193197 -0.00851316
v -0.02266958 0.01074740 0.00523199
v -0.02267960 0.01067144 -0.00851316
v -0.02211413 0.01181419 0.00523199
v -0.02199782 0.01192072 -0.00851316
v -0.02264386 0.01086347 0.00523199
v -0.02266958 0.01074740 -0.00851316
v -0.02223195 0.01168556 0.00523199
v -0.02208784 0.01183827 -0.00851316
v -0.02211413 0.01181419 -0.00851316
v -0.02263176 0.01091772 0.00523199
v -0.02263176 0.01091772 -0.00851316
v -0.02226581 0.01164149 0.00523199
v -0.02223195 0.01168556 -0.00851316
v -0.02224217 0.01167232 -0.00851316
v -0.02257937 0.01108407 0.00523199
v -0.02257937 0.01108407 -0.00851316
v -0.02233824 0.01154713 0.00523199
v -0.02233824 0.01154713 -0.00851316
v -0.02251261 0.01124526 0.00523199
v -0.02251261 0.01124526 -0.00851316
v -0.02236812 0.01150028 0.00523199
v -0.02243204 0.01139997 -0.00851316
v -0.02243204 0.01139997 0.00523199
f 32 33 34
f 18 24 25
f 22 17 16
f 16 21 22
f 2 6 7
f 18 25 23
f 23 25 28
f 28 25 29
f 29 32 28
f 33 32 29
f 12 16 17
f 5 7 11
f 11 10 5
f 2 7 5
f 14 10 19
f 19 20 14
f 15 10 11
f 15 19 10
f 9 4 1
f 1 3 9
f 13 9 3
f 13 3 8
f 1 4 6
f 6 2 1
f 27 21 26
f 22 21 27
f 31 30 34
f 34 33 31
f 26 30 31
f 31 27 26
f 18 14 20
f 20 24 18
f 12 13 8
f 12 17 13
f 5 3 1
f 8 3 5
f 1 2 5
f 5 32 34
f 18 23 5
f 34 30 5
f 5 14 18
f 5 30 26
f 5 12 8
f 26 21 5
f 28 32 5
f 21 16 5
f 5 10 14
f 5 23 28
f 16 12 5
f 4 9 15
f 9 13 15
f 15 6 4
f 24 20 15
f 13 17 15
f 15 31 33
f 15 17 22
f 22 27 15
f 15 7 6
f 15 25 24
f 27 31 15
f 11 7 15
f 33 29 15
f 15 29 25
f 20 19 15

