# https://github.com/mikedh/trimesh
v 0.00536696 -0.01239786 -0.01440723
v 0.00536696 -0.01236728 -0.01452208
v 0.00720000 -0.01239786 -0.01440723
v 0.00536696 -0.01031569 -0.01440723
v 0.00536696 -0.01235505 -0.01456782
v 0.00720000 -0.01199794 -0.01590000
v 0.00720000 -0.01031569 -0.01440723
v 0.00536696 -0.01031569 -0.01590000
v 0.00536696 -0.01226455 -0.01490550
v 0.00536696 -0.01210617 -0.01549642
v 0.00536696 -0.01199794 -0.01590000
v 0.00720000 -0.01031569 -0.01590000
f 5 6 3
f 2 3 1
f 2 5 3
f 10 11 6
f 6 5 9
f 9 10 6
f 7 4 1
f 1 3 7
f 12 11 8
f 6 11 12
f 12 7 3
f 3 6 12
f 12 8 4
f 4 7 12
f 4 8 9
f 1 4 9
f 9 2 1
f 5 2 9
f 8 11 9
f 11 10 9

