# https://github.com/mikedh/trimesh
v -0.02160117 0.00700955 0.01511365
v -0.02094479 0.00700955 0.01511365
v -0.02160117 0.00700955 0.01545414
v -0.02160117 0.00839996 0.01511365
v -0.02094479 0.00700955 0.01545414
v -0.02094479 0.00874973 0.01511365
v -0.02160117 0.00839996 0.01545414
v -0.02159924 0.00874973 0.01511365
v -0.02094479 0.00874973 0.01545414
v -0.02148237 0.00874973 0.01545414
v -0.02148301 0.00874973 0.01545355
v -0.02149971 0.00874973 0.01543495
v -0.02152631 0.00874973 0.01540518
v -0.02153287 0.00874973 0.01539568
v -0.02156107 0.00874973 0.01535382
v -0.02156602 0.00874973 0.01534349
v -0.02158054 0.00874973 0.01530843
v -0.02158228 0.00874973 0.01530416
v -0.02159301 0.00874973 0.01526030
v -0.02159493 0.00874973 0.01525230
v -0.02159924 0.00874973 0.01520000
f 7 20 21
f 7 15 16
f 19 20 7
f 7 18 19
f 12 13 7
f 14 15 7
f 7 13 14
f 17 18 7
f 7 16 17
f 7 10 11
f 11 12 7
f 5 3 1
f 1 2 5
f 4 2 1
f 4 6 2
f 4 8 6
f 1 3 4
f 3 7 4
f 9 5 2
f 2 6 9
f 3 5 10
f 10 7 3
f 5 9 10
f 8 4 21
f 21 4 7
f 6 8 11
f 11 9 6
f 11 10 9
f 8 21 11
f 18 17 11
f 11 21 20
f 11 16 15
f 20 19 11
f 15 14 11
f 11 19 18
f 13 12 11
f 11 14 13
f 11 17 16

