# https://github.com/mikedh/trimesh
v -0.01732808 -0.00679663 0.01699693
v -0.01732808 -0.00699997 0.01699693
v -0.01732808 -0.00679593 0.01698466
v -0.01920682 -0.00679593 0.01699693
v -0.02000945 -0.00699997 0.01699693
v -0.01742992 -0.00703674 0.01589838
v -0.01732808 -0.00703670 0.01589838
v -0.01732808 -0.00679593 -0.01434559
v -0.02000945 -0.00679593 0.01699693
v -0.02000945 -0.00703674 0.01589838
v -0.01732808 -0.00703674 0.01589224
v -0.01732808 -0.00703674 -0.01434559
v -0.02000945 -0.00679593 -0.01434559
v -0.02000945 -0.00703674 -0.01434559
f 1 3 4
f 7 2 6
f 6 11 7
f 10 2 5
f 6 2 10
f 5 9 13
f 13 10 5
f 14 10 13
f 13 12 14
f 8 12 13
f 6 10 11
f 11 10 14
f 14 12 11
f 4 2 1
f 5 2 4
f 4 9 5
f 4 3 8
f 8 13 4
f 4 13 9
f 1 2 7
f 7 12 8
f 7 3 1
f 8 3 7
f 7 11 12

