# https://github.com/mikedh/trimesh
v 0.00440360 -0.00467228 0.01700245
v 0.00440360 -0.00467228 0.01620000
v 0.00366914 -0.00467228 0.01700245
v 0.00440360 -0.00585962 0.01700245
v 0.00366914 -0.00467228 0.01620000
v 0.00440360 -0.00585962 0.01620000
v 0.00383975 -0.00500006 0.01700245
v 0.00430842 -0.00573571 0.01700245
v 0.00383975 -0.00500006 0.01620000
v 0.00430842 -0.00573571 0.01620000
f 3 1 5
f 1 2 5
f 5 7 3
f 9 7 5
f 1 4 6
f 6 2 1
f 8 4 1
f 8 1 3
f 3 7 8
f 10 5 2
f 9 5 10
f 2 6 10
f 10 7 9
f 10 8 7
f 10 6 4
f 4 8 10

