# https://github.com/mikedh/trimesh
v -0.00053203 -0.00446966 -0.00357053
v -0.00233454 -0.00446966 -0.00357053
v -0.00053203 -0.00620151 -0.00357053
v -0.00053203 -0.00446966 -0.01439956
v -0.00233454 -0.00620151 -0.00357053
v -0.00233454 -0.00446966 -0.01439956
v -0.00053203 -0.00620151 -0.01439956
v -0.00055003 -0.00519946 -0.01441017
v -0.00055391 -0.00511300 -0.01441017
v -0.00056521 -0.00502637 -0.01441017
v -0.00058409 -0.00494127 -0.01441017
v -0.00061038 -0.00485804 -0.01441017
v -0.00064373 -0.00477751 -0.01441017
v -0.00068414 -0.00470004 -0.01441017
v -0.00073090 -0.00462647 -0.01441017
v -0.00078401 -0.00455730 -0.01441017
v -0.00084295 -0.00449305 -0.01441017
v -0.00086836 -0.00446966 -0.01441017
v -0.00233454 -0.00620151 -0.01439956
v -0.00223166 -0.00446966 -0.01441017
v -0.00225707 -0.00449305 -0.01441017
v -0.00231601 -0.00455730 -0.01441017
v -0.00233454 -0.00458137 -0.01441017
v -0.00154983 -0.00619999 -0.01441017
v -0.00146284 -0.00619609 -0.01441017
v -0.00137638 -0.00618473 -0.01441017
v -0.00129133 -0.00616591 -0.01441017
v -0.00120804 -0.00613964 -0.01441017
v -0.00112740 -0.00610624 -0.01441017
v -0.00105011 -0.00606590 -0.01441017
v -0.00097653 -0.00601911 -0.01441017
v -0.00090736 -0.00596588 -0.01441017
v -0.00084295 -0.00590705 -0.01441017
v -0.00078401 -0.00584263 -0.01441017
v -0.00073090 -0.00577347 -0.01441017
v -0.00068414 -0.00569989 -0.01441017
v -0.00064373 -0.00562259 -0.01441017
v -0.00061038 -0.00554190 -0.01441017
v -0.00058409 -0.00545866 -0.01441017
v -0.00056521 -0.00537356 -0.01441017
v -0.00055391 -0.00528727 -0.01441017
v -0.00233454 -0.00581856 -0.01441017
v -0.00231601 -0.00584263 -0.01441017
v -0.00225707 -0.00590705 -0.01441017
v -0.00219267 -0.00596588 -0.01441017
v -0.00212350 -0.00601911 -0.01441017
v -0.00204991 -0.00606590 -0.01441017
v -0.00197245 -0.00610624 -0.01441017
v -0.00189198 -0.00613964 -0.01441017
v -0.00180870 -0.00616591 -0.01441017
v -0.00172364 -0.00618473 -0.01441017
v -0.00163700 -0.00619609 -0.01441017
f 4 7 8
f 24 7 19
f 4 15 16
f 4 13 14
f 14 15 4
f 10 11 4
f 12 13 4
f 4 11 12
f 6 20 21
f 18 4 17
f 4 16 17
f 9 4 8
f 9 10 4
f 44 45 19
f 19 45 46
f 19 50 51
f 19 48 49
f 49 50 19
f 22 23 6
f 6 21 22
f 19 42 43
f 43 44 19
f 47 48 19
f 19 46 47
f 52 24 19
f 19 51 52
f 8 7 41
f 7 40 41
f 39 40 7
f 7 33 34
f 34 35 7
f 36 37 7
f 7 35 36
f 26 27 7
f 28 29 7
f 7 27 28
f 32 33 7
f 7 31 32
f 7 29 30
f 30 31 7
f 7 37 38
f 38 39 7
f 7 24 25
f 25 26 7
f 5 3 1
f 5 1 2
f 3 5 7
f 7 5 19
f 1 3 4
f 3 7 4
f 2 1 20
f 1 4 20
f 20 4 18
f 20 6 2
f 23 5 2
f 19 5 23
f 2 6 23
f 23 42 19
f 13 12 25
f 42 23 25
f 25 20 18
f 25 14 13
f 25 43 42
f 25 21 20
f 18 17 25
f 25 9 8
f 25 49 48
f 25 30 29
f 25 16 15
f 15 14 25
f 11 10 25
f 25 12 11
f 23 22 25
f 48 47 25
f 24 52 25
f 37 36 25
f 29 28 25
f 25 17 16
f 10 9 25
f 45 44 25
f 25 46 45
f 25 51 50
f 50 49 25
f 8 41 25
f 25 34 33
f 25 38 37
f 33 32 25
f 25 22 21
f 44 43 25
f 25 47 46
f 25 52 51
f 25 41 40
f 40 39 25
f 35 34 25
f 25 36 35
f 27 26 25
f 25 28 27
f 25 32 31
f 31 30 25
f 39 38 25

