# https://github.com/mikedh/trimesh
v 0.00420190 0.00654073 0.01439851
v 0.00416196 0.00654073 0.01440980
v 0.00420190 0.00610165 0.01439851
v 0.00420190 0.00654073 -0.01439877
v 0.00383401 0.00610165 0.01440980
v 0.00260381 0.00654073 0.01440980
v 0.00420190 0.00610165 -0.01439877
v 0.00415336 0.00654073 -0.01440441
v 0.00248045 0.00610165 0.01440980
v 0.00248045 0.00654073 0.01440698
v 0.00248045 0.00610165 -0.01439877
v 0.00412016 0.00649999 -0.01440723
v 0.00412235 0.00650295 -0.01440723
v 0.00261560 0.00654073 -0.01440723
v 0.00248045 0.00654073 -0.01440723
v 0.00248045 0.00649999 -0.01440723
f 2 3 1
f 3 2 5
f 8 4 7
f 6 10 9
f 13 14 8
f 13 7 12
f 13 8 7
f 1 3 4
f 3 7 4
f 11 7 3
f 11 5 9
f 3 5 11
f 9 5 6
f 6 5 2
f 16 10 15
f 16 11 9
f 9 10 16
f 7 11 16
f 12 7 16
f 1 4 14
f 14 2 1
f 15 10 14
f 14 6 2
f 4 8 14
f 10 6 14
f 13 16 15
f 12 16 13
f 15 14 13

