# https://github.com/mikedh/trimesh
v 0.00362684 -0.00891143 -0.01302013
v 0.00248056 -0.00891143 -0.01302013
v 0.00362684 -0.01239966 -0.01302013
v 0.00362684 -0.00891143 -0.01440723
v 0.00248056 -0.00891143 -0.01440723
v 0.00248056 -0.01240000 -0.01302013
v 0.00248056 -0.01240000 -0.01439990
v 0.00362684 -0.01239932 -0.01440180
v 0.00362684 -0.01239795 -0.01440723
v 0.00248056 -0.01239795 -0.01440723
f 7 3 6
f 9 7 10
f 3 7 8
f 7 9 8
f 1 4 5
f 2 1 5
f 3 1 2
f 2 6 3
f 2 5 7
f 7 6 2
f 5 10 7
f 9 5 4
f 9 10 5
f 8 4 1
f 1 3 8
f 8 9 4

