# https://github.com/mikedh/trimesh
v -0.01910163 0.00700938 0.01527399
v -0.01766061 0.00700938 0.01527399
v -0.01910163 0.00700938 0.01590000
v -0.01910163 0.00992130 0.01527399
v -0.01766061 0.00700938 0.01590000
v -0.01766061 0.00992130 0.01527399
v -0.01910163 0.00920073 0.01590000
v -0.01910163 0.00992130 0.01555501
v -0.01766061 0.00992130 0.01590000
v -0.01875940 0.00992130 0.01590000
f 8 7 10
f 1 4 6
f 6 2 1
f 1 2 5
f 5 3 1
f 2 6 5
f 5 6 9
f 3 5 7
f 7 5 9
f 9 10 7
f 8 6 4
f 9 6 8
f 8 10 9
f 8 4 1
f 1 3 8
f 3 7 8

