# https://github.com/mikedh/trimesh
v -0.02144756 -0.00960518 0.01475461
v -0.02232523 -0.00960518 0.01475461
v -0.02144756 -0.00999997 0.01475461
v -0.02144756 -0.00960518 -0.01590000
v -0.02232854 -0.00961313 0.01475461
v -0.02270000 -0.00960518 0.01439754
v -0.02145467 -0.01020727 0.01475461
v -0.02144756 -0.01020727 0.01474561
v -0.02144756 -0.01020727 -0.01590000
v -0.02229311 -0.00960518 -0.01590000
v -0.02234435 -0.00965151 0.01475461
v -0.02270000 -0.01020727 0.01439754
v -0.02244807 -0.01020727 0.01475461
v -0.02244598 -0.01015858 0.01475461
v -0.02244329 -0.01009746 0.01475461
v -0.02243446 -0.01003038 0.01475461
v -0.02242330 -0.00994610 0.01475461
v -0.02240871 -0.00988008 0.01475461
v -0.02239032 -0.00979709 0.01475461
v -0.02236997 -0.00973255 0.01475461
v -0.02270000 -0.00960518 -0.01439968
v -0.02239756 -0.01020727 -0.01590000
v -0.02233908 -0.00974793 -0.01590000
v -0.02229850 -0.00960518 -0.01589700
v -0.02270000 -0.01020727 -0.01439968
v -0.02232118 -0.00960518 -0.01581298
v -0.02237475 -0.00992535 -0.01590000
v -0.02239498 -0.01010524 -0.01590000
f 12 13 6
f 7 8 3
f 25 21 22
f 6 17 18
f 18 19 6
f 6 13 14
f 14 15 6
f 16 17 6
f 6 15 16
f 5 2 6
f 6 11 5
f 6 19 20
f 20 11 6
f 24 10 23
f 23 26 24
f 21 26 23
f 23 27 21
f 28 22 21
f 21 27 28
f 6 21 12
f 12 21 25
f 9 4 1
f 1 3 9
f 9 3 8
f 22 8 7
f 7 13 22
f 22 12 25
f 13 12 22
f 22 9 8
f 1 4 26
f 26 21 6
f 6 2 26
f 26 2 1
f 4 10 26
f 26 10 24
f 20 13 7
f 1 2 20
f 20 3 1
f 7 3 20
f 20 18 17
f 17 16 20
f 20 14 13
f 2 5 20
f 19 18 20
f 15 14 20
f 20 16 15
f 20 5 11
f 4 9 28
f 9 22 28
f 28 10 4
f 28 23 10
f 27 23 28

