# https://github.com/mikedh/trimesh
v -0.00343702 0.01240000 -0.01430779
v -0.00343702 0.01240000 -0.01440001
v -0.01308665 0.01240000 -0.01430779
v -0.00343702 0.00700991 -0.01430779
v -0.00343702 0.01236518 -0.01452937
v -0.01308665 0.01238470 -0.01445705
v -0.01308665 0.01240000 -0.01440001
v -0.01308665 0.00700991 -0.01430779
v -0.00343702 0.00700991 -0.01440001
v -0.00343702 0.01236254 -0.01453802
v -0.01308665 0.01236254 -0.01453802
v -0.01308665 0.00700991 -0.01453802
v -0.00405004 0.00700991 -0.01453802
v -0.00343702 0.01009991 -0.01453802
f 10 11 5
f 2 5 6
f 6 7 2
f 6 5 11
f 13 14 9
f 8 4 1
f 8 1 3
f 1 2 7
f 3 1 7
f 12 11 14
f 14 13 12
f 14 11 10
f 6 8 3
f 12 8 6
f 6 11 12
f 3 7 6
f 4 8 9
f 9 8 12
f 12 13 9
f 10 5 9
f 1 4 9
f 9 2 1
f 9 5 2
f 9 14 10

