# https://github.com/mikedh/trimesh
v -0.01766201 -0.01240000 -0.01439965
v -0.01651434 -0.01240000 -0.01439965
v -0.01766201 -0.01240000 0.01324481
v -0.01766201 -0.01233161 -0.01465489
v -0.01651434 -0.01240000 0.01439965
v -0.01766201 -0.01213144 -0.01540196
v -0.01651434 -0.01225403 -0.01494438
v -0.01766201 -0.01239936 0.01439965
v -0.01651434 -0.01234935 0.01590000
v -0.01766201 -0.01203466 -0.01576304
v -0.01651434 -0.01216886 -0.01526188
v -0.01667813 -0.01234242 0.01590000
v -0.01685495 -0.01231967 0.01590000
v -0.01702920 -0.01228209 0.01590000
v -0.01719962 -0.01222999 0.01590000
v -0.01736498 -0.01216354 0.01590000
v -0.01752417 -0.01208321 0.01590000
v -0.01766201 -0.01237564 0.01448992
v -0.01651434 -0.01099945 0.01590000
v -0.01766201 -0.01199821 -0.01589689
v -0.01651434 -0.01199821 -0.01589689
v -0.01651434 -0.01203676 -0.01575370
v -0.01651434 -0.01206692 -0.01564164
v -0.01766201 -0.01199901 0.01590000
v -0.01766201 -0.01236742 0.01452104
v -0.01705616 -0.01075218 0.01590000
v -0.01651434 -0.01075218 0.01439965
v -0.01766201 -0.01189143 -0.01590000
v -0.01651434 -0.01180965 -0.01590000
v -0.01766201 -0.01075218 0.01590000
v -0.01651434 -0.01075218 -0.01590000
v -0.01766201 -0.01075218 -0.01590000
f 8 5 9
f 19 27 26
f 5 8 3
f 10 20 21
f 11 7 10
f 28 29 21
f 21 20 28
f 13 14 8
f 11 10 23
f 6 7 2
f 6 10 7
f 8 16 17
f 8 14 15
f 15 16 8
f 12 8 9
f 12 13 8
f 22 10 21
f 22 23 10
f 4 2 1
f 4 6 2
f 25 17 24
f 8 17 18
f 17 25 18
f 30 27 31
f 26 27 30
f 31 32 30
f 2 5 3
f 1 2 3
f 28 32 31
f 31 29 28
f 12 30 24
f 26 30 12
f 9 19 12
f 12 19 26
f 12 15 14
f 24 17 12
f 14 13 12
f 12 17 16
f 16 15 12
f 22 29 31
f 22 5 2
f 9 5 22
f 22 19 9
f 31 27 22
f 2 7 22
f 21 29 22
f 27 19 22
f 22 7 11
f 11 23 22
f 1 3 18
f 18 30 32
f 18 4 1
f 24 30 18
f 32 28 18
f 18 3 8
f 20 10 18
f 18 28 20
f 10 6 18
f 6 4 18
f 18 25 24

