# https://github.com/mikedh/trimesh
v 0.01465633 -0.00074004 0.01440980
v 0.01312514 -0.00074004 0.01440980
v 0.01465633 -0.00105049 0.01440980
v 0.01465633 -0.00074004 -0.01440723
v 0.01312514 -0.00156085 0.01440980
v 0.01312514 -0.00074004 -0.01439877
v 0.01457838 -0.00119994 0.01440980
v 0.01465603 -0.00156085 0.01439851
v 0.01465633 -0.00132817 0.01439851
v 0.01465633 -0.00156085 -0.01440723
v 0.01350632 -0.00074004 -0.01440723
v 0.01432176 -0.00156085 0.01440980
v 0.01312514 -0.00156085 -0.01440723
v 0.01312514 -0.00108255 -0.01440723
v 0.01457478 -0.00120572 0.01440980
v 0.01446596 -0.00137654 0.01440980
v 0.01433840 -0.00154269 0.01440980
v 0.01465633 -0.00156085 0.01422645
f 6 11 14
f 8 18 9
f 9 3 8
f 17 12 8
f 8 16 17
f 8 3 7
f 15 16 8
f 8 7 15
f 1 4 11
f 2 1 11
f 11 6 2
f 14 13 5
f 2 6 14
f 14 5 2
f 14 11 4
f 4 10 14
f 14 10 13
f 5 13 18
f 13 10 18
f 18 12 5
f 8 12 18
f 9 4 1
f 9 10 4
f 9 18 10
f 1 3 9
f 2 5 15
f 15 1 2
f 5 12 15
f 15 3 1
f 12 17 15
f 15 17 16
f 15 7 3

