# https://github.com/mikedh/trimesh
v -0.01428572 -0.00752748 0.01590000
v -0.01663796 -0.00752748 0.01590000
v -0.01428572 -0.00924747 0.01590000
v -0.01428572 -0.00752748 -0.01592925
v -0.01663796 -0.00924747 0.01590000
v -0.01663796 -0.00752748 -0.01592925
v -0.01428572 -0.00924747 -0.01589810
v -0.01428572 -0.00919999 -0.01592925
v -0.01663796 -0.00924747 -0.01589810
v -0.01663796 -0.00918619 -0.01592925
v -0.01663796 -0.00919999 -0.01592614
f 8 7 9
f 11 10 8
f 11 8 9
f 5 3 1
f 5 1 2
f 2 1 6
f 1 4 6
f 3 5 7
f 7 5 9
f 1 3 8
f 8 4 1
f 3 7 8
f 10 6 4
f 4 8 10
f 11 5 2
f 2 6 11
f 9 5 11
f 6 10 11

