# https://github.com/mikedh/trimesh
v -0.01628145 0.01090241 0.01439998
v -0.01690461 0.01090241 0.01457598
v -0.01686951 0.01090235 0.01457598
v -0.01628145 0.01035581 0.01439998
v -0.01628145 0.01090241 -0.01590000
v -0.01766047 0.01090241 0.01457598
v -0.01724170 0.01035581 0.01457598
v -0.01628145 0.01035581 -0.01590000
v -0.01766047 0.01090241 -0.01590000
v -0.01766047 0.01035581 0.01457598
v -0.01766047 0.01035581 -0.01590000
f 3 4 1
f 2 3 1
f 4 3 7
f 9 10 6
f 11 10 9
f 8 5 1
f 1 4 8
f 8 9 5
f 11 9 8
f 1 5 2
f 2 9 6
f 5 9 2
f 7 10 11
f 7 8 4
f 11 8 7
f 6 10 7
f 7 2 6
f 3 2 7

