# https://github.com/mikedh/trimesh
v 0.01357406 -0.00050983 0.01440980
v 0.01312499 -0.00050983 0.01440980
v 0.01357406 -0.00074004 0.01440980
v 0.01357406 -0.00050983 -0.01439877
v 0.01312499 -0.00074004 0.01440980
v 0.01312499 -0.00050983 -0.01439877
v 0.01357406 -0.00074004 -0.01440723
v 0.01357406 -0.00063818 -0.01440723
v 0.01312499 -0.00074004 -0.01439877
v 0.01350618 -0.00074004 -0.01440723
f 8 6 4
f 9 6 10
f 10 8 7
f 6 8 10
f 5 3 1
f 5 1 2
f 2 1 6
f 1 4 6
f 6 5 2
f 6 9 5
f 1 3 8
f 3 7 8
f 8 4 1
f 3 5 10
f 10 7 3
f 5 9 10

