# https://github.com/mikedh/trimesh
v -0.01779028 -0.00703674 -0.00348620
v -0.02270000 -0.00703674 -0.00348620
v -0.01779028 -0.00752748 -0.00348620
v -0.01779028 -0.00703674 -0.01589953
v -0.02270000 -0.00752748 -0.00348620
v -0.02270000 -0.00703674 -0.01439875
v -0.01779028 -0.00752748 -0.01589953
v -0.02229775 -0.00703674 -0.01589953
v -0.02270000 -0.00752748 -0.01439875
v -0.02232514 -0.00703674 -0.01579867
v -0.02229775 -0.00752748 -0.01589953
v -0.02230015 -0.00703674 -0.01589102
v -0.02231985 -0.00752748 -0.01581811
v -0.02230303 -0.00752748 -0.01588008
f 9 6 10
f 12 8 11
f 9 10 13
f 10 12 13
f 14 12 11
f 14 13 12
f 5 3 1
f 5 1 2
f 1 3 7
f 7 4 1
f 7 8 4
f 11 8 7
f 6 5 2
f 6 9 5
f 2 1 12
f 1 4 12
f 4 8 12
f 12 6 2
f 12 10 6
f 3 5 14
f 11 7 14
f 14 7 3
f 5 9 14
f 9 13 14

