# https://github.com/mikedh/trimesh
v 0.00440360 -0.00331747 0.01700236
v 0.00440360 -0.00331747 0.01620014
v 0.00440360 -0.00586070 0.01700236
v 0.02149582 -0.00435099 0.01700236
v 0.02184887 -0.00352875 0.01700023
v 0.02191229 -0.00336915 0.01620014
v 0.00440360 -0.00586070 0.01620014
v 0.01546479 -0.00337961 0.01613290
v 0.00953830 -0.00338288 0.01613290
v 0.00484235 -0.00642848 0.01620014
v 0.00475666 -0.00631728 0.01700236
v 0.02115991 -0.00500053 0.01700236
v 0.02156095 -0.00422736 0.01620014
v 0.02115991 -0.00500053 0.01620014
v 0.02069031 -0.00573642 0.01620014
v 0.02015902 -0.00642848 0.01620014
v 0.01956774 -0.00707018 0.01620014
v 0.01892676 -0.00765954 0.01620014
v 0.01823437 -0.00819069 0.01620014
v 0.01491807 -0.00378975 0.01613290
v 0.01008673 -0.00379237 0.01613290
v 0.00676529 -0.00819069 0.01620014
v 0.00607461 -0.00765954 0.01620014
v 0.00543020 -0.00707018 0.01620014
v 0.00543020 -0.00707018 0.01700236
v 0.02069031 -0.00573642 0.01700236
v 0.02006476 -0.00653184 0.01700236
v 0.01956774 -0.00707018 0.01700236
v 0.01892676 -0.00765954 0.01700236
v 0.01811611 -0.00826592 0.01700236
v 0.01749741 -0.00865970 0.01620014
v 0.01422225 -0.00415279 0.01613290
v 0.01078426 -0.00415606 0.01613290
v 0.00750224 -0.00865970 0.01620014
v 0.00676529 -0.00819069 0.01700236
v 0.00607461 -0.00765954 0.01700236
v 0.01737401 -0.00872446 0.01700236
v 0.01672447 -0.00906199 0.01620014
v 0.01347501 -0.00438893 0.01613290
v 0.01591896 -0.00939624 0.01620014
v 0.01153322 -0.00439089 0.01613290
v 0.00991363 -0.00965855 0.01620014
v 0.00908241 -0.00939624 0.01620014
v 0.00827519 -0.00906199 0.01620014
v 0.00750224 -0.00865970 0.01700236
v 0.00815008 -0.00899788 0.01700236
v 0.01659593 -0.00911562 0.01700236
v 0.01508774 -0.00965855 0.01620014
v 0.01423424 -0.00984693 0.01620014
v 0.01270206 -0.00449162 0.01613290
v 0.01591896 -0.00939624 0.01700236
v 0.01211078 -0.00448377 0.01613290
v 0.01076541 -0.00984693 0.01620014
v 0.01062830 -0.00981685 0.01700236
v 0.00981594 -0.00962846 0.01700236
v 0.00896930 -0.00934915 0.01700236
v 0.01508774 -0.00965855 0.01700236
v 0.01409542 -0.00986525 0.01700236
v 0.01336875 -0.00996075 0.01620014
v 0.01250154 -0.00999869 0.01620014
v 0.01162919 -0.00996075 0.01620014
v 0.01162919 -0.00996075 0.01700236
v 0.01322993 -0.00996729 0.01700236
v 0.01236101 -0.00999280 0.01700236
f 1 6 2
f 6 8 2
f 5 6 1
f 9 2 8
f 60 50 59
f 13 8 6
f 6 5 13
f 2 9 7
f 60 59 63
f 63 59 58
f 31 19 30
f 40 48 39
f 14 15 8
f 8 13 14
f 13 12 14
f 18 19 8
f 8 17 18
f 8 15 16
f 16 17 8
f 4 5 1
f 4 13 5
f 4 12 13
f 9 23 24
f 33 34 21
f 62 54 53
f 60 63 64
f 37 31 30
f 8 19 20
f 19 31 20
f 58 59 49
f 49 39 48
f 50 39 49
f 49 59 50
f 58 49 57
f 57 49 48
f 30 19 29
f 19 18 29
f 27 28 17
f 17 16 27
f 52 50 60
f 52 53 41
f 10 7 9
f 9 24 10
f 10 3 7
f 25 10 24
f 46 45 34
f 22 21 34
f 9 21 22
f 22 23 9
f 62 53 61
f 61 64 62
f 60 64 61
f 61 52 60
f 53 52 61
f 42 53 54
f 33 41 42
f 41 53 42
f 31 37 38
f 26 16 15
f 26 27 16
f 3 10 11
f 10 25 11
f 55 42 54
f 56 46 44
f 44 46 34
f 44 34 33
f 47 51 40
f 40 38 47
f 47 38 37
f 40 39 32
f 32 38 40
f 32 20 31
f 31 38 32
f 56 44 43
f 43 55 56
f 42 55 43
f 33 42 43
f 43 44 33
f 1 2 3
f 2 7 3
f 40 51 57
f 57 48 40
f 29 18 17
f 17 28 29
f 25 23 36
f 25 24 23
f 15 14 26
f 26 14 12
f 36 23 35
f 23 22 35
f 34 45 35
f 35 22 34
f 47 63 58
f 62 64 47
f 58 57 47
f 1 3 47
f 36 35 47
f 47 4 1
f 47 54 62
f 47 25 36
f 47 37 30
f 12 4 47
f 30 29 47
f 47 46 56
f 3 11 47
f 47 64 63
f 56 55 47
f 47 57 51
f 47 29 28
f 28 27 47
f 47 26 12
f 45 46 47
f 27 26 47
f 47 11 25
f 47 35 45
f 47 55 54
f 8 20 32
f 32 9 8
f 32 21 9
f 32 39 50
f 32 41 33
f 33 21 32
f 50 52 32
f 32 52 41

