# https://github.com/mikedh/trimesh
v -0.01508297 -0.01240000 -0.01439965
v -0.01508297 -0.01236339 -0.01453661
v -0.01428572 -0.01240000 -0.01439965
v -0.01508297 -0.01240000 0.01439965
v -0.01508297 -0.01201224 -0.01584708
v -0.01428572 -0.01240000 0.01439965
v -0.01428572 -0.01199805 0.01590000
v -0.01508297 -0.01210725 0.01549223
v -0.01508297 -0.01199837 -0.01589689
v -0.01428572 -0.01199837 -0.01589689
v -0.01428572 -0.01212208 -0.01543620
v -0.01428572 -0.01225564 -0.01493816
v -0.01428572 -0.01075218 0.01590000
v -0.01508297 -0.01199724 0.01590000
v -0.01508297 -0.01199918 0.01589377
v -0.01508297 -0.01202353 0.01580350
v -0.01508297 -0.01170755 -0.01590000
v -0.01428572 -0.01165077 -0.01590000
v -0.01508297 -0.01075218 0.01590000
v -0.01428572 -0.01075218 -0.01590000
v -0.01508297 -0.01075218 -0.01590000
f 7 4 6
f 10 17 18
f 9 17 10
f 8 4 7
f 10 11 5
f 5 9 10
f 11 12 5
f 5 12 3
f 16 8 7
f 2 3 1
f 2 5 3
f 7 14 15
f 15 16 7
f 6 4 1
f 1 3 6
f 14 7 13
f 13 19 14
f 13 20 21
f 21 19 13
f 20 18 21
f 21 18 17
f 13 7 12
f 12 6 3
f 12 20 13
f 12 18 20
f 7 6 12
f 12 11 10
f 10 18 12
f 1 4 15
f 19 21 15
f 4 8 15
f 15 14 19
f 17 9 15
f 15 21 17
f 15 2 1
f 9 5 15
f 8 16 15
f 5 2 15

