# https://github.com/mikedh/trimesh
v 0.01242920 0.00215453 0.01440980
v 0.01144621 0.00215453 0.01440980
v 0.01242920 0.00137489 0.01440980
v 0.01242920 0.00215453 -0.00055365
v 0.01130005 0.00207843 0.01440980
v 0.01095442 0.00215453 0.01439954
v 0.01095385 0.00137489 0.01440980
v 0.01242920 0.00137489 -0.00055365
v 0.01095385 0.00215453 -0.00055365
v 0.01112919 0.00196960 0.01440980
v 0.01095385 0.00215453 0.01415201
v 0.01095385 0.00183519 0.01440980
v 0.01095731 0.00183848 0.01440980
v 0.01112355 0.00196593 0.01440980
v 0.01095385 0.00137489 -0.00055365
f 6 5 2
f 6 11 12
f 10 5 6
f 6 14 10
f 6 12 13
f 13 14 6
f 8 4 1
f 1 3 8
f 15 8 3
f 15 3 7
f 4 8 15
f 15 9 4
f 1 4 2
f 4 9 2
f 9 11 2
f 2 11 6
f 12 15 7
f 9 15 12
f 12 11 9
f 13 3 1
f 7 3 13
f 1 2 13
f 13 2 5
f 13 12 7
f 5 10 13
f 13 10 14

