# https://github.com/mikedh/trimesh
v 0.00536707 -0.01025180 0.01590000
v 0.00536707 -0.01025180 0.01440980
v 0.00494986 -0.01025180 0.01590000
v 0.00536707 -0.01199792 0.01590000
v 0.00494986 -0.01025180 0.01440980
v 0.00536707 -0.01239737 0.01440980
v 0.00432421 -0.01098961 0.01590000
v 0.00522415 -0.01208318 0.01590000
v 0.00536707 -0.01199876 0.01589723
v 0.00432421 -0.01098961 0.01440980
v 0.00536707 -0.01236944 0.01451409
v 0.00506501 -0.01216341 0.01590000
v 0.00489954 -0.01222999 0.01590000
v 0.00472926 -0.01228207 0.01590000
v 0.00455501 -0.01231967 0.01590000
v 0.00437810 -0.01234235 0.01590000
v 0.00432421 -0.01234466 0.01590000
v 0.00432421 -0.01239737 0.01440980
f 17 18 6
f 12 13 6
f 8 12 6
f 16 17 6
f 6 15 16
f 6 13 14
f 14 15 6
f 4 8 9
f 11 8 6
f 11 9 8
f 10 18 17
f 7 10 17
f 6 18 5
f 5 2 6
f 5 18 10
f 1 2 5
f 5 3 1
f 7 3 5
f 5 10 7
f 14 4 1
f 14 3 7
f 1 3 14
f 7 17 14
f 14 8 4
f 13 12 14
f 17 16 14
f 12 8 14
f 14 16 15
f 11 2 1
f 6 2 11
f 1 4 11
f 4 9 11

