# https://github.com/mikedh/trimesh
v -0.01972897 -0.01239979 -0.01439975
v -0.01871067 -0.01239979 -0.01439975
v -0.01972897 -0.01239979 -0.01181766
v -0.01972897 -0.01226951 -0.01590000
v -0.01871067 -0.01239592 -0.01441493
v -0.01871067 -0.01239979 -0.01181766
v -0.01972897 -0.01020754 -0.01181766
v -0.01972897 -0.01073618 -0.01590000
v -0.01871067 -0.01196623 -0.01590000
v -0.01871067 -0.01199800 -0.01589960
v -0.01871067 -0.01207462 -0.01561386
v -0.01871067 -0.01221434 -0.01509273
v -0.01871067 -0.01232145 -0.01469308
v -0.01871067 -0.01020754 -0.01181766
v -0.01972897 -0.01020754 -0.01439975
v -0.01955181 -0.01020754 -0.01590000
v -0.01871067 -0.01020754 -0.01590000
f 4 2 1
f 16 8 15
f 9 10 4
f 2 4 5
f 4 13 5
f 12 13 4
f 4 10 11
f 11 12 4
f 6 3 1
f 1 2 6
f 3 6 14
f 7 3 14
f 1 3 15
f 15 3 7
f 15 4 1
f 15 8 4
f 7 14 15
f 14 17 15
f 15 17 16
f 4 8 9
f 16 17 9
f 9 8 16
f 11 6 2
f 11 14 6
f 11 17 14
f 11 9 17
f 10 9 11
f 2 5 11
f 11 5 13
f 13 12 11

