# https://github.com/mikedh/trimesh
v 0.01249897 -0.00299996 -0.01830000
v 0.01223829 -0.00298836 -0.01830000
v 0.01249897 -0.00125009 -0.01830000
v 0.01249897 -0.00299996 -0.01440723
v 0.01197879 -0.00295419 -0.01830000
v 0.01223829 -0.00298836 -0.01440723
v 0.01126691 0.00020260 -0.01830000
v 0.01249897 -0.00125009 -0.01440723
v 0.01172339 -0.00289776 -0.01830000
v 0.01197879 -0.00295419 -0.01440723
v 0.00950910 0.00020260 -0.01830000
v 0.01126691 0.00020260 -0.01440723
v 0.01147387 -0.00281907 -0.01830000
v 0.01172339 -0.00289776 -0.01440723
v 0.00950029 -0.00000022 -0.01830000
v 0.00950910 0.00020260 -0.01440723
v 0.01123198 -0.00271876 -0.01830000
v 0.01147387 -0.00281907 -0.01440723
v 0.00951145 -0.00026167 -0.01830000
v 0.00950029 -0.00000022 -0.01440723
v 0.01099978 -0.00259807 -0.01830000
v 0.01123198 -0.00271876 -0.01440723
v 0.00954579 -0.00052124 -0.01830000
v 0.00951145 -0.00026167 -0.01440723
v 0.01077932 -0.00245731 -0.01830000
v 0.01099978 -0.00259807 -0.01440723
v 0.00960245 -0.00077673 -0.01830000
v 0.00954579 -0.00052124 -0.01440723
v 0.01057177 -0.00229806 -0.01830000
v 0.01077932 -0.00245731 -0.01440723
v 0.00968112 -0.00102626 -0.01830000
v 0.00960245 -0.00077673 -0.01440723
v 0.01037891 -0.00212126 -0.01830000
v 0.01057177 -0.00229806 -0.01440723
v 0.00978123 -0.00126795 -0.01830000
v 0.00968112 -0.00102626 -0.01440723
v 0.01020189 -0.00192815 -0.01830000
v 0.01037891 -0.00212126 -0.01440723
v 0.00990217 -0.00149993 -0.01830000
v 0.00978123 -0.00126795 -0.01440723
v 0.01004278 -0.00172063 -0.01830000
v 0.01020189 -0.00192815 -0.01440723
v 0.00990217 -0.00149993 -0.01440723
v 0.01004278 -0.00172063 -0.01440723
f 7 11 12
f 12 11 16
f 1 3 8
f 8 4 1
f 8 3 7
f 7 12 8
f 20 11 15
f 16 11 20
f 24 20 19
f 19 20 15
f 28 24 19
f 19 23 28
f 1 4 6
f 6 2 1
f 5 2 6
f 10 5 6
f 14 9 5
f 14 5 10
f 13 9 14
f 14 18 13
f 41 37 44
f 44 37 42
f 40 36 31
f 31 35 40
f 21 17 22
f 26 21 22
f 13 18 22
f 22 17 13
f 35 39 43
f 40 35 43
f 43 39 41
f 41 44 43
f 30 25 21
f 30 21 26
f 29 25 30
f 30 34 29
f 38 12 16
f 4 8 38
f 38 36 40
f 38 8 12
f 38 6 4
f 16 20 38
f 38 14 10
f 38 24 28
f 28 32 38
f 26 22 38
f 38 20 24
f 40 43 38
f 10 6 38
f 18 14 38
f 38 44 42
f 38 30 26
f 38 22 18
f 38 43 44
f 38 32 36
f 34 30 38
f 38 37 33
f 42 37 38
f 33 29 38
f 29 34 38
f 13 17 27
f 27 3 1
f 15 11 27
f 7 3 27
f 27 11 7
f 1 2 27
f 27 9 13
f 27 39 35
f 27 19 15
f 33 37 27
f 5 9 27
f 27 2 5
f 27 29 33
f 41 39 27
f 23 19 27
f 35 31 27
f 27 17 21
f 27 37 41
f 21 25 27
f 27 25 29
f 28 23 27
f 27 32 28
f 27 31 36
f 36 32 27

