# https://github.com/mikedh/trimesh
v 0.01619924 -0.00495252 0.01869984
v 0.01654025 -0.00580686 0.01869984
v 0.01619924 -0.00495252 0.01700245
v 0.00896762 -0.00495252 0.01869984
v 0.01654025 -0.00913973 0.01869984
v 0.01654025 -0.00580686 0.01700245
v 0.00896762 -0.00495252 0.01700245
v 0.00896762 -0.00935023 0.01869984
v 0.01654025 -0.00913973 0.01700245
v 0.01591976 -0.00939667 0.01869984
v 0.00896762 -0.00935023 0.01700245
v 0.00908031 -0.00939667 0.01869984
v 0.01591976 -0.00939667 0.01700245
v 0.01508800 -0.00965905 0.01869984
v 0.00908031 -0.00939667 0.01700245
v 0.00914999 -0.00942138 0.01700245
v 0.00929825 -0.00947326 0.01869984
v 0.01508800 -0.00965905 0.01700245
v 0.01423621 -0.00984781 0.01869984
v 0.01481445 -0.00971983 0.01700245
v 0.00971488 -0.00959926 0.01700245
v 0.00991207 -0.00965905 0.01869984
v 0.00991207 -0.00965905 0.01700245
v 0.01423621 -0.00984781 0.01700245
v 0.01337109 -0.00996146 0.01869984
v 0.01395822 -0.00988437 0.01700245
v 0.01076385 -0.00984781 0.01869984
v 0.01076385 -0.00984781 0.01700245
v 0.01250003 -0.01000000 0.01869984
v 0.01337109 -0.00996146 0.01700245
v 0.01135098 -0.00992539 0.01700245
v 0.01162898 -0.00996146 0.01869984
v 0.01222055 -0.00998765 0.01700245
v 0.01250003 -0.01000000 0.01700245
v 0.01162898 -0.00996146 0.01700245
f 22 17 23
f 17 12 16
f 29 32 33
f 33 32 35
f 33 34 29
f 20 14 19
f 20 19 24
f 20 18 14
f 31 32 27
f 35 32 31
f 27 28 31
f 21 23 17
f 17 16 21
f 15 16 12
f 19 25 26
f 24 19 26
f 25 30 26
f 4 1 7
f 7 1 3
f 7 8 4
f 11 8 7
f 6 1 2
f 3 1 6
f 2 5 9
f 9 6 2
f 12 1 4
f 12 5 2
f 2 1 12
f 12 10 5
f 4 8 12
f 12 32 29
f 29 25 12
f 12 22 27
f 12 25 19
f 19 14 12
f 12 17 22
f 27 32 12
f 14 10 12
f 27 22 28
f 22 23 28
f 30 25 29
f 29 34 30
f 13 9 5
f 5 10 13
f 13 10 14
f 14 18 13
f 15 8 11
f 15 12 8
f 26 7 3
f 11 7 26
f 3 6 26
f 6 9 26
f 23 21 26
f 26 20 24
f 9 13 26
f 26 15 11
f 26 33 35
f 26 28 23
f 35 31 26
f 26 30 34
f 34 33 26
f 26 13 18
f 18 20 26
f 26 31 28
f 26 21 16
f 16 15 26

