# https://github.com/mikedh/trimesh
v 0.02270000 -0.00329042 0.01440000
v 0.02270000 -0.00939944 0.01440000
v 0.02270000 -0.00329042 0.00891429
v 0.00720713 -0.00329042 0.01440000
v 0.02212821 -0.00997102 0.00891429
v 0.02270000 -0.00939944 0.00891429
v 0.01969849 -0.01239911 0.01440000
v 0.00720713 -0.00329042 0.00891429
v 0.00720713 -0.01239911 0.01440000
v 0.01969849 -0.01239911 0.00891429
v 0.00720713 -0.01239911 0.00891429
f 5 2 7
f 7 10 5
f 2 5 6
f 9 2 1
f 9 1 4
f 7 2 9
f 4 1 8
f 1 3 8
f 8 9 4
f 11 9 8
f 7 9 10
f 10 9 11
f 6 8 3
f 11 8 6
f 6 10 11
f 6 5 10
f 1 2 6
f 6 3 1

