# https://github.com/mikedh/trimesh
v 0.00614460 0.00837846 -0.01439877
v 0.00614460 0.00848791 -0.01440441
v 0.00720561 0.00837846 -0.01439877
v 0.00614460 0.00837846 0.01439851
v 0.00614460 0.00920679 -0.01440723
v 0.00674282 0.00890680 -0.01440723
v 0.00674604 0.00890876 -0.01440723
v 0.00719990 0.00918632 -0.01440723
v 0.00720561 0.01240000 -0.01439877
v 0.00720561 0.00837846 0.01439851
v 0.00614460 0.00847925 0.01440980
v 0.00614460 0.01239803 -0.01440723
v 0.00719990 0.01239803 -0.01440723
v 0.00719990 0.01240000 -0.01439877
v 0.00720561 0.01240000 0.01439851
v 0.00719731 0.00918553 0.01440980
v 0.00614460 0.01239724 0.01440980
v 0.00614460 0.01239921 -0.01440159
v 0.00614460 0.01240000 -0.01322532
v 0.00719990 0.01240000 0.01439851
v 0.00719731 0.01239724 0.01440980
v 0.00614460 0.01239921 0.01440133
v 0.00614460 0.01240000 0.00913213
f 2 3 1
f 11 4 10
f 6 2 5
f 3 2 6
f 11 10 16
f 7 8 3
f 3 6 7
f 18 19 14
f 14 12 18
f 23 22 20
f 20 22 17
f 9 15 10
f 3 9 10
f 10 4 1
f 1 3 10
f 5 12 13
f 13 6 5
f 8 7 13
f 13 7 6
f 13 9 3
f 3 8 13
f 14 13 12
f 9 13 14
f 22 2 1
f 1 4 22
f 22 4 11
f 5 2 22
f 22 19 18
f 22 12 5
f 18 12 22
f 23 19 22
f 11 17 22
f 21 10 15
f 21 16 10
f 21 17 11
f 11 16 21
f 20 15 9
f 20 19 23
f 9 14 20
f 20 14 19
f 20 21 15
f 17 21 20

