# https://github.com/mikedh/trimesh
v -0.01972907 -0.01073603 -0.01443860
v -0.01972907 -0.01073603 -0.01589986
v -0.02074654 -0.01085176 -0.01443860
v -0.01972907 -0.01238950 -0.01443860
v -0.02074654 -0.01085176 -0.01589986
v -0.01972907 -0.01226939 -0.01589986
v -0.02074654 -0.01238755 -0.01443860
v -0.02069992 -0.01238950 -0.01443860
v -0.02030300 -0.01234984 -0.01589986
v -0.02012221 -0.01234239 -0.01589986
v -0.01994263 -0.01231925 -0.01589986
v -0.01976573 -0.01228088 -0.01589986
v -0.02074654 -0.01229982 -0.01589986
v -0.02066327 -0.01231827 -0.01589986
v -0.02048378 -0.01234191 -0.01589986
v -0.02071247 -0.01238917 -0.01443860
f 4 8 9
f 16 9 8
f 16 15 9
f 7 15 16
f 12 6 4
f 4 11 12
f 4 9 10
f 10 11 4
f 14 7 13
f 14 15 7
f 3 1 5
f 1 2 5
f 5 7 3
f 13 7 5
f 1 4 6
f 6 2 1
f 16 4 1
f 16 1 3
f 3 7 16
f 16 8 4
f 14 5 2
f 13 5 14
f 2 6 14
f 14 10 9
f 6 12 14
f 9 15 14
f 14 12 11
f 11 10 14

