# https://github.com/mikedh/trimesh
v 0.00250000 -0.00000079 0.01700245
v 0.00253806 -0.00087240 0.01700245
v 0.00250000 -0.00000079 0.01869984
v 0.00253806 0.00087081 0.01700245
v 0.00253806 -0.00087240 0.01869984
v 0.00265225 -0.00173636 0.01700245
v 0.00253806 0.00087081 0.01869984
v 0.00257464 0.00114860 0.01700245
v 0.00265225 -0.00173636 0.01869984
v 0.00278028 -0.00231403 0.01700245
v 0.00265225 0.00173647 0.01869984
v 0.00265225 0.00173647 0.01700245
v 0.00284109 -0.00258758 0.01869984
v 0.00284109 -0.00258758 0.01700245
v 0.00271256 0.00200917 0.01700245
v 0.00284109 0.00258769 0.01869984
v 0.00290041 -0.00278466 0.01700245
v 0.00302695 -0.00320178 0.01869984
v 0.00284109 0.00258769 0.01700245
v 0.00288162 0.00271597 0.01869984
v 0.00307886 -0.00334959 0.01700245
v 0.00310308 -0.00342010 0.01700245
v 0.00310308 -0.00342010 0.01869984
v 0.00288162 0.00271597 0.01700245
v 0.00755005 0.00271597 0.01869984
v 0.00332998 -0.00396719 0.01700245
v 0.00343725 -0.00422545 0.01869984
v 0.00755005 0.00271597 0.01700245
v 0.00755005 -0.00369960 0.01869984
v 0.00343725 -0.00422545 0.01700245
v 0.00371061 -0.00475130 0.01700245
v 0.00384012 -0.00499936 0.01869984
v 0.00755005 -0.00369960 0.01700245
v 0.00681746 -0.00596186 0.01869984
v 0.00384012 -0.00499936 0.01700245
v 0.00430874 -0.00573504 0.01869984
v 0.00681746 -0.00596186 0.01700245
v 0.00448225 -0.00596186 0.01869984
v 0.00430874 -0.00573504 0.01700245
v 0.00448225 -0.00596186 0.01700245
f 8 7 11
f 12 8 11
f 7 8 4
f 22 23 18
f 35 32 31
f 31 27 30
f 31 32 27
f 10 13 9
f 14 13 10
f 9 6 10
f 11 16 15
f 15 16 19
f 15 12 11
f 18 13 17
f 17 13 14
f 27 23 26
f 30 27 26
f 23 22 26
f 21 22 18
f 18 17 21
f 29 28 25
f 33 28 29
f 24 20 25
f 25 28 24
f 37 29 34
f 33 29 37
f 34 38 37
f 37 38 40
f 20 24 16
f 24 19 16
f 39 38 36
f 40 38 39
f 35 39 32
f 32 39 36
f 25 20 13
f 13 38 34
f 13 29 25
f 13 7 3
f 34 29 13
f 18 23 13
f 3 5 13
f 11 7 13
f 13 32 36
f 36 38 13
f 13 5 9
f 20 16 13
f 13 16 11
f 13 23 27
f 27 32 13
f 3 7 4
f 1 3 4
f 2 5 3
f 2 3 1
f 9 5 2
f 2 6 9
f 21 28 33
f 33 37 21
f 14 10 21
f 21 24 28
f 40 39 21
f 21 37 40
f 21 19 24
f 21 17 14
f 1 4 21
f 21 2 1
f 21 39 35
f 21 31 30
f 8 12 21
f 21 4 8
f 21 15 19
f 35 31 21
f 6 2 21
f 21 10 6
f 12 15 21
f 30 26 21
f 21 26 22

