# https://github.com/mikedh/trimesh
v 0.01554172 -0.00246893 0.01440000
v 0.01222082 -0.00246893 0.01440000
v 0.01554172 -0.00329042 0.01440000
v 0.01554172 -0.00246893 -0.01439877
v 0.01221984 -0.00246893 0.01420261
v 0.01221984 -0.00246989 0.01440000
v 0.01221984 -0.00329042 0.01440000
v 0.01554172 -0.00329042 -0.01439877
v 0.01420256 -0.00246893 -0.01440723
v 0.01221984 -0.00246893 -0.01440723
v 0.01221984 -0.00329042 -0.01439877
v 0.01250016 -0.00299994 -0.01440723
v 0.01276162 -0.00298852 -0.01440723
v 0.01302112 -0.00295435 -0.01440723
v 0.01327673 -0.00289773 -0.01440723
v 0.01352616 -0.00281908 -0.01440723
v 0.01376810 -0.00271896 -0.01440723
v 0.01399997 -0.00259808 -0.01440723
v 0.01221984 -0.00298611 -0.01440723
v 0.01223870 -0.00298852 -0.01440723
f 5 6 2
f 9 4 8
f 12 8 11
f 11 19 20
f 20 12 11
f 8 12 13
f 9 8 18
f 8 17 18
f 8 15 16
f 16 17 8
f 14 15 8
f 8 13 14
f 1 4 2
f 2 10 5
f 2 4 9
f 9 10 2
f 1 2 7
f 7 3 1
f 7 2 6
f 8 7 11
f 3 7 8
f 8 4 1
f 1 3 8
f 5 10 19
f 19 6 5
f 11 7 19
f 19 7 6
f 14 10 9
f 14 19 10
f 12 20 14
f 14 13 12
f 14 20 19
f 9 18 14
f 14 16 15
f 14 18 17
f 17 16 14

