# https://github.com/mikedh/trimesh
v 0.01452336 0.00257640 -0.01062106
v 0.01095370 0.00257640 -0.01062106
v 0.01452336 0.00215453 -0.01062106
v 0.01452336 0.00257640 -0.01439982
v 0.01095370 0.00215453 -0.01062106
v 0.01095370 0.00257640 -0.01439982
v 0.01452336 0.00215453 -0.01440686
v 0.01452336 0.00221077 -0.01440686
v 0.01442830 0.00229815 -0.01440686
v 0.01422038 0.00245743 -0.01440686
v 0.01403377 0.00257640 -0.01440686
v 0.01095370 0.00215453 -0.01440686
v 0.01096628 0.00257640 -0.01440501
v 0.01095370 0.00256856 -0.01440686
v 0.01099738 0.00257640 -0.01440686
f 8 9 4
f 11 4 10
f 4 9 10
f 13 14 6
f 15 14 13
f 5 3 1
f 5 1 2
f 3 5 12
f 12 7 3
f 1 3 8
f 3 7 8
f 8 4 1
f 14 5 2
f 14 12 5
f 2 6 14
f 7 12 14
f 11 10 14
f 14 8 7
f 9 8 14
f 14 10 9
f 14 15 11
f 2 1 13
f 1 4 13
f 13 4 11
f 13 6 2
f 11 15 13

