# https://github.com/mikedh/trimesh
v -0.02245000 0.01025016 0.01482628
v -0.02244367 0.01010726 0.01440135
v -0.02244367 0.01010689 0.01444939
v -0.02244367 0.01010689 0.01482628
v -0.02244333 0.01040269 0.01482628
v -0.02244333 0.01040269 0.01440135
v -0.02244983 0.01025053 0.01440135
v -0.02242534 0.01010689 0.01440135
v -0.02152628 0.01010689 0.01482628
v -0.02242334 0.01055392 0.01482628
v -0.02242334 0.01055392 0.01440135
v -0.02110150 0.01010689 0.01440135
v -0.02119249 0.01010689 0.01449244
v -0.02095002 0.01050006 0.01482628
v -0.02239034 0.01070312 0.01482628
v -0.02239034 0.01070312 0.01440135
v -0.02074771 0.01065147 0.01440135
v -0.02074771 0.01107610 0.01482628
v -0.02236584 0.01078067 0.01482628
v -0.02234435 0.01084861 0.01440135
v -0.02074771 0.01199792 0.01440135
v -0.02074771 0.01199792 0.01482628
v -0.02234435 0.01084861 0.01482628
v -0.02228602 0.01098966 0.01440135
v -0.02085253 0.01199330 0.01440135
v -0.02085253 0.01199330 0.01482628
v -0.02228602 0.01098966 0.01482628
v -0.02221553 0.01112497 0.01440135
v -0.02100401 0.01197331 0.01440135
v -0.02100401 0.01197331 0.01482628
v -0.02221553 0.01112497 0.01482628
v -0.02213337 0.01125362 0.01440135
v -0.02107367 0.01195794 0.01482628
v -0.02115300 0.01194036 0.01440135
v -0.02213337 0.01125362 0.01482628
v -0.02204055 0.01137486 0.01440135
v -0.02115300 0.01194036 0.01482628
v -0.02129864 0.01189445 0.01440135
v -0.02204055 0.01137486 0.01482628
v -0.02193740 0.01148741 0.01440135
v -0.02129864 0.01189445 0.01482628
v -0.02143963 0.01183596 0.01440135
v -0.02193740 0.01148741 0.01482628
v -0.02187740 0.01154238 0.01482628
v -0.02182474 0.01159051 0.01440135
v -0.02143963 0.01183596 0.01482628
v -0.02157511 0.01176543 0.01440135
v -0.02150295 0.01180301 0.01482628
v -0.02182474 0.01159051 0.01482628
v -0.02170359 0.01168343 0.01440135
v -0.02157511 0.01176543 0.01482628
v -0.02170359 0.01168343 0.01482628
f 1 2 3
f 14 12 17
f 17 18 14
f 13 12 14
f 14 9 13
f 8 3 2
f 1 3 4
f 7 2 1
f 1 6 7
f 42 47 48
f 48 46 42
f 48 47 51
f 45 40 44
f 49 45 44
f 40 43 44
f 20 16 19
f 19 23 20
f 33 29 34
f 33 34 37
f 33 30 29
f 15 19 16
f 5 6 1
f 13 9 4
f 4 12 13
f 4 8 12
f 3 8 4
f 17 21 22
f 22 18 17
f 36 32 39
f 39 32 35
f 31 32 28
f 35 32 31
f 43 40 36
f 36 39 43
f 46 41 38
f 42 46 38
f 38 41 37
f 37 34 38
f 28 24 27
f 27 31 28
f 27 24 20
f 20 23 27
f 26 22 21
f 21 25 26
f 26 25 29
f 29 30 26
f 50 8 2
f 50 21 17
f 17 12 50
f 50 32 36
f 36 40 50
f 2 7 50
f 12 8 50
f 20 24 50
f 50 16 20
f 50 6 11
f 11 16 50
f 50 24 28
f 50 7 6
f 42 38 50
f 50 47 42
f 50 40 45
f 28 32 50
f 34 29 50
f 50 25 21
f 50 38 34
f 29 25 50
f 49 52 50
f 50 45 49
f 50 52 51
f 51 47 50
f 10 16 11
f 10 15 16
f 5 14 18
f 5 4 9
f 9 14 5
f 1 4 5
f 5 41 46
f 18 22 5
f 35 31 5
f 22 26 5
f 31 27 5
f 46 48 5
f 5 39 35
f 5 52 49
f 37 41 5
f 5 43 39
f 49 44 5
f 5 33 37
f 5 48 51
f 51 52 5
f 5 44 43
f 5 27 23
f 23 19 5
f 5 26 30
f 30 33 5
f 19 15 5
f 15 10 5
f 11 6 5
f 5 10 11

