# https://github.com/mikedh/trimesh
v -0.02074766 0.01239792 0.00523333
v -0.02087439 0.01239239 0.00523333
v -0.02074766 0.01202342 0.00523333
v -0.02074766 0.01239792 -0.01439819
v -0.02104734 0.01236959 0.00523333
v -0.02087439 0.01239239 -0.01439819
v -0.02186655 0.01202342 0.00523333
v -0.02074766 0.01202342 -0.01508433
v -0.02074766 0.01230015 -0.01508433
v -0.02121767 0.01233183 0.00523333
v -0.02104734 0.01236959 -0.01439819
v -0.02184706 0.01203834 0.00523333
v -0.02186655 0.01202342 -0.01439819
v -0.02151451 0.01202342 -0.01508433
v -0.02084010 0.01227937 -0.01508433
v -0.02121767 0.01233183 -0.01439819
v -0.02127068 0.01231515 0.00523333
v -0.02174683 0.01210223 0.00523333
v -0.02184706 0.01203834 -0.01439819
v -0.02183665 0.01202342 -0.01446780
v -0.02163719 0.01202342 -0.01486755
v -0.02169995 0.01213207 -0.01439819
v -0.02150542 0.01202818 -0.01508433
v -0.02085861 0.01227431 -0.01508433
v -0.02138394 0.01227937 -0.01439819
v -0.02138394 0.01227937 0.00523333
v -0.02169995 0.01213207 0.00523333
v -0.02182887 0.01202342 -0.01448371
v -0.02167465 0.01202342 -0.01479397
v -0.02154518 0.01221261 -0.01439819
v -0.02159447 0.01218699 0.00523333
v -0.02146730 0.01204662 -0.01508433
v -0.02101284 0.01222530 -0.01508433
v -0.02143532 0.01225811 0.00523333
v -0.02102029 0.01222262 -0.01508433
v -0.02132096 0.01210722 -0.01508433
v -0.02136510 0.01208995 -0.01508433
v -0.02154518 0.01221261 0.00523333
f 21 22 14
f 25 26 17
f 27 22 18
f 19 20 13
f 22 20 19
f 12 18 19
f 19 18 22
f 22 21 29
f 30 32 23
f 22 30 23
f 14 22 23
f 37 32 30
f 37 30 25
f 25 36 37
f 34 26 25
f 25 30 34
f 30 38 34
f 31 38 30
f 31 22 27
f 31 30 22
f 4 9 6
f 9 11 6
f 16 11 9
f 16 17 10
f 25 17 16
f 35 36 25
f 25 33 35
f 28 20 22
f 22 29 28
f 24 33 25
f 25 16 24
f 15 16 9
f 15 24 16
f 1 3 9
f 3 8 9
f 9 4 1
f 19 13 7
f 7 12 19
f 31 3 1
f 7 3 31
f 1 2 31
f 31 17 26
f 31 12 7
f 5 10 31
f 31 2 5
f 27 18 31
f 10 17 31
f 26 34 31
f 31 18 12
f 31 34 38
f 1 4 6
f 6 2 1
f 5 2 6
f 6 11 5
f 16 10 5
f 5 11 16
f 28 3 7
f 28 8 3
f 7 13 28
f 28 14 8
f 28 21 14
f 13 20 28
f 28 29 21
f 8 14 15
f 15 9 8
f 15 37 36
f 14 23 15
f 36 35 15
f 15 23 32
f 32 37 15
f 15 35 33
f 33 24 15

