# https://github.com/mikedh/trimesh
v 0.01190021 0.00213200 0.01440980
v 0.01190021 0.00213200 0.01613282
v 0.01190021 0.00232295 0.01440980
v 0.01359710 0.00213200 0.01440980
v 0.01190021 0.00240387 0.01613282
v 0.01439058 0.00213200 0.01613282
v 0.01190021 0.00240387 0.01470006
v 0.01208328 0.00236353 0.01440980
v 0.01352032 0.00217200 0.01440980
v 0.01439058 0.00240387 0.01470006
v 0.01439058 0.00213200 0.01470006
v 0.01439058 0.00240387 0.01613282
v 0.01250013 0.00239999 0.01440980
v 0.01229097 0.00239086 0.01440980
v 0.01351422 0.00217514 0.01440980
v 0.01332700 0.00225266 0.01440980
v 0.01332067 0.00225527 0.01440980
v 0.01312784 0.00231616 0.01440980
v 0.01312126 0.00231821 0.01440980
v 0.01291698 0.00236353 0.01440980
v 0.01270929 0.00239086 0.01440980
v 0.01250696 0.00239970 0.01440980
f 10 11 4
f 13 7 10
f 7 13 14
f 10 19 20
f 8 3 7
f 7 14 8
f 18 19 10
f 10 17 18
f 10 20 21
f 10 4 9
f 9 15 10
f 16 17 10
f 10 15 16
f 22 13 10
f 10 21 22
f 12 2 6
f 5 2 12
f 6 11 12
f 12 11 10
f 12 7 5
f 10 7 12
f 6 2 4
f 4 2 1
f 4 11 6
f 1 2 3
f 3 2 5
f 5 7 3
f 22 4 1
f 1 3 22
f 22 14 13
f 3 8 22
f 19 18 22
f 17 16 22
f 22 20 19
f 22 8 14
f 22 9 4
f 22 18 17
f 22 21 20
f 15 9 22
f 22 16 15

