# https://github.com/mikedh/trimesh
v 0.00962618 0.00085233 -0.01440723
v 0.00968095 0.00102606 -0.01440723
v 0.01009438 0.00085233 -0.01440723
v 0.00946717 0.00085233 -0.01439877
v 0.00946717 0.00179844 -0.01439877
v 0.00978102 0.00126787 -0.01440723
v 0.01009438 0.00178825 -0.01440723
v 0.01009438 0.00085233 0.01440000
v 0.00946717 0.00085233 0.01440000
v 0.01009438 0.00179844 -0.01439877
v 0.01004250 0.00172064 -0.01440723
v 0.00990191 0.00149995 -0.01440723
v 0.00946717 0.00179844 0.01440000
v 0.01009438 0.00179844 0.01440000
f 4 5 1
f 5 10 7
f 2 1 5
f 5 6 2
f 12 6 5
f 5 7 11
f 11 12 5
f 3 8 9
f 4 1 9
f 9 1 3
f 14 8 3
f 3 7 14
f 14 7 10
f 4 9 13
f 13 5 4
f 13 14 10
f 13 10 5
f 13 9 8
f 8 14 13
f 3 1 11
f 11 7 3
f 1 2 11
f 11 2 6
f 6 12 11

