# https://github.com/mikedh/trimesh
v -0.01308665 0.01199801 0.01590000
v -0.01531566 0.01199801 0.01590000
v -0.01308665 0.01035581 0.01590000
v -0.01308665 0.01228695 0.01482176
v -0.01531566 0.01035581 0.01590000
v -0.01531566 0.01226794 0.01489267
v -0.01308665 0.01035581 -0.00056540
v -0.01308665 0.01240000 0.01439948
v -0.01531566 0.01233917 0.01462674
v -0.01531566 0.01035581 -0.00056540
v -0.01308665 0.01240000 -0.00056540
v -0.01531566 0.01240000 0.01439948
v -0.01531566 0.01240000 -0.00056540
f 2 1 4
f 9 4 8
f 8 12 9
f 2 4 6
f 4 9 6
f 5 3 1
f 5 1 2
f 3 7 4
f 1 3 4
f 7 11 4
f 11 8 4
f 10 7 3
f 3 5 10
f 10 11 7
f 10 13 11
f 12 8 11
f 11 13 12
f 6 5 2
f 13 10 6
f 6 10 5
f 6 12 13
f 6 9 12

