# https://github.com/mikedh/trimesh
v 0.00191955 -0.00134600 0.01463367
v 0.00122128 -0.00061096 0.01700000
v 0.00128367 -0.00134600 0.01700000
v 0.00191955 -0.00134600 0.00953257
v 0.00191955 -0.00061096 0.01440120
v -0.00053186 -0.00061096 0.01700000
v -0.00053186 -0.00134600 0.01700000
v -0.00053186 -0.00134600 0.00953257
v 0.00191955 -0.00061096 0.00953257
v -0.00053186 -0.00061096 0.00953257
f 1 2 3
f 5 2 1
f 7 8 4
f 7 4 1
f 1 3 7
f 7 2 6
f 7 3 2
f 8 7 10
f 10 7 6
f 4 8 10
f 10 9 4
f 6 2 5
f 5 10 6
f 9 10 5
f 1 4 5
f 4 9 5

