# https://github.com/mikedh/trimesh
v -0.01871062 -0.00964278 0.01590000
v -0.01871062 -0.00964278 0.01537887
v -0.01885097 -0.00964278 0.01590000
v -0.01871062 -0.01020318 0.01590000
v -0.01918741 -0.00964278 0.01537887
v -0.01871062 -0.01020318 0.01537887
v -0.01918741 -0.00964278 0.01555733
v -0.01918741 -0.00965416 0.01556304
v -0.01918741 -0.00969948 0.01558564
v -0.01918741 -0.00981713 0.01562431
v -0.01918741 -0.00984470 0.01563191
v -0.01918741 -0.00997904 0.01565854
v -0.01918741 -0.00998324 0.01565936
v -0.01918741 -0.01011764 0.01567288
v -0.01918741 -0.01020727 0.01567589
v -0.01916617 -0.01020727 0.01565961
v -0.01912757 -0.01020727 0.01562431
v -0.01909224 -0.01020727 0.01558569
v -0.01908271 -0.01020727 0.01557330
v -0.01906036 -0.01020727 0.01554417
v -0.01903221 -0.01020727 0.01550004
v -0.01900803 -0.01020727 0.01545361
v -0.01898801 -0.01020727 0.01540525
v -0.01897970 -0.01020727 0.01537887
v -0.01918741 -0.01020727 0.01537887
f 3 4 1
f 15 4 3
f 4 24 6
f 16 4 15
f 16 17 4
f 4 17 18
f 23 24 4
f 4 22 23
f 4 20 21
f 21 22 4
f 8 3 7
f 8 9 3
f 10 11 3
f 3 9 10
f 15 3 14
f 3 13 14
f 3 11 12
f 12 13 3
f 19 20 4
f 4 18 19
f 1 2 3
f 3 2 5
f 5 7 3
f 5 2 6
f 6 25 5
f 24 25 6
f 6 2 1
f 1 4 6
f 12 7 5
f 5 25 12
f 12 25 15
f 11 10 12
f 12 8 7
f 15 14 12
f 9 8 12
f 12 10 9
f 12 14 13
f 15 25 19
f 19 25 24
f 19 21 20
f 19 16 15
f 24 23 19
f 17 16 19
f 19 18 17
f 19 23 22
f 22 21 19

