# https://github.com/mikedh/trimesh
v 0.01156594 -0.00218845 0.01440980
v 0.01151783 -0.00218845 0.01440980
v 0.01156594 -0.00220838 0.01440980
v 0.01156594 -0.00218845 -0.01440723
v 0.01009452 -0.00218845 0.01439851
v 0.01009452 -0.00246882 0.01439851
v 0.01156594 -0.00246882 0.01439851
v 0.01156594 -0.00246882 -0.01440723
v 0.01045204 -0.00218845 -0.01440723
v 0.01009452 -0.00218845 -0.01439877
v 0.01009452 -0.00246882 -0.01439877
v 0.01079717 -0.00246882 -0.01440723
v 0.01057174 -0.00229816 -0.01440723
v 0.01077931 -0.00245743 -0.01440723
f 5 6 2
f 1 2 3
f 6 7 3
f 3 2 6
f 10 9 11
f 13 11 9
f 14 12 11
f 11 13 14
f 3 4 1
f 3 8 4
f 7 8 3
f 1 4 9
f 5 2 9
f 9 2 1
f 9 10 5
f 5 10 11
f 11 6 5
f 12 8 7
f 6 11 12
f 12 7 6
f 4 8 14
f 14 9 4
f 8 12 14
f 14 13 9

