# https://github.com/mikedh/trimesh
v -0.00403086 -0.00703674 0.01590000
v -0.01779028 -0.00703674 0.01590000
v -0.00403086 -0.00752748 0.01590000
v -0.00403086 -0.00703674 -0.01439948
v -0.01779028 -0.00752748 0.01590000
v -0.01779028 -0.00703674 -0.01589810
v -0.00403086 -0.00752748 -0.01439948
v -0.00405106 -0.00703674 -0.01589810
v -0.01779028 -0.00752748 -0.01589810
v -0.01739970 -0.00703674 -0.01592925
v -0.00405106 -0.00752748 -0.01589810
v -0.00410494 -0.00703674 -0.01592925
v -0.01739970 -0.00752748 -0.01592925
v -0.00410494 -0.00752748 -0.01592925
f 5 1 2
f 5 3 1
f 6 5 2
f 9 5 6
f 12 6 2
f 2 1 12
f 1 4 12
f 10 6 12
f 12 4 8
f 13 6 10
f 9 6 13
f 10 12 13
f 13 12 14
f 1 3 7
f 7 4 1
f 3 5 11
f 11 5 9
f 9 13 11
f 11 13 14
f 11 7 3
f 11 12 8
f 14 12 11
f 8 4 11
f 4 7 11

