# https://github.com/mikedh/trimesh
v -0.02121185 -0.00679593 0.01700000
v -0.02200320 -0.00679593 0.01700000
v -0.02121185 -0.00699999 0.01700000
v -0.02121185 -0.00679593 -0.01434866
v -0.02200320 -0.00699999 0.01700000
v -0.02270000 -0.00679593 0.01439784
v -0.02121185 -0.00703674 0.01589838
v -0.02121185 -0.00703613 -0.01434866
v -0.02270000 -0.00679593 -0.01434866
v -0.02270000 -0.00703674 0.01439784
v -0.02242714 -0.00703674 0.01541661
v -0.02229806 -0.00703674 0.01589838
v -0.02121185 -0.00703674 -0.01312737
v -0.02270000 -0.00703474 -0.01434866
v -0.02270000 -0.00703674 -0.01023369
f 5 10 11
f 11 12 5
f 14 8 13
f 13 15 14
f 8 9 4
f 14 9 8
f 1 4 2
f 2 9 6
f 4 9 2
f 1 2 3
f 3 2 5
f 10 2 6
f 5 2 10
f 7 3 12
f 12 3 5
f 6 9 15
f 15 9 14
f 15 10 6
f 13 4 1
f 1 3 13
f 13 8 4
f 13 3 7
f 7 12 13
f 13 11 10
f 10 15 13
f 12 11 13

