# https://github.com/mikedh/trimesh
v -0.00237540 -0.00703674 -0.01592911
v -0.00237540 -0.00703674 -0.01444680
v -0.00236894 -0.00702640 -0.01592911
v -0.00072427 -0.00703674 -0.01592911
v -0.00214313 -0.00679593 -0.01440210
v -0.00236894 -0.00702640 -0.01444680
v -0.00074222 -0.00703674 -0.01444680
v -0.00233208 -0.00697835 -0.01592911
v -0.00073106 -0.00702640 -0.01592911
v -0.00072427 -0.00703674 -0.01571459
v -0.00212357 -0.00678084 -0.01440210
v -0.00219259 -0.00683398 -0.01444680
v -0.00225692 -0.00689289 -0.01444680
v -0.00231576 -0.00695718 -0.01444680
v -0.00095703 -0.00679593 -0.01440210
v -0.00072460 -0.00703640 -0.01444680
v -0.00231576 -0.00695718 -0.01592911
v -0.00073106 -0.00702640 -0.01444680
v -0.00078424 -0.00695718 -0.01592911
v -0.00204987 -0.00673398 -0.01440210
v -0.00212357 -0.00678084 -0.01592896
v -0.00219259 -0.00683398 -0.01592911
v -0.00221231 -0.00685197 -0.01592911
v -0.00225692 -0.00689289 -0.01592911
v -0.00078424 -0.00695718 -0.01444680
v -0.00084308 -0.00689289 -0.01444680
v -0.00090741 -0.00683398 -0.01444680
v -0.00097643 -0.00678084 -0.01440210
v -0.00080218 -0.00693748 -0.01592911
v -0.00197244 -0.00669371 -0.01440210
v -0.00204987 -0.00673398 -0.01592896
v -0.00214297 -0.00679597 -0.01592911
v -0.00214458 -0.00679712 -0.01592911
v -0.00084308 -0.00689289 -0.01592911
v -0.00090741 -0.00683398 -0.01592911
v -0.00097643 -0.00678084 -0.01592896
v -0.00105014 -0.00673398 -0.01440210
v -0.00189194 -0.00666032 -0.01440210
v -0.00197244 -0.00669371 -0.01592896
v -0.00189194 -0.00666032 -0.01592896
v -0.00180870 -0.00663412 -0.01592896
v -0.00172352 -0.00661522 -0.01592896
v -0.00163704 -0.00660385 -0.01592896
v -0.00154992 -0.00660000 -0.01592896
v -0.00095703 -0.00679597 -0.01592911
v -0.00105014 -0.00673398 -0.01592896
v -0.00112740 -0.00669371 -0.01440210
v -0.00180870 -0.00663412 -0.01440210
v -0.00172352 -0.00661522 -0.01440210
v -0.00163704 -0.00660385 -0.01440210
v -0.00146296 -0.00660385 -0.01592896
v -0.00154992 -0.00660000 -0.01440210
v -0.00137648 -0.00661522 -0.01592896
v -0.00129130 -0.00663412 -0.01592896
v -0.00120806 -0.00666032 -0.01592896
v -0.00112740 -0.00669371 -0.01592896
v -0.00120806 -0.00666032 -0.01440210
v -0.00146296 -0.00660385 -0.01440210
v -0.00137648 -0.00661522 -0.01440210
v -0.00129130 -0.00663412 -0.01440210
f 45 32 44
f 36 45 46
f 46 45 56
f 51 45 44
f 24 13 23
f 12 13 5
f 22 23 12
f 12 23 13
f 5 13 14
f 16 7 10
f 53 54 45
f 45 51 53
f 21 31 32
f 32 33 21
f 21 33 22
f 39 40 32
f 32 31 39
f 44 32 43
f 32 42 43
f 32 40 41
f 41 42 32
f 8 14 17
f 6 2 5
f 5 14 6
f 6 8 3
f 14 8 6
f 45 36 35
f 45 54 55
f 55 56 45
f 11 12 5
f 16 10 18
f 27 28 15
f 15 26 27
f 16 18 15
f 15 7 16
f 34 26 29
f 19 29 25
f 25 29 26
f 26 15 25
f 25 15 18
f 24 17 14
f 14 13 24
f 1 4 10
f 10 2 1
f 10 7 2
f 50 52 43
f 43 52 44
f 50 43 49
f 49 43 42
f 1 2 6
f 6 3 1
f 28 36 46
f 28 46 37
f 28 35 36
f 27 35 28
f 37 46 47
f 46 56 47
f 57 47 55
f 55 47 56
f 54 53 60
f 60 53 59
f 57 55 60
f 60 55 54
f 59 53 58
f 58 53 51
f 44 52 58
f 58 51 44
f 31 21 11
f 11 20 31
f 22 12 11
f 11 21 22
f 30 38 40
f 40 39 30
f 31 20 30
f 30 39 31
f 40 38 48
f 48 41 40
f 48 49 42
f 42 41 48
f 34 35 26
f 26 35 27
f 18 10 4
f 4 9 18
f 15 52 50
f 50 49 15
f 15 28 37
f 59 58 15
f 37 47 15
f 15 60 59
f 15 11 5
f 38 30 15
f 15 48 38
f 15 47 57
f 57 60 15
f 15 58 52
f 20 11 15
f 15 30 20
f 49 48 15
f 2 7 15
f 5 2 15
f 29 33 32
f 29 4 1
f 32 45 29
f 29 8 17
f 1 3 29
f 29 17 24
f 45 35 29
f 22 33 29
f 24 23 29
f 29 23 22
f 3 8 29
f 29 9 4
f 29 35 34
f 19 9 29
f 25 9 19
f 25 18 9

