# https://github.com/mikedh/trimesh
v 0.00248243 -0.01240000 -0.01439877
v 0.00248243 -0.01239757 -0.01440723
v 0.01969953 -0.01240000 -0.01439877
v 0.00248243 -0.01240000 0.01439851
v 0.00720085 -0.01239757 -0.01440723
v 0.00248243 0.01239757 -0.01440723
v 0.02269802 -0.00939953 -0.01439877
v 0.01969953 -0.01240000 0.01439851
v 0.00248243 -0.01239514 0.01440980
v 0.01495735 -0.00171872 -0.01440723
v 0.00720085 0.01239757 -0.01440723
v 0.00248243 0.01240000 -0.01439877
v 0.01509788 -0.00149781 -0.01440723
v 0.01521861 -0.00126719 -0.01440723
v 0.01531757 -0.00102443 -0.01440723
v 0.01539674 -0.00077439 -0.01440723
v 0.01545413 -0.00051950 -0.01440723
v 0.01548778 -0.00025975 -0.01440723
v 0.01549965 0.00000000 -0.01440723
v 0.02269802 0.00939953 -0.01439877
v 0.02269802 -0.00939953 0.01439851
v 0.00719887 -0.01239514 0.01440980
v 0.00248243 0.01239514 0.01440980
v 0.01495735 0.00171872 -0.01440723
v 0.01969953 0.01240000 -0.01439877
v 0.00248243 0.01240000 0.01439851
v 0.01548778 0.00025975 -0.01440723
v 0.02269802 0.00939953 0.01439851
v 0.01545413 0.00051950 -0.01440723
v 0.01539674 0.00077439 -0.01440723
v 0.01531757 0.00102443 -0.01440723
v 0.01521861 0.00126719 -0.01440723
v 0.01509788 0.00149781 -0.01440723
v 0.01489996 0.00000000 0.01440980
v 0.01489006 -0.00020877 0.01440980
v 0.01486235 -0.00041511 0.01440980
v 0.01481683 -0.00061903 0.01440980
v 0.01481485 -0.00062631 0.01440980
v 0.01475350 -0.00082052 0.01440980
v 0.01475152 -0.00082537 0.01440980
v 0.01467433 -0.00101229 0.01440980
v 0.01457734 -0.00119922 0.01440980
v 0.01446453 -0.00137643 0.01440980
v 0.00719887 0.01239514 0.01440980
v 0.01969953 0.01240000 0.01439851
v 0.01446453 0.00137643 0.01440980
v 0.01457734 0.00119922 0.01440980
v 0.01458130 0.00119193 0.01440980
v 0.01467433 0.00101229 0.01440980
v 0.01475350 0.00082052 0.01440980
v 0.01481881 0.00061417 0.01440980
v 0.01486433 0.00040783 0.01440980
v 0.01489006 0.00020877 0.01440980
f 8 21 22
f 34 21 28
f 19 20 7
f 28 45 44
f 7 3 5
f 11 25 20
f 43 22 21
f 21 42 43
f 7 5 10
f 24 11 20
f 36 37 21
f 28 44 46
f 46 47 28
f 21 34 35
f 35 36 21
f 41 42 21
f 21 40 41
f 39 40 21
f 28 51 52
f 50 51 28
f 7 16 17
f 29 30 20
f 21 37 38
f 38 39 21
f 53 34 28
f 28 52 53
f 49 50 28
f 18 19 7
f 7 17 18
f 7 10 13
f 13 14 7
f 15 16 7
f 7 14 15
f 20 19 27
f 27 29 20
f 33 24 20
f 20 32 33
f 20 30 31
f 31 32 20
f 28 47 48
f 48 49 28
f 3 4 1
f 8 4 3
f 21 20 28
f 7 20 21
f 8 3 21
f 21 3 7
f 9 4 22
f 22 4 8
f 28 20 45
f 20 25 45
f 26 2 1
f 12 6 26
f 1 4 26
f 9 23 26
f 26 4 9
f 26 6 2
f 26 45 25
f 26 25 12
f 44 26 23
f 45 26 44
f 1 2 5
f 5 3 1
f 11 6 12
f 12 25 11
f 2 6 31
f 31 5 2
f 6 11 31
f 19 18 31
f 31 10 5
f 11 24 31
f 31 27 19
f 16 15 31
f 31 17 16
f 31 13 10
f 30 29 31
f 24 33 31
f 31 18 17
f 14 13 31
f 31 15 14
f 29 27 31
f 31 33 32
f 48 23 9
f 9 22 48
f 48 44 23
f 22 43 48
f 48 35 34
f 48 43 42
f 48 46 44
f 34 53 48
f 37 36 48
f 42 41 48
f 48 38 37
f 47 46 48
f 36 35 48
f 48 41 40
f 40 39 48
f 48 52 51
f 51 50 48
f 39 38 48
f 48 53 52
f 50 49 48

