# https://github.com/mikedh/trimesh
v -0.02094474 0.00905384 -0.01590000
v -0.02094474 0.00956729 -0.01590000
v -0.02045228 0.00905384 -0.01590000
v -0.02094474 0.00905384 0.01519616
v -0.02060992 0.00956729 -0.01590000
v -0.02094474 0.00956729 0.01468175
v -0.02045228 0.00951627 -0.01590000
v -0.02045228 0.00905384 0.01519616
v -0.02045228 0.00956729 -0.01439937
v -0.02045228 0.00956729 0.01468175
f 9 7 5
f 8 4 1
f 1 3 8
f 1 4 6
f 6 2 1
f 4 8 6
f 6 8 10
f 7 8 3
f 10 8 7
f 7 9 10
f 10 9 5
f 2 6 5
f 5 6 10
f 5 3 1
f 1 2 5
f 5 7 3

