# https://github.com/mikedh/trimesh
v -0.02144199 -0.00061021 -0.01590000
v -0.02144199 0.00700938 -0.01590000
v -0.01740561 -0.00061021 -0.01590000
v -0.02144199 -0.00061021 0.01694203
v -0.01740561 0.00700938 -0.01590000
v -0.02144199 0.00700938 0.01589861
v -0.01740561 -0.00061021 0.01700000
v -0.02144199 -0.00060946 0.01700000
v -0.01740561 0.00700938 0.01589861
v -0.02144199 0.00699969 0.01700000
v -0.01740561 0.00699969 0.01700000
f 7 8 4
f 1 2 5
f 5 3 1
f 1 3 4
f 3 7 4
f 3 5 9
f 9 7 3
f 9 11 7
f 7 11 10
f 10 8 7
f 6 2 1
f 1 4 6
f 6 4 8
f 8 10 6
f 6 5 2
f 6 9 5
f 11 9 6
f 6 10 11

