# https://github.com/mikedh/trimesh
v 0.01399612 -0.00000072 0.01613282
v 0.01399612 -0.00000072 0.01440980
v 0.01319769 -0.00000072 0.01613282
v 0.01399612 -0.00240113 0.01613282
v 0.01319769 -0.00000072 0.01440980
v 0.01399612 -0.00187410 0.01440980
v 0.01319769 -0.00240113 0.01613282
v 0.01399612 -0.00240113 0.01470006
v 0.01319769 -0.00229399 0.01440980
v 0.01387655 -0.00196574 0.01440980
v 0.01319769 -0.00240113 0.01470006
v 0.01332086 -0.00225522 0.01440980
v 0.01351429 -0.00217510 0.01440980
v 0.01369390 -0.00208158 0.01440980
v 0.01369999 -0.00207829 0.01440980
v 0.01387076 -0.00196950 0.01440980
f 9 8 11
f 10 6 8
f 13 14 8
f 8 14 15
f 12 8 9
f 12 13 8
f 16 10 8
f 8 15 16
f 7 4 1
f 7 1 3
f 3 1 5
f 1 2 5
f 1 4 6
f 6 2 1
f 4 8 6
f 11 7 3
f 3 5 11
f 11 5 9
f 4 7 11
f 11 8 4
f 16 5 2
f 9 5 16
f 2 6 16
f 6 10 16
f 16 15 14
f 14 13 16
f 16 12 9
f 13 12 16

