# https://github.com/mikedh/trimesh
v 0.01490691 0.00114486 0.01439851
v 0.01460706 0.00114486 0.01440980
v 0.01467510 0.00101422 0.01440980
v 0.01467772 0.00100796 0.01440980
v 0.01475519 0.00082076 0.01440980
v 0.01481822 0.00062116 0.01440980
v 0.01486346 0.00041677 0.01440980
v 0.01486441 0.00041006 0.01440980
v 0.01489079 0.00020920 0.01440980
v 0.01489115 0.00020238 0.01440980
v 0.01489998 0.00000004 0.01440980
v 0.01490691 -0.00001771 0.01439851
v 0.01490691 0.00114486 -0.01440723
v 0.01368757 0.00114486 0.01440980
v 0.01489915 -0.00001771 0.01440980
v 0.01490691 -0.00001771 -0.01440723
v 0.01368757 0.00114486 -0.01440723
v 0.01368757 -0.00001771 0.01440980
v 0.01374928 -0.00001771 -0.01440723
v 0.01368757 0.00038685 -0.01440723
v 0.01368757 -0.00001771 -0.01400386
v 0.01368757 -0.00001680 -0.01439877
f 11 12 1
f 12 11 15
f 19 21 22
f 22 20 19
f 5 6 1
f 1 2 3
f 1 8 9
f 1 6 7
f 7 8 1
f 4 5 1
f 1 3 4
f 10 11 1
f 1 9 10
f 16 13 1
f 1 12 16
f 1 13 2
f 2 17 14
f 13 17 2
f 14 17 20
f 20 18 14
f 22 21 20
f 20 21 18
f 19 16 12
f 19 15 18
f 12 15 19
f 18 21 19
f 19 17 13
f 13 16 19
f 19 20 17
f 14 18 10
f 10 2 14
f 10 15 11
f 18 15 10
f 10 3 2
f 6 5 10
f 5 4 10
f 10 7 6
f 10 9 8
f 8 7 10
f 10 4 3

