# https://github.com/mikedh/trimesh
v 0.01220602 0.00137481 0.01440980
v 0.01095370 0.00137481 0.01440980
v 0.01220602 0.00114486 0.01440980
v 0.01220602 0.00137481 -0.01440723
v 0.01095370 0.00114486 0.01440980
v 0.01095370 0.00137481 -0.01440723
v 0.01220602 0.00114486 -0.01439877
v 0.01220602 0.00121399 -0.01440723
v 0.01095370 0.00114486 -0.01440723
v 0.01200067 0.00114486 -0.01440723
f 7 10 8
f 5 3 1
f 5 1 2
f 2 1 6
f 1 4 6
f 6 5 2
f 9 5 6
f 3 5 10
f 10 5 9
f 10 7 3
f 1 3 8
f 8 4 1
f 3 7 8
f 8 6 4
f 9 6 8
f 8 10 9

