# https://github.com/mikedh/trimesh
v -0.00405006 0.00543367 -0.01442861
v -0.00405006 0.00543367 -0.01589988
v -0.00467460 0.00543367 -0.01442861
v -0.00405006 -0.00061096 -0.01442861
v -0.00406137 0.00543367 -0.01590605
v -0.00405006 -0.00061096 -0.01589988
v -0.00467460 0.00543367 -0.01592911
v -0.00467460 -0.00061096 -0.01442861
v -0.00407091 0.00543367 -0.01591119
v -0.00407953 -0.00061096 -0.01591574
v -0.00410448 0.00543367 -0.01592911
v -0.00467460 -0.00061096 -0.01592911
v -0.00410448 -0.00061096 -0.01592911
f 13 11 9
f 2 6 5
f 6 9 5
f 13 9 10
f 10 9 6
f 8 4 1
f 8 1 3
f 12 8 3
f 3 7 12
f 11 12 7
f 11 13 12
f 1 4 6
f 6 2 1
f 3 1 5
f 5 7 3
f 1 2 5
f 5 11 7
f 5 9 11
f 4 8 10
f 8 12 10
f 12 13 10
f 10 6 4

