# https://github.com/mikedh/trimesh
v 0.00675000 -0.00818033 0.01620000
v 0.00676427 -0.00819135 0.01620000
v 0.00675000 -0.00818033 0.01700245
v 0.00675000 -0.00590978 0.01620000
v 0.00676427 -0.00819135 0.01700245
v 0.00749993 -0.00866001 0.01620000
v 0.00675000 -0.00590978 0.01700245
v 0.00762338 -0.00619660 0.01620000
v 0.00749993 -0.00866001 0.01700245
v 0.00762338 -0.00872421 0.01620000
v 0.00762338 -0.00619660 0.01700245
v 0.00762338 -0.00872421 0.01700245
f 8 11 12
f 12 10 8
f 7 4 1
f 1 3 7
f 7 11 8
f 8 4 7
f 1 4 2
f 8 10 2
f 10 6 2
f 2 4 8
f 2 5 3
f 2 3 1
f 9 12 11
f 3 5 9
f 9 7 3
f 11 7 9
f 9 6 10
f 10 12 9
f 9 2 6
f 5 2 9

