# https://github.com/mikedh/trimesh
v 0.00501170 0.00703897 0.01439851
v 0.00453023 0.00703897 0.01440980
v 0.00453593 0.00700386 0.01440980
v 0.00501170 0.00654073 0.01439851
v 0.00501170 0.00703897 -0.01439877
v 0.00259320 0.00703897 0.01440980
v 0.00416176 0.00654073 0.01440980
v 0.00501170 0.00654073 -0.01439877
v 0.00457583 0.00703897 -0.01440723
v 0.00248045 0.00703897 0.01440698
v 0.00248045 0.00654073 0.01440698
v 0.00260385 0.00654073 0.01440980
v 0.00415333 0.00654073 -0.01440441
v 0.00440807 0.00685509 -0.01440723
v 0.00248045 0.00703897 -0.01440723
v 0.00248045 0.00654073 -0.01440723
v 0.00261575 0.00654073 -0.01440723
f 3 4 1
f 2 3 1
f 9 5 8
f 4 3 7
f 8 13 14
f 9 8 14
f 10 11 6
f 11 12 6
f 17 14 13
f 15 11 10
f 16 11 15
f 8 5 1
f 1 4 8
f 1 5 6
f 6 15 10
f 6 5 9
f 9 15 6
f 6 2 1
f 6 12 7
f 3 2 6
f 6 7 3
f 17 11 16
f 17 8 4
f 4 7 17
f 17 12 11
f 17 13 8
f 7 12 17
f 17 15 9
f 16 15 17
f 9 14 17

