# https://github.com/mikedh/trimesh
v 0.01204975 -0.00159869 0.01980019
v 0.01192203 -0.00159869 0.02020000
v 0.01250010 -0.00163949 0.01980019
v 0.01249991 -0.00255045 0.01982207
v 0.01162749 -0.00239654 0.01982207
v 0.01122496 -0.00220872 0.01982207
v 0.01103727 -0.00208919 0.01982207
v 0.01086077 -0.00195383 0.01982207
v 0.01070990 -0.00180588 0.01983330
v 0.01056130 -0.00161881 0.01985893
v 0.01071654 -0.00159869 0.02001011
v 0.01096667 -0.00159869 0.02011817
v 0.01156069 -0.00160204 0.02019429
v 0.01173376 -0.00164285 0.02019589
v 0.01186319 -0.00174915 0.02019413
v 0.01201806 -0.00179796 0.02019413
v 0.01220461 -0.00167424 0.02020000
v 0.01249991 -0.00166977 0.02020000
v 0.01249991 -0.00186131 0.02019413
v 0.01249991 -0.00202882 0.02017139
v 0.01249991 -0.00218469 0.02012967
v 0.01249991 -0.00234400 0.02004815
v 0.01249991 -0.00248635 0.01991861
v 0.01228906 -0.00253405 0.01983330
v 0.01206911 -0.00250601 0.01983330
v 0.01185219 -0.00245896 0.01983330
v 0.01164931 -0.00233645 0.01991861
v 0.01143562 -0.00230915 0.01983330
v 0.01125704 -0.00215320 0.01991861
v 0.01107409 -0.00203684 0.01991861
v 0.01090196 -0.00190482 0.01991861
v 0.01078486 -0.00171551 0.01998311
v 0.01084540 -0.00161024 0.02007210
v 0.01099343 -0.00179573 0.02004815
v 0.01124698 -0.00178976 0.02012967
v 0.01112324 -0.00161750 0.02014814
v 0.01133067 -0.00165272 0.02017182
v 0.01148572 -0.00175706 0.02017139
v 0.01164229 -0.00183886 0.02017139
v 0.01197460 -0.00195979 0.02017139
v 0.01180588 -0.00190650 0.02017139
v 0.01217652 -0.00183318 0.02019413
v 0.01235169 -0.00169362 0.02020000
v 0.01233746 -0.00185433 0.02019413
v 0.01232303 -0.00202118 0.02017139
v 0.01230937 -0.00217640 0.02012967
v 0.01229950 -0.00229006 0.02007844
v 0.01228830 -0.00241667 0.01998311
v 0.01207860 -0.00238900 0.01998311
v 0.01187192 -0.00234325 0.01998311
v 0.01147490 -0.00219857 0.01998311
v 0.01132820 -0.00203003 0.02004815
v 0.01115569 -0.00192029 0.02004815
v 0.01140791 -0.00189215 0.02012967
v 0.01157644 -0.00198019 0.02012967
v 0.01175255 -0.00205305 0.02012967
v 0.01193436 -0.00211034 0.02012967
v 0.01214749 -0.00199808 0.02017139
v 0.01212035 -0.00215152 0.02012967
v 0.01210061 -0.00226378 0.02007844
v 0.01190476 -0.00222046 0.02007844
v 0.01169809 -0.00220257 0.02004815
v 0.01152842 -0.00208342 0.02007844
f 3 2 18
f 3 18 19
f 8 9 1
f 3 4 1
f 4 5 1
f 1 9 10
f 10 11 1
f 1 2 3
f 25 5 4
f 31 9 8
f 43 19 18
f 6 1 5
f 5 25 26
f 32 33 11
f 32 11 10
f 10 9 32
f 9 31 32
f 53 54 35
f 8 1 7
f 1 6 7
f 7 31 8
f 36 35 37
f 53 35 34
f 33 32 34
f 34 31 53
f 34 32 31
f 23 4 3
f 3 22 23
f 17 42 43
f 19 43 44
f 43 42 44
f 42 45 44
f 53 31 30
f 31 7 30
f 30 7 6
f 6 29 30
f 63 54 52
f 52 54 53
f 53 30 52
f 52 30 29
f 28 6 5
f 28 29 6
f 38 35 54
f 38 37 35
f 3 19 20
f 19 44 20
f 20 44 45
f 33 34 12
f 12 34 35
f 12 35 36
f 11 33 12
f 24 25 4
f 4 23 24
f 48 22 47
f 48 23 22
f 25 24 48
f 48 24 23
f 29 28 27
f 27 28 5
f 5 26 27
f 26 50 27
f 55 54 63
f 63 56 55
f 58 45 42
f 41 56 40
f 56 57 40
f 57 58 40
f 40 58 42
f 40 15 41
f 61 62 50
f 61 57 56
f 61 56 63
f 63 62 61
f 47 60 49
f 49 48 47
f 49 61 50
f 60 61 49
f 25 48 49
f 49 26 25
f 49 50 26
f 63 52 51
f 51 62 63
f 51 52 29
f 29 27 51
f 50 62 51
f 51 27 50
f 41 15 39
f 39 56 41
f 39 55 56
f 39 38 54
f 54 55 39
f 14 15 2
f 37 38 13
f 15 14 13
f 38 39 13
f 13 39 15
f 13 14 2
f 36 37 13
f 2 12 13
f 13 12 36
f 16 40 42
f 15 40 16
f 2 15 16
f 16 17 2
f 42 17 16
f 21 20 45
f 45 46 21
f 21 22 3
f 3 20 21
f 47 22 21
f 21 46 47
f 45 58 59
f 59 46 45
f 59 58 57
f 59 61 60
f 57 61 59
f 59 60 47
f 47 46 59
f 17 43 18
f 17 18 2
f 12 1 11
f 2 1 12

