# https://github.com/mikedh/trimesh
v 0.01138772 0.00000031 0.01927297
v 0.01146568 -0.00044994 0.01984042
v 0.01146568 -0.00044994 0.01927297
v 0.01086508 0.00000031 0.01927297
v 0.01086508 0.00000031 0.01979553
v 0.01146568 -0.00059668 0.01984042
v 0.01086508 -0.00044994 0.01984042
v 0.01146568 -0.00048693 0.01927303
v 0.01131212 -0.00059668 0.01927297
v 0.01086508 -0.00059668 0.01927297
v 0.01146568 -0.00059668 0.01927325
v 0.01086508 -0.00059668 0.01984042
f 2 1 5
f 5 1 4
f 5 7 2
f 3 1 2
f 8 11 9
f 9 3 8
f 3 10 4
f 4 1 3
f 9 10 3
f 7 5 12
f 12 5 4
f 4 10 12
f 12 10 9
f 12 11 6
f 9 11 12
f 12 6 2
f 2 7 12
f 6 11 8
f 2 6 8
f 8 3 2

