# https://github.com/mikedh/trimesh
v -0.02074755 0.01067144 0.00523333
v -0.02267955 0.01067144 0.00523333
v -0.02074755 0.01010695 0.00523333
v -0.02074755 0.01067144 -0.01439819
v -0.02269236 0.01057429 0.00523333
v -0.02267955 0.01067144 -0.01439819
v -0.02270000 0.01010695 0.00523333
v -0.02074755 0.01010695 -0.01439819
v -0.02091993 0.01067144 -0.01508433
v -0.02270000 0.01040000 0.00523333
v -0.02269236 0.01057429 -0.01439819
v -0.02249551 0.01067144 -0.01508433
v -0.02250296 0.01061541 -0.01508433
v -0.02270000 0.01010695 -0.01439819
v -0.02103594 0.01010695 -0.01508433
v -0.02270000 0.01040000 -0.01439819
v -0.02250965 0.01055832 -0.01508433
v -0.02251271 0.01051074 -0.01508433
v -0.02269427 0.01010695 -0.01442007
v -0.02251653 0.01010695 -0.01508433
v -0.02251576 0.01043956 -0.01508433
v -0.02251653 0.01040000 -0.01508433
v -0.02267458 0.01010695 -0.01449365
f 9 4 8
f 8 15 9
f 19 14 16
f 22 19 16
f 23 22 20
f 19 22 23
f 16 11 18
f 21 22 16
f 16 18 21
f 17 18 11
f 13 17 11
f 6 12 13
f 13 11 6
f 1 3 8
f 8 4 1
f 7 10 14
f 14 10 16
f 12 2 1
f 1 4 12
f 12 4 9
f 12 6 2
f 5 3 1
f 7 3 5
f 1 2 5
f 5 10 7
f 16 10 11
f 10 5 11
f 2 6 11
f 11 5 2
f 23 3 7
f 23 8 3
f 15 8 23
f 7 14 23
f 14 19 23
f 23 20 15
f 13 12 9
f 15 20 13
f 9 15 13
f 20 22 13
f 22 21 13
f 13 21 18
f 18 17 13

