# https://github.com/mikedh/trimesh
v 0.00802263 0.00893232 0.01869984
v 0.00802263 0.00893232 0.01700245
v 0.00774826 0.00878944 0.01700245
v 0.00749988 0.00865997 0.01869984
v 0.00802263 0.00610588 0.01869984
v 0.00802263 0.00610588 0.01700245
v 0.00749988 0.00865997 0.01700245
v 0.00700044 0.00834193 0.01700245
v 0.00676425 0.00819143 0.01869984
v 0.00665400 0.00582043 0.01869984
v 0.00665400 0.00582043 0.01700245
v 0.00676425 0.00819143 0.01700245
v 0.00665400 0.00810674 0.01869984
v 0.00665400 0.00810674 0.01700245
f 2 3 1
f 1 3 4
f 7 4 3
f 8 9 4
f 8 12 9
f 4 7 8
f 1 5 6
f 6 2 1
f 11 5 10
f 11 6 5
f 10 13 11
f 13 14 11
f 9 5 1
f 10 5 9
f 9 13 10
f 1 4 9
f 12 14 13
f 13 9 12
f 2 6 8
f 3 2 8
f 6 11 8
f 8 11 14
f 8 7 3
f 14 12 8

