# https://github.com/mikedh/trimesh
v 0.00248045 -0.00950320 0.01590000
v 0.00087238 -0.00950320 0.01590000
v 0.00248045 -0.01012276 0.01590000
v 0.00248045 -0.00950320 -0.01590000
v 0.00087238 -0.01012276 0.01590000
v 0.00087238 -0.00950320 -0.01439965
v 0.00248045 -0.01012276 -0.01590000
v 0.00095014 -0.00950320 -0.01590000
v 0.00087238 -0.01012276 -0.01590000
v 0.00087238 -0.01010032 -0.01590000
f 6 8 10
f 5 3 1
f 5 1 2
f 1 3 7
f 7 4 1
f 3 5 7
f 7 5 9
f 2 1 8
f 1 4 8
f 8 6 2
f 10 5 2
f 2 6 10
f 9 5 10
f 4 7 10
f 10 7 9
f 10 8 4

