# https://github.com/mikedh/trimesh
v 0.01649107 -0.00575198 0.01700245
v 0.01734150 -0.00619524 0.01700245
v 0.01649107 -0.00575198 0.01620000
v 0.00850901 -0.00575198 0.01700245
v 0.01734150 -0.00874256 0.01700245
v 0.01734150 -0.00619524 0.01620000
v 0.00850901 -0.00575198 0.01620000
v 0.00762433 -0.00619691 0.01700245
v 0.01734150 -0.00874256 0.01620000
v 0.01672603 -0.00906274 0.01700245
v 0.00762433 -0.00619691 0.01620000
v 0.00762433 -0.00872426 0.01700245
v 0.01672603 -0.00906274 0.01620000
v 0.01646729 -0.00917002 0.01700245
v 0.00762433 -0.00872426 0.01620000
v 0.00802577 -0.00893342 0.01700245
v 0.01591936 -0.00939664 0.01620000
v 0.01591936 -0.00939664 0.01700245
v 0.00827405 -0.00906274 0.01620000
v 0.00827405 -0.00906274 0.01700245
v 0.01565301 -0.00948106 0.01700245
v 0.01508796 -0.00965903 0.01620000
v 0.00908072 -0.00939664 0.01620000
v 0.00908072 -0.00939664 0.01700245
v 0.01508796 -0.00965903 0.01700245
v 0.01481399 -0.00971974 0.01700245
v 0.01423562 -0.00984781 0.01620000
v 0.00991212 -0.00965903 0.01620000
v 0.00971521 -0.00959956 0.01700245
v 0.00915016 -0.00942118 0.01700245
v 0.01423562 -0.00984781 0.01700245
v 0.01395880 -0.00988440 0.01700245
v 0.01337092 -0.00996174 0.01620000
v 0.01076446 -0.00984781 0.01620000
v 0.00991212 -0.00965903 0.01700245
v 0.01337092 -0.00996174 0.01700245
v 0.01249956 -0.01000000 0.01620000
v 0.01076446 -0.00984781 0.01700245
v 0.01162916 -0.00996174 0.01620000
v 0.01135139 -0.00992515 0.01700245
v 0.01249956 -0.01000000 0.01700245
v 0.01162916 -0.00996174 0.01700245
f 29 28 35
f 28 29 23
f 22 17 21
f 21 25 22
f 12 15 16
f 38 34 40
f 42 40 39
f 39 40 34
f 20 16 19
f 19 16 15
f 24 23 30
f 30 23 29
f 17 13 14
f 26 27 22
f 22 25 26
f 31 27 26
f 33 27 32
f 32 27 31
f 32 36 33
f 18 21 17
f 17 14 18
f 10 14 13
f 4 1 7
f 7 1 3
f 8 4 7
f 7 11 8
f 6 1 2
f 3 1 6
f 9 6 5
f 5 6 2
f 8 11 15
f 15 12 8
f 34 38 35
f 35 28 34
f 41 42 39
f 37 41 39
f 24 20 19
f 19 23 24
f 3 6 27
f 37 39 27
f 27 7 3
f 11 7 27
f 27 6 9
f 27 15 11
f 27 33 37
f 9 13 27
f 27 17 22
f 27 19 15
f 27 34 28
f 28 23 27
f 27 13 17
f 27 39 34
f 23 19 27
f 37 33 36
f 36 41 37
f 8 12 10
f 2 1 10
f 10 4 8
f 10 1 4
f 10 5 2
f 10 42 41
f 10 29 35
f 35 38 10
f 41 36 10
f 24 30 10
f 12 16 10
f 10 20 24
f 38 40 10
f 21 18 10
f 25 21 10
f 10 16 20
f 10 40 42
f 10 30 29
f 10 26 25
f 10 32 31
f 31 26 10
f 36 32 10
f 10 18 14
f 9 5 10
f 10 13 9

