# https://github.com/mikedh/trimesh
v 0.01570623 0.00946439 0.01869984
v 0.01592032 0.00939674 0.01869984
v 0.01570623 0.00946439 0.01700245
v 0.01570623 0.00530134 0.01869984
v 0.01672606 0.00906296 0.01869984
v 0.01592032 0.00939674 0.01700245
v 0.01570623 0.00530134 0.01700245
v 0.01625111 0.00530134 0.01869984
v 0.01726271 0.00878339 0.01869984
v 0.01697442 0.00893377 0.01700245
v 0.01672606 0.00906296 0.01700245
v 0.01625111 0.00530134 0.01700245
v 0.01726271 0.00618489 0.01869984
v 0.01726271 0.00878339 0.01700245
v 0.01726271 0.00618489 0.01700245
f 10 5 9
f 9 14 10
f 5 10 11
f 9 13 14
f 14 13 15
f 7 4 1
f 1 3 7
f 8 13 9
f 1 4 8
f 9 5 8
f 8 2 1
f 5 2 8
f 15 13 12
f 13 8 12
f 4 7 12
f 12 8 4
f 6 14 15
f 15 12 6
f 6 7 3
f 6 10 14
f 6 11 10
f 6 12 7
f 6 3 1
f 1 2 6
f 6 2 5
f 5 11 6

