# https://github.com/mikedh/trimesh
v 0.01009438 -0.00001771 0.00485741
v 0.01009438 0.00216174 0.00485741
v 0.01095370 -0.00001771 0.00485741
v 0.01009438 -0.00001771 0.01421998
v 0.01095370 0.00216174 0.00485741
v 0.01009438 0.00216174 0.01439951
v 0.01095370 -0.00001771 0.01440980
v 0.01009572 -0.00001771 0.01439951
v 0.01009438 0.00000042 0.01439951
v 0.01095370 0.00216174 0.01439951
v 0.01010001 0.00000021 0.01440980
v 0.01010918 0.00020928 0.01440980
v 0.01013652 0.00041686 0.01440980
v 0.01013795 0.00042347 0.01440980
v 0.01018186 0.00062123 0.01440980
v 0.01018388 0.00062785 0.01440980
v 0.01024478 0.00082092 0.01440980
v 0.01024738 0.00082732 0.01440980
v 0.01032494 0.00101442 0.01440980
v 0.01032805 0.00102039 0.01440980
v 0.01042159 0.00119981 0.01440980
v 0.01053397 0.00137645 0.01440980
v 0.01053817 0.00138200 0.01440980
v 0.01066148 0.00154264 0.01440980
v 0.01080288 0.00169688 0.01440980
v 0.01080793 0.00170157 0.01440980
v 0.01095370 0.00183512 0.01440980
v 0.01010085 -0.00001771 0.01440980
f 9 11 6
f 9 4 8
f 8 28 9
f 9 28 11
f 27 10 6
f 6 21 22
f 6 24 25
f 6 11 12
f 12 13 6
f 14 15 6
f 6 13 14
f 6 18 19
f 17 18 6
f 23 24 6
f 6 22 23
f 26 27 6
f 6 25 26
f 20 21 6
f 6 19 20
f 6 15 16
f 16 17 6
f 1 2 5
f 5 3 1
f 10 5 2
f 2 6 10
f 1 3 28
f 3 7 28
f 28 4 1
f 8 4 28
f 9 2 1
f 9 6 2
f 1 4 9
f 3 5 27
f 27 7 3
f 5 10 27
f 16 28 7
f 11 28 16
f 7 27 16
f 15 14 16
f 24 23 16
f 16 22 21
f 16 12 11
f 27 26 16
f 21 20 16
f 16 25 24
f 13 12 16
f 16 14 13
f 16 19 18
f 18 17 16
f 16 23 22
f 16 26 25
f 16 20 19

