# https://github.com/mikedh/trimesh
v -0.02239757 -0.01020706 -0.01590000
v -0.02239494 -0.01010502 -0.01590000
v -0.02104832 -0.01020706 -0.01590000
v -0.02269978 -0.01020706 -0.01439965
v -0.02269978 -0.00752748 -0.01439965
v -0.02229807 -0.00752748 -0.01590000
v -0.02046598 -0.00951926 -0.01590000
v -0.02046598 -0.01020628 -0.01439965
v -0.02046598 -0.01020706 -0.01434362
v -0.02269978 -0.01020706 0.01439965
v -0.02269978 -0.00752748 0.01439965
v -0.02046598 -0.00752748 -0.01590000
v -0.02046598 -0.01020706 0.01429693
v -0.02248482 -0.00752748 0.01520274
v -0.02242753 -0.01020706 0.01535527
v -0.02229807 -0.00840021 0.01590000
v -0.02046598 -0.00752748 0.01590000
v -0.02046598 -0.00904998 0.01579417
v -0.02095014 -0.00999983 0.01579728
v -0.02189986 -0.01020706 0.01579728
v -0.02229807 -0.00752748 0.01590000
v -0.02241178 -0.01020706 0.01540507
v -0.02236761 -0.01020706 0.01549845
v -0.02233962 -0.01020706 0.01554203
v -0.02230769 -0.01020706 0.01558561
v -0.02227227 -0.01020706 0.01562296
v -0.02226002 -0.01020706 0.01563542
v -0.02222000 -0.01020706 0.01566965
v -0.02219223 -0.01020706 0.01569144
v -0.02214806 -0.01020706 0.01571946
v -0.02208420 -0.01020706 0.01575059
v -0.02205315 -0.01020706 0.01576304
v -0.02203456 -0.01020706 0.01576926
v -0.02200329 -0.01020706 0.01577860
v -0.02195212 -0.01020706 0.01578794
v -0.02046598 -0.00841569 0.01590000
v -0.02239188 -0.01020706 0.01545176
f 4 5 1
f 16 21 14
f 5 6 2
f 2 1 5
f 7 8 3
f 18 19 13
f 10 14 11
f 16 14 10
f 9 3 8
f 19 18 36
f 13 19 20
f 20 36 16
f 19 36 20
f 16 10 15
f 15 22 16
f 16 29 30
f 28 29 16
f 16 27 28
f 16 25 26
f 26 27 16
f 16 22 37
f 37 23 16
f 24 25 16
f 16 23 24
f 31 32 16
f 16 30 31
f 35 20 16
f 16 34 35
f 16 32 33
f 33 34 16
f 14 21 17
f 5 11 14
f 17 12 14
f 14 6 5
f 12 6 14
f 3 12 7
f 3 6 12
f 1 2 3
f 3 2 6
f 10 11 5
f 10 5 4
f 36 12 17
f 7 12 36
f 36 8 7
f 13 9 36
f 36 18 13
f 36 9 8
f 17 21 36
f 36 21 16
f 1 3 33
f 4 1 33
f 33 10 4
f 33 9 13
f 3 9 33
f 13 20 33
f 33 15 10
f 33 26 25
f 22 15 33
f 32 31 33
f 33 30 29
f 29 28 33
f 33 37 22
f 25 24 33
f 20 35 33
f 33 28 27
f 27 26 33
f 23 37 33
f 33 24 23
f 33 31 30
f 33 35 34

