# https://github.com/mikedh/trimesh
v -0.01972921 -0.01073357 0.01580000
v -0.01972921 -0.01086430 0.01580000
v -0.01972921 -0.01073357 0.01523895
v -0.02045000 -0.01073357 0.01580000
v -0.01972921 -0.01095211 0.01579780
v -0.01975807 -0.01090972 0.01580000
v -0.01972921 -0.01142293 0.01523895
v -0.02045000 -0.01073357 0.01523895
v -0.02045000 -0.01137238 0.01580000
v -0.01972921 -0.01099780 0.01579445
v -0.01981918 -0.01098929 0.01580000
v -0.01977910 -0.01102291 0.01579764
v -0.01972921 -0.01140700 0.01567891
v -0.01973048 -0.01142293 0.01566984
v -0.02045000 -0.01142293 0.01523895
v -0.02045000 -0.01139546 0.01579951
v -0.02040223 -0.01136070 0.01580000
v -0.01972921 -0.01104302 0.01579083
v -0.01988692 -0.01106327 0.01580000
v -0.01984994 -0.01110005 0.01579764
v -0.01981325 -0.01113676 0.01579083
v -0.01972921 -0.01132507 0.01571954
v -0.01973443 -0.01138966 0.01569148
v -0.01977670 -0.01142293 0.01569148
v -0.02044372 -0.01142293 0.01579775
v -0.02028870 -0.01137967 0.01579764
v -0.02030662 -0.01133053 0.01580000
v -0.01973429 -0.01106050 0.01578935
v -0.01972921 -0.01112057 0.01577946
v -0.01996087 -0.01113089 0.01580000
v -0.01992728 -0.01117092 0.01579764
v -0.01977712 -0.01117287 0.01577946
v -0.01989390 -0.01121067 0.01579083
v -0.01972921 -0.01126217 0.01574376
v -0.01979787 -0.01132514 0.01574376
v -0.01976809 -0.01136070 0.01571954
v -0.01984917 -0.01142293 0.01571954
v -0.02038720 -0.01141713 0.01579687
v -0.02030895 -0.01142293 0.01579308
v -0.02026527 -0.01142293 0.01579121
v -0.02019181 -0.01133958 0.01579764
v -0.02021390 -0.01129220 0.01580000
v -0.01972921 -0.01119440 0.01576381
v -0.02004046 -0.01119197 0.01580000
v -0.02001047 -0.01123476 0.01579764
v -0.01998069 -0.01127728 0.01579083
v -0.01986109 -0.01124981 0.01577946
v -0.01982899 -0.01128808 0.01576381
v -0.01974184 -0.01120817 0.01576381
v -0.01972921 -0.01122086 0.01575634
v -0.01992276 -0.01136003 0.01576381
v -0.01989503 -0.01139965 0.01574376
v -0.01987873 -0.01142293 0.01572893
v -0.02015294 -0.01142293 0.01578199
v -0.02016987 -0.01138655 0.01579083
v -0.02009881 -0.01129112 0.01579764
v -0.02012492 -0.01124583 0.01580000
v -0.01995141 -0.01131913 0.01577946
v -0.02007299 -0.01133607 0.01579083
v -0.02004745 -0.01138034 0.01577946
v -0.02002091 -0.01142293 0.01576364
v -0.01993151 -0.01142293 0.01574376
v -0.02012909 -0.01142293 0.01577946
f 13 14 7
f 16 15 25
f 9 16 17
f 16 27 17
f 14 13 24
f 42 27 26
f 26 16 25
f 26 27 16
f 5 11 12
f 37 24 36
f 38 26 25
f 61 60 63
f 5 2 6
f 6 11 5
f 5 12 10
f 10 12 18
f 19 12 11
f 23 24 13
f 23 36 24
f 13 22 23
f 23 22 36
f 39 38 25
f 40 26 39
f 26 38 39
f 42 56 57
f 42 26 41
f 41 56 42
f 55 56 41
f 41 40 55
f 41 26 40
f 31 19 30
f 35 22 34
f 36 22 35
f 37 36 35
f 35 52 37
f 55 40 54
f 54 63 60
f 37 52 53
f 52 62 53
f 44 57 56
f 12 19 20
f 19 31 20
f 29 18 28
f 28 32 29
f 29 32 43
f 46 58 47
f 60 58 46
f 52 35 51
f 61 62 51
f 51 62 52
f 51 60 61
f 51 58 60
f 30 44 45
f 45 31 30
f 45 44 56
f 56 46 45
f 45 46 31
f 49 35 34
f 49 43 32
f 32 28 21
f 21 28 18
f 21 20 31
f 18 12 21
f 12 20 21
f 60 46 59
f 55 54 59
f 59 54 60
f 59 56 55
f 59 46 56
f 50 49 34
f 43 49 50
f 48 51 35
f 35 49 48
f 47 58 48
f 58 51 48
f 48 32 47
f 48 49 32
f 47 32 33
f 32 21 33
f 33 46 47
f 31 46 33
f 33 21 31
f 1 3 8
f 4 1 8
f 15 8 3
f 15 3 7
f 4 8 16
f 16 9 4
f 8 15 16
f 53 15 7
f 7 14 53
f 25 15 53
f 14 24 53
f 61 63 53
f 53 24 37
f 53 62 61
f 53 39 25
f 53 54 40
f 40 39 53
f 63 54 53
f 44 1 4
f 4 9 44
f 9 17 44
f 30 19 44
f 44 27 42
f 44 17 27
f 44 2 1
f 44 6 2
f 11 6 44
f 44 19 11
f 42 57 44
f 50 3 1
f 7 3 50
f 50 13 7
f 50 18 29
f 1 2 50
f 50 2 5
f 5 10 50
f 50 22 13
f 50 10 18
f 34 22 50
f 29 43 50

