# https://github.com/mikedh/trimesh
v 0.00440384 0.00538102 0.01620000
v 0.00440384 0.00538102 0.01700245
v 0.00440384 0.00585971 0.01620000
v 0.00637701 0.00538102 0.01620000
v 0.00440384 0.00585971 0.01700245
v 0.00637701 0.00538102 0.01700245
v 0.00447897 0.00595788 0.01700245
v 0.00450593 0.00599286 0.01620000
v 0.00686314 0.00599286 0.01620000
v 0.00686314 0.00599286 0.01700245
v 0.00450593 0.00599286 0.01700245
f 8 3 7
f 7 11 8
f 5 7 3
f 11 10 9
f 9 8 11
f 1 3 4
f 4 8 9
f 4 3 8
f 1 4 6
f 6 2 1
f 9 10 6
f 6 4 9
f 10 11 5
f 2 6 5
f 11 7 5
f 5 6 10
f 5 3 1
f 1 2 5

