# https://github.com/mikedh/trimesh
v -0.02045227 0.00865823 -0.01589938
v -0.02045227 0.00951613 -0.01589938
v -0.01980982 0.00865823 -0.01589938
v -0.02045227 0.00865823 0.01459338
v -0.02045227 0.00968474 -0.01439205
v -0.02045139 0.00968474 -0.01439802
v -0.01980982 0.00968283 -0.01589938
v -0.01980982 0.00865823 0.01439937
v -0.01997433 0.00865823 0.01459338
v -0.02045227 0.00965650 0.01459338
v -0.02045227 0.00968474 0.01456353
v -0.01980982 0.00968474 -0.01439802
v -0.01980982 0.00874434 0.01459338
v -0.01981353 0.00874193 0.01459338
v -0.01982510 0.00873459 0.01459338
v -0.01985780 0.00871751 0.01459338
v -0.01996049 0.00866416 0.01459338
v -0.02044995 0.00968474 0.01459338
v -0.01980982 0.00968474 0.01459338
f 6 2 5
f 7 2 6
f 6 12 7
f 10 18 11
f 8 13 14
f 14 15 8
f 17 9 8
f 8 15 16
f 16 17 8
f 2 3 1
f 2 7 3
f 13 8 3
f 3 7 13
f 13 12 19
f 7 12 13
f 5 11 6
f 19 12 6
f 6 18 19
f 11 18 6
f 9 4 1
f 1 3 9
f 3 8 9
f 1 4 10
f 10 11 5
f 10 2 1
f 5 2 10
f 16 13 19
f 19 18 16
f 4 9 16
f 16 10 4
f 18 10 16
f 16 14 13
f 15 14 16
f 9 17 16

