# https://github.com/mikedh/trimesh
v -0.01918741 -0.00964278 0.01537882
v -0.01975491 -0.00964278 0.01537882
v -0.01918741 -0.01020727 0.01537882
v -0.01918741 -0.00964278 0.01472693
v -0.01975491 -0.00999999 0.01537882
v -0.01975491 -0.00964278 0.01472693
v -0.01949999 -0.01020727 0.01537882
v -0.01918741 -0.01020727 0.01472693
v -0.01975491 -0.01020727 0.01494512
v -0.01975491 -0.01020727 0.01472693
f 9 7 5
f 2 1 6
f 1 4 6
f 1 3 8
f 8 4 1
f 8 6 4
f 10 6 8
f 7 3 1
f 7 1 2
f 2 5 7
f 9 5 2
f 2 6 9
f 9 6 10
f 9 8 3
f 10 8 9
f 3 7 9

