# https://github.com/mikedh/trimesh
v 0.00441389 0.01233779 0.01590000
v 0.00455493 0.01231961 0.01590000
v 0.00543135 0.01239717 0.01440980
v 0.00441389 0.01239717 0.01440980
v 0.00441389 0.01096829 0.01590000
v 0.00472923 0.01228204 0.01590000
v 0.00489966 0.01222992 0.01590000
v 0.00506500 0.01216347 0.01590000
v 0.00543135 0.01238263 0.01446479
v 0.00543135 0.01033384 0.01440980
v 0.00441389 0.01096829 0.01440980
v 0.00494468 0.01033384 0.01590000
v 0.00543135 0.01199804 0.01590000
v 0.00543135 0.01226931 0.01488781
v 0.00543135 0.01234001 0.01462393
v 0.00543135 0.01033384 0.01590000
v 0.00494468 0.01033384 0.01440980
f 2 3 1
f 1 3 4
f 3 2 6
f 6 7 3
f 3 7 8
f 14 8 13
f 14 15 8
f 3 8 9
f 8 15 9
f 11 5 1
f 1 4 11
f 17 4 3
f 3 10 17
f 17 11 4
f 17 16 12
f 10 16 17
f 12 5 17
f 5 11 17
f 1 5 8
f 8 2 1
f 8 5 12
f 12 16 8
f 8 6 2
f 8 16 13
f 7 6 8
f 9 10 3
f 13 16 9
f 9 16 10
f 9 14 13
f 15 14 9

