# https://github.com/mikedh/trimesh
v 0.00800003 -0.00000072 0.01470000
v 0.00800003 -0.00000072 0.01613282
v 0.01007638 -0.00000072 0.01470000
v 0.00801731 -0.00039241 0.01470000
v 0.01007638 -0.00000072 0.01613282
v 0.00801731 -0.00039241 0.01613282
v 0.01007638 -0.00240113 0.01470000
v 0.00801954 -0.00040980 0.01613282
v 0.00806853 -0.00078151 0.01470000
v 0.01007638 -0.00240113 0.01613282
v 0.00869919 -0.00240113 0.01470000
v 0.00806853 -0.00078151 0.01613282
v 0.00815348 -0.00116474 0.01470000
v 0.00807218 -0.00079867 0.01613282
v 0.00869919 -0.00240113 0.01613282
v 0.00861241 -0.00226462 0.01613282
v 0.00860306 -0.00224981 0.01470000
v 0.00827157 -0.00153904 0.01470000
v 0.00815877 -0.00118166 0.01613282
v 0.00815348 -0.00116474 0.01613282
v 0.00860306 -0.00224981 0.01613282
v 0.00842989 -0.00191734 0.01613282
v 0.00842176 -0.00190160 0.01470000
v 0.00827827 -0.00155526 0.01613282
v 0.00827157 -0.00153904 0.01613282
v 0.00842176 -0.00190160 0.01613282
f 14 9 13
f 8 4 9
f 9 14 12
f 12 8 9
f 4 8 6
f 13 18 19
f 18 25 19
f 24 18 23
f 24 23 26
f 24 25 18
f 23 17 22
f 26 23 22
f 17 21 22
f 11 15 16
f 16 17 11
f 16 21 17
f 20 14 13
f 13 19 20
f 1 2 5
f 5 3 1
f 3 5 10
f 10 7 3
f 15 11 7
f 7 10 15
f 1 3 17
f 3 7 17
f 7 11 17
f 17 4 1
f 13 9 17
f 9 4 17
f 17 18 13
f 23 18 17
f 6 2 1
f 1 4 6
f 20 5 2
f 20 10 5
f 20 15 10
f 20 12 14
f 2 6 20
f 20 16 15
f 20 24 26
f 8 12 20
f 20 6 8
f 26 22 20
f 20 19 25
f 25 24 20
f 20 22 21
f 21 16 20

