# https://github.com/mikedh/trimesh
v 0.00348418 -0.00846694 0.01440980
v 0.00250216 -0.00846694 0.01440980
v 0.00348418 -0.00891139 0.01440980
v 0.00348418 -0.00846694 -0.01440723
v 0.00248045 -0.00846694 0.01440698
v 0.00248045 -0.00891139 0.01440980
v 0.00348418 -0.00891139 -0.01440723
v 0.00295819 -0.00846694 -0.01440723
v 0.00248045 -0.00846694 -0.01440441
v 0.00248045 -0.00891139 -0.01440723
f 5 6 2
f 10 9 8
f 9 6 5
f 10 6 9
f 7 4 1
f 1 3 7
f 7 6 10
f 3 6 7
f 2 3 1
f 2 6 3
f 1 4 8
f 8 9 5
f 5 2 8
f 8 2 1
f 4 7 8
f 8 7 10

