# https://github.com/mikedh/trimesh
v 0.01465633 -0.00156208 0.01439889
v 0.01432176 -0.00156085 0.01440980
v 0.01465633 -0.00190135 0.01439889
v 0.01465633 -0.00156085 0.01422751
v 0.01465603 -0.00156085 0.01439889
v 0.01312514 -0.00156085 0.01440980
v 0.01419704 -0.00169707 0.01440980
v 0.01404265 -0.00183849 0.01440980
v 0.01403726 -0.00184265 0.01440980
v 0.01396066 -0.00190135 0.01440980
v 0.01465633 -0.00190135 -0.00150675
v 0.01465633 -0.00156085 -0.00150675
v 0.01312514 -0.00190135 0.01440980
v 0.01312514 -0.00156085 -0.00150675
v 0.01312514 -0.00190135 -0.00150675
f 2 3 1
f 5 2 1
f 4 5 1
f 3 2 7
f 3 7 8
f 9 10 3
f 3 8 9
f 3 11 4
f 1 3 4
f 11 12 4
f 4 14 6
f 6 2 4
f 2 5 4
f 12 14 4
f 15 11 3
f 3 10 15
f 15 10 13
f 15 12 11
f 15 14 12
f 15 13 6
f 6 14 15
f 6 13 9
f 9 2 6
f 13 10 9
f 9 7 2
f 9 8 7

