# https://github.com/mikedh/trimesh
v -0.01871058 -0.00964278 0.01325137
v -0.01975480 -0.00964278 0.01325137
v -0.01871058 -0.01020727 0.01325137
v -0.01871058 -0.00964278 -0.01590000
v -0.01975480 -0.01020727 0.01325137
v -0.01975480 -0.00964278 -0.01590000
v -0.01871058 -0.01020727 -0.01590000
v -0.01975480 -0.01020727 -0.01439906
v -0.01975480 -0.00973584 -0.01590000
v -0.01955178 -0.01020727 -0.01590000
f 9 10 8
f 5 3 1
f 5 1 2
f 2 1 6
f 1 4 6
f 1 3 7
f 7 4 1
f 3 5 10
f 10 5 8
f 10 7 3
f 9 5 2
f 2 6 9
f 8 5 9
f 9 6 4
f 4 7 9
f 7 10 9

