# https://github.com/mikedh/trimesh
v 0.01799492 -0.00331682 0.01620000
v 0.02192937 -0.00331682 0.01620000
v 0.01799492 -0.00331682 0.01700245
v 0.01799492 0.00382527 0.01620000
v 0.02215912 -0.00258761 0.01620000
v 0.02193202 -0.00331682 0.01700245
v 0.01799492 0.00382527 0.01700245
v 0.01864361 0.00458309 0.01620000
v 0.02209959 -0.00278480 0.01700245
v 0.02234786 -0.00173622 0.01620000
v 0.02228745 -0.00200919 0.01700245
v 0.02215912 -0.00258761 0.01700245
v 0.01864361 0.00458309 0.01700245
v 0.02137726 0.00458309 0.01620000
v 0.02234786 -0.00173622 0.01700245
v 0.02246164 -0.00087091 0.01620000
v 0.02137726 0.00458309 0.01700245
v 0.02156291 0.00422583 0.01620000
v 0.02246164 -0.00087091 0.01700245
v 0.02250000 0.00000059 0.01620000
v 0.02156291 0.00422583 0.01700245
v 0.02189674 0.00342007 0.01620000
v 0.02250000 0.00000059 0.01700245
v 0.02246164 0.00087131 0.01620000
v 0.02247398 0.00059215 0.01700245
v 0.02189674 0.00342007 0.01700245
v 0.02215912 0.00258801 0.01620000
v 0.02234786 0.00173585 0.01620000
v 0.02238446 0.00145824 0.01700245
v 0.02246164 0.00087131 0.01700245
v 0.02215912 0.00258801 0.01700245
v 0.02234786 0.00173585 0.01700245
f 6 2 5
f 11 5 10
f 10 15 11
f 25 23 20
f 20 24 25
f 25 24 30
f 29 24 28
f 30 24 29
f 28 32 29
f 5 11 12
f 6 5 9
f 5 12 9
f 2 3 1
f 2 6 3
f 7 4 1
f 1 3 7
f 13 14 8
f 17 14 13
f 8 4 13
f 4 7 13
f 19 15 16
f 16 15 10
f 23 16 20
f 19 16 23
f 32 28 27
f 27 31 32
f 1 4 18
f 20 16 18
f 18 4 8
f 8 14 18
f 18 2 1
f 18 5 2
f 18 24 20
f 10 5 18
f 27 28 18
f 18 16 10
f 28 24 18
f 18 22 27
f 26 31 27
f 27 22 26
f 21 14 17
f 21 18 14
f 22 18 21
f 21 26 22
f 3 6 9
f 30 29 9
f 17 13 9
f 9 7 3
f 9 13 7
f 9 25 30
f 9 21 17
f 9 15 19
f 19 23 9
f 9 32 31
f 9 11 15
f 23 25 9
f 9 29 32
f 31 26 9
f 9 12 11
f 26 21 9

