# https://github.com/mikedh/trimesh
v -0.02074663 -0.01062384 0.00936356
v -0.02074663 -0.01170515 0.00936356
v -0.02074663 -0.01062384 0.00660438
v -0.02268588 -0.01062384 0.00936356
v -0.02215323 -0.01170515 0.00936356
v -0.02074663 -0.01170515 0.00660438
v -0.02268588 -0.01062384 0.00660438
v -0.02266956 -0.01074739 0.00936356
v -0.02221550 -0.01170357 0.00936356
v -0.02221531 -0.01170378 0.00660438
v -0.02216026 -0.01170515 0.00660438
v -0.02266956 -0.01074739 0.00660438
v -0.02263178 -0.01091772 0.00936356
v -0.02223201 -0.01168557 0.00936356
v -0.02223201 -0.01168557 0.00660438
v -0.02263178 -0.01091772 0.00660438
v -0.02262267 -0.01094684 0.00936356
v -0.02231971 -0.01157134 0.00936356
v -0.02230946 -0.01158457 0.00660438
v -0.02262533 -0.01093826 0.00660438
v -0.02257920 -0.01108414 0.00936356
v -0.02257920 -0.01108414 0.00660438
v -0.02233812 -0.01154710 0.00936356
v -0.02233812 -0.01154710 0.00660438
v -0.02232180 -0.01156848 0.00660438
v -0.02256762 -0.01111231 0.00936356
v -0.02257104 -0.01110405 0.00660438
v -0.02241557 -0.01142567 0.00936356
v -0.02240665 -0.01143975 0.00660438
v -0.02251257 -0.01124517 0.00936356
v -0.02251257 -0.01124517 0.00660438
v -0.02241880 -0.01142059 0.00936356
v -0.02241747 -0.01142270 0.00660438
v -0.02243190 -0.01139994 0.00936356
v -0.02249074 -0.01128709 0.00660438
v -0.02243190 -0.01139994 0.00660438
f 5 9 10
f 11 5 10
f 14 15 10
f 10 9 14
f 18 23 24
f 15 14 18
f 22 27 21
f 25 18 24
f 35 34 30
f 35 30 31
f 36 34 35
f 24 23 29
f 26 27 31
f 31 30 26
f 26 21 27
f 17 13 16
f 22 21 17
f 15 18 19
f 18 25 19
f 33 34 36
f 28 29 23
f 20 17 16
f 22 17 20
f 32 33 29
f 29 28 32
f 34 33 32
f 4 1 7
f 1 3 7
f 1 2 6
f 6 3 1
f 11 6 2
f 2 5 11
f 4 7 8
f 7 12 8
f 8 12 16
f 16 13 8
f 20 7 3
f 3 6 20
f 20 11 10
f 10 15 20
f 6 11 20
f 20 12 7
f 20 25 24
f 31 27 20
f 16 12 20
f 20 35 31
f 20 33 36
f 20 27 22
f 24 29 20
f 36 35 20
f 15 19 20
f 20 19 25
f 29 33 20
f 32 2 1
f 32 1 4
f 32 5 2
f 9 5 32
f 32 14 9
f 23 18 32
f 30 34 32
f 4 8 32
f 32 8 13
f 32 18 14
f 13 17 32
f 32 26 30
f 21 26 32
f 32 17 21
f 32 28 23

