# https://github.com/mikedh/trimesh
v 0.00720561 -0.00891143 0.01439929
v 0.00720561 -0.01240000 0.01439929
v 0.00720561 -0.00891143 0.00367480
v 0.00676002 -0.00891143 0.01440980
v 0.00719405 -0.00918325 0.01440980
v 0.00719721 -0.00918530 0.01440980
v 0.00719721 -0.01239727 0.01440980
v 0.00362719 -0.01240000 0.01439929
v 0.00720561 -0.01240000 0.00367480
v 0.00362719 -0.00891143 0.00367480
v 0.00362719 -0.00891143 0.01440980
v 0.00362719 -0.01239727 0.01440980
v 0.00362719 -0.01240000 0.00367480
f 1 4 5
f 5 6 1
f 9 3 1
f 1 2 9
f 3 10 11
f 1 3 11
f 11 4 1
f 13 9 2
f 13 2 8
f 13 10 3
f 3 9 13
f 6 2 1
f 6 7 2
f 12 11 10
f 12 13 8
f 10 13 12
f 8 2 12
f 2 7 12
f 4 11 5
f 7 6 5
f 11 12 5
f 5 12 7

