# https://github.com/mikedh/trimesh
v 0.00630013 0.00494724 0.01869984
v 0.00630013 0.00494724 0.01700245
v 0.00381235 0.00494724 0.01869984
v 0.00679034 0.00395844 0.01869984
v 0.00381235 0.00494724 0.01700245
v 0.00679034 0.00395844 0.01700245
v 0.00343694 0.00422611 0.01869984
v 0.00679034 0.00271703 0.01869984
v 0.00343694 0.00422611 0.01700245
v 0.00679034 0.00271703 0.01700245
v 0.00310325 0.00342026 0.01869984
v 0.00288130 0.00271703 0.01869984
v 0.00310325 0.00342026 0.01700245
v 0.00288130 0.00271703 0.01700245
f 14 8 12
f 14 10 8
f 4 8 6
f 8 10 6
f 4 6 1
f 1 6 2
f 3 1 5
f 5 1 2
f 11 8 4
f 12 8 11
f 4 1 11
f 11 1 3
f 3 7 11
f 11 14 12
f 11 13 14
f 10 14 9
f 9 6 10
f 2 6 9
f 9 5 2
f 14 13 9
f 9 7 3
f 3 5 9
f 9 11 7
f 13 11 9

