# https://github.com/mikedh/trimesh
v -0.02270000 0.01010734 0.00523333
v -0.02270000 0.01010734 0.00695742
v -0.02270000 0.01040038 0.00523333
v -0.02074755 0.01010734 0.00523333
v -0.02074755 0.01010734 0.00695742
v -0.02270000 0.01040038 0.00695742
v -0.02269236 0.01057458 0.00523333
v -0.02075156 0.01239759 0.00523333
v -0.02076570 0.01239692 0.00695742
v -0.02269236 0.01057458 0.00695742
v -0.02266961 0.01074744 0.00523333
v -0.02078806 0.01239602 0.00523333
v -0.02087445 0.01239221 0.00695742
v -0.02266961 0.01074744 0.00695742
v -0.02263158 0.01091784 0.00523333
v -0.02087445 0.01239221 0.00523333
v -0.02091917 0.01238638 0.00695742
v -0.02263158 0.01091784 0.00695742
v -0.02259603 0.01103151 0.00523333
v -0.02104741 0.01236934 0.00523333
v -0.02104741 0.01236934 0.00695742
v -0.02257921 0.01108442 0.00695742
v -0.02257921 0.01108442 0.00523333
v -0.02110188 0.01235745 0.00523333
v -0.02109156 0.01235970 0.00695742
v -0.02256679 0.01111469 0.00695742
v -0.02251251 0.01124563 0.00523333
v -0.02121769 0.01233167 0.00523333
v -0.02118578 0.01233885 0.00695742
v -0.02251251 0.01124563 0.00695742
v -0.02245766 0.01135055 0.00523333
v -0.02138435 0.01227921 0.00523333
v -0.02121769 0.01233167 0.00695742
v -0.02243186 0.01139988 0.00695742
v -0.02243186 0.01139988 0.00523333
v -0.02142601 0.01226194 0.00695742
v -0.02138435 0.01227921 0.00695742
v -0.02154546 0.01221240 0.00523333
v -0.02233802 0.01154696 0.00695742
v -0.02233802 0.01154696 0.00523333
v -0.02154546 0.01221240 0.00695742
v -0.02159477 0.01218684 0.00523333
v -0.02225948 0.01164964 0.00695742
v -0.02226578 0.01164135 0.00523333
v -0.02167122 0.01214715 0.00695742
v -0.02170027 0.01213191 0.00523333
v -0.02223176 0.01168529 0.00695742
v -0.02223176 0.01168529 0.00523333
v -0.02170027 0.01213191 0.00695742
v -0.02181933 0.01205590 0.00695742
v -0.02184685 0.01203819 0.00523333
v -0.02220959 0.01170950 0.00695742
v -0.02215169 0.01177295 0.00523333
v -0.02184685 0.01203819 0.00695742
v -0.02189119 0.01200433 0.00523333
v -0.02211384 0.01181398 0.00695742
v -0.02211384 0.01181398 0.00523333
v -0.02188259 0.01201084 0.00695742
v -0.02198541 0.01193169 0.00523333
v -0.02198541 0.01193169 0.00695742
v -0.02208976 0.01183618 0.00695742
v -0.02202650 0.01189425 0.00523333
f 4 8 5
f 9 5 8
f 47 48 43
f 40 39 43
f 18 22 19
f 22 23 19
f 26 23 22
f 27 26 30
f 23 26 27
f 36 32 38
f 38 41 36
f 20 24 21
f 44 43 48
f 40 43 44
f 18 19 15
f 30 34 31
f 31 27 30
f 32 36 37
f 29 24 28
f 28 33 29
f 35 31 34
f 16 13 12
f 12 13 9
f 12 9 8
f 17 16 20
f 20 21 17
f 17 13 16
f 25 21 24
f 24 29 25
f 59 60 55
f 46 45 42
f 42 45 41
f 42 41 38
f 53 48 47
f 53 56 57
f 60 59 62
f 55 54 51
f 49 45 46
f 55 60 58
f 58 54 55
f 52 53 47
f 56 53 52
f 60 62 61
f 61 62 57
f 57 56 61
f 46 51 50
f 50 51 54
f 50 49 46
f 5 2 1
f 1 4 5
f 1 2 6
f 6 3 1
f 7 3 6
f 6 10 7
f 28 32 37
f 37 33 28
f 10 14 11
f 7 10 11
f 11 14 18
f 18 15 11
f 35 34 39
f 35 39 40
f 51 4 1
f 51 8 4
f 51 59 55
f 1 3 51
f 38 32 51
f 51 3 7
f 7 11 51
f 51 42 38
f 51 44 48
f 51 35 40
f 51 32 28
f 28 24 51
f 51 19 23
f 23 27 51
f 20 16 51
f 51 24 20
f 57 62 51
f 40 44 51
f 51 15 19
f 27 31 51
f 51 12 8
f 51 11 15
f 31 35 51
f 16 12 51
f 48 53 51
f 46 42 51
f 51 53 57
f 51 62 59
f 2 5 50
f 50 6 2
f 5 9 50
f 50 22 18
f 18 14 50
f 21 25 50
f 47 43 50
f 50 34 30
f 50 14 10
f 10 6 50
f 50 36 41
f 30 26 50
f 39 34 50
f 50 43 39
f 50 26 22
f 9 13 50
f 33 37 50
f 50 29 33
f 41 45 50
f 50 37 36
f 50 17 21
f 50 58 60
f 13 17 50
f 50 25 29
f 50 52 47
f 45 49 50
f 60 61 50
f 54 58 50
f 56 52 50
f 50 61 56

