# https://github.com/mikedh/trimesh
v -0.01910163 0.01096016 -0.01590000
v -0.01910163 0.01199800 -0.01590000
v -0.01876375 0.01096016 -0.01590000
v -0.01910163 0.01096016 0.01440000
v -0.01876375 0.01199800 -0.01590000
v -0.01910163 0.01229358 -0.01479667
v -0.01876375 0.01229443 -0.01479371
v -0.01876375 0.01096016 0.01440000
v -0.01910163 0.01240000 0.01440000
v -0.01910163 0.01234362 -0.01460982
v -0.01876375 0.01235081 -0.01458313
v -0.01876375 0.01240000 0.01440000
v -0.01910163 0.01240000 -0.01439924
v -0.01876375 0.01239845 -0.01440517
v -0.01876375 0.01240000 -0.01439924
f 15 14 13
f 5 2 7
f 6 7 2
f 13 14 11
f 7 6 10
f 10 11 7
f 13 11 10
f 8 4 1
f 1 3 8
f 2 3 1
f 2 5 3
f 4 8 12
f 9 4 12
f 12 13 9
f 12 15 13
f 11 8 3
f 3 5 11
f 5 7 11
f 14 15 11
f 11 12 8
f 15 12 11
f 1 4 10
f 10 4 9
f 9 13 10
f 10 2 1
f 10 6 2

