# https://github.com/mikedh/trimesh
v 0.01461298 -0.00115986 0.01613282
v 0.01399612 -0.00115986 0.01613282
v 0.01461298 -0.00153558 0.01613282
v 0.01461298 -0.00115986 0.01470006
v 0.01399612 -0.00153558 0.01613282
v 0.01399612 -0.00115986 0.01440980
v 0.01461298 -0.00153558 0.01470006
v 0.01459933 -0.00115986 0.01440980
v 0.01399612 -0.00153558 0.01440980
v 0.01434396 -0.00153558 0.01440980
v 0.01446594 -0.00137657 0.01440980
v 0.01457844 -0.00120002 0.01440980
f 4 7 8
f 8 7 12
f 7 11 12
f 10 11 7
f 5 3 1
f 5 1 2
f 2 1 4
f 4 6 2
f 4 8 6
f 1 3 4
f 3 7 4
f 9 5 2
f 2 6 9
f 3 5 10
f 10 7 3
f 5 9 10
f 6 8 10
f 10 9 6
f 8 12 10
f 10 12 11

