# https://github.com/mikedh/trimesh
v 0.01190021 0.00147871 0.01440980
v 0.01190021 0.00147871 0.01613282
v 0.01190021 0.00213200 0.01440980
v 0.01438741 0.00147871 0.01440980
v 0.01190021 0.00213200 0.01613282
v 0.01439058 0.00147871 0.01613282
v 0.01359710 0.00213200 0.01440980
v 0.01433841 0.00154273 0.01440980
v 0.01439058 0.00213200 0.01470006
v 0.01439058 0.00147871 0.01470006
v 0.01439058 0.00213200 0.01613282
v 0.01369998 0.00207842 0.01440980
v 0.01420166 0.00169204 0.01440980
v 0.01419703 0.00169710 0.01440980
v 0.01404759 0.00183388 0.01440980
v 0.01404247 0.00183848 0.01440980
v 0.01387647 0.00196593 0.01440980
f 9 10 4
f 9 16 17
f 7 9 12
f 9 17 12
f 8 9 4
f 15 16 9
f 9 14 15
f 13 14 9
f 9 8 13
f 1 2 5
f 5 3 1
f 11 5 2
f 11 2 6
f 10 2 1
f 6 2 10
f 1 4 10
f 9 11 6
f 6 10 9
f 3 5 9
f 5 11 9
f 9 7 3
f 1 3 13
f 13 4 1
f 3 7 13
f 7 12 13
f 13 17 16
f 13 8 4
f 13 12 17
f 16 15 13
f 13 15 14

