# https://github.com/mikedh/trimesh
v 0.00201306 0.00189754 -0.01440000
v 0.00201306 0.00344023 -0.01440000
v 0.00248045 0.00189754 -0.01440000
v 0.00201306 0.00189754 0.01440148
v 0.00248045 0.00344023 -0.01440000
v 0.00201306 0.00344023 0.01440148
v 0.00248045 0.00189754 0.01439866
v 0.00207652 0.00189754 0.01440148
v 0.00248045 0.00344023 0.01439866
v 0.00247999 0.00344023 0.01440148
f 10 7 9
f 7 10 8
f 1 2 5
f 5 3 1
f 3 5 7
f 7 5 9
f 6 2 1
f 1 4 6
f 10 5 2
f 9 5 10
f 2 6 10
f 1 3 8
f 8 4 1
f 3 7 8
f 8 6 4
f 8 10 6

