# https://github.com/mikedh/trimesh
v 0.00248063 -0.00998101 0.01440980
v 0.00350033 -0.00998101 0.01440980
v 0.00248063 -0.00998101 0.01590000
v 0.00248063 -0.00729172 0.01440980
v 0.00350033 -0.00998101 0.01590000
v 0.00432421 -0.00951059 0.01440980
v 0.00248063 -0.00729172 0.01590000
v 0.00432421 -0.00729172 0.01440980
v 0.00432421 -0.00951059 0.01590000
v 0.00425905 -0.00729172 0.01590000
v 0.00432421 -0.00729172 0.01572437
v 0.00432421 -0.00735990 0.01590000
f 11 10 12
f 8 2 1
f 1 4 8
f 6 2 8
f 7 4 1
f 1 3 7
f 1 2 5
f 5 3 1
f 5 2 6
f 6 9 5
f 10 9 12
f 10 7 3
f 3 5 10
f 10 5 9
f 6 8 11
f 11 9 6
f 12 9 11
f 11 8 4
f 4 7 11
f 7 10 11

