# https://github.com/mikedh/trimesh
v 0.00248045 0.00700938 -0.00177283
v -0.00053186 0.00700938 -0.00177283
v 0.00248045 0.00627734 -0.00177283
v 0.00248045 0.00700938 -0.01440104
v -0.00053186 0.00627734 -0.00177283
v -0.00053186 0.00700938 -0.01439980
v 0.00248045 0.00627734 -0.01439980
v 0.00248045 0.00650005 -0.01440104
v 0.00095012 0.00700938 -0.01440104
v -0.00053186 0.00627734 -0.01439980
v 0.00095189 0.00650005 -0.01440104
v 0.00095012 0.00650256 -0.01440104
f 12 11 10
f 5 3 1
f 5 1 2
f 6 5 2
f 10 5 6
f 3 5 7
f 7 5 10
f 2 1 9
f 1 4 9
f 9 6 2
f 1 3 8
f 8 4 1
f 3 7 8
f 11 7 10
f 11 8 7
f 12 9 4
f 4 8 12
f 8 11 12
f 10 6 12
f 6 9 12

