# https://github.com/mikedh/trimesh
v 0.01570553 0.00494724 0.01869984
v 0.01570553 0.00271856 0.01869984
v 0.01570553 0.00494724 0.01700245
v 0.00880050 0.00494724 0.01869984
v 0.01570482 0.00271703 0.01869984
v 0.01570553 0.00271703 0.01848731
v 0.01570553 0.00271703 0.01700245
v 0.00880050 0.00494724 0.01700245
v 0.00848155 0.00411760 0.01869984
v 0.00848155 0.00271703 0.01869984
v 0.00848155 0.00271703 0.01700245
v 0.00848155 0.00411760 0.01700245
f 6 2 5
f 10 4 9
f 10 2 1
f 1 4 10
f 5 2 10
f 8 4 1
f 1 3 8
f 5 10 6
f 6 10 11
f 11 7 6
f 1 2 6
f 6 3 1
f 6 7 3
f 12 7 11
f 3 7 12
f 12 8 3
f 12 10 9
f 11 10 12
f 9 4 12
f 4 8 12

