# https://github.com/mikedh/trimesh
v 0.00501206 0.00741767 -0.01439922
v 0.00501206 0.00750498 -0.01440523
v 0.00614449 0.00741767 -0.01439922
v 0.00501206 0.00741767 0.00604845
v 0.00501206 0.00860972 -0.01440723
v 0.00549856 0.00796590 -0.01440723
v 0.00610635 0.00846145 -0.01440723
v 0.00614449 0.00848828 -0.01440523
v 0.00614449 0.00741767 0.00604845
v 0.00501206 0.01240000 0.00604845
v 0.00501206 0.01239805 -0.01440723
v 0.00614449 0.00920673 -0.01440723
v 0.00614449 0.01240000 0.00604845
v 0.00501206 0.01240000 -0.01439922
v 0.00614449 0.01239805 -0.01440723
v 0.00614449 0.01240000 -0.01322586
v 0.00614449 0.01239951 -0.01440122
f 2 3 1
f 2 6 3
f 2 5 6
f 11 14 15
f 3 6 7
f 17 14 16
f 17 15 14
f 7 12 8
f 3 7 8
f 9 4 1
f 1 3 9
f 14 4 10
f 1 4 14
f 14 2 1
f 11 5 14
f 5 2 14
f 10 4 13
f 4 9 13
f 13 14 10
f 16 14 13
f 12 5 11
f 6 5 12
f 11 15 12
f 12 7 6
f 8 9 3
f 8 17 16
f 8 13 9
f 16 13 8
f 15 17 8
f 8 12 15

