# https://github.com/mikedh/trimesh
v 0.00248045 -0.01012278 -0.00723501
v 0.00087216 -0.01010000 -0.01440297
v -0.00389282 -0.01012278 -0.00723501
v 0.00248045 -0.01103472 -0.00723501
v 0.00248045 -0.01012278 -0.01590000
v 0.00087216 -0.01010000 -0.01587625
v -0.00389282 -0.01010000 -0.01440297
v -0.00389282 -0.01103472 -0.00723501
v 0.00248045 -0.01103472 -0.01590000
v 0.00087216 -0.01010046 -0.01590000
v -0.00082597 -0.01010000 -0.01590000
v -0.00389282 -0.01010000 -0.01590000
v -0.00389282 -0.01103472 -0.01589830
v -0.00389282 -0.01090662 -0.01590000
f 14 9 13
f 10 6 5
f 6 10 11
f 8 4 1
f 8 1 3
f 1 4 9
f 9 5 1
f 4 8 9
f 9 8 13
f 3 1 7
f 1 2 7
f 1 5 6
f 6 2 1
f 14 8 3
f 13 8 14
f 3 7 14
f 14 7 12
f 12 7 11
f 11 7 2
f 2 6 11
f 5 9 11
f 11 14 12
f 9 14 11
f 11 10 5

