# https://github.com/mikedh/trimesh
v -0.00055225 0.00285003 -0.01592925
v -0.00055888 0.00267641 -0.01592925
v -0.00055966 0.00266978 -0.01939966
v -0.00055498 0.00286506 -0.01939966
v -0.00057488 0.00301605 -0.01592925
v -0.00059400 0.00251254 -0.01592925
v -0.00060570 0.00247957 -0.01939966
v -0.00060570 0.00312042 -0.01939966
v -0.00062716 0.00318206 -0.01592925
v -0.00066091 0.00234477 -0.01592925
v -0.00070754 0.00226342 -0.01939966
v -0.00070754 0.00333657 -0.01939966
v -0.00070754 0.00333657 -0.01592925
v -0.00075358 0.00219729 -0.01592925
v -0.00082985 0.00211048 -0.01939966
v -0.00082985 0.00348951 -0.01939966
v -0.00081854 0.00347917 -0.01592925
v -0.00087082 0.00206854 -0.01592925
v -0.00101342 0.00195754 -0.01939966
v -0.00101342 0.00364245 -0.01939966
v -0.00094729 0.00359642 -0.01592925
v -0.00101342 0.00195754 -0.01592925
v -0.00122957 0.00185570 -0.01939966
v -0.00116793 0.00187716 -0.01592925
v -0.00122957 0.00374429 -0.01939966
v -0.00109477 0.00368908 -0.01592925
v -0.00148494 0.00180498 -0.01939966
v -0.00133394 0.00182488 -0.01592925
v -0.00148494 0.00379501 -0.01939966
v -0.00142641 0.00379111 -0.01592925
v -0.00126254 0.00375599 -0.01592925
v -0.00168021 0.00180966 -0.01939966
v -0.00149996 0.00180225 -0.01592925
v -0.00168021 0.00379033 -0.01939966
v -0.00166168 0.00379111 -0.01592925
v -0.00187042 0.00185570 -0.01939966
v -0.00167358 0.00180888 -0.01592925
v -0.00183745 0.00184400 -0.01592925
v -0.00187042 0.00374429 -0.01939966
v -0.00185032 0.00375248 -0.01592925
v -0.00208657 0.00195754 -0.01939966
v -0.00200522 0.00191091 -0.01592925
v -0.00208657 0.00364245 -0.01939966
v -0.00203819 0.00366938 -0.01592925
v -0.00227033 0.00211048 -0.01939966
v -0.00215270 0.00200358 -0.01592925
v -0.00227033 0.00348951 -0.01939966
v -0.00222917 0.00353145 -0.01592925
v -0.00239245 0.00226342 -0.01939966
v -0.00228145 0.00212082 -0.01592925
v -0.00239245 0.00333657 -0.01939966
v -0.00234642 0.00340270 -0.01592925
v -0.00247283 0.00241793 -0.01939966
v -0.00241938 0.00231180 -0.01592925
v -0.00247283 0.00318206 -0.01939966
v -0.00243908 0.00325522 -0.01592925
v -0.00251555 0.00254122 -0.01939966
v -0.00250248 0.00249967 -0.01592925
v -0.00251555 0.00305877 -0.01939966
v -0.00250599 0.00308745 -0.01592925
v -0.00254033 0.00266978 -0.01939966
v -0.00254111 0.00268831 -0.01592925
v -0.00254520 0.00286506 -0.01939966
v -0.00254111 0.00292358 -0.01592925
f 2 3 1
f 2 6 3
f 22 24 19
f 62 64 63
f 63 64 59
f 22 19 18
f 11 10 14
f 23 19 24
f 55 59 60
f 60 56 55
f 60 59 64
f 54 53 49
f 58 53 54
f 61 62 63
f 50 49 45
f 54 49 50
f 1 3 4
f 9 8 12
f 52 47 51
f 51 56 52
f 55 56 51
f 44 40 39
f 14 18 15
f 15 11 14
f 15 18 19
f 6 10 7
f 10 11 7
f 3 6 7
f 28 23 24
f 33 32 27
f 27 28 33
f 23 28 27
f 57 58 62
f 62 61 57
f 53 58 57
f 46 41 42
f 45 41 46
f 46 50 45
f 37 32 33
f 37 38 32
f 32 38 36
f 36 38 42
f 42 41 36
f 12 17 13
f 13 9 12
f 8 9 5
f 5 4 8
f 1 4 5
f 16 17 12
f 26 20 25
f 25 31 26
f 43 44 39
f 48 47 52
f 48 43 47
f 44 43 48
f 29 35 30
f 25 29 30
f 30 31 25
f 34 35 29
f 40 35 34
f 39 40 34
f 20 26 21
f 21 16 20
f 17 16 21
f 53 57 34
f 63 59 34
f 34 29 25
f 45 49 34
f 34 61 63
f 34 4 3
f 25 20 34
f 34 15 19
f 34 59 55
f 3 7 34
f 12 8 34
f 34 16 12
f 34 43 39
f 55 51 34
f 19 23 34
f 34 49 53
f 34 27 32
f 34 41 45
f 8 4 34
f 32 36 34
f 34 51 47
f 11 15 34
f 34 7 11
f 23 27 34
f 34 57 61
f 34 36 41
f 20 16 34
f 47 43 34
f 52 56 21
f 21 60 64
f 54 50 21
f 14 10 21
f 21 2 1
f 21 13 17
f 21 48 52
f 21 46 42
f 6 2 21
f 21 10 6
f 21 24 22
f 64 62 21
f 21 18 14
f 21 58 54
f 1 5 21
f 21 26 31
f 22 18 21
f 56 60 21
f 62 58 21
f 33 28 21
f 42 38 21
f 21 37 33
f 40 44 21
f 21 35 40
f 21 28 24
f 50 46 21
f 38 37 21
f 9 13 21
f 21 5 9
f 31 30 21
f 44 48 21
f 21 30 35

