# https://github.com/mikedh/trimesh
v -0.00389282 -0.00950320 0.01590000
v -0.01103296 -0.00950320 0.01590000
v -0.00389282 -0.01008265 0.01590000
v -0.00389282 -0.00950320 -0.01439851
v -0.01103296 -0.01008066 0.01590000
v -0.01103296 -0.00950320 -0.01442226
v -0.01101270 -0.01008265 0.01590000
v -0.00389282 -0.01008265 -0.01439851
v -0.00405008 -0.00950320 -0.01442226
v -0.01103296 -0.01008265 0.01587626
v -0.01103296 -0.01003868 -0.01442226
v -0.00405008 -0.01008265 -0.01442226
v -0.01103296 -0.01008265 -0.01441929
v -0.00405497 -0.01008265 -0.01442226
f 10 7 5
f 13 11 14
f 5 1 2
f 5 3 1
f 5 7 3
f 9 6 2
f 2 1 9
f 1 4 9
f 8 4 1
f 1 3 8
f 8 9 4
f 12 9 8
f 2 6 11
f 11 5 2
f 10 5 11
f 11 13 10
f 3 7 14
f 14 7 10
f 10 13 14
f 14 8 3
f 12 8 14
f 6 9 14
f 14 9 12
f 14 11 6

