# https://github.com/mikedh/trimesh
v 0.00527897 -0.00775980 0.01440725
v 0.00527897 -0.00846682 0.01440725
v 0.00527897 -0.00724932 0.01439959
v 0.00515294 -0.00764931 0.01440980
v 0.00488254 -0.00846682 0.01440980
v 0.00527897 -0.00846682 -0.01166275
v 0.00477049 -0.00724932 0.01440980
v 0.00514883 -0.00764490 0.01440980
v 0.00527897 -0.00724932 -0.01166275
v 0.00250237 -0.00846682 0.01440980
v 0.00248045 -0.00846682 -0.01166275
v 0.00256181 -0.00724932 0.01440980
v 0.00248045 -0.00724932 -0.01166275
v 0.00248045 -0.00724932 0.01440725
v 0.00248045 -0.00846682 0.01440725
f 4 2 1
f 3 4 1
f 14 15 10
f 2 4 5
f 3 7 8
f 4 3 8
f 14 10 12
f 13 9 6
f 13 6 11
f 11 15 13
f 13 15 14
f 2 6 3
f 1 2 3
f 6 9 3
f 5 6 2
f 11 6 5
f 5 15 11
f 5 10 15
f 9 13 12
f 12 13 14
f 12 3 9
f 12 7 3
f 10 5 12
f 12 5 4
f 4 8 12
f 12 8 7

