# https://github.com/mikedh/trimesh
v 0.00248045 -0.00634633 -0.01440000
v 0.00248045 -0.00109168 -0.01440000
v 0.00419796 -0.00634633 -0.01440000
v 0.00248045 -0.00634633 0.01440980
v 0.00419796 -0.00109168 -0.01440000
v 0.00248045 -0.00109168 0.01439852
v 0.00419796 -0.00634633 0.01439852
v 0.00396711 -0.00634633 0.01440980
v 0.00248045 -0.00345000 0.01440980
v 0.00419796 -0.00109168 0.01432802
v 0.00387043 -0.00109168 0.01439852
v 0.00419796 -0.00109323 0.01439852
v 0.00396980 -0.00630209 0.01440980
f 13 7 12
f 7 13 8
f 9 13 12
f 6 9 11
f 11 9 12
f 12 10 11
f 1 2 5
f 5 3 1
f 3 5 10
f 10 7 3
f 12 7 10
f 1 3 8
f 8 4 1
f 3 7 8
f 9 2 1
f 1 4 9
f 9 6 2
f 4 8 9
f 9 8 13
f 11 5 2
f 2 6 11
f 11 10 5

