# https://github.com/mikedh/trimesh
v 0.00946568 -0.00331682 0.01613290
v 0.00960747 -0.00344723 0.01613290
v 0.00692322 -0.00386918 0.01620006
v 0.00692322 -0.00331682 0.01620006
v 0.01553446 -0.00331682 0.01613290
v 0.00991919 -0.00368613 0.01613290
v 0.00692322 -0.00386918 0.01700245
v 0.01025039 -0.00389707 0.01613290
v 0.01026013 -0.00390194 0.01613290
v 0.00823071 -0.00390194 0.01620006
v 0.00692322 -0.00331682 0.01700245
v 0.01797951 -0.00331682 0.01620006
v 0.01797951 -0.00381763 0.01620006
v 0.01539159 -0.00344723 0.01613290
v 0.00823071 -0.00390194 0.01700245
v 0.01474001 -0.00390194 0.01613290
v 0.01797951 -0.00331682 0.01700245
v 0.01797951 -0.00381763 0.01700245
v 0.01676944 -0.00390194 0.01620006
v 0.01474975 -0.00389707 0.01613290
v 0.01508096 -0.00368613 0.01613290
v 0.01509503 -0.00367548 0.01613290
v 0.01676944 -0.00390194 0.01700245
f 4 1 3
f 3 9 10
f 13 19 16
f 13 5 12
f 3 1 2
f 2 6 3
f 8 9 3
f 3 6 8
f 20 13 16
f 21 13 20
f 5 13 14
f 22 13 21
f 22 14 13
f 11 4 3
f 3 7 11
f 1 4 17
f 12 5 17
f 17 5 1
f 4 11 17
f 13 17 18
f 12 17 13
f 13 18 23
f 23 19 13
f 15 11 7
f 18 17 15
f 23 18 15
f 15 17 11
f 15 9 16
f 15 19 23
f 16 19 15
f 15 10 9
f 15 7 3
f 3 10 15
f 1 5 22
f 9 8 22
f 16 9 22
f 22 2 1
f 22 20 16
f 6 2 22
f 22 8 6
f 21 20 22
f 5 14 22

