# https://github.com/mikedh/trimesh
v -0.02074663 -0.01062384 0.00660438
v -0.02074663 -0.01170515 0.00660438
v -0.02074663 -0.01062384 -0.01439916
v -0.02268588 -0.01062384 0.00660438
v -0.02216026 -0.01170515 0.00660438
v -0.02074663 -0.01170515 -0.01508491
v -0.02074663 -0.01085177 -0.01508491
v -0.02095032 -0.01062384 -0.01508491
v -0.02266956 -0.01074739 0.00660438
v -0.02268588 -0.01062384 -0.01439916
v -0.02221531 -0.01170378 0.00660438
v -0.02221398 -0.01170515 -0.01439916
v -0.02196208 -0.01170515 -0.01508491
v -0.02250175 -0.01062384 -0.01508491
v -0.02263178 -0.01091772 0.00660438
v -0.02266956 -0.01074739 -0.01439916
v -0.02223201 -0.01168557 0.00660438
v -0.02223201 -0.01168557 -0.01439916
v -0.02201542 -0.01165201 -0.01508491
v -0.02204769 -0.01170515 -0.01485987
v -0.02197879 -0.01168991 -0.01508491
v -0.02199549 -0.01170515 -0.01499999
v -0.02249302 -0.01068916 -0.01508491
v -0.02262533 -0.01093826 0.00660438
v -0.02263178 -0.01091772 -0.01439916
v -0.02248884 -0.01071552 -0.01508491
v -0.02247271 -0.01078952 -0.01508491
v -0.02230946 -0.01158457 0.00660438
v -0.02232180 -0.01156848 0.00660438
v -0.02233812 -0.01154710 -0.01439916
v -0.02214204 -0.01150221 -0.01508491
v -0.02209895 -0.01155842 -0.01508491
v -0.02209135 -0.01156763 -0.01508491
v -0.02206174 -0.01160151 -0.01508491
v -0.02198429 -0.01168440 -0.01508491
v -0.02200517 -0.01170515 -0.01497452
v -0.02257920 -0.01108414 0.00660438
v -0.02257920 -0.01108414 -0.01439916
v -0.02245619 -0.01086384 -0.01508491
v -0.02245449 -0.01087019 -0.01508491
v -0.02244310 -0.01090957 -0.01508491
v -0.02233812 -0.01154710 0.00660438
v -0.02243190 -0.01139994 -0.01439916
v -0.02224492 -0.01135389 -0.01508491
v -0.02220506 -0.01141635 -0.01508491
v -0.02218778 -0.01144187 -0.01508491
v -0.02240665 -0.01143975 0.00660438
v -0.02257104 -0.01110405 0.00660438
v -0.02251257 -0.01124517 -0.01439916
v -0.02241994 -0.01098251 -0.01508491
v -0.02240684 -0.01102137 -0.01508491
v -0.02240228 -0.01103365 -0.01508491
v -0.02241747 -0.01142270 0.00660438
v -0.02243190 -0.01139994 0.00660438
v -0.02249074 -0.01128709 0.00660438
v -0.02229674 -0.01126465 -0.01508491
v -0.02227301 -0.01130816 -0.01508491
v -0.02251257 -0.01124517 0.00660438
v -0.02237286 -0.01110437 -0.01508491
v -0.02234629 -0.01116767 -0.01508491
v -0.02233167 -0.01119732 -0.01508491
f 12 11 18
f 8 3 7
f 5 11 12
f 17 18 11
f 12 18 19
f 58 49 55
f 54 55 43
f 43 55 49
f 48 49 58
f 16 23 26
f 10 14 16
f 14 23 16
f 15 25 24
f 38 48 37
f 49 48 38
f 37 24 38
f 38 24 25
f 25 16 27
f 27 16 26
f 12 19 20
f 18 17 28
f 28 29 18
f 30 29 42
f 18 29 30
f 42 47 30
f 30 47 43
f 49 38 52
f 40 25 39
f 25 27 39
f 54 43 53
f 43 47 53
f 22 21 13
f 35 20 19
f 34 19 18
f 44 30 43
f 51 52 38
f 38 50 51
f 41 25 40
f 41 38 25
f 41 50 38
f 20 35 36
f 36 35 21
f 21 22 36
f 18 32 33
f 33 34 18
f 56 43 49
f 30 46 31
f 18 30 31
f 31 32 18
f 30 44 45
f 45 46 30
f 57 44 43
f 43 56 57
f 49 52 59
f 59 60 49
f 61 56 49
f 49 60 61
f 2 6 7
f 1 2 7
f 7 3 1
f 1 3 14
f 4 1 14
f 14 3 8
f 14 10 4
f 4 10 16
f 16 9 4
f 15 9 16
f 16 25 15
f 53 2 1
f 53 1 4
f 53 5 2
f 11 5 53
f 53 17 11
f 4 9 53
f 42 29 53
f 58 55 53
f 53 9 15
f 53 28 17
f 53 48 58
f 15 24 53
f 53 55 54
f 37 48 53
f 53 24 37
f 29 28 53
f 53 47 42
f 36 6 2
f 2 5 36
f 36 5 12
f 36 13 6
f 12 20 36
f 36 22 13
f 61 7 6
f 8 7 61
f 61 14 8
f 40 39 61
f 6 13 61
f 26 23 61
f 61 23 14
f 61 27 26
f 61 35 19
f 13 21 61
f 61 39 27
f 52 51 61
f 19 34 61
f 44 57 61
f 21 35 61
f 61 41 40
f 61 33 32
f 61 51 50
f 50 41 61
f 34 33 61
f 32 31 61
f 61 45 44
f 61 31 46
f 46 45 61
f 61 57 56
f 61 59 52
f 60 59 61

