# https://github.com/mikedh/trimesh
v -0.01975480 -0.00885208 0.01361084
v -0.01975480 -0.00752761 0.01361084
v -0.01871058 -0.00885208 0.01361084
v -0.01975480 -0.00885208 0.01546413
v -0.01871058 -0.00752761 0.01361084
v -0.01975480 -0.00752761 0.01590000
v -0.01871058 -0.00885208 0.01590000
v -0.01943484 -0.00885208 0.01590000
v -0.01975480 -0.00863929 0.01590000
v -0.01871058 -0.00752761 0.01590000
f 9 4 8
f 1 2 5
f 5 3 1
f 10 5 2
f 2 6 10
f 3 5 10
f 10 7 3
f 4 2 1
f 4 6 2
f 4 9 6
f 6 9 8
f 8 10 6
f 7 10 8
f 1 3 8
f 3 7 8
f 8 4 1

