# https://github.com/mikedh/trimesh
v 0.01291072 -0.00001771 -0.01439877
v 0.01291072 0.00114486 -0.01439877
v 0.01299937 0.00114486 -0.01440723
v 0.01368738 0.00038685 -0.01440723
v 0.01368738 -0.00001680 -0.01439877
v 0.01368738 -0.00001771 -0.01400386
v 0.01291072 -0.00001771 0.01440980
v 0.01291072 0.00114486 0.01440980
v 0.01368738 0.00114486 -0.01440723
v 0.01368738 -0.00001771 0.01440980
v 0.01368738 0.00114486 0.01440980
f 3 4 1
f 1 2 3
f 4 3 9
f 1 4 5
f 5 6 1
f 1 7 8
f 8 2 1
f 2 8 9
f 9 3 2
f 9 8 11
f 10 9 11
f 4 9 10
f 10 5 4
f 6 5 10
f 10 8 7
f 11 8 10
f 10 7 1
f 1 6 10

