# https://github.com/mikedh/trimesh
v 0.01319769 -0.00161065 0.01613282
v 0.01151194 -0.00161065 0.01613282
v 0.01319769 -0.00240113 0.01613282
v 0.01319769 -0.00161065 0.01441401
v 0.01151194 -0.00240113 0.01613282
v 0.01151194 -0.00161065 0.01440980
v 0.01319769 -0.00240113 0.01470006
v 0.01319769 -0.00226702 0.01440980
v 0.01319571 -0.00161065 0.01440980
v 0.01151194 -0.00240113 0.01470006
v 0.01151194 -0.00218593 0.01440980
v 0.01249996 -0.00239997 0.01440980
v 0.01270228 -0.00239115 0.01440980
v 0.01270904 -0.00239084 0.01440980
v 0.01291665 -0.00236352 0.01440980
v 0.01312111 -0.00231818 0.01440980
v 0.01319769 -0.00229403 0.01440980
v 0.01167284 -0.00225263 0.01440980
v 0.01167928 -0.00225519 0.01440980
v 0.01187236 -0.00231616 0.01440980
v 0.01187896 -0.00231818 0.01440980
v 0.01208326 -0.00236352 0.01440980
v 0.01229087 -0.00239084 0.01440980
f 8 9 4
f 7 10 12
f 15 7 14
f 13 7 12
f 13 14 7
f 16 17 7
f 16 7 15
f 12 10 23
f 10 22 23
f 19 20 10
f 21 22 10
f 10 20 21
f 10 11 18
f 18 19 10
f 5 3 1
f 5 1 2
f 2 1 4
f 4 6 2
f 4 9 6
f 3 5 7
f 5 10 7
f 11 5 2
f 2 6 11
f 11 10 5
f 1 3 17
f 17 4 1
f 8 4 17
f 3 7 17
f 6 9 18
f 18 9 8
f 12 23 18
f 18 11 6
f 8 17 18
f 15 14 18
f 18 13 12
f 18 16 15
f 14 13 18
f 17 16 18
f 22 21 18
f 18 23 22
f 20 19 18
f 18 21 20

