# https://github.com/mikedh/trimesh
v -0.01871058 -0.00885225 0.01590000
v -0.01943484 -0.00885225 0.01590000
v -0.01871058 -0.00926634 0.01590000
v -0.01871058 -0.00885225 -0.01590000
v -0.01975480 -0.00908356 0.01568522
v -0.01975480 -0.00909365 0.01569144
v -0.01975480 -0.00915118 0.01571946
v -0.01975480 -0.00921409 0.01574125
v -0.01975480 -0.00926419 0.01575681
v -0.01975388 -0.00926634 0.01575681
v -0.01905313 -0.00926634 0.01590000
v -0.01975480 -0.00885225 0.01546110
v -0.01975480 -0.00887435 0.01549845
v -0.01975480 -0.00890029 0.01553269
v -0.01975480 -0.00890811 0.01554203
v -0.01975480 -0.00894825 0.01558561
v -0.01975480 -0.00895923 0.01559495
v -0.01975480 -0.00899280 0.01562296
v -0.01975480 -0.00901712 0.01564164
v -0.01871058 -0.00926634 -0.01590000
v -0.01975480 -0.00885225 -0.01590000
v -0.01975480 -0.00926634 0.01575370
v -0.01975480 -0.00926634 -0.01590000
f 2 10 11
f 5 2 19
f 15 16 2
f 12 13 2
f 9 22 10
f 9 10 2
f 6 2 5
f 6 7 2
f 18 19 2
f 2 13 14
f 14 15 2
f 2 7 8
f 8 9 2
f 2 16 17
f 17 18 2
f 20 4 1
f 1 3 20
f 11 3 1
f 1 2 11
f 22 20 3
f 23 20 22
f 3 11 22
f 22 11 10
f 4 20 21
f 21 20 23
f 1 4 12
f 12 2 1
f 4 21 12
f 23 22 17
f 17 21 23
f 22 9 17
f 5 19 17
f 17 8 7
f 17 12 21
f 17 6 5
f 16 15 17
f 13 12 17
f 17 14 13
f 7 6 17
f 19 18 17
f 15 14 17
f 9 8 17

