# https://github.com/mikedh/trimesh
v -0.02046591 -0.00973614 0.01400661
v -0.01975498 -0.00973614 0.01400661
v -0.02046591 -0.00973614 0.01451377
v -0.02046591 -0.00864312 0.01400661
v -0.01975498 -0.00864312 0.01400661
v -0.01975498 -0.00973614 0.01580000
v -0.02044990 -0.00973614 0.01580000
v -0.02046577 -0.00894358 0.01577226
v -0.02045902 -0.00884364 0.01573136
v -0.02045053 -0.00874498 0.01566518
v -0.02041483 -0.00865072 0.01556459
v -0.02020409 -0.00864312 0.01547348
v -0.01975498 -0.00864312 0.01440001
v -0.01975574 -0.00959222 0.01579982
v -0.01988693 -0.00943675 0.01580000
v -0.01975498 -0.00904149 0.01565956
v -0.02042610 -0.00913340 0.01580000
v -0.02045992 -0.00904362 0.01579403
v -0.02035560 -0.00896519 0.01577156
v -0.02033068 -0.00887189 0.01573154
v -0.02030786 -0.00878682 0.01567536
v -0.02028788 -0.00871246 0.01560479
v -0.02026728 -0.00865382 0.01552422
v -0.02012558 -0.00864697 0.01542995
v -0.02005278 -0.00864312 0.01533498
v -0.02013372 -0.00869437 0.01552193
v -0.01998924 -0.00865468 0.01525194
v -0.01996669 -0.00867747 0.01532953
v -0.01983244 -0.00874734 0.01532953
v -0.01975498 -0.00879538 0.01532462
v -0.01979005 -0.00948896 0.01579737
v -0.01975665 -0.00911414 0.01570204
v -0.01976054 -0.00933349 0.01577700
v -0.01994407 -0.00934890 0.01579877
v -0.02002543 -0.00928641 0.01579877
v -0.02020290 -0.00918412 0.01579877
v -0.01975498 -0.00883262 0.01542644
v -0.01975546 -0.00888901 0.01551948
v -0.01976827 -0.00897225 0.01561497
v -0.01983118 -0.00900917 0.01567536
v -0.02038205 -0.00906374 0.01579403
v -0.02015913 -0.00909028 0.01578508
v -0.02024494 -0.00900008 0.01577156
v -0.02021195 -0.00890934 0.01573154
v -0.02018181 -0.00882652 0.01567536
v -0.02015544 -0.00875419 0.01560479
v -0.01997998 -0.00870593 0.01542925
v -0.02002724 -0.00880737 0.01560479
v -0.02000038 -0.00874969 0.01552193
v -0.01984817 -0.00877462 0.01542925
v -0.01983160 -0.00938143 0.01579403
v -0.01988171 -0.00908129 0.01573154
v -0.01978421 -0.00921814 0.01575295
v -0.01994442 -0.00917085 0.01577437
v -0.01987747 -0.00926950 0.01578508
v -0.02010547 -0.00922018 0.01579702
v -0.02028433 -0.00910825 0.01579473
v -0.01987232 -0.00881635 0.01552193
v -0.01990412 -0.00887146 0.01560479
v -0.01994261 -0.00893823 0.01567536
v -0.02003497 -0.00909809 0.01577156
v -0.02011208 -0.00898948 0.01574751
v -0.01998666 -0.00901452 0.01573154
v -0.02005981 -0.00887713 0.01567536
f 18 8 7
f 3 4 1
f 3 8 4
f 3 7 8
f 18 7 17
f 17 41 18
f 4 11 12
f 10 11 4
f 4 8 9
f 9 10 4
f 23 12 11
f 11 10 22
f 22 23 11
f 21 22 10
f 45 22 21
f 21 20 45
f 10 9 21
f 9 20 21
f 45 20 44
f 27 13 25
f 32 16 40
f 32 33 14
f 6 16 14
f 14 16 32
f 30 29 37
f 13 29 30
f 37 29 50
f 50 29 47
f 24 25 12
f 47 25 24
f 27 25 28
f 28 13 27
f 28 29 13
f 47 29 28
f 28 25 47
f 45 44 64
f 6 14 15
f 38 16 37
f 37 50 38
f 53 33 32
f 19 8 18
f 18 41 19
f 19 9 8
f 19 20 9
f 61 62 43
f 43 62 44
f 43 44 20
f 20 19 43
f 42 55 61
f 61 43 42
f 41 57 42
f 42 19 41
f 42 43 19
f 17 15 36
f 41 17 36
f 36 57 41
f 36 42 57
f 31 15 14
f 31 14 33
f 39 40 16
f 16 38 39
f 58 50 47
f 58 38 50
f 61 55 54
f 54 55 33
f 33 53 54
f 61 54 52
f 52 54 53
f 52 53 32
f 32 40 52
f 40 60 52
f 35 36 15
f 49 58 47
f 63 62 61
f 61 52 63
f 63 52 60
f 63 60 64
f 63 64 44
f 44 62 63
f 55 35 51
f 33 55 51
f 51 31 33
f 42 36 56
f 36 35 56
f 55 42 56
f 56 35 55
f 47 24 26
f 26 49 47
f 26 24 12
f 12 23 26
f 64 60 59
f 59 39 38
f 38 58 59
f 40 39 59
f 59 60 40
f 34 35 15
f 34 51 35
f 15 31 34
f 31 51 34
f 49 26 48
f 58 49 48
f 48 59 58
f 45 64 48
f 64 59 48
f 46 48 26
f 23 22 46
f 46 26 23
f 46 22 45
f 45 48 46
f 1 4 5
f 5 2 1
f 1 2 3
f 2 6 3
f 6 7 3
f 25 5 4
f 25 13 5
f 4 12 25
f 2 5 30
f 30 6 2
f 5 13 30
f 30 16 6
f 37 16 30
f 15 7 6
f 15 17 7

