# https://github.com/mikedh/trimesh
v 0.00438167 -0.00952267 -0.01590000
v 0.00438167 -0.00952267 -0.01440723
v 0.00438167 -0.00741922 -0.01590000
v 0.00494727 -0.01031535 -0.01590000
v 0.00438167 -0.00682214 -0.01440723
v 0.00494727 -0.01031535 -0.01440723
v 0.00720000 -0.00964475 -0.01590000
v 0.00720000 -0.01031535 -0.01590000
v 0.00720000 -0.00918583 -0.01440723
v 0.00720000 -0.01031535 -0.01440723
f 7 5 9
f 3 5 7
f 3 2 5
f 1 2 3
f 1 3 8
f 8 3 7
f 8 4 1
f 9 10 8
f 7 9 8
f 5 2 6
f 6 9 5
f 6 10 9
f 6 2 1
f 1 4 6
f 4 8 6
f 6 8 10

