# https://github.com/mikedh/trimesh
v -0.00214308 -0.00679590 -0.01592925
v -0.00095686 -0.00679590 -0.01592925
v -0.00262232 -0.00679590 -0.01439819
v -0.00251591 -0.00545793 -0.01592925
v -0.00058424 -0.00545793 -0.01592925
v -0.00053186 -0.00679590 -0.01439819
v -0.00262232 -0.00679590 0.01700000
v -0.00262232 -0.00061096 -0.01439819
v -0.00254988 -0.00519942 -0.01592925
v -0.00254599 -0.00528660 -0.01592925
v -0.00253167 -0.00538589 -0.01592925
v -0.00057831 -0.00543190 -0.01592925
v -0.00053186 -0.00061096 -0.01439819
v -0.00053186 -0.00679590 0.01700000
v -0.00056357 -0.00535985 -0.01592925
v -0.00055334 -0.00527328 -0.01592925
v -0.00055007 -0.00519942 -0.01592925
v -0.00262232 -0.00061096 0.01700000
v -0.00156338 -0.00180121 -0.01592925
v -0.00163684 -0.00180484 -0.01592925
v -0.00173649 -0.00181876 -0.01592925
v -0.00182120 -0.00183874 -0.01592925
v -0.00189201 -0.00186054 -0.01592925
v -0.00197242 -0.00189384 -0.01592925
v -0.00206123 -0.00194166 -0.01592925
v -0.00212344 -0.00198102 -0.01592925
v -0.00219240 -0.00203490 -0.01592925
v -0.00225706 -0.00209302 -0.01592925
v -0.00232397 -0.00216870 -0.01592925
v -0.00236899 -0.00222742 -0.01592925
v -0.00241585 -0.00230007 -0.01592925
v -0.00245616 -0.00237817 -0.01592925
v -0.00248951 -0.00245809 -0.01592925
v -0.00249770 -0.00248412 -0.01592925
v -0.00251591 -0.00254224 -0.01592925
v -0.00253474 -0.00262639 -0.01592925
v -0.00253821 -0.00265303 -0.01592925
v -0.00254640 -0.00272629 -0.01592925
v -0.00254988 -0.00280015 -0.01592925
v -0.00084309 -0.00209302 -0.01592925
v -0.00090734 -0.00203490 -0.01592925
v -0.00092842 -0.00201795 -0.01592925
v -0.00097651 -0.00198102 -0.01592925
v -0.00105017 -0.00193440 -0.01592925
v -0.00107371 -0.00192229 -0.01592925
v -0.00113980 -0.00188899 -0.01592925
v -0.00120835 -0.00186054 -0.01592925
v -0.00129143 -0.00183511 -0.01592925
v -0.00131742 -0.00182845 -0.01592925
v -0.00138985 -0.00181453 -0.01592925
v -0.00147620 -0.00180363 -0.01592925
v -0.00053186 -0.00061096 0.01700000
v -0.00055007 -0.00280015 -0.01592925
v -0.00055395 -0.00271297 -0.01592925
v -0.00056521 -0.00262639 -0.01592925
v -0.00058424 -0.00254224 -0.01592925
v -0.00061043 -0.00245809 -0.01592925
v -0.00064992 -0.00236606 -0.01592925
v -0.00069126 -0.00228917 -0.01592925
v -0.00073914 -0.00221652 -0.01592925
v -0.00078416 -0.00215840 -0.01592925
f 6 2 5
f 8 13 19
f 4 1 3
f 16 17 6
f 6 15 16
f 6 5 12
f 12 15 6
f 3 9 10
f 26 27 8
f 8 25 26
f 8 23 24
f 24 25 8
f 8 19 20
f 20 21 8
f 22 23 8
f 8 21 22
f 55 56 13
f 11 4 3
f 3 10 11
f 38 39 8
f 8 37 38
f 13 53 54
f 54 55 13
f 13 43 44
f 8 27 28
f 28 29 8
f 30 31 8
f 8 29 30
f 8 31 32
f 32 33 8
f 51 19 13
f 13 50 51
f 49 50 13
f 46 47 13
f 13 56 57
f 57 58 13
f 59 60 13
f 13 58 59
f 13 40 41
f 13 60 61
f 61 40 13
f 36 37 8
f 8 35 36
f 8 33 34
f 34 35 8
f 13 47 48
f 48 49 13
f 13 44 45
f 45 46 13
f 42 43 13
f 13 41 42
f 6 13 14
f 14 13 52
f 3 7 18
f 18 8 3
f 52 13 18
f 18 13 8
f 7 14 18
f 18 14 52
f 3 1 2
f 2 7 3
f 6 14 2
f 2 14 7
f 53 13 6
f 6 17 53
f 3 8 39
f 39 9 3
f 42 2 1
f 42 12 5
f 42 24 23
f 42 5 2
f 42 10 9
f 1 4 42
f 17 16 42
f 9 39 42
f 42 53 17
f 56 55 42
f 4 11 42
f 42 16 15
f 15 12 42
f 27 26 42
f 42 20 19
f 23 22 42
f 42 54 53
f 42 44 43
f 60 59 42
f 31 30 42
f 42 26 25
f 25 24 42
f 21 20 42
f 42 22 21
f 42 38 37
f 42 32 31
f 47 46 42
f 42 11 10
f 42 28 27
f 42 61 60
f 39 38 42
f 55 54 42
f 19 51 42
f 42 34 33
f 42 57 56
f 42 45 44
f 29 28 42
f 42 30 29
f 37 36 42
f 33 32 42
f 42 51 50
f 50 49 42
f 42 48 47
f 58 57 42
f 42 59 58
f 42 41 40
f 40 61 42
f 42 36 35
f 35 34 42
f 49 48 42
f 46 45 42

