# https://github.com/mikedh/trimesh
v -0.00343702 0.01009442 0.01316141
v -0.00343702 0.01240000 0.01316141
v 0.00248045 0.01009442 0.01316141
v -0.00343702 0.01009442 0.01590000
v -0.00343702 0.01240000 0.01440016
v 0.00248045 0.01240000 0.01316141
v 0.00248045 0.01009442 0.01590000
v -0.00343702 0.01199806 0.01590000
v 0.00248045 0.01240000 0.01440016
v 0.00248045 0.01199806 0.01590000
f 1 2 6
f 6 3 1
f 1 3 7
f 7 4 1
f 4 7 8
f 8 7 10
f 3 6 9
f 9 7 3
f 10 7 9
f 5 2 1
f 1 4 5
f 4 8 5
f 5 6 2
f 5 9 6
f 5 8 10
f 10 9 5

