# https://github.com/mikedh/trimesh
v 0.01439058 0.00147880 0.01470000
v 0.01439058 0.00147880 0.01613282
v 0.01439058 0.00240378 0.01470000
v 0.01674742 0.00147880 0.01470000
v 0.01439058 0.00240378 0.01613282
v 0.01674742 0.00147880 0.01613282
v 0.01629890 0.00240378 0.01470000
v 0.01672850 0.00153912 0.01470000
v 0.01629890 0.00240378 0.01613282
v 0.01672850 0.00153912 0.01613282
v 0.01638749 0.00226477 0.01613282
v 0.01639695 0.00224992 0.01470000
v 0.01657830 0.00190181 0.01470000
v 0.01672181 0.00155542 0.01613282
v 0.01639695 0.00224992 0.01613282
v 0.01657023 0.00191739 0.01613282
v 0.01657830 0.00190181 0.01613282
f 13 12 16
f 16 17 13
f 14 8 13
f 13 17 14
f 15 16 12
f 8 14 10
f 11 7 9
f 11 12 7
f 11 15 12
f 1 4 6
f 6 2 1
f 5 3 1
f 1 2 5
f 5 7 3
f 9 7 5
f 1 3 12
f 12 4 1
f 3 7 12
f 12 8 4
f 13 8 12
f 10 6 4
f 4 8 10
f 2 6 11
f 11 5 2
f 9 5 11
f 6 10 11
f 17 16 11
f 11 14 17
f 16 15 11
f 11 10 14

