# https://github.com/mikedh/trimesh
v -0.00148503 -0.00420480 -0.01441017
v -0.00122964 -0.00425571 -0.01441017
v -0.00142650 -0.00420889 -0.01592896
v -0.00166179 -0.00420889 -0.01592896
v -0.00168013 -0.00420967 -0.01441017
v -0.00126261 -0.00424401 -0.01592896
v -0.00101347 -0.00435754 -0.01441017
v -0.00109483 -0.00431092 -0.01592896
v -0.00185026 -0.00424752 -0.01592896
v -0.00187035 -0.00425571 -0.01441017
v -0.00086051 -0.00447966 -0.01441017
v -0.00094733 -0.00440358 -0.01592896
v -0.00203814 -0.00433062 -0.01592896
v -0.00208652 -0.00435754 -0.01441017
v -0.00070755 -0.00466342 -0.01441017
v -0.00081856 -0.00452082 -0.01592896
v -0.00222914 -0.00446854 -0.01592896
v -0.00223948 -0.00447966 -0.01441017
v -0.00062717 -0.00481792 -0.01441017
v -0.00070755 -0.00466342 -0.01592896
v -0.00234640 -0.00459729 -0.01592896
v -0.00239244 -0.00466342 -0.01441017
v -0.00062717 -0.00481792 -0.01592896
v -0.00057488 -0.00498393 -0.01441017
v -0.00243907 -0.00474477 -0.01592896
v -0.00247282 -0.00481792 -0.01441017
v -0.00057488 -0.00498393 -0.01592896
v -0.00055206 -0.00515638 -0.01441017
v -0.00055245 -0.00514994 -0.01592896
v -0.00250599 -0.00491253 -0.01592896
v -0.00251555 -0.00494121 -0.01441017
v -0.00055966 -0.00533019 -0.01441017
v -0.00055888 -0.00532356 -0.01592896
v -0.00254111 -0.00507640 -0.01592896
v -0.00254033 -0.00506977 -0.01441017
v -0.00060571 -0.00552039 -0.01441017
v -0.00059400 -0.00548743 -0.01592896
v -0.00254111 -0.00531166 -0.01592896
v -0.00254520 -0.00526504 -0.01441017
v -0.00070755 -0.00573654 -0.01441017
v -0.00066092 -0.00565519 -0.01592896
v -0.00250248 -0.00550030 -0.01592896
v -0.00249428 -0.00552039 -0.01441017
v -0.00075359 -0.00580267 -0.01592896
v -0.00082968 -0.00588948 -0.01441017
v -0.00241936 -0.00568816 -0.01592896
v -0.00239244 -0.00573654 -0.01441017
v -0.00087085 -0.00593142 -0.01592896
v -0.00101347 -0.00604242 -0.01441017
v -0.00228143 -0.00587914 -0.01592896
v -0.00227031 -0.00588948 -0.01441017
v -0.00101347 -0.00604242 -0.01592896
v -0.00122964 -0.00614425 -0.01441017
v -0.00116779 -0.00612279 -0.01592896
v -0.00215266 -0.00599638 -0.01592896
v -0.00208652 -0.00604242 -0.01441017
v -0.00148503 -0.00619497 -0.01441017
v -0.00133402 -0.00617507 -0.01592896
v -0.00200517 -0.00608904 -0.01592896
v -0.00187035 -0.00614425 -0.01441017
v -0.00168013 -0.00619029 -0.01441017
v -0.00149985 -0.00619770 -0.01592896
v -0.00183738 -0.00615595 -0.01592896
v -0.00166686 -0.00619146 -0.01592896
f 17 18 14
f 1 3 4
f 2 3 1
f 26 22 25
f 25 30 26
f 38 43 39
f 42 43 38
f 16 11 15
f 1 4 5
f 13 14 10
f 17 14 13
f 37 36 41
f 41 36 40
f 21 25 22
f 21 22 18
f 21 18 17
f 26 30 31
f 39 35 34
f 34 38 39
f 35 31 34
f 34 31 30
f 46 47 43
f 46 43 42
f 51 55 56
f 16 15 20
f 9 13 10
f 10 5 9
f 9 5 4
f 3 2 6
f 2 8 6
f 7 8 2
f 54 49 53
f 54 52 49
f 45 49 48
f 49 52 48
f 36 37 32
f 29 24 28
f 27 24 29
f 51 47 50
f 47 46 50
f 50 55 51
f 60 63 61
f 62 57 61
f 60 56 59
f 59 63 60
f 59 56 55
f 8 7 12
f 12 7 11
f 12 11 16
f 58 54 53
f 58 53 57
f 58 57 62
f 44 40 45
f 45 48 44
f 41 40 44
f 28 32 33
f 33 29 28
f 33 32 37
f 62 61 64
f 64 61 63
f 61 14 18
f 61 15 11
f 61 49 45
f 11 7 61
f 39 43 61
f 57 53 61
f 18 22 61
f 61 47 51
f 45 40 61
f 61 2 1
f 61 22 26
f 10 14 61
f 61 35 39
f 61 32 28
f 51 56 61
f 53 49 61
f 1 5 61
f 28 24 61
f 43 47 61
f 26 31 61
f 19 15 61
f 61 5 10
f 61 40 36
f 61 24 19
f 61 31 35
f 61 56 60
f 61 7 2
f 36 32 61
f 19 24 23
f 23 24 27
f 23 15 19
f 23 20 15
f 64 23 27
f 64 33 37
f 64 46 42
f 17 13 64
f 42 38 64
f 64 37 41
f 64 34 30
f 64 4 3
f 3 6 64
f 30 25 64
f 64 21 17
f 16 20 64
f 64 9 4
f 64 12 16
f 64 58 62
f 25 21 64
f 38 34 64
f 27 29 64
f 55 50 64
f 64 59 55
f 13 9 64
f 64 6 8
f 52 54 64
f 64 48 52
f 41 44 64
f 64 50 46
f 63 59 64
f 20 23 64
f 8 12 64
f 54 58 64
f 64 44 48
f 29 33 64

