# https://github.com/mikedh/trimesh
v -0.01980982 0.00999998 0.01580000
v -0.01980982 0.00968484 0.01580000
v -0.01980982 0.01010689 0.01488951
v -0.02044995 0.00999998 0.01580000
v -0.02044995 0.00968484 0.01580000
v -0.01980982 0.00968484 -0.01440000
v -0.02045227 0.01010689 0.01429828
v -0.01980982 0.01010689 -0.01440000
v -0.02045227 0.00968484 0.01456433
v -0.02045139 0.00968484 -0.01440000
v -0.02045227 0.01010689 -0.01440000
v -0.02045227 0.00968484 -0.01439113
v -0.02045227 0.00969682 -0.01440000
f 7 4 3
f 3 4 1
f 9 4 7
f 4 9 5
f 13 10 12
f 2 6 3
f 1 2 3
f 6 8 3
f 11 3 8
f 7 3 11
f 5 2 1
f 1 4 5
f 10 6 2
f 2 5 10
f 10 5 9
f 9 12 10
f 7 11 13
f 13 12 9
f 13 9 7
f 13 8 6
f 13 11 8
f 6 10 13

