# https://github.com/mikedh/trimesh
v 0.00248045 0.00650000 -0.01590000
v 0.00361968 0.00650000 -0.01590000
v 0.00248045 0.00650000 -0.01440723
v 0.00248045 0.01199797 -0.01590000
v 0.00720000 0.00918634 -0.01440723
v 0.00412046 0.00650000 -0.01440723
v 0.00720000 0.00964475 -0.01590000
v 0.00248045 0.01239749 -0.01440723
v 0.00248045 0.01219022 -0.01518284
v 0.00367096 0.01228202 -0.01590000
v 0.00720000 0.01239749 -0.01440723
v 0.00720000 0.01199797 -0.01590000
v 0.00420039 0.01234957 -0.01590000
v 0.00402206 0.01234206 -0.01590000
v 0.00384513 0.01231955 -0.01590000
v 0.00248045 0.01234091 -0.01462057
v 0.00437825 0.01234206 -0.01590000
f 5 6 2
f 2 7 5
f 8 11 13
f 17 11 12
f 17 13 11
f 8 15 10
f 8 13 14
f 14 15 8
f 8 10 16
f 9 10 4
f 9 16 10
f 8 3 11
f 11 6 5
f 3 6 11
f 11 7 12
f 5 7 11
f 2 6 3
f 2 3 1
f 1 4 14
f 14 2 1
f 12 7 14
f 7 2 14
f 14 17 12
f 4 10 14
f 13 17 14
f 14 10 15
f 9 3 8
f 1 3 9
f 9 4 1
f 8 16 9

