# https://github.com/mikedh/trimesh
v 0.02193202 -0.00331682 0.01700245
v 0.02192118 -0.00335030 0.01700245
v 0.02189681 -0.00342027 0.01620000
v 0.02192931 -0.00331682 0.01620000
v 0.01797990 -0.00331682 0.01700245
v 0.02189681 -0.00342027 0.01700245
v 0.02178964 -0.00367905 0.01700245
v 0.02156292 -0.00422617 0.01620000
v 0.01797990 -0.00331682 0.01620000
v 0.01797990 -0.00381764 0.01700245
v 0.02156292 -0.00422617 0.01700245
v 0.02143370 -0.00447455 0.01700245
v 0.02123445 -0.00485729 0.01620000
v 0.01797990 -0.00381764 0.01620000
v 0.01869604 -0.00485729 0.01700245
v 0.02123445 -0.00485729 0.01700245
v 0.01869604 -0.00485729 0.01620000
f 1 3 4
f 13 8 12
f 12 16 13
f 11 12 8
f 7 8 3
f 7 11 8
f 6 7 3
f 2 3 1
f 2 6 3
f 5 1 9
f 1 4 9
f 14 10 5
f 5 9 14
f 17 4 3
f 17 8 13
f 3 8 17
f 17 9 4
f 17 14 9
f 17 16 15
f 13 16 17
f 15 10 17
f 10 14 17
f 5 10 2
f 2 1 5
f 2 10 15
f 15 16 2
f 16 12 2
f 12 11 2
f 11 7 2
f 7 6 2

