# https://github.com/mikedh/trimesh
v -0.01579701 0.01035581 0.01317269
v -0.01579701 0.01240000 0.01317269
v -0.01531571 0.01035581 0.01317269
v -0.01579701 0.01035581 0.01440004
v -0.01531571 0.01240000 0.01317269
v -0.01579701 0.01240000 0.01440004
v -0.01531571 0.01035581 0.01590000
v -0.01575814 0.01035581 0.01590000
v -0.01579701 0.01051089 0.01590000
v -0.01531571 0.01240000 0.01440004
v -0.01579701 0.01222852 0.01590000
v -0.01531571 0.01199801 0.01590000
v -0.01563493 0.01216349 0.01590000
v -0.01547581 0.01208325 0.01590000
v -0.01531571 0.01239260 0.01442781
f 4 8 9
f 10 6 11
f 13 10 11
f 10 13 14
f 15 14 12
f 10 14 15
f 1 2 5
f 5 3 1
f 1 3 4
f 3 7 4
f 7 8 4
f 6 2 1
f 1 4 6
f 6 4 9
f 9 11 6
f 10 5 2
f 2 6 10
f 14 8 7
f 9 8 14
f 7 12 14
f 14 11 9
f 14 13 11
f 3 5 15
f 15 7 3
f 15 12 7
f 5 10 15

