# https://github.com/mikedh/trimesh
v -0.00393121 -0.00679800 0.01700000
v -0.00401232 -0.00679593 0.01700000
v -0.00393121 -0.00699172 0.01700000
v -0.00393121 -0.00679593 0.01699355
v -0.00420142 -0.00679810 0.01700000
v -0.00444174 -0.00679593 0.00957351
v -0.00444174 -0.00679805 0.01699678
v -0.00420142 -0.00699997 0.01700000
v -0.00393121 -0.00699997 0.01699678
v -0.00393121 -0.00679593 -0.01439819
v -0.00444174 -0.00679593 -0.01434661
v -0.00444174 -0.00699997 0.01699678
v -0.00420142 -0.00703674 0.01589763
v -0.00393121 -0.00703674 0.01589763
v -0.00393121 -0.00703674 -0.01439819
v -0.00405005 -0.00679593 -0.01589702
v -0.00444129 -0.00703674 -0.01434661
v -0.00444174 -0.00703674 -0.01434339
v -0.00420142 -0.00679593 -0.01592925
v -0.00420142 -0.00703674 -0.01592925
v -0.00444174 -0.00703625 0.01589763
v -0.00444174 -0.00703674 0.01587507
v -0.00405005 -0.00703674 -0.01589702
v -0.00408658 -0.00703674 -0.01591958
v -0.00410447 -0.00679593 -0.01592925
v -0.00410447 -0.00703674 -0.01592925
f 6 7 2
f 4 2 1
f 5 2 7
f 13 8 12
f 20 11 19
f 14 8 13
f 21 22 13
f 13 12 21
f 18 11 17
f 11 20 17
f 8 14 9
f 8 9 3
f 24 25 16
f 24 16 23
f 24 26 25
f 8 5 12
f 12 5 7
f 6 11 21
f 21 7 6
f 21 11 18
f 18 22 21
f 21 12 7
f 25 4 10
f 25 11 6
f 19 11 25
f 6 2 25
f 2 4 25
f 10 16 25
f 15 16 10
f 23 16 15
f 19 25 26
f 26 20 19
f 2 5 3
f 1 2 3
f 3 5 8
f 10 4 3
f 3 4 1
f 14 15 3
f 3 9 14
f 3 15 10
f 24 22 18
f 13 22 24
f 24 14 13
f 23 15 24
f 18 17 24
f 24 17 20
f 24 15 14
f 20 26 24

