# https://github.com/mikedh/trimesh
v -0.01876372 0.01049292 -0.01590000
v -0.01876372 0.01199805 -0.01590000
v -0.01766047 0.01049292 -0.01590000
v -0.01876372 0.01049292 0.01439965
v -0.01766047 0.01199805 -0.01590000
v -0.01876372 0.01219986 -0.01514671
v -0.01766047 0.01049292 0.01590000
v -0.01869990 0.01049292 0.01590000
v -0.01876372 0.01240000 0.01439965
v -0.01766047 0.01240000 -0.01439965
v -0.01876372 0.01240000 -0.01439965
v -0.01766047 0.01199991 0.01590000
v -0.01869990 0.01199805 0.01590000
v -0.01766047 0.01240000 0.01439965
f 12 14 9
f 13 12 9
f 6 11 10
f 10 5 6
f 5 2 6
f 1 3 8
f 3 7 8
f 8 4 1
f 14 10 11
f 9 14 11
f 4 8 13
f 9 4 13
f 7 12 13
f 13 8 7
f 14 12 5
f 5 7 3
f 5 12 7
f 5 10 14
f 2 3 1
f 2 5 3
f 1 4 6
f 6 4 9
f 9 11 6
f 6 2 1

