# https://github.com/mikedh/trimesh
v 0.00250000 -0.00000028 0.01700245
v 0.00253824 -0.00087226 0.01700245
v 0.00250000 -0.00000028 0.01869984
v 0.00251222 0.00027969 0.01700245
v 0.00261550 -0.00145857 0.01700245
v 0.00253824 -0.00087226 0.01869984
v 0.00253824 0.00087098 0.01869984
v 0.00253824 0.00087098 0.01700245
v 0.00265215 -0.00173641 0.01700245
v 0.00265215 -0.00173641 0.01869984
v 0.00265215 0.00173584 0.01869984
v 0.00265215 0.00173584 0.01700245
v 0.00278026 -0.00231416 0.01700245
v 0.00284097 -0.00258773 0.01869984
v 0.00284097 0.00258787 0.01869984
v 0.00284097 0.00258787 0.01700245
v 0.00284097 -0.00258773 0.01700245
v 0.00290049 -0.00278506 0.01700245
v 0.00302663 -0.00320182 0.01869984
v 0.00288157 0.00271682 0.01869984
v 0.00288157 0.00271682 0.01700245
v 0.00307866 -0.00335000 0.01700245
v 0.00310310 -0.00341981 0.01700245
v 0.00310310 -0.00341981 0.01869984
v 0.00652698 0.00271682 0.01869984
v 0.00652698 0.00271682 0.01700245
v 0.00343697 -0.00422554 0.01700245
v 0.00343697 -0.00422554 0.01869984
v 0.00652698 -0.00423124 0.01869984
v 0.00652698 -0.00423124 0.01700245
v 0.00361160 -0.00456108 0.01700245
v 0.00361160 -0.00456108 0.01869984
v 0.00636300 -0.00456108 0.01869984
v 0.00636300 -0.00456108 0.01700245
f 10 6 5
f 5 6 2
f 14 10 13
f 13 17 14
f 22 19 18
f 18 19 14
f 14 17 18
f 9 10 5
f 9 13 10
f 3 7 4
f 1 3 4
f 7 8 4
f 23 24 19
f 23 19 22
f 29 30 26
f 29 26 25
f 33 32 34
f 34 32 31
f 34 29 33
f 30 29 34
f 21 20 25
f 25 26 21
f 2 6 3
f 2 3 1
f 20 21 15
f 21 16 15
f 11 15 12
f 12 15 16
f 31 32 28
f 28 27 31
f 8 7 11
f 11 12 8
f 3 6 24
f 24 32 33
f 25 20 24
f 24 29 25
f 24 10 14
f 33 29 24
f 14 19 24
f 24 7 3
f 11 7 24
f 6 10 24
f 20 15 24
f 24 15 11
f 24 28 32
f 23 34 31
f 31 27 23
f 26 30 23
f 22 18 23
f 30 34 23
f 23 21 26
f 23 2 1
f 23 16 21
f 5 2 23
f 23 9 5
f 1 4 23
f 23 12 16
f 17 13 23
f 23 18 17
f 23 8 12
f 13 9 23
f 23 4 8
f 27 28 23
f 28 24 23

