# https://github.com/mikedh/trimesh
v -0.02160117 0.00700955 0.01545419
v -0.02094479 0.00700955 0.01545419
v -0.02160117 0.00700955 0.01590000
v -0.02160117 0.00839996 0.01545419
v -0.02094479 0.00700955 0.01590000
v -0.02094479 0.00874973 0.01545419
v -0.02160117 0.00839996 0.01590000
v -0.02148237 0.00874973 0.01545419
v -0.02094479 0.00839996 0.01590000
v -0.02094479 0.00874973 0.01567118
v -0.02142204 0.00874973 0.01550634
v -0.02143071 0.00874973 0.01550001
v -0.02146251 0.00874973 0.01547182
v -0.02096451 0.00874973 0.01566917
v -0.02098796 0.00874973 0.01566529
v -0.02102189 0.00874973 0.01565966
v -0.02110201 0.00874973 0.01564377
v -0.02117255 0.00874973 0.01562431
v -0.02124606 0.00874973 0.01560017
v -0.02126719 0.00874973 0.01559131
v -0.02128056 0.00874973 0.01558568
v -0.02132161 0.00874973 0.01556521
v -0.02136376 0.00874973 0.01554418
v -0.02139948 0.00874973 0.01552266
f 4 7 8
f 7 9 10
f 23 24 7
f 8 7 13
f 7 12 13
f 7 24 11
f 11 12 7
f 18 19 7
f 7 17 18
f 16 17 7
f 7 19 20
f 20 21 7
f 22 23 7
f 7 21 22
f 7 10 14
f 15 16 7
f 7 14 15
f 5 3 1
f 1 2 5
f 4 2 1
f 4 6 2
f 4 8 6
f 1 3 4
f 3 7 4
f 3 5 9
f 9 7 3
f 10 5 2
f 2 6 10
f 10 9 5
f 6 8 15
f 15 10 6
f 23 22 15
f 15 11 24
f 8 13 15
f 24 23 15
f 19 18 15
f 15 13 12
f 12 11 15
f 15 20 19
f 15 18 17
f 17 16 15
f 21 20 15
f 15 22 21
f 15 14 10

