# https://github.com/mikedh/trimesh
v -0.01871058 -0.00926634 0.01590000
v -0.01905313 -0.00926634 0.01590000
v -0.01871058 -0.00964274 0.01590000
v -0.01871058 -0.00926634 -0.01590000
v -0.01975480 -0.00950854 0.01579728
v -0.01975480 -0.00964274 0.01579728
v -0.01885093 -0.00964274 0.01590000
v -0.01975388 -0.00926634 0.01575681
v -0.01975480 -0.00927964 0.01576304
v -0.01975480 -0.00930492 0.01576926
v -0.01975480 -0.00935117 0.01577860
v -0.01975480 -0.00939538 0.01578483
v -0.01871058 -0.00964274 -0.01590000
v -0.01975480 -0.00926634 -0.01590000
v -0.01975480 -0.00964274 -0.01590000
v -0.01975480 -0.00926634 0.01575370
f 6 2 5
f 2 6 7
f 5 2 12
f 2 11 12
f 16 9 8
f 8 9 2
f 10 11 2
f 2 9 10
f 13 4 1
f 1 3 13
f 4 13 14
f 14 13 15
f 7 13 3
f 15 13 7
f 7 6 15
f 7 3 1
f 1 2 7
f 1 4 8
f 8 2 1
f 4 14 8
f 14 16 8
f 15 6 10
f 10 6 5
f 10 14 15
f 10 16 14
f 10 9 16
f 5 12 10
f 10 12 11

