# https://github.com/mikedh/trimesh
v -0.01910170 0.01025001 0.01559623
v -0.01910170 0.01023176 0.01559623
v -0.01910170 0.01038984 0.01559003
v -0.01912575 0.01025001 0.01562416
v -0.01912658 0.01023176 0.01562416
v -0.01910170 0.01023176 -0.01590000
v -0.01910170 0.01042925 0.01558382
v -0.01910842 0.01046171 0.01558692
v -0.01914156 0.01046171 0.01562416
v -0.01913178 0.01038720 0.01562416
v -0.01917018 0.01038383 0.01565829
v -0.01916436 0.01025001 0.01565829
v -0.01916519 0.01023176 0.01565829
v -0.01955079 0.01023176 -0.01590000
v -0.01910170 0.01046171 -0.01590000
v -0.01910170 0.01046171 0.01557762
v -0.01910593 0.01046171 0.01558382
v -0.01915875 0.01046171 0.01563967
v -0.01918044 0.01046171 0.01565829
v -0.01921156 0.01038020 0.01568932
v -0.01921309 0.01023176 0.01569552
v -0.01958108 0.01046171 -0.01590000
v -0.01980975 0.01023176 -0.01439826
v -0.01922231 0.01046171 0.01568932
v -0.01928129 0.01046171 0.01572655
v -0.01925558 0.01037636 0.01571724
v -0.01925003 0.01025001 0.01571724
v -0.01925087 0.01023176 0.01571724
v -0.01980975 0.01046171 -0.01439826
v -0.01980975 0.01023176 0.01488880
v -0.01930181 0.01037233 0.01574206
v -0.01932600 0.01046171 0.01574827
v -0.01929647 0.01025001 0.01574206
v -0.01929724 0.01023176 0.01574206
v -0.01980975 0.01046171 0.01488880
v -0.01949998 0.01023176 0.01579481
v -0.01949998 0.01025001 0.01579791
v -0.01934999 0.01036809 0.01576378
v -0.01936232 0.01046171 0.01576378
v -0.01934486 0.01025001 0.01576378
v -0.01934562 0.01023176 0.01576378
v -0.01949998 0.01046171 0.01579481
v -0.01945507 0.01023176 0.01579171
v -0.01941258 0.01046171 0.01577930
v -0.01939968 0.01036375 0.01577930
v -0.01939476 0.01025001 0.01577930
v -0.01939553 0.01023176 0.01577930
v -0.01945063 0.01035929 0.01578860
v -0.01946401 0.01046171 0.01578860
f 23 22 14
f 29 22 23
f 30 37 35
f 36 37 30
f 8 3 7
f 42 35 37
f 17 7 16
f 8 7 17
f 1 3 4
f 3 10 4
f 4 2 1
f 4 10 11
f 33 34 27
f 20 21 11
f 11 19 20
f 37 36 43
f 43 47 46
f 43 42 37
f 41 34 33
f 46 47 41
f 2 4 5
f 11 21 12
f 12 4 11
f 9 3 8
f 9 10 3
f 28 27 34
f 21 27 28
f 26 20 25
f 26 27 21
f 21 20 26
f 25 20 24
f 24 20 19
f 46 41 40
f 33 38 40
f 40 41 33
f 13 12 21
f 11 10 18
f 10 9 18
f 18 19 11
f 32 39 38
f 38 39 44
f 33 27 31
f 27 26 31
f 31 38 33
f 31 26 25
f 25 32 31
f 31 32 38
f 42 43 48
f 42 48 49
f 45 48 43
f 45 43 46
f 44 49 45
f 45 49 48
f 38 44 45
f 46 40 45
f 45 40 38
f 6 14 15
f 15 14 22
f 23 30 35
f 35 29 23
f 7 2 6
f 1 2 7
f 7 3 1
f 6 15 7
f 7 15 16
f 23 14 13
f 13 30 23
f 13 14 6
f 6 2 13
f 13 36 30
f 34 41 13
f 2 5 13
f 13 43 36
f 47 43 13
f 13 41 47
f 13 28 34
f 21 28 13
f 13 5 4
f 4 12 13
f 16 15 49
f 8 17 49
f 22 29 49
f 49 15 22
f 29 35 49
f 35 42 49
f 49 17 16
f 49 9 8
f 49 32 25
f 25 24 49
f 19 18 49
f 49 24 19
f 49 18 9
f 39 32 49
f 49 44 39

