# https://github.com/mikedh/trimesh
v 0.00527924 -0.00857567 0.01440980
v 0.00527924 -0.00891139 0.01440980
v 0.00527924 -0.00846694 0.01440698
v 0.00488251 -0.00846694 0.01440980
v 0.00348428 -0.00891139 0.01440980
v 0.00527924 -0.00891139 -0.01440723
v 0.00527924 -0.00846694 -0.01440723
v 0.00348428 -0.00846694 0.01440980
v 0.00348428 -0.00891139 -0.01440723
v 0.00348428 -0.00846694 -0.01440723
f 1 3 4
f 9 2 5
f 9 6 2
f 5 8 9
f 9 8 10
f 6 9 7
f 7 9 10
f 1 2 3
f 2 6 3
f 6 7 3
f 4 2 1
f 5 2 4
f 4 8 5
f 10 8 4
f 4 7 10
f 4 3 7

