# https://github.com/mikedh/trimesh
v 0.00562596 0.01030458 -0.01440723
v 0.00562596 0.01030458 -0.01590000
v 0.00494764 0.01030458 -0.01440723
v 0.00562596 0.00806981 -0.01440723
v 0.00494764 0.01030458 -0.01590000
v 0.00562596 0.00858521 -0.01590000
v 0.00438140 0.00952261 -0.01440723
v 0.00438140 0.00682255 -0.01440723
v 0.00438140 0.00952261 -0.01590000
v 0.00438140 0.00741908 -0.01590000
f 6 4 8
f 8 10 6
f 7 9 10
f 10 8 7
f 3 4 1
f 7 8 3
f 8 4 3
f 1 4 6
f 6 2 1
f 5 10 9
f 2 6 5
f 5 6 10
f 5 3 1
f 1 2 5
f 5 9 7
f 7 3 5

