# https://github.com/mikedh/trimesh
v 0.01014507 0.00382983 0.01613290
v 0.00810344 0.00382983 0.01620006
v 0.00874468 0.00458302 0.01620006
v 0.01025008 0.00389715 0.01613290
v 0.01485493 0.00382983 0.01613290
v 0.00810344 0.00382983 0.01700245
v 0.01250000 0.00450000 0.01613290
v 0.01210837 0.00448282 0.01613290
v 0.01171933 0.00443157 0.01613290
v 0.01170211 0.00442781 0.01613290
v 0.01133545 0.00434663 0.01613290
v 0.01096103 0.00422858 0.01613290
v 0.01094468 0.00422187 0.01613290
v 0.01059867 0.00407839 0.01613290
v 0.00874468 0.00458302 0.01700245
v 0.01625532 0.00458302 0.01620006
v 0.01474992 0.00389715 0.01613290
v 0.01689570 0.00382983 0.01620006
v 0.01689570 0.00382983 0.01700245
v 0.01287441 0.00448363 0.01613290
v 0.01625532 0.00458302 0.01700245
v 0.01440133 0.00407839 0.01613290
v 0.01438498 0.00408517 0.01613290
v 0.01403897 0.00422858 0.01613290
v 0.01366456 0.00434663 0.01613290
v 0.01364734 0.00435046 0.01613290
v 0.01328067 0.00443157 0.01613290
v 0.01326346 0.00443386 0.01613290
v 0.01289163 0.00448282 0.01613290
f 2 3 1
f 5 16 18
f 3 16 7
f 3 7 8
f 4 1 3
f 3 14 4
f 3 11 12
f 3 8 9
f 16 5 17
f 17 22 16
f 24 25 16
f 16 28 29
f 27 28 16
f 13 14 3
f 3 12 13
f 10 11 3
f 3 9 10
f 16 22 23
f 23 24 16
f 20 7 16
f 16 29 20
f 16 25 26
f 26 27 16
f 18 16 19
f 19 16 21
f 2 6 15
f 15 3 2
f 21 16 15
f 15 16 3
f 6 19 15
f 15 19 21
f 2 1 5
f 5 6 2
f 18 19 5
f 5 19 6
f 26 5 1
f 26 8 7
f 25 24 26
f 14 13 26
f 1 4 26
f 26 12 11
f 26 17 5
f 26 23 22
f 26 4 14
f 7 20 26
f 26 9 8
f 22 17 26
f 11 10 26
f 26 29 28
f 28 27 26
f 26 13 12
f 26 10 9
f 24 23 26
f 26 20 29

