# https://github.com/mikedh/trimesh
v 0.01689548 0.00382983 0.01700236
v 0.01799385 0.00382494 0.01700236
v 0.01689548 0.00382983 0.01620014
v 0.00810534 0.00382983 0.01700236
v 0.01799385 -0.00331682 0.01700236
v 0.01799385 0.00382494 0.01620014
v 0.01485474 0.00382983 0.01613290
v 0.00810534 0.00382983 0.01620014
v 0.00700482 0.00382564 0.01700236
v 0.01799385 -0.00331682 0.01620014
v 0.00700482 -0.00331682 0.01700236
v 0.01699875 0.00000047 0.01613290
v 0.01698047 0.00039992 0.01613290
v 0.01692883 0.00078887 0.01613290
v 0.01684492 0.00116383 0.01613290
v 0.01672766 0.00153879 0.01613290
v 0.01657705 0.00190046 0.01613290
v 0.01639094 0.00225654 0.01613290
v 0.01618440 0.00257973 0.01613290
v 0.01594557 0.00289173 0.01613290
v 0.01567448 0.00318694 0.01613290
v 0.01539155 0.00344718 0.01613290
v 0.01507958 0.00368503 0.01613290
v 0.01506452 0.00369552 0.01613290
v 0.01014608 0.00382983 0.01613290
v 0.00700482 0.00382564 0.01620014
v 0.01553355 -0.00331682 0.01613290
v 0.01568093 -0.00318180 0.01613290
v 0.01594557 -0.00289219 0.01613290
v 0.01595633 -0.00287820 0.01613290
v 0.01618977 -0.00257319 0.01613290
v 0.01639525 -0.00225000 0.01613290
v 0.01640385 -0.00223391 0.01613290
v 0.01657705 -0.00190162 0.01613290
v 0.01672766 -0.00153855 0.01613290
v 0.01684707 -0.00115589 0.01613290
v 0.01692991 -0.00078093 0.01613290
v 0.01698262 -0.00038288 0.01613290
v 0.00700482 -0.00331682 0.01620014
v 0.00991264 0.00368013 0.01613290
v 0.00960927 0.00344718 0.01613290
v 0.00931343 0.00317505 0.01613290
v 0.00905417 0.00289173 0.01613290
v 0.00904341 0.00287844 0.01613290
v 0.00880997 0.00257273 0.01613290
v 0.00860019 0.00224115 0.01613290
v 0.00842269 0.00190046 0.01613290
v 0.00826993 0.00153040 0.01613290
v 0.00815482 0.00116383 0.01613290
v 0.00815052 0.00114634 0.01613290
v 0.00806984 0.00078048 0.01613290
v 0.00801820 0.00039082 0.01613290
v 0.00800099 0.00000047 0.01613290
v 0.00946619 -0.00331682 0.01613290
v 0.00801820 -0.00039198 0.01613290
v 0.00806984 -0.00078093 0.01613290
v 0.00815482 -0.00116429 0.01613290
v 0.00827639 -0.00154624 0.01613290
v 0.00842269 -0.00190162 0.01613290
v 0.00860450 -0.00225000 0.01613290
v 0.00881535 -0.00258089 0.01613290
v 0.00905417 -0.00289219 0.01613290
v 0.00906600 -0.00290548 0.01613290
v 0.00931989 -0.00318180 0.01613290
f 3 6 7
f 39 26 53
f 26 8 25
f 6 10 12
f 6 22 23
f 6 20 21
f 21 22 6
f 7 6 24
f 6 23 24
f 52 53 26
f 26 46 47
f 41 42 26
f 19 20 6
f 6 18 19
f 6 16 17
f 17 18 6
f 6 12 13
f 13 14 6
f 15 16 6
f 6 14 15
f 10 31 32
f 38 12 10
f 10 34 35
f 35 36 10
f 51 52 26
f 48 49 26
f 26 47 48
f 26 25 40
f 40 41 26
f 45 46 26
f 26 44 45
f 26 42 43
f 43 44 26
f 39 61 62
f 39 59 60
f 60 61 39
f 39 53 55
f 58 59 39
f 39 57 58
f 10 27 28
f 28 29 10
f 30 31 10
f 10 29 30
f 33 34 10
f 10 32 33
f 10 36 37
f 37 38 10
f 26 49 50
f 50 51 26
f 64 54 39
f 56 57 39
f 39 55 56
f 39 62 63
f 63 64 39
f 26 11 9
f 39 11 26
f 4 5 2
f 9 11 4
f 2 1 4
f 4 11 5
f 3 1 2
f 2 6 3
f 2 5 10
f 10 6 2
f 8 26 9
f 9 4 8
f 25 4 1
f 25 3 7
f 1 3 25
f 25 8 4
f 5 11 54
f 54 11 39
f 54 10 5
f 54 27 10
f 63 25 7
f 27 54 63
f 63 17 16
f 63 21 20
f 63 43 42
f 31 30 63
f 7 24 63
f 63 47 46
f 63 60 59
f 16 15 63
f 63 23 22
f 22 21 63
f 53 52 63
f 49 48 63
f 63 40 25
f 20 19 63
f 63 13 12
f 59 58 63
f 12 38 63
f 63 24 23
f 63 35 34
f 63 37 36
f 42 41 63
f 46 45 63
f 63 50 49
f 63 55 53
f 63 19 18
f 18 17 63
f 14 13 63
f 63 15 14
f 63 28 27
f 63 32 31
f 34 33 63
f 36 35 63
f 52 51 63
f 63 48 47
f 41 40 63
f 63 45 44
f 44 43 63
f 63 62 61
f 61 60 63
f 54 64 63
f 63 58 57
f 29 28 63
f 63 30 29
f 63 33 32
f 38 37 63
f 51 50 63
f 57 56 63
f 63 56 55

