# https://github.com/mikedh/trimesh
v 0.00191961 -0.00313194 -0.01440000
v 0.00191961 -0.00164365 -0.01440000
v 0.00248045 -0.00313194 -0.01440000
v 0.00191961 -0.00313194 0.01441916
v 0.00248045 -0.00164365 -0.01440000
v 0.00191961 -0.00164365 0.01441916
v 0.00248045 -0.00313194 0.01439941
v 0.00235834 -0.00313194 0.01441916
v 0.00248045 -0.00164365 0.01439941
v 0.00202826 -0.00164365 0.01441916
v 0.00236499 -0.00312975 0.01441916
f 11 7 9
f 7 11 8
f 10 11 9
f 1 2 5
f 5 3 1
f 3 5 7
f 7 5 9
f 6 2 1
f 1 4 6
f 1 3 8
f 8 4 1
f 3 7 8
f 10 5 2
f 9 5 10
f 2 6 10
f 10 6 4
f 4 8 10
f 10 8 11

