# https://github.com/mikedh/trimesh
v -0.02164021 -0.00960507 -0.01572701
v -0.02195410 -0.00960507 -0.01567035
v -0.02164021 -0.00960496 -0.01574193
v -0.02164021 -0.00960507 0.01456964
v -0.02195410 -0.00960292 -0.01590000
v -0.02195410 -0.00960507 0.01456964
v -0.02164021 -0.00960239 -0.01590000
v -0.02164021 -0.00877610 0.01456964
v -0.02195410 -0.00850876 -0.01590000
v -0.02195410 -0.00903078 0.01456964
v -0.02164021 -0.00850876 -0.01590000
v -0.02164593 -0.00850876 0.01439964
v -0.02195410 -0.00851005 0.01439964
v -0.02167647 -0.00879918 0.01456964
v -0.02164021 -0.00851037 0.01439964
v -0.02195410 -0.00850876 0.01394033
v -0.02193742 -0.00901265 0.01456964
v -0.02164021 -0.00850876 0.01414314
v -0.02191355 -0.00899075 0.01456964
v -0.02182487 -0.00890951 0.01456964
v -0.02179919 -0.00888976 0.01456964
v -0.02170379 -0.00881657 0.01456964
f 5 7 3
f 2 5 3
f 3 1 2
f 16 13 12
f 12 15 18
f 8 15 12
f 12 13 8
f 17 13 10
f 19 20 13
f 13 17 19
f 14 8 13
f 13 22 14
f 13 20 21
f 21 22 13
f 2 1 6
f 1 4 6
f 7 5 9
f 9 11 7
f 2 6 16
f 16 5 2
f 9 5 16
f 16 6 10
f 10 13 16
f 18 11 9
f 9 16 18
f 18 16 12
f 8 4 1
f 1 3 8
f 8 7 11
f 8 3 7
f 11 18 8
f 8 18 15
f 10 6 21
f 21 6 4
f 4 8 21
f 21 17 10
f 20 19 21
f 8 14 21
f 21 19 17
f 21 14 22

