# https://github.com/mikedh/trimesh
v -0.00404237 -0.00752748 0.01590000
v -0.01428572 -0.00752748 0.01590000
v -0.00404237 -0.00950320 0.01590000
v -0.00404237 -0.00752748 -0.01439637
v -0.01428572 -0.00950320 0.01590000
v -0.01428572 -0.00752748 -0.01592925
v -0.00404237 -0.00950320 -0.01439948
v -0.00404237 -0.00752845 -0.01439948
v -0.00405040 -0.00752748 -0.01589810
v -0.01428572 -0.00950320 -0.01589810
v -0.00410454 -0.00752748 -0.01592925
v -0.01428572 -0.00919996 -0.01592925
v -0.00405040 -0.00950320 -0.01589810
v -0.00410454 -0.00919996 -0.01592925
f 4 8 9
f 5 3 1
f 5 1 2
f 2 1 11
f 11 6 2
f 1 4 11
f 11 4 9
f 12 5 2
f 2 6 12
f 12 10 5
f 6 11 12
f 12 11 14
f 10 12 13
f 13 12 14
f 13 11 9
f 14 11 13
f 1 3 7
f 7 4 1
f 8 4 7
f 3 5 7
f 5 10 7
f 10 13 7
f 7 13 9
f 9 8 7

