# https://github.com/mikedh/trimesh
v 0.01009438 -0.00329042 0.01302823
v 0.01009438 -0.00329042 0.01440000
v 0.01009438 -0.00246893 0.01302823
v 0.01221963 -0.00329042 0.01302823
v 0.01009438 -0.00246893 0.01440000
v 0.01221963 -0.00329042 0.01440000
v 0.01221963 -0.00246893 0.01302823
v 0.01220340 -0.00246893 0.01440000
v 0.01221963 -0.00246989 0.01440000
v 0.01221963 -0.00246893 0.01420476
f 10 8 9
f 1 3 7
f 7 4 1
f 1 4 6
f 6 2 1
f 5 3 1
f 1 2 5
f 2 6 8
f 8 6 9
f 8 5 2
f 4 7 10
f 10 6 4
f 9 6 10
f 10 7 3
f 3 5 10
f 5 8 10

