# https://github.com/mikedh/trimesh
v -0.02003996 0.01049813 -0.01439816
v -0.02003996 0.01084760 -0.01439816
v -0.01984802 0.01084760 -0.01590000
v -0.01980978 0.01081705 -0.01590000
v -0.01980978 0.01049813 -0.01439816
v -0.02003996 0.01049813 0.01459605
v -0.02003996 0.01084760 0.01580000
v -0.01980978 0.01084760 -0.01590000
v -0.01980978 0.01049813 0.01488773
v -0.02003996 0.01050001 0.01580000
v -0.01980978 0.01084760 0.01580000
v -0.01980978 0.01050001 0.01580000
f 3 4 1
f 1 2 3
f 1 4 5
f 12 10 9
f 4 3 8
f 6 9 10
f 7 10 11
f 11 10 12
f 12 9 8
f 8 5 4
f 8 11 12
f 8 9 5
f 2 7 8
f 7 11 8
f 8 3 2
f 6 7 2
f 6 2 1
f 6 10 7
f 5 9 6
f 1 5 6

