# https://github.com/mikedh/trimesh
v -0.00343702 0.01236302 -0.01453802
v -0.00343702 0.01010007 -0.01453802
v -0.00343702 0.01234836 -0.01459282
v -0.01308665 0.01236302 -0.01453802
v -0.00405004 0.01009497 -0.01453802
v -0.00343702 0.01010007 -0.01590000
v -0.00343702 0.01226045 -0.01492091
v -0.01308665 0.01221027 -0.01510809
v -0.01308665 0.01233748 -0.01463335
v -0.01308665 0.01009497 -0.01453802
v -0.00405004 0.01009497 -0.01590000
v -0.00343702 0.01199803 -0.01590000
v -0.01308665 0.01199803 -0.01590000
v -0.01308665 0.01009497 -0.01590000
f 13 7 12
f 4 1 3
f 7 13 8
f 9 3 7
f 7 8 9
f 4 3 9
f 10 2 1
f 10 1 4
f 5 2 10
f 11 2 5
f 6 2 11
f 5 10 11
f 11 10 14
f 13 12 6
f 13 11 14
f 6 11 13
f 1 2 3
f 3 2 6
f 6 12 3
f 12 7 3
f 9 10 4
f 14 10 9
f 9 13 14
f 9 8 13

