# https://github.com/mikedh/trimesh
v 0.00980004 -0.00000018 0.01870148
v 0.00981323 -0.00000018 0.01924086
v 0.00981323 0.00000031 0.01924014
v 0.00980020 0.00000031 0.01870148
v 0.00981056 -0.00023614 0.01870148
v 0.00982342 -0.00023442 0.01924086
v 0.00981657 -0.00000018 0.01927291
v 0.00987437 0.00000031 0.01927291
v 0.01150631 0.00000031 0.01870148
v 0.00984129 -0.00046964 0.01870148
v 0.00985399 -0.00046669 0.01924086
v 0.00982676 -0.00023393 0.01927291
v 0.01138771 0.00000031 0.01927291
v 0.01150631 -0.00250807 0.01870148
v 0.01150631 0.00000031 0.01915416
v 0.00989224 -0.00069946 0.01870148
v 0.00986518 -0.00050180 0.01927291
v 0.00985733 -0.00046620 0.01927291
v 0.00990477 -0.00069553 0.01924086
v 0.01145569 0.00000031 0.01920490
v 0.01150631 -0.00045024 0.01927291
v 0.01150631 -0.00249382 0.01924086
v 0.01136432 -0.00243514 0.01924086
v 0.01135948 -0.00244717 0.01870148
v 0.00996323 -0.00092412 0.01870148
v 0.00997526 -0.00091921 0.01924086
v 0.00990811 -0.00069455 0.01927291
v 0.00991897 -0.00072941 0.01927291
v 0.01150631 -0.00249014 0.01927291
v 0.01150631 -0.00249235 0.01925401
v 0.01136583 -0.00243195 0.01927291
v 0.01115820 -0.00232391 0.01927291
v 0.01115653 -0.00232686 0.01924086
v 0.01115052 -0.00233840 0.01870148
v 0.01139957 -0.00244595 0.01927291
v 0.01006495 -0.00113577 0.01924086
v 0.01005343 -0.00114167 0.01870148
v 0.00997843 -0.00091798 0.01927291
v 0.01006796 -0.00113430 0.01927291
v 0.01099150 -0.00221760 0.01927291
v 0.01095876 -0.00220090 0.01924086
v 0.01095175 -0.00221195 0.01870148
v 0.01016217 -0.00135037 0.01870148
v 0.01017319 -0.00134325 0.01924086
v 0.01017620 -0.00134153 0.01927291
v 0.01096077 -0.00219796 0.01927291
v 0.01077502 -0.00205555 0.01927291
v 0.01077285 -0.00205825 0.01924086
v 0.01076500 -0.00206856 0.01870148
v 0.01029914 -0.00154091 0.01924086
v 0.01028878 -0.00154901 0.01870148
v 0.01019574 -0.00137247 0.01927291
v 0.01060264 -0.00189742 0.01927291
v 0.01060014 -0.00189988 0.01924086
v 0.01059145 -0.00190945 0.01870148
v 0.01030198 -0.00153894 0.01927291
v 0.01044179 -0.00172702 0.01924086
v 0.01043227 -0.00173586 0.01870148
v 0.01044446 -0.00172481 0.01927291
f 1 3 4
f 8 3 7
f 20 13 21
f 21 15 20
f 50 51 57
f 7 3 2
f 2 6 7
f 2 3 1
f 1 6 2
f 7 6 12
f 19 17 11
f 26 39 38
f 34 23 33
f 58 57 51
f 50 57 56
f 57 58 54
f 5 6 1
f 11 6 5
f 5 10 11
f 36 44 39
f 36 39 26
f 25 37 36
f 26 25 36
f 43 51 50
f 50 44 43
f 44 36 43
f 43 36 37
f 11 17 18
f 11 10 16
f 16 19 11
f 16 25 26
f 26 19 16
f 28 19 26
f 26 38 28
f 22 23 14
f 14 23 24
f 23 34 24
f 48 49 42
f 42 41 48
f 42 34 33
f 33 41 42
f 52 44 50
f 50 56 52
f 59 56 57
f 57 54 59
f 59 54 53
f 55 54 58
f 55 49 48
f 48 54 55
f 17 19 27
f 19 28 27
f 29 23 30
f 23 22 30
f 33 23 32
f 32 41 33
f 47 54 48
f 53 54 47
f 48 41 47
f 41 46 47
f 39 44 45
f 44 52 45
f 31 32 23
f 40 46 41
f 41 32 40
f 35 23 29
f 35 31 23
f 9 4 20
f 20 4 3
f 3 8 20
f 20 8 13
f 20 15 9
f 18 6 11
f 18 12 6
f 9 14 55
f 1 4 55
f 55 4 9
f 55 5 1
f 55 58 51
f 25 16 55
f 51 43 55
f 55 37 25
f 14 24 55
f 55 42 49
f 10 5 55
f 55 43 37
f 55 16 10
f 55 24 34
f 34 42 55
f 30 14 9
f 9 15 30
f 30 15 21
f 21 29 30
f 30 22 14
f 13 8 35
f 35 8 7
f 21 13 35
f 35 29 21
f 35 59 53
f 7 12 35
f 35 38 39
f 17 27 35
f 35 18 17
f 53 47 35
f 12 18 35
f 35 28 38
f 39 45 35
f 35 52 56
f 56 59 35
f 35 27 28
f 46 40 35
f 35 47 46
f 35 45 52
f 32 31 35
f 35 40 32

