# https://github.com/mikedh/trimesh
v -0.02270000 0.01010734 0.00695742
v -0.02074755 0.01010734 0.00695742
v -0.02270000 0.01010734 0.01439989
v -0.02270000 0.01040039 0.00695742
v -0.02076570 0.01239680 0.00695742
v -0.02074755 0.01239770 0.01439989
v -0.02074755 0.01010734 0.01429934
v -0.02270000 0.01040039 0.01439989
v -0.02243435 0.01010734 0.01440135
v -0.02244964 0.01025084 0.01440135
v -0.02269236 0.01057461 0.00695742
v -0.02089700 0.01238918 0.00695742
v -0.02087445 0.01239209 0.01439989
v -0.02074755 0.01199770 0.01440135
v -0.02074755 0.01065151 0.01440135
v -0.02110150 0.01010734 0.01440135
v -0.02244333 0.01040286 0.01440135
v -0.02269236 0.01057461 0.01439989
v -0.02266961 0.01074748 0.00695742
v -0.02106939 0.01236452 0.00695742
v -0.02104741 0.01236922 0.01439989
v -0.02100422 0.01197326 0.01440135
v -0.02085266 0.01199299 0.01440135
v -0.02242307 0.01055420 0.01440135
v -0.02266961 0.01074748 0.01439989
v -0.02263158 0.01091788 0.00695742
v -0.02120183 0.01233514 0.00695742
v -0.02121769 0.01233156 0.01439989
v -0.02115310 0.01194008 0.01440135
v -0.02239020 0.01070308 0.01440135
v -0.02263158 0.01091788 0.01439989
v -0.02257921 0.01108425 0.01439989
v -0.02257291 0.01109949 0.00695742
v -0.02140499 0.01227057 0.00695742
v -0.02138435 0.01227909 0.01439989
v -0.02129873 0.01189411 0.01440135
v -0.02234414 0.01084882 0.01440135
v -0.02251251 0.01124546 0.01439989
v -0.02251251 0.01124546 0.00695742
v -0.02153036 0.01221855 0.00695742
v -0.02154546 0.01221227 0.01439989
v -0.02143977 0.01183582 0.01440135
v -0.02228566 0.01098985 0.01440135
v -0.02221552 0.01112505 0.01440135
v -0.02243186 0.01139994 0.01439989
v -0.02243186 0.01139994 0.00695742
v -0.02168574 0.01213940 0.00695742
v -0.02170027 0.01213178 0.01439989
v -0.02157508 0.01176541 0.01440135
v -0.02213315 0.01125375 0.01440135
v -0.02233802 0.01154703 0.01439989
v -0.02235026 0.01152797 0.00695742
v -0.02185794 0.01202886 0.00695742
v -0.02184685 0.01203806 0.01439989
v -0.02170409 0.01168335 0.01440135
v -0.02204026 0.01137483 0.01440135
v -0.02223176 0.01168537 0.01439989
v -0.02223998 0.01167348 0.00695742
v -0.02198541 0.01193178 0.00695742
v -0.02198541 0.01193178 0.01439989
v -0.02182468 0.01159030 0.01440135
v -0.02193706 0.01148739 0.01440135
v -0.02211384 0.01181407 0.01439989
v -0.02210180 0.01182505 0.00695742
f 5 6 2
f 15 16 7
f 58 52 51
f 27 35 28
f 10 3 9
f 10 8 3
f 28 35 29
f 47 48 41
f 35 27 34
f 34 41 35
f 47 53 54
f 54 48 47
f 64 63 59
f 63 60 59
f 59 54 53
f 60 54 59
f 44 38 43
f 51 56 57
f 57 56 63
f 57 58 51
f 64 58 57
f 57 63 64
f 18 8 17
f 8 10 17
f 24 30 25
f 25 17 24
f 18 17 25
f 32 30 37
f 43 38 37
f 37 38 32
f 13 14 6
f 6 5 13
f 12 13 5
f 21 13 12
f 35 41 42
f 42 48 49
f 42 41 48
f 22 21 28
f 28 29 22
f 22 13 21
f 47 41 40
f 41 34 40
f 49 48 55
f 48 54 55
f 55 54 60
f 60 61 55
f 62 60 63
f 62 61 60
f 63 56 62
f 50 56 51
f 51 44 50
f 45 44 51
f 38 44 45
f 51 52 45
f 31 30 32
f 31 25 30
f 31 32 26
f 26 32 33
f 32 38 33
f 38 39 33
f 21 12 20
f 20 27 28
f 28 21 20
f 36 29 35
f 35 42 36
f 14 13 23
f 13 22 23
f 46 45 52
f 3 16 9
f 1 2 3
f 2 7 3
f 7 16 3
f 14 7 2
f 2 6 14
f 14 15 7
f 1 3 4
f 3 8 4
f 4 8 18
f 18 11 4
f 25 19 11
f 25 11 18
f 26 19 31
f 19 25 31
f 9 16 23
f 43 37 23
f 15 14 23
f 16 15 23
f 23 10 9
f 24 17 23
f 29 36 23
f 23 44 43
f 23 30 24
f 23 42 49
f 49 55 23
f 23 62 56
f 23 17 10
f 23 37 30
f 56 50 23
f 23 22 29
f 23 55 61
f 61 62 23
f 23 50 44
f 23 36 42
f 46 2 1
f 46 5 2
f 46 53 47
f 46 19 26
f 64 59 46
f 52 58 46
f 27 20 46
f 46 58 64
f 46 12 5
f 1 4 46
f 11 19 46
f 46 4 11
f 46 34 27
f 46 59 53
f 47 40 46
f 26 33 46
f 46 40 34
f 46 33 39
f 46 20 12
f 46 39 38
f 38 45 46

