# https://github.com/mikedh/trimesh
v -0.00952357 -0.00679720 0.01700000
v -0.01029758 -0.00679689 0.01641083
v -0.01029758 -0.00679694 0.01652437
v -0.01029758 -0.00679727 0.01700000
v -0.00952357 -0.00699999 0.01700000
v -0.00952357 -0.00679593 0.01250452
v -0.01029758 -0.00679593 0.01295254
v -0.01029758 -0.00699999 0.01700000
v -0.00952357 -0.00703674 0.01588610
v -0.00952357 -0.00679593 -0.01434866
v -0.01029758 -0.00679593 -0.01434866
v -0.01029758 -0.00703674 0.01588610
v -0.00952357 -0.00703674 -0.01434559
v -0.01029758 -0.00703674 -0.01434559
f 2 1 6
f 2 6 7
f 3 4 1
f 3 1 2
f 14 11 13
f 13 11 10
f 5 6 1
f 9 13 5
f 10 6 5
f 5 13 10
f 5 4 8
f 1 4 5
f 12 13 9
f 14 13 12
f 9 5 12
f 12 5 8
f 7 6 10
f 10 11 7
f 2 7 3
f 14 12 3
f 3 11 14
f 8 4 3
f 3 12 8
f 3 7 11

