# https://github.com/mikedh/trimesh
v -0.00637824 0.00699969 0.01700000
v -0.01740522 0.00699969 0.01700000
v -0.00637824 -0.00061021 0.01700000
v -0.00637824 0.00700938 0.01589763
v -0.01740522 -0.00061021 0.01700000
v -0.01740522 0.00700938 0.01589763
v -0.00637824 -0.00061021 -0.01592925
v -0.00637824 0.00700938 -0.01592925
v -0.01740522 -0.00061021 -0.01589702
v -0.01740522 0.00700938 -0.01589702
v -0.01739982 -0.00061021 -0.01592925
v -0.01739982 0.00700938 -0.01592925
f 5 3 1
f 5 1 2
f 3 7 4
f 1 3 4
f 7 8 4
f 2 1 4
f 4 6 2
f 9 7 3
f 3 5 9
f 9 11 7
f 12 8 7
f 7 11 12
f 10 5 2
f 2 6 10
f 10 9 5
f 10 4 8
f 6 4 10
f 8 12 10
f 11 9 10
f 10 12 11

