# https://github.com/mikedh/trimesh
v -0.02160117 0.00700955 0.01472138
v -0.02094479 0.00700955 0.01472138
v -0.02160117 0.00700955 0.01511365
v -0.02160117 0.00839996 0.01472138
v -0.02094479 0.00700955 0.01511365
v -0.02094479 0.00874973 0.01472138
v -0.02160117 0.00839996 0.01511365
v -0.02159924 0.00874973 0.01472138
v -0.02094479 0.00874973 0.01511365
v -0.02159924 0.00874973 0.01511365
f 5 3 1
f 1 2 5
f 4 2 1
f 4 6 2
f 4 8 6
f 1 3 4
f 3 7 4
f 9 5 2
f 2 6 9
f 3 5 10
f 10 7 3
f 5 9 10
f 8 4 10
f 10 4 7
f 6 8 10
f 10 9 6

