# https://github.com/mikedh/trimesh
v 0.00720561 -0.00771049 0.01439851
v 0.00527924 -0.00771049 0.01439851
v 0.00527924 -0.00775987 0.01440698
v 0.00582287 -0.00823996 0.01440980
v 0.00676023 -0.00891143 0.01440980
v 0.00720561 -0.00891143 0.01439851
v 0.00720561 -0.00771049 -0.01439877
v 0.00527924 -0.00771049 -0.01439877
v 0.00527924 -0.00857558 0.01440980
v 0.00527924 -0.00891143 0.01440980
v 0.00720561 -0.00891143 -0.00668395
v 0.00720561 -0.00881398 -0.01439877
v 0.00675061 -0.00891143 -0.01440723
v 0.00527924 -0.00775810 -0.01440723
v 0.00527924 -0.00891143 -0.01440723
v 0.00720411 -0.00891143 -0.01439877
f 3 1 2
f 4 5 1
f 1 3 4
f 14 8 7
f 14 7 13
f 13 7 12
f 12 16 13
f 1 5 6
f 16 12 11
f 15 14 13
f 9 4 3
f 1 7 8
f 2 1 8
f 11 7 1
f 11 12 7
f 1 6 11
f 13 16 15
f 15 6 5
f 5 10 15
f 16 11 15
f 15 11 6
f 2 8 9
f 9 3 2
f 8 14 9
f 9 15 10
f 14 15 9
f 9 10 5
f 5 4 9

