# https://github.com/mikedh/trimesh
v -0.01103296 -0.00950320 0.01590000
v -0.01428541 -0.00950320 0.01590000
v -0.01103296 -0.01008066 0.01590000
v -0.01103296 -0.00950320 -0.01442226
v -0.01428541 -0.01008265 0.01590000
v -0.01428541 -0.00950320 -0.01442226
v -0.01112880 -0.01008265 0.01590000
v -0.01103296 -0.01008265 0.01587626
v -0.01103296 -0.01003868 -0.01442226
v -0.01428541 -0.01008265 -0.01442226
v -0.01103296 -0.01008265 -0.01441929
v -0.01159589 -0.01008265 -0.01442226
f 8 3 7
f 9 11 12
f 1 4 6
f 2 1 6
f 7 1 2
f 2 5 7
f 7 3 1
f 10 7 5
f 10 11 8
f 8 7 10
f 12 11 10
f 2 6 10
f 10 5 2
f 9 4 1
f 1 3 9
f 9 3 8
f 8 11 9
f 9 6 4
f 9 10 6
f 12 10 9

