# https://github.com/mikedh/trimesh
v -0.01709273 0.00979142 0.01590000
v -0.01709273 0.00979142 0.01440035
v -0.01766047 0.00979142 0.01590000
v -0.01640804 0.00950627 0.01590000
v -0.01766047 0.00979142 0.01440035
v -0.01640804 0.00950627 0.01440035
v -0.01766047 0.00700938 0.01590000
v -0.01640804 0.00700938 0.01590000
v -0.01766047 0.00700938 0.01440035
v -0.01640804 0.00700938 0.01440035
f 3 1 5
f 5 1 2
f 8 1 3
f 3 7 8
f 4 1 8
f 6 1 4
f 2 1 6
f 4 8 6
f 6 8 10
f 9 5 2
f 9 6 10
f 2 6 9
f 9 8 7
f 10 8 9
f 9 7 3
f 3 5 9

