# https://github.com/mikedh/trimesh
v 0.01010006 -0.00000058 0.01440980
v 0.01009628 -0.00000058 0.01470006
v 0.01010006 0.00000000 0.01440980
v 0.01489988 -0.00000058 0.01440980
v 0.01009628 0.00147857 0.01470006
v 0.01009628 -0.00000058 0.01613282
v 0.01010952 0.00020926 0.01440980
v 0.01489988 0.00000000 0.01440980
v 0.01492636 0.00000000 0.01470006
v 0.01492636 -0.00000058 0.01472957
v 0.01009628 0.00147857 0.01613282
v 0.01061257 0.00147857 0.01440980
v 0.01053409 0.00137647 0.01440980
v 0.01042156 0.00119994 0.01440980
v 0.01032511 0.00101415 0.01440980
v 0.01024757 0.00082704 0.01440980
v 0.01024521 0.00082082 0.01440980
v 0.01018185 0.00062126 0.01440980
v 0.01013647 0.00041678 0.01440980
v 0.01492636 -0.00000058 0.01613282
v 0.01489089 0.00020245 0.01440980
v 0.01492636 0.00147857 0.01470006
v 0.01492636 0.00147857 0.01613282
v 0.01438737 0.00147857 0.01440980
v 0.01489042 0.00020926 0.01440980
v 0.01486442 0.00041012 0.01440980
v 0.01486347 0.00041678 0.01440980
v 0.01481808 0.00062126 0.01440980
v 0.01475520 0.00082082 0.01440980
v 0.01467766 0.00100792 0.01440980
v 0.01467483 0.00101415 0.01440980
v 0.01457838 0.00119994 0.01440980
v 0.01446963 0.00137068 0.01440980
v 0.01446585 0.00137647 0.01440980
f 10 4 9
f 5 12 13
f 13 14 5
f 5 14 15
f 5 19 7
f 5 17 18
f 18 19 5
f 16 17 5
f 5 15 16
f 5 7 3
f 34 24 22
f 31 32 22
f 28 29 22
f 22 27 28
f 22 32 33
f 33 34 22
f 22 29 30
f 30 31 22
f 21 25 22
f 26 27 22
f 22 25 26
f 8 21 22
f 2 6 11
f 11 5 2
f 20 11 6
f 23 11 20
f 10 22 23
f 9 22 10
f 23 20 10
f 10 6 2
f 2 1 10
f 10 20 6
f 1 4 10
f 5 11 24
f 24 11 23
f 23 22 24
f 24 12 5
f 2 5 3
f 3 1 2
f 8 4 1
f 1 3 8
f 12 24 8
f 8 33 32
f 8 13 12
f 17 16 8
f 8 18 17
f 14 13 8
f 8 15 14
f 8 7 19
f 19 18 8
f 24 34 8
f 8 30 29
f 8 16 15
f 8 3 7
f 29 28 8
f 32 31 8
f 27 26 8
f 8 28 27
f 34 33 8
f 31 30 8
f 25 21 8
f 8 26 25
f 8 22 9
f 9 4 8

