# https://github.com/mikedh/trimesh
v 0.01261639 0.00268434 0.01870162
v 0.01280400 0.00255120 0.01964213
v 0.01352706 0.00248226 0.01870162
v 0.01169202 0.00256225 0.01870162
v 0.01206936 0.00261488 0.01945911
v 0.01298740 0.00192757 0.02015985
v 0.01348911 0.00235858 0.01964968
v 0.01140216 0.00222596 0.01989801
v 0.01226804 0.00212439 0.02007654
v 0.01404405 0.00215387 0.01945911
v 0.01414102 0.00213966 0.01870162
v 0.01086409 0.00213124 0.01870162
v 0.01119083 0.00229754 0.01938654
v 0.01418371 0.00086556 0.02018423
v 0.01401032 0.00162128 0.02004156
v 0.01172838 0.00176285 0.02017567
v 0.01047305 0.00173811 0.01931382
v 0.01032022 0.00130289 0.01969366
v 0.01101376 0.00164760 0.02003865
v 0.01473707 0.00121290 0.01969366
v 0.01452679 0.00173811 0.01931382
v 0.01463114 0.00163602 0.01870162
v 0.01023379 0.00144235 0.01870162
v 0.01440031 -0.00007119 0.02018002
v 0.01474866 0.00061874 0.02000934
v 0.01081613 0.00086556 0.02018423
v 0.01172838 -0.00176315 0.02017567
v 0.00991284 0.00060243 0.01938654
v 0.01025118 0.00061874 0.02000934
v 0.01508700 0.00060243 0.01938654
v 0.01506223 0.00080820 0.01870162
v 0.00991495 0.00075241 0.01870162
v 0.01298740 -0.00192787 0.02015985
v 0.01443878 -0.00084849 0.02009627
v 0.01495736 -0.00013487 0.01987798
v 0.01038609 0.00001196 0.02010324
v 0.01066224 -0.00067430 0.02014315
v 0.01093523 -0.00155685 0.02004243
v 0.01140216 -0.00222626 0.01989801
v 0.01226909 -0.00209732 0.02010527
v 0.00980849 -0.00005909 0.01870162
v 0.00987068 -0.00003015 0.01949307
v 0.01516395 -0.00017329 0.01931382
v 0.01519188 0.00005932 0.01870162
v 0.01287726 -0.00245308 0.01989801
v 0.01401032 -0.00162158 0.02004156
v 0.01466803 -0.00151896 0.01938654
v 0.01504062 -0.00080060 0.01938654
v 0.00995922 -0.00080060 0.01938654
v 0.01033181 -0.00151896 0.01938654
v 0.01110862 -0.00226731 0.01935011
v 0.01175947 -0.00254097 0.01945911
v 0.00993814 -0.00080797 0.01870162
v 0.01508489 -0.00075218 0.01870162
v 0.01260163 -0.00263780 0.01942166
v 0.01348911 -0.00235835 0.01964968
v 0.01404405 -0.00215416 0.01945911
v 0.01476605 -0.00144265 0.01870162
v 0.01413575 -0.00213101 0.01870162
v 0.01036870 -0.00163579 0.01870162
v 0.01105750 -0.00226573 0.01870162
v 0.01174788 -0.00258518 0.01870162
v 0.01255894 -0.00269201 0.01870162
v 0.01330782 -0.00256202 0.01870162
f 47 59 58
f 47 58 48
f 53 49 41
f 61 51 60
f 60 51 50
f 50 53 60
f 49 53 50
f 38 49 50
f 1 2 3
f 5 2 1
f 14 25 15
f 35 48 43
f 54 48 58
f 44 43 54
f 54 43 48
f 57 64 59
f 57 59 47
f 47 46 57
f 34 46 47
f 47 48 34
f 34 48 35
f 45 46 33
f 46 34 33
f 41 49 42
f 36 42 49
f 29 42 36
f 55 52 63
f 45 52 55
f 63 64 55
f 63 52 62
f 51 61 62
f 62 52 51
f 39 52 45
f 51 52 39
f 38 50 39
f 39 50 51
f 22 11 21
f 21 31 22
f 30 31 21
f 30 25 35
f 35 43 30
f 44 31 30
f 30 43 44
f 11 3 10
f 21 11 10
f 4 5 1
f 2 5 8
f 20 15 25
f 20 30 21
f 25 30 20
f 21 10 20
f 20 10 15
f 64 57 56
f 45 55 56
f 56 55 64
f 56 46 45
f 56 57 46
f 35 25 24
f 24 34 35
f 24 25 14
f 24 33 34
f 37 49 38
f 37 36 49
f 19 29 26
f 29 36 26
f 36 37 26
f 45 33 40
f 40 39 45
f 7 3 2
f 7 10 3
f 15 10 7
f 16 8 19
f 16 26 14
f 19 26 16
f 41 42 28
f 28 42 29
f 13 4 12
f 5 4 13
f 13 8 5
f 38 39 27
f 39 40 27
f 27 37 38
f 27 40 33
f 27 26 37
f 33 24 27
f 27 24 14
f 14 26 27
f 2 8 9
f 8 16 9
f 41 28 32
f 32 28 23
f 23 28 17
f 12 23 17
f 17 13 12
f 8 13 17
f 6 7 2
f 2 9 6
f 15 7 6
f 14 15 6
f 6 16 14
f 6 9 16
f 18 28 29
f 18 17 28
f 18 29 19
f 19 8 18
f 8 17 18
f 32 64 63
f 44 54 32
f 32 4 1
f 32 53 41
f 1 3 32
f 32 31 44
f 11 22 32
f 32 58 59
f 59 64 32
f 60 53 32
f 32 61 60
f 63 62 32
f 32 3 11
f 32 54 58
f 32 62 61
f 32 22 31
f 12 4 32
f 32 23 12

