# https://github.com/mikedh/trimesh
v -0.00467467 -0.00061096 -0.01442861
v -0.00467467 0.00543367 -0.01442861
v -0.00405002 -0.00061096 -0.01442861
v -0.00467467 -0.00061096 -0.00368040
v -0.00405002 0.00543367 -0.01442861
v -0.00467467 0.00543367 -0.00368040
v -0.00404627 -0.00061096 -0.01439914
v -0.00404627 -0.00061096 -0.00368040
v -0.00404774 0.00543367 -0.01439914
v -0.00404627 0.00400225 -0.01439914
v -0.00404627 0.00543367 -0.00368040
v -0.00404627 0.00543367 -0.01008724
f 10 5 9
f 9 12 10
f 1 3 8
f 8 4 1
f 8 3 7
f 1 4 6
f 6 2 1
f 4 8 6
f 6 8 11
f 2 6 5
f 11 12 5
f 5 6 11
f 5 12 9
f 5 3 1
f 1 2 5
f 7 3 10
f 3 5 10
f 10 8 7
f 11 8 10
f 10 12 11

