# https://github.com/mikedh/trimesh
v -0.01612611 -0.01240000 -0.01439965
v -0.01533830 -0.01240000 -0.01439965
v -0.01612611 -0.01240000 0.01439965
v -0.01612611 -0.01233500 -0.01464244
v -0.01533830 -0.01239000 -0.01443700
v -0.01533830 -0.01240000 0.01439965
v -0.01612611 -0.01231564 0.01590000
v -0.01612611 -0.01219983 -0.01514671
v -0.01533830 -0.01209644 -0.01553269
v -0.01533830 -0.01216483 -0.01527745
v -0.01533830 -0.01223822 -0.01500352
v -0.01533830 -0.01239839 0.01440587
v -0.01547581 -0.01208321 0.01590000
v -0.01563499 -0.01216354 0.01590000
v -0.01580034 -0.01222999 0.01590000
v -0.01597078 -0.01228209 0.01590000
v -0.01612611 -0.01090025 0.01590000
v -0.01612611 -0.01206547 -0.01564787
v -0.01533830 -0.01199837 -0.01589689
v -0.01533830 -0.01199918 0.01590000
v -0.01594387 -0.01075218 0.01590000
v -0.01612611 -0.01075218 0.01439965
v -0.01612611 -0.01202176 -0.01580973
v -0.01612611 -0.01199821 -0.01589689
v -0.01612611 -0.01178191 -0.01590000
v -0.01533830 -0.01172577 -0.01590000
v -0.01533830 -0.01075218 0.01590000
v -0.01612611 -0.01075218 -0.01590000
v -0.01533830 -0.01075218 -0.01590000
f 5 2 1
f 7 3 6
f 21 22 17
f 24 25 19
f 19 9 18
f 4 5 1
f 14 15 6
f 7 6 16
f 6 15 16
f 26 19 25
f 24 19 23
f 23 19 18
f 18 9 8
f 9 4 8
f 10 4 9
f 13 14 6
f 5 4 11
f 4 10 11
f 20 13 12
f 12 13 6
f 6 3 1
f 1 2 6
f 28 22 27
f 27 22 21
f 27 29 28
f 28 29 26
f 26 25 28
f 7 17 8
f 1 3 8
f 8 3 7
f 28 25 8
f 8 22 28
f 8 17 22
f 8 4 1
f 8 25 24
f 24 23 8
f 8 23 18
f 13 17 7
f 21 17 13
f 13 27 21
f 20 27 13
f 7 16 13
f 15 14 13
f 13 16 15
f 2 5 12
f 12 6 2
f 29 27 12
f 5 11 12
f 12 27 20
f 12 26 29
f 9 19 12
f 19 26 12
f 12 10 9
f 12 11 10

