# https://github.com/mikedh/trimesh
v 0.00834021 0.00909059 0.01869984
v 0.00834021 0.00909059 0.01700245
v 0.00827380 0.00906295 0.01869984
v 0.00834021 0.00591797 0.01869984
v 0.00827380 0.00906295 0.01700245
v 0.00834021 0.00591797 0.01700245
v 0.00802263 0.00893219 0.01869984
v 0.00802263 0.00610588 0.01869984
v 0.00802263 0.00893219 0.01700245
v 0.00802263 0.00610588 0.01700245
f 8 4 1
f 8 3 7
f 1 3 8
f 9 8 7
f 10 8 9
f 1 4 6
f 6 2 1
f 4 8 6
f 6 8 10
f 10 9 5
f 5 6 10
f 2 6 5
f 5 3 1
f 1 2 5
f 7 3 5
f 5 9 7

