# https://github.com/mikedh/trimesh
v -0.01628131 0.01233711 0.01589989
v -0.01614507 0.01231976 0.01589989
v -0.01579701 0.01230741 0.01474552
v -0.01628131 0.01233801 0.01532773
v -0.01628131 0.01096685 0.01589989
v -0.01597085 0.01228219 0.01589989
v -0.01628131 0.01233836 0.01474552
v -0.01580038 0.01222994 0.01589989
v -0.01579701 0.01222851 0.01589989
v -0.01579701 0.01051082 0.01474552
v -0.01628131 0.01096685 0.01474552
v -0.01579701 0.01051082 0.01589989
f 1 3 4
f 3 7 4
f 2 3 1
f 2 6 3
f 8 9 3
f 3 6 8
f 3 10 11
f 11 7 3
f 12 10 3
f 3 9 12
f 5 4 7
f 1 4 5
f 7 11 5
f 5 2 1
f 9 8 5
f 5 12 9
f 6 2 5
f 5 8 6
f 5 11 10
f 10 12 5

