# https://github.com/mikedh/trimesh
v -0.00147199 -0.01103495 0.01590000
v -0.00389258 -0.01103495 0.01590000
v -0.00147199 -0.01199803 0.01590000
v -0.00147199 -0.01103495 -0.01589961
v -0.00389258 -0.01199803 0.01590000
v -0.00389258 -0.01103495 -0.01589650
v -0.00147199 -0.01231581 0.01471405
v -0.00147199 -0.01199817 -0.01589961
v -0.00389258 -0.01239920 0.01440278
v -0.00147199 -0.01234000 0.01462378
v -0.00389258 -0.01199817 -0.01589650
v -0.00389258 -0.01232343 -0.01468565
v -0.00389258 -0.01224419 -0.01498136
v -0.00389258 -0.01208984 -0.01555722
v -0.00389258 -0.01204641 -0.01571908
v -0.00389258 -0.01199937 -0.01589339
v -0.00147199 -0.01234588 -0.01460161
v -0.00389258 -0.01240000 0.01439967
v -0.00147199 -0.01240000 0.01439967
v -0.00147199 -0.01238169 0.01446815
v -0.00147199 -0.01240000 -0.01439928
v -0.00389258 -0.01240000 -0.01439928
f 21 12 17
f 17 12 8
f 22 12 21
f 3 5 7
f 5 10 7
f 9 10 5
f 9 20 10
f 18 19 9
f 19 20 9
f 16 11 8
f 8 15 16
f 14 15 8
f 8 12 13
f 13 14 8
f 2 1 6
f 1 4 6
f 5 1 2
f 5 3 1
f 11 6 4
f 4 8 11
f 22 21 19
f 22 19 18
f 1 3 20
f 20 4 1
f 19 21 20
f 20 8 4
f 3 7 20
f 21 17 20
f 20 17 8
f 20 7 10
f 2 6 13
f 13 5 2
f 13 22 18
f 6 11 13
f 18 9 13
f 12 22 13
f 13 9 5
f 11 16 13
f 13 16 15
f 15 14 13

