# https://github.com/mikedh/trimesh
v -0.02094479 0.00984960 0.01440033
v -0.02095011 0.00999996 0.01440033
v -0.02094479 0.00875003 0.01440033
v -0.02094479 0.01010689 0.01429990
v -0.02110045 0.01010689 0.01440033
v -0.02159938 0.00875003 0.01440033
v -0.02094479 0.00875003 0.01245361
v -0.02094479 0.01010689 0.01245361
v -0.02244366 0.01010689 0.01440033
v -0.02170385 0.00881658 0.01440033
v -0.02270000 0.00875003 0.01439995
v -0.02270000 0.00875003 0.01245361
v -0.02270000 0.01010689 0.01245361
v -0.02244332 0.01009746 0.01440033
v -0.02270000 0.01010689 0.01439995
v -0.02182480 0.00890943 0.01440033
v -0.02193734 0.00901264 0.01440033
v -0.02204042 0.00912514 0.01440033
v -0.02213337 0.00924629 0.01440033
v -0.02221550 0.00937513 0.01440033
v -0.02228594 0.00951035 0.01440033
v -0.02234435 0.00965142 0.01440033
v -0.02239023 0.00979700 0.01440033
v -0.02242339 0.00994604 0.01440033
f 11 9 15
f 11 6 10
f 10 16 11
f 1 4 2
f 4 5 2
f 11 23 24
f 11 21 22
f 22 23 11
f 11 16 17
f 17 18 11
f 20 21 11
f 14 9 11
f 11 24 14
f 11 18 19
f 19 20 11
f 7 12 8
f 8 12 13
f 15 12 11
f 13 12 15
f 3 7 4
f 1 3 4
f 7 8 4
f 6 7 3
f 11 12 6
f 6 12 7
f 5 8 13
f 13 15 5
f 5 15 9
f 5 4 8
f 19 3 1
f 16 10 19
f 19 6 3
f 19 22 21
f 1 2 19
f 19 5 9
f 19 10 6
f 21 20 19
f 19 17 16
f 19 2 5
f 19 24 23
f 23 22 19
f 18 17 19
f 9 14 19
f 19 14 24

