# https://github.com/mikedh/trimesh
v -0.00268874 -0.00679758 0.01700000
v -0.00268874 -0.00699999 0.01700000
v -0.00268874 -0.00679593 0.01699693
v -0.00393109 -0.00679798 0.01700000
v -0.00393109 -0.00699174 0.01700000
v -0.00393109 -0.00699999 0.01699693
v -0.00393109 -0.00703674 0.01589965
v -0.00268874 -0.00703674 0.01589965
v -0.00393109 -0.00679593 0.01699385
v -0.00268874 -0.00679593 -0.01440000
v -0.00393109 -0.00703674 -0.01440000
v -0.00268874 -0.00703674 -0.01440000
v -0.00393109 -0.00679593 -0.01440000
f 7 2 6
f 8 2 7
f 3 9 4
f 4 1 3
f 5 6 2
f 3 12 10
f 3 8 12
f 1 2 3
f 2 8 3
f 13 3 10
f 9 3 13
f 5 2 1
f 5 1 4
f 11 5 4
f 4 9 11
f 7 6 11
f 9 13 11
f 6 5 11
f 12 8 11
f 11 8 7
f 10 12 11
f 11 13 10

