# https://github.com/mikedh/trimesh
v -0.00053186 -0.00620152 -0.01151909
v -0.00262232 -0.00620152 -0.01151909
v -0.00053186 -0.00679585 -0.01151909
v -0.00053186 -0.00620152 -0.01439998
v -0.00262232 -0.00679585 -0.01151909
v -0.00262232 -0.00620152 -0.01439998
v -0.00053186 -0.00679585 -0.01439998
v -0.00095686 -0.00679585 -0.01440167
v -0.00097651 -0.00678084 -0.01440167
v -0.00105017 -0.00673394 -0.01440167
v -0.00112752 -0.00669368 -0.01440167
v -0.00120814 -0.00666028 -0.01440167
v -0.00129122 -0.00663404 -0.01440167
v -0.00137655 -0.00661519 -0.01440167
v -0.00146290 -0.00660379 -0.01440167
v -0.00155008 -0.00659995 -0.01440167
v -0.00262232 -0.00679585 -0.01439998
v -0.00163704 -0.00660379 -0.01440167
v -0.00172360 -0.00661519 -0.01440167
v -0.00180872 -0.00663404 -0.01440167
v -0.00189201 -0.00666028 -0.01440167
v -0.00197242 -0.00669368 -0.01440167
v -0.00204998 -0.00673394 -0.01440167
v -0.00212344 -0.00678084 -0.01440167
v -0.00214308 -0.00679585 -0.01440167
f 8 4 7
f 16 6 4
f 25 17 6
f 9 4 8
f 9 10 4
f 11 12 4
f 4 10 11
f 15 16 4
f 4 14 15
f 4 12 13
f 13 14 4
f 6 16 18
f 18 19 6
f 20 21 6
f 6 19 20
f 24 25 6
f 6 23 24
f 6 21 22
f 22 23 6
f 5 3 1
f 5 1 2
f 2 1 6
f 1 4 6
f 1 3 7
f 7 4 1
f 17 5 2
f 2 6 17
f 3 5 25
f 25 7 3
f 8 7 25
f 5 17 25
f 8 25 22
f 12 11 22
f 22 9 8
f 16 15 22
f 22 13 12
f 10 9 22
f 22 11 10
f 22 15 14
f 14 13 22
f 21 20 22
f 22 18 16
f 25 24 22
f 19 18 22
f 22 20 19
f 22 24 23

