# https://github.com/mikedh/trimesh
v -0.00257755 -0.00060946 -0.01439819
v -0.00053206 -0.00060946 -0.01439819
v -0.00257755 -0.00060946 0.01700000
v -0.00257755 0.00700864 -0.01439819
v -0.00254972 0.00280056 -0.01592925
v -0.00254431 0.00269987 -0.01592925
v -0.00253450 0.00262752 -0.01592925
v -0.00251568 0.00254175 -0.01592925
v -0.00250767 0.00251639 -0.01592925
v -0.00248945 0.00245896 -0.01592925
v -0.00247924 0.00243435 -0.01592925
v -0.00245602 0.00237841 -0.01592925
v -0.00241577 0.00230084 -0.01592925
v -0.00236892 0.00222700 -0.01592925
v -0.00231586 0.00215838 -0.01592925
v -0.00229784 0.00213824 -0.01592925
v -0.00225679 0.00209349 -0.01592925
v -0.00219252 0.00203457 -0.01592925
v -0.00212324 0.00198162 -0.01592925
v -0.00204976 0.00193463 -0.01592925
v -0.00197247 0.00189435 -0.01592925
v -0.00189178 0.00186153 -0.01592925
v -0.00180869 0.00183468 -0.01592925
v -0.00172339 0.00181604 -0.01592925
v -0.00169696 0.00181231 -0.01592925
v -0.00163690 0.00180485 -0.01592925
v -0.00161027 0.00180336 -0.01592925
v -0.00155020 0.00180112 -0.01592925
v -0.00053206 0.00700864 -0.01439819
v -0.00053206 -0.00060946 0.01700000
v -0.00152357 0.00180187 -0.01592925
v -0.00146310 0.00180485 -0.01592925
v -0.00143667 0.00180783 -0.01592925
v -0.00137660 0.00181604 -0.01592925
v -0.00129131 0.00183468 -0.01592925
v -0.00126588 0.00184289 -0.01592925
v -0.00119580 0.00186601 -0.01592925
v -0.00112752 0.00189435 -0.01592925
v -0.00105024 0.00193463 -0.01592925
v -0.00097675 0.00198162 -0.01592925
v -0.00089767 0.00204352 -0.01592925
v -0.00084320 0.00209349 -0.01592925
v -0.00077593 0.00216882 -0.01592925
v -0.00073108 0.00222700 -0.01592925
v -0.00068423 0.00230084 -0.01592925
v -0.00064398 0.00237841 -0.01592925
v -0.00061054 0.00245896 -0.01592925
v -0.00058431 0.00254175 -0.01592925
v -0.00057851 0.00256785 -0.01592925
v -0.00056549 0.00262752 -0.01592925
v -0.00055408 0.00271329 -0.01592925
v -0.00055288 0.00274014 -0.01592925
v -0.00055028 0.00280056 -0.01592925
v -0.00257755 0.00699894 0.01700000
v -0.00235570 0.00700864 -0.01592925
v -0.00254592 0.00528647 -0.01592925
v -0.00254712 0.00525962 -0.01592925
v -0.00254972 0.00519921 -0.01592925
v -0.00257755 0.00700864 0.01589763
v -0.00053206 0.00700864 0.01589763
v -0.00055028 0.00519921 -0.01592925
v -0.00055408 0.00528647 -0.01592925
v -0.00074429 0.00700864 -0.01592925
v -0.00053206 0.00699894 0.01700000
f 4 55 56
f 1 5 6
f 7 8 1
f 1 6 7
f 12 13 1
f 1 8 9
f 9 10 1
f 57 58 4
f 4 56 57
f 62 63 29
f 29 61 62
f 28 2 1
f 1 10 11
f 11 12 1
f 52 53 2
f 2 51 52
f 2 44 45
f 46 47 2
f 2 45 46
f 50 51 2
f 2 49 50
f 2 47 48
f 48 49 2
f 2 41 42
f 40 41 2
f 37 38 2
f 1 13 14
f 1 17 18
f 1 20 21
f 43 44 2
f 2 42 43
f 2 38 39
f 39 40 2
f 32 33 2
f 34 35 2
f 2 33 34
f 2 35 36
f 36 37 2
f 1 14 15
f 19 20 1
f 1 18 19
f 1 25 26
f 1 23 24
f 24 25 1
f 22 23 1
f 1 21 22
f 2 28 31
f 31 32 2
f 16 17 1
f 1 15 16
f 27 28 1
f 1 26 27
f 30 3 1
f 1 2 30
f 3 30 54
f 54 30 64
f 60 30 2
f 2 29 60
f 64 30 60
f 1 3 59
f 59 4 1
f 3 54 59
f 59 54 64
f 64 60 59
f 1 4 58
f 58 5 1
f 63 60 29
f 63 55 4
f 4 59 63
f 63 59 60
f 53 29 2
f 53 61 29
f 8 7 27
f 55 63 27
f 27 6 5
f 27 56 55
f 5 58 27
f 27 11 10
f 13 12 27
f 27 9 8
f 27 57 56
f 27 62 61
f 27 7 6
f 47 46 27
f 10 9 27
f 58 57 27
f 63 62 27
f 61 53 27
f 27 52 51
f 12 11 27
f 44 43 27
f 27 45 44
f 27 48 47
f 38 37 27
f 53 52 27
f 27 31 28
f 51 50 27
f 27 21 20
f 27 39 38
f 27 14 13
f 20 19 27
f 27 46 45
f 27 50 49
f 49 48 27
f 27 42 41
f 41 40 27
f 23 22 27
f 35 34 27
f 27 36 35
f 27 18 17
f 17 16 27
f 27 24 23
f 27 43 42
f 40 39 27
f 33 32 27
f 27 34 33
f 37 36 27
f 27 15 14
f 27 19 18
f 27 26 25
f 25 24 27
f 27 22 21
f 32 31 27
f 27 16 15

