# https://github.com/mikedh/trimesh
v 0.01206318 0.00254216 0.01975441
v 0.01207362 0.00242330 0.01994696
v 0.01207613 0.00149395 0.01965451
v 0.01183132 0.00251183 0.01970812
v 0.01185910 0.00239072 0.01992475
v 0.01199780 0.00220956 0.02009091
v 0.01203644 0.00201406 0.02016236
v 0.01204710 0.00181713 0.02019268
v 0.01204981 0.00045026 0.02020000
v 0.01204981 0.00045026 0.01965451
v 0.01095756 0.00044862 0.01965451
v 0.01083265 0.00199398 0.01970812
v 0.01101249 0.00213169 0.01970812
v 0.01120383 0.00225321 0.01970812
v 0.01140123 0.00235568 0.01970892
v 0.01161074 0.00244256 0.01970892
v 0.01165314 0.00232576 0.01992475
v 0.01173293 0.00210648 0.02010405
v 0.01156395 0.00179766 0.02017138
v 0.01183466 0.00182758 0.02018275
v 0.01167841 0.00157777 0.02019701
v 0.01199195 0.00161937 0.02020000
v 0.01079379 0.00049042 0.02019717
v 0.01048632 0.00047895 0.02016155
v 0.01007377 0.00044862 0.01993329
v 0.00994238 0.00045559 0.01971111
v 0.00999043 0.00067732 0.01970812
v 0.01014626 0.00110295 0.01970812
v 0.01025111 0.00130378 0.01970812
v 0.01037080 0.00149109 0.01970892
v 0.01050888 0.00167081 0.01970892
v 0.01066199 0.00183803 0.01970892
v 0.01090910 0.00189602 0.01992475
v 0.01108017 0.00202738 0.01992475
v 0.01126232 0.00214337 0.01992475
v 0.01145366 0.00224317 0.01992475
v 0.01155246 0.00203168 0.02010405
v 0.01137888 0.00194131 0.02010405
v 0.01126587 0.00160789 0.02017138
v 0.01141689 0.00141157 0.02019701
v 0.01124080 0.00125931 0.02019701
v 0.01108853 0.00108307 0.02019701
v 0.01092226 0.00082179 0.02019701
v 0.01067243 0.00066543 0.02018275
v 0.01070230 0.00093614 0.02017138
v 0.01039357 0.00076708 0.02010405
v 0.01029602 0.00051460 0.02009321
v 0.01010928 0.00064084 0.01992475
v 0.01005748 0.00088921 0.01970892
v 0.01025675 0.00104639 0.01992475
v 0.01035660 0.00123779 0.01992475
v 0.01047253 0.00141998 0.01992475
v 0.01060413 0.00159088 0.01992475
v 0.01074993 0.00175011 0.01992475
v 0.01105887 0.00171712 0.02010405
v 0.01121386 0.00183618 0.02010405
v 0.01100581 0.00136956 0.02017138
v 0.01083829 0.00116382 0.02017138
v 0.01055880 0.00112119 0.02010405
v 0.01046856 0.00094762 0.02010405
v 0.01017425 0.00084679 0.01992475
v 0.01066387 0.00128616 0.02010405
v 0.01078293 0.00144129 0.02010405
v 0.01091495 0.00158494 0.02010405
f 3 9 10
f 4 1 3
f 3 10 11
f 11 10 9
f 11 12 3
f 9 24 25
f 26 11 25
f 25 11 9
f 23 24 9
f 3 1 2
f 2 9 3
f 27 11 26
f 22 23 9
f 3 12 13
f 13 14 3
f 16 4 3
f 29 11 28
f 11 27 28
f 12 11 32
f 11 31 32
f 30 11 29
f 30 31 11
f 52 31 30
f 23 22 43
f 24 23 44
f 44 45 24
f 23 43 44
f 44 43 45
f 7 2 6
f 14 13 35
f 51 30 29
f 52 30 51
f 29 28 51
f 51 28 50
f 3 14 15
f 15 16 3
f 14 35 15
f 45 43 58
f 8 22 9
f 9 2 8
f 8 2 7
f 4 16 5
f 5 6 2
f 1 4 5
f 5 2 1
f 12 32 33
f 45 58 59
f 59 51 50
f 52 51 59
f 26 25 48
f 48 27 26
f 50 28 49
f 49 61 50
f 49 28 27
f 27 48 49
f 49 48 61
f 16 15 36
f 36 15 35
f 36 35 38
f 42 43 22
f 57 58 42
f 42 58 43
f 39 40 19
f 39 19 38
f 38 56 39
f 7 19 20
f 20 8 7
f 54 33 32
f 33 56 34
f 34 35 13
f 38 35 34
f 34 56 38
f 34 13 12
f 12 33 34
f 57 64 63
f 63 58 57
f 64 54 63
f 45 59 60
f 60 59 50
f 7 6 18
f 18 19 7
f 22 40 41
f 41 42 22
f 57 42 41
f 41 39 57
f 40 39 41
f 55 39 56
f 55 56 33
f 55 64 57
f 57 39 55
f 55 54 64
f 33 54 55
f 8 20 21
f 21 40 22
f 22 8 21
f 19 40 21
f 21 20 19
f 62 59 58
f 58 63 62
f 52 59 62
f 62 63 52
f 52 63 53
f 53 63 54
f 53 31 52
f 53 32 31
f 53 54 32
f 61 48 47
f 47 48 25
f 47 25 24
f 50 61 46
f 46 60 50
f 61 47 46
f 46 47 24
f 24 45 46
f 45 60 46
f 37 36 38
f 37 18 36
f 38 19 37
f 19 18 37
f 36 18 17
f 17 5 16
f 16 36 17
f 6 5 17
f 17 18 6

