# https://github.com/mikedh/trimesh
v -0.01871057 -0.01240000 -0.01439987
v -0.01766211 -0.01240000 -0.01439987
v -0.01871057 -0.01240000 -0.01105070
v -0.01871057 -0.01218386 -0.01520643
v -0.01766211 -0.01203466 -0.01576328
v -0.01766211 -0.01240000 -0.01105070
v -0.01871057 -0.01075218 -0.01105070
v -0.01871057 -0.01199805 -0.01589953
v -0.01766211 -0.01199821 -0.01589905
v -0.01766211 -0.01075218 -0.01105070
v -0.01871057 -0.01075218 -0.01590000
v -0.01871057 -0.01196627 -0.01590000
v -0.01766211 -0.01189143 -0.01590000
v -0.01766211 -0.01075218 -0.01590000
f 5 2 1
f 4 5 1
f 8 5 4
f 9 5 8
f 8 12 9
f 13 9 12
f 7 10 14
f 14 11 7
f 6 3 1
f 1 2 6
f 6 10 7
f 7 3 6
f 11 12 4
f 7 11 4
f 1 3 4
f 4 3 7
f 4 12 8
f 13 14 10
f 2 5 13
f 13 6 2
f 10 6 13
f 5 9 13
f 11 14 13
f 13 12 11

