# https://github.com/mikedh/trimesh
v -0.02046598 -0.00864301 -0.01590000
v -0.02046598 -0.00752759 -0.01590000
v -0.01975497 -0.00864301 -0.01590000
v -0.02046598 -0.00864301 0.01556382
v -0.01975497 -0.00752759 -0.01590000
v -0.02046598 -0.00752759 0.01590000
v -0.01975497 -0.00864301 0.01439965
v -0.02044816 -0.00864301 0.01556071
v -0.01975497 -0.00863930 0.01590000
v -0.02046598 -0.00841545 0.01590000
v -0.01975497 -0.00752759 0.01590000
v -0.02001696 -0.00864301 0.01524943
v -0.02041663 -0.00864301 0.01555448
v -0.02037181 -0.00864301 0.01554203
v -0.02032441 -0.00864301 0.01552647
v -0.02026935 -0.00864301 0.01550779
v -0.02024965 -0.00864301 0.01549845
v -0.02020413 -0.00864301 0.01547355
v -0.02016933 -0.00864301 0.01545176
v -0.02010550 -0.00864301 0.01540507
v -0.02006437 -0.00864301 0.01535527
v -0.02003485 -0.00864301 0.01530235
v -0.02002678 -0.00864301 0.01528056
f 10 4 9
f 12 7 9
f 9 23 12
f 9 21 22
f 22 23 9
f 20 21 9
f 13 14 9
f 16 17 9
f 19 20 9
f 9 4 8
f 8 13 9
f 9 14 15
f 15 16 9
f 9 17 18
f 18 19 9
f 1 2 5
f 5 3 1
f 11 5 2
f 2 6 11
f 3 5 7
f 5 11 7
f 7 11 9
f 10 2 1
f 10 6 2
f 1 4 10
f 10 11 6
f 9 11 10
f 1 3 18
f 18 4 1
f 3 7 18
f 18 22 21
f 7 12 18
f 21 20 18
f 18 12 23
f 23 22 18
f 18 15 14
f 17 16 18
f 14 13 18
f 18 8 4
f 20 19 18
f 13 8 18
f 16 15 18

