# https://github.com/mikedh/trimesh
v 0.00381256 0.00494724 0.01700245
v 0.00381256 0.00494724 0.01869984
v 0.00383982 0.00500013 0.01700245
v 0.00630017 0.00494724 0.01700245
v 0.00630017 0.00494724 0.01869984
v 0.00383982 0.00500013 0.01869984
v 0.00399030 0.00523642 0.01700245
v 0.00665400 0.00582036 0.01700245
v 0.00665400 0.00582036 0.01869984
v 0.00430852 0.00573592 0.01869984
v 0.00430852 0.00573592 0.01700245
v 0.00665400 0.00810693 0.01700245
v 0.00665400 0.00810693 0.01869984
v 0.00483982 0.00642811 0.01869984
v 0.00483982 0.00642811 0.01700245
v 0.00629405 0.00783074 0.01700245
v 0.00607208 0.00766032 0.01869984
v 0.00542869 0.00707081 0.01869984
v 0.00542869 0.00707081 0.01700245
v 0.00607208 0.00766032 0.01700245
f 7 10 11
f 6 7 3
f 10 7 6
f 16 13 12
f 17 16 20
f 13 16 17
f 8 12 13
f 13 9 8
f 1 4 5
f 5 2 1
f 5 4 8
f 8 9 5
f 1 2 6
f 6 3 1
f 15 10 14
f 11 10 15
f 19 15 18
f 18 15 14
f 16 12 8
f 16 4 1
f 8 4 16
f 1 3 16
f 11 15 16
f 16 7 11
f 3 7 16
f 16 15 19
f 19 20 16
f 9 13 17
f 17 6 2
f 2 5 17
f 17 5 9
f 14 10 17
f 10 6 17
f 17 18 14
f 17 20 19
f 19 18 17

