# https://github.com/mikedh/trimesh
v -0.00262232 -0.00620151 -0.01439956
v -0.00262232 -0.00446966 -0.01439956
v -0.00254998 -0.00520014 -0.01441017
v -0.00254617 -0.00528727 -0.01441017
v -0.00253479 -0.00537356 -0.01441017
v -0.00251592 -0.00545866 -0.01441017
v -0.00248967 -0.00554190 -0.01441017
v -0.00245631 -0.00562259 -0.01441017
v -0.00241603 -0.00569989 -0.01441017
v -0.00236916 -0.00577347 -0.01441017
v -0.00233457 -0.00581856 -0.01441017
v -0.00233457 -0.00620151 -0.01439956
v -0.00262232 -0.00620151 -0.00357053
v -0.00233457 -0.00446966 -0.01439956
v -0.00233457 -0.00458137 -0.01441017
v -0.00236916 -0.00462647 -0.01441017
v -0.00241603 -0.00470004 -0.01441017
v -0.00245631 -0.00477751 -0.01441017
v -0.00248967 -0.00485804 -0.01441017
v -0.00251592 -0.00494127 -0.01441017
v -0.00253479 -0.00502637 -0.01441017
v -0.00254617 -0.00511300 -0.01441017
v -0.00262232 -0.00446966 -0.00357053
v -0.00233457 -0.00620151 -0.00357053
v -0.00233457 -0.00446966 -0.00357053
f 1 2 3
f 1 11 12
f 2 14 15
f 10 11 1
f 1 9 10
f 1 7 8
f 8 9 1
f 1 3 4
f 4 5 1
f 6 7 1
f 1 5 6
f 22 3 2
f 2 21 22
f 2 19 20
f 20 21 2
f 2 15 16
f 16 17 2
f 18 19 2
f 2 17 18
f 1 13 23
f 23 2 1
f 25 14 23
f 23 14 2
f 24 23 13
f 25 23 24
f 24 13 1
f 1 12 24
f 25 24 15
f 15 12 11
f 15 14 25
f 15 24 12
f 18 15 11
f 18 8 7
f 7 6 18
f 11 10 18
f 18 4 3
f 18 20 19
f 18 10 9
f 9 8 18
f 5 4 18
f 18 6 5
f 3 22 18
f 18 16 15
f 18 22 21
f 21 20 18
f 17 16 18

