# https://github.com/mikedh/trimesh
v 0.01249983 0.00999957 0.01869984
v 0.01249983 0.00999957 0.01700245
v 0.01190859 0.00997402 0.01700245
v 0.01162883 0.00996167 0.01869984
v 0.01337155 0.00996167 0.01869984
v 0.01277959 0.00998765 0.01700245
v 0.01162883 0.00996167 0.01700245
v 0.01104120 0.00988458 0.01700245
v 0.01076360 0.00984795 0.01869984
v 0.01337155 0.00996167 0.01700245
v 0.01423606 0.00984795 0.01869984
v 0.01076360 0.00984795 0.01700245
v 0.01018534 0.00971975 0.01700245
v 0.00991207 0.00965884 0.01869984
v 0.01423606 0.00984795 0.01700245
v 0.01508759 0.00965884 0.01869984
v 0.01450933 0.00978747 0.01700245
v 0.00991207 0.00965884 0.01700245
v 0.00929848 0.00947314 0.01869984
v 0.01535509 0.00957494 0.01700245
v 0.01508759 0.00965884 0.01700245
v 0.01570551 0.00946420 0.01869984
v 0.00971523 0.00959921 0.01700245
v 0.00914995 0.00942118 0.01700245
v 0.00908001 0.00939690 0.01700245
v 0.00908001 0.00939690 0.01869984
v 0.01570551 0.00946420 0.01700245
v 0.01570551 0.00564884 0.01869984
v 0.00853275 0.00916989 0.01700245
v 0.00834096 0.00909024 0.01869984
v 0.01570551 0.00564884 0.01700245
v 0.00858611 0.00564884 0.01869984
v 0.00834096 0.00909024 0.01700245
v 0.00834096 0.00591802 0.01869984
v 0.00858611 0.00564884 0.01700245
v 0.00834096 0.00591802 0.01700245
f 7 8 4
f 4 8 9
f 6 1 5
f 2 1 6
f 5 10 6
f 4 1 3
f 3 1 2
f 3 7 4
f 12 9 8
f 22 27 20
f 16 20 21
f 22 20 16
f 29 33 30
f 30 26 29
f 29 26 25
f 25 26 19
f 19 14 18
f 14 9 13
f 18 14 13
f 9 12 13
f 15 11 17
f 11 16 17
f 17 16 21
f 23 19 18
f 25 19 24
f 19 23 24
f 28 32 31
f 31 32 35
f 22 28 31
f 31 27 22
f 35 32 36
f 32 34 36
f 36 34 30
f 30 33 36
f 15 10 11
f 11 10 5
f 19 28 22
f 19 1 4
f 4 9 19
f 19 32 28
f 30 34 19
f 19 34 32
f 5 1 19
f 19 26 30
f 19 11 5
f 19 9 14
f 22 16 19
f 19 16 11
f 24 20 27
f 35 36 24
f 24 31 35
f 27 31 24
f 33 29 24
f 2 6 24
f 24 3 2
f 24 36 33
f 24 10 15
f 15 17 24
f 8 7 24
f 24 6 10
f 18 13 24
f 7 3 24
f 24 12 8
f 21 20 24
f 24 29 25
f 24 13 12
f 24 17 21
f 24 23 18

