# https://github.com/mikedh/trimesh
v -0.02074663 -0.01239796 0.01021878
v -0.02087436 -0.01239217 0.01021878
v -0.02074663 -0.01020733 0.01021878
v -0.02074663 -0.01239796 0.01439996
v -0.02087436 -0.01239217 0.01439996
v -0.02103497 -0.01237116 0.01021878
v -0.02270000 -0.01020733 0.01021878
v -0.02074663 -0.01020733 0.01429921
v -0.02074663 -0.01065292 0.01440282
v -0.02074702 -0.01199462 0.01440282
v -0.02085256 -0.01199333 0.01440282
v -0.02104759 -0.01236945 0.01439996
v -0.02120553 -0.01233449 0.01021878
v -0.02270000 -0.01040010 0.01021878
v -0.02270000 -0.01020733 0.01439996
v -0.02110304 -0.01020733 0.01440282
v -0.02100419 -0.01197339 0.01440282
v -0.02121796 -0.01233171 0.01439996
v -0.02138412 -0.01227938 0.01021878
v -0.02269216 -0.01057443 0.01021878
v -0.02270000 -0.01040010 0.01439996
v -0.02244971 -0.01024957 0.01440282
v -0.02244780 -0.01020733 0.01440282
v -0.02115295 -0.01194015 0.01440282
v -0.02138412 -0.01227938 0.01439996
v -0.02154530 -0.01221248 0.01021878
v -0.02266941 -0.01074769 0.01021878
v -0.02269216 -0.01057443 0.01439996
v -0.02244302 -0.01040289 0.01440282
v -0.02129865 -0.01189405 0.01440282
v -0.02143995 -0.01183594 0.01440282
v -0.02154530 -0.01221248 0.01439996
v -0.02168909 -0.01213764 0.01021878
v -0.02263174 -0.01091774 0.01021878
v -0.02266941 -0.01074769 0.01439996
v -0.02242313 -0.01055428 0.01440282
v -0.02157532 -0.01176539 0.01440282
v -0.02170037 -0.01213164 0.01439996
v -0.02183632 -0.01204480 0.01021878
v -0.02257916 -0.01108435 0.01021878
v -0.02263174 -0.01091774 0.01439996
v -0.02239005 -0.01070331 0.01440282
v -0.02170401 -0.01168326 0.01440282
v -0.02184703 -0.01203815 0.01439996
v -0.02197533 -0.01193951 0.01021878
v -0.02250650 -0.01125676 0.01021878
v -0.02251224 -0.01124561 0.01439996
v -0.02257916 -0.01108435 0.01439996
v -0.02234436 -0.01084869 0.01440282
v -0.02182485 -0.01159020 0.01440282
v -0.02198546 -0.01193179 0.01439996
v -0.02211395 -0.01181407 0.01021878
v -0.02243193 -0.01140000 0.01021878
v -0.02243193 -0.01140000 0.01439996
v -0.02221548 -0.01112509 0.01440282
v -0.02228585 -0.01098979 0.01440282
v -0.02193728 -0.01148727 0.01440282
v -0.02211395 -0.01181407 0.01439996
v -0.02222332 -0.01169463 0.01021878
v -0.02233824 -0.01154710 0.01021878
v -0.02233824 -0.01154710 0.01439996
v -0.02213346 -0.01125418 0.01440282
v -0.02204034 -0.01137469 0.01440282
v -0.02223174 -0.01168519 0.01439996
f 8 16 9
f 10 4 9
f 60 59 64
f 54 46 53
f 58 63 64
f 64 59 58
f 26 32 33
f 38 33 32
f 36 35 41
f 61 60 64
f 52 58 59
f 44 45 39
f 39 38 44
f 33 38 39
f 63 58 57
f 44 43 51
f 51 45 44
f 51 57 58
f 51 52 45
f 58 52 51
f 32 31 37
f 37 38 32
f 37 43 44
f 44 38 37
f 25 31 32
f 24 25 18
f 29 21 28
f 29 28 35
f 29 35 36
f 54 61 62
f 64 63 62
f 62 61 64
f 47 56 48
f 46 54 47
f 40 46 47
f 47 48 40
f 49 41 48
f 48 56 49
f 50 51 43
f 57 51 50
f 13 18 19
f 18 25 19
f 17 24 18
f 31 25 30
f 25 24 30
f 21 29 22
f 22 23 15
f 15 21 22
f 54 62 55
f 55 47 54
f 56 47 55
f 36 41 42
f 41 49 42
f 4 10 11
f 12 17 18
f 12 11 17
f 13 6 12
f 12 18 13
f 4 11 5
f 11 12 5
f 6 2 5
f 5 12 6
f 1 3 8
f 8 4 1
f 9 4 8
f 23 3 7
f 23 8 3
f 16 8 23
f 7 15 23
f 28 20 27
f 27 35 28
f 41 34 40
f 40 48 41
f 27 34 41
f 41 35 27
f 53 60 61
f 61 54 53
f 21 15 7
f 7 14 21
f 21 14 20
f 20 28 21
f 19 3 1
f 7 3 19
f 26 33 19
f 59 60 19
f 40 34 19
f 19 39 45
f 19 46 40
f 1 2 19
f 19 60 53
f 27 20 19
f 53 46 19
f 19 34 27
f 19 14 7
f 19 52 59
f 19 6 13
f 20 14 19
f 45 52 19
f 33 39 19
f 19 2 6
f 19 32 26
f 19 25 32
f 11 10 9
f 9 16 11
f 16 23 11
f 31 30 11
f 11 37 31
f 11 50 43
f 63 57 11
f 11 62 63
f 56 55 11
f 43 37 11
f 36 42 11
f 11 29 36
f 23 22 11
f 11 49 56
f 57 50 11
f 24 17 11
f 11 30 24
f 11 22 29
f 11 55 62
f 11 42 49
f 1 4 5
f 5 2 1

