# https://github.com/mikedh/trimesh
v 0.01461298 -0.00153558 0.01613282
v 0.01461298 -0.00187608 0.01613282
v 0.01461298 -0.00153558 0.01470006
v 0.01399612 -0.00153558 0.01613282
v 0.01399612 -0.00187608 0.01613282
v 0.01461298 -0.00187608 0.01470006
v 0.01434396 -0.00153558 0.01440980
v 0.01399612 -0.00153558 0.01440980
v 0.01399612 -0.00187608 0.01470006
v 0.01399612 -0.00187421 0.01440980
v 0.01403731 -0.00184265 0.01440980
v 0.01404274 -0.00183848 0.01440980
v 0.01419709 -0.00169706 0.01440980
v 0.01433387 -0.00154774 0.01440980
v 0.01433846 -0.00154271 0.01440980
f 7 3 6
f 10 6 9
f 7 6 15
f 12 13 6
f 6 13 14
f 14 15 6
f 11 6 10
f 11 12 6
f 5 1 4
f 5 2 1
f 1 3 8
f 4 1 8
f 8 3 7
f 6 3 1
f 1 2 6
f 9 5 4
f 4 8 9
f 9 8 10
f 2 5 9
f 9 6 2
f 11 8 7
f 10 8 11
f 7 15 11
f 11 14 13
f 13 12 11
f 15 14 11

