# https://github.com/mikedh/trimesh
v -0.01683927 0.01090246 -0.01590000
v -0.01683927 0.01199806 -0.01590000
v -0.01628137 0.01090246 -0.01590000
v -0.01683927 0.01090246 0.01439965
v -0.01628137 0.01199806 -0.01590000
v -0.01683927 0.01227496 -0.01486656
v -0.01628137 0.01090246 0.01439965
v -0.01683927 0.01091815 0.01590000
v -0.01628137 0.01229328 -0.01479808
v -0.01683927 0.01235910 -0.01455217
v -0.01628137 0.01239912 -0.01440276
v -0.01628137 0.01096681 0.01590000
v -0.01683927 0.01232172 0.01590000
v -0.01683927 0.01239487 -0.01441832
v -0.01683927 0.01239985 -0.01439965
v -0.01628137 0.01239985 -0.01439965
v -0.01628137 0.01233711 0.01590000
v -0.01667808 0.01234239 0.01590000
v -0.01683927 0.01239985 0.01439965
v -0.01628137 0.01239985 0.01439965
v -0.01632195 0.01234239 0.01590000
v -0.01650002 0.01234987 0.01590000
f 2 6 5
f 8 4 7
f 7 12 8
f 15 16 11
f 22 20 19
f 10 11 6
f 9 5 6
f 6 11 9
f 19 13 18
f 18 22 19
f 17 20 21
f 20 22 21
f 15 11 14
f 11 10 14
f 1 2 5
f 5 3 1
f 7 4 1
f 1 3 7
f 15 19 20
f 20 16 15
f 9 7 3
f 3 5 9
f 17 12 9
f 9 20 17
f 12 7 9
f 16 20 9
f 9 11 16
f 21 12 17
f 21 13 8
f 8 12 21
f 21 18 13
f 22 18 21
f 1 4 14
f 14 2 1
f 14 19 15
f 14 4 8
f 8 13 14
f 14 6 2
f 14 13 19
f 14 10 6

