# https://github.com/mikedh/trimesh
v -0.02152478 0.01067144 0.01518791
v -0.02186528 0.01067144 0.01518791
v -0.02152478 0.01049997 0.01518791
v -0.02152478 0.01067144 0.01482631
v -0.02186528 0.01067144 0.01482631
v -0.02186528 0.01049997 0.01518791
v -0.02186528 0.01010695 0.01516525
v -0.02152631 0.01010695 0.01482631
v -0.02152478 0.01049997 0.01482631
v -0.02186528 0.01010695 0.01482631
f 7 3 6
f 7 10 8
f 8 3 7
f 3 8 9
f 1 4 5
f 2 1 5
f 2 5 6
f 6 10 7
f 5 10 6
f 6 1 2
f 6 3 1
f 9 5 4
f 9 10 5
f 9 8 10
f 9 4 1
f 1 3 9

