# https://github.com/mikedh/trimesh
v -0.02074663 -0.01062384 0.01021878
v -0.02074663 -0.01170515 0.01021878
v -0.02074663 -0.01062384 0.00936356
v -0.02268588 -0.01062384 0.01021878
v -0.02074663 -0.01170515 0.00936356
v -0.02221398 -0.01170515 0.01021878
v -0.02268588 -0.01062384 0.00936356
v -0.02266956 -0.01074739 0.01021878
v -0.02215323 -0.01170515 0.00936356
v -0.02221493 -0.01170420 0.01021878
v -0.02221398 -0.01170515 0.00999284
v -0.02266956 -0.01074739 0.00936356
v -0.02263178 -0.01091772 0.01021878
v -0.02221550 -0.01170357 0.00936356
v -0.02223201 -0.01168557 0.01021878
v -0.02223201 -0.01168557 0.00936356
v -0.02263178 -0.01091772 0.00936356
v -0.02262267 -0.01094684 0.00936356
v -0.02262419 -0.01094186 0.01021878
v -0.02232275 -0.01156721 0.01021878
v -0.02231971 -0.01157134 0.00936356
v -0.02257920 -0.01108414 0.00936356
v -0.02257920 -0.01108414 0.01021878
v -0.02233812 -0.01154710 0.01021878
v -0.02233812 -0.01154710 0.00936356
v -0.02256762 -0.01111231 0.00936356
v -0.02251257 -0.01124517 0.01021878
v -0.02241842 -0.01142133 0.01021878
v -0.02241557 -0.01142567 0.00936356
v -0.02251257 -0.01124517 0.00936356
v -0.02243190 -0.01139994 0.01021878
v -0.02243190 -0.01139994 0.00936356
v -0.02241880 -0.01142059 0.00936356
f 14 9 11
f 10 11 6
f 14 11 10
f 21 20 24
f 24 25 21
f 15 20 21
f 28 31 32
f 28 25 24
f 26 30 27
f 27 23 26
f 26 23 22
f 22 23 18
f 13 17 18
f 15 21 16
f 16 10 15
f 14 10 16
f 25 28 29
f 13 18 19
f 19 18 23
f 33 28 32
f 33 29 28
f 4 1 7
f 1 3 7
f 1 2 5
f 5 3 1
f 2 6 11
f 11 5 2
f 11 9 5
f 30 32 31
f 27 30 31
f 4 7 12
f 12 8 4
f 13 8 12
f 12 17 13
f 19 2 1
f 19 1 4
f 19 6 2
f 4 8 19
f 24 20 19
f 27 31 19
f 19 10 6
f 19 8 13
f 15 10 19
f 19 20 15
f 19 23 27
f 19 28 24
f 31 28 19
f 33 7 3
f 3 5 33
f 33 9 14
f 5 9 33
f 30 26 33
f 33 32 30
f 22 18 33
f 14 16 33
f 33 12 7
f 33 21 25
f 33 26 22
f 17 12 33
f 33 18 17
f 33 16 21
f 25 29 33

