# https://github.com/mikedh/trimesh
v 0.00983962 0.00045343 0.01872443
v 0.01173322 0.00044841 0.01870148
v 0.01095695 0.00044841 0.01965437
v 0.00987447 0.00045573 0.01944478
v 0.00985278 0.00045762 0.01924079
v 0.00989208 0.00069830 0.01870148
v 0.01173322 0.00045008 0.01965437
v 0.01173322 0.00258651 0.01870148
v 0.00991098 0.00045783 0.01961594
v 0.01036010 0.00150972 0.01965437
v 0.00992581 0.00068993 0.01944478
v 0.00990487 0.00069558 0.01924079
v 0.00997530 0.00091910 0.01924079
v 0.00996288 0.00092287 0.01870148
v 0.01173322 0.00251075 0.01962312
v 0.01161255 0.00246387 0.01965437
v 0.01157585 0.00253670 0.01870148
v 0.01158086 0.00252477 0.01924079
v 0.01173322 0.00257270 0.01924079
v 0.00996140 0.00068512 0.01961547
v 0.01022275 0.00131529 0.01961547
v 0.01011673 0.00111165 0.01961547
v 0.01003072 0.00090382 0.01961547
v 0.01049986 0.00169013 0.01965437
v 0.01047762 0.00169682 0.01957658
v 0.01033749 0.00151474 0.01957658
v 0.00999569 0.00091157 0.01944478
v 0.01008485 0.00112651 0.01944478
v 0.01006520 0.00113572 0.01924079
v 0.01005297 0.00114053 0.01870148
v 0.01173322 0.00254508 0.01946856
v 0.01159680 0.00248103 0.01957658
v 0.01139254 0.00238497 0.01961547
v 0.01100496 0.00215035 0.01965437
v 0.01135824 0.00244650 0.01870148
v 0.01136418 0.00243499 0.01924079
v 0.01158827 0.00250426 0.01944478
v 0.01137344 0.00241532 0.01944478
v 0.01019198 0.00133266 0.01944478
v 0.01082331 0.00201180 0.01965437
v 0.01064388 0.00186237 0.01961547
v 0.01061571 0.00188456 0.01944478
v 0.01045853 0.00171273 0.01944478
v 0.01031691 0.00152855 0.01944478
v 0.01017326 0.00134354 0.01924079
v 0.01016158 0.00134961 0.01870148
v 0.01118494 0.00227739 0.01961547
v 0.01098549 0.00216249 0.01957658
v 0.01114916 0.00233788 0.01870148
v 0.01115621 0.00232679 0.01924079
v 0.01116714 0.00230795 0.01944478
v 0.01029912 0.00154090 0.01924079
v 0.01080255 0.00202248 0.01957658
v 0.01078661 0.00204152 0.01944478
v 0.01060014 0.00189983 0.01924079
v 0.01044184 0.00172675 0.01924079
v 0.01028818 0.00154802 0.01870148
v 0.01097122 0.00218279 0.01944478
v 0.01095065 0.00221126 0.01870148
v 0.01095880 0.00220079 0.01924079
v 0.01043146 0.00173491 0.01870148
v 0.01077307 0.00205806 0.01924079
v 0.01076418 0.00206768 0.01870148
v 0.01059050 0.00190842 0.01870148
f 1 2 3
f 6 2 1
f 7 3 2
f 1 3 4
f 3 9 4
f 10 9 3
f 7 15 16
f 5 6 1
f 1 4 5
f 11 4 9
f 8 18 19
f 37 19 18
f 12 5 4
f 4 11 12
f 6 5 12
f 9 10 20
f 10 23 20
f 20 11 9
f 22 23 10
f 27 22 28
f 23 22 27
f 11 20 27
f 27 20 23
f 25 10 24
f 28 22 39
f 61 55 64
f 32 16 15
f 19 37 31
f 31 32 15
f 37 32 31
f 59 50 49
f 6 12 13
f 13 12 11
f 11 27 13
f 13 27 28
f 10 25 26
f 26 25 43
f 56 43 55
f 55 61 56
f 33 34 16
f 16 32 33
f 38 37 18
f 38 32 37
f 38 33 32
f 17 18 8
f 36 38 18
f 50 38 36
f 36 17 35
f 18 17 36
f 36 35 49
f 49 50 36
f 64 55 63
f 6 13 14
f 29 13 28
f 28 39 29
f 44 26 43
f 39 26 44
f 43 56 44
f 21 39 22
f 21 26 39
f 21 22 10
f 10 26 21
f 43 25 42
f 55 43 42
f 50 59 60
f 51 38 50
f 50 60 51
f 30 29 46
f 30 14 13
f 13 29 30
f 24 40 41
f 41 40 53
f 53 42 41
f 41 25 24
f 41 42 25
f 54 42 53
f 55 42 54
f 61 57 52
f 52 56 61
f 52 44 56
f 52 57 46
f 39 44 52
f 33 38 47
f 38 51 47
f 34 33 47
f 58 51 60
f 60 54 58
f 55 54 62
f 62 54 60
f 62 63 55
f 59 63 62
f 62 60 59
f 46 29 45
f 45 52 46
f 45 29 39
f 39 52 45
f 48 47 51
f 51 58 48
f 34 47 48
f 48 40 34
f 53 40 48
f 48 54 53
f 48 58 54
f 2 8 31
f 31 7 2
f 31 15 7
f 8 19 31
f 40 10 3
f 3 7 40
f 24 10 40
f 7 16 40
f 16 34 40
f 2 6 30
f 30 8 2
f 64 63 30
f 30 61 64
f 30 17 8
f 6 14 30
f 49 35 30
f 30 59 49
f 35 17 30
f 30 63 59
f 46 57 30
f 30 57 61

