# https://github.com/mikedh/trimesh
v 0.01009438 -0.00001771 -0.01440534
v 0.01009438 0.00178819 -0.01440534
v 0.01095370 -0.00001771 -0.01440534
v 0.01009438 -0.00001771 0.00485741
v 0.01009438 0.00216174 -0.01439969
v 0.01020188 0.00192835 -0.01440534
v 0.01095370 0.00216174 -0.01440534
v 0.01095370 -0.00001771 0.00485741
v 0.01009438 0.00216174 0.00485741
v 0.01042285 0.00216174 -0.01440534
v 0.01037869 0.00212121 -0.01440534
v 0.01095370 0.00216174 0.00485741
f 6 2 5
f 5 10 11
f 11 6 5
f 8 4 1
f 1 3 8
f 3 7 8
f 8 7 12
f 4 8 9
f 9 8 12
f 1 4 2
f 2 9 5
f 4 9 2
f 12 7 10
f 5 9 10
f 10 9 12
f 11 3 1
f 11 7 3
f 1 2 11
f 11 10 7
f 2 6 11

