# https://github.com/mikedh/trimesh
v 0.01270488 -0.00193964 -0.01440723
v 0.01270488 -0.00123246 -0.01440723
v 0.01312496 -0.00193964 -0.01440723
v 0.01270488 -0.00193964 0.01440980
v 0.01312496 -0.00001771 -0.01439877
v 0.01312496 -0.00108252 -0.01440723
v 0.01270488 -0.00001809 -0.01439595
v 0.01312500 -0.00108252 -0.01439877
v 0.01312496 -0.00193964 0.01440980
v 0.01270488 -0.00001771 0.01440980
v 0.01270488 -0.00001771 -0.01364562
v 0.01312496 -0.00001771 0.01440980
f 6 5 8
f 3 6 8
f 8 9 3
f 8 5 12
f 12 9 8
f 5 7 11
f 5 6 2
f 2 7 5
f 3 4 1
f 3 9 4
f 12 10 4
f 4 9 12
f 10 12 11
f 11 12 5
f 4 10 2
f 1 4 2
f 10 11 2
f 2 11 7
f 2 3 1
f 6 3 2

