# https://github.com/mikedh/trimesh
v -0.01949289 0.00700938 -0.01590000
v -0.01949289 0.00920368 -0.01590000
v -0.01910167 0.00700938 -0.01590000
v -0.01949289 0.00700938 0.01590000
v -0.01910167 0.00920368 -0.01590000
v -0.01949289 0.00920368 0.01559806
v -0.01910167 0.00700938 0.01590000
v -0.01949289 0.00880757 0.01590000
v -0.01910167 0.00920368 0.01431249
v -0.01910167 0.00920068 0.01590000
v -0.01947741 0.00920368 0.01558561
v -0.01910312 0.00920368 0.01439965
v -0.01943230 0.00920368 0.01553892
v -0.01945328 0.00920368 0.01556071
v -0.01931043 0.00920368 0.01530235
v -0.01932472 0.00920368 0.01535527
v -0.01934452 0.00920368 0.01540507
v -0.01935957 0.00920368 0.01543308
v -0.01936976 0.00920368 0.01545176
v -0.01940016 0.00920368 0.01549845
f 10 6 8
f 10 9 12
f 15 16 10
f 10 12 15
f 10 20 13
f 10 16 17
f 11 6 10
f 19 20 10
f 10 13 14
f 14 11 10
f 10 17 18
f 18 19 10
f 1 2 5
f 5 3 1
f 1 3 7
f 7 4 1
f 8 2 1
f 1 4 8
f 8 6 2
f 4 7 8
f 8 7 10
f 3 5 9
f 9 7 3
f 10 7 9
f 18 5 2
f 2 6 18
f 18 9 5
f 18 12 9
f 16 15 18
f 18 17 16
f 18 15 12
f 18 13 20
f 6 11 18
f 20 19 18
f 18 14 13
f 11 14 18

