# https://github.com/mikedh/trimesh
v -0.01958108 0.01046171 -0.01590000
v -0.01980975 0.01081710 -0.01590000
v -0.01910170 0.01046171 -0.01590000
v -0.01980975 0.01046171 -0.01439899
v -0.01980975 0.01175930 -0.01590000
v -0.01910170 0.01175930 -0.01590000
v -0.01910170 0.01046171 0.01495377
v -0.01980975 0.01046171 0.01488733
v -0.01980975 0.01175930 0.01439807
v -0.01910170 0.01175930 0.01439807
v -0.01910170 0.01095986 0.01495377
v -0.01974619 0.01046171 0.01495377
v -0.01980975 0.01050007 0.01495377
v -0.01980975 0.01175574 0.01495377
v -0.01973586 0.01170875 0.01495377
v -0.01969622 0.01168347 0.01495377
v -0.01957505 0.01159049 0.01495377
v -0.01949714 0.01151911 0.01495377
v -0.01946255 0.01148736 0.01495377
v -0.01939123 0.01140950 0.01495377
v -0.01935948 0.01137482 0.01495377
v -0.01929516 0.01129099 0.01495377
v -0.01926653 0.01125365 0.01495377
v -0.01918446 0.01112498 0.01495377
v -0.01913566 0.01103137 0.01495377
v -0.01911397 0.01098958 0.01495377
v -0.01910919 0.01097803 0.01495377
f 1 4 2
f 14 10 9
f 12 13 8
f 27 11 10
f 10 26 27
f 10 24 25
f 25 26 10
f 16 17 10
f 18 19 10
f 10 17 18
f 23 24 10
f 10 19 20
f 20 21 10
f 15 10 14
f 15 16 10
f 10 21 22
f 22 23 10
f 2 5 1
f 1 6 3
f 5 6 1
f 9 13 14
f 9 5 2
f 2 4 9
f 4 8 9
f 8 13 9
f 9 6 5
f 9 10 6
f 12 1 3
f 3 7 12
f 4 1 12
f 12 8 4
f 3 6 11
f 11 7 3
f 6 10 11
f 14 13 22
f 22 12 7
f 7 11 22
f 13 12 22
f 11 27 22
f 22 25 24
f 19 18 22
f 22 20 19
f 24 23 22
f 22 27 26
f 26 25 22
f 17 16 22
f 22 18 17
f 22 15 14
f 21 20 22
f 16 15 22

