# https://github.com/mikedh/trimesh
v 0.01114786 0.00147880 0.01440980
v 0.01114786 0.00198150 0.01440980
v 0.01190014 0.00147880 0.01440980
v 0.01114786 0.00147880 0.01613282
v 0.01114786 0.00240378 0.01470006
v 0.01130000 0.00207840 0.01440980
v 0.01190014 0.00232291 0.01440980
v 0.01190014 0.00147880 0.01613282
v 0.01114786 0.00240378 0.01613282
v 0.01187878 0.00231820 0.01440980
v 0.01168561 0.00225726 0.01440980
v 0.01167913 0.00225517 0.01440980
v 0.01149207 0.00217775 0.01440980
v 0.01148574 0.00217512 0.01440980
v 0.01190014 0.00240378 0.01470006
v 0.01190014 0.00240378 0.01613282
f 15 7 5
f 6 2 5
f 5 14 6
f 5 7 10
f 13 14 5
f 5 12 13
f 11 12 5
f 5 10 11
f 8 4 1
f 1 3 8
f 4 8 9
f 9 8 16
f 1 4 2
f 2 9 5
f 4 9 2
f 15 8 3
f 3 7 15
f 16 8 15
f 5 9 15
f 15 9 16
f 11 3 1
f 11 7 3
f 1 2 11
f 2 6 11
f 11 6 14
f 11 10 7
f 14 13 11
f 11 13 12

