# https://github.com/mikedh/trimesh
v -0.00444183 -0.00679805 0.01699693
v -0.00640648 -0.00679772 0.01699386
v -0.00532627 -0.00679791 0.01699693
v -0.00444183 -0.00699997 0.01699693
v -0.00444183 -0.00679593 0.00957402
v -0.00640648 -0.00699995 0.01699386
v -0.00532627 -0.00679593 0.01008341
v -0.00640648 -0.00679593 0.01070326
v -0.00532627 -0.00699997 0.01699693
v -0.00444183 -0.00703625 0.01589838
v -0.00444183 -0.00679593 -0.01434559
v -0.00640648 -0.00703674 0.01587997
v -0.00640648 -0.00679593 -0.01434253
v -0.00616782 -0.00703674 0.01587997
v -0.00444183 -0.00703674 0.01587690
v -0.00532627 -0.00679593 -0.01434559
v -0.00444183 -0.00703674 -0.01434253
v -0.00640648 -0.00703674 -0.01434253
f 2 1 5
f 3 1 2
f 12 9 6
f 10 9 12
f 13 16 18
f 9 10 4
f 7 8 2
f 2 5 7
f 14 15 10
f 14 10 12
f 6 3 2
f 9 3 6
f 2 8 18
f 18 6 2
f 12 6 18
f 18 8 13
f 11 17 18
f 18 16 11
f 4 3 9
f 1 3 4
f 15 17 11
f 15 5 1
f 11 5 15
f 1 4 15
f 15 4 10
f 7 5 11
f 13 8 7
f 11 16 7
f 7 16 13
f 12 18 14
f 14 18 17
f 17 15 14

