# https://github.com/mikedh/trimesh
v -0.01533827 -0.01240000 -0.01439626
v -0.01533827 -0.01239310 -0.01442428
v -0.01508297 -0.01240000 -0.01439626
v -0.01533827 -0.01240000 0.01439655
v -0.01508297 -0.01236336 -0.01453633
v -0.01508297 -0.01238741 -0.01444606
v -0.01533827 -0.01234812 -0.01459236
v -0.01508297 -0.01240000 0.01439655
v -0.01508297 -0.01239874 0.01440277
v -0.01533827 -0.01239838 0.01440277
v -0.01533827 -0.01212975 -0.01540790
v -0.01533827 -0.01209640 -0.01553241
v -0.01508297 -0.01213407 -0.01539234
v -0.01508297 -0.01234728 0.01459576
v -0.01533827 -0.01234884 0.01458954
v -0.01533827 -0.01199840 -0.01589660
v -0.01508297 -0.01201226 -0.01584680
v -0.01508297 -0.01211392 0.01546733
v -0.01533827 -0.01199930 0.01590000
v -0.01533827 -0.01178729 -0.01589971
v -0.01508297 -0.01199846 -0.01589660
v -0.01508297 -0.01202359 0.01580351
v -0.01508297 -0.01199924 0.01589377
v -0.01508297 -0.01199738 0.01590000
v -0.01533827 -0.01194946 0.01590000
v -0.01508297 -0.01178729 -0.01589660
v -0.01533827 -0.01178729 0.01586576
v -0.01508297 -0.01178729 0.01590000
v -0.01533662 -0.01178729 0.01590000
f 20 21 16
f 26 21 20
f 17 16 21
f 4 8 9
f 25 29 27
f 5 6 2
f 2 7 5
f 2 3 1
f 2 6 3
f 16 17 12
f 5 12 13
f 13 12 17
f 5 7 11
f 11 12 5
f 4 9 10
f 9 15 10
f 19 18 22
f 14 18 19
f 19 15 14
f 14 15 9
f 23 24 19
f 19 22 23
f 8 4 1
f 1 3 8
f 20 27 29
f 28 26 29
f 29 26 20
f 28 29 24
f 24 25 19
f 29 25 24
f 1 4 10
f 10 27 20
f 16 12 10
f 19 25 10
f 20 16 10
f 10 2 1
f 10 25 27
f 7 2 10
f 10 15 19
f 10 11 7
f 12 11 10
f 23 8 3
f 23 26 28
f 3 6 23
f 21 26 23
f 23 17 21
f 23 6 5
f 28 24 23
f 23 9 8
f 5 13 23
f 23 13 17
f 23 14 9
f 23 22 18
f 18 14 23

