# https://github.com/mikedh/trimesh
v -0.02229799 -0.00061021 -0.01590000
v -0.02235318 0.00700938 -0.01569426
v -0.02229799 0.00700938 -0.01590000
v -0.02183521 -0.00061021 -0.01590000
v -0.02249150 -0.00061021 -0.01517679
v -0.02270000 -0.00061021 -0.01439746
v -0.02270000 0.00700938 -0.01439746
v -0.02183521 0.00700938 -0.01590000
v -0.02183521 -0.00061021 0.01594632
v -0.02270000 -0.00061021 0.01439702
v -0.02270000 0.00700938 0.01439702
v -0.02183521 0.00700938 0.01589956
v -0.02183521 0.00699969 0.01594632
v -0.02228563 -0.00061021 0.01594632
v -0.02249667 -0.00061021 0.01515764
v -0.02228563 0.00699969 0.01594632
v -0.02229799 0.00700938 0.01589956
f 7 2 6
f 6 2 5
f 2 1 5
f 3 1 2
f 11 10 15
f 16 17 11
f 11 15 16
f 16 15 14
f 11 7 10
f 10 7 6
f 4 1 3
f 3 8 4
f 12 9 4
f 4 8 12
f 12 13 9
f 17 3 2
f 2 7 17
f 17 7 11
f 8 3 17
f 17 12 8
f 4 9 15
f 15 10 6
f 15 1 4
f 6 5 15
f 15 5 1
f 9 14 15
f 9 13 16
f 16 14 9
f 13 12 16
f 12 17 16

