# https://github.com/mikedh/trimesh
v 0.00501206 0.00741767 0.00604845
v 0.00501206 0.01240000 0.00604845
v 0.00614449 0.00741767 0.00604845
v 0.00501206 0.00741767 0.01439998
v 0.00614449 0.01240000 0.00604845
v 0.00501206 0.01240000 0.01439998
v 0.00614449 0.00741767 0.01439998
v 0.00501206 0.00750108 0.01440734
v 0.00614449 0.01240000 0.00913403
v 0.00501206 0.01239707 0.01440980
v 0.00614449 0.01239707 0.01440980
v 0.00614449 0.01239854 0.01440407
v 0.00614449 0.01239903 0.01440161
v 0.00614449 0.00847950 0.01440980
v 0.00515320 0.00764935 0.01440980
v 0.00501206 0.00790639 0.01440980
f 9 6 13
f 4 7 8
f 7 15 8
f 15 16 8
f 14 15 7
f 11 6 10
f 13 6 12
f 6 11 12
f 1 2 5
f 5 3 1
f 7 4 1
f 1 3 7
f 9 5 2
f 2 6 9
f 1 4 8
f 8 2 1
f 8 6 2
f 10 6 8
f 8 16 10
f 10 16 11
f 11 16 15
f 15 14 11
f 3 5 12
f 12 7 3
f 12 9 13
f 5 9 12
f 12 14 7
f 12 11 14

