# https://github.com/mikedh/trimesh
v 0.00432449 -0.00951062 0.01440980
v 0.00494997 -0.01025180 0.01440980
v 0.00494997 -0.01025180 0.01590000
v 0.00432449 -0.00951033 0.01590000
v 0.00432449 -0.00729172 0.01440980
v 0.00719738 -0.01025180 0.01440980
v 0.00679801 -0.01025180 0.01590000
v 0.00432449 -0.00735981 0.01590000
v 0.00432449 -0.00729172 0.01572437
v 0.00481132 -0.00729172 0.01440980
v 0.00719738 -0.00918494 0.01440980
v 0.00679801 -0.00941269 0.01590000
f 2 3 1
f 1 3 4
f 9 10 5
f 11 10 9
f 12 11 9
f 9 8 12
f 7 2 6
f 3 2 7
f 6 11 7
f 7 11 12
f 8 7 12
f 8 4 3
f 3 7 8
f 10 2 1
f 1 5 10
f 6 2 10
f 10 11 6
f 9 5 1
f 4 8 9
f 1 4 9

