# https://github.com/mikedh/trimesh
v -0.01579701 0.01035581 -0.01590000
v -0.01579701 0.01199801 -0.01590000
v -0.01531571 0.01035581 -0.01590000
v -0.01579701 0.01035581 -0.00205599
v -0.01531571 0.01199801 -0.01590000
v -0.01579701 0.01225913 -0.01492566
v -0.01531571 0.01224933 -0.01496225
v -0.01531571 0.01035581 -0.00205599
v -0.01579701 0.01240000 -0.00205599
v -0.01579701 0.01240000 -0.01439987
v -0.01531571 0.01240000 -0.01439987
v -0.01531571 0.01240000 -0.00205599
f 5 2 7
f 6 7 2
f 6 11 7
f 10 11 6
f 8 4 1
f 1 3 8
f 2 3 1
f 2 5 3
f 1 4 6
f 6 4 9
f 9 10 6
f 6 2 1
f 12 8 3
f 3 5 12
f 5 7 12
f 7 11 12
f 4 8 12
f 9 4 12
f 12 10 9
f 12 11 10

