# https://github.com/mikedh/trimesh
v -0.02087159 -0.00850867 -0.01590000
v -0.02087159 -0.00752748 -0.01590000
v -0.02046602 -0.00850867 -0.01590000
v -0.02087159 -0.00850867 0.01400121
v -0.02046602 -0.00752748 -0.01590000
v -0.02087159 -0.00752748 0.01590000
v -0.02046602 -0.00850867 0.01439965
v -0.02086849 -0.00850867 0.01519963
v -0.02087159 -0.00850694 0.01439965
v -0.02046602 -0.00752748 0.01590000
v -0.02087159 -0.00839993 0.01590000
v -0.02046602 -0.00841540 0.01590000
v -0.02053153 -0.00850867 0.01519963
v -0.02085233 -0.00850867 0.01524632
v -0.02084836 -0.00850867 0.01524943
v -0.02069999 -0.00850867 0.01529924
v -0.02055063 -0.00850867 0.01524943
v -0.02054769 -0.00850867 0.01524632
f 16 12 11
f 11 9 8
f 8 9 4
f 13 7 12
f 16 11 15
f 17 12 16
f 14 11 8
f 14 15 11
f 18 13 12
f 12 17 18
f 1 2 5
f 5 3 1
f 3 5 10
f 10 7 3
f 12 7 10
f 10 5 2
f 2 6 10
f 12 10 11
f 11 10 6
f 4 2 1
f 4 6 2
f 4 11 6
f 9 11 4
f 1 3 18
f 3 7 18
f 16 15 18
f 18 4 1
f 8 4 18
f 7 13 18
f 18 17 16
f 18 14 8
f 15 14 18

