# https://github.com/mikedh/trimesh
v 0.01221971 -0.00246893 0.01302823
v 0.01100555 -0.00246893 0.01302823
v 0.01221971 -0.00329042 0.01302823
v 0.01221971 -0.00246893 -0.01440723
v 0.01088567 -0.00246893 0.01291006
v 0.01088567 -0.00246925 0.01302823
v 0.01088567 -0.00329042 0.01302823
v 0.01221971 -0.00329042 -0.01439917
v 0.01221971 -0.00298611 -0.01440723
v 0.01088567 -0.00246893 -0.01440723
v 0.01088567 -0.00329042 -0.01439917
v 0.01197902 -0.00295435 -0.01440723
v 0.01088567 -0.00252530 -0.01440723
v 0.01100007 -0.00259808 -0.01440723
v 0.01123227 -0.00271896 -0.01440723
v 0.01147400 -0.00281908 -0.01440723
v 0.01172344 -0.00289773 -0.01440723
f 5 6 2
f 9 8 11
f 11 16 17
f 13 14 11
f 15 16 11
f 11 14 15
f 12 9 11
f 11 17 12
f 1 4 2
f 2 10 5
f 4 10 2
f 7 3 1
f 1 2 7
f 7 2 6
f 7 8 3
f 11 8 7
f 9 4 1
f 1 3 9
f 3 8 9
f 5 10 13
f 13 6 5
f 11 7 13
f 13 7 6
f 12 10 4
f 4 9 12
f 16 15 12
f 12 13 10
f 12 17 16
f 14 13 12
f 12 15 14

