# https://github.com/mikedh/trimesh
v -0.02192475 -0.01035818 0.01579410
v -0.02189344 -0.01020733 0.01519339
v -0.02197436 -0.01022882 0.01578375
v -0.02201009 -0.01048118 0.01577163
v -0.02190335 -0.01052735 0.01579345
v -0.02189278 -0.01093273 0.01575529
v -0.02188952 -0.01050013 0.01519339
v -0.02244043 -0.01040270 0.01523749
v -0.02244588 -0.01022895 0.01523932
v -0.02241941 -0.01022882 0.01538386
v -0.02237878 -0.01022882 0.01548013
v -0.02231381 -0.01022882 0.01557681
v -0.02221203 -0.01022882 0.01567672
v -0.02212391 -0.01022882 0.01573270
v -0.02206177 -0.01036925 0.01575770
v -0.02210518 -0.01049784 0.01573165
v -0.02207822 -0.01061944 0.01573165
v -0.02198498 -0.01059438 0.01577163
v -0.02194082 -0.01069691 0.01577410
v -0.02194049 -0.01082626 0.01575740
v -0.02203422 -0.01087205 0.01570548
v -0.02190242 -0.01110622 0.01570171
v -0.02189159 -0.01123495 0.01564902
v -0.02242050 -0.01055381 0.01523749
v -0.02189055 -0.01143197 0.01548342
v -0.02191239 -0.01150676 0.01523643
v -0.02203825 -0.01137321 0.01523749
v -0.02213105 -0.01125224 0.01523749
v -0.02221284 -0.01112378 0.01523749
v -0.02228326 -0.01098857 0.01523749
v -0.02234159 -0.01084801 0.01523749
v -0.02238749 -0.01070263 0.01523749
v -0.02241505 -0.01040016 0.01538033
v -0.02239545 -0.01054910 0.01538033
v -0.02237524 -0.01039672 0.01547678
v -0.02231931 -0.01039176 0.01556487
v -0.02224900 -0.01038566 0.01564191
v -0.02216650 -0.01037853 0.01570548
v -0.02219182 -0.01051323 0.01567549
v -0.02212358 -0.01076826 0.01567549
v -0.02204081 -0.01073812 0.01573165
v -0.02210932 -0.01090703 0.01564191
v -0.02200247 -0.01100179 0.01568254
v -0.02200410 -0.01116295 0.01560492
v -0.02192012 -0.01132513 0.01556140
v -0.02236299 -0.01069576 0.01538033
v -0.02205616 -0.01119946 0.01552200
v -0.02201510 -0.01135324 0.01539239
v -0.02190351 -0.01148069 0.01537892
v -0.02210627 -0.01123456 0.01539239
v -0.02219095 -0.01111068 0.01538033
v -0.02226033 -0.01097750 0.01538033
v -0.02231779 -0.01083898 0.01538033
v -0.02232438 -0.01068533 0.01547678
v -0.02233630 -0.01053867 0.01551041
v -0.02226768 -0.01052659 0.01560492
v -0.02219193 -0.01064984 0.01564985
v -0.02219585 -0.01079459 0.01560492
v -0.02217325 -0.01093680 0.01556487
v -0.02207871 -0.01104580 0.01560492
v -0.02213905 -0.01108066 0.01551041
v -0.02222406 -0.01096058 0.01547678
v -0.02226131 -0.01081838 0.01551041
v -0.02227013 -0.01067083 0.01556487
f 10 2 9
f 1 2 3
f 25 26 7
f 7 23 25
f 7 31 32
f 32 24 7
f 8 2 7
f 7 24 8
f 9 2 8
f 28 29 7
f 30 31 7
f 7 29 30
f 11 12 2
f 2 10 11
f 14 3 2
f 7 26 27
f 27 28 7
f 5 2 1
f 6 23 7
f 7 2 6
f 2 5 6
f 12 11 36
f 2 12 13
f 13 14 2
f 3 14 15
f 15 14 16
f 45 25 23
f 23 44 45
f 45 47 25
f 44 47 45
f 43 44 23
f 26 25 49
f 49 27 26
f 57 58 40
f 41 40 21
f 59 58 63
f 34 8 24
f 56 57 39
f 39 57 40
f 16 14 38
f 14 13 38
f 38 39 16
f 1 3 4
f 3 15 4
f 4 5 1
f 18 5 4
f 4 15 16
f 23 6 22
f 22 43 23
f 22 6 21
f 21 43 22
f 44 43 60
f 59 61 60
f 60 47 44
f 60 61 47
f 52 30 29
f 31 30 52
f 40 41 17
f 16 39 17
f 17 39 40
f 17 41 18
f 17 4 16
f 18 4 17
f 19 5 18
f 19 6 5
f 21 6 20
f 20 41 21
f 6 19 20
f 18 41 20
f 20 19 18
f 35 36 11
f 35 11 10
f 56 39 37
f 37 36 56
f 37 38 13
f 39 38 37
f 12 36 37
f 37 13 12
f 42 60 43
f 21 40 42
f 42 43 21
f 40 58 42
f 42 58 59
f 59 60 42
f 29 28 51
f 51 52 29
f 62 61 59
f 59 63 62
f 62 51 61
f 52 51 62
f 24 32 46
f 46 34 24
f 33 35 10
f 34 35 33
f 8 34 33
f 33 10 9
f 9 8 33
f 56 36 55
f 36 35 55
f 55 35 34
f 25 47 48
f 48 49 25
f 27 49 48
f 31 52 53
f 53 32 31
f 53 46 32
f 53 62 63
f 52 62 53
f 54 53 63
f 46 53 54
f 34 46 54
f 54 55 34
f 50 51 28
f 28 27 50
f 27 48 50
f 50 48 47
f 47 61 50
f 61 51 50
f 64 63 58
f 64 54 63
f 64 57 56
f 58 57 64
f 56 55 64
f 55 54 64

