# https://github.com/mikedh/trimesh
v -0.02229797 0.00700969 -0.01590000
v -0.02239504 0.01010689 -0.01590000
v -0.02094479 0.00700969 -0.01590000
v -0.02270000 0.00700969 -0.01439965
v -0.02103585 0.01010689 -0.01590000
v -0.02270000 0.01010689 -0.01439965
v -0.02094479 0.00986736 -0.01590000
v -0.02094479 0.00700969 0.01590000
v -0.02270000 0.00700969 0.01439965
v -0.02094479 0.01010689 -0.01439965
v -0.02270000 0.01010689 0.01439965
v -0.02094479 0.00840017 0.01590000
v -0.02229797 0.00700969 0.01590000
v -0.02094479 0.01010689 0.01429693
v -0.02229797 0.00840017 0.01590000
v -0.02242321 0.01010689 0.01535527
v -0.02095011 0.00999986 0.01579728
v -0.02189988 0.01010689 0.01579417
v -0.02094479 0.00904993 0.01579417
v -0.02191139 0.01010689 0.01579417
v -0.02199644 0.01010689 0.01577860
v -0.02200847 0.01010689 0.01577549
v -0.02204661 0.01010689 0.01576304
v -0.02210296 0.01010689 0.01573814
v -0.02214213 0.01010689 0.01571946
v -0.02218663 0.01010689 0.01569144
v -0.02223113 0.01010689 0.01565720
v -0.02226893 0.01010689 0.01561985
v -0.02230363 0.01010689 0.01558250
v -0.02233559 0.01010689 0.01554203
v -0.02236325 0.01010689 0.01549845
v -0.02238748 0.01010689 0.01545176
v -0.02240741 0.01010689 0.01540507
f 4 2 1
f 6 2 4
f 7 5 10
f 17 14 18
f 19 14 17
f 12 19 17
f 17 18 12
f 11 15 16
f 33 16 15
f 15 31 32
f 32 33 15
f 25 26 15
f 30 31 15
f 15 29 30
f 15 26 27
f 20 21 15
f 22 23 15
f 15 21 22
f 15 23 24
f 24 25 15
f 28 29 15
f 15 27 28
f 11 6 9
f 9 6 4
f 3 8 13
f 4 1 13
f 13 1 3
f 13 9 4
f 3 1 7
f 2 5 7
f 7 1 2
f 11 9 15
f 9 13 15
f 12 13 8
f 12 15 13
f 12 8 3
f 3 7 12
f 12 7 10
f 10 14 12
f 14 19 12
f 15 12 20
f 20 12 18
f 28 5 2
f 2 6 28
f 28 6 11
f 10 5 28
f 28 14 10
f 28 18 14
f 11 16 28
f 26 25 28
f 28 32 31
f 16 33 28
f 28 27 26
f 31 30 28
f 33 32 28
f 28 20 18
f 23 22 28
f 28 30 29
f 28 24 23
f 21 20 28
f 28 22 21
f 25 24 28

