# https://github.com/mikedh/trimesh
v -0.00637717 0.00543427 -0.01592907
v -0.00637717 0.00543427 -0.01408044
v -0.00637717 0.00700938 -0.01592907
v -0.00410462 0.00543427 -0.01592907
v -0.00637717 0.00700938 -0.01408044
v -0.00404780 0.00543427 -0.01408044
v -0.00410462 0.00700938 -0.01592907
v -0.00406583 0.00543427 -0.01590844
v -0.00404621 0.00700938 -0.01408044
v -0.00404780 0.00543427 -0.01440007
v -0.00404621 0.00632636 -0.01408044
v -0.00406218 0.00700938 -0.01590645
v -0.00405008 0.00700938 -0.01589993
v -0.00405008 0.00543427 -0.01589993
v -0.00404621 0.00700938 -0.01440007
v -0.00404621 0.00639790 -0.01440007
f 14 8 13
f 13 8 12
f 12 8 7
f 7 8 4
f 14 16 10
f 10 11 6
f 16 11 10
f 5 3 1
f 1 2 5
f 1 3 4
f 3 7 4
f 9 5 11
f 11 5 2
f 2 6 11
f 10 6 2
f 10 2 1
f 1 4 10
f 8 14 10
f 10 4 8
f 15 5 9
f 13 12 15
f 3 5 15
f 15 7 3
f 15 12 7
f 9 11 15
f 15 11 16
f 15 14 13
f 15 16 14

