# https://github.com/mikedh/trimesh
v 0.00248045 -0.00724932 -0.01440696
v 0.00248045 -0.00846682 -0.01440508
v 0.00248045 -0.00724932 -0.01166275
v 0.00476775 -0.00724932 -0.01440696
v 0.00295824 -0.00846682 -0.01440696
v 0.00248045 -0.00846682 -0.01166275
v 0.00527897 -0.00724932 -0.01166275
v 0.00527897 -0.00724932 -0.01439998
v 0.00527897 -0.00775813 -0.01440696
v 0.00527897 -0.00846682 -0.01440696
v 0.00527897 -0.00846682 -0.01166275
f 5 2 1
f 9 4 8
f 6 3 1
f 1 2 6
f 11 6 2
f 2 5 11
f 11 5 10
f 3 6 11
f 7 3 11
f 1 3 4
f 4 3 7
f 7 8 4
f 9 8 7
f 9 11 10
f 7 11 9
f 10 5 9
f 1 4 9
f 9 5 1

