# https://github.com/mikedh/trimesh
v -0.02000945 -0.00679593 0.01604889
v -0.02121159 -0.00679593 0.01604889
v -0.02000945 -0.00699999 0.01604889
v -0.02000945 -0.00679593 -0.01434866
v -0.02121159 -0.00699999 0.01604889
v -0.02121159 -0.00679593 -0.01434866
v -0.02000945 -0.00703674 0.01589714
v -0.02000945 -0.00703674 -0.01434866
v -0.02121159 -0.00703674 0.01589714
v -0.02121159 -0.00703613 -0.01434866
v -0.02058433 -0.00703674 -0.01434866
v -0.02121159 -0.00703674 -0.01312574
f 11 12 10
f 1 4 6
f 2 1 6
f 1 3 8
f 8 4 1
f 8 3 7
f 5 3 1
f 5 1 2
f 7 3 5
f 5 9 7
f 2 6 12
f 12 6 10
f 12 5 2
f 9 5 12
f 11 6 4
f 10 6 11
f 4 8 11
f 11 8 7
f 7 9 11
f 9 12 11

