# https://github.com/mikedh/trimesh
v 0.01654099 -0.00580649 0.01869984
v 0.01756643 -0.00619411 0.01869984
v 0.01654099 -0.00580649 0.01700245
v 0.01654099 -0.00913946 0.01869984
v 0.01756643 -0.00619411 0.01700245
v 0.01756643 -0.00861774 0.01869984
v 0.01654099 -0.00913946 0.01700245
v 0.01672618 -0.00906278 0.01869984
v 0.01756643 -0.00861774 0.01700245
v 0.01749998 -0.00866015 0.01869984
v 0.01672618 -0.00906278 0.01700245
v 0.01749998 -0.00866015 0.01700245
f 1 2 5
f 5 3 1
f 2 6 5
f 5 6 9
f 7 4 1
f 1 3 7
f 1 4 10
f 10 2 1
f 10 6 2
f 4 8 10
f 4 7 11
f 11 8 4
f 3 5 12
f 12 5 9
f 12 7 3
f 12 11 7
f 9 6 12
f 6 10 12
f 12 10 8
f 8 11 12

