# https://github.com/mikedh/trimesh
v 0.01249868 0.00299996 -0.01440723
v 0.01223851 0.00298856 -0.01440723
v 0.01249868 0.00125006 -0.01440723
v 0.01249868 0.00299996 -0.01830000
v 0.01197892 0.00295438 -0.01440723
v 0.01223851 0.00298856 -0.01830000
v 0.01141699 0.00062460 -0.01440723
v 0.01249868 0.00125006 -0.01830000
v 0.01172334 0.00289765 -0.01440723
v 0.01197892 0.00295438 -0.01830000
v 0.00956856 0.00062460 -0.01440723
v 0.01141699 0.00062460 -0.01830000
v 0.01147378 0.00281906 -0.01440723
v 0.01172334 0.00289765 -0.01830000
v 0.00960240 0.00077666 -0.01440723
v 0.00956856 0.00062460 -0.01830000
v 0.01123197 0.00271885 -0.01440723
v 0.01147378 0.00281906 -0.01830000
v 0.00968100 0.00102615 -0.01440723
v 0.00960240 0.00077666 -0.01830000
v 0.01100020 0.00259794 -0.01440723
v 0.01123197 0.00271885 -0.01830000
v 0.00978111 0.00126796 -0.01440723
v 0.00968100 0.00102615 -0.01830000
v 0.01077933 0.00245727 -0.01440723
v 0.01100020 0.00259794 -0.01830000
v 0.00990216 0.00150001 -0.01440723
v 0.00978111 0.00126796 -0.01830000
v 0.01057165 0.00229800 -0.01440723
v 0.01077933 0.00245727 -0.01830000
v 0.01004271 0.00172090 -0.01440723
v 0.00990216 0.00150001 -0.01830000
v 0.01037889 0.00212129 -0.01440723
v 0.01057165 0.00229800 -0.01830000
v 0.01020191 0.00192830 -0.01440723
v 0.01004271 0.00172090 -0.01830000
v 0.01037889 0.00212129 -0.01830000
v 0.01020191 0.00192830 -0.01830000
f 16 12 7
f 16 7 11
f 1 3 8
f 8 4 1
f 7 12 8
f 8 3 7
f 9 25 29
f 11 7 9
f 9 3 1
f 7 3 9
f 9 31 27
f 9 15 11
f 29 33 9
f 1 2 9
f 27 23 9
f 13 17 9
f 19 15 9
f 21 25 9
f 9 33 35
f 9 23 19
f 35 31 9
f 9 2 5
f 9 17 21
f 20 16 11
f 11 15 20
f 20 15 19
f 19 24 20
f 28 23 27
f 27 32 28
f 19 23 28
f 28 24 19
f 37 33 29
f 29 34 37
f 35 33 37
f 37 38 35
f 27 31 36
f 36 32 27
f 36 31 35
f 35 38 36
f 1 4 6
f 6 2 1
f 5 2 6
f 10 5 6
f 29 25 30
f 30 34 29
f 30 25 21
f 21 26 30
f 22 17 13
f 13 18 22
f 21 17 22
f 22 26 21
f 12 16 14
f 4 8 14
f 32 36 14
f 14 8 12
f 14 28 32
f 14 6 4
f 14 22 18
f 16 20 14
f 14 37 34
f 34 30 14
f 14 20 24
f 24 28 14
f 38 37 14
f 14 36 38
f 10 6 14
f 14 30 26
f 26 22 14
f 14 9 5
f 14 5 10
f 13 9 14
f 14 18 13

