# https://github.com/mikedh/trimesh
v -0.01308665 0.01240000 -0.00056540
v -0.01531566 0.01240000 -0.00056540
v -0.01308665 0.01035581 -0.00056540
v -0.01308665 0.01240000 -0.01439896
v -0.01531566 0.01035581 -0.00056540
v -0.01531566 0.01240000 -0.01439896
v -0.01308665 0.01035581 -0.01590000
v -0.01308665 0.01238319 -0.01446201
v -0.01531566 0.01239700 -0.01441097
v -0.01531566 0.01035581 -0.01590000
v -0.01308665 0.01199801 -0.01590000
v -0.01531566 0.01239380 -0.01442298
v -0.01308665 0.01223692 -0.01500838
v -0.01531566 0.01199801 -0.01590000
v -0.01531566 0.01203623 -0.01575740
f 11 12 13
f 9 6 4
f 8 13 12
f 12 9 8
f 8 9 4
f 11 14 15
f 15 12 11
f 5 3 1
f 5 1 2
f 3 5 10
f 10 7 3
f 2 1 6
f 1 4 6
f 7 10 14
f 14 11 7
f 1 3 8
f 3 7 8
f 8 4 1
f 7 11 8
f 11 13 8
f 15 5 2
f 15 10 5
f 2 6 15
f 6 9 15
f 15 9 12
f 15 14 10

