# https://github.com/mikedh/trimesh
v 0.01249897 0.00299996 -0.01440723
v 0.01223848 0.00298845 -0.01440723
v 0.01249897 0.00124997 -0.01440723
v 0.01249897 0.00299996 -0.01830000
v 0.01197886 0.00295423 -0.01440723
v 0.01223848 0.00298845 -0.01830000
v 0.01126704 0.00020260 -0.01440723
v 0.01249897 0.00124997 -0.01830000
v 0.01172334 0.00289755 -0.01440723
v 0.01197886 0.00295423 -0.01830000
v 0.00950914 0.00020260 -0.01440723
v 0.01126704 0.00020260 -0.01830000
v 0.01147367 0.00281896 -0.01440723
v 0.01172334 0.00289755 -0.01830000
v 0.00951148 0.00026147 -0.01440723
v 0.00950914 0.00020260 -0.01830000
v 0.01123191 0.00271874 -0.01440723
v 0.01147367 0.00281896 -0.01830000
v 0.00954572 0.00052105 -0.01440723
v 0.00951148 0.00026147 -0.01830000
v 0.01100010 0.00259799 -0.01440723
v 0.01123191 0.00271874 -0.01830000
v 0.00960251 0.00077653 -0.01440723
v 0.00954572 0.00052105 -0.01830000
v 0.01077941 0.00245724 -0.01440723
v 0.01100010 0.00259799 -0.01830000
v 0.00968095 0.00102625 -0.01440723
v 0.00960251 0.00077653 -0.01830000
v 0.01057190 0.00229788 -0.01440723
v 0.01077941 0.00245724 -0.01830000
v 0.00978134 0.00126804 -0.01440723
v 0.00968095 0.00102625 -0.01830000
v 0.01037872 0.00212126 -0.01440723
v 0.01057190 0.00229788 -0.01830000
v 0.00990193 0.00150024 -0.01440723
v 0.00978134 0.00126804 -0.01830000
v 0.01020194 0.00192822 -0.01440723
v 0.01037872 0.00212126 -0.01830000
v 0.01004271 0.00172066 -0.01440723
v 0.00990193 0.00150024 -0.01830000
v 0.01020194 0.00192822 -0.01830000
v 0.01004271 0.00172066 -0.01830000
f 16 12 7
f 16 7 11
f 1 3 8
f 8 4 1
f 7 12 8
f 8 3 7
f 22 26 17
f 17 26 21
f 18 17 13
f 22 17 18
f 32 27 31
f 31 36 32
f 23 27 32
f 32 28 23
f 41 37 33
f 33 38 41
f 39 37 41
f 41 42 39
f 31 35 40
f 40 36 31
f 40 35 39
f 39 42 40
f 1 4 6
f 6 2 1
f 5 2 6
f 10 5 6
f 1 2 15
f 11 7 15
f 15 3 1
f 7 3 15
f 15 9 13
f 13 17 15
f 33 37 15
f 15 29 33
f 31 27 15
f 15 35 31
f 23 19 15
f 21 25 15
f 15 37 39
f 15 27 23
f 39 35 15
f 5 9 15
f 15 2 5
f 25 29 15
f 15 17 21
f 15 16 11
f 15 20 16
f 24 19 23
f 23 28 24
f 24 15 19
f 20 15 24
f 33 29 34
f 34 38 33
f 14 9 5
f 14 5 10
f 13 9 14
f 14 18 13
f 12 16 30
f 4 8 30
f 36 40 30
f 30 8 12
f 16 20 30
f 30 32 36
f 30 24 28
f 38 34 30
f 30 41 38
f 30 6 4
f 30 26 22
f 22 18 30
f 28 32 30
f 42 41 30
f 30 40 42
f 10 6 30
f 20 24 30
f 30 14 10
f 18 14 30
f 30 25 21
f 21 26 30
f 30 29 25
f 30 34 29

