# https://github.com/mikedh/trimesh
v 0.01677024 -0.00390204 0.01700245
v 0.01620344 -0.00485744 0.01700245
v 0.01677024 -0.00390204 0.01620006
v 0.00822976 -0.00390204 0.01700245
v 0.01620344 -0.00485744 0.01620006
v 0.00879656 -0.00485744 0.01700245
v 0.01474045 -0.00390204 0.01613290
v 0.00822976 -0.00390204 0.01620006
v 0.01251756 -0.00449922 0.01613290
v 0.01289208 -0.00448286 0.01613290
v 0.01328081 -0.00443160 0.01613290
v 0.01329837 -0.00442777 0.01613290
v 0.01366453 -0.00434668 0.01613290
v 0.01368125 -0.00434144 0.01613290
v 0.01403906 -0.00422864 0.01613290
v 0.01440104 -0.00407843 0.01613290
v 0.01441693 -0.00407030 0.01613290
v 0.00879656 -0.00485744 0.01620006
v 0.01250000 -0.00449997 0.01613290
v 0.01025955 -0.00390204 0.01613290
v 0.01059896 -0.00407843 0.01613290
v 0.01061484 -0.00408517 0.01613290
v 0.01096094 -0.00422864 0.01613290
v 0.01133547 -0.00434668 0.01613290
v 0.01171919 -0.00443160 0.01613290
v 0.01210792 -0.00448286 0.01613290
f 7 3 5
f 18 8 20
f 19 5 18
f 23 24 18
f 26 19 18
f 5 15 16
f 5 13 14
f 14 15 5
f 5 19 9
f 9 10 5
f 5 10 11
f 18 20 21
f 18 24 25
f 25 26 18
f 7 5 17
f 5 16 17
f 12 13 5
f 5 11 12
f 22 23 18
f 18 21 22
f 6 1 4
f 6 2 1
f 8 6 4
f 18 6 8
f 2 6 5
f 5 6 18
f 5 3 1
f 1 2 5
f 1 3 20
f 4 1 20
f 20 3 7
f 20 8 4
f 22 20 7
f 22 14 13
f 19 26 22
f 7 17 22
f 22 25 24
f 22 9 19
f 24 23 22
f 22 21 20
f 22 16 15
f 15 14 22
f 10 9 22
f 22 11 10
f 13 12 22
f 26 25 22
f 22 17 16
f 22 12 11

