# https://github.com/mikedh/trimesh
v -0.02080008 0.01199372 0.01523167
v -0.02081787 0.01199313 0.01482641
v -0.02109610 0.01195278 0.01482641
v -0.02100191 0.01196009 0.01529686
v -0.02079880 0.01196360 0.01538588
v -0.02076709 0.01172045 0.01570174
v -0.02074755 0.01107652 0.01482641
v -0.02095033 0.01067165 0.01482631
v -0.02152489 0.01067165 0.01482631
v -0.02129872 0.01189429 0.01482641
v -0.02122568 0.01191608 0.01522623
v -0.02121687 0.01188815 0.01537949
v -0.02079448 0.01186827 0.01556382
v -0.02098269 0.01185189 0.01555753
v -0.02096139 0.01173083 0.01568239
v -0.02099727 0.01158856 0.01575454
v -0.02077990 0.01152700 0.01578237
v -0.02095033 0.01050000 0.01579991
v -0.02095033 0.01050000 0.01482631
v -0.02150727 0.01180057 0.01482641
v -0.02152489 0.01050000 0.01482631
v -0.02237432 0.01075105 0.01482641
v -0.02228574 0.01098982 0.01482641
v -0.02217442 0.01118954 0.01482641
v -0.02204035 0.01137465 0.01482641
v -0.02188097 0.01153885 0.01482641
v -0.02170365 0.01168331 0.01482641
v -0.02150679 0.01179955 0.01522623
v -0.02144464 0.01175831 0.01546127
v -0.02119076 0.01180539 0.01555372
v -0.02115824 0.01170246 0.01566657
v -0.02123209 0.01153373 0.01574758
v -0.02096459 0.01142846 0.01579590
v -0.02116962 0.01138313 0.01579190
v -0.02095033 0.01067180 0.01580000
v -0.02184429 0.01053772 0.01579857
v -0.02186495 0.01050000 0.01518811
v -0.02238393 0.01068613 0.01528399
v -0.02230032 0.01091320 0.01530286
v -0.02216529 0.01118399 0.01528742
v -0.02198797 0.01143021 0.01522623
v -0.02175603 0.01162628 0.01529686
v -0.02176276 0.01151662 0.01552065
v -0.02157070 0.01161619 0.01556592
v -0.02135671 0.01165772 0.01564007
v -0.02148965 0.01148913 0.01570345
v -0.02163029 0.01126528 0.01575149
v -0.02136904 0.01130096 0.01578713
v -0.02155180 0.01106614 0.01579790
v -0.02170173 0.01088849 0.01579704
v -0.02183372 0.01073994 0.01579104
v -0.02206357 0.01071596 0.01571899
v -0.02232627 0.01067867 0.01547547
v -0.02215151 0.01100678 0.01554200
v -0.02203698 0.01127610 0.01545765
v -0.02190404 0.01145404 0.01542200
v -0.02184301 0.01139293 0.01557440
v -0.02167979 0.01141764 0.01566657
v -0.02181674 0.01127347 0.01567209
v -0.02175379 0.01105897 0.01577045
v -0.02189362 0.01093952 0.01575149
v -0.02202721 0.01086919 0.01570593
v -0.02222824 0.01073877 0.01558431
v -0.02195802 0.01109012 0.01566895
f 7 18 19
f 2 1 7
f 22 37 38
f 36 37 18
f 17 18 7
f 7 19 8
f 8 2 7
f 35 36 18
f 18 17 35
f 39 22 38
f 37 22 21
f 15 13 14
f 1 2 3
f 3 4 1
f 40 39 54
f 9 21 22
f 26 27 9
f 10 3 9
f 2 8 9
f 9 3 2
f 13 15 6
f 6 17 7
f 7 1 6
f 14 13 5
f 1 4 5
f 5 6 1
f 13 6 5
f 47 60 48
f 48 60 49
f 49 34 48
f 36 35 49
f 17 6 16
f 16 6 15
f 33 35 17
f 17 16 33
f 33 16 34
f 33 49 35
f 34 49 33
f 28 10 20
f 20 27 28
f 10 9 20
f 20 9 27
f 40 54 55
f 55 41 40
f 53 39 38
f 53 54 39
f 38 37 53
f 37 36 53
f 28 29 12
f 14 5 12
f 12 5 4
f 42 29 28
f 43 29 42
f 28 27 42
f 42 27 26
f 26 41 42
f 23 9 22
f 24 9 23
f 22 39 23
f 23 39 40
f 40 24 23
f 26 9 25
f 25 9 24
f 25 41 26
f 25 24 40
f 40 41 25
f 31 15 14
f 44 29 43
f 48 34 32
f 34 16 32
f 46 47 32
f 32 47 48
f 32 45 46
f 32 31 45
f 32 16 15
f 15 31 32
f 11 10 28
f 28 12 11
f 11 12 4
f 11 3 10
f 4 3 11
f 14 12 30
f 30 12 29
f 30 31 14
f 45 31 30
f 29 44 30
f 30 44 45
f 41 55 56
f 56 42 41
f 43 42 56
f 60 47 59
f 52 53 36
f 36 51 52
f 57 55 54
f 54 64 57
f 64 59 57
f 43 56 57
f 57 56 55
f 50 49 60
f 60 51 50
f 36 49 50
f 50 51 36
f 60 59 61
f 61 59 64
f 61 51 60
f 61 52 51
f 58 47 46
f 58 59 47
f 58 57 59
f 46 45 58
f 45 44 58
f 58 44 43
f 43 57 58
f 54 53 63
f 53 52 63
f 62 61 64
f 52 61 62
f 62 63 52
f 62 64 54
f 54 63 62
f 18 37 21
f 21 19 18
f 19 21 9
f 9 8 19

