# https://github.com/mikedh/trimesh
v 0.00536696 -0.01031569 -0.01440723
v 0.00536696 -0.01031569 -0.01590000
v 0.00494702 -0.01031569 -0.01440723
v 0.00536696 -0.01239786 -0.01440723
v 0.00494702 -0.01031569 -0.01590000
v 0.00536696 -0.01199794 -0.01590000
v 0.00438149 -0.01097734 -0.01440723
v 0.00438149 -0.01239786 -0.01440723
v 0.00438149 -0.01234201 -0.01590000
v 0.00455495 -0.01231959 -0.01590000
v 0.00472928 -0.01228208 -0.01590000
v 0.00489955 -0.01222990 -0.01590000
v 0.00506500 -0.01216345 -0.01590000
v 0.00522418 -0.01208314 -0.01590000
v 0.00536696 -0.01236728 -0.01452208
v 0.00438149 -0.01097734 -0.01590000
v 0.00536696 -0.01210617 -0.01549642
v 0.00536696 -0.01226455 -0.01490550
v 0.00536696 -0.01235505 -0.01456782
f 8 9 4
f 4 12 13
f 11 12 4
f 4 13 14
f 4 9 10
f 10 11 4
f 17 14 6
f 4 14 15
f 14 19 15
f 18 19 14
f 14 17 18
f 8 4 1
f 8 3 7
f 1 3 8
f 16 8 7
f 9 8 16
f 5 3 1
f 1 2 5
f 7 3 5
f 5 16 7
f 9 16 10
f 2 6 10
f 10 5 2
f 16 5 10
f 6 14 10
f 10 13 12
f 12 11 10
f 10 14 13
f 1 4 18
f 18 2 1
f 18 6 2
f 18 17 6
f 4 15 18
f 18 15 19

