# https://github.com/mikedh/trimesh
v -0.02074745 0.01084779 0.00978808
v -0.02074745 0.01239787 0.00978808
v -0.01980985 0.01084779 0.00978808
v -0.02074745 0.01084779 0.01441265
v -0.02070000 0.01240000 0.00978808
v -0.02074745 0.01239787 0.01439997
v -0.01980985 0.01240000 0.00978808
v -0.01980985 0.01084779 0.01441265
v -0.02074745 0.01198881 0.01441265
v -0.02070000 0.01240000 0.01439997
v -0.02074672 0.01199793 0.01441265
v -0.01980985 0.01240000 0.01439997
v -0.01980985 0.01175571 0.01441265
v -0.02070000 0.01199990 0.01441265
v -0.02054743 0.01199322 0.01441265
v -0.02054495 0.01199291 0.01441265
v -0.02039606 0.01197331 0.01441265
v -0.02039367 0.01197286 0.01441265
v -0.02024707 0.01194034 0.01441265
v -0.02010148 0.01189445 0.01441265
v -0.01996048 0.01183595 0.01441265
v -0.01982508 0.01176544 0.01441265
f 11 10 6
f 12 20 21
f 9 11 6
f 12 10 14
f 10 11 14
f 22 13 12
f 12 21 22
f 19 20 12
f 12 14 15
f 12 17 18
f 18 19 12
f 16 17 12
f 12 15 16
f 1 2 7
f 7 3 1
f 7 2 5
f 1 3 8
f 8 4 1
f 10 7 5
f 12 7 10
f 5 2 10
f 2 6 10
f 3 7 13
f 13 8 3
f 13 7 12
f 9 2 1
f 1 4 9
f 9 6 2
f 4 8 16
f 8 13 16
f 16 21 20
f 16 9 4
f 13 22 16
f 11 9 16
f 16 14 11
f 16 22 21
f 20 19 16
f 16 15 14
f 16 18 17
f 19 18 16

