# https://github.com/mikedh/trimesh
v 0.00536707 -0.01239737 0.01440980
v 0.00719720 -0.01239737 0.01440980
v 0.00536707 -0.01236944 0.01451409
v 0.00536707 -0.01025180 0.01440980
v 0.00536707 -0.01199876 0.01589723
v 0.00719720 -0.01025180 0.01440980
v 0.00704742 -0.01025180 0.01496935
v 0.00679803 -0.01199792 0.01590000
v 0.00536707 -0.01025180 0.01590000
v 0.00536707 -0.01199792 0.01590000
v 0.00679803 -0.01025180 0.01590000
f 2 8 5
f 1 2 3
f 2 5 3
f 2 6 7
f 7 8 2
f 7 11 8
f 10 5 8
f 1 4 6
f 6 2 1
f 7 6 4
f 7 9 11
f 4 9 7
f 10 4 1
f 1 3 10
f 10 3 5
f 10 9 4
f 11 9 10
f 8 11 10

