# https://github.com/mikedh/trimesh
v 0.01373292 0.00020286 -0.01830000
v 0.01338292 0.00088494 -0.01830000
v 0.01549116 0.00020286 -0.01830000
v 0.01373292 0.00020286 -0.01440723
v 0.01338292 0.00286395 -0.01830000
v 0.01338292 0.00088494 -0.01440723
v 0.01548847 0.00026148 -0.01830000
v 0.01549116 0.00020286 -0.01440723
v 0.01352614 0.00281888 -0.01830000
v 0.01338292 0.00286395 -0.01440723
v 0.01545442 0.00052097 -0.01830000
v 0.01548847 0.00026148 -0.01440723
v 0.01376800 0.00271883 -0.01830000
v 0.01352614 0.00281888 -0.01440723
v 0.01539767 0.00077655 -0.01830000
v 0.01545442 0.00052097 -0.01440723
v 0.01400016 0.00259794 -0.01830000
v 0.01376800 0.00271883 -0.01440723
v 0.01531905 0.00102614 -0.01830000
v 0.01539767 0.00077655 -0.01440723
v 0.01422077 0.00245726 -0.01830000
v 0.01400016 0.00259794 -0.01440723
v 0.01521875 0.00126792 -0.01830000
v 0.01531905 0.00102614 -0.01440723
v 0.01442837 0.00229807 -0.01830000
v 0.01422077 0.00245726 -0.01440723
v 0.01509803 0.00150006 -0.01830000
v 0.01521875 0.00126792 -0.01440723
v 0.01462112 0.00212117 -0.01830000
v 0.01442837 0.00229807 -0.01440723
v 0.01495729 0.00172073 -0.01830000
v 0.01509803 0.00150006 -0.01440723
v 0.01479797 0.00192811 -0.01830000
v 0.01462112 0.00212117 -0.01440723
v 0.01495729 0.00172073 -0.01440723
v 0.01479797 0.00192811 -0.01440723
f 2 1 6
f 6 1 4
f 8 1 3
f 4 1 8
f 10 5 2
f 2 6 10
f 30 25 21
f 21 26 30
f 23 28 24
f 23 24 19
f 32 23 27
f 28 23 32
f 24 20 15
f 19 24 15
f 11 15 16
f 16 15 20
f 33 29 34
f 36 33 34
f 34 29 25
f 25 30 34
f 35 31 33
f 35 33 36
f 27 31 35
f 35 32 27
f 12 8 3
f 3 7 12
f 12 7 11
f 11 16 12
f 5 10 14
f 14 9 5
f 13 9 14
f 14 18 13
f 17 1 2
f 2 5 17
f 3 1 17
f 17 29 33
f 33 31 17
f 17 7 3
f 17 23 19
f 19 15 17
f 21 25 17
f 11 7 17
f 17 31 27
f 25 29 17
f 5 9 17
f 27 23 17
f 17 15 11
f 17 9 13
f 22 6 4
f 8 12 22
f 4 8 22
f 22 10 6
f 22 35 36
f 36 34 22
f 24 28 22
f 22 20 24
f 22 30 26
f 28 32 22
f 22 16 20
f 22 34 30
f 22 14 10
f 32 35 22
f 22 12 16
f 18 14 22
f 22 26 21
f 21 17 22
f 13 18 22
f 22 17 13

