# https://github.com/mikedh/trimesh
v -0.02095002 -0.01050004 0.01519331
v -0.02074671 -0.01065288 0.01440283
v -0.02110283 -0.01020733 0.01440283
v -0.02149430 -0.01020733 0.01479431
v -0.02149430 -0.01050004 0.01519331
v -0.02074671 -0.01144338 0.01519331
v -0.02074671 -0.01199200 0.01440283
v -0.02149430 -0.01020733 0.01440283
v -0.02149430 -0.01180744 0.01519331
v -0.02074671 -0.01199796 0.01519331
v -0.02074671 -0.01199796 0.01464465
v -0.02074707 -0.01199779 0.01440283
v -0.02149430 -0.01180744 0.01440283
v -0.02143956 -0.01183601 0.01440283
v -0.02143839 -0.01183636 0.01519331
v -0.02085129 -0.01199323 0.01519331
v -0.02085253 -0.01199323 0.01440283
v -0.02129853 -0.01189438 0.01440283
v -0.02129729 -0.01189473 0.01519331
v -0.02100264 -0.01197343 0.01519331
v -0.02100396 -0.01197325 0.01440283
v -0.02115289 -0.01194030 0.01440283
v -0.02115165 -0.01194047 0.01519331
f 5 1 4
f 2 1 6
f 3 8 4
f 4 1 3
f 3 1 2
f 22 21 23
f 20 23 21
f 21 17 20
f 14 9 13
f 19 18 22
f 22 23 19
f 11 17 12
f 10 17 11
f 12 7 11
f 16 17 10
f 16 20 17
f 15 14 18
f 18 19 15
f 9 14 15
f 4 8 9
f 9 5 4
f 9 8 13
f 13 8 14
f 14 3 2
f 2 7 14
f 8 3 14
f 14 7 12
f 12 17 14
f 14 21 22
f 22 18 14
f 14 17 21
f 11 6 10
f 11 7 2
f 2 6 11
f 1 5 15
f 10 6 15
f 15 6 1
f 5 9 15
f 15 16 10
f 23 20 15
f 15 19 23
f 20 16 15

