# https://github.com/mikedh/trimesh
v -0.01871057 -0.01240000 -0.01105023
v -0.01871057 -0.01075218 -0.01105023
v -0.01766211 -0.01240000 -0.01105023
v -0.01871057 -0.01240000 0.01439896
v -0.01766211 -0.01075218 -0.01105023
v -0.01871057 -0.01075218 0.01439896
v -0.01766211 -0.01240000 0.01324349
v -0.01869990 -0.01240000 0.01439896
v -0.01766211 -0.01239936 0.01440159
v -0.01766211 -0.01199901 0.01590000
v -0.01869990 -0.01199805 0.01590000
v -0.01766211 -0.01075218 0.01590000
v -0.01869990 -0.01075218 0.01590000
f 10 11 4
f 10 4 9
f 8 7 9
f 8 9 4
f 1 2 5
f 5 3 1
f 3 5 7
f 7 12 10
f 10 9 7
f 5 12 7
f 10 12 13
f 13 11 10
f 1 3 8
f 3 7 8
f 8 4 1
f 6 5 2
f 6 12 5
f 6 13 12
f 6 2 1
f 1 4 6
f 11 13 6
f 6 4 11

