# https://github.com/mikedh/trimesh
v 0.01281298 -0.00267105 0.01904592
v 0.01296769 -0.00265040 0.01904592
v 0.01296659 -0.00264569 0.01924087
v 0.01281298 -0.00266609 0.01924087
v 0.01281298 -0.00088561 0.01904592
v 0.01319655 -0.00259967 0.01904592
v 0.01319533 -0.00259522 0.01924087
v 0.01296483 -0.00263575 0.01933622
v 0.01284113 -0.00265223 0.01933622
v 0.01281298 -0.00265850 0.01931118
v 0.01281298 -0.00117586 0.01933622
v 0.01295002 -0.00045023 0.01933622
v 0.01295002 -0.00045023 0.01904592
v 0.01342079 -0.00252907 0.01904592
v 0.01319278 -0.00258529 0.01933622
v 0.01341896 -0.00252462 0.01924087
v 0.01341549 -0.00251521 0.01933622
v 0.01281298 -0.00265563 0.01933622
v 0.01343541 -0.00045023 0.01933622
v 0.01343541 0.00000031 0.01909616
v 0.01338520 0.00000031 0.01904592
v 0.01343547 -0.00252305 0.01904592
v 0.01343547 -0.00251782 0.01924087
v 0.01343547 -0.00250684 0.01933622
v 0.01343547 -0.00051456 0.01933622
v 0.01343541 0.00000031 0.01904592
v 0.01343547 -0.00051456 0.01904592
f 26 21 20
f 16 14 22
f 1 2 3
f 23 16 22
f 24 17 23
f 23 17 16
f 20 21 12
f 1 3 4
f 7 2 6
f 7 3 2
f 6 14 7
f 14 16 7
f 16 17 7
f 8 3 7
f 11 12 5
f 13 12 21
f 5 12 13
f 20 12 19
f 9 3 8
f 9 4 3
f 8 7 15
f 15 7 17
f 20 19 25
f 10 9 18
f 4 9 10
f 1 5 13
f 22 14 13
f 13 2 1
f 21 26 13
f 13 27 22
f 6 2 13
f 13 14 6
f 26 27 13
f 22 27 25
f 25 23 22
f 24 23 25
f 25 9 8
f 8 15 25
f 25 17 24
f 25 11 18
f 12 11 25
f 25 19 12
f 18 9 25
f 25 15 17
f 25 27 26
f 25 26 20
f 10 5 1
f 1 4 10
f 18 11 10
f 10 11 5

