# https://github.com/mikedh/trimesh
v 0.01216357 -0.00001771 -0.01414490
v 0.01170791 -0.00001771 -0.01328174
v 0.01170791 -0.00001657 -0.01439877
v 0.01216357 -0.00001543 -0.01439877
v 0.01216357 -0.00001771 0.01440980
v 0.01170791 -0.00001771 0.01440980
v 0.01170791 0.00096620 -0.01440723
v 0.01200067 0.00114486 -0.01440723
v 0.01216357 0.00114486 -0.01439877
v 0.01216357 0.00114486 0.01440980
v 0.01170791 0.00114486 0.01440980
v 0.01170791 0.00114486 -0.01440723
f 3 1 2
f 8 9 4
f 1 3 4
f 7 12 8
f 8 4 7
f 7 4 3
f 1 5 6
f 2 1 6
f 10 12 11
f 10 9 8
f 8 12 10
f 10 5 1
f 1 4 10
f 10 4 9
f 10 6 5
f 11 6 10
f 2 6 7
f 7 3 2
f 7 6 11
f 11 12 7

