# https://github.com/mikedh/trimesh
v 0.01515219 -0.00246885 -0.01439877
v 0.01554205 -0.00246885 -0.01439877
v 0.01502947 -0.00246885 -0.01403783
v 0.01502947 -0.00246717 -0.01439877
v 0.01502947 -0.00160750 -0.01440723
v 0.01509811 -0.00149977 -0.01440723
v 0.01521893 -0.00126775 -0.01440723
v 0.01531907 -0.00102614 -0.01440723
v 0.01539775 -0.00077661 -0.01440723
v 0.01545439 -0.00052109 -0.01440723
v 0.01548856 -0.00026148 -0.01440723
v 0.01549915 -0.00001771 -0.01440723
v 0.01554205 -0.00001771 -0.01439877
v 0.01554205 -0.00246885 0.01439784
v 0.01502947 -0.00246885 0.01439784
v 0.01502947 -0.00001771 -0.01440723
v 0.01554205 -0.00001771 0.01439784
v 0.01502947 -0.00021182 0.01440066
v 0.01502947 -0.00001771 0.01439784
f 14 17 18
f 2 12 13
f 15 14 18
f 4 5 1
f 1 5 2
f 3 4 1
f 2 9 10
f 18 17 19
f 11 12 2
f 2 10 11
f 2 5 6
f 6 7 2
f 8 9 2
f 2 7 8
f 17 14 13
f 13 14 2
f 2 14 1
f 1 15 3
f 14 15 1
f 19 4 3
f 3 15 19
f 19 5 4
f 19 15 18
f 19 16 5
f 17 13 19
f 12 16 19
f 19 13 12
f 5 16 8
f 8 16 12
f 12 11 8
f 8 10 9
f 8 6 5
f 8 11 10
f 7 6 8

