# https://github.com/mikedh/trimesh
v 0.01250014 0.00169663 0.02019985
v 0.01250023 0.00186147 0.02019399
v 0.01235179 0.00169346 0.02019985
v 0.01250023 0.00163935 0.02019985
v 0.01232726 0.00197390 0.02018034
v 0.01233772 0.00185407 0.02019399
v 0.01250023 0.00207597 0.02016201
v 0.01250006 0.00198150 0.02018034
v 0.01220485 0.00167401 0.02019985
v 0.01217687 0.00183294 0.02019399
v 0.01207625 0.00164231 0.02019985
v 0.01213266 0.00054105 0.01870177
v 0.01250023 0.00054105 0.01870177
v 0.01215599 0.00195128 0.02018034
v 0.01231900 0.00206794 0.02016201
v 0.01213960 0.00204448 0.02016201
v 0.01250023 0.00221672 0.02011786
v 0.01250006 0.00215247 0.02014104
v 0.01231232 0.00214423 0.02014104
v 0.01207625 0.00183632 0.02019120
v 0.01207625 0.00149417 0.01965439
v 0.01213266 0.00267193 0.01870177
v 0.01249977 0.00269983 0.01870177
v 0.01250010 0.00268673 0.01924063
v 0.01250023 0.00261741 0.01966084
v 0.01207625 0.00193374 0.02018034
v 0.01212627 0.00211993 0.02014104
v 0.01207625 0.00209668 0.02014426
v 0.01207625 0.00201025 0.02016582
v 0.01250014 0.00229872 0.02007826
v 0.01230675 0.00220827 0.02011786
v 0.01250023 0.00246250 0.01994802
v 0.01207625 0.00258254 0.01965718
v 0.01213266 0.00265883 0.01924108
v 0.01226412 0.00268948 0.01870177
v 0.01226587 0.00267637 0.01924108
v 0.01250010 0.00266496 0.01944480
v 0.01250010 0.00264002 0.01957651
v 0.01226994 0.00263009 0.01957651
v 0.01227184 0.00260811 0.01965761
v 0.01227404 0.00258317 0.01973036
v 0.01250023 0.00259311 0.01973036
v 0.01209568 0.00217488 0.02011918
v 0.01208858 0.00226110 0.02007826
v 0.01208248 0.00233042 0.02003456
v 0.01207758 0.00238917 0.01998527
v 0.01207625 0.00245828 0.01990842
v 0.01229957 0.00228984 0.02007826
v 0.01250006 0.00238896 0.02001769
v 0.01229169 0.00237987 0.02001769
v 0.01250006 0.00252421 0.01986618
v 0.01228002 0.00251470 0.01986633
v 0.01228542 0.00245299 0.01994802
v 0.01207625 0.00255866 0.01972626
v 0.01213266 0.00261192 0.01957651
v 0.01213266 0.00263706 0.01944494
v 0.01213266 0.00264615 0.01935988
v 0.01226778 0.00265460 0.01944494
v 0.01207625 0.00253267 0.01978624
v 0.01227624 0.00255781 0.01978918
v 0.01250006 0.00256754 0.01978918
v 0.01207625 0.00250223 0.01984374
f 11 12 4
f 21 12 11
f 12 21 22
f 1 4 2
f 13 4 12
f 33 22 21
f 3 1 2
f 17 32 30
f 11 10 20
f 9 10 11
f 3 10 9
f 6 3 2
f 6 10 3
f 2 5 6
f 6 5 10
f 22 33 34
f 34 35 22
f 36 35 34
f 61 52 51
f 51 52 32
f 60 52 61
f 62 52 60
f 31 17 30
f 47 52 62
f 46 47 28
f 14 16 26
f 5 16 14
f 10 5 14
f 26 20 14
f 14 20 10
f 33 55 56
f 36 37 24
f 23 35 24
f 24 35 36
f 24 13 23
f 62 60 59
f 41 54 59
f 59 60 41
f 2 7 8
f 8 5 2
f 8 7 5
f 15 16 5
f 5 7 15
f 18 7 17
f 17 31 18
f 32 52 53
f 52 47 53
f 53 47 46
f 53 50 32
f 46 50 53
f 30 32 49
f 49 50 30
f 32 50 49
f 48 31 30
f 30 50 48
f 26 16 29
f 16 28 29
f 27 31 43
f 43 28 27
f 27 28 16
f 16 15 27
f 36 34 57
f 57 56 36
f 57 34 33
f 33 56 57
f 13 24 25
f 25 24 37
f 37 38 25
f 39 55 33
f 39 25 38
f 39 56 55
f 39 38 37
f 43 31 44
f 31 48 44
f 44 28 43
f 19 27 15
f 19 15 7
f 7 18 19
f 19 18 31
f 31 27 19
f 61 51 42
f 42 51 32
f 42 25 41
f 42 60 61
f 41 60 42
f 41 25 40
f 25 39 40
f 40 39 33
f 33 54 40
f 40 54 41
f 58 37 36
f 58 39 37
f 36 56 58
f 56 39 58
f 45 48 50
f 45 44 48
f 45 50 46
f 46 28 45
f 28 44 45
f 4 1 9
f 11 4 9
f 1 3 9
f 35 13 12
f 12 22 35
f 23 13 35
f 11 20 29
f 29 21 11
f 62 59 29
f 29 33 21
f 29 20 26
f 29 54 33
f 29 47 62
f 29 28 47
f 29 59 54
f 4 13 42
f 2 4 42
f 42 7 2
f 32 17 42
f 17 7 42
f 13 25 42

