# https://github.com/mikedh/trimesh
v -0.02094718 -0.01020727 -0.01439745
v -0.02094718 -0.00987151 -0.01445727
v -0.02054211 -0.01020727 -0.01439745
v -0.02094718 -0.01020727 0.01429444
v -0.02094718 -0.00960524 -0.01445727
v -0.02068244 -0.00960524 -0.01445727
v -0.02046603 -0.01020626 -0.01439745
v -0.02046603 -0.01020727 -0.01434333
v -0.02065738 -0.01020727 0.01429729
v -0.02094718 -0.01020615 0.01429729
v -0.02094718 -0.00960524 0.01464482
v -0.02046603 -0.00960524 -0.01439745
v -0.02046603 -0.01020727 0.01429729
v -0.02046603 -0.00960524 0.01464482
f 1 2 3
f 3 2 7
f 6 2 5
f 6 12 7
f 7 2 6
f 8 3 7
f 9 10 4
f 11 10 9
f 5 11 14
f 14 6 5
f 12 6 14
f 12 14 8
f 7 12 8
f 8 14 13
f 10 11 5
f 10 2 1
f 5 2 10
f 1 4 10
f 9 4 1
f 1 3 9
f 9 8 13
f 3 8 9
f 9 14 11
f 13 14 9

