# https://github.com/mikedh/trimesh
v 0.00825235 0.00147880 0.01470000
v 0.00825235 0.00147880 0.01613282
v 0.00827147 0.00153912 0.01470000
v 0.01060608 0.00147880 0.01470000
v 0.00827147 0.00153912 0.01613282
v 0.01060608 0.00147880 0.01613282
v 0.00842169 0.00190181 0.01470000
v 0.01060608 0.00240378 0.01470000
v 0.00842169 0.00190181 0.01613282
v 0.01060608 0.00240378 0.01613282
v 0.00860301 0.00224992 0.01470000
v 0.00870093 0.00240378 0.01470000
v 0.00860301 0.00224992 0.01613282
v 0.00870093 0.00240378 0.01613282
f 6 2 1
f 1 4 6
f 1 2 3
f 2 5 3
f 3 5 9
f 9 7 3
f 11 4 1
f 11 8 4
f 11 12 8
f 1 3 11
f 11 3 7
f 13 14 11
f 11 14 12
f 9 13 11
f 11 7 9
f 2 6 10
f 10 5 2
f 9 5 10
f 10 13 9
f 10 14 13
f 10 6 4
f 4 8 10
f 8 12 10
f 12 14 10

