# https://github.com/mikedh/trimesh
v 0.01813018 0.00599719 0.01620000
v 0.01813018 0.00599719 0.01700245
v 0.01813018 0.00825878 0.01620000
v 0.01857001 0.00550262 0.01620000
v 0.01813018 0.00825878 0.01700245
v 0.01857001 0.00550262 0.01700245
v 0.01823603 0.00819133 0.01620000
v 0.02084022 0.00550262 0.01620000
v 0.01823603 0.00819133 0.01700245
v 0.02084022 0.00550262 0.01700245
v 0.01892813 0.00766033 0.01620000
v 0.02069140 0.00573601 0.01620000
v 0.01892813 0.00766033 0.01700245
v 0.02069140 0.00573601 0.01700245
v 0.01913451 0.00747119 0.01700245
v 0.01957089 0.00707105 0.01620000
v 0.02016033 0.00642808 0.01620000
v 0.02016033 0.00642808 0.01700245
v 0.01957089 0.00707105 0.01700245
f 16 11 15
f 19 16 15
f 11 13 15
f 5 3 1
f 1 2 5
f 1 4 6
f 6 2 1
f 6 4 8
f 8 10 6
f 18 17 16
f 18 16 19
f 12 4 1
f 1 3 12
f 8 4 12
f 3 7 12
f 16 17 12
f 12 11 16
f 12 7 11
f 3 5 9
f 9 7 3
f 11 7 9
f 9 13 11
f 2 6 14
f 14 18 19
f 14 5 2
f 14 6 10
f 19 15 14
f 14 9 5
f 13 9 14
f 14 15 13
f 14 10 8
f 8 12 14
f 17 18 14
f 14 12 17

