# https://github.com/mikedh/trimesh
v 0.00562596 0.01239806 -0.01440723
v 0.00562596 0.01237019 -0.01451127
v 0.00489964 0.01223003 -0.01590000
v 0.00472921 0.01228208 -0.01590000
v 0.00455500 0.01231978 -0.01590000
v 0.00438140 0.01234191 -0.01590000
v 0.00438140 0.01239806 -0.01440723
v 0.00562596 0.01030478 -0.01440723
v 0.00562596 0.01199805 -0.01590000
v 0.00438140 0.01097734 -0.01590000
v 0.00438140 0.01097734 -0.01440723
v 0.00494764 0.01030478 -0.01440723
v 0.00562596 0.01030478 -0.01590000
v 0.00494764 0.01030478 -0.01590000
f 7 1 6
f 6 1 5
f 1 3 4
f 4 5 1
f 2 9 3
f 2 3 1
f 6 10 11
f 11 7 6
f 13 4 3
f 6 5 13
f 13 10 6
f 5 4 13
f 14 10 13
f 3 9 13
f 1 8 2
f 2 13 9
f 8 13 2
f 1 7 12
f 12 8 1
f 7 11 12
f 14 13 12
f 12 13 8
f 12 10 14
f 12 11 10

