# https://github.com/mikedh/trimesh
v -0.00053186 -0.00645030 0.00653333
v -0.00053186 -0.00382010 0.00653333
v 0.00191955 -0.00645030 0.00653333
v -0.00053186 -0.00645030 0.01700000
v 0.00191955 -0.00382010 0.00653333
v -0.00053186 -0.00382010 0.01700000
v 0.00191955 -0.00645030 0.01700000
v 0.00191955 -0.00382010 0.01684530
v 0.00187564 -0.00382010 0.01700000
v 0.00191955 -0.00394394 0.01700000
f 8 9 10
f 1 2 5
f 5 3 1
f 1 3 7
f 7 4 1
f 6 2 1
f 1 4 6
f 9 5 2
f 8 5 9
f 2 6 9
f 3 5 10
f 10 7 3
f 10 5 8
f 4 7 10
f 10 6 4
f 10 9 6

