# https://github.com/mikedh/trimesh
v 0.01795289 -0.00380575 0.01700245
v 0.01869976 -0.00495202 0.01700245
v 0.01795289 -0.00380575 0.01869984
v 0.01795289 0.00271682 0.01700245
v 0.02118518 -0.00495202 0.01700245
v 0.01869976 -0.00495202 0.01869984
v 0.01795289 0.00271682 0.01869984
v 0.02211855 0.00271682 0.01700245
v 0.02118518 -0.00495202 0.01869984
v 0.02156307 -0.00422613 0.01700245
v 0.02211855 0.00271682 0.01869984
v 0.02215906 0.00258770 0.01700245
v 0.02156307 -0.00422613 0.01869984
v 0.02189689 -0.00341991 0.01700245
v 0.02215906 0.00258770 0.01869984
v 0.02234778 0.00173644 0.01700245
v 0.02189689 -0.00341991 0.01869984
v 0.02192137 -0.00335010 0.01700245
v 0.02234778 0.00173644 0.01869984
v 0.02246172 0.00087092 0.01700245
v 0.02197345 -0.00320146 0.01869984
v 0.02209941 -0.00278484 0.01700245
v 0.02246172 0.00087092 0.01869984
v 0.02250000 -0.00000061 0.01700245
v 0.02215906 -0.00258817 0.01700245
v 0.02215906 -0.00258817 0.01869984
v 0.02250000 -0.00000061 0.01869984
v 0.02246172 -0.00087214 0.01700245
v 0.02234778 -0.00173616 0.01700245
v 0.02234778 -0.00173616 0.01869984
v 0.02246172 -0.00087214 0.01869984
v 0.02242522 -0.00114913 0.01700245
f 21 25 26
f 32 30 29
f 32 28 31
f 31 30 32
f 25 21 22
f 21 18 22
f 14 18 17
f 17 18 21
f 7 4 1
f 1 3 7
f 7 8 4
f 11 8 7
f 6 3 1
f 1 2 6
f 9 2 5
f 9 6 2
f 20 23 27
f 20 27 24
f 19 20 16
f 23 20 19
f 15 8 11
f 15 12 8
f 16 12 15
f 15 19 16
f 29 30 26
f 26 25 29
f 24 27 31
f 31 28 24
f 13 9 5
f 5 10 13
f 22 2 1
f 1 4 22
f 24 28 22
f 4 8 22
f 5 2 22
f 8 12 22
f 22 20 24
f 22 12 16
f 22 10 5
f 22 29 25
f 16 20 22
f 22 28 32
f 14 10 22
f 32 29 22
f 22 18 14
f 17 7 3
f 11 7 17
f 3 6 17
f 26 30 17
f 17 21 26
f 6 9 17
f 27 23 17
f 23 19 17
f 17 15 11
f 17 31 27
f 19 15 17
f 30 31 17
f 9 13 17
f 17 10 14
f 17 13 10

