# https://github.com/mikedh/trimesh
v -0.01628131 0.01035581 -0.01590000
v -0.01628131 0.01199801 -0.01590000
v -0.01579701 0.01035581 -0.01590000
v -0.01628131 0.01035581 -0.00942579
v -0.01579701 0.01200401 -0.01587782
v -0.01579701 0.01199801 -0.01590000
v -0.01628131 0.01219250 -0.01517431
v -0.01579701 0.01035581 -0.00942579
v -0.01628131 0.01240000 -0.00942579
v -0.01579701 0.01233057 -0.01465903
v -0.01628131 0.01231256 -0.01472621
v -0.01579701 0.01240000 -0.00942579
v -0.01628131 0.01240000 -0.01439981
v -0.01579701 0.01240000 -0.01439981
f 5 6 2
f 7 5 2
f 13 14 10
f 5 7 10
f 13 10 11
f 11 10 7
f 8 4 1
f 1 3 8
f 4 8 12
f 9 4 12
f 6 3 1
f 1 2 6
f 9 12 14
f 14 13 9
f 10 8 3
f 10 12 8
f 3 6 10
f 6 5 10
f 10 14 12
f 1 4 11
f 11 4 9
f 11 2 1
f 9 13 11
f 11 7 2

