# https://github.com/mikedh/trimesh
v 0.00692214 -0.00331682 0.01700245
v 0.00692214 -0.00386922 0.01700245
v 0.00692214 -0.00331682 0.01620000
v 0.00440360 -0.00331682 0.01700245
v 0.00692214 -0.00386922 0.01620000
v 0.00630409 -0.00485729 0.01700245
v 0.00440360 -0.00331682 0.01620000
v 0.00440360 -0.00485729 0.01700245
v 0.00630409 -0.00485729 0.01620000
v 0.00440360 -0.00485729 0.01620000
f 8 2 1
f 8 1 4
f 6 2 8
f 4 1 7
f 1 3 7
f 7 8 4
f 10 8 7
f 6 8 9
f 9 8 10
f 5 7 3
f 10 7 5
f 5 9 10
f 1 2 5
f 5 3 1
f 5 2 6
f 6 9 5

