# https://github.com/mikedh/trimesh
v -0.00262232 -0.00061096 0.01700000
v -0.02200231 -0.00061096 0.01700000
v -0.00262232 -0.00679590 0.01700000
v -0.00262232 -0.00061096 -0.01439819
v -0.02200821 -0.00679590 0.01698066
v -0.02200231 -0.00679590 0.01700000
v -0.02216347 -0.00061096 0.01640047
v -0.00262232 -0.00679590 -0.01439819
v -0.00405110 -0.00061096 -0.01589702
v -0.02270000 -0.00061096 0.01439880
v -0.02270000 -0.00679590 0.01439880
v -0.00405110 -0.00679590 -0.01589702
v -0.00410613 -0.00061096 -0.01592925
v -0.02270000 -0.00061096 -0.01439819
v -0.02270000 -0.00679590 -0.01439819
v -0.00410613 -0.00679590 -0.01592925
v -0.01739954 -0.00061096 -0.01592925
v -0.02232855 -0.00061096 -0.01578421
v -0.02232266 -0.00679590 -0.01580677
v -0.01739954 -0.00679590 -0.01592925
v -0.02229711 -0.00061096 -0.01589702
v -0.02230104 -0.00679590 -0.01588735
v -0.02229711 -0.00679590 -0.01589702
f 10 5 7
f 7 5 2
f 11 5 10
f 2 5 6
f 14 18 19
f 19 15 14
f 22 18 21
f 22 19 18
f 22 21 23
f 8 4 1
f 1 3 8
f 1 2 6
f 6 3 1
f 10 14 15
f 15 11 10
f 13 17 9
f 1 4 9
f 9 2 1
f 21 18 9
f 9 14 10
f 10 7 9
f 9 17 21
f 9 7 2
f 9 18 14
f 4 8 9
f 8 12 9
f 21 17 20
f 23 21 20
f 16 9 12
f 13 9 16
f 16 17 13
f 16 20 17
f 22 8 3
f 23 20 22
f 3 6 22
f 5 11 22
f 22 6 5
f 22 12 8
f 11 15 22
f 22 16 12
f 15 19 22
f 20 16 22

