# https://github.com/mikedh/trimesh
v -0.00404621 -0.00061021 0.00722551
v -0.00404621 0.00700938 0.00722551
v -0.00257770 -0.00061021 0.00722551
v -0.00404621 -0.00061021 0.01603883
v -0.00257770 0.00700938 0.00722551
v -0.00404621 0.00700938 0.01589992
v -0.00257770 -0.00061021 0.01603883
v -0.00404621 0.00699969 0.01603883
v -0.00257770 0.00700938 0.01589992
v -0.00257770 0.00699969 0.01603883
f 1 2 5
f 5 3 1
f 1 3 7
f 7 4 1
f 4 7 8
f 8 7 10
f 3 5 9
f 9 7 3
f 10 7 9
f 6 2 1
f 1 4 6
f 4 8 6
f 6 5 2
f 6 9 5
f 6 8 10
f 10 9 6

