# https://github.com/mikedh/trimesh
v -0.01984803 0.01084779 -0.01460635
v -0.01980985 0.01084779 -0.01460635
v -0.02074745 0.01084779 -0.01439861
v -0.02074745 0.01085113 -0.01460635
v -0.01980985 0.01234469 -0.01460635
v -0.01980985 0.01084779 0.00978808
v -0.02074745 0.01084779 0.00978808
v -0.02074745 0.01234256 -0.01460635
v -0.02025846 0.01234955 -0.01460635
v -0.01980985 0.01239818 -0.01440577
v -0.01980985 0.01240000 0.00978808
v -0.02074745 0.01239787 0.00978808
v -0.02074085 0.01234287 -0.01460635
v -0.02074745 0.01239787 -0.01439861
v -0.02030298 0.01234985 -0.01460635
v -0.01980985 0.01240000 -0.01439861
v -0.02070000 0.01240000 0.00978808
v -0.02070000 0.01234469 -0.01460635
v -0.02070000 0.01240000 -0.01439861
v -0.02034759 0.01234940 -0.01460635
f 3 4 1
f 19 16 15
f 19 18 13
f 8 14 13
f 13 14 19
f 19 15 20
f 20 18 19
f 5 9 10
f 10 9 15
f 10 15 16
f 2 6 1
f 1 7 3
f 6 7 1
f 17 7 6
f 17 6 11
f 17 12 7
f 11 16 17
f 17 16 19
f 3 7 14
f 14 4 3
f 8 4 14
f 7 12 14
f 12 17 14
f 14 17 19
f 20 4 8
f 20 5 2
f 2 1 20
f 20 1 4
f 20 9 5
f 8 13 20
f 15 9 20
f 20 13 18
f 10 6 2
f 11 6 10
f 10 16 11
f 2 5 10

