# https://github.com/mikedh/trimesh
v -0.02186528 0.01010700 0.01516534
v -0.02234927 0.01010700 0.01552199
v -0.02186528 0.01010700 0.01482637
v -0.02186528 0.01067144 0.01482637
v -0.02187312 0.01066807 0.01579191
v -0.02190002 0.01025006 0.01579790
v -0.02192549 0.01012446 0.01579352
v -0.02209691 0.01011734 0.01574369
v -0.02216668 0.01011435 0.01570469
v -0.02222981 0.01011159 0.01565895
v -0.02228608 0.01010916 0.01560426
v -0.02232551 0.01025006 0.01556479
v -0.02236953 0.01025006 0.01549993
v -0.02238750 0.01010700 0.01545351
v -0.02244371 0.01010700 0.01482637
v -0.02239734 0.01067144 0.01482637
v -0.02194134 0.01067144 0.01577745
v -0.02198553 0.01047661 0.01577945
v -0.02188840 0.01056308 0.01579409
v -0.02190151 0.01048258 0.01579495
v -0.02192475 0.01035809 0.01579409
v -0.02197981 0.01025006 0.01578515
v -0.02202497 0.01012054 0.01577108
v -0.02207945 0.01025006 0.01575367
v -0.02217206 0.01025006 0.01570545
v -0.02225494 0.01025006 0.01564183
v -0.02231933 0.01039163 0.01556479
v -0.02236323 0.01039544 0.01549993
v -0.02240375 0.01025006 0.01542936
v -0.02241520 0.01010700 0.01538085
v -0.02245000 0.01025006 0.01482637
v -0.02244365 0.01010700 0.01520167
v -0.02242333 0.01055380 0.01482637
v -0.02242224 0.01055364 0.01522630
v -0.02239614 0.01067144 0.01522630
v -0.02201747 0.01067144 0.01575158
v -0.02198496 0.01059425 0.01577155
v -0.02205845 0.01048948 0.01575367
v -0.02207419 0.01037030 0.01575367
v -0.02200035 0.01036383 0.01577945
v -0.02216645 0.01037836 0.01570545
v -0.02224899 0.01038560 0.01564183
v -0.02230079 0.01053220 0.01556479
v -0.02234417 0.01053988 0.01549993
v -0.02237783 0.01054584 0.01542936
v -0.02239723 0.01039848 0.01542936
v -0.02242859 0.01040118 0.01532968
v -0.02243518 0.01025006 0.01532968
v -0.02243769 0.01010700 0.01527985
v -0.02244886 0.01025006 0.01522630
v -0.02244330 0.01040246 0.01482637
v -0.02243272 0.01048313 0.01482637
v -0.02244216 0.01040240 0.01522630
v -0.02240879 0.01055126 0.01532968
v -0.02238269 0.01067144 0.01532740
v -0.02231601 0.01067144 0.01549812
v -0.02226690 0.01067022 0.01556878
v -0.02219896 0.01066188 0.01564183
v -0.02213783 0.01065403 0.01569138
v -0.02209342 0.01064829 0.01571953
v -0.02205582 0.01061320 0.01574369
v -0.02214974 0.01050556 0.01570545
v -0.02223124 0.01051998 0.01564183
v -0.02235064 0.01067144 0.01542783
f 3 4 1
f 1 4 5
f 5 6 1
f 1 6 7
f 17 5 4
f 11 2 1
f 1 10 11
f 1 7 8
f 47 46 45
f 31 15 32
f 6 5 19
f 19 20 6
f 28 45 46
f 9 10 1
f 1 8 9
f 23 8 7
f 64 45 56
f 47 45 54
f 54 34 47
f 55 34 54
f 54 64 55
f 45 64 54
f 33 34 16
f 16 34 35
f 35 34 55
f 47 34 53
f 29 28 46
f 29 46 47
f 28 29 13
f 57 36 56
f 34 33 52
f 51 53 52
f 52 53 34
f 50 51 31
f 50 53 51
f 31 32 50
f 50 32 49
f 47 53 50
f 14 29 30
f 2 13 14
f 14 13 29
f 48 29 47
f 30 29 48
f 49 30 48
f 47 50 48
f 48 50 49
f 28 13 12
f 2 11 12
f 12 13 2
f 17 36 37
f 59 36 58
f 36 57 58
f 58 63 59
f 58 57 63
f 43 57 56
f 63 57 43
f 10 9 25
f 25 9 8
f 59 63 62
f 62 41 39
f 10 25 26
f 26 11 10
f 26 12 11
f 26 25 41
f 38 62 39
f 22 7 6
f 22 23 7
f 17 37 18
f 5 17 18
f 18 19 5
f 20 19 18
f 18 38 39
f 37 38 18
f 44 43 56
f 28 43 44
f 56 45 44
f 45 28 44
f 28 12 27
f 27 43 28
f 12 26 27
f 39 41 24
f 41 25 24
f 24 25 8
f 8 23 24
f 62 38 61
f 61 37 36
f 61 38 37
f 20 18 21
f 6 20 21
f 21 22 6
f 42 27 26
f 42 26 41
f 63 43 42
f 43 27 42
f 42 62 63
f 41 62 42
f 59 62 60
f 62 61 60
f 60 36 59
f 60 61 36
f 22 21 40
f 40 21 18
f 40 18 39
f 39 24 40
f 23 22 40
f 40 24 23
f 4 16 35
f 35 17 4
f 56 36 35
f 35 64 56
f 35 36 17
f 55 64 35
f 4 3 52
f 52 15 31
f 52 16 4
f 3 15 52
f 31 51 52
f 52 33 16
f 14 15 3
f 14 3 1
f 1 2 14
f 14 32 15
f 14 30 49
f 49 32 14

