# https://github.com/mikedh/trimesh
v 0.00201306 0.00501225 -0.01440000
v 0.00201306 0.00627722 -0.01440000
v 0.00248045 0.00501225 -0.01440000
v 0.00201306 0.00501225 0.01700000
v 0.00248045 0.00627722 -0.01440000
v 0.00201306 0.00627722 0.01700000
v 0.00248045 0.00501225 0.01664039
v 0.00237568 0.00501225 0.01700000
v 0.00248045 0.00627722 0.01700000
v 0.00248045 0.00521313 0.01700000
v 0.00241155 0.00501225 0.01687706
f 7 10 11
f 10 8 11
f 1 2 5
f 5 3 1
f 6 2 1
f 1 4 6
f 6 5 2
f 9 5 6
f 3 5 10
f 10 7 3
f 10 5 9
f 8 6 4
f 9 6 8
f 8 10 9
f 1 3 11
f 11 4 1
f 3 7 11
f 11 8 4

