# https://github.com/mikedh/trimesh
v -0.01308665 0.00962382 0.01590000
v -0.01308665 0.00700964 0.01590000
v -0.01308665 0.00962382 0.01471307
v -0.01608812 0.00962382 0.01590000
v -0.01308665 0.00700964 0.01471307
v -0.01640804 0.00700964 0.01590000
v -0.01608812 0.00962382 0.01471307
v -0.01640804 0.00950635 0.01590000
v -0.01640804 0.00700964 0.01471307
v -0.01640804 0.00950635 0.01471307
f 5 3 1
f 1 2 5
f 4 2 1
f 6 2 4
f 4 8 6
f 1 3 4
f 3 7 4
f 9 5 2
f 9 2 6
f 3 5 10
f 10 7 3
f 5 9 10
f 8 4 10
f 10 4 7
f 6 8 10
f 10 9 6

