# https://github.com/mikedh/trimesh
v 0.00248045 -0.00454178 0.01591809
v 0.00248045 -0.00446560 0.01580129
v 0.00196155 -0.00406286 0.01700000
v 0.00219951 -0.00454178 0.01687706
v 0.00248045 -0.00454178 -0.01440000
v 0.00248045 -0.00406286 0.01518350
v 0.00191961 -0.00406286 0.01700000
v 0.00216344 -0.00454178 0.01700000
v 0.00191961 -0.00454178 -0.01440000
v 0.00248045 -0.00406286 -0.01440000
v 0.00191961 -0.00454178 0.01700000
v 0.00191961 -0.00406286 -0.01440000
f 2 3 1
f 1 3 4
f 3 8 4
f 3 2 6
f 11 9 5
f 11 5 1
f 1 4 11
f 11 4 8
f 11 3 7
f 11 8 3
f 9 11 12
f 12 11 7
f 5 9 12
f 12 10 5
f 1 5 6
f 6 2 1
f 5 10 6
f 7 3 6
f 6 12 7
f 10 12 6

