# https://github.com/mikedh/trimesh
v -0.01980985 0.01097710 0.01580000
v -0.01980985 0.01084767 0.01580000
v -0.01980985 0.01099703 0.01579946
v -0.01981912 0.01098924 0.01580000
v -0.02044994 0.01084767 0.01580000
v -0.01980985 0.01084767 0.01441310
v -0.01980985 0.01105637 0.01579769
v -0.01984987 0.01110013 0.01579769
v -0.01988686 0.01106315 0.01580000
v -0.02044994 0.01117924 0.01580000
v -0.02074745 0.01117924 0.01492938
v -0.02074745 0.01091444 0.01466452
v -0.02074745 0.01084767 0.01459773
v -0.02074745 0.01084767 0.01441310
v -0.01980985 0.01117924 0.01441310
v -0.01980985 0.01113311 0.01579077
v -0.01981324 0.01113684 0.01579077
v -0.01988135 0.01117924 0.01579280
v -0.01992725 0.01117099 0.01579769
v -0.01996085 0.01113094 0.01580000
v -0.02002382 0.01117924 0.01580000
v -0.02074745 0.01117924 0.01441310
v -0.01980985 0.01117924 0.01578330
v -0.01980985 0.01114022 0.01578982
v -0.01985951 0.01117924 0.01579077
v -0.01992028 0.01117924 0.01579620
v -0.01993138 0.01117924 0.01579715
v -0.01993799 0.01117924 0.01579769
v -0.01982802 0.01117924 0.01578615
f 11 5 10
f 12 13 5
f 12 5 11
f 8 7 17
f 4 7 8
f 8 9 4
f 20 28 21
f 20 9 8
f 16 17 7
f 3 4 1
f 7 4 3
f 17 16 24
f 24 25 17
f 19 20 8
f 28 20 19
f 29 24 23
f 25 24 29
f 18 19 8
f 8 17 18
f 17 25 18
f 19 18 26
f 28 19 27
f 19 26 27
f 14 6 2
f 2 5 14
f 5 13 14
f 11 22 14
f 14 12 11
f 13 12 14
f 14 15 6
f 14 22 15
f 20 2 1
f 20 5 2
f 20 10 5
f 20 21 10
f 1 4 20
f 20 4 9
f 2 6 24
f 1 2 24
f 6 15 24
f 15 23 24
f 24 3 1
f 24 16 7
f 7 3 24
f 27 23 15
f 27 22 11
f 15 22 27
f 11 10 27
f 10 21 27
f 21 28 27
f 27 29 23
f 25 29 27
f 27 18 25
f 27 26 18

