# https://github.com/mikedh/trimesh
v 0.00527897 -0.00678561 0.01439851
v 0.00435928 -0.00678561 0.01440698
v 0.00453160 -0.00699951 0.01440980
v 0.00477049 -0.00724932 0.01440980
v 0.00527897 -0.00724932 0.01439851
v 0.00527897 -0.00678561 -0.01439877
v 0.00394094 -0.00678561 0.01440980
v 0.00256181 -0.00724932 0.01440980
v 0.00527897 -0.00724932 -0.01439877
v 0.00476775 -0.00724932 -0.01440723
v 0.00440421 -0.00685048 -0.01440723
v 0.00403107 -0.00678561 -0.01440723
v 0.00258455 -0.00678561 0.01440980
v 0.00248045 -0.00678561 0.01440698
v 0.00248045 -0.00724932 0.01440698
v 0.00248045 -0.00724932 -0.01440723
v 0.00248045 -0.00678561 -0.01440723
f 3 4 1
f 1 4 5
f 6 9 10
f 7 3 2
f 2 3 1
f 8 13 14
f 14 15 8
f 11 6 10
f 6 11 12
f 14 17 16
f 16 15 14
f 6 5 9
f 1 5 6
f 8 16 10
f 8 5 4
f 10 9 8
f 15 16 8
f 9 5 8
f 7 13 8
f 4 3 8
f 8 3 7
f 14 13 12
f 12 17 14
f 1 6 12
f 12 13 7
f 12 2 1
f 7 2 12
f 10 16 12
f 12 16 17
f 12 11 10

