# https://github.com/mikedh/trimesh
v 0.00440379 -0.00585986 0.01620000
v 0.00483959 -0.00642778 0.01620000
v 0.00466910 -0.00620597 0.01700245
v 0.00440379 -0.00585986 0.01700245
v 0.00440379 -0.00485774 0.01620000
v 0.00542880 -0.00707082 0.01620000
v 0.00483959 -0.00642778 0.01700245
v 0.00440379 -0.00485774 0.01700245
v 0.00630419 -0.00485774 0.01620000
v 0.00607207 -0.00766025 0.01620000
v 0.00586555 -0.00747114 0.01700245
v 0.00542880 -0.00707082 0.01700245
v 0.00630419 -0.00485774 0.01700245
v 0.00634079 -0.00526512 0.01620000
v 0.00607207 -0.00766025 0.01700245
v 0.00634079 -0.00786674 0.01620000
v 0.00634079 -0.00526512 0.01700245
v 0.00634079 -0.00786674 0.01700245
f 1 3 4
f 2 3 1
f 3 2 7
f 6 10 11
f 11 12 6
f 15 11 10
f 4 5 1
f 8 5 4
f 17 16 14
f 17 18 16
f 14 16 9
f 1 5 9
f 9 2 1
f 16 10 9
f 6 2 9
f 9 10 6
f 13 17 9
f 9 17 14
f 9 5 8
f 8 13 9
f 7 2 6
f 6 12 7
f 8 4 15
f 18 17 15
f 15 4 3
f 15 13 8
f 3 7 15
f 15 17 13
f 15 7 12
f 12 11 15
f 15 10 16
f 16 18 15

