# https://github.com/mikedh/trimesh
v 0.00027982 0.00889451 0.01590000
v -0.00160958 0.00889451 0.01590000
v 0.00027982 0.00814907 0.01590000
v 0.00027982 0.00889451 -0.01439910
v -0.00160958 0.00814907 0.01590000
v -0.00160958 0.00889451 -0.01439910
v 0.00027982 0.00814907 -0.01439910
v -0.00071501 0.00814907 -0.01441987
v -0.00073074 0.00817359 -0.01441987
v -0.00078383 0.00824284 -0.01441987
v -0.00084283 0.00830713 -0.01441987
v -0.00090721 0.00836610 -0.01441987
v -0.00097639 0.00841922 -0.01441987
v -0.00104983 0.00846607 -0.01441987
v -0.00112734 0.00850635 -0.01441987
v -0.00120780 0.00853963 -0.01441987
v -0.00129104 0.00856590 -0.01441987
v -0.00137632 0.00858480 -0.01441987
v -0.00146271 0.00859619 -0.01441987
v -0.00154983 0.00859998 -0.01441987
v -0.00160958 0.00814907 -0.01441987
v -0.00160958 0.00859735 -0.01441987
f 8 4 7
f 20 6 4
f 6 20 22
f 10 11 4
f 13 14 4
f 19 20 4
f 4 14 15
f 9 4 8
f 9 10 4
f 4 11 12
f 12 13 4
f 4 17 18
f 18 19 4
f 16 17 4
f 4 15 16
f 5 3 1
f 5 1 2
f 2 1 6
f 1 4 6
f 1 3 7
f 7 4 1
f 3 5 21
f 21 7 3
f 8 7 21
f 22 5 2
f 2 6 22
f 22 21 5
f 8 21 16
f 14 13 16
f 16 22 20
f 16 15 14
f 20 19 16
f 21 22 16
f 11 10 16
f 16 9 8
f 16 12 11
f 16 18 17
f 10 9 16
f 13 12 16
f 19 18 16

