# https://github.com/mikedh/trimesh
v -0.00640661 -0.00679770 0.01700000
v -0.00669696 -0.00679765 0.01700000
v -0.00640661 -0.00699999 0.01700000
v -0.00640661 -0.00679593 0.01070633
v -0.00669696 -0.00679593 0.01087510
v -0.00669696 -0.00699999 0.01700000
v -0.00640661 -0.00703674 0.01587997
v -0.00640661 -0.00679593 -0.01434866
v -0.00669696 -0.00679593 -0.01434866
v -0.00669696 -0.00703674 0.01587997
v -0.00640661 -0.00703674 -0.01434559
v -0.00669696 -0.00679975 -0.01434866
v -0.00669696 -0.00703674 -0.01434559
f 1 4 5
f 2 1 5
f 8 11 12
f 12 9 8
f 12 11 13
f 3 4 1
f 7 11 3
f 8 4 3
f 3 11 8
f 2 6 3
f 3 1 2
f 10 11 7
f 13 11 10
f 7 3 10
f 10 3 6
f 5 4 8
f 8 9 5
f 13 10 12
f 12 6 2
f 2 5 12
f 12 10 6
f 12 5 9

