# https://github.com/mikedh/trimesh
v -0.01766047 0.01090246 -0.01590000
v -0.01766047 0.01199806 -0.01590000
v -0.01683940 0.01090246 -0.01590000
v -0.01766047 0.01090246 -0.00215654
v -0.01683940 0.01199806 -0.01590000
v -0.01766047 0.01233931 -0.01462601
v -0.01683940 0.01234444 -0.01460718
v -0.01683940 0.01230516 -0.01475382
v -0.01683940 0.01090246 -0.00215654
v -0.01766047 0.01239985 -0.00215654
v -0.01766047 0.01239868 -0.01440404
v -0.01683940 0.01239692 -0.01441077
v -0.01683940 0.01239985 -0.00215654
v -0.01766047 0.01239985 -0.01439866
v -0.01683940 0.01239898 -0.01440270
v -0.01683940 0.01239985 -0.01439866
f 16 15 14
f 6 7 2
f 5 2 8
f 2 7 8
f 7 6 11
f 14 15 11
f 12 11 15
f 7 11 12
f 9 4 1
f 1 3 9
f 2 3 1
f 2 5 3
f 4 9 13
f 10 4 13
f 13 14 10
f 13 16 14
f 1 4 11
f 11 4 10
f 10 14 11
f 11 2 1
f 11 6 2
f 12 9 3
f 3 5 12
f 12 13 9
f 15 16 12
f 5 8 12
f 16 13 12
f 12 8 7

