# https://github.com/mikedh/trimesh
v -0.00053206 0.00380370 -0.00542233
v -0.00053206 0.00179570 -0.00542233
v -0.00053206 0.00380370 -0.01439992
v -0.00257755 0.00380370 -0.00542233
v -0.00257755 0.00179570 -0.00542233
v -0.00053206 0.00179570 -0.01439992
v -0.00055208 0.00284363 -0.01440696
v -0.00056549 0.00297337 -0.01440696
v -0.00058431 0.00305868 -0.01440696
v -0.00061054 0.00314183 -0.01440696
v -0.00066400 0.00326115 -0.01440696
v -0.00073108 0.00337340 -0.01440696
v -0.00078414 0.00344259 -0.01440696
v -0.00084320 0.00350687 -0.01440696
v -0.00090748 0.00356584 -0.01440696
v -0.00101340 0.00364231 -0.01440696
v -0.00112752 0.00370600 -0.01440696
v -0.00124966 0.00375259 -0.01440696
v -0.00137660 0.00378443 -0.01440696
v -0.00146310 0.00379584 -0.01440696
v -0.00159345 0.00379780 -0.01440696
v -0.00257755 0.00380370 -0.01439992
v -0.00257755 0.00179570 -0.01439992
v -0.00159345 0.00180218 -0.01440696
v -0.00146310 0.00180415 -0.01440696
v -0.00137660 0.00181555 -0.01440696
v -0.00124966 0.00184739 -0.01440696
v -0.00112752 0.00189398 -0.01440696
v -0.00101340 0.00195767 -0.01440696
v -0.00090748 0.00203414 -0.01440696
v -0.00084320 0.00209311 -0.01440696
v -0.00078414 0.00215739 -0.01440696
v -0.00073108 0.00222659 -0.01440696
v -0.00066400 0.00233883 -0.01440696
v -0.00061054 0.00245815 -0.01440696
v -0.00058431 0.00254150 -0.01440696
v -0.00056549 0.00262661 -0.01440696
v -0.00055408 0.00271311 -0.01440696
v -0.00172339 0.00378443 -0.01440696
v -0.00185034 0.00375259 -0.01440696
v -0.00197247 0.00370600 -0.01440696
v -0.00208660 0.00364231 -0.01440696
v -0.00219252 0.00356584 -0.01440696
v -0.00225679 0.00350687 -0.01440696
v -0.00231586 0.00344259 -0.01440696
v -0.00236892 0.00337340 -0.01440696
v -0.00243599 0.00326115 -0.01440696
v -0.00248945 0.00314183 -0.01440696
v -0.00251568 0.00305868 -0.01440696
v -0.00253450 0.00297337 -0.01440696
v -0.00254592 0.00288688 -0.01440696
v -0.00254792 0.00275655 -0.01440696
v -0.00253450 0.00262661 -0.01440696
v -0.00251568 0.00254150 -0.01440696
v -0.00248945 0.00245815 -0.01440696
v -0.00243599 0.00233883 -0.01440696
v -0.00236892 0.00222659 -0.01440696
v -0.00231586 0.00215739 -0.01440696
v -0.00225679 0.00209311 -0.01440696
v -0.00219252 0.00203414 -0.01440696
v -0.00208660 0.00195767 -0.01440696
v -0.00197247 0.00189398 -0.01440696
v -0.00185034 0.00184739 -0.01440696
v -0.00172339 0.00181555 -0.01440696
f 7 3 6
f 24 6 23
f 23 22 52
f 21 22 3
f 8 3 7
f 3 10 11
f 6 28 29
f 9 10 3
f 3 8 9
f 12 13 3
f 3 11 12
f 7 6 38
f 6 37 38
f 6 35 36
f 36 37 6
f 6 31 32
f 32 33 6
f 34 35 6
f 6 33 34
f 6 24 25
f 25 26 6
f 27 28 6
f 6 26 27
f 30 31 6
f 6 29 30
f 64 24 23
f 61 62 23
f 23 52 53
f 3 13 14
f 14 15 3
f 16 17 3
f 3 15 16
f 20 21 3
f 3 19 20
f 3 17 18
f 18 19 3
f 47 48 22
f 22 21 39
f 23 62 63
f 63 64 23
f 23 59 60
f 60 61 23
f 54 55 23
f 23 53 54
f 58 59 23
f 23 57 58
f 23 55 56
f 56 57 23
f 51 52 22
f 22 50 51
f 22 48 49
f 49 50 22
f 22 45 46
f 46 47 22
f 40 41 22
f 22 39 40
f 44 45 22
f 22 43 44
f 22 41 42
f 42 43 22
f 5 2 1
f 5 1 4
f 2 5 6
f 6 5 23
f 1 2 6
f 6 3 1
f 22 5 4
f 23 5 22
f 4 1 22
f 1 3 22
f 17 16 42
f 28 27 42
f 10 9 42
f 42 36 35
f 42 63 62
f 42 8 7
f 13 12 42
f 35 34 42
f 31 30 42
f 55 54 42
f 42 18 17
f 42 49 48
f 42 11 10
f 7 38 42
f 42 32 31
f 42 25 24
f 42 29 28
f 24 64 42
f 42 53 52
f 42 14 13
f 21 20 42
f 42 56 55
f 42 39 21
f 42 9 8
f 42 12 11
f 42 38 37
f 37 36 42
f 33 32 42
f 42 34 33
f 26 25 42
f 42 27 26
f 42 30 29
f 41 40 42
f 62 61 42
f 42 60 59
f 59 58 42
f 15 14 42
f 42 16 15
f 42 20 19
f 19 18 42
f 52 51 42
f 48 47 42
f 42 46 45
f 45 44 42
f 64 63 42
f 61 60 42
f 42 54 53
f 42 58 57
f 57 56 42
f 42 51 50
f 50 49 42
f 47 46 42
f 42 40 39
f 42 44 43

