# https://github.com/mikedh/trimesh
v -0.00069696 -0.00679697 0.01700000
v -0.00069696 -0.00699997 0.01700000
v -0.00069696 -0.00679590 0.01695383
v -0.00268874 -0.00679590 0.01699692
v -0.00268874 -0.00679760 0.01700000
v -0.00268874 -0.00699997 0.01700000
v -0.00069696 -0.00703674 0.01589494
v -0.00069696 -0.00679590 0.01591648
v -0.00268874 -0.00679590 0.01591648
v -0.00268874 -0.00703674 0.01589494
v -0.00069696 -0.00703674 -0.01439737
v -0.00069696 -0.00679593 -0.01419729
v -0.00095685 -0.00679593 -0.01444662
v -0.00108514 -0.00679593 -0.01444662
v -0.00268874 -0.00679593 -0.01439737
v -0.00268874 -0.00703674 -0.01439737
v -0.00074220 -0.00703674 -0.01444662
v -0.00072465 -0.00703641 -0.01444662
v -0.00069696 -0.00679682 -0.01439737
v -0.00090733 -0.00683398 -0.01444662
v -0.00214439 -0.00679708 -0.01444662
v -0.00219274 -0.00683398 -0.01444662
v -0.00225708 -0.00689294 -0.01444662
v -0.00231577 -0.00695718 -0.01444662
v -0.00236880 -0.00702642 -0.01444662
v -0.00237543 -0.00703674 -0.01444662
v -0.00073108 -0.00702642 -0.01444662
v -0.00078411 -0.00695718 -0.01444662
v -0.00084299 -0.00689294 -0.01444662
f 4 1 3
f 5 1 4
f 16 15 26
f 13 8 12
f 12 19 13
f 14 21 15
f 15 9 14
f 23 24 15
f 15 24 25
f 25 26 15
f 18 19 11
f 15 21 22
f 22 23 15
f 17 18 11
f 13 19 20
f 19 29 20
f 28 29 19
f 19 18 27
f 27 28 19
f 2 5 6
f 1 5 2
f 7 2 10
f 10 2 6
f 9 5 4
f 16 10 9
f 9 15 16
f 6 5 9
f 9 10 6
f 3 8 9
f 4 3 9
f 12 3 1
f 7 11 12
f 1 2 12
f 12 2 7
f 12 8 3
f 11 19 12
f 14 9 8
f 14 8 13
f 17 11 7
f 17 10 16
f 7 10 17
f 16 26 17
f 27 14 13
f 27 25 24
f 24 23 27
f 21 14 27
f 27 17 26
f 26 25 27
f 27 22 21
f 23 22 27
f 18 17 27
f 13 20 27
f 27 20 29
f 29 28 27

