# https://github.com/mikedh/trimesh
v 0.00346137 0.01038019 0.01590000
v 0.00248045 0.01038019 0.01590000
v 0.00354847 0.00987865 0.01590000
v 0.00346137 0.01038019 0.01440980
v 0.00248045 0.01038019 0.01440980
v 0.00248045 0.00729202 0.01590000
v 0.00354847 0.00987865 0.01440980
v 0.00354847 0.00729202 0.01590000
v 0.00248045 0.00729202 0.01440980
v 0.00354847 0.00729202 0.01440980
f 2 1 5
f 5 1 4
f 8 1 2
f 2 6 8
f 3 1 8
f 7 1 3
f 4 1 7
f 3 8 7
f 7 8 10
f 9 5 4
f 9 7 10
f 4 7 9
f 9 8 6
f 10 8 9
f 9 6 2
f 2 5 9

