# https://github.com/mikedh/trimesh
v 0.02110628 0.00508439 0.01869984
v 0.02116015 0.00499979 0.01869984
v 0.02110628 0.00508439 0.01700245
v 0.01869188 0.00508439 0.01869984
v 0.02116015 0.00499979 0.01700245
v 0.02156291 0.00422613 0.01869984
v 0.01869188 0.00508439 0.01700245
v 0.01847427 0.00423355 0.01869984
v 0.02156291 0.00422613 0.01700245
v 0.02189681 0.00342025 0.01869984
v 0.01847427 0.00423355 0.01700245
v 0.01847427 0.00271682 0.01869984
v 0.02189681 0.00342025 0.01700245
v 0.02211870 0.00271682 0.01869984
v 0.01847427 0.00271682 0.01700245
v 0.02211870 0.00271682 0.01700245
f 14 12 16
f 16 12 15
f 7 4 1
f 1 3 7
f 11 12 8
f 15 12 11
f 8 4 11
f 4 7 11
f 10 4 8
f 10 2 1
f 1 4 10
f 8 12 10
f 10 12 14
f 6 2 10
f 14 16 10
f 16 13 10
f 6 10 9
f 9 10 13
f 5 16 15
f 5 7 3
f 15 11 5
f 5 13 16
f 5 11 7
f 5 9 13
f 5 3 1
f 1 2 5
f 5 2 6
f 6 9 5

