# https://github.com/mikedh/trimesh
v 0.00094347 -0.00679640 0.01700000
v -0.00069696 -0.00679694 0.01700000
v 0.00094347 -0.00699999 0.01700000
v 0.00094347 -0.00679593 0.01697302
v -0.00069696 -0.00679593 0.01695843
v -0.00069696 -0.00699999 0.01700000
v 0.00094347 -0.00703674 0.01589953
v 0.00094347 -0.00679593 0.00955047
v -0.00069696 -0.00679593 0.00955047
v -0.00069696 -0.00703674 0.01589953
v 0.00094347 -0.00703674 0.00955047
v -0.00069696 -0.00703674 0.00955047
f 2 1 5
f 4 5 1
f 11 10 12
f 7 10 11
f 1 3 4
f 7 11 4
f 4 3 7
f 4 11 8
f 8 11 9
f 9 11 12
f 9 4 8
f 5 4 9
f 6 9 12
f 2 5 6
f 12 10 6
f 5 9 6
f 6 3 1
f 6 1 2
f 7 3 6
f 6 10 7

