# https://github.com/mikedh/trimesh
v -0.01428572 -0.01240000 0.00216485
v -0.01428572 -0.01008270 0.00216485
v -0.01326432 -0.01240000 0.00216485
v -0.01428572 -0.01240000 0.01439957
v -0.01326432 -0.01008270 0.00216485
v -0.01428572 -0.01008270 0.01590000
v -0.01326432 -0.01240000 0.01439957
v -0.01326432 -0.01233989 0.01462409
v -0.01428572 -0.01235464 0.01456897
v -0.01326432 -0.01008270 0.01590000
v -0.01428572 -0.01199806 0.01590000
v -0.01326432 -0.01201643 0.01583143
v -0.01326432 -0.01199806 0.01590000
f 4 7 8
f 4 8 9
f 9 8 11
f 12 13 11
f 11 8 12
f 1 2 5
f 5 3 1
f 10 5 2
f 2 6 10
f 1 3 7
f 7 4 1
f 9 2 1
f 9 6 2
f 1 4 9
f 9 11 6
f 13 10 6
f 6 11 13
f 3 5 12
f 5 10 12
f 12 7 3
f 12 8 7
f 10 13 12

