# https://github.com/mikedh/trimesh
v 0.00248045 0.01240000 0.01316141
v -0.00343702 0.01240000 0.01316141
v 0.00248045 0.01009442 0.01316141
v 0.00248045 0.01240000 -0.01439800
v -0.00343702 0.01009442 0.01316141
v -0.00343702 0.01240000 -0.01439800
v 0.00248045 0.01009442 -0.01590000
v 0.00248045 0.01234787 -0.01459429
v -0.00343702 0.01239413 -0.01442076
v -0.00343702 0.01009442 -0.01439800
v 0.00094953 0.01009442 -0.01590000
v 0.00248045 0.01199806 -0.01590000
v -0.00343702 0.01220614 -0.01512340
v -0.00343702 0.01231966 -0.01469954
v -0.00343702 0.01234629 -0.01459997
v -0.00343702 0.01010006 -0.01590000
v -0.00343702 0.01199806 -0.01590000
f 10 16 11
f 13 14 8
f 13 12 17
f 13 8 12
f 9 6 4
f 4 8 9
f 8 14 15
f 15 9 8
f 5 3 1
f 5 1 2
f 2 1 6
f 1 4 6
f 3 5 11
f 11 7 3
f 5 10 11
f 11 12 7
f 11 16 17
f 17 12 11
f 1 3 8
f 3 7 8
f 8 4 1
f 7 12 8
f 15 5 2
f 15 10 5
f 15 16 10
f 17 16 15
f 2 6 15
f 15 13 17
f 14 13 15
f 6 9 15

