# https://github.com/mikedh/trimesh
v 0.01229759 -0.00001771 -0.01439757
v 0.01291072 -0.00000576 -0.01440039
v 0.01291072 -0.00001771 -0.01439757
v 0.01216369 -0.00001771 -0.01414376
v 0.01216369 -0.00001543 -0.01439757
v 0.01216369 0.00114486 -0.01439757
v 0.01291072 0.00114486 -0.01439757
v 0.01291072 -0.00001771 0.01440980
v 0.01216369 -0.00001771 0.01440980
v 0.01216369 0.00114486 0.01440980
v 0.01291072 0.00114486 0.01440980
f 5 6 2
f 4 5 1
f 2 3 1
f 1 5 2
f 2 6 7
f 9 10 6
f 9 5 4
f 6 5 9
f 10 9 11
f 11 9 8
f 1 9 4
f 8 9 1
f 1 3 8
f 8 3 7
f 7 3 2
f 7 11 8
f 6 10 7
f 10 11 7

