# https://github.com/mikedh/trimesh
v 0.00250000 0.00000035 0.01620000
v 0.00252590 -0.00059162 0.01700245
v 0.00250000 0.00000035 0.01700245
v 0.00253820 0.00087137 0.01620000
v 0.00253820 -0.00087068 0.01620000
v 0.00253820 -0.00087068 0.01700245
v 0.00253820 0.00087137 0.01700245
v 0.00265205 0.00173600 0.01620000
v 0.00265205 -0.00173622 0.01620000
v 0.00265205 -0.00173622 0.01700245
v 0.00265205 0.00173600 0.01700245
v 0.00271261 0.00200957 0.01700245
v 0.00284081 0.00258781 0.01620000
v 0.00284081 -0.00258803 0.01620000
v 0.00284081 -0.00258803 0.01700245
v 0.00284081 0.00258781 0.01700245
v 0.00292503 0.00285498 0.01700245
v 0.00310317 0.00341950 0.01620000
v 0.00290044 -0.00278475 0.01700245
v 0.00310317 -0.00341972 0.01620000
v 0.00307857 -0.00335018 0.01700245
v 0.00310317 0.00341950 0.01700245
v 0.00321031 0.00367843 0.01700245
v 0.00343708 0.00422556 0.01620000
v 0.00343708 -0.00422579 0.01620000
v 0.00310317 -0.00341972 0.01700245
v 0.00343708 0.00422556 0.01700245
v 0.00356621 0.00447443 0.01700245
v 0.00367037 0.00467480 0.01620000
v 0.00366907 -0.00467228 0.01620000
v 0.00343708 -0.00422579 0.01700245
v 0.00367037 0.00467480 0.01700245
v 0.00440342 0.00467480 0.01620000
v 0.00440342 -0.00467228 0.01620000
v 0.00366907 -0.00467228 0.01700245
v 0.00440342 0.00467480 0.01700245
v 0.00440342 -0.00467228 0.01700245
f 5 2 1
f 14 20 21
f 1 2 3
f 2 5 6
f 19 15 14
f 14 21 19
f 26 21 20
f 22 18 17
f 16 17 13
f 13 17 18
f 29 24 28
f 28 32 29
f 12 8 11
f 12 13 8
f 16 13 12
f 27 28 24
f 23 24 18
f 23 18 22
f 23 27 24
f 36 34 33
f 37 34 36
f 30 34 35
f 35 34 37
f 25 35 31
f 30 35 25
f 10 9 14
f 14 15 10
f 4 3 7
f 1 3 4
f 4 7 11
f 11 8 4
f 32 36 33
f 33 29 32
f 6 5 9
f 9 10 6
f 20 25 26
f 26 25 31
f 13 5 1
f 33 34 13
f 13 29 33
f 13 34 30
f 30 25 13
f 14 9 13
f 13 20 14
f 18 24 13
f 1 4 13
f 9 5 13
f 13 25 20
f 13 4 8
f 13 24 29
f 15 19 23
f 23 35 37
f 37 36 23
f 23 3 2
f 23 26 31
f 31 35 23
f 22 17 23
f 11 7 23
f 23 10 15
f 2 6 23
f 7 3 23
f 23 12 11
f 36 32 23
f 23 6 10
f 23 19 21
f 21 26 23
f 23 17 16
f 32 28 23
f 16 12 23
f 28 27 23

