# https://github.com/mikedh/trimesh
v -0.02004010 0.01084760 0.01503912
v -0.02044996 0.01084760 0.01503912
v -0.02004010 0.01050001 0.01503912
v -0.02004010 0.01084760 -0.01439712
v -0.02044996 0.01050001 0.01503912
v -0.02074748 0.01084760 0.01459530
v -0.02004010 0.01049813 0.01459818
v -0.02004010 0.01049813 -0.01439712
v -0.02074748 0.01084760 -0.01439712
v -0.02074748 0.01049813 0.01429846
v -0.02074748 0.01049813 -0.01439712
f 6 5 2
f 3 5 7
f 10 5 6
f 7 5 10
f 8 9 4
f 11 9 8
f 1 4 2
f 2 9 6
f 4 9 2
f 3 4 1
f 7 8 3
f 3 8 4
f 1 2 3
f 3 2 5
f 6 9 10
f 10 9 11
f 10 8 7
f 11 8 10

