# https://github.com/mikedh/trimesh
v 0.00438140 0.01239806 -0.01440723
v 0.00438140 0.01097737 -0.01440723
v 0.00438140 0.01234191 -0.01590000
v 0.00437805 0.01234240 -0.01590000
v 0.00419997 0.01234991 -0.01590000
v 0.00248063 0.01239806 -0.01440723
v 0.00438140 0.01097737 -0.01590000
v 0.00362407 0.01073055 -0.01440723
v 0.00402171 0.01234240 -0.01590000
v 0.00248063 0.01234550 -0.01460347
v 0.00248063 0.01073055 -0.01440723
v 0.00384494 0.01231971 -0.01590000
v 0.00367077 0.01228216 -0.01590000
v 0.00362407 0.01073055 -0.01590000
v 0.00248063 0.01232999 -0.01466133
v 0.00248063 0.01073055 -0.01590000
v 0.00248063 0.01199796 -0.01590000
f 6 1 5
f 1 3 4
f 4 5 1
f 6 12 13
f 6 5 9
f 9 12 6
f 15 13 17
f 6 13 10
f 13 15 10
f 11 2 1
f 11 1 6
f 8 2 11
f 1 2 7
f 7 3 1
f 8 11 14
f 14 11 16
f 14 2 8
f 14 7 2
f 9 4 3
f 16 17 9
f 5 4 9
f 3 7 9
f 17 13 9
f 9 14 16
f 7 14 9
f 9 13 12
f 10 11 6
f 10 17 16
f 16 11 10
f 10 15 17

