# https://github.com/mikedh/trimesh
v -0.02074678 -0.01170533 0.01021878
v -0.02221391 -0.01170533 0.01021878
v -0.02074678 -0.01239796 0.01021878
v -0.02074678 -0.01170533 -0.01508492
v -0.02211408 -0.01181422 0.01021878
v -0.02221391 -0.01170533 -0.01439882
v -0.02084905 -0.01239349 0.01021878
v -0.02074678 -0.01239796 -0.01439882
v -0.02074678 -0.01230080 -0.01508492
v -0.02196211 -0.01170533 -0.01508492
v -0.02209541 -0.01183138 0.01021878
v -0.02211408 -0.01181422 -0.01439882
v -0.02208722 -0.01170533 -0.01475054
v -0.02087433 -0.01239234 0.01021878
v -0.02087433 -0.01239234 -0.01439882
v -0.02084014 -0.01227937 -0.01508492
v -0.02104742 -0.01236955 -0.01439882
v -0.02121777 -0.01233179 -0.01439882
v -0.02200520 -0.01170533 -0.01497346
v -0.02193008 -0.01173462 -0.01508492
v -0.02198552 -0.01193214 -0.01439882
v -0.02198552 -0.01193214 0.01021878
v -0.02204772 -0.01170533 -0.01485952
v -0.02102228 -0.01237288 0.01021878
v -0.02085853 -0.01227429 -0.01508492
v -0.02104742 -0.01236955 0.01021878
v -0.02121777 -0.01233179 0.01021878
v -0.02138410 -0.01227937 -0.01439882
v -0.02089746 -0.01226215 -0.01508492
v -0.02186759 -0.01179151 -0.01508492
v -0.02184705 -0.01203832 -0.01439882
v -0.02184519 -0.01180988 -0.01508492
v -0.02184705 -0.01203832 0.01021878
v -0.02138410 -0.01227937 0.01021878
v -0.02154512 -0.01221258 -0.01439882
v -0.02134633 -0.01209758 -0.01508492
v -0.02102027 -0.01222262 -0.01508492
v -0.02101294 -0.01222526 -0.01508492
v -0.02169997 -0.01213203 -0.01439882
v -0.02179807 -0.01184596 -0.01508492
v -0.02174177 -0.01188800 -0.01508492
v -0.02169839 -0.01191708 -0.01508492
v -0.02169997 -0.01213203 0.01021878
v -0.02154512 -0.01221258 0.01021878
v -0.02150534 -0.01202801 -0.01508492
v -0.02146741 -0.01204653 -0.01508492
v -0.02136500 -0.01208979 -0.01508492
v -0.02165601 -0.01194400 -0.01508492
v -0.02160818 -0.01197316 -0.01508492
v -0.02153866 -0.01201066 -0.01508492
f 9 18 16
f 10 21 12
f 35 39 45
f 45 46 35
f 18 9 17
f 7 8 3
f 21 30 32
f 31 21 32
f 40 31 32
f 20 21 10
f 20 30 21
f 15 9 8
f 15 17 9
f 15 7 14
f 8 7 15
f 13 12 6
f 13 23 12
f 10 12 19
f 12 23 19
f 21 22 11
f 11 5 12
f 11 12 21
f 36 37 28
f 36 28 35
f 18 28 29
f 39 48 49
f 42 39 31
f 42 48 39
f 26 17 24
f 17 15 24
f 24 15 14
f 35 46 47
f 47 36 35
f 28 37 38
f 38 29 28
f 16 18 25
f 18 29 25
f 50 45 39
f 39 49 50
f 41 31 40
f 41 42 31
f 1 3 9
f 9 4 1
f 3 8 9
f 35 44 43
f 43 39 35
f 33 31 43
f 31 39 43
f 22 31 33
f 22 21 31
f 28 34 44
f 28 44 35
f 27 34 28
f 28 18 27
f 17 26 27
f 27 18 17
f 2 6 5
f 6 12 5
f 2 1 19
f 1 4 19
f 19 6 2
f 4 10 19
f 19 13 6
f 23 13 19
f 24 3 1
f 24 1 2
f 24 43 44
f 24 7 3
f 44 34 24
f 24 34 27
f 27 26 24
f 24 11 22
f 33 43 24
f 24 22 33
f 14 7 24
f 2 5 24
f 5 11 24
f 41 10 4
f 4 9 41
f 45 50 41
f 41 20 10
f 41 9 16
f 40 32 41
f 46 45 41
f 41 32 30
f 30 20 41
f 16 25 41
f 41 38 37
f 37 36 41
f 41 47 46
f 41 49 48
f 48 42 41
f 36 47 41
f 29 38 41
f 41 25 29
f 41 50 49

