# https://github.com/mikedh/trimesh
v 0.00028000 0.00700938 -0.01440000
v 0.00028000 0.00889433 -0.01440000
v 0.00030481 0.00700938 -0.01440000
v 0.00028000 0.00700938 0.01590000
v 0.00089356 0.00889433 -0.01440000
v 0.00028000 0.00889433 0.01590000
v 0.00089356 0.00701104 -0.01440000
v 0.00089356 0.00700938 -0.01390469
v 0.00089356 0.00700938 0.01590000
v 0.00089356 0.00889433 0.01590000
f 3 7 8
f 1 4 6
f 6 2 1
f 1 2 3
f 3 2 5
f 5 7 3
f 3 4 1
f 3 9 4
f 8 9 3
f 10 7 5
f 10 9 8
f 8 7 10
f 2 6 10
f 5 2 10
f 10 6 4
f 4 9 10

