# https://github.com/mikedh/trimesh
v -0.00027968 -0.00703674 0.01590000
v -0.00141099 -0.00703674 0.01590000
v -0.00027968 -0.00752734 0.01590000
v -0.00027968 -0.00703674 -0.01439910
v -0.00141099 -0.00752570 0.01590000
v -0.00141099 -0.00703674 -0.01439910
v -0.00028067 -0.00752748 0.01590000
v -0.00027968 -0.00752748 0.01588813
v -0.00027968 -0.00752748 -0.01439910
v -0.00055320 -0.00752729 -0.01441987
v -0.00055387 -0.00751283 -0.01441987
v -0.00056527 -0.00742632 -0.01441987
v -0.00058410 -0.00734115 -0.01441987
v -0.00061034 -0.00725800 -0.01441987
v -0.00064379 -0.00717739 -0.01441987
v -0.00068399 -0.00710001 -0.01441987
v -0.00072430 -0.00703674 -0.01441987
v -0.00030038 -0.00752748 0.01590000
v -0.00141099 -0.00752748 0.01543701
v -0.00087723 -0.00703674 -0.01441987
v -0.00141099 -0.00703708 -0.01441987
v -0.00056118 -0.00752748 -0.01441987
v -0.00141099 -0.00752748 -0.01441987
f 4 9 10
f 5 19 18
f 8 3 7
f 10 9 22
f 4 14 15
f 17 4 16
f 4 15 16
f 11 4 10
f 11 12 4
f 13 14 4
f 4 12 13
f 21 6 20
f 2 5 18
f 18 1 2
f 18 3 1
f 7 3 18
f 1 3 8
f 8 4 1
f 9 4 8
f 7 18 22
f 9 8 22
f 22 18 19
f 19 23 22
f 22 8 7
f 6 5 2
f 6 23 19
f 6 19 5
f 6 21 23
f 20 22 23
f 17 16 20
f 23 21 20
f 10 22 20
f 14 13 20
f 20 15 14
f 20 11 10
f 20 16 15
f 12 11 20
f 20 13 12
f 2 1 20
f 1 4 20
f 20 4 17
f 20 6 2

