# https://github.com/mikedh/trimesh
v 0.01221561 -0.00001771 0.01440980
v 0.01010081 -0.00001771 0.01440980
v 0.01221561 -0.00101729 0.01440980
v 0.01221561 -0.00001771 -0.01439877
v 0.01009583 -0.00001771 0.01439851
v 0.01009438 -0.00020968 0.01439851
v 0.01009438 -0.00101729 0.01439851
v 0.01010891 -0.00020244 0.01440980
v 0.01032654 -0.00101729 0.01440980
v 0.01221561 -0.00101729 -0.01439877
v 0.01177433 -0.00101729 -0.01440723
v 0.01125062 -0.00001771 -0.01440723
v 0.01009438 -0.00001771 0.01421799
v 0.01032488 -0.00101425 0.01440980
v 0.01024493 -0.00082082 0.01440980
v 0.01024285 -0.00081426 0.01440980
v 0.01018180 -0.00062112 0.01440980
v 0.01013653 -0.00041682 0.01440980
v 0.01010933 -0.00020919 0.01440980
v 0.01009438 -0.00101729 -0.01440723
v 0.01009438 -0.00001771 -0.01440723
f 7 2 6
f 4 10 11
f 5 13 6
f 6 2 5
f 12 4 11
f 7 17 18
f 7 9 14
f 14 15 7
f 16 17 7
f 7 15 16
f 7 18 19
f 2 7 8
f 7 19 8
f 3 9 20
f 20 10 3
f 11 10 20
f 20 9 7
f 6 13 20
f 20 7 6
f 20 13 21
f 3 10 4
f 1 3 4
f 21 13 12
f 1 4 12
f 12 2 1
f 12 5 2
f 13 5 12
f 11 20 12
f 12 20 21
f 1 2 8
f 8 9 3
f 8 3 1
f 17 16 8
f 8 14 9
f 8 18 17
f 15 14 8
f 8 16 15
f 8 19 18

