# https://github.com/mikedh/trimesh
v -0.02229858 -0.00960507 -0.01589731
v -0.02230960 -0.00850876 -0.01585688
v -0.02229938 -0.00850876 -0.01589461
v -0.02229814 -0.00850876 -0.01589731
v -0.02222608 -0.00960507 -0.01589731
v -0.02257318 -0.00960507 -0.01487315
v -0.02269993 -0.00850876 -0.01439880
v -0.02195410 -0.00850876 -0.01589731
v -0.02195410 -0.00960292 -0.01589731
v -0.02195410 -0.00960507 -0.01567091
v -0.02269993 -0.00960507 -0.01439880
v -0.02269993 -0.00850876 0.01163100
v -0.02195410 -0.00850876 0.01163100
v -0.02195410 -0.00960507 0.01163100
v -0.02269993 -0.00960507 0.01163100
f 3 4 1
f 1 2 3
f 7 2 6
f 6 11 7
f 6 2 1
f 9 10 5
f 15 13 12
f 14 13 15
f 15 12 7
f 7 11 15
f 10 9 8
f 8 13 10
f 10 13 14
f 3 13 8
f 7 12 3
f 8 4 3
f 12 13 3
f 3 2 7
f 5 4 8
f 1 4 5
f 8 9 5
f 5 15 11
f 14 15 5
f 5 10 14
f 5 6 1
f 11 6 5

