# https://github.com/mikedh/trimesh
v 0.01502947 -0.00190135 0.01439851
v 0.01396090 -0.00190135 0.01440980
v 0.01502947 -0.00246879 0.01439851
v 0.01502947 -0.00190135 -0.01439877
v 0.01312499 -0.00190135 0.01440980
v 0.01387664 -0.00196601 0.01440980
v 0.01370010 -0.00207850 0.01440980
v 0.01351442 -0.00217515 0.01440980
v 0.01332092 -0.00225526 0.01440980
v 0.01312499 -0.00231697 0.01440980
v 0.01312499 -0.00246879 0.01439851
v 0.01502947 -0.00246879 -0.01403771
v 0.01502947 -0.00246729 -0.01439877
v 0.01481881 -0.00190135 -0.01440723
v 0.01312499 -0.00190135 -0.01438466
v 0.01312499 -0.00246879 -0.01440723
v 0.01436637 -0.00246879 -0.01439877
v 0.01420269 -0.00246879 -0.01440723
v 0.01422059 -0.00245740 -0.01440723
v 0.01442826 -0.00229809 -0.01440723
v 0.01462120 -0.00212133 -0.01440723
v 0.01479812 -0.00192840 -0.01440723
v 0.01312629 -0.00190135 -0.01440723
v 0.01312499 -0.00233219 -0.01440723
f 2 3 1
f 14 4 13
f 10 11 3
f 24 15 23
f 13 12 17
f 7 8 3
f 9 10 3
f 3 8 9
f 13 17 18
f 18 19 13
f 14 13 22
f 13 21 22
f 13 19 20
f 20 21 13
f 3 2 6
f 6 7 3
f 5 2 15
f 1 4 15
f 15 2 1
f 15 4 14
f 14 23 15
f 12 4 1
f 1 3 12
f 12 13 4
f 16 11 24
f 24 10 5
f 11 10 24
f 5 15 24
f 18 11 16
f 18 12 3
f 3 11 18
f 18 17 12
f 20 23 14
f 16 24 20
f 20 18 16
f 20 24 23
f 14 22 20
f 19 18 20
f 20 22 21
f 6 2 5
f 5 10 6
f 10 9 6
f 8 7 6
f 6 9 8

