# https://github.com/mikedh/trimesh
v 0.01144493 0.00301868 0.01440000
v 0.01095375 0.00301868 0.01440000
v 0.01144493 0.00257640 0.01440000
v 0.01144493 0.00301868 -0.01437621
v 0.01095375 0.00257640 0.01440000
v 0.01095375 0.00301868 -0.01415627
v 0.01144493 0.00257640 -0.01440723
v 0.01144493 0.00301855 -0.01439877
v 0.01095375 0.00257640 -0.01439877
v 0.01095375 0.00301712 -0.01439877
v 0.01099722 0.00257640 -0.01440723
v 0.01144493 0.00280704 -0.01440723
v 0.01096601 0.00257640 -0.01440441
v 0.01123211 0.00271893 -0.01440723
v 0.01100001 0.00259809 -0.01440723
f 12 10 8
f 6 4 8
f 8 10 6
f 9 10 13
f 10 11 13
f 10 12 14
f 15 11 10
f 10 14 15
f 5 3 1
f 5 1 2
f 1 3 12
f 3 7 12
f 12 4 1
f 8 4 12
f 6 5 2
f 6 9 5
f 6 10 9
f 2 1 6
f 1 4 6
f 3 5 13
f 13 7 3
f 5 9 13
f 13 11 7
f 15 12 7
f 7 11 15
f 15 14 12

