# https://github.com/mikedh/trimesh
v 0.01095370 -0.00001771 -0.01440723
v 0.01095370 0.00114486 -0.01440723
v 0.01125078 -0.00001771 -0.01440723
v 0.01095370 -0.00001771 0.01440980
v 0.01170783 0.00114486 -0.01440723
v 0.01095370 0.00114486 0.01440980
v 0.01170783 0.00096620 -0.01440723
v 0.01170783 -0.00001657 -0.01439877
v 0.01170783 -0.00001771 -0.01328174
v 0.01170783 -0.00001771 0.01440980
v 0.01170783 0.00114486 0.01440980
f 3 8 9
f 8 3 7
f 1 4 6
f 6 2 1
f 2 6 11
f 5 2 11
f 10 4 1
f 1 3 10
f 10 3 9
f 10 6 4
f 10 11 6
f 9 8 7
f 7 10 9
f 5 11 7
f 11 10 7
f 1 2 7
f 7 2 5
f 7 3 1

