# https://github.com/mikedh/trimesh
v -0.01779028 -0.00703674 0.01590000
v -0.01779028 -0.00752748 0.01590000
v -0.01779028 -0.00703674 0.00948336
v -0.02229775 -0.00703674 0.01590000
v -0.02229775 -0.00752748 0.01590000
v -0.01779028 -0.00752748 0.00948336
v -0.02270000 -0.00703674 0.00948336
v -0.02235205 -0.00703674 0.01569775
v -0.02242702 -0.00703674 0.01541825
v -0.02248470 -0.00752748 0.01520281
v -0.02270000 -0.00752748 0.00948336
v -0.02270000 -0.00703674 0.01439948
v -0.02270000 -0.00752748 0.01439948
f 13 9 12
f 8 5 4
f 8 9 5
f 5 9 10
f 9 13 10
f 6 3 1
f 1 2 6
f 3 6 11
f 7 3 11
f 5 2 1
f 1 4 5
f 7 11 13
f 13 12 7
f 1 3 8
f 8 3 7
f 8 4 1
f 7 12 8
f 12 9 8
f 10 6 2
f 10 11 6
f 2 5 10
f 10 13 11

