# https://github.com/mikedh/trimesh
v 0.00350038 -0.00998101 0.01590000
v 0.00350038 -0.00998101 0.01440980
v 0.00248057 -0.00998101 0.01590000
v 0.00371911 -0.01082565 0.01590000
v 0.00371911 -0.01082541 0.01440980
v 0.00248057 -0.00998101 0.01440980
v 0.00248057 -0.01199788 0.01590000
v 0.00371911 -0.01229259 0.01590000
v 0.00371911 -0.01239737 0.01440980
v 0.00248057 -0.01239737 0.01440980
v 0.00248057 -0.01218852 0.01518918
v 0.00367073 -0.01228219 0.01590000
v 0.00248057 -0.01239004 0.01443722
v 0.00248057 -0.01230773 0.01474442
f 5 1 4
f 2 1 5
f 9 8 10
f 12 10 8
f 11 12 7
f 12 11 14
f 10 12 13
f 12 14 13
f 8 5 4
f 9 5 8
f 12 1 3
f 3 7 12
f 4 1 12
f 12 8 4
f 6 5 9
f 2 5 6
f 9 10 6
f 3 1 6
f 6 1 2
f 13 7 3
f 3 6 13
f 13 6 10
f 13 11 7
f 13 14 11

