# https://github.com/mikedh/trimesh
v -0.00724695 -0.00679755 0.01700000
v -0.00825324 -0.00679739 0.01700000
v -0.00724695 -0.00699999 0.01700000
v -0.00724695 -0.00679713 0.01550867
v -0.00825324 -0.00699999 0.01700000
v -0.00825324 -0.00679640 0.01351102
v -0.00724695 -0.00703674 0.01588304
v -0.00724695 -0.00679593 0.01119117
v -0.00825324 -0.00703674 0.01588304
v -0.00825324 -0.00679593 0.01177113
v -0.00724695 -0.00703674 -0.01434559
v -0.00724695 -0.00679593 -0.01434866
v -0.00825324 -0.00703674 -0.01434559
v -0.00825324 -0.00679593 -0.01434866
f 2 1 4
f 4 6 2
f 8 6 4
f 10 6 8
f 13 14 11
f 11 14 12
f 2 5 3
f 3 1 2
f 9 11 7
f 13 11 9
f 7 3 9
f 9 3 5
f 1 3 4
f 7 11 4
f 12 8 4
f 4 11 12
f 4 3 7
f 13 9 10
f 10 5 2
f 10 14 13
f 10 9 5
f 2 6 10
f 10 8 12
f 12 14 10

