# https://github.com/mikedh/trimesh
v 0.00440360 0.00585962 0.01700245
v 0.00440360 0.00585962 0.01620000
v 0.00430844 0.00573574 0.01700245
v 0.00440360 0.00467480 0.01700245
v 0.00430844 0.00573574 0.01620000
v 0.00440360 0.00467480 0.01620000
v 0.00383975 0.00500003 0.01700245
v 0.00367053 0.00467480 0.01700245
v 0.00383975 0.00500003 0.01620000
v 0.00367053 0.00467480 0.01620000
f 6 2 1
f 1 4 6
f 10 6 4
f 10 4 8
f 3 4 1
f 8 4 3
f 3 7 8
f 1 2 3
f 2 5 3
f 2 6 9
f 6 10 9
f 9 5 2
f 8 7 9
f 9 10 8
f 7 3 9
f 9 3 5

