# https://github.com/mikedh/trimesh
v -0.02094621 -0.00960486 0.01460737
v -0.02195403 -0.00960497 0.01440340
v -0.02098158 -0.00852386 0.01456977
v -0.02095120 -0.00880138 0.01570362
v -0.02095012 -0.00960486 0.01580000
v -0.02230419 -0.00955755 0.01440340
v -0.02199723 -0.00907785 0.01440340
v -0.02232525 -0.00960497 0.01466273
v -0.02113735 -0.00855635 0.01456977
v -0.02115288 -0.00856090 0.01522597
v -0.02097510 -0.00852417 0.01522829
v -0.02127977 -0.00885124 0.01567108
v -0.02120849 -0.00902292 0.01576938
v -0.02099696 -0.00894851 0.01576897
v -0.02097847 -0.00909278 0.01579686
v -0.02097105 -0.00856969 0.01542201
v -0.02096362 -0.00865733 0.01557621
v -0.02109308 -0.00878392 0.01566876
v -0.02114977 -0.00916422 0.01579877
v -0.02161089 -0.00948547 0.01579699
v -0.02172334 -0.00957491 0.01579221
v -0.02191691 -0.00957946 0.01574778
v -0.02211184 -0.00959692 0.01563540
v -0.02230068 -0.00955786 0.01525290
v -0.02221551 -0.00937486 0.01440340
v -0.02213343 -0.00924625 0.01440340
v -0.02203435 -0.00913014 0.01527778
v -0.02194526 -0.00902292 0.01522378
v -0.02192542 -0.00900186 0.01456977
v -0.02181189 -0.00889971 0.01456977
v -0.02169000 -0.00880805 0.01456977
v -0.02156081 -0.00872719 0.01456977
v -0.02136184 -0.00863182 0.01456977
v -0.02129839 -0.00860684 0.01522597
v -0.02128827 -0.00863436 0.01537935
v -0.02114518 -0.00858927 0.01537935
v -0.02150736 -0.00898302 0.01568243
v -0.02125857 -0.00871607 0.01555365
v -0.02139977 -0.00874973 0.01552194
v -0.02157161 -0.00888204 0.01556322
v -0.02133849 -0.00924784 0.01579699
v -0.02142069 -0.00911882 0.01576651
v -0.02112858 -0.00865108 0.01552194
v -0.02152882 -0.00934533 0.01579193
v -0.02180555 -0.00936152 0.01573124
v -0.02200020 -0.00942947 0.01565208
v -0.02205649 -0.00930002 0.01551456
v -0.02217015 -0.00940100 0.01544087
v -0.02225803 -0.00955479 0.01541298
v -0.02220849 -0.00937888 0.01527778
v -0.02212682 -0.00925080 0.01527778
v -0.02200047 -0.00915861 0.01544087
v -0.02193487 -0.00905002 0.01537006
v -0.02182404 -0.00891051 0.01522597
v -0.02170295 -0.00881758 0.01522597
v -0.02157445 -0.00873565 0.01522597
v -0.02143932 -0.00866516 0.01522597
v -0.02142690 -0.00869173 0.01537935
v -0.02171038 -0.00919524 0.01570690
v -0.02179421 -0.00905584 0.01556555
v -0.02155987 -0.00876106 0.01537935
v -0.02168608 -0.00884161 0.01537935
v -0.02180514 -0.00893295 0.01537935
v -0.02193379 -0.00923408 0.01559467
f 8 5 23
f 2 3 1
f 8 6 2
f 2 5 8
f 1 5 2
f 3 2 7
f 45 21 44
f 33 57 34
f 20 21 5
f 44 21 20
f 21 45 22
f 22 23 5
f 5 21 22
f 34 35 10
f 10 11 3
f 58 35 34
f 34 57 58
f 3 7 9
f 7 33 9
f 9 10 3
f 9 33 34
f 34 10 9
f 32 33 7
f 57 33 32
f 30 7 29
f 4 12 13
f 4 15 5
f 4 5 1
f 1 3 4
f 3 11 4
f 4 16 17
f 11 16 4
f 42 45 44
f 41 42 44
f 13 42 41
f 44 20 41
f 23 22 46
f 46 22 45
f 23 46 47
f 47 46 64
f 43 38 17
f 17 16 43
f 36 10 35
f 35 43 36
f 36 43 16
f 36 16 11
f 11 10 36
f 35 58 39
f 39 43 35
f 38 43 39
f 40 12 39
f 12 38 39
f 31 7 30
f 31 32 7
f 30 29 54
f 24 25 6
f 24 6 8
f 50 25 24
f 24 49 50
f 8 23 24
f 23 49 24
f 18 4 17
f 12 4 18
f 17 38 18
f 18 38 12
f 13 15 14
f 14 4 13
f 15 4 14
f 37 12 40
f 40 60 37
f 13 12 37
f 37 42 13
f 19 15 13
f 13 41 19
f 5 15 19
f 19 20 5
f 19 41 20
f 50 49 48
f 48 49 23
f 23 47 48
f 28 29 7
f 28 54 29
f 28 53 54
f 61 58 57
f 40 39 61
f 61 39 58
f 55 31 30
f 30 54 55
f 60 64 59
f 59 37 60
f 59 46 45
f 64 46 59
f 45 42 59
f 42 37 59
f 52 48 47
f 52 64 60
f 52 47 64
f 7 26 27
f 27 28 7
f 53 28 27
f 27 52 53
f 61 55 62
f 40 61 62
f 32 31 56
f 31 55 56
f 57 32 56
f 56 61 57
f 56 55 61
f 51 27 26
f 26 25 51
f 51 25 50
f 52 27 51
f 50 48 51
f 48 52 51
f 63 52 60
f 53 52 63
f 63 60 40
f 40 62 63
f 54 53 63
f 63 55 54
f 63 62 55
f 25 7 2
f 25 2 6
f 25 26 7

