# https://github.com/mikedh/trimesh
v -0.00141099 -0.00703674 0.01215998
v -0.00371697 -0.00703674 0.01215998
v -0.00141099 -0.00752748 0.01215998
v -0.00141099 -0.00703674 -0.01439906
v -0.00371697 -0.00752748 0.01215998
v -0.00371697 -0.00703674 -0.01439906
v -0.00141099 -0.00752748 -0.01441727
v -0.00141099 -0.00703708 -0.01441727
v -0.00371697 -0.00752748 -0.01439906
v -0.00237641 -0.00703761 -0.01441727
v -0.00241613 -0.00710001 -0.01441727
v -0.00245631 -0.00717739 -0.01441727
v -0.00248972 -0.00725800 -0.01441727
v -0.00251613 -0.00734115 -0.01441727
v -0.00253486 -0.00742632 -0.01441727
v -0.00254638 -0.00751283 -0.01441727
v -0.00254705 -0.00752748 -0.01441727
f 8 6 4
f 17 9 6
f 10 6 8
f 12 13 6
f 16 17 6
f 6 15 16
f 6 13 14
f 14 15 6
f 6 10 11
f 11 12 6
f 5 3 1
f 5 1 2
f 1 3 4
f 7 8 4
f 3 7 4
f 2 1 4
f 4 6 2
f 9 5 2
f 2 6 9
f 3 5 17
f 17 7 3
f 5 9 17
f 11 8 7
f 7 17 11
f 11 10 8
f 11 14 13
f 17 16 11
f 13 12 11
f 11 16 15
f 15 14 11

