# https://github.com/mikedh/trimesh
v 0.01009438 -0.00329042 -0.01439917
v 0.01009438 -0.00246893 -0.01439917
v 0.01079714 -0.00246893 -0.01440723
v 0.01088567 -0.00252530 -0.01440723
v 0.01088567 -0.00329042 -0.01439917
v 0.01009438 -0.00329042 0.01302823
v 0.01009438 -0.00246893 0.01302823
v 0.01088567 -0.00246893 -0.01440723
v 0.01088567 -0.00329042 0.01302823
v 0.01083757 -0.00246893 0.01302823
v 0.01088567 -0.00246893 0.01291006
v 0.01088567 -0.00246925 0.01302823
f 3 4 1
f 1 2 3
f 1 4 5
f 12 11 10
f 4 3 8
f 1 6 7
f 7 2 1
f 9 6 1
f 1 5 9
f 10 7 6
f 6 9 10
f 10 9 12
f 2 7 8
f 8 3 2
f 7 10 8
f 8 10 11
f 8 9 5
f 12 9 8
f 8 5 4
f 8 11 12

