# https://github.com/mikedh/trimesh
v 0.01112319 -0.00218845 -0.01440723
v 0.01112319 -0.00101729 -0.01440723
v 0.01158120 -0.00218845 -0.01440723
v 0.01112319 -0.00218845 0.01439851
v 0.01158120 -0.00101729 -0.01440723
v 0.01112319 -0.00101729 0.01440980
v 0.01158120 -0.00218845 0.01440980
v 0.01151785 -0.00218845 0.01440980
v 0.01148570 -0.00217504 0.01440980
v 0.01147964 -0.00217194 0.01440980
v 0.01130003 -0.00207840 0.01440980
v 0.01129424 -0.00207473 0.01440980
v 0.01112346 -0.00196593 0.01440980
v 0.01112319 -0.00196571 0.01440980
v 0.01158120 -0.00101729 0.01440980
f 8 9 4
f 13 14 4
f 4 9 10
f 10 11 4
f 4 11 12
f 12 13 4
f 5 3 1
f 1 2 5
f 14 6 2
f 14 2 1
f 1 4 14
f 2 6 15
f 15 5 2
f 15 7 3
f 3 5 15
f 3 7 8
f 8 4 1
f 1 3 8
f 6 14 12
f 12 15 6
f 7 15 12
f 12 8 7
f 9 8 12
f 14 13 12
f 12 10 9
f 11 10 12

