# https://github.com/mikedh/trimesh
v 0.00994979 -0.00157521 -0.01440723
v 0.01009438 -0.00157521 -0.01440723
v 0.00946717 -0.00157521 -0.01439877
v 0.00990191 -0.00149989 -0.01440723
v 0.01009438 0.00085233 -0.01440723
v 0.01009438 -0.00157521 0.01440000
v 0.00946717 0.00085233 -0.01439877
v 0.00950002 -0.00000002 -0.01440723
v 0.00951144 -0.00026164 -0.01440723
v 0.00954564 -0.00052089 -0.01440723
v 0.00960224 -0.00077633 -0.01440723
v 0.00968095 -0.00102583 -0.01440723
v 0.00978102 -0.00126773 -0.01440723
v 0.00946717 -0.00157521 0.01440000
v 0.00962618 0.00085233 -0.01440723
v 0.01009438 0.00085233 0.01440000
v 0.00960224 0.00077629 -0.01440723
v 0.00954564 0.00052084 -0.01440723
v 0.00951144 0.00026136 -0.01440723
v 0.00946717 0.00085233 0.01440000
f 7 8 3
f 3 12 13
f 3 8 9
f 9 10 3
f 11 12 3
f 3 10 11
f 4 1 3
f 3 13 4
f 7 15 17
f 17 18 7
f 8 7 19
f 7 18 19
f 16 6 2
f 2 5 16
f 16 14 6
f 20 14 16
f 3 14 7
f 7 14 20
f 2 6 1
f 1 14 3
f 6 14 1
f 15 16 5
f 20 16 15
f 15 7 20
f 19 5 2
f 19 13 12
f 2 1 19
f 19 15 5
f 19 9 8
f 12 11 19
f 19 17 15
f 10 9 19
f 19 11 10
f 1 4 19
f 19 4 13
f 18 17 19

