# https://github.com/mikedh/trimesh
v 0.01669550 0.00271682 0.01869981
v 0.01669550 0.00271682 0.01700261
v 0.00896838 0.00271682 0.01869981
v 0.01250024 0.00269955 0.01870131
v 0.01285123 0.00267403 0.01870131
v 0.01319768 0.00260797 0.01870131
v 0.01353128 0.00249161 0.01870131
v 0.01384823 0.00233848 0.01870131
v 0.01404717 0.00221161 0.01870131
v 0.01423402 0.00206824 0.01870131
v 0.01448743 0.00182202 0.01870131
v 0.01471058 0.00154877 0.01870131
v 0.01483691 0.00134985 0.01870131
v 0.01494583 0.00114116 0.01870131
v 0.01503585 0.00092347 0.01870131
v 0.01513268 0.00058341 0.01870131
v 0.01518866 0.00023585 0.01870131
v 0.01519395 -0.00011771 0.01870131
v 0.01669550 -0.00395363 0.01869981
v 0.01669550 -0.00395363 0.01700261
v 0.00896838 0.00271682 0.01700261
v 0.00896838 -0.00495202 0.01869981
v 0.00980577 0.00011650 0.01870131
v 0.00986704 0.00058266 0.01870131
v 0.00996387 0.00092272 0.01870131
v 0.01005388 0.00114041 0.01870131
v 0.01016281 0.00134910 0.01870131
v 0.01036024 0.00164111 0.01870131
v 0.01067795 0.00198792 0.01870131
v 0.01095179 0.00221086 0.01870131
v 0.01115073 0.00233773 0.01870131
v 0.01146769 0.00249161 0.01870131
v 0.01191626 0.00263274 0.01870131
v 0.01226498 0.00268904 0.01870131
v 0.01515840 -0.00046828 0.01870131
v 0.01510696 -0.00069873 0.01870131
v 0.01499198 -0.00103203 0.01870131
v 0.01483766 -0.00134806 0.01870131
v 0.01619851 -0.00495202 0.01869981
v 0.01619851 -0.00495202 0.01700261
v 0.00896838 -0.00495202 0.01700261
v 0.01250175 -0.00269851 0.01870131
v 0.01226650 -0.00268876 0.01870131
v 0.01203275 -0.00265873 0.01870131
v 0.01180279 -0.00260693 0.01870131
v 0.01157813 -0.00253637 0.01870131
v 0.01136027 -0.00244629 0.01870131
v 0.01115149 -0.00233819 0.01870131
v 0.01095254 -0.00221133 0.01870131
v 0.01067871 -0.00198838 0.01870131
v 0.01036100 -0.00164157 0.01870131
v 0.01016281 -0.00134956 0.01870131
v 0.01000925 -0.00103278 0.01870131
v 0.00989352 -0.00069948 0.01870131
v 0.00984208 -0.00046978 0.01870131
v 0.00981182 -0.00023632 0.01870131
v 0.01471134 -0.00154699 0.01870131
v 0.01448818 -0.00182098 0.01870131
v 0.01423477 -0.00206720 0.01870131
v 0.01394884 -0.00227364 0.01870131
v 0.01364096 -0.00244554 0.01870131
v 0.01342310 -0.00253562 0.01870131
v 0.01319768 -0.00260693 0.01870131
v 0.01285274 -0.00267374 0.01870131
f 4 1 3
f 3 22 23
f 1 18 19
f 22 39 42
f 39 19 38
f 3 32 33
f 3 29 30
f 3 23 24
f 28 29 3
f 6 7 1
f 17 18 1
f 58 59 39
f 34 4 3
f 3 33 34
f 31 32 3
f 3 30 31
f 25 26 3
f 3 24 25
f 3 26 27
f 27 28 3
f 1 4 5
f 5 6 1
f 10 11 1
f 1 9 10
f 1 7 8
f 8 9 1
f 1 15 16
f 16 17 1
f 1 11 12
f 12 13 1
f 14 15 1
f 1 13 14
f 39 59 60
f 64 42 39
f 39 38 57
f 57 58 39
f 35 19 18
f 35 36 19
f 37 38 19
f 19 36 37
f 61 62 39
f 39 60 61
f 39 62 63
f 63 64 39
f 22 50 51
f 56 23 22
f 22 55 56
f 22 53 54
f 54 55 22
f 52 53 22
f 22 51 52
f 22 42 43
f 43 44 22
f 45 46 22
f 22 44 45
f 49 50 22
f 22 48 49
f 22 46 47
f 47 48 22
f 1 2 21
f 3 1 21
f 19 2 1
f 19 20 2
f 3 21 41
f 41 22 3
f 40 21 2
f 2 20 40
f 40 41 21
f 20 19 40
f 40 19 39
f 22 41 40
f 40 39 22
f 47 30 29
f 47 5 4
f 59 58 47
f 29 28 47
f 15 14 47
f 47 57 38
f 47 24 23
f 47 27 26
f 18 17 47
f 47 16 15
f 42 64 47
f 47 33 32
f 4 34 47
f 32 31 47
f 26 25 47
f 7 6 47
f 11 10 47
f 47 8 7
f 47 12 11
f 47 60 59
f 47 63 62
f 47 51 50
f 47 35 18
f 47 34 33
f 47 31 30
f 47 25 24
f 28 27 47
f 6 5 47
f 47 10 9
f 9 8 47
f 17 16 47
f 13 12 47
f 47 14 13
f 38 37 47
f 62 61 47
f 46 45 47
f 53 52 47
f 58 57 47
f 36 35 47
f 47 37 36
f 47 61 60
f 64 63 47
f 23 56 47
f 47 54 53
f 47 43 42
f 50 49 47
f 47 56 55
f 55 54 47
f 47 52 51
f 44 43 47
f 47 45 44
f 47 49 48

