# https://github.com/mikedh/trimesh
v 0.01249957 0.01000000 0.01700245
v 0.01337044 0.00996156 0.01700245
v 0.01249957 0.01000000 0.01620000
v 0.01190744 0.00997411 0.01700245
v 0.01364917 0.00992508 0.01700245
v 0.01337044 0.00996156 0.01620000
v 0.01162737 0.00996156 0.01620000
v 0.01162737 0.00996156 0.01700245
v 0.01423597 0.00984781 0.01700245
v 0.01423597 0.00984781 0.01620000
v 0.01076451 0.00984781 0.01620000
v 0.01076451 0.00984781 0.01700245
v 0.01450936 0.00978740 0.01700245
v 0.01508816 0.00965914 0.01620000
v 0.00991232 0.00965914 0.01620000
v 0.00991232 0.00965914 0.01700245
v 0.01508816 0.00965914 0.01700245
v 0.01591902 0.00939673 0.01620000
v 0.00908013 0.00939673 0.01620000
v 0.00971494 0.00959952 0.01700245
v 0.01591902 0.00939673 0.01700245
v 0.01672587 0.00906293 0.01620000
v 0.00908013 0.00939673 0.01700245
v 0.00915081 0.00942144 0.01700245
v 0.00827461 0.00906293 0.01620000
v 0.01672587 0.00906293 0.01700245
v 0.01749937 0.00866010 0.01620000
v 0.00827461 0.00906293 0.01700245
v 0.00774916 0.00878954 0.01700245
v 0.00750110 0.00866010 0.01620000
v 0.01749937 0.00866010 0.01700245
v 0.01813018 0.00825845 0.01620000
v 0.00750110 0.00866010 0.01700245
v 0.00676494 0.00819137 0.01620000
v 0.01813018 0.00825845 0.01700245
v 0.01813018 0.00599718 0.01620000
v 0.00676494 0.00819137 0.01700245
v 0.00607278 0.00766067 0.01620000
v 0.01813018 0.00599718 0.01700245
v 0.01676187 0.00599286 0.01620000
v 0.00607278 0.00766067 0.01700245
v 0.00542997 0.00707113 0.01620000
v 0.01676187 0.00599286 0.01700245
v 0.00450576 0.00599286 0.01620000
v 0.00542997 0.00707113 0.01700245
v 0.00484050 0.00642825 0.01620000
v 0.00450576 0.00599286 0.01700245
v 0.00484050 0.00642825 0.01700245
f 14 10 13
f 13 17 14
f 10 6 5
f 25 29 28
f 15 19 20
f 16 15 20
f 3 7 4
f 1 3 4
f 4 7 8
f 30 29 25
f 9 13 10
f 10 5 9
f 2 5 6
f 19 23 24
f 24 20 19
f 29 30 33
f 35 36 32
f 39 36 35
f 43 36 39
f 43 40 36
f 44 40 43
f 43 47 44
f 42 45 41
f 41 38 42
f 41 37 34
f 34 38 41
f 27 35 32
f 27 31 35
f 26 31 27
f 27 22 26
f 22 18 21
f 26 22 21
f 21 18 14
f 14 17 21
f 28 19 25
f 28 23 19
f 2 6 3
f 2 3 1
f 16 12 11
f 11 15 16
f 11 12 8
f 8 7 11
f 3 6 46
f 46 7 3
f 46 40 44
f 14 18 46
f 32 36 46
f 46 10 14
f 36 40 46
f 46 27 32
f 46 6 10
f 15 11 46
f 25 19 46
f 46 19 15
f 46 18 22
f 46 30 25
f 46 42 38
f 38 34 46
f 22 27 46
f 34 30 46
f 46 11 7
f 44 47 46
f 47 48 46
f 45 42 46
f 46 48 45
f 33 28 29
f 39 35 33
f 16 20 33
f 35 31 33
f 33 43 39
f 33 37 41
f 33 12 16
f 47 43 33
f 13 9 33
f 1 4 33
f 41 45 33
f 33 24 23
f 33 31 26
f 17 13 33
f 26 21 33
f 33 48 47
f 33 21 17
f 23 28 33
f 33 2 1
f 33 4 8
f 8 12 33
f 45 48 33
f 33 9 5
f 5 2 33
f 20 24 33
f 33 34 37
f 33 30 34

