# https://github.com/mikedh/trimesh
v 0.00248045 -0.01239749 -0.01440723
v 0.00248045 -0.01234264 -0.01461414
v 0.00367096 -0.01228202 -0.01590000
v 0.00384513 -0.01231955 -0.01590000
v 0.00402206 -0.01234206 -0.01590000
v 0.00420039 -0.01234957 -0.01590000
v 0.00720000 -0.01239749 -0.01440723
v 0.00248045 -0.00650000 -0.01440723
v 0.00248045 -0.01200201 -0.01588510
v 0.00248045 -0.01199797 -0.01590000
v 0.00437825 -0.01234206 -0.01590000
v 0.00720000 -0.01199797 -0.01590000
v 0.00720000 -0.00918634 -0.01440723
v 0.00412046 -0.00650000 -0.01440723
v 0.00248045 -0.00650000 -0.01590000
v 0.00720000 -0.00964475 -0.01590000
v 0.00361968 -0.00650000 -0.01590000
f 6 7 1
f 1 3 4
f 2 3 1
f 5 6 1
f 1 4 5
f 11 12 7
f 7 6 11
f 9 10 3
f 3 2 9
f 17 13 16
f 13 17 14
f 12 13 7
f 16 13 12
f 1 8 9
f 9 2 1
f 9 15 10
f 8 15 9
f 17 4 3
f 3 10 17
f 16 12 17
f 17 11 6
f 6 5 17
f 10 15 17
f 17 5 4
f 12 11 17
f 14 8 1
f 1 7 14
f 7 13 14
f 14 15 8
f 14 17 15

