# https://github.com/mikedh/trimesh
v -0.02247660 0.00700955 -0.01523366
v -0.02247660 0.00874973 -0.01523366
v -0.02160127 0.00700955 -0.01523366
v -0.02263579 0.00700955 -0.01463860
v -0.02255738 0.00874973 -0.01493177
v -0.02160127 0.00874973 -0.01523366
v -0.02160127 0.00700955 0.01442091
v -0.02269989 0.00700955 -0.01439767
v -0.02269989 0.00874973 -0.01439767
v -0.02160127 0.00874973 0.01439769
v -0.02160127 0.00839996 0.01442091
v -0.02269430 0.00700955 0.01442091
v -0.02269989 0.00700955 0.01439769
v -0.02269989 0.00874973 0.01439769
v -0.02269430 0.00839996 0.01442091
f 8 9 4
f 2 1 5
f 1 4 5
f 5 4 9
f 3 1 6
f 6 1 2
f 13 9 8
f 14 9 13
f 3 7 12
f 12 13 8
f 12 1 3
f 8 4 12
f 12 4 1
f 5 6 2
f 14 10 5
f 5 9 14
f 5 10 6
f 11 7 3
f 3 6 11
f 6 10 11
f 14 13 15
f 13 12 15
f 15 10 14
f 15 11 10
f 15 12 7
f 7 11 15

