# https://github.com/mikedh/trimesh
v 0.00248045 0.00889414 0.01590000
v 0.00248045 0.00700938 0.01590000
v 0.00248045 0.00889414 -0.01589498
v -0.00343702 0.00889414 0.01590000
v -0.00343702 0.00700938 0.01590000
v 0.00248045 0.00700938 -0.01589498
v -0.00054953 0.00761347 -0.01592925
v -0.00055475 0.00770055 -0.01592925
v -0.00056459 0.00777380 -0.01592925
v -0.00058313 0.00785905 -0.01592925
v -0.00060919 0.00794226 -0.01592925
v -0.00064916 0.00803433 -0.01592925
v -0.00069029 0.00811109 -0.01592925
v -0.00073025 0.00817345 -0.01592925
v -0.00079223 0.00825242 -0.01592925
v -0.00084205 0.00830685 -0.01592925
v -0.00090692 0.00836589 -0.01592925
v -0.00098686 0.00842604 -0.01592925
v -0.00106100 0.00847199 -0.01592925
v -0.00112645 0.00850612 -0.01592925
v -0.00120697 0.00853952 -0.01592925
v -0.00129095 0.00856572 -0.01592925
v -0.00137552 0.00858454 -0.01592925
v -0.00146241 0.00859598 -0.01592925
v -0.00156320 0.00859911 -0.01592925
v 0.00094953 0.00889414 -0.01589498
v -0.00343702 0.00889414 -0.01439637
v -0.00343702 0.00700938 -0.01439637
v -0.00236196 0.00701806 -0.01592925
v -0.00073663 0.00701806 -0.01592925
v -0.00071577 0.00704924 -0.01592925
v -0.00068334 0.00710035 -0.01592925
v -0.00067059 0.00712396 -0.01592925
v -0.00063758 0.00719002 -0.01592925
v -0.00060919 0.00725829 -0.01592925
v -0.00058023 0.00735442 -0.01592925
v -0.00056459 0.00742656 -0.01592925
v -0.00055301 0.00751309 -0.01592925
v -0.00163618 0.00859598 -0.01592925
v -0.00172364 0.00858454 -0.01592925
v -0.00180879 0.00856572 -0.01592925
v -0.00189162 0.00853952 -0.01592925
v -0.00198372 0.00850003 -0.01592925
v -0.00206076 0.00845870 -0.01592925
v -0.00212274 0.00841885 -0.01592925
v -0.00220209 0.00835685 -0.01592925
v -0.00225654 0.00830685 -0.01592925
v -0.00227508 0.00828729 -0.01592925
v -0.00231562 0.00824264 -0.01592925
v -0.00237586 0.00816220 -0.01592925
v -0.00241583 0.00809983 -0.01592925
v -0.00246101 0.00801016 -0.01592925
v -0.00249345 0.00792953 -0.01592925
v -0.00251546 0.00785905 -0.01592925
v -0.00253399 0.00777380 -0.01592925
v -0.00254674 0.00767398 -0.01592925
v -0.00254963 0.00760018 -0.01592925
v -0.00254442 0.00749981 -0.01592925
v -0.00253110 0.00741346 -0.01592925
v -0.00251546 0.00734150 -0.01592925
v -0.00248939 0.00725829 -0.01592925
v -0.00244943 0.00716585 -0.01592925
v -0.00241583 0.00710035 -0.01592925
f 7 3 6
f 30 6 29
f 29 6 28
f 27 57 28
f 29 28 63
f 9 10 3
f 11 12 3
f 3 10 11
f 25 26 3
f 7 6 38
f 6 37 38
f 6 35 36
f 36 37 6
f 32 33 6
f 34 35 6
f 6 33 34
f 28 61 62
f 62 63 28
f 58 28 57
f 58 59 28
f 60 61 28
f 28 59 60
f 8 3 7
f 8 9 3
f 27 26 39
f 26 25 39
f 27 41 42
f 6 30 31
f 31 32 6
f 3 20 21
f 24 25 3
f 3 23 24
f 40 41 27
f 27 39 40
f 56 57 27
f 27 55 56
f 27 53 54
f 54 55 27
f 27 49 50
f 50 51 27
f 52 53 27
f 27 51 52
f 43 44 27
f 27 42 43
f 27 46 47
f 27 44 45
f 45 46 27
f 3 12 13
f 13 14 3
f 15 16 3
f 3 14 15
f 19 20 3
f 3 18 19
f 3 16 17
f 17 18 3
f 22 23 3
f 3 21 22
f 48 49 27
f 27 47 48
f 5 2 1
f 5 1 4
f 1 2 6
f 6 3 1
f 2 5 28
f 28 6 2
f 28 5 4
f 4 27 28
f 4 1 26
f 1 3 26
f 26 27 4
f 48 54 53
f 48 62 61
f 48 30 29
f 48 36 35
f 48 31 30
f 44 43 48
f 29 63 48
f 61 60 48
f 25 24 48
f 12 11 48
f 7 38 48
f 16 15 48
f 35 34 48
f 48 58 57
f 10 9 48
f 48 11 10
f 48 8 7
f 41 40 48
f 48 42 41
f 48 45 44
f 48 38 37
f 37 36 48
f 33 32 48
f 48 34 33
f 63 62 48
f 59 58 48
f 48 60 59
f 9 8 48
f 48 21 20
f 48 39 25
f 57 56 48
f 48 50 49
f 53 52 48
f 23 22 48
f 48 13 12
f 20 19 48
f 32 31 48
f 48 17 16
f 48 24 23
f 48 40 39
f 48 56 55
f 55 54 48
f 51 50 48
f 48 52 51
f 48 43 42
f 48 47 46
f 46 45 48
f 14 13 48
f 48 15 14
f 48 19 18
f 18 17 48
f 48 22 21

