# https://github.com/mikedh/trimesh
v 0.00201306 0.00417747 -0.01440000
v 0.00201306 0.00501205 -0.01440000
v 0.00248045 0.00417747 -0.01440000
v 0.00201306 0.00417747 0.01696004
v 0.00248045 0.00501205 -0.01440000
v 0.00201306 0.00501205 0.01700000
v 0.00248045 0.00417747 0.01535869
v 0.00248045 0.00475068 0.01624082
v 0.00237568 0.00501205 0.01700000
v 0.00201306 0.00420876 0.01700000
v 0.00248045 0.00501205 0.01664039
v 0.00241155 0.00501205 0.01687706
f 10 9 6
f 4 9 10
f 4 7 8
f 8 9 4
f 12 8 11
f 9 8 12
f 1 2 5
f 5 3 1
f 1 3 7
f 7 4 1
f 10 2 1
f 10 6 2
f 1 4 10
f 3 5 8
f 5 11 8
f 8 7 3
f 12 5 2
f 2 6 12
f 12 11 5
f 6 9 12

