# https://github.com/mikedh/trimesh
v 0.00354857 0.00987842 0.01590000
v 0.00441380 0.00953175 0.01590000
v 0.00354857 0.00987867 0.01440980
v 0.00354857 0.00729197 0.01590000
v 0.00441380 0.00953175 0.01440980
v 0.00441380 0.00745353 0.01590000
v 0.00354857 0.00729197 0.01440980
v 0.00425913 0.00729197 0.01590000
v 0.00441380 0.00729197 0.01440980
v 0.00441380 0.00729197 0.01548238
f 1 2 3
f 5 3 2
f 6 8 10
f 7 4 1
f 1 3 7
f 7 5 9
f 3 5 7
f 1 4 8
f 8 2 1
f 8 6 2
f 2 6 10
f 10 5 2
f 9 5 10
f 4 7 10
f 10 7 9
f 10 8 4

