# https://github.com/mikedh/trimesh
v 0.01045191 -0.00218845 -0.01440723
v 0.01051668 -0.00218845 -0.01440723
v 0.01009442 -0.00218845 -0.01439877
v 0.01037866 -0.00212127 -0.01440723
v 0.01051668 -0.00101729 -0.01440723
v 0.01051668 -0.00218845 0.01439851
v 0.01009442 -0.00178824 -0.01440723
v 0.01020190 -0.00192833 -0.01440723
v 0.01009442 -0.00218845 0.01439851
v 0.01009442 -0.00101729 -0.01440723
v 0.01051668 -0.00101729 0.01440980
v 0.01051668 -0.00134940 0.01440980
v 0.01042152 -0.00120002 0.01440980
v 0.01041834 -0.00119395 0.01440980
v 0.01032641 -0.00101729 0.01440980
v 0.01009442 -0.00101729 0.01439851
f 3 4 1
f 3 7 8
f 8 4 3
f 12 9 6
f 16 9 15
f 9 12 13
f 14 15 9
f 9 13 14
f 16 10 9
f 9 10 7
f 9 7 3
f 2 6 1
f 1 9 3
f 6 9 1
f 8 5 2
f 8 10 5
f 2 1 8
f 7 10 8
f 8 1 4
f 5 11 12
f 2 5 12
f 12 6 2
f 15 11 5
f 5 10 15
f 15 10 16
f 14 12 11
f 11 15 14
f 14 13 12

