# https://github.com/mikedh/trimesh
v 0.01205000 -0.00111094 0.02020000
v 0.01205000 -0.00159864 0.02020000
v 0.01205000 -0.00111094 0.01980019
v 0.01119489 -0.00111094 0.02019945
v 0.01129780 -0.00120212 0.02020000
v 0.01205000 -0.00159864 0.01980019
v 0.01192022 -0.00159802 0.02020000
v 0.01175431 -0.00159864 0.02019765
v 0.01019565 -0.00111643 0.01980019
v 0.01023685 -0.00111094 0.01986875
v 0.01100865 -0.00111094 0.02019413
v 0.01107436 -0.00119649 0.02019413
v 0.01140708 -0.00130233 0.02020000
v 0.01118363 -0.00131622 0.02019413
v 0.01051330 -0.00159864 0.01981921
v 0.01041474 -0.00148693 0.01980019
v 0.01178136 -0.00154064 0.02020000
v 0.01156263 -0.00159864 0.02019444
v 0.01029330 -0.00129965 0.01980019
v 0.01031400 -0.00126232 0.01986641
v 0.01029276 -0.00111094 0.01993634
v 0.01089121 -0.00111739 0.02018301
v 0.01098215 -0.00127378 0.02018051
v 0.01074872 -0.00111094 0.02016231
v 0.01143231 -0.00152464 0.02019413
v 0.01152470 -0.00139250 0.02020000
v 0.01130343 -0.00142578 0.02019413
v 0.01109905 -0.00140110 0.02018051
v 0.01122611 -0.00151786 0.02018051
v 0.01073311 -0.00159864 0.02002111
v 0.01058173 -0.00159797 0.01990566
v 0.01043216 -0.00144798 0.01986641
v 0.01164976 -0.00147218 0.02020000
v 0.01135589 -0.00159864 0.02018219
v 0.01036736 -0.00123143 0.01994828
v 0.01034866 -0.00111094 0.01998820
v 0.01079955 -0.00119081 0.02016231
v 0.01090973 -0.00133450 0.02016231
v 0.01103207 -0.00146793 0.02016231
v 0.01067158 -0.00111094 0.02014443
v 0.01116911 -0.00159654 0.02016153
v 0.01081788 -0.00159864 0.02006526
v 0.01068556 -0.00152259 0.02003422
v 0.01064762 -0.00156713 0.01998514
v 0.01048298 -0.00141251 0.01994828
v 0.01106147 -0.00159864 0.02014122
v 0.01054307 -0.00137035 0.02001790
v 0.01043107 -0.00119468 0.02001790
v 0.01041038 -0.00111094 0.02003422
v 0.01073674 -0.00123482 0.02014122
v 0.01085110 -0.00138372 0.02014122
v 0.01097798 -0.00152216 0.02014122
v 0.01057901 -0.00111094 0.02011699
v 0.01089030 -0.00159864 0.02009429
v 0.01073910 -0.00147762 0.02007844
v 0.01059770 -0.00133226 0.02006526
v 0.01098469 -0.00159864 0.02012255
v 0.01048879 -0.00116135 0.02006526
v 0.01046247 -0.00111094 0.02006526
v 0.01068410 -0.00127158 0.02011817
v 0.01080191 -0.00142492 0.02011817
v 0.01093278 -0.00156746 0.02011817
v 0.01063655 -0.00130500 0.02009167
v 0.01052292 -0.00112431 0.02009167
f 10 3 9
f 1 4 5
f 15 32 16
f 16 32 19
f 6 15 16
f 19 32 20
f 9 19 20
f 20 10 9
f 22 11 24
f 22 23 11
f 12 4 11
f 11 23 12
f 23 14 12
f 12 5 4
f 12 14 5
f 15 30 31
f 31 32 15
f 37 38 23
f 37 22 24
f 23 22 37
f 23 38 39
f 38 52 39
f 7 8 2
f 58 59 49
f 10 20 21
f 40 37 24
f 64 53 59
f 64 59 58
f 32 31 45
f 63 64 58
f 63 61 60
f 55 61 63
f 60 53 63
f 53 64 63
f 60 61 51
f 51 52 38
f 51 61 52
f 28 39 29
f 23 39 28
f 29 14 28
f 28 14 23
f 41 34 29
f 29 39 41
f 5 14 13
f 8 7 17
f 17 18 8
f 33 18 17
f 36 21 35
f 35 21 20
f 35 20 32
f 32 45 35
f 44 31 30
f 44 45 31
f 56 63 58
f 55 63 56
f 55 42 54
f 54 61 55
f 38 37 50
f 50 51 38
f 37 40 50
f 60 51 50
f 50 40 53
f 50 53 60
f 46 39 52
f 46 41 39
f 46 52 57
f 34 41 46
f 26 18 33
f 27 13 14
f 27 14 29
f 48 49 36
f 36 35 48
f 58 49 48
f 48 56 58
f 43 44 30
f 55 56 43
f 30 42 43
f 43 42 55
f 62 54 57
f 61 54 62
f 57 52 62
f 52 61 62
f 25 26 13
f 13 27 25
f 18 26 25
f 34 18 25
f 29 34 25
f 25 27 29
f 47 35 45
f 47 48 35
f 45 44 47
f 44 43 47
f 56 48 47
f 47 43 56
f 6 3 1
f 1 2 6
f 3 6 16
f 9 3 16
f 16 19 9
f 1 3 40
f 3 10 40
f 24 11 40
f 40 4 1
f 11 4 40
f 40 49 59
f 10 21 40
f 59 53 40
f 36 49 40
f 40 21 36
f 46 6 2
f 46 15 6
f 2 8 46
f 46 30 15
f 8 18 46
f 57 54 46
f 46 18 34
f 46 42 30
f 46 54 42
f 26 2 1
f 1 5 26
f 26 7 2
f 5 13 26
f 33 17 26
f 26 17 7

