# https://github.com/mikedh/trimesh
v -0.00669696 -0.00679765 0.01700000
v -0.00724680 -0.00679713 0.01550867
v -0.00724680 -0.00679755 0.01700000
v -0.00669696 -0.00699999 0.01700000
v -0.00669696 -0.00679593 0.01087510
v -0.00724680 -0.00679593 0.01119117
v -0.00724680 -0.00699999 0.01700000
v -0.00724680 -0.00703674 0.01588304
v -0.00669696 -0.00703674 0.01587997
v -0.00669696 -0.00679593 -0.01434866
v -0.00724680 -0.00679593 -0.01434866
v -0.00724680 -0.00703674 -0.01434559
v -0.00669696 -0.00703674 -0.01434559
v -0.00669696 -0.00679975 -0.01434866
f 3 1 2
f 2 1 5
f 8 9 4
f 2 5 6
f 8 4 7
f 14 13 12
f 12 11 14
f 14 11 10
f 8 12 13
f 13 9 8
f 7 4 1
f 1 3 7
f 2 6 11
f 11 3 2
f 11 12 8
f 8 7 11
f 11 7 3
f 11 5 10
f 11 6 5
f 1 4 14
f 14 5 1
f 10 5 14
f 14 4 9
f 9 13 14

