# https://github.com/mikedh/trimesh
v -0.01975497 -0.00973629 0.01580000
v -0.02044997 -0.00973629 0.01580000
v -0.01975497 -0.00999996 0.01580000
v -0.01975497 -0.00973629 -0.01299287
v -0.02044997 -0.00999996 0.01580000
v -0.02046598 -0.00973629 0.01451112
v -0.01975497 -0.01020732 0.01494272
v -0.01975497 -0.00979264 -0.01440000
v -0.01975539 -0.00973629 -0.01440000
v -0.02046598 -0.01020732 0.01429828
v -0.02046598 -0.00973629 -0.01440000
v -0.01975497 -0.01020732 -0.01440000
v -0.02046598 -0.01020732 -0.01434383
v -0.02046598 -0.01020626 -0.01440000
v -0.02045923 -0.01020732 -0.01440000
f 6 5 2
f 3 5 7
f 7 5 10
f 10 5 6
f 8 9 4
f 13 14 15
f 1 2 3
f 3 2 5
f 1 3 4
f 7 12 4
f 4 12 8
f 4 3 7
f 6 2 11
f 1 4 11
f 11 2 1
f 11 4 9
f 13 10 14
f 6 11 14
f 14 10 6
f 15 12 7
f 7 10 15
f 15 10 13
f 8 12 15
f 15 11 9
f 15 9 8
f 15 14 11

