# https://github.com/mikedh/trimesh
v 0.01270488 -0.00246885 -0.01440723
v 0.01270488 -0.00193969 -0.01440723
v 0.01312499 -0.00246885 -0.01440723
v 0.01270488 -0.00246885 0.01439851
v 0.01312499 -0.00193969 -0.01440723
v 0.01270488 -0.00193969 0.01440980
v 0.01312499 -0.00246885 0.01439851
v 0.01270488 -0.00239104 0.01440980
v 0.01312499 -0.00193969 0.01440980
v 0.01312499 -0.00231702 0.01440980
v 0.01312116 -0.00231821 0.01440980
v 0.01291674 -0.00236353 0.01440980
v 0.01270919 -0.00239083 0.01440980
f 7 8 4
f 7 10 11
f 11 12 7
f 8 7 13
f 7 12 13
f 1 2 5
f 5 3 1
f 9 5 2
f 2 6 9
f 8 2 1
f 8 6 2
f 1 4 8
f 1 3 7
f 7 4 1
f 3 5 10
f 5 9 10
f 10 7 3
f 13 9 6
f 6 8 13
f 13 10 9
f 13 11 10
f 12 11 13

