# https://github.com/mikedh/trimesh
v 0.01452370 0.00215453 0.01439851
v 0.01355375 0.00215453 0.01440980
v 0.01369993 0.00207843 0.01440980
v 0.01387645 0.00196593 0.01440980
v 0.01388199 0.00196174 0.01440980
v 0.01404252 0.00183848 0.01440980
v 0.01404764 0.00183382 0.01440980
v 0.01419690 0.00169713 0.01440980
v 0.01420162 0.00169209 0.01440980
v 0.01433836 0.00154272 0.01440980
v 0.01434267 0.00153731 0.01440980
v 0.01446589 0.00137665 0.01440980
v 0.01446691 0.00137489 0.01440980
v 0.01452370 0.00137489 0.01439851
v 0.01452370 0.00215453 -0.01440723
v 0.01242941 0.00215453 0.01440980
v 0.01242941 0.00137489 0.01440980
v 0.01452370 0.00137489 -0.01433953
v 0.01452370 0.00137520 -0.01440723
v 0.01242941 0.00215453 -0.01440723
v 0.01242941 0.00137489 -0.01440723
v 0.01452329 0.00137489 -0.01440723
f 1 13 14
f 1 2 3
f 3 4 1
f 5 6 1
f 1 4 5
f 12 13 1
f 22 19 18
f 1 10 11
f 11 12 1
f 1 6 7
f 7 8 1
f 9 10 1
f 1 8 9
f 1 15 20
f 16 2 20
f 20 2 1
f 20 17 16
f 21 17 20
f 19 20 15
f 21 20 19
f 19 22 21
f 13 17 18
f 18 14 13
f 18 17 21
f 21 22 18
f 18 15 1
f 18 19 15
f 1 14 18
f 9 2 16
f 16 17 9
f 9 17 13
f 6 5 9
f 9 3 2
f 13 12 9
f 4 3 9
f 9 5 4
f 9 11 10
f 9 7 6
f 12 11 9
f 8 7 9

