# https://github.com/mikedh/trimesh
v -0.00573455 0.00700938 0.01457293
v -0.00343725 0.00700938 0.01457293
v -0.00573455 0.00700938 0.01590000
v -0.00573455 0.01235314 0.01457293
v -0.00343725 0.00700938 0.01590000
v -0.00343725 0.01235314 0.01457293
v -0.00573455 0.01199794 0.01590000
v -0.00573455 0.01234948 0.01458838
v -0.00343725 0.01199794 0.01590000
v -0.00343725 0.01234948 0.01458838
v -0.00573455 0.01201572 0.01583401
v -0.00573455 0.01233379 0.01464710
v -0.00343725 0.01210622 0.01549627
v -0.00343725 0.01225061 0.01495756
f 11 7 9
f 10 8 12
f 12 11 14
f 14 10 12
f 13 11 9
f 13 14 11
f 1 4 6
f 6 2 1
f 1 2 5
f 5 3 1
f 3 5 7
f 7 5 9
f 11 4 1
f 1 3 11
f 3 7 11
f 11 8 4
f 12 8 11
f 10 6 4
f 4 8 10
f 2 6 13
f 13 5 2
f 9 5 13
f 6 10 13
f 10 14 13

