# https://github.com/mikedh/trimesh
v -0.02247662 0.00700955 -0.01523366
v -0.02236565 0.00700955 -0.01564778
v -0.02160117 0.00700955 -0.01523366
v -0.02247662 0.00874973 -0.01523366
v -0.02245880 0.00874973 -0.01530019
v -0.02236453 0.00874973 -0.01565195
v -0.02229889 0.00874973 -0.01589681
v -0.02229803 0.00700955 -0.01589994
v -0.02160117 0.00874973 -0.01523366
v -0.02160117 0.00700955 -0.01589994
v -0.02229803 0.00874973 -0.01589994
v -0.02160117 0.00874973 -0.01589994
f 1 4 5
f 5 6 1
f 1 6 2
f 7 11 8
f 8 2 7
f 7 2 6
f 9 4 1
f 1 3 9
f 10 9 3
f 12 9 10
f 2 3 1
f 2 10 3
f 8 10 2
f 11 10 8
f 12 10 11
f 4 9 7
f 7 9 12
f 7 5 4
f 6 5 7
f 12 11 7

