# https://github.com/mikedh/trimesh
v -0.00141099 -0.00703674 0.01589964
v -0.00371697 -0.00703674 0.01589964
v -0.00141099 -0.00752570 0.01589964
v -0.00141099 -0.00703674 0.01216258
v -0.00371697 -0.00752724 0.01589964
v -0.00371697 -0.00703674 0.01216258
v -0.00141099 -0.00752748 0.01543831
v -0.00141099 -0.00752748 0.01216258
v -0.00371697 -0.00752748 0.01448054
v -0.00371697 -0.00752748 0.01216258
f 3 5 7
f 7 5 9
f 1 4 6
f 2 1 6
f 8 6 4
f 10 6 8
f 3 4 1
f 7 8 3
f 3 8 4
f 3 1 2
f 2 5 3
f 2 6 9
f 9 5 2
f 9 6 10
f 9 8 7
f 10 8 9

