# https://github.com/mikedh/trimesh
v -0.00148505 -0.00180480 -0.01440699
v -0.00122953 -0.00185571 -0.01440699
v -0.00142644 -0.00180889 -0.01592925
v -0.00166164 -0.00180889 -0.01592925
v -0.00168020 -0.00180967 -0.01440699
v -0.00126254 -0.00184401 -0.01592925
v -0.00101347 -0.00195755 -0.01440699
v -0.00109474 -0.00191092 -0.01592925
v -0.00185035 -0.00184752 -0.01592925
v -0.00187047 -0.00185571 -0.01440699
v -0.00094725 -0.00200358 -0.01592925
v -0.00082984 -0.00211049 -0.01440699
v -0.00203828 -0.00193062 -0.01592925
v -0.00208653 -0.00195755 -0.01440699
v -0.00081851 -0.00212083 -0.01592925
v -0.00070755 -0.00226343 -0.01440699
v -0.00222913 -0.00206855 -0.01592925
v -0.00227016 -0.00211049 -0.01440699
v -0.00068060 -0.00231181 -0.01592925
v -0.00062727 -0.00241794 -0.01440699
v -0.00234654 -0.00219730 -0.01592925
v -0.00239245 -0.00226343 -0.01440699
v -0.00059757 -0.00249968 -0.01592925
v -0.00057491 -0.00258395 -0.01440699
v -0.00243913 -0.00234478 -0.01592925
v -0.00247273 -0.00241794 -0.01440699
v -0.00055889 -0.00268832 -0.01592925
v -0.00055225 -0.00275640 -0.01440699
v -0.00250594 -0.00251255 -0.01592925
v -0.00251571 -0.00254123 -0.01440699
v -0.00055889 -0.00292359 -0.01592925
v -0.00055967 -0.00293022 -0.01440699
v -0.00254111 -0.00267642 -0.01592925
v -0.00254501 -0.00273494 -0.01440699
v -0.00059406 -0.00308746 -0.01592925
v -0.00060578 -0.00312043 -0.01440699
v -0.00254775 -0.00285004 -0.01592925
v -0.00254033 -0.00293022 -0.01440699
v -0.00066087 -0.00325523 -0.01592925
v -0.00070755 -0.00333658 -0.01440699
v -0.00252509 -0.00301606 -0.01592925
v -0.00249422 -0.00312043 -0.01440699
v -0.00075346 -0.00340271 -0.01592925
v -0.00082984 -0.00348952 -0.01440699
v -0.00247273 -0.00318207 -0.01592925
v -0.00239245 -0.00333658 -0.01440699
v -0.00087087 -0.00353146 -0.01592925
v -0.00101347 -0.00364246 -0.01440699
v -0.00239245 -0.00333658 -0.01592925
v -0.00228149 -0.00347918 -0.01592925
v -0.00227016 -0.00348952 -0.01440699
v -0.00101347 -0.00364246 -0.01592925
v -0.00116780 -0.00372284 -0.01592925
v -0.00122953 -0.00374430 -0.01440699
v -0.00215275 -0.00359642 -0.01592925
v -0.00208653 -0.00364246 -0.01440699
v -0.00133404 -0.00377512 -0.01592925
v -0.00148505 -0.00379502 -0.01440699
v -0.00200526 -0.00368909 -0.01592925
v -0.00187047 -0.00374430 -0.01440699
v -0.00149989 -0.00379775 -0.01592925
v -0.00168020 -0.00379034 -0.01440699
v -0.00183746 -0.00375600 -0.01592925
v -0.00167356 -0.00379112 -0.01592925
f 50 55 51
f 60 59 63
f 29 33 30
f 10 13 14
f 28 31 27
f 3 4 1
f 62 60 63
f 55 59 56
f 59 60 56
f 51 55 56
f 57 53 54
f 48 52 47
f 53 52 48
f 54 53 48
f 40 39 36
f 25 29 26
f 29 30 26
f 34 33 37
f 34 30 33
f 9 13 10
f 17 14 13
f 15 16 19
f 12 16 15
f 24 27 23
f 28 27 24
f 11 8 7
f 7 12 11
f 11 12 15
f 5 1 4
f 4 9 5
f 5 9 10
f 3 1 2
f 7 8 2
f 61 62 64
f 64 62 63
f 58 62 61
f 61 57 58
f 58 57 54
f 44 48 47
f 43 39 40
f 40 44 43
f 43 44 47
f 32 31 28
f 35 36 39
f 35 32 36
f 31 32 35
f 38 34 37
f 14 17 18
f 20 24 23
f 23 19 20
f 20 19 16
f 3 2 6
f 6 2 8
f 41 38 37
f 46 45 49
f 49 50 46
f 46 50 51
f 21 18 17
f 45 46 42
f 42 41 45
f 38 41 42
f 18 21 22
f 22 21 25
f 25 26 22
f 21 27 31
f 21 11 15
f 21 59 55
f 21 4 3
f 31 35 21
f 37 33 21
f 3 6 21
f 55 50 21
f 47 52 21
f 21 29 25
f 13 9 21
f 21 41 37
f 49 45 21
f 21 50 49
f 63 59 21
f 21 57 61
f 21 33 29
f 21 43 47
f 23 27 21
f 15 19 21
f 53 57 21
f 21 52 53
f 61 64 21
f 21 9 4
f 21 17 13
f 21 19 23
f 8 11 21
f 21 64 63
f 39 43 21
f 21 35 39
f 21 6 8
f 45 41 21
f 10 14 22
f 7 2 22
f 54 48 22
f 22 12 7
f 28 24 22
f 51 56 22
f 22 26 30
f 22 44 40
f 22 32 28
f 22 5 10
f 60 62 22
f 22 56 60
f 22 58 54
f 40 36 22
f 22 20 16
f 30 34 22
f 16 12 22
f 14 18 22
f 1 5 22
f 22 2 1
f 62 58 22
f 48 44 22
f 36 32 22
f 34 38 22
f 38 42 22
f 24 20 22
f 22 46 51
f 22 42 46

