# https://github.com/mikedh/trimesh
v 0.01490697 -0.00001771 -0.01440723
v 0.01490697 0.00114486 -0.01440723
v 0.01549915 -0.00001771 -0.01440723
v 0.01490697 -0.00001771 0.01440032
v 0.01526986 0.00114486 -0.01440723
v 0.01490697 0.00114486 0.01439750
v 0.01549996 0.00000050 -0.01440723
v 0.01554205 -0.00001771 -0.01439877
v 0.01554205 -0.00001771 0.01439750
v 0.01554205 0.00114486 0.01439750
v 0.01531904 0.00102606 -0.01440723
v 0.01554205 0.00114486 -0.01439877
v 0.01548858 0.00026155 -0.01440723
v 0.01539775 0.00077638 -0.01440723
v 0.01545439 0.00052101 -0.01440723
f 8 7 12
f 9 10 4
f 4 10 6
f 3 7 8
f 12 15 14
f 13 12 7
f 13 15 12
f 11 5 12
f 12 14 11
f 8 12 9
f 9 12 10
f 1 4 6
f 6 2 1
f 3 4 1
f 8 9 3
f 3 9 4
f 10 12 5
f 2 6 5
f 5 6 10
f 1 2 11
f 11 3 1
f 7 3 11
f 2 5 11
f 11 13 7
f 11 14 15
f 15 13 11

