# https://github.com/mikedh/trimesh
v 0.00248045 0.00700000 0.01700000
v -0.00053186 0.00700000 0.01700000
v 0.00248045 0.00627734 0.01700000
v 0.00248045 0.00700938 0.01589861
v -0.00053186 0.00627734 0.01700000
v -0.00053186 0.00700938 0.01589861
v 0.00248045 0.00627734 -0.01439928
v 0.00248045 0.00700938 -0.01590000
v -0.00053186 0.00627734 -0.01439928
v -0.00053186 0.00700938 -0.01439928
v 0.00248045 0.00650005 -0.01590000
v 0.00095012 0.00700938 -0.01590000
v 0.00095012 0.00650005 -0.01590000
f 5 3 1
f 5 1 2
f 3 5 7
f 7 5 9
f 1 4 6
f 2 1 6
f 11 4 1
f 1 3 11
f 8 4 11
f 3 7 11
f 10 5 2
f 9 5 10
f 2 6 10
f 10 4 8
f 8 12 10
f 10 6 4
f 9 10 13
f 13 10 12
f 13 7 9
f 13 11 7
f 13 12 8
f 8 11 13

