# https://github.com/mikedh/trimesh
v 0.00440360 -0.00331682 0.01620000
v 0.00700349 -0.00331682 0.01620000
v 0.00440360 -0.00331682 0.01700245
v 0.00440360 0.00458309 0.01620000
v 0.00700349 -0.00331682 0.01700245
v 0.00700349 0.00382604 0.01620000
v 0.00440360 0.00458309 0.01700245
v 0.00635626 0.00458309 0.01620000
v 0.00700349 0.00382604 0.01700245
v 0.00635626 0.00458309 0.01700245
f 1 2 5
f 5 3 1
f 2 6 5
f 5 6 9
f 7 4 1
f 1 3 7
f 1 4 8
f 8 2 1
f 8 6 2
f 3 5 10
f 10 5 9
f 10 7 3
f 9 6 10
f 6 8 10
f 4 7 10
f 10 8 4

