# https://github.com/mikedh/trimesh
v -0.01428572 -0.01165078 -0.01590000
v -0.01428572 -0.01199851 -0.01589826
v -0.01428572 -0.01008270 -0.01590000
v -0.00389282 -0.01090678 -0.01590000
v -0.00389282 -0.01199806 -0.01589930
v -0.01428572 -0.01240000 -0.01439999
v -0.00389282 -0.01199942 -0.01589477
v -0.00389282 -0.01210104 -0.01551567
v -0.01428572 -0.01008270 -0.01233707
v -0.00405050 -0.01008270 -0.01590000
v -0.00389282 -0.01010017 -0.01590000
v -0.01428572 -0.01240000 -0.01233707
v -0.00389282 -0.01240000 -0.01439999
v -0.00389282 -0.01008270 -0.01233707
v -0.00389282 -0.01008270 -0.01439999
v -0.00389282 -0.01240000 -0.01233707
f 1 4 5
f 11 10 15
f 1 5 2
f 7 2 5
f 13 6 8
f 6 2 8
f 2 7 8
f 3 9 14
f 14 10 3
f 15 10 14
f 9 12 14
f 14 12 16
f 1 3 11
f 11 4 1
f 3 10 11
f 16 12 6
f 6 13 16
f 2 9 3
f 2 3 1
f 2 12 9
f 2 6 12
f 8 5 4
f 16 13 8
f 8 14 16
f 15 14 8
f 4 11 8
f 8 11 15
f 8 7 5

