# https://github.com/mikedh/trimesh
v 0.00896762 -0.00583053 0.01869984
v 0.00896762 -0.00583053 0.01700245
v 0.00843687 -0.00583053 0.01869984
v 0.00896762 -0.00935046 0.01869984
v 0.00843687 -0.00583053 0.01700245
v 0.00896762 -0.00935046 0.01700245
v 0.00755005 -0.00619989 0.01869984
v 0.00827368 -0.00906276 0.01869984
v 0.00755005 -0.00619989 0.01700245
v 0.00827368 -0.00906276 0.01700245
v 0.00755005 -0.00868617 0.01869984
v 0.00755005 -0.00868617 0.01700245
f 9 11 7
f 12 11 9
f 1 4 6
f 6 2 1
f 5 3 1
f 1 2 5
f 7 3 5
f 5 9 7
f 8 4 1
f 8 3 7
f 1 3 8
f 7 11 8
f 12 9 10
f 10 5 2
f 2 6 10
f 9 5 10
f 10 11 12
f 10 8 11
f 10 6 4
f 4 8 10

