# https://github.com/mikedh/trimesh
v -0.02160117 0.00700955 0.00998447
v -0.02160117 0.00874973 0.00998447
v -0.02094479 0.00700955 0.00998447
v -0.02160117 0.00700955 0.01472134
v -0.02094479 0.00874973 0.00998447
v -0.02160117 0.00874973 0.01439998
v -0.02094479 0.00700955 0.01472134
v -0.02160117 0.00839996 0.01472134
v -0.02094479 0.00874973 0.01472134
v -0.02159924 0.00874973 0.01472134
f 10 6 8
f 1 2 5
f 5 3 1
f 1 3 7
f 7 4 1
f 3 5 7
f 7 5 9
f 6 5 2
f 9 5 6
f 6 10 9
f 4 7 8
f 8 7 9
f 9 10 8
f 8 2 1
f 1 4 8
f 8 6 2

