# https://github.com/mikedh/trimesh
v 0.00405172 -0.00533230 0.01700245
v 0.00415814 -0.00549961 0.01700245
v 0.00405172 -0.00533230 0.01869984
v 0.00636131 -0.00533230 0.01700245
v 0.00430870 -0.00573576 0.01700245
v 0.00430870 -0.00573576 0.01869984
v 0.00636131 -0.00533230 0.01869984
v 0.00681787 -0.00596180 0.01700245
v 0.00448201 -0.00596180 0.01700245
v 0.00448201 -0.00596180 0.01869984
v 0.00681787 -0.00596180 0.01869984
f 1 2 3
f 6 3 2
f 5 6 2
f 11 9 8
f 10 9 11
f 10 11 7
f 3 6 7
f 7 6 10
f 7 4 1
f 1 3 7
f 8 4 7
f 7 11 8
f 1 4 5
f 5 2 1
f 5 4 8
f 8 9 5
f 5 9 10
f 10 6 5

