# https://github.com/mikedh/trimesh
v 0.00419995 0.01234996 0.01590000
v 0.00441388 0.01239721 0.01440980
v 0.00363667 0.01239721 0.01440980
v 0.00402193 0.01234236 0.01590000
v 0.00437805 0.01234236 0.01590000
v 0.00441388 0.01233783 0.01590000
v 0.00441388 0.01096825 0.01440980
v 0.00363667 0.01227165 0.01590000
v 0.00367083 0.01228216 0.01590000
v 0.00384512 0.01231970 0.01590000
v 0.00363667 0.01074446 0.01440980
v 0.00441388 0.01096825 0.01590000
v 0.00363667 0.01074446 0.01590000
f 1 2 3
f 5 6 2
f 2 1 5
f 4 1 3
f 3 10 4
f 3 8 9
f 9 10 3
f 7 11 3
f 3 2 7
f 6 7 2
f 12 7 6
f 11 7 13
f 13 7 12
f 3 11 13
f 13 8 3
f 12 6 9
f 9 13 12
f 9 5 1
f 1 4 9
f 8 13 9
f 6 5 9
f 9 4 10

