# https://github.com/mikedh/trimesh
v -0.01980969 0.01050009 0.01579983
v -0.01977794 0.01048096 0.01495377
v -0.01939002 0.01047146 0.01577201
v -0.01952275 0.01051390 0.01579594
v -0.01959476 0.01065236 0.01579876
v -0.01965769 0.01079271 0.01579876
v -0.01975355 0.01097981 0.01579669
v -0.01978564 0.01124381 0.01576256
v -0.01979568 0.01141672 0.01570202
v -0.01980650 0.01152794 0.01563750
v -0.01980969 0.01171441 0.01539673
v -0.01980969 0.01175583 0.01495377
v -0.01910177 0.01046171 0.01495377
v -0.01924974 0.01048362 0.01570434
v -0.01931129 0.01062233 0.01572463
v -0.01941511 0.01059434 0.01577159
v -0.01951284 0.01074154 0.01578319
v -0.01961077 0.01101275 0.01576944
v -0.01965284 0.01112853 0.01575768
v -0.01965166 0.01129815 0.01569755
v -0.01957424 0.01137555 0.01560486
v -0.01967772 0.01146802 0.01560337
v -0.01978661 0.01160344 0.01555211
v -0.01972839 0.01163726 0.01545346
v -0.01970690 0.01166804 0.01534231
v -0.01980969 0.01175190 0.01524110
v -0.01969685 0.01168249 0.01522619
v -0.01969616 0.01168350 0.01495377
v -0.01912180 0.01100312 0.01495377
v -0.01910842 0.01097310 0.01522619
v -0.01910260 0.01084250 0.01542712
v -0.01910329 0.01068732 0.01551939
v -0.01912818 0.01049439 0.01560412
v -0.01918951 0.01065489 0.01563220
v -0.01931794 0.01075319 0.01570359
v -0.01940790 0.01085263 0.01572960
v -0.01954853 0.01091496 0.01576944
v -0.01948560 0.01110041 0.01569755
v -0.01954049 0.01122278 0.01567369
v -0.01936999 0.01118123 0.01556345
v -0.01943327 0.01131284 0.01552080
v -0.01951575 0.01143407 0.01548775
v -0.01961895 0.01153807 0.01547673
v -0.01958707 0.01157608 0.01534231
v -0.01957577 0.01158963 0.01522619
v -0.01959365 0.01160471 0.01495377
v -0.01918452 0.01112498 0.01495377
v -0.01918549 0.01112435 0.01522619
v -0.01912332 0.01095575 0.01535506
v -0.01920074 0.01111561 0.01534231
v -0.01918230 0.01095790 0.01548775
v -0.01917427 0.01080551 0.01556345
v -0.01928280 0.01091103 0.01563220
v -0.01938933 0.01100692 0.01567369
v -0.01930117 0.01122937 0.01541685
v -0.01926797 0.01107697 0.01552080
v -0.01937380 0.01136276 0.01534231
v -0.01947576 0.01147410 0.01534231
v -0.01946335 0.01148652 0.01522619
v -0.01946252 0.01148728 0.01495377
v -0.01926658 0.01125356 0.01495377
v -0.01927074 0.01125065 0.01526528
v -0.01936036 0.01137403 0.01522619
v -0.01937540 0.01139214 0.01495377
f 1 12 2
f 3 2 13
f 1 2 3
f 13 33 14
f 14 3 13
f 1 10 11
f 29 30 13
f 32 33 13
f 9 10 1
f 1 8 9
f 7 8 1
f 26 11 25
f 25 11 24
f 13 30 31
f 31 32 13
f 34 14 33
f 33 32 34
f 1 3 4
f 23 11 10
f 23 24 11
f 32 31 51
f 56 53 51
f 51 55 56
f 35 34 53
f 53 54 35
f 52 34 32
f 53 34 52
f 32 51 52
f 52 51 53
f 20 9 8
f 10 9 20
f 8 7 18
f 16 4 3
f 17 18 7
f 37 18 17
f 4 16 17
f 17 16 37
f 46 45 60
f 12 26 27
f 27 26 25
f 25 45 27
f 44 45 25
f 25 24 44
f 48 29 47
f 30 29 48
f 47 61 48
f 60 45 59
f 24 23 43
f 43 44 24
f 55 51 50
f 30 48 50
f 14 34 15
f 34 35 15
f 3 14 15
f 15 16 3
f 36 35 54
f 36 15 35
f 37 16 36
f 16 15 36
f 10 20 21
f 42 43 21
f 38 36 54
f 6 17 7
f 6 7 1
f 12 27 28
f 45 46 28
f 28 27 45
f 42 55 57
f 63 59 57
f 63 61 64
f 60 59 64
f 64 59 63
f 62 61 63
f 62 48 61
f 63 57 62
f 62 50 48
f 55 50 62
f 62 57 55
f 49 51 31
f 49 50 51
f 49 31 30
f 30 50 49
f 40 53 56
f 40 54 53
f 56 55 40
f 22 23 10
f 10 21 22
f 22 43 23
f 22 21 43
f 36 38 19
f 19 18 37
f 37 36 19
f 8 18 19
f 19 20 8
f 19 38 20
f 4 17 5
f 17 6 5
f 1 4 5
f 5 6 1
f 58 57 59
f 45 44 58
f 58 59 45
f 42 57 58
f 58 43 42
f 44 43 58
f 39 40 21
f 39 21 20
f 20 38 39
f 39 38 54
f 54 40 39
f 41 55 42
f 41 40 55
f 42 21 41
f 21 40 41
f 1 11 26
f 26 12 1
f 64 2 12
f 13 2 64
f 64 29 13
f 64 61 47
f 47 29 64
f 64 46 60
f 12 28 64
f 64 28 46

