# https://github.com/mikedh/trimesh
v 0.01821379 0.00593756 0.01700245
v 0.01821379 0.00593756 0.01869984
v 0.02053667 0.00593756 0.01700245
v 0.01869173 0.00508462 0.01700245
v 0.01869173 0.00508462 0.01869984
v 0.02053667 0.00593756 0.01869984
v 0.02069126 0.00573568 0.01700245
v 0.02110634 0.00508462 0.01700245
v 0.02110634 0.00508462 0.01869984
v 0.02069126 0.00573568 0.01869984
v 0.02084189 0.00549965 0.01700245
f 11 9 8
f 10 11 7
f 9 11 10
f 5 2 1
f 1 4 5
f 9 5 4
f 9 4 8
f 1 2 6
f 6 3 1
f 11 4 1
f 8 4 11
f 1 3 11
f 3 7 11
f 2 5 10
f 5 9 10
f 10 6 2
f 10 7 3
f 3 6 10

