# https://github.com/mikedh/trimesh
v 0.00362013 -0.01072504 -0.01440723
v 0.00438132 -0.01097741 -0.01440723
v 0.00362013 -0.01072504 -0.01590000
v 0.00362013 -0.01239790 -0.01440723
v 0.00438132 -0.01097741 -0.01590000
v 0.00438132 -0.01239790 -0.01440723
v 0.00362013 -0.01226656 -0.01590000
v 0.00367088 -0.01228212 -0.01590000
v 0.00384512 -0.01231978 -0.01590000
v 0.00402189 -0.01234238 -0.01590000
v 0.00419993 -0.01234992 -0.01590000
v 0.00438132 -0.01234189 -0.01590000
v 0.00437804 -0.01234238 -0.01590000
f 9 10 4
f 11 6 4
f 4 10 11
f 4 7 8
f 8 9 4
f 12 6 13
f 6 11 13
f 1 4 6
f 6 2 1
f 1 2 5
f 5 3 1
f 2 6 5
f 5 6 12
f 7 4 1
f 1 3 7
f 3 5 13
f 13 5 12
f 13 7 3
f 13 8 7
f 10 9 13
f 13 11 10
f 9 8 13

