# https://github.com/mikedh/trimesh
v -0.00389282 -0.01012276 -0.01440351
v -0.00389282 -0.01012276 -0.01308487
v -0.00389282 -0.01009996 -0.01440351
v -0.00082618 -0.01012276 -0.01440351
v -0.00389282 -0.00950320 -0.01308487
v -0.00082618 -0.01012276 -0.01308487
v -0.00389282 -0.00950320 -0.01439990
v -0.00082618 -0.01009996 -0.01440351
v -0.00082618 -0.00950320 -0.01308487
v -0.00082618 -0.00950320 -0.01439990
f 6 2 1
f 1 4 6
f 1 2 3
f 3 2 5
f 5 7 3
f 2 6 9
f 5 2 9
f 8 4 1
f 1 3 8
f 10 6 4
f 10 9 6
f 4 8 10
f 10 7 5
f 5 9 10
f 10 3 7
f 10 8 3

