# https://github.com/mikedh/trimesh
v -0.01131651 -0.01124764 0.01590000
v -0.01326422 -0.01124764 0.01590000
v -0.01131651 -0.01199798 0.01590000
v -0.01131651 -0.01124764 -0.01233707
v -0.01326422 -0.01199798 0.01590000
v -0.01326422 -0.01124764 -0.01233707
v -0.01131651 -0.01206397 0.01565400
v -0.01131651 -0.01239989 -0.01233707
v -0.01326422 -0.01211654 0.01545776
v -0.01326422 -0.01239989 -0.01233707
v -0.01131651 -0.01230615 0.01475017
v -0.01131651 -0.01239989 0.01439914
v -0.01326422 -0.01229126 0.01480545
v -0.01326422 -0.01239989 0.01439914
v -0.01326422 -0.01236898 0.01451523
v -0.01131651 -0.01236086 0.01454564
f 7 3 5
f 15 14 12
f 11 13 15
f 11 7 9
f 9 7 5
f 9 13 11
f 16 15 12
f 11 15 16
f 1 4 6
f 2 1 6
f 3 1 2
f 2 5 3
f 10 6 4
f 10 4 8
f 8 12 10
f 12 14 10
f 2 6 9
f 9 5 2
f 6 10 9
f 9 10 14
f 14 15 9
f 9 15 13
f 16 4 1
f 16 12 8
f 8 4 16
f 1 3 16
f 3 7 16
f 16 7 11

