# https://github.com/mikedh/trimesh
v 0.00988626 -0.00059673 0.01927291
v 0.00990850 -0.00069468 0.01927291
v 0.00992565 -0.00068996 0.01944497
v 0.00990574 -0.00059673 0.01944497
v 0.01086519 -0.00045000 0.01984036
v 0.01146565 -0.00045006 0.01927291
v 0.00997881 -0.00091769 0.01927291
v 0.00999576 -0.00091142 0.01944497
v 0.01001906 -0.00090294 0.01957701
v 0.00995043 -0.00068349 0.01957701
v 0.00993095 -0.00059673 0.01957701
v 0.01086519 -0.00045705 0.02019991
v 0.01146565 -0.00045000 0.02019991
v 0.01146565 -0.00045000 0.01984036
v 0.01204958 -0.00045006 0.02020000
v 0.01204958 -0.00047814 0.01927291
v 0.01005845 -0.00111094 0.01927291
v 0.01007815 -0.00111094 0.01944497
v 0.01011415 -0.00111030 0.01960705
v 0.01004087 -0.00089505 0.01966114
v 0.00996293 -0.00063717 0.01966114
v 0.00999978 -0.00063238 0.01975978
v 0.01005549 -0.00062513 0.01986623
v 0.01011712 -0.00061711 0.01994799
v 0.01018998 -0.00060760 0.02001741
v 0.01073494 -0.00061672 0.02019283
v 0.01088722 -0.00059596 0.02019918
v 0.01095987 -0.00071856 0.02020000
v 0.01146565 -0.00045006 0.02020000
v 0.01028508 -0.00059731 0.02008057
v 0.01039966 -0.00059673 0.02012940
v 0.01051424 -0.00059673 0.02016234
v 0.01062586 -0.00063730 0.02018049
v 0.01205000 -0.00059673 0.02020000
v 0.01205000 -0.00059673 0.01927328
v 0.01104692 -0.00111094 0.01927291
v 0.01037975 -0.00111094 0.02001106
v 0.01016753 -0.00110072 0.01976078
v 0.01007539 -0.00088243 0.01975978
v 0.01012792 -0.00086328 0.01986623
v 0.01018617 -0.00084226 0.01994799
v 0.01025521 -0.00081715 0.02001769
v 0.01033993 -0.00078623 0.02007831
v 0.01070423 -0.00083740 0.02018049
v 0.01081330 -0.00078662 0.02019383
v 0.01102722 -0.00085002 0.02020000
v 0.01044731 -0.00074741 0.02012940
v 0.01054919 -0.00071015 0.02016234
v 0.01205000 -0.00111094 0.02020000
v 0.01205000 -0.00111094 0.01927509
v 0.01048925 -0.00111094 0.02007831
v 0.01033527 -0.00100963 0.02001769
v 0.01025627 -0.00106714 0.01991859
v 0.01041703 -0.00097139 0.02007831
v 0.01052017 -0.00092319 0.02012940
v 0.01061866 -0.00087713 0.02016234
v 0.01078471 -0.00099054 0.02018049
v 0.01088870 -0.00093044 0.02019383
v 0.01110665 -0.00097489 0.02020000
v 0.01120534 -0.00110176 0.02020000
v 0.01088743 -0.00111094 0.02018303
v 0.01057884 -0.00111023 0.02011678
v 0.01071355 -0.00108830 0.02015735
v 0.01099122 -0.00108920 0.02019383
f 1 5 6
f 16 6 15
f 14 6 5
f 14 15 6
f 35 36 16
f 50 36 35
f 35 15 34
f 16 15 35
f 17 8 7
f 25 12 11
f 5 12 13
f 13 14 5
f 15 14 13
f 43 25 42
f 25 41 42
f 23 11 22
f 23 22 39
f 18 8 17
f 4 11 12
f 4 5 1
f 4 12 5
f 39 22 20
f 30 12 25
f 30 31 12
f 30 25 43
f 15 13 29
f 29 13 12
f 24 41 25
f 25 11 24
f 11 23 24
f 40 23 39
f 40 53 41
f 41 24 40
f 40 24 23
f 3 2 7
f 3 7 8
f 11 4 3
f 1 2 3
f 3 4 1
f 52 42 41
f 41 53 52
f 43 42 52
f 22 11 21
f 21 20 22
f 28 45 46
f 28 29 12
f 9 3 8
f 19 20 9
f 8 18 9
f 9 18 19
f 19 18 37
f 37 52 53
f 51 52 37
f 47 30 43
f 31 30 47
f 43 52 54
f 54 52 51
f 27 28 12
f 45 28 27
f 12 26 27
f 27 26 45
f 3 9 10
f 11 3 10
f 10 21 11
f 20 21 10
f 10 9 20
f 19 37 38
f 38 37 53
f 39 20 38
f 38 20 19
f 38 40 39
f 53 40 38
f 60 61 49
f 61 60 64
f 51 61 62
f 61 63 62
f 62 54 51
f 31 47 48
f 59 64 60
f 46 45 58
f 58 59 46
f 64 59 58
f 61 64 58
f 54 62 55
f 55 47 43
f 43 54 55
f 55 62 63
f 55 48 47
f 31 48 32
f 12 31 32
f 44 58 45
f 45 26 44
f 56 55 63
f 48 55 56
f 56 44 48
f 57 63 61
f 61 58 57
f 58 44 57
f 57 56 63
f 44 56 57
f 33 32 48
f 48 44 33
f 33 44 26
f 33 26 12
f 12 32 33
f 35 49 50
f 34 49 35
f 1 6 2
f 2 36 17
f 2 6 16
f 16 36 2
f 17 7 2
f 17 36 61
f 61 36 50
f 50 49 61
f 61 18 17
f 61 37 18
f 51 37 61
f 59 49 34
f 34 15 59
f 59 28 46
f 15 29 59
f 29 28 59
f 59 60 49

