# https://github.com/mikedh/trimesh
v -0.02144756 -0.01020727 -0.01590000
v -0.02144756 -0.00960518 -0.01590000
v -0.02104815 -0.01020727 -0.01590000
v -0.02144756 -0.01020727 0.01474499
v -0.02094727 -0.00960518 -0.01590000
v -0.02144756 -0.00960518 0.01580000
v -0.02094727 -0.00987148 -0.01590000
v -0.02094727 -0.01020727 -0.01439816
v -0.02095001 -0.01020727 0.01429816
v -0.02095001 -0.00999997 0.01580000
v -0.02144756 -0.00999997 0.01580000
v -0.02094727 -0.00960518 0.01464259
v -0.02095001 -0.00960518 0.01580000
v -0.02094727 -0.01020727 0.01429506
v -0.02094727 -0.01020615 0.01429816
f 10 12 13
f 8 3 7
f 4 10 11
f 14 10 9
f 9 10 4
f 15 10 14
f 12 10 15
f 2 6 12
f 5 2 12
f 6 13 12
f 1 2 7
f 7 2 5
f 7 3 1
f 11 6 2
f 11 2 1
f 1 4 11
f 11 13 6
f 11 10 13
f 9 4 1
f 1 3 9
f 9 8 14
f 9 3 8
f 14 8 15
f 5 12 15
f 15 7 5
f 8 7 15

