# https://github.com/mikedh/trimesh
v 0.00442162 -0.00634633 0.01439851
v 0.00396725 -0.00634633 0.01440980
v 0.00435929 -0.00678556 0.01440698
v 0.00442162 -0.00678556 0.01439851
v 0.00442162 -0.00634633 -0.01439877
v 0.00248045 -0.00634633 0.01440980
v 0.00394084 -0.00678556 0.01440980
v 0.00442162 -0.00678556 -0.01439877
v 0.00435207 -0.00678556 -0.01440441
v 0.00412004 -0.00650003 -0.01440723
v 0.00248045 -0.00634633 -0.01439877
v 0.00248045 -0.00678556 0.01440698
v 0.00258440 -0.00678556 0.01440980
v 0.00403110 -0.00678556 -0.01440723
v 0.00248045 -0.00650003 -0.01440723
v 0.00248045 -0.00678556 -0.01440723
f 2 3 1
f 1 3 4
f 3 2 7
f 6 12 13
f 9 14 10
f 10 5 9
f 5 8 9
f 5 2 1
f 6 2 5
f 5 11 6
f 6 11 15
f 15 12 6
f 16 12 15
f 11 5 15
f 15 5 10
f 8 5 1
f 1 4 8
f 16 15 14
f 14 15 10
f 13 2 6
f 13 7 2
f 9 12 16
f 9 4 3
f 3 7 9
f 9 8 4
f 16 14 9
f 9 13 12
f 7 13 9

