# https://github.com/mikedh/trimesh
v -0.01972907 -0.01020733 0.01448580
v -0.02021425 -0.01020733 0.01448580
v -0.01972907 -0.01073338 0.01448580
v -0.01972907 -0.01020733 0.01340224
v -0.02044991 -0.01049999 0.01448580
v -0.02074654 -0.01020733 0.01429998
v -0.02074654 -0.01073338 0.01448336
v -0.02044991 -0.01073338 0.01448580
v -0.01972907 -0.01073338 0.01340224
v -0.02074654 -0.01020733 0.01340224
v -0.02074654 -0.01073338 0.01340224
f 8 5 7
f 6 7 2
f 7 5 2
f 10 7 6
f 11 7 10
f 9 4 1
f 1 3 9
f 9 10 4
f 11 10 9
f 8 7 11
f 8 9 3
f 11 9 8
f 1 4 2
f 2 10 6
f 4 10 2
f 2 3 1
f 2 8 3
f 5 8 2

