# https://github.com/mikedh/trimesh
v 0.01853097 -0.00557710 0.01869984
v 0.01853097 -0.00557710 0.01700245
v 0.01756652 -0.00619420 0.01869984
v 0.01853097 -0.00796482 0.01869984
v 0.01853097 -0.00796482 0.01700245
v 0.01756652 -0.00619420 0.01700245
v 0.01756652 -0.00861793 0.01869984
v 0.01823573 -0.00819135 0.01869984
v 0.01823573 -0.00819135 0.01700245
v 0.01756652 -0.00861793 0.01700245
f 1 2 6
f 3 1 6
f 3 6 10
f 10 7 3
f 8 1 3
f 3 7 8
f 8 4 1
f 7 10 8
f 8 10 9
f 5 6 2
f 5 10 6
f 9 10 5
f 5 2 1
f 1 4 5
f 4 8 5
f 5 8 9

