# https://github.com/mikedh/trimesh
v -0.02094474 0.00700952 0.00088335
v -0.02094474 0.00842083 0.00088335
v -0.02045228 0.00700952 0.00088335
v -0.02094474 0.00700952 0.01589853
v -0.02045228 0.00842083 0.00088335
v -0.02094474 0.00842083 0.01439907
v -0.02045228 0.00700952 0.01589853
v -0.02094474 0.00839997 0.01589853
v -0.02045228 0.00842083 0.01439907
v -0.02045228 0.00841724 0.01589853
f 6 8 10
f 10 9 6
f 1 2 5
f 5 3 1
f 1 3 7
f 7 4 1
f 4 7 8
f 8 7 10
f 3 5 9
f 9 7 3
f 10 7 9
f 6 2 1
f 1 4 6
f 4 8 6
f 6 5 2
f 6 9 5

