# https://github.com/mikedh/trimesh
v 0.01798243 -0.00608031 0.01700245
v 0.01798243 -0.00608031 0.01620000
v 0.01734150 -0.00619524 0.01700245
v 0.01798243 -0.00835262 0.01700245
v 0.01734150 -0.00619524 0.01620000
v 0.01798243 -0.00835262 0.01620000
v 0.01734150 -0.00874276 0.01700245
v 0.01750006 -0.00866015 0.01700245
v 0.01734150 -0.00874276 0.01620000
v 0.01750006 -0.00866015 0.01620000
f 1 2 5
f 3 1 5
f 3 5 9
f 9 7 3
f 8 1 3
f 3 7 8
f 8 4 1
f 7 9 8
f 9 10 8
f 6 5 2
f 6 9 5
f 6 10 9
f 6 2 1
f 1 4 6
f 4 8 6
f 6 8 10

