# https://github.com/mikedh/trimesh
v -0.01686935 0.01090241 0.01590000
v -0.01765962 0.01090241 0.01590000
v -0.01724183 0.01035581 0.01590000
v -0.01724183 0.01035581 0.01457598
v -0.01686950 0.01090235 0.01457598
v -0.01690451 0.01090241 0.01457598
v -0.01766047 0.01090241 0.01558857
v -0.01766047 0.01043110 0.01590000
v -0.01766047 0.01035581 0.01590000
v -0.01766047 0.01035581 0.01457598
v -0.01766047 0.01090241 0.01457598
f 1 3 4
f 1 4 5
f 1 5 6
f 8 2 7
f 9 10 4
f 9 4 3
f 11 2 1
f 7 2 11
f 1 6 11
f 4 10 11
f 11 5 4
f 11 6 5
f 1 2 8
f 8 3 1
f 8 9 3
f 10 9 8
f 8 11 10
f 7 11 8

