# https://github.com/mikedh/trimesh
v -0.00573455 0.01199792 0.01590000
v -0.01308665 0.01199792 0.01590000
v -0.00573455 0.00700991 0.01590000
v -0.00573455 0.01214303 0.01535864
v -0.01308665 0.00700991 0.01590000
v -0.00573455 0.01234723 0.01459673
v -0.01308665 0.01233404 0.01464543
v -0.00573455 0.00700991 -0.01336199
v -0.01308665 0.00700991 -0.01336199
v -0.00573455 0.01240000 0.01439909
v -0.01308665 0.01240000 0.01439909
v -0.00573455 0.01240000 -0.01336199
v -0.01308665 0.01240000 -0.01336199
f 6 10 11
f 2 1 4
f 4 6 2
f 2 6 7
f 7 6 11
f 5 3 1
f 5 1 2
f 9 8 3
f 3 5 9
f 13 10 12
f 11 10 13
f 13 12 8
f 8 9 13
f 3 8 4
f 1 3 4
f 8 12 4
f 12 10 4
f 10 6 4
f 7 5 2
f 11 13 7
f 7 9 5
f 7 13 9

