# https://github.com/mikedh/trimesh
v 0.01010021 -0.00000072 0.01440980
v 0.01010907 -0.00020243 0.01440980
v 0.01007669 -0.00161057 0.01470006
v 0.01007669 -0.00000072 0.01470006
v 0.01319769 -0.00000072 0.01440980
v 0.01010938 -0.00020920 0.01440980
v 0.01007669 -0.00161057 0.01613282
v 0.01013565 -0.00041012 0.01440980
v 0.01013657 -0.00041689 0.01440980
v 0.01018179 -0.00062128 0.01440980
v 0.01024290 -0.00081431 0.01440980
v 0.01024503 -0.00082077 0.01440980
v 0.01032233 -0.00100782 0.01440980
v 0.01032508 -0.00101428 0.01440980
v 0.01042163 -0.00119991 0.01440980
v 0.01053407 -0.00137656 0.01440980
v 0.01065750 -0.00153714 0.01440980
v 0.01066178 -0.00154265 0.01440980
v 0.01072380 -0.00161057 0.01440980
v 0.01007669 -0.00000072 0.01613282
v 0.01319769 -0.00000072 0.01613282
v 0.01319769 -0.00159402 0.01440980
v 0.01319769 -0.00161057 0.01613282
v 0.01319555 -0.00161057 0.01440980
v 0.01319769 -0.00161057 0.01441401
f 4 1 3
f 3 9 10
f 3 15 16
f 14 15 3
f 25 24 22
f 3 1 2
f 2 6 3
f 8 9 3
f 3 6 8
f 11 12 3
f 3 10 11
f 18 19 3
f 3 12 13
f 13 14 3
f 3 16 17
f 17 18 3
f 20 21 5
f 5 1 20
f 1 4 20
f 3 7 20
f 20 4 3
f 3 19 23
f 23 7 3
f 19 24 23
f 23 24 25
f 21 20 23
f 23 20 7
f 5 21 22
f 21 23 22
f 22 23 25
f 17 1 5
f 9 8 17
f 19 18 17
f 5 22 17
f 12 11 17
f 17 24 19
f 17 2 1
f 17 10 9
f 17 16 15
f 15 14 17
f 17 22 24
f 6 2 17
f 17 8 6
f 17 11 10
f 17 13 12
f 14 13 17

