# https://github.com/mikedh/trimesh
v -0.00254755 0.00514991 -0.01592896
v -0.00254034 0.00533016 -0.01440210
v -0.00254112 0.00532353 -0.01592896
v -0.00252512 0.00498390 -0.01592896
v -0.00254502 0.00513489 -0.01440210
v -0.00251556 0.00545871 -0.01440210
v -0.00250600 0.00548739 -0.01592896
v -0.00247284 0.00481790 -0.01592896
v -0.00251556 0.00494138 -0.01440210
v -0.00247284 0.00558219 -0.01440210
v -0.00243909 0.00565515 -0.01592896
v -0.00239247 0.00466340 -0.01592896
v -0.00247284 0.00481790 -0.01440210
v -0.00239247 0.00573649 -0.01440210
v -0.00234643 0.00580262 -0.01592896
v -0.00228148 0.00452080 -0.01592896
v -0.00239247 0.00466340 -0.01440210
v -0.00227016 0.00588943 -0.01440210
v -0.00222920 0.00593137 -0.01592896
v -0.00215273 0.00440357 -0.01592896
v -0.00223954 0.00447984 -0.01440210
v -0.00208660 0.00604237 -0.01440210
v -0.00203822 0.00606948 -0.01592896
v -0.00200525 0.00431091 -0.01592896
v -0.00208660 0.00435753 -0.01440210
v -0.00187046 0.00614419 -0.01440210
v -0.00185037 0.00615258 -0.01592896
v -0.00183730 0.00424400 -0.01592896
v -0.00187046 0.00425570 -0.01440210
v -0.00168026 0.00619023 -0.01440210
v -0.00166173 0.00619121 -0.01592896
v -0.00167363 0.00420888 -0.01592896
v -0.00168026 0.00420966 -0.01440210
v -0.00148500 0.00619511 -0.01440210
v -0.00143311 0.00619140 -0.01592896
v -0.00149982 0.00420225 -0.01592896
v -0.00148500 0.00420498 -0.01440210
v -0.00122965 0.00614419 -0.01440210
v -0.00126262 0.00615609 -0.01592896
v -0.00133401 0.00422488 -0.01592896
v -0.00122965 0.00425570 -0.01440210
v -0.00109485 0.00608899 -0.01592896
v -0.00101331 0.00604237 -0.01440210
v -0.00116781 0.00427716 -0.01592896
v -0.00101331 0.00435753 -0.01440210
v -0.00094738 0.00599652 -0.01592896
v -0.00082975 0.00588943 -0.01440210
v -0.00101331 0.00435753 -0.01592896
v -0.00087072 0.00446852 -0.01592896
v -0.00086057 0.00447984 -0.01440210
v -0.00081863 0.00587929 -0.01592896
v -0.00070764 0.00573649 -0.01440210
v -0.00075348 0.00459727 -0.01592896
v -0.00070764 0.00466340 -0.01440210
v -0.00068052 0.00568811 -0.01592896
v -0.00060581 0.00552035 -0.01440210
v -0.00066101 0.00474475 -0.01592896
v -0.00060581 0.00487954 -0.01440210
v -0.00059742 0.00550026 -0.01592896
v -0.00055977 0.00533016 -0.01440210
v -0.00059391 0.00491270 -0.01592896
v -0.00055880 0.00507637 -0.01592896
v -0.00055489 0.00513489 -0.01440210
v -0.00055880 0.00531182 -0.01592896
f 51 47 52
f 5 2 1
f 29 28 33
f 17 12 16
f 15 14 18
f 1 2 3
f 22 26 23
f 23 26 27
f 34 38 35
f 9 8 13
f 4 8 9
f 9 5 4
f 4 5 1
f 17 16 21
f 24 29 25
f 28 29 24
f 64 60 63
f 63 62 64
f 58 62 63
f 6 10 7
f 7 3 6
f 6 3 2
f 7 10 11
f 11 10 14
f 11 14 15
f 27 26 30
f 19 18 22
f 22 23 19
f 15 18 19
f 38 43 42
f 20 24 25
f 25 21 20
f 20 21 16
f 33 28 32
f 32 36 33
f 37 36 40
f 40 41 37
f 33 36 37
f 56 60 59
f 60 64 59
f 27 30 31
f 31 30 34
f 34 35 31
f 39 35 38
f 38 42 39
f 46 42 43
f 46 43 47
f 46 47 51
f 44 41 40
f 45 48 49
f 49 50 45
f 45 44 48
f 41 44 45
f 55 52 56
f 56 59 55
f 51 52 55
f 62 58 61
f 58 57 61
f 54 57 58
f 57 54 53
f 53 54 50
f 53 50 49
f 13 8 12
f 13 12 17
f 54 29 33
f 54 58 63
f 54 38 34
f 2 5 54
f 22 18 54
f 47 43 54
f 63 60 54
f 54 52 47
f 54 6 2
f 54 13 17
f 34 30 54
f 54 60 56
f 56 52 54
f 54 43 38
f 54 5 9
f 25 29 54
f 17 21 54
f 54 18 14
f 14 10 54
f 54 26 22
f 9 13 54
f 54 21 25
f 33 37 54
f 54 45 50
f 10 6 54
f 54 30 26
f 54 37 41
f 41 45 54
f 53 11 15
f 28 24 53
f 53 20 16
f 15 19 53
f 53 4 1
f 49 48 53
f 1 3 53
f 12 8 53
f 53 16 12
f 53 32 28
f 53 44 40
f 53 3 7
f 53 23 27
f 62 61 53
f 8 4 53
f 35 39 53
f 40 36 53
f 53 64 62
f 7 11 53
f 53 19 23
f 27 31 53
f 24 20 53
f 36 32 53
f 53 46 51
f 53 59 64
f 51 55 53
f 53 31 35
f 53 39 42
f 42 46 53
f 48 44 53
f 53 55 59
f 53 61 57

