# https://github.com/mikedh/trimesh
v -0.01972907 -0.01142300 0.01523895
v -0.01993155 -0.01142300 0.01574373
v -0.01975298 -0.01142697 0.01567788
v -0.01972907 -0.01164923 0.01543052
v -0.01972907 -0.01170162 0.01524875
v -0.02074644 -0.01145003 0.01523895
v -0.02044984 -0.01142300 0.01523895
v -0.01996412 -0.01152492 0.01570547
v -0.01984291 -0.01144942 0.01570367
v -0.02026480 -0.01142440 0.01579102
v -0.02014000 -0.01142552 0.01578014
v -0.02000963 -0.01144438 0.01575363
v -0.01978056 -0.01153382 0.01561638
v -0.01973983 -0.01159841 0.01552147
v -0.01992259 -0.01159668 0.01564190
v -0.01972907 -0.01168629 0.01533245
v -0.01986273 -0.01170034 0.01548789
v -0.01983923 -0.01174097 0.01538029
v -0.01981961 -0.01175552 0.01527330
v -0.01996282 -0.01183091 0.01527498
v -0.02009439 -0.01188554 0.01527330
v -0.02024836 -0.01193496 0.01527498
v -0.02070730 -0.01199474 0.01526148
v -0.02072313 -0.01197851 0.01535537
v -0.02072313 -0.01195097 0.01543319
v -0.02072313 -0.01180203 0.01564332
v -0.02072313 -0.01171679 0.01570792
v -0.02071736 -0.01161632 0.01575788
v -0.02071148 -0.01148233 0.01579364
v -0.02011710 -0.01150018 0.01575374
v -0.02007795 -0.01158420 0.01570547
v -0.02046568 -0.01145227 0.01579494
v -0.02038043 -0.01144225 0.01579347
v -0.02035563 -0.01153500 0.01577165
v -0.02023253 -0.01153455 0.01575766
v -0.01989530 -0.01164408 0.01558558
v -0.02004300 -0.01165936 0.01564190
v -0.02001013 -0.01172961 0.01555385
v -0.01998434 -0.01178502 0.01545360
v -0.01997248 -0.01181032 0.01538029
v -0.02011600 -0.01185470 0.01541697
v -0.02025792 -0.01189948 0.01541697
v -0.02040094 -0.01194549 0.01538029
v -0.02039696 -0.01196788 0.01527498
v -0.02053818 -0.01198657 0.01527330
v -0.02054984 -0.01196508 0.01538029
v -0.02055223 -0.01193726 0.01545360
v -0.02071736 -0.01189730 0.01553208
v -0.02055761 -0.01187631 0.01555385
v -0.02056438 -0.01179901 0.01564190
v -0.02057165 -0.01171640 0.01570547
v -0.02057962 -0.01162421 0.01575374
v -0.02058898 -0.01151255 0.01578683
v -0.02033063 -0.01162824 0.01573165
v -0.02019657 -0.01163334 0.01570547
v -0.02046677 -0.01157199 0.01576664
v -0.02016829 -0.01171114 0.01564190
v -0.02014170 -0.01178407 0.01555385
v -0.02027734 -0.01182688 0.01555385
v -0.02040572 -0.01191795 0.01545360
v -0.02041638 -0.01185772 0.01555385
v -0.02042992 -0.01178127 0.01564190
v -0.02044427 -0.01169972 0.01570547
v -0.02030533 -0.01172256 0.01566667
f 6 1 5
f 5 23 6
f 29 10 6
f 32 10 29
f 23 5 22
f 7 1 6
f 6 10 7
f 3 4 1
f 6 23 24
f 6 26 27
f 17 4 14
f 4 3 14
f 2 3 1
f 1 7 2
f 2 7 10
f 25 26 6
f 6 24 25
f 45 24 23
f 28 29 6
f 6 27 28
f 5 16 19
f 19 20 5
f 21 22 5
f 5 20 21
f 40 21 20
f 26 25 48
f 22 42 43
f 52 28 27
f 18 16 4
f 18 4 17
f 18 19 16
f 20 19 18
f 18 40 20
f 21 40 41
f 41 42 22
f 22 21 41
f 13 14 3
f 3 15 13
f 8 2 12
f 22 43 44
f 23 22 44
f 44 45 23
f 24 45 46
f 46 25 24
f 45 44 46
f 46 44 43
f 51 52 27
f 63 52 51
f 51 27 26
f 42 41 59
f 59 41 58
f 59 58 57
f 57 62 59
f 59 62 61
f 39 18 17
f 40 18 39
f 39 41 40
f 17 38 39
f 58 41 39
f 39 38 58
f 14 13 36
f 36 13 15
f 17 14 36
f 36 38 17
f 9 15 3
f 9 8 15
f 3 2 9
f 2 8 9
f 37 36 15
f 38 36 37
f 57 58 37
f 58 38 37
f 57 37 55
f 47 48 25
f 25 46 47
f 47 46 43
f 32 29 53
f 29 28 53
f 28 52 53
f 52 56 53
f 34 53 56
f 63 51 50
f 50 62 63
f 50 51 26
f 61 62 50
f 42 59 60
f 60 59 61
f 61 47 60
f 60 43 42
f 60 47 43
f 15 8 31
f 31 37 15
f 31 55 37
f 63 62 64
f 64 55 63
f 64 62 57
f 57 55 64
f 33 10 32
f 33 34 10
f 32 53 33
f 53 34 33
f 10 34 11
f 11 2 10
f 12 2 11
f 63 55 54
f 54 34 56
f 54 52 63
f 54 56 52
f 61 50 49
f 48 47 49
f 49 47 61
f 26 48 49
f 49 50 26
f 12 11 30
f 30 54 55
f 55 31 30
f 30 8 12
f 30 31 8
f 35 11 34
f 35 30 11
f 34 54 35
f 54 30 35
f 1 4 16
f 16 5 1

