# https://github.com/mikedh/trimesh
v -0.02183521 -0.00061021 0.00497111
v -0.02183521 0.00700938 0.00497111
v -0.02144199 -0.00061021 0.00497111
v -0.02183521 -0.00061021 0.01698234
v -0.02144199 0.00700938 0.00497111
v -0.02183521 0.00700938 0.01589908
v -0.02144199 -0.00061021 0.01694231
v -0.02144199 -0.00060946 0.01700000
v -0.02183521 -0.00060946 0.01700000
v -0.02144199 0.00700938 0.01589908
v -0.02183521 0.00699969 0.01700000
v -0.02144199 0.00699969 0.01700000
f 8 9 4
f 8 4 7
f 5 3 1
f 1 2 5
f 1 3 7
f 7 4 1
f 1 4 6
f 6 2 1
f 6 4 9
f 9 11 6
f 12 11 9
f 12 9 8
f 3 5 10
f 10 7 3
f 8 7 10
f 10 12 8
f 10 5 2
f 2 6 10
f 10 6 11
f 11 12 10

