# https://github.com/mikedh/trimesh
v -0.02094479 0.00700969 -0.01590000
v -0.02094479 0.00986736 -0.01590000
v -0.01980975 0.00700969 -0.01590000
v -0.02094479 0.00700969 0.01590000
v -0.01980975 0.00968271 -0.01590000
v -0.02094479 0.01010689 -0.01439965
v -0.01980975 0.01010689 -0.01439965
v -0.01980975 0.00700969 0.01590000
v -0.02094479 0.00840017 0.01590000
v -0.02094479 0.01010689 0.01429693
v -0.01980975 0.01010689 0.01488835
v -0.01980975 0.00861059 0.01590000
v -0.02044993 0.00999986 0.01579728
v -0.02094479 0.00904993 0.01579417
v -0.01980975 0.00999986 0.01579728
f 7 2 6
f 2 7 5
f 11 10 13
f 13 15 11
f 10 14 13
f 13 12 15
f 12 13 9
f 9 13 14
f 8 4 1
f 1 3 8
f 11 7 10
f 10 7 6
f 1 2 5
f 5 3 1
f 12 8 3
f 3 5 12
f 12 7 11
f 12 5 7
f 11 15 12
f 4 8 9
f 8 12 9
f 9 2 1
f 1 4 9
f 6 2 9
f 9 10 6
f 9 14 10

