# https://github.com/mikedh/trimesh
v -0.01972897 -0.01239979 -0.01181726
v -0.01972897 -0.01020754 -0.01181726
v -0.01871067 -0.01239979 -0.01181726
v -0.01972897 -0.01239979 0.01439751
v -0.01871067 -0.01020754 -0.01181726
v -0.01972897 -0.01020754 0.01441805
v -0.01871067 -0.01239979 0.01439751
v -0.01972897 -0.01170438 0.01441805
v -0.01871067 -0.01020754 0.01437696
v -0.01896430 -0.01020754 0.01441805
v -0.01871067 -0.01022428 0.01439751
v -0.01895004 -0.01025004 0.01441805
v -0.01895672 -0.01040264 0.01441805
v -0.01895712 -0.01040607 0.01441805
v -0.01897666 -0.01055396 0.01441805
v -0.01897736 -0.01055739 0.01441805
v -0.01900966 -0.01070312 0.01441805
v -0.01905562 -0.01084864 0.01441805
v -0.01905692 -0.01085186 0.01441805
v -0.01911404 -0.01098966 0.01441805
v -0.01918453 -0.01112509 0.01441805
v -0.01918632 -0.01112809 0.01441805
v -0.01926648 -0.01125387 0.01441805
v -0.01926857 -0.01125666 0.01441805
v -0.01935940 -0.01137471 0.01441805
v -0.01936169 -0.01137728 0.01441805
v -0.01946248 -0.01148739 0.01441805
v -0.01957504 -0.01159041 0.01441805
v -0.01957783 -0.01159256 0.01441805
v -0.01969617 -0.01168335 0.01441805
v -0.01969906 -0.01168528 0.01441805
v -0.01871257 -0.01020754 0.01439751
v -0.01895184 -0.01020840 0.01441805
f 4 7 8
f 32 11 9
f 33 11 32
f 32 10 33
f 27 28 7
f 7 20 21
f 21 22 7
f 7 22 23
f 12 13 7
f 7 11 12
f 12 11 33
f 15 16 7
f 19 20 7
f 7 18 19
f 7 16 17
f 17 18 7
f 31 8 7
f 7 30 31
f 7 28 29
f 29 30 7
f 7 25 26
f 26 27 7
f 24 25 7
f 7 23 24
f 7 13 14
f 14 15 7
f 1 2 5
f 5 3 1
f 1 3 7
f 7 4 1
f 8 2 1
f 8 6 2
f 1 4 8
f 3 5 11
f 5 9 11
f 11 7 3
f 32 5 2
f 2 6 32
f 32 9 5
f 6 10 32
f 6 8 14
f 14 10 6
f 33 10 14
f 14 29 28
f 16 15 14
f 14 26 25
f 14 17 16
f 14 21 20
f 14 12 33
f 20 19 14
f 8 31 14
f 28 27 14
f 22 21 14
f 14 23 22
f 13 12 14
f 25 24 14
f 14 19 18
f 18 17 14
f 14 31 30
f 30 29 14
f 27 26 14
f 14 24 23

