# https://github.com/mikedh/trimesh
v -0.02068243 -0.00960507 -0.01590000
v -0.02046598 -0.00951911 -0.01590000
v -0.02046598 -0.00960507 -0.01439826
v -0.02094616 -0.00960507 0.01464368
v -0.02094616 -0.00960486 -0.01587518
v -0.02094616 -0.00850887 -0.01590000
v -0.02046598 -0.00850887 -0.01590000
v -0.02046598 -0.00960507 0.01464368
v -0.02070006 -0.00905016 0.01579791
v -0.02094616 -0.00905016 0.01579481
v -0.02094616 -0.00850887 0.01439856
v -0.02046598 -0.00850887 0.01439856
v -0.02046598 -0.00904136 0.01579171
v -0.02058852 -0.00897525 0.01578240
v -0.02070006 -0.00897031 0.01578240
v -0.02081150 -0.00897525 0.01578240
v -0.02093855 -0.00894177 0.01576999
v -0.02094616 -0.00884100 0.01572655
v -0.02094616 -0.00852046 0.01523011
v -0.02085987 -0.00850887 0.01522390
v -0.02054072 -0.00850887 0.01522390
v -0.02046598 -0.00851842 0.01521769
v -0.02046598 -0.00886665 0.01574206
v -0.02046786 -0.00894209 0.01576999
v -0.02058194 -0.00890002 0.01576378
v -0.02070006 -0.00889487 0.01576378
v -0.02081803 -0.00890002 0.01576378
v -0.02082226 -0.00885195 0.01574206
v -0.02082823 -0.00878370 0.01570173
v -0.02094616 -0.00877908 0.01568932
v -0.02094616 -0.00852829 0.01530147
v -0.02085169 -0.00851595 0.01530147
v -0.02070006 -0.00850887 0.01530147
v -0.02062701 -0.00850887 0.01527665
v -0.02054833 -0.00851595 0.01530147
v -0.02046598 -0.00852507 0.01528906
v -0.02057771 -0.00885195 0.01574206
v -0.02046598 -0.00881332 0.01571414
v -0.02070006 -0.00884658 0.01574206
v -0.02070006 -0.00877801 0.01570173
v -0.02083547 -0.00870107 0.01563967
v -0.02094616 -0.00871566 0.01563967
v -0.02094616 -0.00854911 0.01538214
v -0.02085000 -0.00853505 0.01537904
v -0.02070006 -0.00852840 0.01537904
v -0.02054998 -0.00853505 0.01537904
v -0.02046598 -0.00854611 0.01537904
v -0.02057174 -0.00878370 0.01570173
v -0.02046598 -0.00875225 0.01567070
v -0.02056455 -0.00870107 0.01563967
v -0.02070006 -0.00869516 0.01563967
v -0.02070006 -0.00862455 0.01556210
v -0.02084163 -0.00863078 0.01556210
v -0.02094616 -0.00866061 0.01558382
v -0.02094616 -0.00857583 0.01545350
v -0.02084652 -0.00857487 0.01547523
v -0.02070006 -0.00856843 0.01547523
v -0.02055345 -0.00857487 0.01547523
v -0.02046598 -0.00858152 0.01546592
v -0.02046598 -0.00869463 0.01562416
v -0.02055834 -0.00863078 0.01556210
v -0.02094616 -0.00861854 0.01552797
v -0.02046598 -0.00862165 0.01553418
v -0.02046598 -0.00865363 0.01557762
f 8 9 4
f 1 5 6
f 4 5 1
f 9 8 13
f 4 9 10
f 3 1 2
f 21 22 12
f 20 11 19
f 16 10 9
f 9 13 14
f 33 20 32
f 32 20 19
f 15 16 9
f 9 14 15
f 51 50 52
f 17 18 10
f 10 16 17
f 40 50 51
f 31 32 19
f 33 32 44
f 32 31 44
f 13 23 24
f 24 14 13
f 61 50 60
f 61 52 50
f 27 17 16
f 27 15 26
f 16 15 27
f 18 17 27
f 54 42 41
f 41 53 54
f 41 40 51
f 51 52 41
f 52 53 41
f 33 46 35
f 45 46 33
f 33 44 45
f 55 44 43
f 43 44 31
f 14 24 25
f 26 15 25
f 25 15 14
f 25 24 23
f 60 50 49
f 50 40 48
f 38 49 48
f 48 49 50
f 54 53 62
f 64 61 60
f 63 61 64
f 18 27 28
f 30 41 42
f 33 35 34
f 34 35 21
f 47 35 46
f 47 46 59
f 58 63 59
f 59 46 58
f 58 61 63
f 46 45 58
f 58 45 57
f 52 61 58
f 58 57 52
f 23 38 37
f 37 25 23
f 38 48 37
f 37 48 40
f 55 62 56
f 56 44 55
f 56 62 53
f 56 45 44
f 57 45 56
f 56 53 52
f 52 57 56
f 40 41 29
f 41 30 29
f 29 28 40
f 29 30 18
f 18 28 29
f 35 47 36
f 22 21 36
f 21 35 36
f 26 25 39
f 25 37 39
f 39 27 26
f 39 28 27
f 40 28 39
f 39 37 40
f 1 7 2
f 6 7 1
f 3 8 4
f 4 1 3
f 6 5 30
f 30 5 4
f 4 10 30
f 30 11 6
f 19 11 30
f 30 42 54
f 55 43 30
f 10 18 30
f 54 62 30
f 30 31 19
f 30 43 31
f 30 62 55
f 12 7 34
f 34 7 6
f 6 11 34
f 34 21 12
f 11 20 34
f 34 20 33
f 2 7 36
f 36 3 2
f 36 7 12
f 36 13 8
f 8 3 36
f 12 22 36
f 36 64 60
f 60 49 36
f 36 23 13
f 36 38 23
f 59 63 36
f 36 49 38
f 63 64 36
f 36 47 59

