# https://github.com/mikedh/trimesh
v -0.02094628 -0.00960507 -0.01585228
v -0.02164021 -0.00960507 -0.01572701
v -0.02164021 -0.00960496 -0.01574193
v -0.02094628 -0.00960464 -0.01590000
v -0.02094628 -0.00960507 0.01456964
v -0.02164021 -0.00960507 0.01456964
v -0.02164021 -0.00960239 -0.01590000
v -0.02094628 -0.00850876 -0.01590000
v -0.02094628 -0.00851907 0.01456964
v -0.02164021 -0.00877610 0.01456964
v -0.02164021 -0.00850876 -0.01590000
v -0.02094628 -0.00850876 0.01439964
v -0.02124274 -0.00850876 0.01439964
v -0.02164021 -0.00851037 0.01439964
v -0.02097182 -0.00852239 0.01456964
v -0.02157500 -0.00873446 0.01456964
v -0.02164021 -0.00850876 0.01414314
v -0.02143954 -0.00866406 0.01456964
v -0.02140965 -0.00865161 0.01456964
v -0.02129851 -0.00860557 0.01456964
v -0.02115300 -0.00855963 0.01456964
v -0.02100395 -0.00852669 0.01456964
v -0.02099111 -0.00852497 0.01456964
f 3 1 2
f 4 3 7
f 1 3 4
f 13 17 14
f 13 9 12
f 14 9 13
f 14 20 21
f 14 10 16
f 16 18 14
f 19 20 14
f 14 18 19
f 14 21 22
f 15 9 14
f 14 22 23
f 23 15 14
f 1 5 6
f 2 1 6
f 8 4 11
f 11 4 7
f 9 5 1
f 8 12 9
f 1 4 9
f 9 4 8
f 2 6 10
f 14 17 10
f 10 3 2
f 7 3 10
f 10 11 7
f 10 17 11
f 13 12 8
f 8 11 13
f 11 17 13
f 23 6 5
f 5 9 23
f 23 10 6
f 20 19 23
f 23 16 10
f 23 21 20
f 18 16 23
f 23 19 18
f 23 22 21
f 9 15 23

