# https://github.com/mikedh/trimesh
v 0.01343564 -0.00252057 0.01914352
v 0.01372322 -0.00239463 0.01904591
v 0.01363115 -0.00242509 0.01934302
v 0.01343564 -0.00249440 0.01944503
v 0.01343564 -0.00043209 0.01907111
v 0.01421198 -0.00207282 0.01914352
v 0.01402483 -0.00221409 0.01914352
v 0.01384370 -0.00232675 0.01924112
v 0.01514240 -0.00050018 0.01904964
v 0.01475640 -0.00146274 0.01904591
v 0.01382364 -0.00229220 0.01953191
v 0.01351835 -0.00240362 0.01966532
v 0.01346522 -0.00232450 0.01986821
v 0.01346321 -0.00213743 0.02004681
v 0.01343564 -0.00045029 0.02020000
v 0.01498683 -0.00043537 0.01986177
v 0.01513688 -0.00044845 0.01934675
v 0.01420162 -0.00202743 0.01953191
v 0.01401848 -0.00216809 0.01953191
v 0.01440148 -0.00190128 0.01914352
v 0.01509745 -0.00069625 0.01914352
v 0.01502693 -0.00091992 0.01914352
v 0.01470075 -0.00154084 0.01924112
v 0.01456005 -0.00172832 0.01914352
v 0.01492734 -0.00115565 0.01914352
v 0.01482675 -0.00134374 0.01924112
v 0.01396418 -0.00209061 0.01981308
v 0.01374477 -0.00215562 0.01989804
v 0.01397554 -0.00192255 0.01998299
v 0.01386358 -0.00177677 0.02010398
v 0.01353657 -0.00191641 0.02012601
v 0.01347858 -0.00148727 0.02019684
v 0.01400679 -0.00078436 0.02020000
v 0.01411924 -0.00051244 0.02020000
v 0.01437775 -0.00046787 0.02018328
v 0.01473100 -0.00046910 0.02007969
v 0.01490428 -0.00064452 0.01989804
v 0.01489843 -0.00087330 0.01981308
v 0.01508374 -0.00044375 0.01963809
v 0.01505667 -0.00068521 0.01953191
v 0.01437156 -0.00187143 0.01953191
v 0.01414097 -0.00195505 0.01981308
v 0.01452764 -0.00170133 0.01953191
v 0.01498733 -0.00090560 0.01953191
v 0.01489876 -0.00111885 0.01953191
v 0.01466817 -0.00151814 0.01953191
v 0.01479232 -0.00132371 0.01953191
v 0.01426028 -0.00176001 0.01989804
v 0.01442270 -0.00147562 0.01998299
v 0.01415149 -0.00151303 0.02010398
v 0.01386943 -0.00149422 0.02017131
v 0.01366390 -0.00166167 0.02017131
v 0.01370200 -0.00131185 0.02019695
v 0.01429520 -0.00074388 0.02018272
v 0.01391154 -0.00108307 0.02019695
v 0.01456908 -0.00085735 0.02010398
v 0.01473902 -0.00092769 0.01998299
v 0.01481321 -0.00107898 0.01981308
v 0.01445512 -0.00164061 0.01981308
v 0.01459080 -0.00146417 0.01981308
v 0.01465563 -0.00124479 0.01989804
v 0.01438878 -0.00120370 0.02010398
v 0.01410822 -0.00123416 0.02017131
v 0.01418458 -0.00097266 0.02018272
f 1 5 2
f 2 5 9
f 4 14 15
f 14 28 29
f 14 4 13
f 13 28 14
f 38 39 16
f 16 35 36
f 15 35 16
f 5 15 16
f 9 5 17
f 5 16 17
f 17 16 39
f 61 57 49
f 49 57 62
f 10 2 9
f 40 39 38
f 40 17 39
f 15 33 34
f 34 35 15
f 34 33 54
f 54 35 34
f 54 33 55
f 15 14 32
f 32 33 15
f 14 29 30
f 28 13 27
f 27 29 28
f 37 57 38
f 38 16 37
f 36 57 37
f 37 16 36
f 38 57 58
f 57 61 58
f 49 59 60
f 60 61 49
f 60 58 61
f 47 58 60
f 60 46 47
f 56 57 36
f 56 62 57
f 36 35 56
f 56 35 54
f 63 56 54
f 62 56 63
f 26 10 25
f 47 46 26
f 44 40 38
f 38 58 44
f 9 17 21
f 17 40 21
f 40 44 21
f 52 30 51
f 51 63 53
f 53 63 55
f 53 52 51
f 32 52 53
f 53 55 33
f 33 32 53
f 11 8 19
f 19 27 11
f 2 10 6
f 29 27 42
f 42 41 59
f 42 27 19
f 54 55 64
f 64 63 54
f 55 63 64
f 62 63 50
f 49 62 50
f 51 30 50
f 50 63 51
f 50 29 49
f 50 30 29
f 24 10 23
f 10 26 23
f 23 26 46
f 45 26 25
f 47 26 45
f 45 58 47
f 45 44 58
f 22 21 44
f 22 45 25
f 44 45 22
f 9 21 22
f 22 10 9
f 25 10 22
f 14 30 31
f 30 52 31
f 31 32 14
f 31 52 32
f 59 41 43
f 43 60 59
f 46 60 43
f 43 23 46
f 24 23 43
f 3 11 4
f 8 11 3
f 3 4 1
f 1 2 3
f 2 8 3
f 12 27 13
f 12 11 27
f 12 13 4
f 4 11 12
f 7 8 2
f 2 6 7
f 19 8 7
f 7 6 19
f 20 10 24
f 20 6 10
f 24 43 20
f 20 43 41
f 19 6 18
f 18 42 19
f 41 42 18
f 18 20 41
f 6 20 18
f 49 29 48
f 29 42 48
f 48 59 49
f 48 42 59
f 4 15 5
f 4 5 1

