# https://github.com/mikedh/trimesh
v 0.01467243 0.00137481 -0.01440723
v 0.01452380 0.00137530 -0.01440723
v 0.01516316 0.00137481 -0.01440723
v 0.01452380 0.00137481 -0.01433955
v 0.01452380 0.00221077 -0.01440723
v 0.01554205 0.00137481 -0.01439877
v 0.01509807 0.00150001 -0.01440723
v 0.01554205 0.00301872 -0.01439877
v 0.01452380 0.00137481 0.01439727
v 0.01462139 0.00212146 -0.01440723
v 0.01452380 0.00301872 -0.01439877
v 0.01554205 0.00137481 0.01439727
v 0.01495752 0.00172078 -0.01440723
v 0.01479823 0.00192852 -0.01440723
v 0.01554205 0.00301872 0.01439727
v 0.01452380 0.00141697 0.01440009
v 0.01452380 0.00301872 0.01439727
f 3 8 6
f 16 15 17
f 5 11 8
f 8 10 5
f 16 9 12
f 12 15 16
f 8 3 7
f 7 13 8
f 14 10 8
f 8 13 14
f 1 4 2
f 17 15 8
f 8 11 17
f 8 15 12
f 6 8 12
f 4 5 2
f 16 17 4
f 4 9 16
f 4 17 11
f 11 5 4
f 2 5 1
f 10 14 1
f 1 7 3
f 1 5 10
f 13 7 1
f 1 14 13
f 6 12 1
f 1 3 6
f 1 12 9
f 9 4 1

