# https://github.com/mikedh/trimesh
v -0.01972907 -0.01199614 0.00446726
v -0.02074654 -0.01199614 0.00446726
v -0.01972907 -0.01240000 0.00446726
v -0.01972907 -0.01199614 -0.00703625
v -0.02074654 -0.01215012 0.00446726
v -0.02074654 -0.01199614 -0.00703625
v -0.02069992 -0.01240000 0.00446726
v -0.01972907 -0.01240000 -0.00703625
v -0.02074564 -0.01239798 0.00446726
v -0.02074654 -0.01239795 -0.00669394
v -0.02074654 -0.01223907 -0.00703625
v -0.02073050 -0.01239866 0.00446726
v -0.02069992 -0.01240000 -0.00703625
v -0.02074454 -0.01239802 -0.00703625
f 13 10 14
f 5 10 9
f 14 10 11
f 9 10 12
f 12 13 7
f 10 13 12
f 2 1 6
f 1 4 6
f 1 3 8
f 8 4 1
f 13 8 3
f 3 7 13
f 11 6 4
f 4 8 11
f 11 13 14
f 8 13 11
f 2 6 11
f 11 5 2
f 10 5 11
f 12 3 1
f 12 1 2
f 12 7 3
f 2 5 12
f 12 5 9

