# https://github.com/mikedh/trimesh
v -0.01980975 0.00700991 -0.01590000
v -0.01980975 0.01229025 -0.01590000
v -0.01766047 0.00700991 -0.01590000
v -0.01980975 0.00700991 0.01590000
v -0.01980975 0.01240000 -0.01439965
v -0.01766047 0.01240000 -0.01439965
v -0.01766047 0.01231663 -0.01471092
v -0.01766047 0.01199792 -0.01590000
v -0.01766047 0.00700991 0.01590000
v -0.01980975 0.00861084 0.01590000
v -0.01980975 0.01240000 0.01439965
v -0.01766047 0.01240000 0.01439965
v -0.01766047 0.01200003 0.01590000
v -0.01980975 0.01105604 0.01579728
v -0.01870019 0.01199792 0.01590000
v -0.01980975 0.01166022 0.01549845
v -0.01980975 0.01112516 0.01579105
v -0.01980975 0.01162697 0.01554203
v -0.01980975 0.01158951 0.01558561
v -0.01980975 0.01154730 0.01562296
v -0.01980975 0.01150033 0.01565720
v -0.01980975 0.01144809 0.01569144
v -0.01980975 0.01139269 0.01571946
v -0.01980975 0.01134414 0.01573814
v -0.01980975 0.01131090 0.01575059
v -0.01980975 0.01127027 0.01576304
v -0.01980975 0.01124547 0.01576926
v -0.01980975 0.01120273 0.01577860
f 12 11 13
f 2 7 8
f 6 2 5
f 6 7 2
f 15 13 11
f 14 10 15
f 16 15 11
f 16 18 15
f 17 14 15
f 15 22 23
f 28 17 15
f 26 15 25
f 15 18 19
f 19 20 15
f 21 22 15
f 15 20 21
f 27 15 26
f 27 28 15
f 15 23 24
f 24 25 15
f 9 4 1
f 1 3 9
f 1 2 8
f 8 3 1
f 6 9 3
f 12 13 6
f 3 8 6
f 6 13 9
f 6 8 7
f 5 11 6
f 6 11 12
f 4 9 10
f 9 13 10
f 13 15 10
f 24 2 1
f 1 4 24
f 5 2 24
f 24 11 5
f 4 10 24
f 26 25 24
f 24 16 11
f 10 14 24
f 18 16 24
f 22 21 24
f 14 17 24
f 24 23 22
f 24 19 18
f 17 28 24
f 24 27 26
f 20 19 24
f 24 21 20
f 28 27 24

