# https://github.com/mikedh/trimesh
v 0.01158124 -0.00218845 -0.01440723
v 0.01158124 -0.00101729 -0.01440723
v 0.01221581 -0.00218845 -0.01440723
v 0.01158124 -0.00218845 0.01440980
v 0.01177442 -0.00101729 -0.01440723
v 0.01158124 -0.00101729 0.01440980
v 0.01221581 -0.00121619 -0.01440723
v 0.01221581 -0.00218845 0.01440980
v 0.01221581 -0.00101729 -0.01439877
v 0.01221581 -0.00101729 0.01440980
f 9 7 5
f 8 4 1
f 1 3 8
f 1 4 6
f 6 2 1
f 4 8 6
f 6 8 10
f 7 8 3
f 10 8 7
f 7 9 10
f 10 9 5
f 2 6 5
f 5 6 10
f 5 3 1
f 1 2 5
f 5 7 3

