# https://github.com/mikedh/trimesh
v -0.00573455 0.00700991 0.00196572
v -0.00573455 0.01240000 0.00196572
v -0.00343725 0.00700991 0.00196572
v -0.00573455 0.00700991 0.01457293
v -0.00343725 0.01240000 0.00196572
v -0.00573455 0.01240000 0.01439892
v -0.00343725 0.00700991 0.01457293
v -0.00573455 0.01235357 0.01457293
v -0.00343725 0.01240000 0.01439892
v -0.00343725 0.01235357 0.01457293
f 1 2 5
f 5 3 1
f 1 3 7
f 7 4 1
f 4 7 8
f 8 7 10
f 3 5 9
f 9 7 3
f 10 7 9
f 6 2 1
f 1 4 6
f 4 8 6
f 6 5 2
f 6 9 5
f 6 8 10
f 10 9 6

