# https://github.com/mikedh/trimesh
v 0.00543135 0.01033384 0.01590000
v 0.00543135 0.01033384 0.01440980
v 0.00494468 0.01033384 0.01590000
v 0.00543135 0.00842685 0.01590000
v 0.00494468 0.01033384 0.01440980
v 0.00543135 0.00789472 0.01440980
v 0.00441389 0.00953162 0.01590000
v 0.00441389 0.00745371 0.01590000
v 0.00441389 0.00729201 0.01548238
v 0.00464108 0.00729201 0.01486943
v 0.00481131 0.00729201 0.01440980
v 0.00441389 0.00953162 0.01440980
v 0.00441389 0.00729201 0.01440980
f 4 8 9
f 6 4 11
f 10 4 9
f 10 11 4
f 7 8 4
f 4 3 7
f 1 3 4
f 4 2 1
f 4 6 2
f 7 12 13
f 13 8 7
f 9 8 13
f 5 3 1
f 1 2 5
f 5 12 7
f 7 3 5
f 2 6 11
f 11 13 12
f 11 5 2
f 12 5 11
f 9 13 10
f 13 11 10

