# https://github.com/mikedh/trimesh
v -0.01739996 0.00700938 -0.01592699
v -0.01739996 0.00919988 -0.01592699
v -0.01640804 0.00700938 -0.01592699
v -0.01766047 0.00700938 -0.01589980
v -0.01640804 0.00919988 -0.01592699
v -0.01766047 0.00979142 -0.01589980
v -0.01640804 0.00700938 0.00721690
v -0.01766047 0.00700938 0.00721690
v -0.01640804 0.00979142 -0.01589980
v -0.01766047 0.00979142 0.00721690
v -0.01640804 0.00979142 0.00721690
f 3 7 8
f 4 1 8
f 8 1 3
f 11 7 3
f 3 5 11
f 11 5 9
f 2 1 4
f 4 6 2
f 9 5 2
f 6 9 2
f 3 1 2
f 2 5 3
f 4 8 10
f 10 6 4
f 10 11 9
f 10 9 6
f 10 8 7
f 7 11 10

