# https://github.com/mikedh/trimesh
v 0.01151170 -0.00161059 0.01613282
v 0.01072122 -0.00161059 0.01613282
v 0.01151170 -0.00162791 0.01613282
v 0.01151170 -0.00161059 0.01440980
v 0.01072122 -0.00186256 0.01613282
v 0.01072122 -0.00161059 0.01470006
v 0.01151054 -0.00186256 0.01613282
v 0.01151170 -0.00186256 0.01602167
v 0.01151170 -0.00186256 0.01440980
v 0.01072369 -0.00161059 0.01440980
v 0.01072122 -0.00186256 0.01470006
v 0.01098866 -0.00186256 0.01440980
v 0.01079837 -0.00169202 0.01440980
v 0.01080301 -0.00169707 0.01440980
v 0.01095732 -0.00183848 0.01440980
f 3 7 8
f 11 6 10
f 12 11 15
f 11 14 15
f 13 11 10
f 13 14 11
f 1 4 6
f 2 1 6
f 4 10 6
f 3 1 2
f 2 5 3
f 5 7 3
f 11 5 2
f 2 6 11
f 9 7 5
f 8 7 9
f 5 11 9
f 9 11 12
f 9 4 1
f 1 3 9
f 9 3 8
f 13 10 4
f 4 9 13
f 13 9 12
f 12 15 13
f 13 15 14

