# https://github.com/mikedh/trimesh
v 0.01798249 -0.00835287 0.01620000
v 0.01823588 -0.00819138 0.01620000
v 0.01799968 -0.00834192 0.01700245
v 0.01798249 -0.00835287 0.01700245
v 0.01798249 -0.00608064 0.01620000
v 0.01892791 -0.00766036 0.01620000
v 0.01870604 -0.00783075 0.01700245
v 0.01823588 -0.00819138 0.01700245
v 0.01798249 -0.00608064 0.01700245
v 0.01869585 -0.00485779 0.01620000
v 0.01957123 -0.00707083 0.01620000
v 0.01892791 -0.00766036 0.01700245
v 0.01869585 -0.00485779 0.01700245
v 0.02123415 -0.00485779 0.01620000
v 0.01957123 -0.00707083 0.01700245
v 0.02016013 -0.00642792 0.01620000
v 0.02123415 -0.00485779 0.01700245
v 0.02115998 -0.00500012 0.01620000
v 0.02016013 -0.00642792 0.01700245
v 0.02069141 -0.00573609 0.01620000
v 0.02115998 -0.00500012 0.01700245
v 0.02100973 -0.00523621 0.01700245
v 0.02069141 -0.00573609 0.01700245
f 1 3 4
f 2 3 1
f 7 2 6
f 6 12 7
f 20 18 22
f 22 23 20
f 3 2 8
f 2 7 8
f 21 22 18
f 4 5 1
f 9 5 4
f 14 10 13
f 13 17 14
f 10 5 13
f 13 5 9
f 12 6 11
f 11 15 12
f 16 10 14
f 16 2 1
f 1 5 16
f 11 6 16
f 14 18 16
f 16 5 10
f 6 2 16
f 16 18 20
f 19 15 11
f 11 16 19
f 19 16 20
f 20 23 19
f 21 4 3
f 17 13 21
f 15 19 21
f 9 4 21
f 21 13 9
f 21 12 15
f 3 8 21
f 21 7 12
f 23 22 21
f 21 19 23
f 21 8 7
f 14 17 21
f 21 18 14

