# https://github.com/mikedh/trimesh
v 0.01343547 -0.00045022 0.02020000
v 0.01295008 -0.00045022 0.02020000
v 0.01343547 -0.00141785 0.02020000
v 0.01343547 -0.00045022 0.01933636
v 0.01295008 -0.00045022 0.01933636
v 0.01281298 -0.00117600 0.01933636
v 0.01281298 -0.00165452 0.02020000
v 0.01334992 -0.00147249 0.02020000
v 0.01343419 -0.00161522 0.02019357
v 0.01343547 -0.00174457 0.02018038
v 0.01343547 -0.00224901 0.01997310
v 0.01342542 -0.00251095 0.01933636
v 0.01281298 -0.00265606 0.01933636
v 0.01294502 -0.00164049 0.02020000
v 0.01281298 -0.00223239 0.02009948
v 0.01281560 -0.00180504 0.02019509
v 0.01321843 -0.00154094 0.02020000
v 0.01328655 -0.00168692 0.02019417
v 0.01333737 -0.00179575 0.02018038
v 0.01340635 -0.00186636 0.02016221
v 0.01342901 -0.00197390 0.02013042
v 0.01343547 -0.00213716 0.02005578
v 0.01331708 -0.00224491 0.02001782
v 0.01334225 -0.00231401 0.01994816
v 0.01339940 -0.00235418 0.01987030
v 0.01340897 -0.00241378 0.01975998
v 0.01341725 -0.00246150 0.01962235
v 0.01342347 -0.00249843 0.01944879
v 0.01329642 -0.00255284 0.01933636
v 0.01296483 -0.00263598 0.01933636
v 0.01281298 -0.00264440 0.01944499
v 0.01308151 -0.00159708 0.02020000
v 0.01298183 -0.00179769 0.02019417
v 0.01313654 -0.00174868 0.02019417
v 0.01281298 -0.00235720 0.02002382
v 0.01289926 -0.00226370 0.02007835
v 0.01286423 -0.00215616 0.02012865
v 0.01283681 -0.00205272 0.02016077
v 0.01282858 -0.00195771 0.02017954
v 0.01317766 -0.00186161 0.02018038
v 0.01321002 -0.00195080 0.02016221
v 0.01324719 -0.00205272 0.02012966
v 0.01328619 -0.00216005 0.02007835
v 0.01311844 -0.00230753 0.02001782
v 0.01309510 -0.00222029 0.02007835
v 0.01313733 -0.00237858 0.01994816
v 0.01315335 -0.00243839 0.01986633
v 0.01316785 -0.00249260 0.01975998
v 0.01318035 -0.00253924 0.01961897
v 0.01318973 -0.00257401 0.01944499
v 0.01319278 -0.00258545 0.01933636
v 0.01296281 -0.00262454 0.01944499
v 0.01295660 -0.00258869 0.01961897
v 0.01281298 -0.00260316 0.01963334
v 0.01301296 -0.00191387 0.02018038
v 0.01281298 -0.00244034 0.01994816
v 0.01291498 -0.00235288 0.02001782
v 0.01306555 -0.00211016 0.02012966
v 0.01303740 -0.00200521 0.02016221
v 0.01292772 -0.00242522 0.01994816
v 0.01293844 -0.00248590 0.01986633
v 0.01294819 -0.00254097 0.01975998
v 0.01281298 -0.00255349 0.01977131
v 0.01281298 -0.00249929 0.01987115
f 2 5 6
f 6 7 2
f 11 12 4
f 11 26 27
f 10 3 9
f 9 18 10
f 10 21 22
f 51 52 30
f 49 52 50
f 50 52 51
f 51 29 50
f 12 11 28
f 11 27 28
f 28 29 12
f 28 50 29
f 28 27 49
f 49 50 28
f 17 34 18
f 32 34 17
f 43 22 21
f 25 26 11
f 25 47 26
f 26 47 48
f 49 27 48
f 48 27 26
f 13 30 31
f 31 30 52
f 53 52 49
f 49 48 53
f 54 31 53
f 53 31 52
f 10 18 19
f 8 17 18
f 8 9 3
f 18 9 8
f 58 38 37
f 36 58 37
f 11 22 23
f 22 43 23
f 14 34 32
f 14 33 34
f 18 34 40
f 40 19 18
f 42 43 21
f 42 58 43
f 15 36 37
f 37 38 15
f 15 38 39
f 43 58 45
f 58 36 45
f 45 23 43
f 36 15 35
f 11 23 24
f 24 25 11
f 47 25 24
f 61 48 47
f 16 14 7
f 33 14 16
f 39 33 16
f 7 15 16
f 16 15 39
f 34 33 55
f 55 40 34
f 55 33 39
f 20 21 10
f 10 19 20
f 47 24 46
f 63 61 64
f 48 61 62
f 62 61 63
f 62 53 48
f 62 63 54
f 54 53 62
f 40 55 41
f 19 40 41
f 41 20 19
f 58 42 41
f 41 42 21
f 21 20 41
f 44 24 23
f 44 46 24
f 23 45 44
f 59 41 55
f 39 38 59
f 59 55 39
f 38 58 59
f 58 41 59
f 57 45 36
f 57 44 45
f 36 35 57
f 57 35 56
f 46 44 57
f 60 57 56
f 46 57 60
f 56 64 60
f 60 64 61
f 60 61 47
f 47 46 60
f 4 5 2
f 1 4 2
f 22 4 1
f 22 11 4
f 1 3 22
f 22 3 10
f 6 5 30
f 30 13 6
f 30 5 4
f 4 12 30
f 12 29 30
f 30 29 51
f 1 2 14
f 14 3 1
f 14 2 7
f 14 8 3
f 32 17 14
f 17 8 14
f 6 13 64
f 64 7 6
f 56 35 64
f 13 31 64
f 64 31 54
f 54 63 64
f 64 15 7
f 64 35 15

