# https://github.com/mikedh/trimesh
v -0.00155005 0.00859984 -0.01442002
v -0.00151977 0.00859798 -0.01592925
v -0.00165028 0.00859440 -0.01592925
v -0.00168017 0.00859035 -0.01442002
v -0.00141973 0.00859035 -0.01442002
v -0.00137655 0.00858459 -0.01592925
v -0.00177259 0.00857385 -0.01592925
v -0.00180873 0.00856575 -0.01442002
v -0.00129137 0.00856575 -0.01442002
v -0.00125600 0.00855470 -0.01592925
v -0.00194413 0.00851718 -0.01592925
v -0.00193221 0.00852278 -0.01442002
v -0.00116789 0.00852278 -0.01442002
v -0.00112764 0.00850612 -0.01592925
v -0.00206096 0.00845864 -0.01592925
v -0.00208656 0.00844245 -0.01442002
v -0.00101334 0.00844245 -0.01442002
v -0.00101334 0.00844245 -0.01592925
v -0.00216334 0.00838843 -0.01592925
v -0.00222469 0.00833643 -0.01442002
v -0.00087521 0.00833643 -0.01442002
v -0.00088010 0.00834094 -0.01592925
v -0.00229073 0.00826980 -0.01592925
v -0.00231574 0.00824255 -0.01442002
v -0.00078417 0.00824255 -0.01442002
v -0.00079315 0.00825252 -0.01592925
v -0.00239233 0.00813669 -0.01592925
v -0.00239233 0.00813669 -0.01442002
v -0.00071520 0.00814758 -0.01592925
v -0.00070758 0.00813669 -0.01442002
v -0.00247536 0.00797602 -0.01592925
v -0.00247282 0.00798225 -0.01442002
v -0.00065014 0.00803425 -0.01592925
v -0.00062728 0.00798225 -0.01442002
v -0.00251854 0.00784571 -0.01592925
v -0.00252518 0.00781613 -0.01442002
v -0.00059953 0.00790674 -0.01592925
v -0.00057491 0.00781613 -0.01442002
v -0.00254120 0.00772397 -0.01592925
v -0.00254804 0.00764379 -0.01442002
v -0.00056534 0.00777379 -0.01592925
v -0.00055225 0.00764426 -0.01442002
v -0.00254765 0.00754992 -0.01592925
v -0.00254023 0.00746974 -0.01442002
v -0.00055245 0.00765049 -0.01592925
v -0.00055968 0.00746974 -0.01442002
v -0.00055889 0.00747643 -0.01592925
v -0.00253456 0.00742661 -0.01592925
v -0.00251561 0.00734146 -0.01442002
v -0.00058429 0.00734146 -0.01442002
v -0.00058136 0.00735438 -0.01592925
v -0.00250057 0.00729335 -0.01592925
v -0.00247282 0.00721784 -0.01442002
v -0.00062728 0.00721784 -0.01442002
v -0.00062728 0.00721784 -0.01592925
v -0.00243296 0.00713284 -0.01592925
v -0.00241577 0.00710015 -0.01442002
v -0.00068413 0.00710015 -0.01442002
v -0.00070562 0.00706683 -0.01592925
v -0.00236243 0.00701810 -0.01592925
v -0.00236243 0.00701810 -0.01442002
v -0.00073747 0.00701826 -0.01442002
v -0.00074411 0.00700938 -0.01555254
v -0.00082930 0.00700938 -0.01442002
f 60 59 63
f 59 62 63
f 32 35 36
f 5 2 1
f 60 61 57
f 42 41 38
f 64 63 62
f 64 61 60
f 60 63 64
f 44 48 49
f 40 36 39
f 39 36 35
f 52 53 49
f 49 48 52
f 28 27 32
f 31 35 32
f 32 27 31
f 20 16 19
f 33 30 34
f 29 30 33
f 22 17 21
f 58 62 59
f 50 54 55
f 55 51 50
f 54 58 55
f 55 58 59
f 50 51 46
f 45 41 42
f 40 39 43
f 43 44 40
f 48 44 43
f 56 57 53
f 53 52 56
f 60 57 56
f 27 28 24
f 15 16 12
f 15 19 16
f 25 30 29
f 37 33 34
f 34 38 37
f 37 38 41
f 13 17 14
f 42 46 47
f 47 45 42
f 47 46 51
f 27 24 23
f 23 24 20
f 20 19 23
f 12 8 11
f 11 15 12
f 26 25 29
f 21 25 26
f 26 22 21
f 17 22 18
f 18 14 17
f 10 9 13
f 13 14 10
f 8 4 7
f 7 11 8
f 6 5 9
f 9 10 6
f 2 5 6
f 3 7 4
f 3 4 1
f 1 2 3
f 25 5 1
f 61 64 25
f 25 16 20
f 1 4 25
f 25 57 61
f 62 58 25
f 40 44 25
f 25 36 40
f 21 17 25
f 25 46 42
f 20 24 25
f 25 8 12
f 12 16 25
f 13 9 25
f 25 17 13
f 49 53 25
f 42 38 25
f 25 4 8
f 32 36 25
f 9 5 25
f 53 57 25
f 25 38 34
f 25 54 50
f 25 64 62
f 25 44 49
f 25 28 32
f 34 30 25
f 25 58 54
f 50 46 25
f 25 24 28
f 3 59 60
f 3 39 35
f 35 31 3
f 27 23 3
f 3 37 41
f 48 43 3
f 60 56 3
f 3 55 59
f 41 45 3
f 3 52 48
f 3 31 27
f 3 47 51
f 29 33 3
f 2 6 3
f 51 55 3
f 3 18 22
f 3 43 39
f 3 56 52
f 19 15 3
f 33 37 3
f 3 26 29
f 45 47 3
f 3 23 19
f 15 11 3
f 22 26 3
f 14 18 3
f 3 10 14
f 11 7 3
f 3 6 10

