# https://github.com/mikedh/trimesh
v -0.01029783 -0.00679727 0.01700000
v -0.01289005 -0.00679755 0.01700000
v -0.01029783 -0.00699999 0.01700000
v -0.01029783 -0.00679694 0.01652390
v -0.01289005 -0.00679605 0.01493495
v -0.01289005 -0.00699999 0.01700000
v -0.01289005 -0.00703674 0.01589007
v -0.01029783 -0.00703674 0.01588715
v -0.01029783 -0.00679689 0.01641291
v -0.01029783 -0.00679593 0.01295167
v -0.01289005 -0.00679593 0.01444716
v -0.01289005 -0.00703674 -0.01283961
v -0.01029783 -0.00703674 -0.01283961
v -0.01029783 -0.00679593 -0.01283961
v -0.01289005 -0.00679593 -0.01283961
f 7 3 6
f 2 1 5
f 8 3 7
f 11 5 10
f 9 10 5
f 4 5 1
f 4 9 5
f 6 3 1
f 6 1 2
f 5 12 7
f 5 6 2
f 5 15 12
f 5 11 15
f 7 6 5
f 7 12 8
f 12 13 8
f 12 15 14
f 14 13 12
f 15 11 10
f 10 14 15
f 1 3 4
f 4 8 13
f 3 8 4
f 13 14 4
f 14 10 4
f 10 9 4

