# https://github.com/mikedh/trimesh
v 0.00191961 -0.00645030 -0.01440000
v 0.00191961 -0.00454178 -0.01440000
v 0.00248045 -0.00645030 -0.01440000
v 0.00191961 -0.00645030 0.01700000
v 0.00248045 -0.00454178 -0.01440000
v 0.00191961 -0.00454178 0.01700000
v 0.00248045 -0.00645030 0.01700000
v 0.00248045 -0.00454178 0.01591809
v 0.00216344 -0.00454178 0.01700000
v 0.00248045 -0.00521320 0.01700000
v 0.00219951 -0.00454178 0.01687706
f 11 10 8
f 11 9 10
f 1 2 5
f 5 3 1
f 1 3 7
f 7 4 1
f 6 2 1
f 1 4 6
f 3 5 10
f 10 7 3
f 10 5 8
f 4 7 9
f 9 6 4
f 7 10 9
f 11 5 2
f 8 5 11
f 2 6 11
f 6 9 11

