# https://github.com/mikedh/trimesh
v 0.00802202 0.00029251 0.01470023
v 0.00802641 0.00018798 0.01613282
v 0.00824843 0.00143356 0.01613282
v 0.00825106 0.00144234 0.01470023
v 0.01017461 0.00043920 0.01440980
v 0.00804396 -0.00058590 0.01470023
v 0.00811241 -0.00097679 0.01613282
v 0.00870913 0.00241474 0.01470023
v 0.00876793 0.00249116 0.01613282
v 0.01062479 0.00147133 0.01440980
v 0.01042295 -0.00109274 0.01440980
v 0.00825106 -0.00144234 0.01470023
v 0.00839585 -0.00181303 0.01613282
v 0.00925847 0.00310253 0.01470023
v 0.00968495 0.00349342 0.01613282
v 0.01008510 0.00379120 0.01470023
v 0.01149969 0.00215034 0.01440980
v 0.01147073 -0.00214331 0.01440980
v 0.00925847 -0.00310253 0.01470023
v 0.00870913 -0.00241474 0.01470023
v 0.00900662 -0.00281441 0.01613282
v 0.01068709 0.00410479 0.01613282
v 0.01105829 0.00424885 0.01470023
v 0.01293884 0.00232514 0.01440980
v 0.01191388 0.00445615 0.01470023
v 0.01280370 -0.00233129 0.01440980
v 0.01191388 -0.00445615 0.01470023
v 0.01105829 -0.00424885 0.01470023
v 0.01008510 -0.00379120 0.01470023
v 0.01000876 -0.00373235 0.01613282
v 0.01152338 0.00438764 0.01613282
v 0.01397082 0.00187452 0.01440980
v 0.01279229 0.00447811 0.01470023
v 0.01394186 0.00424885 0.01470023
v 0.01240003 0.00448690 0.01613282
v 0.01396994 -0.00187540 0.01440980
v 0.01394186 -0.00424885 0.01470023
v 0.01279229 -0.00447811 0.01470023
v 0.01260011 -0.00448690 0.01613282
v 0.01116271 -0.00427256 0.01613282
v 0.01491504 0.00379120 0.01470023
v 0.01574080 0.00310253 0.01470023
v 0.01629101 0.00241474 0.01470023
v 0.01465003 0.00100050 0.01440980
v 0.01383743 0.00427256 0.01613282
v 0.01499139 0.00373235 0.01613282
v 0.01629101 -0.00241474 0.01470023
v 0.01574080 -0.00310253 0.01470023
v 0.01491504 -0.00379120 0.01470023
v 0.01464301 -0.00102949 0.01440980
v 0.01431305 -0.00410479 0.01613282
v 0.01347677 -0.00438764 0.01613282
v 0.01599353 0.00281441 0.01613282
v 0.01660429 0.00181303 0.01613282
v 0.01674908 0.00144234 0.01470023
v 0.01488521 -0.00010629 0.01440980
v 0.01623222 -0.00249116 0.01613282
v 0.01674908 -0.00144234 0.01470023
v 0.01531520 -0.00349342 0.01613282
v 0.01688686 0.00097679 0.01613282
v 0.01697812 0.00029251 0.01470023
v 0.01695618 -0.00058590 0.01470023
v 0.01677278 -0.00133781 0.01613282
v 0.01698690 0.00010014 0.01613282
f 48 59 49
f 59 51 49
f 49 51 37
f 28 40 30
f 13 20 21
f 12 13 7
f 20 13 12
f 57 59 48
f 1 2 3
f 14 9 15
f 64 63 62
f 62 61 64
f 27 38 39
f 39 40 27
f 27 40 28
f 37 51 52
f 39 38 52
f 52 38 37
f 19 30 21
f 21 20 19
f 6 12 7
f 6 7 2
f 6 2 1
f 1 5 6
f 23 22 31
f 45 33 35
f 34 33 45
f 16 14 15
f 15 22 16
f 16 22 23
f 8 3 9
f 9 14 8
f 63 57 58
f 58 62 63
f 64 61 60
f 53 54 43
f 42 53 43
f 42 43 32
f 32 43 44
f 37 38 26
f 38 27 26
f 28 30 29
f 30 19 29
f 25 31 35
f 35 33 25
f 23 31 25
f 46 53 42
f 34 45 46
f 1 3 4
f 3 8 4
f 4 5 1
f 47 57 48
f 47 58 57
f 62 58 56
f 61 62 56
f 54 60 55
f 55 43 54
f 55 60 61
f 44 43 55
f 55 56 44
f 61 56 55
f 24 33 34
f 34 32 24
f 24 25 33
f 18 27 28
f 18 26 27
f 28 29 18
f 18 29 19
f 41 46 42
f 34 46 41
f 42 32 41
f 41 32 34
f 58 47 50
f 50 56 58
f 23 25 17
f 25 24 17
f 17 16 23
f 20 12 11
f 11 19 20
f 11 18 19
f 11 6 5
f 12 6 11
f 36 47 48
f 36 50 47
f 48 49 36
f 36 49 37
f 37 26 36
f 14 16 10
f 16 17 10
f 10 8 14
f 5 4 10
f 10 4 8
f 59 57 46
f 2 7 46
f 46 40 39
f 46 63 64
f 39 52 46
f 46 3 2
f 21 30 46
f 46 45 35
f 46 13 21
f 15 9 46
f 35 31 46
f 46 51 59
f 46 30 40
f 7 13 46
f 46 57 63
f 9 3 46
f 46 22 15
f 46 54 53
f 46 52 51
f 46 31 22
f 64 60 46
f 46 60 54
f 10 32 44
f 44 56 10
f 10 11 5
f 10 36 26
f 10 24 32
f 26 18 10
f 56 50 10
f 10 17 24
f 18 11 10
f 50 36 10

