# https://github.com/mikedh/trimesh
v 0.00191955 -0.00382010 0.01684325
v 0.00191955 -0.00315005 0.01603796
v 0.00165368 -0.00315005 0.01700000
v 0.00187564 -0.00382010 0.01700000
v 0.00191955 -0.00382010 -0.01440000
v 0.00191955 -0.00315005 -0.01440000
v -0.00053186 -0.00315005 0.01700000
v -0.00053186 -0.00382010 0.01700000
v -0.00053186 -0.00382010 -0.01440000
v -0.00053186 -0.00315005 -0.01440000
f 1 2 3
f 1 3 4
f 6 10 7
f 7 3 6
f 6 3 2
f 1 5 6
f 6 2 1
f 9 6 5
f 10 6 9
f 7 10 9
f 9 8 7
f 4 5 1
f 4 9 5
f 8 9 4
f 4 3 7
f 7 8 4

