# https://github.com/mikedh/trimesh
v 0.00248056 -0.01240000 -0.01302000
v 0.00248056 -0.00891143 -0.01302000
v 0.00362684 -0.01239966 -0.01302000
v 0.00362684 -0.01240000 -0.01042630
v 0.00248056 -0.01240000 0.01439906
v 0.00362684 -0.00891143 -0.01302000
v 0.00248056 -0.00891143 0.01440980
v 0.00362684 -0.01240000 0.01439906
v 0.00248056 -0.01239727 0.01440980
v 0.00362684 -0.00891143 0.01440980
v 0.00362684 -0.01239727 0.01440980
f 1 3 4
f 1 2 6
f 6 3 1
f 5 4 8
f 1 4 5
f 10 6 2
f 2 7 10
f 9 2 1
f 9 7 2
f 1 5 9
f 3 6 11
f 11 4 3
f 8 4 11
f 6 10 11
f 11 5 8
f 11 9 5
f 11 10 7
f 7 9 11

