# https://github.com/mikedh/trimesh
v 0.01204969 -0.00111094 0.01980019
v 0.01250010 -0.00163953 0.01980019
v 0.01250010 -0.00111233 0.01927291
v 0.01204969 -0.00111094 0.01927482
v 0.01057583 -0.00111094 0.01980019
v 0.01143709 -0.00233159 0.01979745
v 0.01229835 -0.00255463 0.01979745
v 0.01250010 -0.00257895 0.01976262
v 0.01250010 -0.00268347 0.01927291
v 0.01104753 -0.00111094 0.01927291
v 0.01057583 -0.00111094 0.01927291
v 0.01057583 -0.00171065 0.01976798
v 0.01070374 -0.00182779 0.01979745
v 0.01140431 -0.00235022 0.01973051
v 0.01161774 -0.00242349 0.01976262
v 0.01183231 -0.00249122 0.01976262
v 0.01121763 -0.00222123 0.01979477
v 0.01205195 -0.00253986 0.01976262
v 0.01227367 -0.00258342 0.01973051
v 0.01249991 -0.00261744 0.01966099
v 0.01249991 -0.00264006 0.01957660
v 0.01249991 -0.00266515 0.01944499
v 0.01228422 -0.00267393 0.01927291
v 0.01059598 -0.00188905 0.01927291
v 0.01057583 -0.00181055 0.01955498
v 0.01057583 -0.00177083 0.01966099
v 0.01066644 -0.00183394 0.01973051
v 0.01084238 -0.00197556 0.01976262
v 0.01102096 -0.00211255 0.01976262
v 0.01160456 -0.00245966 0.01966099
v 0.01120350 -0.00224585 0.01973051
v 0.01139395 -0.00237223 0.01966099
v 0.01182232 -0.00252816 0.01966099
v 0.01204517 -0.00257772 0.01966099
v 0.01227160 -0.00260743 0.01966099
v 0.01226953 -0.00263021 0.01957660
v 0.01226746 -0.00265484 0.01944499
v 0.01205195 -0.00264499 0.01927291
v 0.01077532 -0.00205545 0.01927291
v 0.01078719 -0.00204159 0.01944499
v 0.01059580 -0.00186473 0.01943328
v 0.01063328 -0.00186704 0.01957660
v 0.01064948 -0.00185103 0.01966099
v 0.01081770 -0.00200511 0.01966099
v 0.01099892 -0.00214395 0.01966099
v 0.01138434 -0.00239286 0.01957660
v 0.01159683 -0.00248106 0.01957660
v 0.01181648 -0.00255017 0.01957660
v 0.01119145 -0.00226679 0.01966099
v 0.01204122 -0.00259989 0.01957660
v 0.01203688 -0.00262467 0.01944499
v 0.01180518 -0.00259204 0.01927291
v 0.01096106 -0.00219814 0.01927291
v 0.01080320 -0.00202235 0.01957660
v 0.01097161 -0.00218290 0.01944499
v 0.01098593 -0.00216273 0.01957660
v 0.01118014 -0.00228634 0.01957660
v 0.01116771 -0.00230804 0.01944499
v 0.01137379 -0.00241517 0.01944499
v 0.01158817 -0.00250415 0.01944499
v 0.01181008 -0.00257434 0.01944499
v 0.01158195 -0.00252154 0.01927291
v 0.01115848 -0.00232390 0.01927291
v 0.01138284 -0.00243888 0.01927291
f 6 2 5
f 5 2 1
f 2 3 1
f 4 1 3
f 10 4 3
f 9 8 21
f 15 16 6
f 6 16 7
f 7 8 2
f 2 6 7
f 9 21 22
f 22 21 36
f 20 21 8
f 36 21 20
f 48 34 33
f 33 34 16
f 51 52 38
f 51 61 52
f 48 61 51
f 8 7 19
f 19 20 8
f 41 24 40
f 29 17 13
f 5 12 13
f 13 6 5
f 13 17 6
f 29 13 28
f 14 15 6
f 6 17 14
f 9 22 23
f 15 14 30
f 16 15 30
f 30 33 16
f 48 33 30
f 52 61 62
f 62 59 64
f 36 34 50
f 50 51 36
f 50 34 48
f 48 51 50
f 35 34 36
f 35 19 34
f 36 20 35
f 20 19 35
f 16 34 18
f 34 19 18
f 18 7 16
f 18 19 7
f 25 24 41
f 11 24 25
f 27 28 13
f 27 13 12
f 12 26 27
f 27 26 43
f 38 23 37
f 37 51 38
f 36 51 37
f 37 22 36
f 37 23 22
f 46 30 32
f 32 30 14
f 32 49 46
f 46 59 47
f 47 30 46
f 47 61 48
f 48 30 47
f 56 54 40
f 56 49 45
f 45 29 44
f 29 28 44
f 44 56 45
f 54 56 44
f 44 27 43
f 28 27 44
f 42 25 41
f 41 40 42
f 40 54 42
f 42 44 43
f 54 44 42
f 26 25 42
f 43 26 42
f 39 40 24
f 39 53 40
f 64 59 63
f 31 14 17
f 31 17 29
f 31 32 14
f 49 32 31
f 31 29 45
f 45 49 31
f 59 62 60
f 60 47 59
f 60 62 61
f 61 47 60
f 40 53 55
f 55 56 40
f 53 63 58
f 58 55 53
f 58 63 59
f 58 59 46
f 56 55 58
f 49 56 57
f 56 58 57
f 46 49 57
f 57 58 46
f 9 3 8
f 8 3 2
f 5 1 10
f 10 11 5
f 1 4 10
f 5 11 25
f 25 12 5
f 25 26 12
f 63 3 9
f 11 10 63
f 63 10 3
f 9 23 63
f 63 24 11
f 63 62 64
f 38 52 63
f 63 23 38
f 52 62 63
f 63 39 24
f 53 39 63

