# https://github.com/mikedh/trimesh
v -0.02087159 -0.00752748 0.01590000
v -0.02229802 -0.00752748 0.01590000
v -0.02087159 -0.00839993 0.01590000
v -0.02087159 -0.00752748 -0.01590000
v -0.02270000 -0.00752748 0.01439965
v -0.02229802 -0.00839993 0.01590000
v -0.02096126 -0.00850867 0.01439965
v -0.02087159 -0.00850694 0.01439965
v -0.02087159 -0.00850867 -0.01590000
v -0.02229802 -0.00752748 -0.01590000
v -0.02270000 -0.00850867 0.01439965
v -0.02270000 -0.00752748 -0.01439965
v -0.02087159 -0.00850867 0.01400121
v -0.02229802 -0.00850867 -0.01590000
v -0.02270000 -0.00850867 -0.01439965
f 7 13 8
f 8 3 7
f 1 2 3
f 3 2 6
f 5 12 11
f 11 12 15
f 11 2 5
f 6 2 11
f 11 3 6
f 7 3 11
f 8 4 1
f 1 3 8
f 8 9 4
f 13 9 8
f 1 4 10
f 10 12 5
f 5 2 10
f 10 2 1
f 14 11 15
f 14 13 7
f 7 11 14
f 14 9 13
f 15 12 14
f 12 10 14
f 4 9 14
f 14 10 4

