# https://github.com/mikedh/trimesh
v -0.01766047 0.01049273 0.01590000
v -0.01869990 0.01049273 0.01590000
v -0.01766047 0.00992135 0.01590000
v -0.01766047 0.01049273 -0.01590000
v -0.01875951 0.00992135 0.01590000
v -0.01876372 0.01049273 0.01439965
v -0.01766047 0.00992135 -0.01590000
v -0.01876372 0.01049273 -0.01590000
v -0.01876372 0.00992135 0.01439965
v -0.01876372 0.00992135 -0.01590000
f 6 5 2
f 9 5 6
f 7 4 1
f 1 3 7
f 7 8 4
f 10 8 7
f 1 4 2
f 2 8 6
f 4 8 2
f 2 3 1
f 2 5 3
f 9 7 3
f 3 5 9
f 10 7 9
f 6 8 9
f 9 8 10

