# https://github.com/mikedh/trimesh
v -0.02251663 0.01010689 -0.01508433
v -0.02239474 0.01010689 -0.01590000
v -0.02103602 0.01010689 -0.01508433
v -0.02251663 0.01040038 -0.01508433
v -0.02239941 0.01028659 -0.01590000
v -0.02103602 0.01010689 -0.01590000
v -0.02074772 0.01085123 -0.01508433
v -0.02251577 0.01043967 -0.01508433
v -0.02251265 0.01051116 -0.01508433
v -0.02238850 0.01046715 -0.01590000
v -0.02074772 0.01085123 -0.01590000
v -0.02074772 0.01230019 -0.01508433
v -0.02250953 0.01055839 -0.01508433
v -0.02250278 0.01061571 -0.01508433
v -0.02249309 0.01068935 -0.01508433
v -0.02236201 0.01064641 -0.01590000
v -0.02074772 0.01229976 -0.01590000
v -0.02084036 0.01227915 -0.01590000
v -0.02084936 0.01227657 -0.01508433
v -0.02248876 0.01071554 -0.01508433
v -0.02247265 0.01078961 -0.01508433
v -0.02245534 0.01086733 -0.01508433
v -0.02232028 0.01082246 -0.01590000
v -0.02101316 0.01222505 -0.01590000
v -0.02101662 0.01222376 -0.01508433
v -0.02244304 0.01090963 -0.01508433
v -0.02242001 0.01098284 -0.01508433
v -0.02226349 0.01099443 -0.01590000
v -0.02118060 0.01215634 -0.01590000
v -0.02136535 0.01208979 -0.01508433
v -0.02132120 0.01210718 -0.01508433
v -0.02240460 0.01102771 -0.01508433
v -0.02237292 0.01110457 -0.01508433
v -0.02234625 0.01116812 -0.01508433
v -0.02219215 0.01116082 -0.01590000
v -0.02134146 0.01207347 -0.01590000
v -0.02153919 0.01201057 -0.01508433
v -0.02150560 0.01202774 -0.01508433
v -0.02146751 0.01204642 -0.01508433
v -0.02233171 0.01119753 -0.01508433
v -0.02229656 0.01126451 -0.01508433
v -0.02210678 0.01131969 -0.01590000
v -0.02149469 0.01197686 -0.01590000
v -0.02165607 0.01194380 -0.01508433
v -0.02160846 0.01197300 -0.01508433
v -0.02227301 0.01130810 -0.01508433
v -0.02224496 0.01135361 -0.01508433
v -0.02220513 0.01141652 -0.01508433
v -0.02200791 0.01147148 -0.01590000
v -0.02163858 0.01186780 -0.01590000
v -0.02179805 0.01184590 -0.01508433
v -0.02174178 0.01188798 -0.01508433
v -0.02169832 0.01191675 -0.01508433
v -0.02218782 0.01144163 -0.01508433
v -0.02214211 0.01150196 -0.01508433
v -0.02209518 0.01156293 -0.01508433
v -0.02189640 0.01161382 -0.01590000
v -0.02177295 0.01174650 -0.01590000
v -0.02186749 0.01179158 -0.01508433
v -0.02184515 0.01180961 -0.01508433
v -0.02206159 0.01160158 -0.01508433
v -0.02201536 0.01165203 -0.01508433
v -0.02193000 0.01173469 -0.01508433
v -0.02198160 0.01168724 -0.01508433
f 5 2 1
f 4 5 1
f 12 17 18
f 10 9 13
f 5 9 10
f 34 40 35
f 23 16 22
f 12 18 19
f 19 18 24
f 24 25 19
f 37 29 36
f 36 45 37
f 5 4 8
f 8 9 5
f 22 16 21
f 16 20 21
f 16 10 15
f 15 20 16
f 35 40 41
f 48 49 42
f 42 41 46
f 35 41 42
f 54 49 48
f 57 49 56
f 32 33 28
f 28 33 34
f 28 34 35
f 27 28 23
f 32 28 27
f 63 59 58
f 58 64 63
f 58 59 50
f 24 29 30
f 14 10 13
f 14 15 10
f 48 42 47
f 47 42 46
f 56 49 55
f 49 54 55
f 61 57 56
f 26 23 22
f 26 27 23
f 36 43 44
f 44 45 36
f 43 50 51
f 51 52 43
f 39 30 29
f 31 25 24
f 24 30 31
f 58 57 62
f 57 61 62
f 62 64 58
f 43 52 53
f 53 44 43
f 60 50 59
f 60 51 50
f 29 37 38
f 38 39 29
f 6 3 1
f 1 2 6
f 7 3 6
f 6 11 7
f 17 12 7
f 7 11 17
f 50 6 2
f 11 6 50
f 50 17 11
f 2 5 50
f 50 57 58
f 50 18 17
f 5 10 50
f 50 43 36
f 36 29 50
f 24 18 50
f 50 29 24
f 50 10 16
f 35 42 50
f 16 23 50
f 50 28 35
f 50 42 49
f 49 57 50
f 23 28 50
f 7 12 38
f 1 3 38
f 38 3 7
f 38 4 1
f 40 34 38
f 13 9 38
f 38 33 32
f 38 41 40
f 56 55 38
f 38 8 4
f 38 60 59
f 59 63 38
f 12 19 38
f 38 37 45
f 22 21 38
f 38 14 13
f 48 47 38
f 38 61 56
f 38 19 25
f 38 26 22
f 9 8 38
f 38 21 20
f 20 15 38
f 46 41 38
f 38 54 48
f 34 33 38
f 32 27 38
f 38 63 64
f 45 44 38
f 38 53 52
f 15 14 38
f 38 47 46
f 38 55 54
f 25 31 38
f 27 26 38
f 64 62 38
f 52 51 38
f 30 39 38
f 38 31 30
f 38 62 61
f 44 53 38
f 51 60 38

