# https://github.com/mikedh/trimesh
v 0.01250000 0.01000000 0.01869983
v 0.01336809 0.00996150 0.01869983
v 0.01250000 0.01000000 0.01700261
v 0.01163191 0.00996150 0.01869983
v 0.01350744 0.00994296 0.01700261
v 0.01423619 0.00984743 0.01869983
v 0.01423619 0.00984743 0.01700261
v 0.01163191 0.00996150 0.01700261
v 0.01104439 0.00988451 0.01700261
v 0.01076381 0.00984743 0.01869983
v 0.01508545 0.00965851 0.01869983
v 0.01508545 0.00965851 0.01700261
v 0.01076381 0.00984743 0.01700261
v 0.01018571 0.00971982 0.01700261
v 0.00991267 0.00965851 0.01869983
v 0.01591965 0.00939687 0.01869983
v 0.01591965 0.00939687 0.01700261
v 0.00981475 0.00962928 0.01700261
v 0.00918957 0.00943465 0.01869983
v 0.01672372 0.00906251 0.01869983
v 0.01684988 0.00899763 0.01700261
v 0.00911613 0.00940899 0.01700261
v 0.00827440 0.00906251 0.01869983
v 0.01749954 0.00865971 0.01869983
v 0.01749954 0.00865971 0.01700261
v 0.00827440 0.00906251 0.01700261
v 0.00762474 0.00872459 0.01700261
v 0.00750046 0.00865971 0.01869983
v 0.01823205 0.00819132 0.01869983
v 0.01823205 0.00819132 0.01700261
v 0.00688470 0.00826618 0.01700261
v 0.00676795 0.00819132 0.01869983
v 0.01892502 0.00765948 0.01869983
v 0.01892502 0.00765948 0.01700261
v 0.00618420 0.00774504 0.01700261
v 0.00607309 0.00765948 0.01869983
v 0.01956903 0.00706990 0.01869983
v 0.01956903 0.00706990 0.01700261
v 0.00543097 0.00706990 0.01700261
v 0.00543097 0.00706990 0.01869983
v 0.02015843 0.00642685 0.01869983
v 0.02015843 0.00642685 0.01700261
v 0.00484157 0.00642685 0.01700261
v 0.00484157 0.00642685 0.01869983
v 0.02068946 0.00573603 0.01869983
v 0.02068946 0.00573603 0.01700261
v 0.00431054 0.00573603 0.01700261
v 0.00431054 0.00573603 0.01869983
v 0.02116022 0.00500030 0.01869983
v 0.02116022 0.00500030 0.01700261
v 0.00384166 0.00500030 0.01700261
v 0.00384166 0.00500030 0.01869983
v 0.02156132 0.00422678 0.01869983
v 0.02156132 0.00422678 0.01700261
v 0.00350271 0.00435083 0.01700261
v 0.00343869 0.00422678 0.01869983
v 0.02189650 0.00342047 0.01869983
v 0.02189650 0.00342047 0.01700261
v 0.00315811 0.00355022 0.01700261
v 0.00310350 0.00342047 0.01869983
v 0.02211870 0.00271682 0.01869983
v 0.02211870 0.00271682 0.01700261
v 0.00288130 0.00271682 0.01700261
v 0.00288130 0.00271682 0.01869983
f 2 3 1
f 19 15 18
f 55 52 51
f 55 59 56
f 56 52 55
f 19 18 22
f 22 23 19
f 26 23 22
f 14 18 15
f 14 15 10
f 14 10 13
f 32 35 36
f 35 39 36
f 36 39 40
f 60 56 59
f 63 64 60
f 60 59 63
f 7 2 6
f 16 20 17
f 9 4 8
f 13 10 9
f 10 4 9
f 32 28 31
f 31 35 32
f 3 2 5
f 2 7 5
f 21 17 20
f 21 24 25
f 21 20 24
f 27 31 28
f 27 28 23
f 27 23 26
f 62 64 63
f 61 64 62
f 30 25 24
f 29 30 24
f 51 52 48
f 51 48 47
f 3 8 4
f 1 3 4
f 6 11 7
f 11 12 7
f 17 11 16
f 17 12 11
f 54 49 53
f 54 50 49
f 37 41 42
f 38 37 42
f 33 28 32
f 33 64 61
f 33 44 48
f 16 11 33
f 33 15 19
f 33 49 45
f 29 24 33
f 45 41 33
f 33 2 1
f 61 57 33
f 33 60 64
f 1 4 33
f 48 52 33
f 6 2 33
f 33 11 6
f 33 57 53
f 53 49 33
f 32 36 33
f 33 20 16
f 10 15 33
f 19 23 33
f 40 44 33
f 52 56 33
f 24 20 33
f 33 41 37
f 33 4 10
f 23 28 33
f 33 36 40
f 56 60 33
f 33 30 29
f 33 34 30
f 38 34 33
f 33 37 38
f 48 44 43
f 47 48 43
f 43 44 40
f 40 39 43
f 61 62 58
f 58 57 61
f 53 57 58
f 58 54 53
f 45 49 46
f 49 50 46
f 46 41 45
f 46 42 41
f 27 62 63
f 63 59 27
f 26 22 27
f 27 51 47
f 27 46 50
f 27 14 13
f 27 25 30
f 3 5 27
f 27 8 3
f 27 59 55
f 38 42 27
f 30 34 27
f 13 9 27
f 55 51 27
f 47 43 27
f 27 21 25
f 27 34 38
f 27 22 18
f 18 14 27
f 27 39 35
f 27 7 12
f 12 17 27
f 50 54 27
f 27 58 62
f 27 9 8
f 35 31 27
f 27 43 39
f 27 5 7
f 17 21 27
f 54 58 27
f 42 46 27

