# https://github.com/mikedh/trimesh
v -0.00053206 0.00620262 -0.01202027
v -0.00053206 0.00620262 -0.01439962
v -0.00257755 0.00620262 -0.01202027
v -0.00053206 0.00380390 -0.01202027
v -0.00257755 0.00620262 -0.01439962
v -0.00053206 0.00380390 -0.01439962
v -0.00055028 0.00519978 -0.01440149
v -0.00055408 0.00528690 -0.01440149
v -0.00056549 0.00537330 -0.01440149
v -0.00058431 0.00545853 -0.01440149
v -0.00061054 0.00554165 -0.01440149
v -0.00066400 0.00566117 -0.01440149
v -0.00073108 0.00577317 -0.01440149
v -0.00078414 0.00584243 -0.01440149
v -0.00084320 0.00590677 -0.01440149
v -0.00090748 0.00596570 -0.01440149
v -0.00097675 0.00601877 -0.01440149
v -0.00108888 0.00608592 -0.01440149
v -0.00124966 0.00615261 -0.01440149
v -0.00137660 0.00618454 -0.01440149
v -0.00146310 0.00619581 -0.01440149
v -0.00159345 0.00619769 -0.01440149
v -0.00257755 0.00380390 -0.01202027
v -0.00172339 0.00618454 -0.01440149
v -0.00185034 0.00615261 -0.01440149
v -0.00201112 0.00608592 -0.01440149
v -0.00212324 0.00601877 -0.01440149
v -0.00219252 0.00596570 -0.01440149
v -0.00225679 0.00590677 -0.01440149
v -0.00231586 0.00584243 -0.01440149
v -0.00236892 0.00577317 -0.01440149
v -0.00243599 0.00566117 -0.01440149
v -0.00248945 0.00554165 -0.01440149
v -0.00251568 0.00545853 -0.01440149
v -0.00253450 0.00537330 -0.01440149
v -0.00254592 0.00528690 -0.01440149
v -0.00254972 0.00519978 -0.01440149
v -0.00257755 0.00380390 -0.01439962
v -0.00159345 0.00420212 -0.01440149
v -0.00146310 0.00420423 -0.01440149
v -0.00137660 0.00421550 -0.01440149
v -0.00129131 0.00423428 -0.01440149
v -0.00120821 0.00426058 -0.01440149
v -0.00112752 0.00429392 -0.01440149
v -0.00101340 0.00435755 -0.01440149
v -0.00090748 0.00443433 -0.01440149
v -0.00084320 0.00449327 -0.01440149
v -0.00075751 0.00459212 -0.01440149
v -0.00066400 0.00473887 -0.01440149
v -0.00061054 0.00485815 -0.01440149
v -0.00057490 0.00498377 -0.01440149
v -0.00055408 0.00511267 -0.01440149
v -0.00254592 0.00511267 -0.01440149
v -0.00252509 0.00498377 -0.01440149
v -0.00248945 0.00485815 -0.01440149
v -0.00243599 0.00473887 -0.01440149
v -0.00234249 0.00459212 -0.01440149
v -0.00225679 0.00449327 -0.01440149
v -0.00219252 0.00443433 -0.01440149
v -0.00208660 0.00435755 -0.01440149
v -0.00197247 0.00429392 -0.01440149
v -0.00189178 0.00426058 -0.01440149
v -0.00180869 0.00423428 -0.01440149
v -0.00172339 0.00421550 -0.01440149
f 7 2 6
f 39 6 38
f 38 5 37
f 22 5 2
f 2 11 12
f 6 50 51
f 6 47 48
f 8 2 7
f 8 9 2
f 10 11 2
f 2 9 10
f 13 14 2
f 2 12 13
f 7 6 52
f 6 51 52
f 49 50 6
f 6 48 49
f 6 39 40
f 40 41 6
f 42 43 6
f 6 41 42
f 46 47 6
f 6 45 46
f 6 43 44
f 44 45 6
f 60 61 38
f 54 55 38
f 57 58 38
f 2 14 15
f 15 16 2
f 17 18 2
f 2 16 17
f 21 22 2
f 2 20 21
f 2 18 19
f 19 20 2
f 25 26 5
f 5 26 27
f 64 39 38
f 38 63 64
f 38 61 62
f 62 63 38
f 38 58 59
f 59 60 38
f 38 37 53
f 53 54 38
f 38 55 56
f 56 57 38
f 36 37 5
f 5 35 36
f 5 33 34
f 34 35 5
f 5 29 30
f 30 31 5
f 32 33 5
f 5 31 32
f 5 22 24
f 24 25 5
f 28 29 5
f 5 27 28
f 23 4 1
f 23 1 3
f 4 23 6
f 6 23 38
f 1 4 6
f 6 2 1
f 5 23 3
f 38 23 5
f 3 1 5
f 1 2 5
f 18 17 28
f 43 42 28
f 11 10 28
f 28 48 47
f 28 62 61
f 28 34 33
f 14 13 28
f 50 49 28
f 28 44 43
f 58 57 28
f 28 19 18
f 28 8 7
f 28 12 11
f 28 51 50
f 7 52 28
f 28 40 39
f 47 46 28
f 28 24 22
f 28 59 58
f 28 15 14
f 22 21 28
f 28 56 55
f 33 32 28
f 9 8 28
f 28 10 9
f 28 13 12
f 28 52 51
f 28 49 48
f 41 40 28
f 28 42 41
f 28 46 45
f 45 44 28
f 39 64 28
f 61 60 28
f 55 54 28
f 28 53 37
f 16 15 28
f 28 17 16
f 28 21 20
f 20 19 28
f 37 36 28
f 28 30 29
f 26 25 28
f 28 27 26
f 28 64 63
f 63 62 28
f 60 59 28
f 54 53 28
f 57 56 28
f 28 36 35
f 35 34 28
f 31 30 28
f 28 32 31
f 25 24 28

