# https://github.com/mikedh/trimesh
v -0.01910170 0.01240000 0.01440000
v -0.01980975 0.01240000 0.01440000
v -0.01910170 0.01175930 0.01440000
v -0.01910170 0.01240000 -0.01439924
v -0.01980975 0.01175930 0.01440000
v -0.01980975 0.01240000 -0.01439924
v -0.01910170 0.01175930 -0.01590000
v -0.01910170 0.01234374 -0.01460982
v -0.01942519 0.01215905 -0.01590000
v -0.01959273 0.01222728 -0.01590000
v -0.01976567 0.01228084 -0.01590000
v -0.01980975 0.01229044 -0.01590000
v -0.01980975 0.01175930 -0.01590000
v -0.01910170 0.01199812 -0.01590000
f 4 12 6
f 14 9 8
f 8 9 4
f 4 9 10
f 11 12 4
f 4 10 11
f 5 3 1
f 5 1 2
f 3 5 13
f 13 7 3
f 6 5 2
f 6 13 5
f 6 12 13
f 2 1 6
f 1 4 6
f 1 3 8
f 3 7 8
f 8 4 1
f 7 14 8
f 7 13 11
f 13 12 11
f 11 14 7
f 11 9 14
f 11 10 9

