# https://github.com/mikedh/trimesh
v 0.01853097 -0.00796500 0.01700245
v 0.01892797 -0.00766034 0.01700245
v 0.01853097 -0.00796500 0.01869984
v 0.01853097 -0.00557697 0.01700245
v 0.01892797 -0.00766034 0.01869984
v 0.01936471 -0.00726012 0.01700245
v 0.01853097 -0.00557697 0.01869984
v 0.01869985 -0.00495232 0.01700245
v 0.01957127 -0.00707078 0.01869984
v 0.01957127 -0.00707078 0.01700245
v 0.01869985 -0.00495232 0.01869984
v 0.02118523 -0.00495232 0.01700245
v 0.02016026 -0.00642813 0.01869984
v 0.02016026 -0.00642813 0.01700245
v 0.02118523 -0.00495232 0.01869984
v 0.02116003 -0.00500010 0.01700245
v 0.02069132 -0.00573594 0.01869984
v 0.02069132 -0.00573594 0.01700245
v 0.02116003 -0.00500010 0.01869984
v 0.02100960 -0.00523633 0.01700245
f 10 9 6
f 2 6 5
f 5 6 9
f 20 17 18
f 19 20 16
f 17 20 19
f 12 8 15
f 8 11 15
f 7 4 1
f 1 3 7
f 8 4 7
f 7 11 8
f 5 3 1
f 1 2 5
f 13 9 14
f 14 9 10
f 17 14 18
f 13 14 17
f 20 8 12
f 1 4 20
f 20 4 8
f 20 2 1
f 20 14 10
f 10 6 20
f 20 6 2
f 18 14 20
f 12 16 20
f 19 15 11
f 3 5 19
f 19 7 3
f 11 7 19
f 19 9 13
f 19 5 9
f 13 17 19
f 12 15 19
f 19 16 12

