# https://github.com/mikedh/trimesh
v 0.00248045 0.00345042 0.01440980
v 0.00719738 0.00918470 0.01440980
v 0.00679799 0.00941243 0.01589990
v 0.00248045 0.00468013 0.01613282
v 0.00248045 0.01239737 0.01440980
v 0.00719738 0.01239737 0.01440980
v 0.00392794 0.00700030 0.01613282
v 0.00679799 0.01199798 0.01589990
v 0.00248045 0.00700030 0.01613282
v 0.00248045 0.01200061 0.01589028
v 0.00367122 0.01228176 0.01589990
v 0.00384529 0.01231942 0.01589990
v 0.00402213 0.01234220 0.01589990
v 0.00420035 0.01234920 0.01589990
v 0.00437812 0.01234220 0.01589990
v 0.00455495 0.01231942 0.01589990
v 0.00248045 0.01199798 0.01589990
f 1 2 3
f 3 4 1
f 7 3 8
f 4 3 7
f 4 7 9
f 14 9 7
f 14 6 5
f 16 7 8
f 8 6 16
f 17 9 11
f 9 12 11
f 11 10 17
f 5 10 11
f 11 12 5
f 9 14 13
f 13 12 9
f 13 14 5
f 5 12 13
f 15 14 7
f 7 16 15
f 6 14 15
f 15 16 6
f 1 5 6
f 6 2 1
f 6 3 2
f 8 3 6
f 9 5 1
f 1 4 9
f 9 10 5
f 17 10 9

