# https://github.com/mikedh/trimesh
v 0.00028000 0.00814888 0.01590000
v -0.00343702 0.00814888 0.01590000
v 0.00028000 0.00700949 0.01590000
v 0.00028000 0.00814888 -0.01439910
v -0.00343702 0.00700949 0.01590000
v -0.00343702 0.00814888 -0.01439910
v 0.00028000 0.00700949 -0.01439910
v -0.00055029 0.00760105 -0.01441987
v -0.00055393 0.00768706 -0.01441987
v -0.00056521 0.00777362 -0.01441987
v -0.00058413 0.00785874 -0.01441987
v -0.00061032 0.00794195 -0.01441987
v -0.00064380 0.00802261 -0.01441987
v -0.00068418 0.00809991 -0.01441987
v -0.00071547 0.00814888 -0.01441987
v -0.00343702 0.00700949 -0.01439910
v -0.00238479 0.00814888 -0.01441987
v -0.00241571 0.00809991 -0.01441987
v -0.00245610 0.00802261 -0.01441987
v -0.00248957 0.00794195 -0.01441987
v -0.00251577 0.00785874 -0.01441987
v -0.00253469 0.00777362 -0.01441987
v -0.00254597 0.00768706 -0.01441987
v -0.00254997 0.00759994 -0.01441987
v -0.00082936 0.00700949 -0.01441987
v -0.00074385 0.00700961 -0.01441987
v -0.00073112 0.00702645 -0.01441987
v -0.00068418 0.00710007 -0.01441987
v -0.00064380 0.00717749 -0.01441987
v -0.00061032 0.00725803 -0.01441987
v -0.00058413 0.00734125 -0.01441987
v -0.00056521 0.00742636 -0.01441987
v -0.00055393 0.00751293 -0.01441987
v -0.00254597 0.00751293 -0.01441987
v -0.00253469 0.00742636 -0.01441987
v -0.00251577 0.00734125 -0.01441987
v -0.00248957 0.00725803 -0.01441987
v -0.00245610 0.00717749 -0.01441987
v -0.00241571 0.00710007 -0.01441987
v -0.00236914 0.00702645 -0.01441987
v -0.00235604 0.00700949 -0.01441987
f 4 7 8
f 10 11 4
f 16 38 39
f 16 36 37
f 37 38 16
f 25 26 7
f 16 6 24
f 15 4 14
f 4 13 14
f 4 11 12
f 12 13 4
f 9 4 8
f 9 10 4
f 40 41 16
f 16 39 40
f 19 20 6
f 21 22 6
f 6 20 21
f 6 22 23
f 23 24 6
f 35 36 16
f 8 7 33
f 7 32 33
f 7 30 31
f 31 32 7
f 7 26 27
f 27 28 7
f 29 30 7
f 7 28 29
f 6 17 18
f 18 19 6
f 16 24 34
f 34 35 16
f 5 3 1
f 5 1 2
f 6 5 2
f 16 5 6
f 1 3 4
f 3 7 4
f 2 1 17
f 17 6 2
f 1 4 17
f 17 4 15
f 3 5 25
f 25 5 16
f 25 7 3
f 16 41 25
f 34 9 8
f 34 17 15
f 34 23 22
f 34 25 41
f 34 31 30
f 34 12 11
f 34 37 36
f 41 40 34
f 15 14 34
f 11 10 34
f 34 39 38
f 38 37 34
f 26 25 34
f 36 35 34
f 30 29 34
f 22 21 34
f 34 14 13
f 13 12 34
f 10 9 34
f 34 40 39
f 8 33 34
f 34 27 26
f 20 19 34
f 34 21 20
f 24 23 34
f 34 18 17
f 34 33 32
f 32 31 34
f 28 27 34
f 34 29 28
f 19 18 34

