# https://github.com/mikedh/trimesh
v -0.01308665 0.01199801 0.01590000
v -0.01308665 0.01035581 0.01590000
v -0.01308665 0.01207224 0.01562296
v -0.01632182 0.01234237 0.01590000
v -0.01766047 0.01035581 0.01590000
v -0.01308665 0.01035581 -0.01590000
v -0.01308665 0.01240000 0.01439965
v -0.01649956 0.01234998 0.01590000
v -0.01766047 0.01200001 0.01590000
v -0.01766047 0.01035581 -0.01590000
v -0.01308665 0.01199801 -0.01590000
v -0.01308665 0.01240000 -0.01439965
v -0.01766047 0.01240000 0.01439965
v -0.01667775 0.01234237 0.01590000
v -0.01752392 0.01208325 0.01590000
v -0.01766047 0.01199801 -0.01590000
v -0.01308665 0.01206724 -0.01564164
v -0.01766047 0.01240000 -0.01439965
v -0.01736498 0.01216349 0.01590000
v -0.01719933 0.01222992 0.01590000
v -0.01702875 0.01228214 0.01590000
v -0.01685459 0.01231976 0.01590000
f 19 20 13
f 3 4 1
f 7 4 3
f 8 7 13
f 8 4 7
f 18 12 17
f 17 16 18
f 17 11 16
f 13 9 15
f 15 19 13
f 13 20 21
f 21 22 13
f 14 8 13
f 13 22 14
f 10 6 2
f 10 2 5
f 18 13 7
f 7 12 18
f 9 10 5
f 18 16 9
f 9 13 18
f 9 16 10
f 6 10 11
f 10 16 11
f 2 6 17
f 1 2 17
f 6 11 17
f 12 7 17
f 17 3 1
f 7 3 17
f 5 2 14
f 14 2 1
f 14 9 5
f 1 4 14
f 20 19 14
f 14 15 9
f 4 8 14
f 19 15 14
f 14 21 20
f 22 21 14

