# https://github.com/mikedh/trimesh
v -0.01533827 -0.01178718 -0.01589689
v -0.01533827 -0.01172578 -0.01590000
v -0.01508297 -0.01178718 -0.01589689
v -0.01533827 -0.01178718 0.01586576
v -0.01508297 -0.01170765 -0.01590000
v -0.01533827 -0.01075228 -0.01590000
v -0.01508297 -0.01178718 0.01590000
v -0.01533662 -0.01178718 0.01590000
v -0.01533827 -0.01080801 0.01590000
v -0.01508297 -0.01075228 -0.01590000
v -0.01533827 -0.01075228 0.01590000
v -0.01508297 -0.01075228 0.01590000
f 2 3 1
f 3 2 5
f 4 8 9
f 3 7 8
f 8 4 1
f 1 3 8
f 6 11 12
f 12 10 6
f 5 7 3
f 5 12 7
f 10 12 5
f 5 2 6
f 6 10 5
f 9 11 6
f 9 2 1
f 6 2 9
f 1 4 9
f 9 8 7
f 7 12 9
f 9 12 11

