# https://github.com/mikedh/trimesh
v 0.01141707 0.00062460 -0.01440723
v 0.00956862 0.00062460 -0.01440723
v 0.01126707 0.00020260 -0.01440723
v 0.01141707 0.00062460 -0.01830000
v 0.00954565 0.00052092 -0.01440723
v 0.00956862 0.00062460 -0.01830000
v 0.00950885 0.00020260 -0.01440723
v 0.01126707 0.00020260 -0.01830000
v 0.00951146 0.00026150 -0.01440723
v 0.00954565 0.00052092 -0.01830000
v 0.00950885 0.00020260 -0.01830000
v 0.00951146 0.00026150 -0.01830000
f 8 4 1
f 1 3 8
f 1 4 6
f 6 2 1
f 2 6 5
f 6 10 5
f 11 8 3
f 11 3 7
f 9 3 1
f 7 3 9
f 1 2 9
f 2 5 9
f 4 8 12
f 12 6 4
f 12 10 6
f 8 11 12
f 12 5 10
f 12 9 5
f 12 11 7
f 7 9 12

