# https://github.com/mikedh/trimesh
v 0.01250029 -0.00111231 0.01927291
v 0.01250029 -0.00054105 0.01870148
v 0.01205593 -0.00111231 0.01927291
v 0.01250029 -0.00268344 0.01927291
v 0.01205593 -0.00054105 0.01870148
v 0.01250029 -0.00269992 0.01870148
v 0.01205593 -0.00264539 0.01927291
v 0.01230256 -0.00267477 0.01927291
v 0.01249999 -0.00268682 0.01924086
v 0.01250029 -0.00268682 0.01924086
v 0.01205593 -0.00266209 0.01870148
v 0.01226533 -0.00268957 0.01870148
v 0.01205593 -0.00264687 0.01926050
v 0.01207020 -0.00264730 0.01927291
v 0.01226615 -0.00267308 0.01927291
v 0.01226585 -0.00267646 0.01924086
v 0.01205593 -0.00266082 0.01875713
v 0.01205593 -0.00264899 0.01924086
f 6 9 12
f 12 9 16
f 10 9 6
f 4 9 10
f 8 9 4
f 16 9 8
f 8 15 16
f 11 12 17
f 17 12 16
f 16 15 18
f 15 13 18
f 18 17 16
f 14 7 13
f 14 13 15
f 1 2 5
f 3 1 5
f 12 5 2
f 12 2 6
f 12 11 5
f 10 2 1
f 6 2 10
f 1 4 10
f 3 5 7
f 5 11 7
f 7 18 13
f 11 17 7
f 17 18 7
f 14 1 3
f 14 4 1
f 14 8 4
f 15 8 14
f 3 7 14

