# https://github.com/mikedh/trimesh
v 0.01151170 -0.00186298 0.01613282
v 0.01151170 -0.00240113 0.01613282
v 0.01151170 -0.00186256 0.01602167
v 0.01151054 -0.00186256 0.01613282
v 0.01072122 -0.00240113 0.01613282
v 0.01151170 -0.00240113 0.01470006
v 0.01151170 -0.00186256 0.01440980
v 0.01072122 -0.00186256 0.01613282
v 0.01072122 -0.00240113 0.01470006
v 0.01151170 -0.00218593 0.01440980
v 0.01098866 -0.00186256 0.01440980
v 0.01072122 -0.00186256 0.01470006
v 0.01112339 -0.00196599 0.01440980
v 0.01129417 -0.00207480 0.01440980
v 0.01129998 -0.00207849 0.01440980
v 0.01147959 -0.00217196 0.01440980
v 0.01148570 -0.00217513 0.01440980
f 3 4 1
f 6 9 10
f 11 9 12
f 17 10 9
f 9 11 13
f 9 15 16
f 16 17 9
f 14 15 9
f 9 13 14
f 4 2 1
f 5 2 4
f 4 8 5
f 9 2 5
f 9 6 2
f 5 8 9
f 8 12 9
f 1 2 10
f 2 6 10
f 10 3 1
f 7 3 10
f 8 4 11
f 11 3 7
f 11 12 8
f 4 3 11
f 7 10 14
f 14 11 7
f 10 17 14
f 14 13 11
f 14 16 15
f 17 16 14

