# https://github.com/mikedh/trimesh
v -0.01308665 0.01035581 0.01590000
v -0.01575795 0.01035581 0.01590000
v -0.01308665 0.00962382 0.01590000
v -0.01308665 0.01035581 -0.01340053
v -0.01584349 0.01035581 0.01439998
v -0.01584349 0.00988850 0.01590000
v -0.01584349 0.00962382 0.01590000
v -0.01308665 0.00962382 -0.01340053
v -0.01584349 0.01035581 -0.01340053
v -0.01584349 0.00962382 -0.01340053
f 5 6 2
f 8 4 1
f 1 3 8
f 8 9 4
f 10 9 8
f 1 4 2
f 2 9 5
f 4 9 2
f 5 9 7
f 7 6 5
f 7 9 10
f 7 3 1
f 1 2 7
f 7 2 6
f 7 8 3
f 10 8 7

