# https://github.com/mikedh/trimesh
v -0.02244353 0.01010211 0.01440033
v -0.02242329 0.00994592 0.01440033
v -0.02242050 0.00994645 0.01523895
v -0.02243341 0.01010251 0.01528458
v -0.02236828 0.01010543 0.01548748
v -0.02110057 0.01010689 0.01440033
v -0.02239028 0.00979690 0.01440033
v -0.02238251 0.00979902 0.01527786
v -0.02238163 0.00995336 0.01541679
v -0.02232911 0.00981337 0.01546461
v -0.02226750 0.00990315 0.01558339
v -0.02219108 0.01007874 0.01567793
v -0.02095022 0.00999984 0.01580000
v -0.02094758 0.00992467 0.01440033
v -0.02234437 0.00965133 0.01440033
v -0.02234158 0.00965226 0.01523895
v -0.02230462 0.00966581 0.01541679
v -0.02223406 0.00969144 0.01555380
v -0.02211568 0.00966249 0.01565779
v -0.02203060 0.00983156 0.01574355
v -0.02193730 0.01001883 0.01578657
v -0.02171844 0.00966182 0.01579877
v -0.02114986 0.00916455 0.01579877
v -0.02097853 0.00909615 0.01579726
v -0.02094493 0.00875016 0.01440033
v -0.02180924 0.00978973 0.01579589
v -0.02228599 0.00951028 0.01440033
v -0.02221440 0.00937573 0.01522594
v -0.02227689 0.00951453 0.01528403
v -0.02218902 0.00939034 0.01537952
v -0.02215616 0.00949235 0.01553722
v -0.02200258 0.00933801 0.01560326
v -0.02195344 0.00945277 0.01569259
v -0.02194067 0.00963924 0.01574753
v -0.02169570 0.00948597 0.01578411
v -0.02155942 0.00939087 0.01579479
v -0.02130433 0.00920360 0.01579342
v -0.02119724 0.00896905 0.01575164
v -0.02101505 0.00882414 0.01570601
v -0.02121470 0.00879094 0.01564600
v -0.02137723 0.00876119 0.01554804
v -0.02152627 0.00876491 0.01543501
v -0.02165155 0.00878337 0.01440033
v -0.02221543 0.00937520 0.01440033
v -0.02213328 0.00924637 0.01440033
v -0.02213093 0.00924796 0.01523895
v -0.02205084 0.00921317 0.01542254
v -0.02189931 0.00915140 0.01555859
v -0.02181511 0.00922804 0.01567450
v -0.02163453 0.00922990 0.01574958
v -0.02146701 0.00922578 0.01578150
v -0.02138618 0.00893000 0.01568985
v -0.02150016 0.00886452 0.01559449
v -0.02169291 0.00895616 0.01555380
v -0.02173853 0.00889653 0.01541679
v -0.02164362 0.00878456 0.01525868
v -0.02182288 0.00891167 0.01523895
v -0.02182479 0.00890954 0.01440033
v -0.02204042 0.00912524 0.01440033
v -0.02203822 0.00912710 0.01523895
v -0.02191574 0.00903426 0.01537952
v -0.02162250 0.00904874 0.01567162
v -0.02193657 0.00901354 0.01522594
v -0.02193730 0.00901274 0.01440033
f 14 13 25
f 14 6 13
f 13 6 5
f 5 12 13
f 5 6 1
f 1 4 5
f 25 13 24
f 24 39 25
f 13 12 21
f 25 42 43
f 41 42 25
f 12 5 11
f 39 24 38
f 25 39 40
f 40 41 25
f 39 38 40
f 54 42 53
f 42 41 53
f 41 40 53
f 58 43 57
f 57 63 58
f 3 4 1
f 3 7 8
f 16 27 28
f 8 7 16
f 9 5 4
f 4 3 9
f 9 3 8
f 23 24 13
f 13 22 23
f 23 38 24
f 13 21 26
f 26 22 13
f 33 49 50
f 52 40 38
f 52 53 40
f 52 38 50
f 58 63 64
f 63 59 64
f 60 59 63
f 56 43 42
f 56 57 43
f 55 42 54
f 55 56 42
f 57 56 55
f 31 47 32
f 49 33 32
f 2 3 1
f 7 3 2
f 29 16 28
f 27 16 15
f 15 16 7
f 10 11 5
f 5 9 10
f 36 23 22
f 22 26 35
f 50 36 35
f 35 36 22
f 11 10 18
f 12 11 19
f 11 18 19
f 19 18 31
f 31 32 19
f 19 32 33
f 53 52 62
f 62 49 54
f 54 53 62
f 50 49 62
f 62 52 50
f 28 27 44
f 44 45 28
f 46 45 59
f 59 60 46
f 28 45 46
f 46 60 47
f 61 60 63
f 47 60 61
f 63 57 61
f 57 55 61
f 48 32 47
f 47 61 48
f 54 49 48
f 49 32 48
f 48 55 54
f 48 61 55
f 30 47 31
f 30 29 28
f 28 46 30
f 30 46 47
f 16 29 17
f 8 16 17
f 29 30 17
f 17 9 8
f 17 10 9
f 17 18 10
f 31 18 17
f 17 30 31
f 50 38 51
f 51 36 50
f 34 35 26
f 34 26 21
f 34 33 50
f 50 35 34
f 34 19 33
f 23 36 37
f 36 51 37
f 38 23 37
f 37 51 38
f 20 21 12
f 20 34 21
f 12 19 20
f 19 34 20
f 1 6 44
f 44 14 25
f 6 14 44
f 27 15 44
f 25 43 44
f 44 43 58
f 58 64 44
f 44 2 1
f 44 64 59
f 59 45 44
f 7 2 44
f 44 15 7

