# https://github.com/mikedh/trimesh
v -0.02094474 0.00956734 -0.01444368
v -0.02094474 0.00986754 -0.01444368
v -0.02060992 0.00956734 -0.01444368
v -0.02094474 0.00956734 0.01468266
v -0.02094474 0.01010689 -0.01439807
v -0.02045228 0.01010689 -0.01439807
v -0.02045228 0.00956734 -0.01439807
v -0.02045228 0.00956734 0.01468266
v -0.02094474 0.01010689 0.01429776
v -0.02045228 0.01010689 0.01429776
f 2 5 6
f 6 7 3
f 3 2 6
f 1 2 3
f 9 2 1
f 1 4 9
f 5 2 9
f 3 8 4
f 3 4 1
f 7 8 3
f 5 9 10
f 6 5 10
f 10 8 7
f 10 7 6
f 10 9 4
f 4 8 10

