# https://github.com/mikedh/trimesh
v -0.02074654 -0.01199602 -0.00703625
v -0.02074654 -0.01073343 -0.00703625
v -0.01972907 -0.01199602 -0.00703625
v -0.02074654 -0.01199602 0.01489042
v -0.01972907 -0.01073343 -0.00703625
v -0.02074654 -0.01073343 0.01448262
v -0.01972907 -0.01199602 0.01439892
v -0.02061147 -0.01199602 0.01489042
v -0.02074654 -0.01114045 0.01489042
v -0.01972907 -0.01073343 0.01489042
v -0.02044991 -0.01073343 0.01489042
v -0.01972907 -0.01170432 0.01489042
v -0.01978794 -0.01174189 0.01489042
v -0.01982509 -0.01176550 0.01489042
v -0.01996045 -0.01183595 0.01489042
v -0.02004691 -0.01187180 0.01489042
v -0.02010149 -0.01189442 0.01489042
v -0.02019074 -0.01192260 0.01489042
v -0.02024702 -0.01194027 0.01489042
v -0.02039603 -0.01197340 0.01489042
v -0.02054743 -0.01199330 0.01489042
f 9 11 6
f 7 21 8
f 7 19 20
f 20 21 7
f 14 15 7
f 7 12 13
f 13 14 7
f 18 19 7
f 7 17 18
f 7 15 16
f 16 17 7
f 1 2 5
f 5 3 1
f 3 5 12
f 12 7 3
f 12 5 10
f 11 5 2
f 10 5 11
f 2 6 11
f 9 2 1
f 1 4 9
f 9 6 2
f 1 3 8
f 8 4 1
f 3 7 8
f 16 12 10
f 10 11 16
f 16 9 4
f 16 20 19
f 11 9 16
f 4 8 16
f 16 13 12
f 16 8 21
f 21 20 16
f 15 14 16
f 19 18 16
f 14 13 16
f 16 18 17

