# https://github.com/mikedh/trimesh
v -0.02188935 -0.01050000 0.01519339
v -0.02184584 -0.01065759 0.01579448
v -0.02183868 -0.01054009 0.01579852
v -0.02095008 -0.01050000 0.01580000
v -0.02095008 -0.01050000 0.01519339
v -0.02074675 -0.01144318 0.01519339
v -0.02143862 -0.01183488 0.01522456
v -0.02183589 -0.01156902 0.01527990
v -0.02188879 -0.01146923 0.01542366
v -0.02187302 -0.01121536 0.01566860
v -0.02181397 -0.01076733 0.01579187
v -0.02169094 -0.01088146 0.01579881
v -0.02184674 -0.01090253 0.01577352
v -0.02124266 -0.01129218 0.01579881
v -0.02099258 -0.01139168 0.01579875
v -0.02077896 -0.01150932 0.01578765
v -0.02074675 -0.01199481 0.01523952
v -0.02100354 -0.01197213 0.01522456
v -0.02115084 -0.01193263 0.01527717
v -0.02129579 -0.01188683 0.01527717
v -0.02142654 -0.01180825 0.01537960
v -0.02157071 -0.01175865 0.01527717
v -0.02169899 -0.01167700 0.01527717
v -0.02179115 -0.01155044 0.01544106
v -0.02186933 -0.01137514 0.01556694
v -0.02168344 -0.01123365 0.01574769
v -0.02174697 -0.01112874 0.01575766
v -0.02177795 -0.01132788 0.01566663
v -0.02163077 -0.01103129 0.01579483
v -0.02138191 -0.01122414 0.01579709
v -0.02179641 -0.01100642 0.01576800
v -0.02136469 -0.01140134 0.01576948
v -0.02126201 -0.01145489 0.01576948
v -0.02110689 -0.01136724 0.01579709
v -0.02092973 -0.01149396 0.01578717
v -0.02104112 -0.01152249 0.01577447
v -0.02094572 -0.01164306 0.01573664
v -0.02078556 -0.01166939 0.01573053
v -0.02079271 -0.01183547 0.01560423
v -0.02079741 -0.01194360 0.01543856
v -0.02085177 -0.01198530 0.01527717
v -0.02099873 -0.01194331 0.01537960
v -0.02113955 -0.01188975 0.01544106
v -0.02128069 -0.01184527 0.01544106
v -0.02154878 -0.01172017 0.01544106
v -0.02167371 -0.01164057 0.01544106
v -0.02163233 -0.01158146 0.01556486
v -0.02172214 -0.01146806 0.01560340
v -0.02152865 -0.01115464 0.01579198
v -0.02161634 -0.01134207 0.01572964
v -0.02149051 -0.01137909 0.01575167
v -0.02157440 -0.01149878 0.01566663
v -0.02115923 -0.01151122 0.01576663
v -0.02132644 -0.01159345 0.01569751
v -0.02107814 -0.01166047 0.01571153
v -0.02096988 -0.01177972 0.01564021
v -0.02098755 -0.01188024 0.01552199
v -0.02125609 -0.01177738 0.01556486
v -0.02139623 -0.01174299 0.01553238
v -0.02151266 -0.01165769 0.01556486
v -0.02145662 -0.01156068 0.01567370
v -0.02136525 -0.01167656 0.01562424
v -0.02121784 -0.01167203 0.01567370
v -0.02111170 -0.01178587 0.01560340
f 5 6 1
f 1 4 5
f 5 4 6
f 1 6 7
f 3 4 1
f 6 4 16
f 16 17 6
f 6 17 18
f 18 7 6
f 1 7 8
f 15 16 4
f 4 3 12
f 9 10 1
f 1 8 9
f 14 15 4
f 4 12 14
f 10 9 25
f 23 8 7
f 47 25 24
f 24 25 9
f 24 9 8
f 8 23 24
f 10 27 13
f 16 15 35
f 7 18 19
f 45 23 22
f 22 21 45
f 22 23 7
f 7 21 22
f 46 45 47
f 47 24 46
f 46 23 45
f 46 24 23
f 2 12 3
f 10 13 2
f 1 10 2
f 2 3 1
f 31 13 27
f 16 35 36
f 10 25 28
f 50 28 52
f 20 21 7
f 7 19 20
f 12 2 11
f 11 2 13
f 34 36 35
f 15 14 34
f 34 35 15
f 45 21 44
f 44 59 45
f 21 20 44
f 44 20 19
f 47 52 48
f 52 28 48
f 48 25 47
f 48 28 25
f 53 54 55
f 26 49 27
f 28 50 26
f 26 27 10
f 10 28 26
f 51 26 50
f 51 50 52
f 32 49 51
f 49 26 51
f 12 11 29
f 29 11 13
f 13 31 29
f 29 31 27
f 27 49 29
f 30 32 14
f 30 49 32
f 30 29 49
f 30 14 12
f 12 29 30
f 41 18 17
f 17 40 41
f 36 34 33
f 53 36 33
f 14 32 33
f 33 34 14
f 33 54 53
f 32 51 33
f 33 51 54
f 64 62 58
f 58 62 59
f 59 44 58
f 58 57 64
f 63 55 54
f 54 62 63
f 63 62 64
f 52 62 61
f 61 62 54
f 61 51 52
f 54 51 61
f 60 52 47
f 60 62 52
f 59 62 60
f 47 45 60
f 45 59 60
f 39 57 40
f 39 40 17
f 40 57 42
f 42 41 40
f 42 19 18
f 18 41 42
f 43 58 44
f 57 58 43
f 43 42 57
f 43 44 19
f 19 42 43
f 64 57 56
f 57 39 56
f 56 63 64
f 55 63 56
f 17 16 38
f 38 39 17
f 38 56 39
f 16 36 37
f 37 38 16
f 37 36 53
f 53 55 37
f 55 56 37
f 56 38 37

