# https://github.com/mikedh/trimesh
v -0.00825334 -0.00679739 0.01700000
v -0.00895902 -0.00679730 0.01700000
v -0.00825334 -0.00699999 0.01700000
v -0.00825334 -0.00679640 0.01351102
v -0.00895902 -0.00679623 0.01331770
v -0.00895902 -0.00699999 0.01700000
v -0.00825334 -0.00703674 0.01588304
v -0.00825334 -0.00679593 0.01177113
v -0.00895902 -0.00679593 0.01217925
v -0.00895902 -0.00703674 0.01588304
v -0.00825334 -0.00703674 -0.01434559
v -0.00825334 -0.00679593 -0.01434866
v -0.00895902 -0.00679593 -0.01434866
v -0.00895902 -0.00703674 -0.01434559
f 2 1 5
f 4 5 1
f 8 5 4
f 9 5 8
f 14 13 11
f 11 13 12
f 2 6 3
f 3 1 2
f 10 11 7
f 14 11 10
f 7 3 10
f 10 3 6
f 1 3 4
f 7 11 4
f 12 8 4
f 4 11 12
f 4 3 7
f 14 10 9
f 9 6 2
f 9 13 14
f 9 10 6
f 2 5 9
f 9 8 12
f 12 13 9

