# https://github.com/mikedh/trimesh
v -0.00262232 -0.00388996 -0.01439761
v -0.00053186 -0.00388996 -0.01439761
v -0.00262232 -0.00388996 -0.00071609
v -0.00262232 -0.00061160 -0.01439761
v -0.00254783 -0.00275598 -0.01440699
v -0.00254026 -0.00292995 -0.01440699
v -0.00251591 -0.00305866 -0.01440699
v -0.00248951 -0.00314179 -0.01440699
v -0.00245616 -0.00322235 -0.01440699
v -0.00241585 -0.00329970 -0.01440699
v -0.00236899 -0.00337321 -0.01440699
v -0.00231599 -0.00344254 -0.01440699
v -0.00225706 -0.00350673 -0.01440699
v -0.00215802 -0.00359243 -0.01440699
v -0.00204977 -0.00366561 -0.01440699
v -0.00193211 -0.00372242 -0.01440699
v -0.00180852 -0.00376543 -0.01440699
v -0.00172360 -0.00378437 -0.01440699
v -0.00159346 -0.00379753 -0.01440699
v -0.00053186 -0.00061160 -0.01439761
v -0.00053186 -0.00388996 -0.00071609
v -0.00141973 -0.00379014 -0.01440699
v -0.00129143 -0.00376543 -0.01440699
v -0.00120835 -0.00373911 -0.01440699
v -0.00112752 -0.00370573 -0.01440699
v -0.00105017 -0.00366561 -0.01440699
v -0.00094193 -0.00359243 -0.01440699
v -0.00084309 -0.00350673 -0.01440699
v -0.00078416 -0.00344254 -0.01440699
v -0.00073096 -0.00337321 -0.01440699
v -0.00068410 -0.00329970 -0.01440699
v -0.00064379 -0.00322235 -0.01440699
v -0.00061043 -0.00314179 -0.01440699
v -0.00058424 -0.00305866 -0.01440699
v -0.00055968 -0.00292995 -0.01440699
v -0.00055211 -0.00275598 -0.01440699
v -0.00262232 -0.00061160 -0.00071609
v -0.00159346 -0.00180207 -0.01440699
v -0.00172360 -0.00181555 -0.01440699
v -0.00180852 -0.00183416 -0.01440699
v -0.00193211 -0.00187717 -0.01440699
v -0.00204977 -0.00193431 -0.01440699
v -0.00215802 -0.00200781 -0.01440699
v -0.00225706 -0.00209319 -0.01440699
v -0.00231599 -0.00215738 -0.01440699
v -0.00239232 -0.00226330 -0.01440699
v -0.00245616 -0.00237724 -0.01440699
v -0.00248951 -0.00245781 -0.01440699
v -0.00251591 -0.00254094 -0.01440699
v -0.00253474 -0.00262599 -0.01440699
v -0.00053186 -0.00061160 -0.00071609
v -0.00056521 -0.00262599 -0.01440699
v -0.00058424 -0.00254094 -0.01440699
v -0.00061043 -0.00245781 -0.01440699
v -0.00064379 -0.00237724 -0.01440699
v -0.00070763 -0.00226330 -0.01440699
v -0.00078416 -0.00215738 -0.01440699
v -0.00084309 -0.00209319 -0.01440699
v -0.00094193 -0.00200781 -0.01440699
v -0.00105017 -0.00193431 -0.01440699
v -0.00112752 -0.00189386 -0.01440699
v -0.00120835 -0.00186048 -0.01440699
v -0.00129143 -0.00183416 -0.01440699
v -0.00141973 -0.00180977 -0.01440699
f 1 4 5
f 4 20 38
f 36 20 2
f 1 5 6
f 6 7 1
f 9 10 1
f 15 16 1
f 12 13 1
f 46 47 4
f 40 41 4
f 4 41 42
f 1 7 8
f 8 9 1
f 1 13 14
f 14 15 1
f 1 10 11
f 11 12 1
f 50 5 4
f 4 49 50
f 4 47 48
f 48 49 4
f 4 44 45
f 45 46 4
f 4 38 39
f 39 40 4
f 43 44 4
f 4 42 43
f 64 38 20
f 20 55 56
f 19 2 1
f 19 22 2
f 20 62 63
f 63 64 20
f 20 58 59
f 59 60 20
f 61 62 20
f 20 60 61
f 20 36 52
f 52 53 20
f 54 55 20
f 20 53 54
f 57 58 20
f 20 56 57
f 26 27 2
f 2 25 26
f 2 22 23
f 18 19 1
f 35 36 2
f 2 34 35
f 2 32 33
f 33 34 2
f 2 27 28
f 28 29 2
f 2 29 30
f 24 25 2
f 2 23 24
f 1 16 17
f 17 18 1
f 31 32 2
f 2 30 31
f 21 3 1
f 1 2 21
f 2 20 21
f 21 20 51
f 1 3 37
f 37 4 1
f 51 20 37
f 37 20 4
f 3 21 37
f 37 21 51
f 10 9 31
f 31 39 38
f 31 63 62
f 31 14 13
f 31 48 47
f 31 6 5
f 16 15 31
f 31 11 10
f 31 45 44
f 44 43 31
f 58 57 31
f 7 6 31
f 31 23 22
f 31 8 7
f 13 12 31
f 5 50 31
f 47 46 31
f 41 40 31
f 31 42 41
f 38 64 31
f 62 61 31
f 55 54 31
f 25 24 31
f 9 8 31
f 15 14 31
f 12 11 31
f 31 50 49
f 49 48 31
f 46 45 31
f 40 39 31
f 31 43 42
f 31 33 32
f 31 59 58
f 31 52 36
f 31 56 55
f 27 26 31
f 22 19 31
f 36 35 31
f 31 28 27
f 64 63 31
f 60 59 31
f 31 61 60
f 53 52 31
f 31 54 53
f 31 57 56
f 31 26 25
f 31 17 16
f 19 18 31
f 31 35 34
f 34 33 31
f 29 28 31
f 31 30 29
f 31 24 23
f 18 17 31

