# https://github.com/mikedh/trimesh
v 0.00363667 0.01227160 0.01590000
v 0.00363667 0.01239718 0.01440980
v 0.00248056 0.01239718 0.01440980
v 0.00248056 0.01235374 0.01457273
v 0.00248056 0.01228621 0.01482480
v 0.00248056 0.01200662 0.01586776
v 0.00248056 0.01199793 0.01590000
v 0.00363667 0.01074450 0.01590000
v 0.00363667 0.01074450 0.01440980
v 0.00248056 0.01038019 0.01440980
v 0.00248056 0.01038019 0.01590000
v 0.00346135 0.01038019 0.01590000
v 0.00346135 0.01038019 0.01440980
f 3 1 2
f 4 1 3
f 4 5 1
f 6 7 1
f 1 5 6
f 3 2 9
f 9 10 3
f 9 13 10
f 3 10 6
f 10 11 6
f 6 4 3
f 6 11 7
f 5 4 6
f 8 9 2
f 8 2 1
f 7 11 12
f 12 8 1
f 1 7 12
f 10 13 12
f 12 11 10
f 13 9 12
f 9 8 12

