# https://github.com/mikedh/trimesh
v -0.02251613 -0.01040016 -0.01508492
v -0.02239938 -0.01028643 -0.01589992
v -0.02251544 -0.01043992 -0.01508492
v -0.02251613 -0.01020733 -0.01508492
v -0.02239747 -0.01020733 -0.01589992
v -0.02238847 -0.01046697 -0.01589992
v -0.02251249 -0.01051102 -0.01508492
v -0.02104839 -0.01020733 -0.01508492
v -0.02104839 -0.01020733 -0.01589992
v -0.02236213 -0.01064607 -0.01589992
v -0.02249084 -0.01070242 -0.01508492
v -0.02250262 -0.01061554 -0.01508492
v -0.02250938 -0.01055836 -0.01508492
v -0.02074663 -0.01085181 -0.01508492
v -0.02074663 -0.01085181 -0.01589992
v -0.02232039 -0.01082251 -0.01589992
v -0.02245516 -0.01086718 -0.01508492
v -0.02247248 -0.01078972 -0.01508492
v -0.02074663 -0.01230084 -0.01508492
v -0.02074663 -0.01229981 -0.01589992
v -0.02226357 -0.01099444 -0.01589992
v -0.02241982 -0.01098276 -0.01508492
v -0.02244286 -0.01090981 -0.01508492
v -0.02084936 -0.01227665 -0.01508492
v -0.02084035 -0.01227911 -0.01589992
v -0.02074663 -0.01230084 -0.01511962
v -0.02219220 -0.01116064 -0.01589992
v -0.02234602 -0.01116801 -0.01508492
v -0.02237287 -0.01110449 -0.01508492
v -0.02240440 -0.01102764 -0.01508492
v -0.02089769 -0.01226211 -0.01508492
v -0.02101306 -0.01222501 -0.01589992
v -0.02210680 -0.01131966 -0.01589992
v -0.02229648 -0.01126453 -0.01508492
v -0.02233165 -0.01119773 -0.01508492
v -0.02101669 -0.01222378 -0.01508492
v -0.02135587 -0.01209366 -0.01508492
v -0.02118057 -0.01215616 -0.01589992
v -0.02220502 -0.01141618 -0.01508492
v -0.02224469 -0.01135388 -0.01508492
v -0.02227292 -0.01130798 -0.01508492
v -0.02200789 -0.01147151 -0.01589992
v -0.02146743 -0.01204632 -0.01508492
v -0.02150554 -0.01202788 -0.01508492
v -0.02134149 -0.01207358 -0.01589992
v -0.02218770 -0.01144179 -0.01508492
v -0.02189633 -0.01161413 -0.01589992
v -0.02209502 -0.01156290 -0.01508492
v -0.02214197 -0.01150204 -0.01508492
v -0.02153897 -0.01201046 -0.01508492
v -0.02160843 -0.01197275 -0.01508492
v -0.02165590 -0.01194386 -0.01508492
v -0.02149462 -0.01197685 -0.01589992
v -0.02201516 -0.01165184 -0.01508492
v -0.02206159 -0.01160122 -0.01508492
v -0.02177300 -0.01174652 -0.01589992
v -0.02169834 -0.01191701 -0.01508492
v -0.02174164 -0.01188791 -0.01508492
v -0.02179794 -0.01184570 -0.01508492
v -0.02163857 -0.01186763 -0.01589992
v -0.02198139 -0.01168688 -0.01508492
v -0.02186740 -0.01179139 -0.01508492
v -0.02192994 -0.01173442 -0.01508492
v -0.02184506 -0.01180943 -0.01508492
f 4 2 1
f 2 4 5
f 11 6 10
f 22 16 21
f 21 30 22
f 10 16 17
f 6 11 12
f 12 13 6
f 2 6 7
f 6 13 7
f 18 11 10
f 10 17 18
f 16 22 23
f 23 17 16
f 27 28 21
f 29 30 21
f 21 28 29
f 26 25 20
f 19 25 26
f 32 36 37
f 32 25 31
f 31 36 32
f 60 53 59
f 32 37 38
f 1 2 3
f 2 7 3
f 48 42 47
f 33 42 39
f 42 46 39
f 24 25 19
f 24 31 25
f 64 60 59
f 62 60 64
f 56 60 62
f 56 61 54
f 56 54 47
f 59 53 58
f 44 38 43
f 43 38 37
f 45 38 44
f 45 52 53
f 49 46 42
f 42 48 49
f 47 54 55
f 55 48 47
f 63 56 62
f 61 56 63
f 53 52 57
f 57 58 53
f 52 45 51
f 33 39 40
f 40 41 33
f 34 27 33
f 33 41 34
f 50 45 44
f 50 51 45
f 28 27 35
f 27 34 35
f 9 8 14
f 14 15 9
f 5 4 8
f 8 9 5
f 14 19 26
f 26 15 14
f 26 20 15
f 2 5 45
f 15 20 45
f 45 9 15
f 21 16 45
f 20 25 45
f 45 5 9
f 45 6 2
f 10 6 45
f 45 16 10
f 45 27 21
f 47 42 45
f 45 42 33
f 45 25 32
f 32 38 45
f 33 27 45
f 53 60 45
f 45 56 47
f 60 56 45
f 35 19 14
f 35 4 1
f 14 8 35
f 8 4 35
f 30 29 35
f 35 57 52
f 35 22 30
f 59 58 35
f 54 61 35
f 35 12 11
f 35 55 54
f 11 18 35
f 35 23 22
f 1 3 35
f 35 24 19
f 13 12 35
f 35 7 13
f 35 18 17
f 17 23 35
f 35 29 28
f 46 49 35
f 35 37 36
f 36 31 35
f 35 40 39
f 35 64 59
f 35 3 7
f 44 43 35
f 35 39 46
f 31 24 35
f 62 64 35
f 35 63 62
f 35 43 37
f 35 49 48
f 48 55 35
f 35 50 44
f 61 63 35
f 58 57 35
f 52 51 35
f 41 40 35
f 35 34 41
f 51 50 35

