# https://github.com/mikedh/trimesh
v 0.01267601 0.00137481 0.01440980
v 0.01220616 0.00137481 0.01440980
v 0.01267601 0.00114486 0.01440980
v 0.01267601 0.00137481 -0.01440723
v 0.01220616 0.00114486 0.01440980
v 0.01220616 0.00137481 -0.01440723
v 0.01267601 0.00114486 -0.01439877
v 0.01267601 0.00123645 -0.01440723
v 0.01220616 0.00114486 -0.01439877
v 0.01220616 0.00121401 -0.01440723
f 10 7 9
f 7 10 8
f 5 3 1
f 5 1 2
f 2 1 6
f 1 4 6
f 3 5 7
f 7 5 9
f 10 5 2
f 2 6 10
f 9 5 10
f 1 3 8
f 8 4 1
f 3 7 8
f 8 6 4
f 8 10 6

