# https://github.com/mikedh/trimesh
v -0.00055499 0.00753494 -0.01939966
v -0.00060571 0.00727957 -0.01939966
v -0.00055967 0.00773021 -0.01939966
v -0.00055889 0.00771168 -0.01592925
v -0.00055889 0.00747641 -0.01592925
v -0.00070755 0.00706342 -0.01939966
v -0.00059401 0.00731254 -0.01592925
v -0.00066092 0.00714477 -0.01592925
v -0.00060571 0.00792042 -0.01939966
v -0.00059752 0.00790032 -0.01592925
v -0.00086049 0.00687985 -0.01939966
v -0.00075358 0.00699729 -0.01592925
v -0.00070755 0.00813657 -0.01939966
v -0.00068062 0.00808819 -0.01592925
v -0.00101343 0.00675754 -0.01939966
v -0.00087083 0.00686854 -0.01592925
v -0.00086049 0.00832033 -0.01939966
v -0.00081855 0.00827917 -0.01592925
v -0.00122958 0.00665570 -0.01939966
v -0.00101343 0.00675754 -0.01592925
v -0.00116794 0.00667716 -0.01592925
v -0.00101343 0.00844246 -0.01939966
v -0.00094730 0.00839642 -0.01592925
v -0.00148494 0.00660498 -0.01939966
v -0.00133395 0.00662488 -0.01592925
v -0.00122958 0.00854429 -0.01939966
v -0.00109478 0.00848908 -0.01592925
v -0.00168022 0.00660966 -0.01939966
v -0.00149997 0.00660225 -0.01592925
v -0.00148494 0.00859520 -0.01939966
v -0.00142642 0.00859111 -0.01592925
v -0.00126255 0.00855599 -0.01592925
v -0.00187043 0.00665570 -0.01939966
v -0.00167359 0.00660888 -0.01592925
v -0.00183746 0.00664400 -0.01592925
v -0.00168022 0.00859033 -0.01939966
v -0.00166169 0.00859111 -0.01592925
v -0.00208658 0.00675754 -0.01939966
v -0.00200523 0.00671091 -0.01592925
v -0.00187043 0.00854429 -0.01939966
v -0.00185033 0.00855248 -0.01592925
v -0.00223952 0.00687985 -0.01939966
v -0.00215271 0.00680358 -0.01592925
v -0.00208658 0.00844246 -0.01939966
v -0.00203820 0.00846938 -0.01592925
v -0.00239246 0.00706342 -0.01939966
v -0.00228146 0.00692082 -0.01592925
v -0.00223952 0.00832033 -0.01939966
v -0.00222918 0.00833145 -0.01592925
v -0.00247284 0.00721793 -0.01939966
v -0.00239246 0.00706342 -0.01592925
v -0.00239246 0.00813657 -0.01939966
v -0.00234642 0.00820270 -0.01592925
v -0.00251556 0.00734122 -0.01939966
v -0.00247284 0.00721793 -0.01592925
v -0.00247284 0.00798206 -0.01939966
v -0.00243909 0.00805522 -0.01592925
v -0.00254502 0.00753494 -0.01939966
v -0.00252512 0.00738394 -0.01592925
v -0.00251556 0.00785877 -0.01939966
v -0.00250600 0.00788745 -0.01592925
v -0.00254034 0.00773021 -0.01939966
v -0.00254775 0.00754996 -0.01592925
v -0.00254112 0.00772358 -0.01592925
f 3 4 1
f 22 23 17
f 1 4 5
f 13 14 9
f 17 23 18
f 18 13 17
f 14 13 18
f 9 14 10
f 10 3 9
f 4 3 10
f 31 26 30
f 31 32 26
f 30 37 31
f 27 22 26
f 26 32 27
f 23 22 27
f 63 62 58
f 54 55 59
f 59 58 54
f 63 58 59
f 50 55 54
f 56 61 57
f 60 61 56
f 64 62 63
f 64 60 62
f 61 60 64
f 44 45 40
f 42 43 47
f 47 46 42
f 51 46 47
f 53 48 52
f 52 57 53
f 56 57 52
f 44 48 49
f 49 45 44
f 49 48 53
f 36 37 30
f 41 40 45
f 41 36 40
f 37 36 41
f 5 7 2
f 1 5 2
f 2 7 8
f 8 6 2
f 12 6 8
f 21 19 15
f 38 39 43
f 38 43 42
f 35 28 34
f 28 29 34
f 24 29 28
f 25 19 21
f 25 24 19
f 29 24 25
f 16 15 11
f 11 12 16
f 6 12 11
f 21 15 20
f 20 15 16
f 35 39 33
f 39 38 33
f 33 28 35
f 51 55 50
f 50 46 51
f 23 27 20
f 20 5 4
f 4 10 20
f 53 57 20
f 20 18 23
f 20 64 63
f 8 7 20
f 20 39 35
f 20 25 21
f 20 31 37
f 20 55 51
f 63 59 20
f 20 49 53
f 51 47 20
f 14 18 20
f 20 10 14
f 32 31 20
f 20 27 32
f 20 59 55
f 20 57 61
f 61 64 20
f 35 34 20
f 20 7 5
f 37 41 20
f 20 47 43
f 43 39 20
f 20 12 8
f 45 49 20
f 20 41 45
f 16 12 20
f 20 34 29
f 29 25 20
f 42 46 33
f 33 50 54
f 56 52 33
f 30 26 33
f 33 15 19
f 33 3 1
f 33 22 17
f 33 36 30
f 9 3 33
f 26 22 33
f 17 13 33
f 54 58 33
f 33 60 56
f 1 2 33
f 33 38 42
f 33 13 9
f 33 58 62
f 46 50 33
f 62 60 33
f 33 48 44
f 44 40 33
f 33 52 48
f 40 36 33
f 33 2 6
f 19 24 33
f 6 11 33
f 33 24 28
f 33 11 15

