# https://github.com/mikedh/trimesh
v -0.00343702 0.01199792 0.01590000
v -0.00343702 0.00700991 0.01590000
v -0.00343702 0.01211401 0.01546693
v -0.01308665 0.01199792 0.01590000
v -0.01308665 0.00700991 0.01590000
v -0.00343702 0.00700991 -0.01439948
v -0.00343702 0.01236359 0.01453536
v -0.01308665 0.01234934 0.01458832
v -0.01308665 0.00700991 -0.01592925
v -0.00405004 0.00700991 -0.01589810
v -0.00343702 0.01009991 -0.01589810
v -0.00343702 0.01240000 0.01439827
v -0.01308665 0.01240000 0.01439827
v -0.01308665 0.00920024 -0.01592925
v -0.00410483 0.00700991 -0.01592925
v -0.00343702 0.01199792 -0.01589810
v -0.00343702 0.01240000 -0.01439948
v -0.01308665 0.01240000 -0.01439948
v -0.01308665 0.01199792 -0.01589810
v -0.00410483 0.00920024 -0.01592925
v -0.01308665 0.01205174 -0.01569870
v -0.01308665 0.01208868 -0.01556161
v -0.00343702 0.01204910 -0.01570804
v -0.00343702 0.01234829 -0.01459265
v -0.00343702 0.01222218 -0.01506311
f 13 7 12
f 4 1 3
f 7 13 8
f 8 3 7
f 4 3 8
f 24 18 17
f 24 22 18
f 21 16 19
f 21 22 16
f 10 11 6
f 15 11 10
f 16 22 23
f 22 24 25
f 25 23 22
f 5 2 1
f 5 1 4
f 13 12 17
f 17 18 13
f 21 5 4
f 9 5 21
f 18 22 21
f 4 8 21
f 21 13 18
f 21 8 13
f 21 14 9
f 19 14 21
f 2 5 10
f 10 5 9
f 10 6 2
f 9 15 10
f 16 11 20
f 20 11 15
f 20 14 19
f 19 16 20
f 20 15 9
f 9 14 20
f 1 2 25
f 2 6 25
f 17 12 25
f 6 11 25
f 12 7 25
f 25 3 1
f 7 3 25
f 25 11 16
f 25 24 17
f 16 23 25

