# https://github.com/mikedh/trimesh
v -0.01898207 0.00992140 0.01461750
v -0.01910163 0.00992150 -0.01590000
v -0.01876375 0.00992150 -0.01590000
v -0.01898207 0.00992140 0.01519714
v -0.01909733 0.00992140 0.01554863
v -0.01910160 0.00992150 0.01461750
v -0.01910163 0.01095961 0.01461750
v -0.01910163 0.01095992 -0.01590000
v -0.01876375 0.01095992 -0.01590000
v -0.01876375 0.00992150 0.01439551
v -0.01898438 0.00992140 0.01524956
v -0.01906429 0.00992140 0.01549930
v -0.01908337 0.00996511 0.01554246
v -0.01910160 0.00996837 0.01556713
v -0.01910160 0.01000659 0.01557329
v -0.01910160 0.01025019 0.01559796
v -0.01910160 0.01053160 0.01556713
v -0.01910160 0.01061690 0.01554246
v -0.01910160 0.01067810 0.01552088
v -0.01910160 0.01072751 0.01549930
v -0.01910160 0.01080782 0.01545305
v -0.01910160 0.01083161 0.01543455
v -0.01910160 0.01086516 0.01540372
v -0.01910160 0.01090624 0.01535439
v -0.01910160 0.01093582 0.01530197
v -0.01910160 0.01095361 0.01524956
v -0.01910160 0.01095961 0.01519714
v -0.01910163 0.01095992 0.01439551
v -0.01876375 0.01095992 0.01439551
v -0.01895912 0.01025019 0.01530197
v -0.01897043 0.01025019 0.01535439
v -0.01897701 0.01009941 0.01535439
v -0.01899672 0.00994986 0.01535439
v -0.01900300 0.00992140 0.01535439
v -0.01899136 0.00992140 0.01530197
v -0.01903955 0.00992140 0.01545305
v -0.01905572 0.00996023 0.01549930
v -0.01906469 0.01010714 0.01554246
v -0.01903667 0.01010470 0.01549930
v -0.01909902 0.01011009 0.01558563
v -0.01909902 0.01039028 0.01558563
v -0.01905847 0.01025019 0.01554246
v -0.01906469 0.01039323 0.01554246
v -0.01908337 0.01053485 0.01554246
v -0.01908724 0.01068196 0.01549930
v -0.01906386 0.01068816 0.01545305
v -0.01908949 0.01083599 0.01540372
v -0.01904455 0.01069335 0.01540372
v -0.01901223 0.01054746 0.01540372
v -0.01899672 0.01055010 0.01535439
v -0.01897701 0.01040096 0.01535439
v -0.01899265 0.01039953 0.01540372
v -0.01898617 0.01025019 0.01540372
v -0.01899265 0.01010084 0.01540372
v -0.01901223 0.00995251 0.01540372
v -0.01901908 0.00992140 0.01540372
v -0.01903191 0.00995607 0.01545305
v -0.01903032 0.01025019 0.01549930
v -0.01901266 0.01010257 0.01545305
v -0.01900618 0.01025019 0.01545305
v -0.01903667 0.01039567 0.01549930
v -0.01905572 0.01053973 0.01549930
v -0.01903191 0.01054390 0.01545305
v -0.01901266 0.01039780 0.01545305
f 2 3 1
f 1 5 2
f 2 5 6
f 6 7 2
f 14 6 5
f 7 6 14
f 29 28 27
f 27 28 7
f 30 10 29
f 29 31 30
f 31 10 30
f 26 27 7
f 29 27 26
f 51 31 29
f 48 49 29
f 10 33 34
f 32 10 31
f 32 33 10
f 15 40 16
f 16 7 15
f 7 14 15
f 7 24 25
f 25 26 7
f 25 24 29
f 29 26 25
f 29 49 50
f 50 51 29
f 47 48 29
f 52 50 49
f 51 50 52
f 31 51 52
f 29 24 23
f 23 47 29
f 23 24 7
f 63 52 49
f 64 52 63
f 43 41 16
f 11 4 10
f 33 32 54
f 54 32 31
f 38 15 14
f 40 15 38
f 16 40 38
f 44 43 61
f 64 63 61
f 48 47 46
f 49 48 46
f 46 63 49
f 62 45 44
f 44 61 62
f 62 61 63
f 63 46 62
f 62 46 45
f 47 23 22
f 22 23 7
f 44 45 18
f 10 34 35
f 35 11 10
f 33 54 55
f 60 52 64
f 64 61 60
f 36 37 12
f 13 14 5
f 5 12 13
f 13 12 37
f 13 38 14
f 39 38 13
f 13 37 39
f 59 60 39
f 54 60 59
f 21 46 47
f 47 22 21
f 21 22 7
f 44 18 17
f 41 43 17
f 17 43 44
f 16 41 17
f 17 7 16
f 17 18 7
f 56 34 33
f 33 55 56
f 53 54 31
f 53 60 54
f 31 52 53
f 52 60 53
f 58 38 39
f 39 60 58
f 58 61 43
f 58 60 61
f 36 56 57
f 57 56 55
f 57 37 36
f 57 55 54
f 54 59 57
f 39 37 57
f 57 59 39
f 45 46 20
f 46 21 20
f 20 21 7
f 42 43 16
f 42 58 43
f 16 38 42
f 38 58 42
f 19 18 45
f 45 20 19
f 7 18 19
f 19 20 7
f 2 8 9
f 9 3 2
f 28 9 8
f 29 9 28
f 28 8 2
f 2 7 28
f 3 9 10
f 10 9 29
f 3 10 4
f 4 1 3
f 1 4 56
f 5 1 56
f 56 35 34
f 56 12 5
f 4 11 56
f 11 35 56
f 36 12 56

