# https://github.com/mikedh/trimesh
v -0.01743352 -0.00924747 -0.01589810
v -0.01743352 -0.00752748 -0.01589810
v -0.01739996 -0.00919999 -0.01592925
v -0.01663796 -0.00924747 -0.01589810
v -0.01743352 -0.00924747 0.01590000
v -0.01739996 -0.00752748 -0.01592925
v -0.01743352 -0.00752748 0.01590000
v -0.01723744 -0.00919999 -0.01592925
v -0.01663796 -0.00919999 -0.01592614
v -0.01663796 -0.00924747 0.01590000
v -0.01663796 -0.00752748 -0.01592925
v -0.01663796 -0.00752748 0.01590000
v -0.01663796 -0.00918619 -0.01592925
f 13 9 8
f 8 9 4
f 10 5 1
f 1 4 10
f 1 5 7
f 7 2 1
f 5 10 7
f 7 10 12
f 2 7 6
f 6 7 12
f 12 11 6
f 1 2 6
f 6 3 1
f 9 10 4
f 12 10 9
f 9 11 12
f 9 13 11
f 11 13 8
f 3 6 8
f 8 6 11
f 8 4 1
f 1 3 8

