# https://github.com/mikedh/trimesh
v -0.00405000 0.01009497 -0.01453802
v -0.00405000 0.00700968 -0.01453802
v -0.00405000 0.01009497 -0.01589997
v -0.01308577 0.01009497 -0.01453802
v -0.00405000 0.00700968 -0.01589997
v -0.01308577 0.00700968 -0.01453802
v -0.00410484 0.00919974 -0.01592925
v -0.01308577 0.01009497 -0.01589997
v -0.00410484 0.00700968 -0.01592925
v -0.01308577 0.00700968 -0.01592925
v -0.01308577 0.00919974 -0.01592925
f 6 2 1
f 6 1 4
f 4 1 8
f 1 3 8
f 2 6 5
f 5 6 10
f 10 9 5
f 1 2 5
f 5 3 1
f 7 3 5
f 5 9 7
f 11 6 4
f 10 6 11
f 4 8 11
f 11 9 10
f 7 9 11
f 11 8 3
f 11 3 7

