# https://github.com/mikedh/trimesh
v 0.00361153 -0.00456108 0.01700245
v 0.00371066 -0.00475170 0.01700245
v 0.00361153 -0.00456108 0.01869984
v 0.00636338 -0.00456108 0.01700245
v 0.00383997 -0.00499999 0.01700245
v 0.00383997 -0.00499999 0.01869984
v 0.00636338 -0.00456108 0.01869984
v 0.00636123 -0.00533230 0.01700245
v 0.00405145 -0.00533230 0.01700245
v 0.00405145 -0.00533230 0.01869984
v 0.00636123 -0.00533230 0.01869984
f 2 3 1
f 2 6 3
f 2 5 6
f 1 3 7
f 7 4 1
f 4 7 11
f 11 8 4
f 1 4 2
f 4 8 2
f 8 9 2
f 9 5 2
f 10 7 3
f 3 6 10
f 10 11 7
f 10 5 9
f 6 5 10
f 10 9 8
f 8 11 10

