# https://github.com/mikedh/trimesh
v -0.01494065 -0.00679593 0.01403833
v -0.01732808 -0.00679593 0.01403833
v -0.01494065 -0.00703674 0.01403833
v -0.01494065 -0.00679593 -0.01434866
v -0.01732808 -0.00703674 0.01403833
v -0.01732808 -0.00679593 -0.01434866
v -0.01494065 -0.00703674 -0.01434589
v -0.01494065 -0.00700506 -0.01434866
v -0.01732808 -0.00703674 -0.01434866
v -0.01560224 -0.00703674 -0.01434866
f 10 8 7
f 5 3 1
f 5 1 2
f 2 1 6
f 1 4 6
f 6 5 2
f 9 5 6
f 1 3 8
f 8 4 1
f 3 7 8
f 3 5 10
f 10 5 9
f 10 7 3
f 10 6 4
f 9 6 10
f 4 8 10

