# https://github.com/mikedh/trimesh
v -0.02074654 -0.01199789 0.01489046
v -0.02069992 -0.01199988 0.01489046
v -0.02074654 -0.01199789 0.01519999
v -0.02074654 -0.01114046 0.01489046
v -0.02069992 -0.01199988 0.01519999
v -0.02064096 -0.01199740 0.01489046
v -0.02069992 -0.01199826 0.01523895
v -0.02073468 -0.01199678 0.01523895
v -0.02074654 -0.01199616 0.01523895
v -0.02074654 -0.01144991 0.01523895
v -0.02044991 -0.01073343 0.01523895
v -0.02044991 -0.01073343 0.01489046
v -0.02054743 -0.01199331 0.01519999
v -0.02054743 -0.01199331 0.01489046
v -0.02054763 -0.01199157 0.01523895
v -0.01972907 -0.01073343 0.01523895
v -0.01972907 -0.01073343 0.01489046
v -0.02048886 -0.01198562 0.01489046
v -0.02039603 -0.01197335 0.01519999
v -0.02039633 -0.01197173 0.01523895
v -0.01972907 -0.01170233 0.01523895
v -0.01972907 -0.01170431 0.01489046
v -0.02039603 -0.01197335 0.01489046
v -0.02024702 -0.01194037 0.01519999
v -0.02035838 -0.01196330 0.01523895
v -0.01979302 -0.01174312 0.01523895
v -0.01972907 -0.01170369 0.01521320
v -0.01972907 -0.01170431 0.01519999
v -0.01978794 -0.01174188 0.01489046
v -0.02024702 -0.01194037 0.01489046
v -0.02010149 -0.01189437 0.01519999
v -0.02010209 -0.01189276 0.01523895
v -0.02021046 -0.01192698 0.01523895
v -0.02024742 -0.01193863 0.01523895
v -0.01982589 -0.01176407 0.01523895
v -0.01982509 -0.01176543 0.01519999
v -0.01982509 -0.01176543 0.01489046
v -0.02010149 -0.01189437 0.01489046
v -0.02004691 -0.01187181 0.01489046
v -0.01996045 -0.01183598 0.01519999
v -0.01996115 -0.01183449 0.01523895
v -0.01990806 -0.01180870 0.01489046
v -0.01996045 -0.01183598 0.01489046
f 4 10 11
f 11 12 4
f 9 3 8
f 8 3 7
f 24 34 25
f 25 20 24
f 7 13 15
f 15 13 20
f 14 13 6
f 5 13 7
f 7 3 5
f 2 6 5
f 5 6 13
f 18 13 14
f 20 13 19
f 24 20 19
f 19 18 23
f 13 18 19
f 28 27 36
f 36 27 35
f 33 34 24
f 24 32 33
f 31 32 24
f 41 32 31
f 26 27 21
f 35 27 26
f 29 22 28
f 28 36 29
f 40 35 41
f 40 36 35
f 41 31 40
f 36 40 42
f 37 29 36
f 36 42 37
f 39 40 31
f 43 42 40
f 40 39 43
f 38 39 31
f 17 11 16
f 17 12 11
f 3 9 10
f 3 4 1
f 10 4 3
f 5 3 1
f 1 2 5
f 16 21 27
f 27 17 16
f 28 22 27
f 27 22 17
f 11 10 26
f 16 11 26
f 26 21 16
f 26 25 34
f 10 9 26
f 7 15 26
f 26 8 7
f 34 33 26
f 9 8 26
f 20 25 26
f 41 35 26
f 26 32 41
f 26 15 20
f 26 33 32
f 24 19 30
f 30 19 23
f 12 17 38
f 17 22 38
f 1 4 38
f 38 4 12
f 14 6 38
f 23 18 38
f 38 2 1
f 38 6 2
f 38 18 14
f 22 29 38
f 38 30 23
f 29 37 38
f 38 37 42
f 42 43 38
f 38 43 39
f 24 30 38
f 38 31 24

