# https://github.com/mikedh/trimesh
v -0.00235588 0.00700930 -0.01440195
v -0.00231603 0.00695720 -0.01440195
v -0.00257755 0.00620285 -0.01439988
v -0.00257755 0.00700938 -0.01439988
v -0.00075232 0.00700938 -0.01440195
v -0.00225696 0.00689286 -0.01440195
v -0.00257755 0.00620285 -0.01289051
v -0.00219268 0.00683388 -0.01440195
v -0.00212340 0.00678083 -0.01440195
v -0.00204991 0.00673393 -0.01440195
v -0.00197261 0.00669367 -0.01440195
v -0.00189191 0.00666028 -0.01440195
v -0.00180881 0.00663407 -0.01440195
v -0.00172351 0.00661512 -0.01440195
v -0.00163700 0.00660383 -0.01440195
v -0.00155010 0.00660004 -0.01440195
v -0.00053206 0.00620285 -0.01439988
v -0.00257755 0.00700938 -0.01289051
v -0.00074411 0.00700938 -0.01440195
v -0.00053206 0.00620285 -0.01289051
v -0.00146299 0.00660383 -0.01440195
v -0.00105009 0.00673393 -0.01440195
v -0.00097660 0.00678083 -0.01440195
v -0.00090731 0.00683388 -0.01440195
v -0.00084303 0.00689286 -0.01440195
v -0.00078396 0.00695720 -0.01440195
v -0.00053206 0.00700938 -0.01439988
v -0.00137649 0.00661512 -0.01440195
v -0.00129118 0.00663407 -0.01440195
v -0.00120808 0.00666028 -0.01440195
v -0.00112738 0.00669367 -0.01440195
v -0.00053206 0.00700938 -0.01289051
f 3 4 1
f 16 17 3
f 17 19 27
f 5 1 4
f 6 8 3
f 10 11 3
f 15 16 3
f 3 14 15
f 13 14 3
f 17 16 21
f 21 28 17
f 17 28 29
f 17 24 25
f 17 31 22
f 3 1 2
f 2 6 3
f 3 8 9
f 9 10 3
f 3 11 12
f 12 13 3
f 30 31 17
f 17 29 30
f 26 19 17
f 17 25 26
f 23 24 17
f 17 22 23
f 20 7 3
f 3 17 20
f 3 7 18
f 18 4 3
f 7 20 18
f 18 20 32
f 27 20 17
f 32 20 27
f 4 18 5
f 5 18 32
f 32 27 5
f 5 27 19
f 23 5 19
f 11 10 23
f 23 12 11
f 23 9 8
f 1 5 23
f 23 22 31
f 16 15 23
f 23 21 16
f 31 30 23
f 8 6 23
f 23 2 1
f 23 15 14
f 14 13 23
f 28 21 23
f 23 29 28
f 23 25 24
f 19 26 23
f 6 2 23
f 10 9 23
f 13 12 23
f 23 30 29
f 23 26 25

