# https://github.com/mikedh/trimesh
v -0.02045227 0.00865823 0.01459349
v -0.02045108 0.00967057 0.01459349
v -0.01996741 0.00866124 0.01459349
v -0.02009476 0.00865823 0.01542909
v -0.02020135 0.00865823 0.01549994
v -0.02043586 0.00866285 0.01558508
v -0.02044108 0.00871822 0.01564271
v -0.02044636 0.00877790 0.01569136
v -0.02045120 0.00883909 0.01572844
v -0.02045227 0.00894038 0.01577036
v -0.01980982 0.00968474 0.01459349
v -0.02044995 0.00968474 0.01579988
v -0.01983805 0.00872816 0.01459349
v -0.01996741 0.00866124 0.01520000
v -0.01999842 0.00867049 0.01535516
v -0.01997999 0.00870596 0.01542920
v -0.02000037 0.00874967 0.01552202
v -0.02013375 0.00869440 0.01552202
v -0.01997634 0.00866376 0.01527911
v -0.02028600 0.00867762 0.01556347
v -0.02029751 0.00874816 0.01564188
v -0.02031895 0.00882824 0.01570541
v -0.02034291 0.00891767 0.01575371
v -0.02025349 0.00902358 0.01577934
v -0.02036870 0.00901393 0.01578500
v -0.02045152 0.00904136 0.01579351
v -0.01980982 0.00886020 0.01552745
v -0.01981774 0.00874052 0.01522527
v -0.01980982 0.00968474 0.01579988
v -0.02040743 0.00911110 0.01579870
v -0.02030663 0.00916947 0.01579988
v -0.01982114 0.00875429 0.01532836
v -0.01982900 0.00878624 0.01542767
v -0.01987233 0.00881639 0.01552202
v -0.01989528 0.00885618 0.01558555
v -0.02002728 0.00880734 0.01560492
v -0.02015545 0.00875419 0.01560492
v -0.02017469 0.00880704 0.01565948
v -0.02019645 0.00886683 0.01570541
v -0.02022821 0.00895394 0.01575371
v -0.02004740 0.00911974 0.01577934
v -0.02016991 0.00911341 0.01579067
v -0.02013777 0.00904448 0.01577154
v -0.02027984 0.00909592 0.01579410
v -0.01980982 0.00891054 0.01558555
v -0.01996087 0.00936893 0.01579988
v -0.01981447 0.00951483 0.01579976
v -0.01981466 0.00919892 0.01575560
v -0.01981101 0.00896982 0.01563810
v -0.02020286 0.00918404 0.01579870
v -0.02012507 0.00925398 0.01579988
v -0.01992257 0.00890350 0.01564188
v -0.02005979 0.00887718 0.01567542
v -0.02009709 0.00895696 0.01573163
v -0.02001036 0.00905553 0.01575371
v -0.01993704 0.00916033 0.01577154
v -0.01998068 0.00922253 0.01579067
v -0.02008596 0.00918626 0.01579410
v -0.02002546 0.00928643 0.01579870
v -0.01991056 0.00930904 0.01579410
v -0.01982491 0.00939536 0.01579398
v -0.01984994 0.00907402 0.01571699
v -0.01983547 0.00926855 0.01577815
v -0.01996402 0.00897525 0.01570541
f 2 12 11
f 11 12 29
f 28 13 11
f 11 27 28
f 13 28 14
f 13 14 3
f 5 6 1
f 1 3 4
f 4 5 1
f 4 3 14
f 12 30 31
f 29 48 49
f 6 5 20
f 21 37 38
f 6 20 21
f 21 20 37
f 29 49 45
f 47 48 29
f 47 61 48
f 51 31 50
f 50 31 30
f 48 61 63
f 10 2 1
f 12 2 10
f 32 28 27
f 19 4 14
f 19 15 4
f 19 32 15
f 19 14 28
f 28 32 19
f 5 4 18
f 4 17 18
f 18 17 37
f 18 20 5
f 37 20 18
f 6 21 7
f 7 21 8
f 1 6 7
f 7 8 1
f 38 37 36
f 37 17 36
f 46 47 29
f 44 50 30
f 38 36 53
f 53 36 52
f 62 49 48
f 1 8 9
f 9 10 1
f 33 32 27
f 35 36 17
f 27 45 35
f 52 36 35
f 35 45 49
f 49 52 35
f 61 47 60
f 47 46 60
f 60 63 61
f 42 44 25
f 48 63 56
f 38 53 39
f 39 53 54
f 54 53 64
f 64 53 52
f 64 52 49
f 49 62 64
f 34 33 27
f 27 35 34
f 34 35 17
f 16 17 4
f 4 15 16
f 16 34 17
f 33 34 16
f 15 32 16
f 32 33 16
f 42 41 57
f 63 60 57
f 57 56 63
f 41 56 57
f 59 46 51
f 59 60 46
f 51 50 59
f 24 41 42
f 42 25 24
f 24 25 10
f 26 44 30
f 26 25 44
f 10 25 26
f 26 30 12
f 12 10 26
f 55 56 41
f 54 64 55
f 55 64 62
f 55 62 48
f 48 56 55
f 22 9 8
f 38 39 22
f 22 21 38
f 8 21 22
f 58 59 50
f 42 57 58
f 58 57 60
f 60 59 58
f 58 44 42
f 50 44 58
f 9 22 23
f 10 9 23
f 23 24 10
f 23 22 39
f 54 55 40
f 24 23 40
f 40 39 54
f 40 23 39
f 41 24 43
f 43 55 41
f 24 40 43
f 43 40 55
f 3 2 11
f 1 2 3
f 11 13 3
f 11 29 45
f 45 27 11
f 12 31 46
f 46 29 12
f 46 31 51

