# https://github.com/mikedh/trimesh
v 0.00248056 -0.00699974 0.01613297
v 0.00366683 -0.00699997 0.01613289
v 0.00248056 -0.00699974 0.01699992
v 0.00248056 -0.00467993 0.01613297
v 0.00366683 -0.00699997 0.01689068
v 0.00366683 -0.00666636 0.01613289
v 0.00392762 -0.00699997 0.01613289
v 0.00362915 -0.00699974 0.01699992
v 0.00248056 -0.00521339 0.01699992
v 0.00366683 -0.00699974 0.01689059
f 7 4 10
f 4 8 10
f 3 8 9
f 9 8 4
f 7 2 6
f 6 4 7
f 5 8 3
f 5 2 7
f 7 10 5
f 5 10 8
f 1 3 9
f 9 4 1
f 1 4 6
f 6 2 1
f 1 2 5
f 5 3 1

