# https://github.com/mikedh/trimesh
v 0.00094347 -0.00679593 0.00954740
v -0.00069696 -0.00679593 0.00954740
v 0.00094347 -0.00703674 0.00954740
v 0.00094347 -0.00679593 -0.01439766
v -0.00069696 -0.00703674 0.00954740
v -0.00069696 -0.00679593 -0.01419839
v 0.00094347 -0.00703674 -0.01439766
v -0.00069552 -0.00679593 -0.01439766
v -0.00069696 -0.00703674 -0.01439766
v -0.00069696 -0.00679682 -0.01439766
f 8 10 6
f 5 3 1
f 5 1 2
f 1 3 7
f 7 4 1
f 3 5 7
f 7 5 9
f 10 8 4
f 10 7 9
f 4 7 10
f 2 1 6
f 1 4 6
f 4 8 6
f 6 5 2
f 9 5 6
f 6 10 9

