# https://github.com/mikedh/trimesh
v -0.00254765 -0.00765030 -0.01592925
v -0.00254843 -0.00756432 -0.01442002
v -0.00254687 -0.00753367 -0.01592925
v -0.00253456 -0.00777375 -0.01592925
v -0.00254589 -0.00768725 -0.01442002
v -0.00254648 -0.00752758 -0.01465698
v -0.00070773 -0.00752758 -0.01442002
v -0.00055215 -0.00755719 -0.01592925
v -0.00251560 -0.00785899 -0.01592925
v -0.00253456 -0.00777375 -0.01442002
v -0.00055176 -0.00756328 -0.01442002
v -0.00055411 -0.00768725 -0.01442002
v -0.00055880 -0.00772389 -0.01592925
v -0.00247026 -0.00798863 -0.01592925
v -0.00248941 -0.00794213 -0.01442002
v -0.00251560 -0.00785899 -0.01442002
v -0.00056544 -0.00777375 -0.01442002
v -0.00058147 -0.00784587 -0.01592925
v -0.00241573 -0.00809990 -0.01592925
v -0.00245618 -0.00802275 -0.01442002
v -0.00058440 -0.00785899 -0.01442002
v -0.00060649 -0.00792943 -0.01592925
v -0.00241573 -0.00809990 -0.01442002
v -0.00236902 -0.00817349 -0.01592925
v -0.00061059 -0.00794213 -0.01442002
v -0.00064382 -0.00802275 -0.01592925
v -0.00236902 -0.00817349 -0.01442002
v -0.00231585 -0.00824267 -0.01592925
v -0.00064382 -0.00802275 -0.01442002
v -0.00068427 -0.00809990 -0.01592925
v -0.00231585 -0.00824267 -0.01442002
v -0.00225683 -0.00830702 -0.01592925
v -0.00068427 -0.00809990 -0.01442002
v -0.00073099 -0.00817349 -0.01592925
v -0.00225683 -0.00830702 -0.01442002
v -0.00215266 -0.00839656 -0.01592925
v -0.00219253 -0.00836591 -0.01442002
v -0.00073099 -0.00817349 -0.01442002
v -0.00078415 -0.00824267 -0.01592925
v -0.00204966 -0.00846584 -0.01442002
v -0.00212334 -0.00841903 -0.01442002
v -0.00200510 -0.00848915 -0.01592925
v -0.00078415 -0.00824267 -0.01442002
v -0.00084317 -0.00830702 -0.01592925
v -0.00193219 -0.00852284 -0.01442002
v -0.00189193 -0.00853954 -0.01592925
v -0.00084317 -0.00830702 -0.01442002
v -0.00090747 -0.00836591 -0.01592925
v -0.00180867 -0.00856578 -0.01442002
v -0.00180867 -0.00856578 -0.01592925
v -0.00090747 -0.00836591 -0.01442002
v -0.00097666 -0.00841903 -0.01592925
v -0.00168026 -0.00859034 -0.01442002
v -0.00168026 -0.00859034 -0.01592925
v -0.00101340 -0.00844243 -0.01442002
v -0.00108298 -0.00848295 -0.01592925
v -0.00155010 -0.00860000 -0.01442002
v -0.00155010 -0.00860000 -0.01592925
v -0.00116781 -0.00852284 -0.01442002
v -0.00124325 -0.00855066 -0.01592925
v -0.00144983 -0.00859433 -0.01592925
v -0.00141974 -0.00859034 -0.01442002
v -0.00129133 -0.00856578 -0.01442002
v -0.00136345 -0.00858184 -0.01592925
f 3 1 2
f 8 7 11
f 3 7 8
f 2 7 6
f 6 3 2
f 6 7 3
f 2 1 5
f 26 22 25
f 46 49 45
f 15 16 9
f 35 32 37
f 57 58 61
f 59 63 60
f 60 63 64
f 29 26 25
f 25 22 21
f 49 46 50
f 42 46 45
f 10 5 4
f 4 5 1
f 41 37 36
f 36 37 32
f 52 48 51
f 51 55 52
f 57 61 62
f 62 61 64
f 64 63 62
f 59 60 56
f 56 55 59
f 52 55 56
f 17 13 12
f 12 13 8
f 12 8 11
f 17 21 18
f 18 13 17
f 18 21 22
f 40 42 45
f 40 36 42
f 41 36 40
f 14 20 15
f 15 9 14
f 19 23 20
f 20 14 19
f 4 16 10
f 4 9 16
f 51 48 44
f 44 47 51
f 39 43 47
f 39 47 44
f 38 43 39
f 39 34 38
f 57 53 54
f 54 58 57
f 54 53 49
f 49 50 54
f 31 7 2
f 15 20 31
f 47 43 31
f 31 16 15
f 11 7 31
f 31 53 57
f 31 23 27
f 38 33 31
f 35 37 31
f 2 5 31
f 31 51 47
f 45 49 31
f 31 12 11
f 31 5 10
f 10 16 31
f 31 43 38
f 31 29 25
f 49 53 31
f 25 21 31
f 31 37 41
f 59 55 31
f 31 63 59
f 57 62 31
f 31 21 17
f 31 40 45
f 55 51 31
f 31 62 63
f 31 33 29
f 17 12 31
f 41 40 31
f 20 23 31
f 31 28 32
f 31 32 35
f 24 28 31
f 31 27 24
f 29 33 30
f 26 29 30
f 38 34 30
f 30 33 38
f 8 13 19
f 1 3 19
f 44 48 19
f 3 8 19
f 19 36 32
f 52 56 19
f 19 4 1
f 32 28 19
f 19 61 58
f 22 26 19
f 19 18 22
f 58 54 19
f 19 48 52
f 64 61 19
f 19 60 64
f 26 30 19
f 19 39 44
f 19 50 46
f 46 42 19
f 19 28 24
f 9 4 19
f 42 36 19
f 19 56 60
f 34 39 19
f 13 18 19
f 19 54 50
f 19 14 9
f 19 30 34
f 27 23 19
f 24 27 19

