# https://github.com/mikedh/trimesh
v 0.01554196 0.00137481 0.01439723
v 0.01461292 0.00137481 0.01440005
v 0.01554196 0.00114486 0.01439723
v 0.01554196 0.00137481 -0.01439877
v 0.01461292 0.00114486 0.01439723
v 0.01461292 0.00137481 -0.01440723
v 0.01554196 0.00114486 -0.01439877
v 0.01526981 0.00114486 -0.01440723
v 0.01521888 0.00126785 -0.01440723
v 0.01516321 0.00137481 -0.01440723
v 0.01461292 0.00114486 -0.01440723
f 3 1 2
f 5 3 2
f 7 8 4
f 9 10 4
f 4 8 9
f 2 6 11
f 11 5 2
f 10 6 2
f 2 1 10
f 1 4 10
f 5 11 7
f 3 5 7
f 7 11 8
f 7 4 1
f 1 3 7
f 9 11 6
f 8 11 9
f 6 10 9

