# https://github.com/mikedh/trimesh
v -0.01972899 -0.01050009 0.01522271
v -0.01972899 -0.01050009 0.01580000
v -0.01949995 -0.01020747 0.01522271
v -0.01938411 -0.01139706 0.01524684
v -0.01960337 -0.01160807 0.01524684
v -0.01971574 -0.01168592 0.01528510
v -0.01972597 -0.01164772 0.01542942
v -0.01946290 -0.01023424 0.01579203
v -0.01972490 -0.01141400 0.01567252
v -0.01970877 -0.01126942 0.01573208
v -0.01968248 -0.01112007 0.01576706
v -0.01963838 -0.01090401 0.01578830
v -0.01961436 -0.01069981 0.01579881
v -0.01927349 -0.01022889 0.01572840
v -0.01911794 -0.01022889 0.01561307
v -0.01900255 -0.01022889 0.01543371
v -0.01895504 -0.01027317 0.01524588
v -0.01902270 -0.01073382 0.01524684
v -0.01907127 -0.01087825 0.01524684
v -0.01913218 -0.01101747 0.01524684
v -0.01946631 -0.01148361 0.01527085
v -0.01927099 -0.01125046 0.01527085
v -0.01938108 -0.01135654 0.01538031
v -0.01960224 -0.01155814 0.01541699
v -0.01970043 -0.01155018 0.01554051
v -0.01943745 -0.01036102 0.01578683
v -0.01949639 -0.01054698 0.01579101
v -0.01957299 -0.01137680 0.01559787
v -0.01948041 -0.01127318 0.01560493
v -0.01956428 -0.01120271 0.01569755
v -0.01957004 -0.01104106 0.01575372
v -0.01949495 -0.01081211 0.01576943
v -0.01948563 -0.01069214 0.01578124
v -0.01929076 -0.01037346 0.01573665
v -0.01925038 -0.01050574 0.01570552
v -0.01915257 -0.01038548 0.01564019
v -0.01910574 -0.01053135 0.01556792
v -0.01903179 -0.01039604 0.01548790
v -0.01898489 -0.01040024 0.01538031
v -0.01896421 -0.01043526 0.01524684
v -0.01898194 -0.01055306 0.01527085
v -0.01905051 -0.01069214 0.01541699
v -0.01908225 -0.01083903 0.01538031
v -0.01913976 -0.01097752 0.01538031
v -0.01918916 -0.01112210 0.01527085
v -0.01949238 -0.01145741 0.01541699
v -0.01930114 -0.01122948 0.01541699
v -0.01941707 -0.01132630 0.01548790
v -0.01937797 -0.01048331 0.01576666
v -0.01936259 -0.01118635 0.01555385
v -0.01946010 -0.01111805 0.01567370
v -0.01942199 -0.01098780 0.01569913
v -0.01935638 -0.01087665 0.01569755
v -0.01935630 -0.01061023 0.01574773
v -0.01931796 -0.01075321 0.01570360
v -0.01919962 -0.01065219 0.01564019
v -0.01910097 -0.01067868 0.01552203
v -0.01901823 -0.01054669 0.01541699
v -0.01912642 -0.01082296 0.01548790
v -0.01918227 -0.01095770 0.01548790
v -0.01922113 -0.01110372 0.01541699
v -0.01928622 -0.01106609 0.01555385
v -0.01925727 -0.01092296 0.01560493
v -0.01920409 -0.01079460 0.01560493
f 5 6 1
f 1 2 3
f 1 6 7
f 7 2 1
f 17 3 16
f 8 3 2
f 18 3 17
f 1 3 4
f 3 20 4
f 4 5 1
f 15 16 3
f 38 16 15
f 45 20 44
f 6 5 24
f 24 7 6
f 19 20 3
f 3 18 19
f 19 44 20
f 17 16 39
f 39 16 38
f 5 4 21
f 21 4 23
f 21 24 5
f 23 4 22
f 22 20 45
f 22 4 20
f 64 53 63
f 14 26 34
f 8 26 14
f 34 35 14
f 3 8 14
f 14 15 3
f 38 15 37
f 2 7 9
f 9 10 2
f 59 64 63
f 43 19 18
f 44 19 43
f 46 21 23
f 24 21 46
f 23 48 46
f 51 62 63
f 63 53 51
f 53 52 51
f 56 35 55
f 53 64 55
f 55 64 56
f 34 26 49
f 26 33 49
f 31 52 53
f 27 26 8
f 27 33 26
f 36 37 15
f 15 14 36
f 36 14 35
f 36 35 56
f 56 37 36
f 25 9 7
f 28 9 25
f 7 24 25
f 24 46 25
f 25 48 28
f 25 46 48
f 28 48 29
f 29 9 28
f 47 48 23
f 47 22 45
f 23 22 47
f 58 39 38
f 58 41 39
f 17 39 40
f 39 41 40
f 40 18 17
f 40 41 18
f 54 49 33
f 53 55 54
f 54 55 35
f 54 35 34
f 34 49 54
f 2 10 11
f 10 31 11
f 50 29 48
f 48 47 50
f 62 51 50
f 51 29 50
f 9 29 30
f 30 29 51
f 10 9 30
f 30 31 10
f 30 51 52
f 52 31 30
f 45 44 61
f 61 47 45
f 62 50 61
f 61 50 47
f 59 43 42
f 41 58 42
f 42 43 18
f 18 41 42
f 32 54 33
f 32 31 53
f 53 54 32
f 33 27 13
f 13 8 2
f 13 27 8
f 60 61 44
f 44 43 60
f 60 43 59
f 62 61 60
f 63 62 60
f 60 59 63
f 59 42 57
f 64 59 57
f 57 42 58
f 56 64 57
f 57 37 56
f 38 37 57
f 57 58 38
f 12 11 31
f 31 32 12
f 12 32 33
f 33 13 12
f 2 11 12
f 12 13 2

