# https://github.com/mikedh/trimesh
v 0.01009438 -0.00157521 0.01440000
v 0.00946717 -0.00157521 0.01440000
v 0.01009438 -0.00180517 0.01440000
v 0.01009438 -0.00157521 -0.01440723
v 0.00946717 -0.00180517 0.01440000
v 0.00946717 -0.00157521 -0.01439877
v 0.01009438 -0.00180517 -0.01439877
v 0.01009438 -0.00178826 -0.01440723
v 0.00994979 -0.00157521 -0.01440723
v 0.00946717 -0.00180517 -0.01439877
v 0.01004250 -0.00172071 -0.01440723
f 10 6 9
f 8 7 10
f 10 9 11
f 11 8 10
f 5 3 1
f 5 1 2
f 6 5 2
f 10 5 6
f 3 5 7
f 7 5 10
f 2 1 9
f 1 4 9
f 9 6 2
f 1 3 8
f 8 4 1
f 3 7 8
f 11 9 4
f 4 8 11

