# https://github.com/mikedh/trimesh
v 0.00248029 0.00753344 0.01081736
v 0.00089356 0.00753344 0.01081736
v 0.00248029 0.00700938 0.01081736
v 0.00248029 0.00753344 -0.01441987
v 0.00089356 0.00700938 0.01081736
v 0.00089356 0.00753344 -0.01439764
v 0.00248029 0.00700938 -0.01441987
v 0.00095010 0.00753344 -0.01441987
v 0.00089356 0.00700938 -0.01390604
v 0.00089356 0.00701108 -0.01439764
v 0.00095010 0.00700938 -0.01441987
f 11 9 10
f 5 3 1
f 5 1 2
f 1 3 7
f 7 4 1
f 9 5 2
f 2 6 9
f 9 6 10
f 2 1 8
f 1 4 8
f 8 6 2
f 10 6 11
f 6 8 11
f 4 7 11
f 11 8 4
f 3 5 11
f 11 7 3
f 5 9 11

