# https://github.com/mikedh/trimesh
v -0.01494065 -0.00679631 0.01700000
v -0.01731219 -0.00679593 0.01700000
v -0.01494065 -0.00699999 0.01700000
v -0.01494065 -0.00679593 0.01563165
v -0.01732808 -0.00679593 0.01698522
v -0.01732808 -0.00679661 0.01700000
v -0.01732808 -0.00699999 0.01700000
v -0.01732808 -0.00703670 0.01589981
v -0.01494065 -0.00703672 0.01589575
v -0.01494065 -0.00679593 0.01403862
v -0.01732808 -0.00679593 0.01403862
v -0.01732808 -0.00703674 0.01589227
v -0.01494065 -0.00703674 0.01576443
v -0.01494065 -0.00703674 0.01403862
v -0.01732808 -0.00703674 0.01403862
f 5 6 2
f 1 4 2
f 8 3 7
f 3 8 9
f 9 8 12
f 13 9 12
f 10 14 15
f 15 11 10
f 2 6 7
f 2 3 1
f 7 3 2
f 2 4 10
f 2 11 5
f 10 11 2
f 8 15 12
f 5 11 8
f 8 6 5
f 7 6 8
f 11 15 8
f 13 14 10
f 13 4 1
f 10 4 13
f 1 3 13
f 3 9 13
f 12 15 13
f 13 15 14

