# https://github.com/mikedh/trimesh
v -0.02069992 -0.01239984 -0.01439947
v -0.02071247 -0.01238907 -0.01443860
v -0.02069992 -0.01238956 -0.01443860
v -0.01972907 -0.01239984 -0.01439947
v -0.02069992 -0.01239984 -0.00703625
v -0.02074454 -0.01239804 -0.00703625
v -0.02074654 -0.01239788 -0.01439947
v -0.02074654 -0.01238760 -0.01443860
v -0.01972907 -0.01238956 -0.01443860
v -0.01972907 -0.01239984 -0.00703625
v -0.02074654 -0.01223899 -0.00703625
v -0.02074654 -0.01085187 -0.01443860
v -0.01972907 -0.01073604 -0.01443860
v -0.01972907 -0.01073343 -0.00703625
v -0.02074654 -0.01073343 -0.00703625
v -0.02074654 -0.01073343 -0.01439947
v -0.01972907 -0.01073343 -0.01439947
f 6 1 5
f 7 1 6
f 7 6 11
f 13 16 17
f 2 1 7
f 1 2 3
f 8 2 7
f 12 16 13
f 10 1 4
f 5 1 10
f 5 10 11
f 14 15 11
f 11 10 14
f 11 6 5
f 4 9 17
f 17 10 4
f 14 10 17
f 17 9 13
f 17 15 14
f 17 16 15
f 4 1 3
f 3 9 4
f 7 11 12
f 12 11 15
f 15 16 12
f 12 8 7
f 13 9 12
f 9 3 12
f 12 3 2
f 2 8 12

