# https://github.com/mikedh/trimesh
v -0.00389282 -0.01115150 0.01590000
v -0.01131632 -0.01115150 0.01590000
v -0.00389282 -0.01199805 0.01590000
v -0.00389282 -0.01115150 0.00046737
v -0.01131632 -0.01199805 0.01590000
v -0.01131632 -0.01115150 0.00046737
v -0.00389282 -0.01234977 0.01458726
v -0.00389282 -0.01239988 0.00046737
v -0.01131632 -0.01233682 0.01463560
v -0.01131632 -0.01239988 0.00046737
v -0.01131632 -0.01239829 0.01440598
v -0.00389282 -0.01239304 0.01442562
v -0.00389282 -0.01239988 0.01439994
v -0.01131632 -0.01239988 0.01439994
f 7 3 5
f 9 7 5
f 11 14 13
f 7 9 11
f 12 11 13
f 7 11 12
f 1 4 6
f 2 1 6
f 3 1 2
f 2 5 3
f 10 6 4
f 10 4 8
f 8 13 10
f 13 14 10
f 2 6 11
f 11 5 2
f 6 10 11
f 11 10 14
f 11 9 5
f 12 4 1
f 12 13 8
f 8 4 12
f 1 3 12
f 3 7 12

