# https://github.com/mikedh/trimesh
v 0.00071664 -0.00134609 0.01700000
v -0.00053186 -0.00134609 0.01700000
v 0.00071664 -0.00227665 0.01700000
v 0.00071664 -0.00134609 -0.01323818
v -0.00053186 -0.00227665 0.01700000
v -0.00053186 -0.00134609 -0.01440000
v 0.00071664 -0.00227665 -0.01440000
v 0.00071664 -0.00134664 -0.01440000
v 0.00062963 -0.00134609 -0.01440000
v -0.00053186 -0.00227665 -0.01440000
f 9 4 8
f 5 3 1
f 5 1 2
f 3 7 4
f 1 3 4
f 7 8 4
f 10 5 2
f 2 6 10
f 10 7 3
f 3 5 10
f 2 1 9
f 1 4 9
f 9 6 2
f 9 8 7
f 9 10 6
f 7 10 9

