# https://github.com/mikedh/trimesh
v -0.00053186 -0.00061071 -0.01440000
v -0.00053186 0.00189739 -0.01440000
v 0.00192792 -0.00061071 -0.01440000
v -0.00053186 -0.00061071 0.01700000
v 0.00192792 0.00189739 -0.01440000
v -0.00053186 0.00189739 0.01700000
v 0.00192792 -0.00061071 0.01439973
v 0.00122124 -0.00061071 0.01700000
v 0.00192792 0.00189739 0.01494683
v 0.00137052 0.00189739 0.01700000
f 10 7 9
f 10 8 7
f 1 2 5
f 5 3 1
f 3 5 7
f 7 5 9
f 6 2 1
f 1 4 6
f 1 3 8
f 8 4 1
f 3 7 8
f 10 5 2
f 9 5 10
f 2 6 10
f 10 6 4
f 4 8 10

