# https://github.com/mikedh/trimesh
v -0.01980975 0.00700938 -0.01590000
v -0.01980975 0.00920347 -0.01590000
v -0.01949289 0.00700938 -0.01590000
v -0.01980975 0.00700938 0.01590000
v -0.01949289 0.00920347 -0.01590000
v -0.01980975 0.00920347 0.01575370
v -0.01949289 0.00700938 0.01590000
v -0.01980975 0.00861065 0.01590000
v -0.01949289 0.00920347 0.01559495
v -0.01949289 0.00880740 0.01590000
v -0.01980563 0.00920347 0.01575370
v -0.01952539 0.00920347 0.01562296
v -0.01957769 0.00920347 0.01565720
v -0.01965390 0.00920347 0.01570078
v -0.01969735 0.00920347 0.01571946
v -0.01976599 0.00920347 0.01574125
f 6 8 10
f 12 10 9
f 10 14 15
f 13 14 10
f 10 12 13
f 6 10 11
f 10 15 16
f 16 11 10
f 1 2 5
f 5 3 1
f 1 3 7
f 7 4 1
f 8 2 1
f 1 4 8
f 8 6 2
f 3 5 10
f 10 7 3
f 10 5 9
f 4 7 10
f 10 8 4
f 16 5 2
f 9 5 16
f 2 6 16
f 16 12 9
f 14 13 16
f 16 15 14
f 16 13 12
f 6 11 16

