# https://github.com/mikedh/trimesh
v -0.02030298 0.01234985 -0.01460648
v -0.02030298 0.01234985 -0.01589987
v -0.02034759 0.01234941 -0.01460648
v -0.02025846 0.01234956 -0.01460648
v -0.01980985 0.01234470 -0.01460648
v -0.02012223 0.01234235 -0.01589987
v -0.02048382 0.01234191 -0.01589987
v -0.02070000 0.01234470 -0.01460648
v -0.01980985 0.01229044 -0.01589987
v -0.01994268 0.01231926 -0.01589987
v -0.01980985 0.01084764 -0.01460648
v -0.02074745 0.01234250 -0.01460648
v -0.02066328 0.01231823 -0.01589987
v -0.01980985 0.01084764 -0.01589987
v -0.01984803 0.01084764 -0.01460648
v -0.02074745 0.01229970 -0.01589987
v -0.02074745 0.01085116 -0.01460648
v -0.01984803 0.01084764 -0.01589987
v -0.02074745 0.01085116 -0.01589987
f 5 2 4
f 2 1 4
f 6 2 5
f 12 8 7
f 7 8 2
f 3 1 2
f 2 8 3
f 5 9 10
f 10 6 5
f 13 16 12
f 12 7 13
f 16 17 12
f 19 17 16
f 5 11 14
f 14 9 5
f 15 11 5
f 12 17 15
f 15 8 12
f 1 3 15
f 5 4 15
f 15 4 1
f 15 3 8
f 19 16 18
f 16 13 18
f 2 6 18
f 18 7 2
f 9 14 18
f 18 10 9
f 6 10 18
f 18 13 7
f 18 17 19
f 18 15 17
f 18 14 11
f 11 15 18

