# https://github.com/mikedh/trimesh
v 0.01057564 -0.00111102 0.01980019
v 0.01057564 -0.00111102 0.01927291
v 0.01019268 -0.00111102 0.01980019
v 0.01057564 -0.00168860 0.01980019
v 0.01005835 -0.00111102 0.01927291
v 0.01057564 -0.00186821 0.01927291
v 0.01018620 -0.00111102 0.01978935
v 0.01028120 -0.00128106 0.01980019
v 0.01053731 -0.00164680 0.01980019
v 0.01057564 -0.00169713 0.01978935
v 0.01006797 -0.00113414 0.01927291
v 0.01008453 -0.00112636 0.01944494
v 0.01007815 -0.00111102 0.01944494
v 0.01057564 -0.00184849 0.01939818
v 0.01045832 -0.00171314 0.01944494
v 0.01044429 -0.00172485 0.01927291
v 0.01015977 -0.00111102 0.01973521
v 0.01027623 -0.00128395 0.01978935
v 0.01039654 -0.00147290 0.01978935
v 0.01040125 -0.00146956 0.01980019
v 0.01053290 -0.00165050 0.01978935
v 0.01057564 -0.00173486 0.01973051
v 0.01017608 -0.00134177 0.01927291
v 0.01019193 -0.00133265 0.01944494
v 0.01010711 -0.00111591 0.01957665
v 0.01010443 -0.00111102 0.01957351
v 0.01021345 -0.00132020 0.01957665
v 0.01057564 -0.00184108 0.01944494
v 0.01057564 -0.00181639 0.01953340
v 0.01057564 -0.00180431 0.01957665
v 0.01047741 -0.00169713 0.01957665
v 0.01033720 -0.00151441 0.01957665
v 0.01031684 -0.00152864 0.01944494
v 0.01032398 -0.00156807 0.01927291
v 0.01015749 -0.00111102 0.01973051
v 0.01025416 -0.00129670 0.01973051
v 0.01037563 -0.00148750 0.01973051
v 0.01051336 -0.00166688 0.01973051
v 0.01057564 -0.00177066 0.01966104
v 0.01019567 -0.00137253 0.01927291
v 0.01030185 -0.00153917 0.01927291
v 0.01011759 -0.00111102 0.01961960
v 0.01010509 -0.00111102 0.01957665
v 0.01035583 -0.00150129 0.01966104
v 0.01023319 -0.00130878 0.01966104
v 0.01013020 -0.00111102 0.01966104
v 0.01049483 -0.00168245 0.01966104
f 24 41 33
f 33 41 34
f 15 16 6
f 15 34 16
f 33 34 15
f 41 24 40
f 40 24 23
f 31 15 30
f 25 43 26
f 23 24 11
f 42 43 25
f 39 31 30
f 47 31 39
f 21 22 10
f 4 9 10
f 10 9 21
f 38 22 21
f 38 39 22
f 47 39 38
f 32 24 33
f 33 15 32
f 15 31 32
f 47 44 32
f 32 31 47
f 14 15 6
f 14 28 15
f 30 15 29
f 15 28 29
f 12 13 5
f 5 11 12
f 12 11 24
f 12 26 13
f 25 26 12
f 7 8 3
f 36 35 46
f 46 45 36
f 37 44 47
f 47 38 37
f 37 38 21
f 37 45 44
f 37 36 45
f 24 32 27
f 44 45 27
f 27 32 44
f 25 12 27
f 27 12 24
f 27 42 25
f 46 42 27
f 27 45 46
f 35 36 17
f 8 7 18
f 36 37 18
f 7 17 18
f 18 17 36
f 19 37 21
f 19 9 20
f 21 9 19
f 19 18 37
f 20 8 19
f 8 18 19
f 5 2 11
f 11 2 6
f 41 40 11
f 11 34 41
f 6 16 11
f 16 34 11
f 11 40 23
f 1 3 9
f 9 4 1
f 9 8 20
f 3 8 9
f 29 2 1
f 6 2 29
f 1 4 29
f 29 39 30
f 4 10 29
f 29 14 6
f 22 39 29
f 29 10 22
f 28 14 29
f 1 2 17
f 17 2 5
f 17 3 1
f 5 13 17
f 43 42 17
f 17 26 43
f 13 26 17
f 17 42 46
f 46 35 17
f 17 7 3

