# https://github.com/mikedh/trimesh
v 0.01213259 0.00259085 0.01965437
v 0.01213259 0.00259804 0.01962825
v 0.01206297 0.00258171 0.01965437
v 0.01213259 0.00149395 0.01965437
v 0.01204151 0.00260000 0.01957666
v 0.01213259 0.00261197 0.01957666
v 0.01204514 0.00257932 0.01965437
v 0.01204999 0.00045015 0.01965437
v 0.01213259 0.00143800 0.01959849
v 0.01181023 0.00257431 0.01944485
v 0.01181664 0.00255015 0.01957666
v 0.01183963 0.00253382 0.01965437
v 0.01213259 0.00262220 0.01952358
v 0.01203717 0.00262460 0.01944485
v 0.01173322 0.00045015 0.01965437
v 0.01195914 0.00044841 0.01870148
v 0.01204999 0.00045015 0.01870148
v 0.01213259 0.00054092 0.01870148
v 0.01213259 0.00131914 0.01947965
v 0.01203341 0.00264593 0.01924084
v 0.01180460 0.00259521 0.01924084
v 0.01173322 0.00257279 0.01924084
v 0.01173322 0.00254993 0.01944485
v 0.01173322 0.00254057 0.01949243
v 0.01173322 0.00252381 0.01957666
v 0.01173322 0.00251532 0.01960716
v 0.01173322 0.00250204 0.01965437
v 0.01182208 0.00252990 0.01965437
v 0.01213259 0.00263722 0.01944485
v 0.01213259 0.00264636 0.01935978
v 0.01173322 0.00044841 0.01870148
v 0.01213259 0.00267205 0.01870148
v 0.01213259 0.00265899 0.01924084
v 0.01203052 0.00265877 0.01870148
v 0.01180120 0.00260783 0.01870148
v 0.01173322 0.00258650 0.01870148
v 0.01213259 0.00266465 0.01900903
f 20 33 34
f 21 36 22
f 20 34 21
f 18 19 8
f 32 34 37
f 37 34 33
f 36 21 35
f 35 21 34
f 9 4 8
f 8 19 9
f 17 8 16
f 17 18 8
f 11 12 5
f 30 33 20
f 20 14 30
f 14 29 30
f 28 11 27
f 28 12 11
f 7 5 12
f 22 23 10
f 10 21 22
f 10 14 20
f 20 21 10
f 10 5 14
f 11 5 10
f 2 6 5
f 5 6 13
f 13 29 14
f 14 5 13
f 27 11 26
f 11 25 26
f 24 10 23
f 24 25 11
f 11 10 24
f 1 2 3
f 5 7 3
f 3 2 5
f 31 8 15
f 16 8 31
f 16 31 17
f 17 34 32
f 17 31 36
f 32 18 17
f 36 35 17
f 17 35 34
f 1 4 13
f 13 18 32
f 33 30 13
f 32 37 13
f 19 18 13
f 13 9 19
f 13 37 33
f 4 9 13
f 13 30 29
f 13 2 1
f 6 2 13
f 15 27 24
f 24 31 15
f 22 36 24
f 36 31 24
f 24 23 22
f 27 26 24
f 24 26 25
f 3 27 15
f 15 8 3
f 3 4 1
f 8 4 3
f 3 28 27
f 12 28 3
f 3 7 12

