# https://github.com/mikedh/trimesh
v 0.00345965 -0.01036753 -0.01440723
v 0.00345965 -0.01036753 -0.01590000
v 0.00248056 -0.01036753 -0.01440723
v 0.00362006 -0.01072510 -0.01440723
v 0.00248056 -0.01036753 -0.01590000
v 0.00362006 -0.01072510 -0.01590000
v 0.00248056 -0.01239786 -0.01440723
v 0.00362006 -0.01239786 -0.01440723
v 0.00248056 -0.01199796 -0.01590000
v 0.00362006 -0.01226668 -0.01590000
v 0.00248056 -0.01233863 -0.01462904
v 0.00248056 -0.01200293 -0.01588174
f 7 10 8
f 11 10 7
f 12 9 10
f 10 11 12
f 3 1 5
f 5 1 2
f 8 1 3
f 3 7 8
f 4 1 8
f 6 1 4
f 2 1 6
f 4 8 6
f 6 8 10
f 9 5 2
f 9 6 10
f 2 6 9
f 12 7 3
f 3 5 12
f 5 9 12
f 12 11 7

