# https://github.com/mikedh/trimesh
v 0.00191955 -0.00202795 0.01506055
v 0.00191908 -0.00227665 0.01521731
v 0.00191955 -0.00227665 0.01498679
v 0.00191955 -0.00134609 0.01463332
v 0.00191390 -0.00134609 0.01465484
v 0.00128395 -0.00134609 0.01700000
v 0.00143561 -0.00227665 0.01700000
v 0.00191955 -0.00227665 -0.01440000
v 0.00191955 -0.00134609 -0.01440000
v 0.00071664 -0.00134609 0.01700000
v 0.00071664 -0.00227665 0.01700000
v 0.00071664 -0.00227665 -0.01440000
v 0.00071841 -0.00134609 -0.01440000
v 0.00071664 -0.00134609 -0.01323818
v 0.00071664 -0.00134664 -0.01440000
f 1 4 5
f 5 6 1
f 13 15 14
f 2 3 1
f 6 7 2
f 1 6 2
f 1 3 9
f 9 4 1
f 9 3 8
f 7 6 10
f 10 11 7
f 4 9 14
f 10 6 14
f 14 5 4
f 6 5 14
f 14 9 13
f 13 9 12
f 12 9 8
f 12 15 13
f 12 11 10
f 10 14 12
f 12 14 15
f 8 3 2
f 2 7 11
f 2 12 8
f 11 12 2

