# https://github.com/mikedh/trimesh
v -0.02094479 0.01010689 0.01245361
v -0.02270000 0.01010689 0.01245361
v -0.02094479 0.00875003 0.01245361
v -0.02094479 0.01010689 -0.01439850
v -0.02270000 0.00875003 0.01245361
v -0.02270000 0.01010689 -0.01439850
v -0.02094479 0.00875003 -0.01590000
v -0.02094479 0.00986753 -0.01590000
v -0.02103585 0.01010689 -0.01590000
v -0.02270000 0.00875003 -0.01439850
v -0.02239504 0.01010689 -0.01590000
v -0.02229797 0.00875003 -0.01590000
v -0.02267182 0.00875003 -0.01450397
v -0.02234779 0.00875003 -0.01571405
v -0.02255740 0.00875003 -0.01493138
f 9 4 8
f 10 6 11
f 14 11 12
f 14 15 11
f 10 11 13
f 11 15 13
f 5 3 1
f 5 1 2
f 1 3 8
f 3 7 8
f 8 4 1
f 6 5 2
f 6 10 5
f 2 1 11
f 1 4 11
f 11 4 9
f 11 6 2
f 11 8 7
f 7 12 11
f 9 8 11
f 3 5 13
f 13 7 3
f 5 10 13
f 13 12 7
f 13 14 12
f 15 14 13

