# https://github.com/mikedh/trimesh
v 0.01399621 -0.00115971 0.01440980
v 0.01399621 -0.00000084 0.01440980
v 0.01459930 -0.00115971 0.01440980
v 0.01399621 -0.00115971 0.01613282
v 0.01489995 -0.00000084 0.01440980
v 0.01399621 -0.00000084 0.01613282
v 0.01467195 -0.00102027 0.01440980
v 0.01490457 -0.00115971 0.01470006
v 0.01490457 -0.00115971 0.01613282
v 0.01489079 -0.00020926 0.01440980
v 0.01490457 -0.00000084 0.01470006
v 0.01490457 -0.00000084 0.01613282
v 0.01467506 -0.00101425 0.01440980
v 0.01475260 -0.00082716 0.01440980
v 0.01475518 -0.00082080 0.01440980
v 0.01481814 -0.00062112 0.01440980
v 0.01486349 -0.00041678 0.01440980
f 8 5 11
f 8 16 17
f 13 14 8
f 15 16 8
f 8 14 15
f 10 5 8
f 8 17 10
f 8 3 7
f 7 13 8
f 1 4 6
f 6 2 1
f 4 9 6
f 6 9 12
f 3 4 1
f 8 9 3
f 3 9 4
f 2 6 11
f 11 5 2
f 11 6 12
f 11 9 8
f 12 9 11
f 1 2 7
f 2 5 7
f 7 3 1
f 16 15 7
f 5 10 7
f 7 17 16
f 14 13 7
f 7 15 14
f 7 10 17

