# https://github.com/mikedh/trimesh
v 0.01364778 0.00257640 0.01440000
v 0.01095370 0.00257640 0.01440000
v 0.01249999 0.00239999 0.01440980
v 0.01270914 0.00239086 0.01440980
v 0.01291670 0.00236357 0.01440980
v 0.01312110 0.00231822 0.01440980
v 0.01332074 0.00225529 0.01440980
v 0.01351406 0.00217518 0.01440980
v 0.01355362 0.00215453 0.01440980
v 0.01364778 0.00215453 0.01440000
v 0.01364778 0.00257640 -0.01062106
v 0.01095370 0.00221639 0.01440000
v 0.01144636 0.00215453 0.01440980
v 0.01148593 0.00217518 0.01440980
v 0.01167924 0.00225529 0.01440980
v 0.01187889 0.00231822 0.01440980
v 0.01208329 0.00236357 0.01440980
v 0.01229085 0.00239086 0.01440980
v 0.01095370 0.00257640 -0.01062106
v 0.01364778 0.00215453 -0.01062106
v 0.01095449 0.00215453 0.01440000
v 0.01095370 0.00215453 0.01415008
v 0.01095370 0.00215453 -0.01062106
f 3 1 2
f 1 9 10
f 1 6 7
f 5 6 1
f 12 22 21
f 21 13 12
f 12 13 2
f 8 9 1
f 1 7 8
f 1 3 4
f 4 5 1
f 2 16 17
f 15 16 2
f 18 3 2
f 2 17 18
f 2 13 14
f 14 15 2
f 1 11 19
f 2 1 19
f 20 19 11
f 23 19 20
f 20 11 1
f 1 10 20
f 13 22 23
f 13 10 9
f 23 20 13
f 13 20 10
f 21 22 13
f 2 19 12
f 12 19 23
f 23 22 12
f 14 13 9
f 9 8 14
f 14 4 3
f 14 7 6
f 6 5 14
f 3 18 14
f 14 8 7
f 5 4 14
f 14 17 16
f 16 15 14
f 14 18 17

