# https://github.com/mikedh/trimesh
v -0.02046598 -0.00973614 -0.01439936
v -0.02046598 -0.00951922 -0.01441327
v -0.01975497 -0.00973571 -0.01441327
v -0.01975539 -0.00973614 -0.01439936
v -0.02046598 -0.00973614 0.01400661
v -0.02046598 -0.00864301 -0.01441327
v -0.01975497 -0.00864301 -0.01441327
v -0.01975497 -0.00973614 -0.01299172
v -0.01975497 -0.00973614 0.01400661
v -0.02046598 -0.00864301 0.01400661
v -0.01975497 -0.00864301 0.01400661
f 2 3 1
f 3 8 4
f 1 3 4
f 7 2 6
f 3 2 7
f 10 2 1
f 1 5 10
f 6 2 10
f 10 7 6
f 11 7 10
f 3 7 9
f 9 8 3
f 9 7 11
f 9 5 1
f 1 4 9
f 9 4 8
f 9 10 5
f 11 10 9

