# https://github.com/mikedh/trimesh
v -0.01428572 -0.01035006 0.01470808
v -0.01575741 -0.01035006 0.01470808
v -0.01428572 -0.01075214 0.01470808
v -0.01428572 -0.01035006 0.00538626
v -0.01594370 -0.01075214 0.01470808
v -0.01650651 -0.01035006 0.01439964
v -0.01428572 -0.01075214 0.00538626
v -0.01650651 -0.01035006 0.00538626
v -0.01650651 -0.01075214 0.01439964
v -0.01650651 -0.01075214 0.00538626
f 6 5 2
f 9 5 6
f 7 4 1
f 1 3 7
f 7 8 4
f 10 8 7
f 1 4 2
f 2 8 6
f 4 8 2
f 2 3 1
f 2 5 3
f 9 7 3
f 3 5 9
f 10 7 9
f 6 8 9
f 9 8 10

