# https://github.com/mikedh/trimesh
v 0.00481123 0.00729155 0.01440980
v 0.00425911 0.00729155 0.01589990
v 0.00293675 0.00555454 0.01613282
v 0.00346469 0.00555454 0.01441064
v 0.00346674 0.00555726 0.01440980
v 0.00248068 0.00729155 0.01440980
v 0.00392760 0.00699992 0.01613282
v 0.00248068 0.00729155 0.01589990
v 0.00248068 0.00555454 0.01613282
v 0.00310307 0.00555454 0.01440980
v 0.00248068 0.00555454 0.01440980
v 0.00248068 0.00699992 0.01613282
f 2 3 1
f 1 3 4
f 3 2 7
f 5 4 10
f 1 4 5
f 8 1 6
f 8 2 1
f 2 8 7
f 7 8 12
f 9 11 10
f 9 4 3
f 10 4 9
f 6 11 9
f 9 8 6
f 12 8 9
f 9 7 12
f 3 7 9
f 5 11 6
f 6 1 5
f 10 11 5

