# https://github.com/mikedh/trimesh
v -0.02269993 -0.00960507 0.01163369
v -0.02269993 -0.00850876 0.01163369
v -0.02195410 -0.00960507 0.01163369
v -0.02269993 -0.00960507 0.01439988
v -0.02195410 -0.00850876 0.01163369
v -0.02269993 -0.00850876 0.01439988
v -0.02195410 -0.00960507 0.01440313
v -0.02232041 -0.00960507 0.01440313
v -0.02232515 -0.00960475 0.01440313
v -0.02195410 -0.00850876 0.01394196
v -0.02228609 -0.00951041 0.01440313
v -0.02221556 -0.00937497 0.01440313
v -0.02213357 -0.00924618 0.01440313
v -0.02204062 -0.00912512 0.01440313
v -0.02195410 -0.00903078 0.01440313
v -0.02195841 -0.00850876 0.01439988
v -0.02195410 -0.00851005 0.01439988
f 9 6 4
f 8 9 4
f 16 15 17
f 6 15 16
f 17 10 16
f 12 13 6
f 14 15 6
f 6 13 14
f 6 9 11
f 11 12 6
f 1 2 5
f 5 3 1
f 6 2 1
f 1 4 6
f 3 5 15
f 15 7 3
f 5 10 15
f 15 10 17
f 1 3 8
f 3 7 8
f 8 4 1
f 16 5 2
f 16 10 5
f 2 6 16
f 7 15 11
f 11 8 7
f 9 8 11
f 15 14 11
f 13 12 11
f 11 14 13

