# https://github.com/mikedh/trimesh
v 0.00371911 -0.01082556 0.01590000
v 0.00432421 -0.01098944 0.01590000
v 0.00371911 -0.01082541 0.01440980
v 0.00371911 -0.01229259 0.01590000
v 0.00432421 -0.01098944 0.01440980
v 0.00432421 -0.01234460 0.01590000
v 0.00371911 -0.01239722 0.01440980
v 0.00384509 -0.01231967 0.01590000
v 0.00432421 -0.01239722 0.01440980
v 0.00420000 -0.01234998 0.01590000
v 0.00402189 -0.01234229 0.01590000
f 1 2 3
f 5 3 2
f 7 9 10
f 7 10 11
f 6 10 9
f 8 4 7
f 7 11 8
f 4 3 7
f 1 3 4
f 7 3 9
f 3 5 9
f 6 9 5
f 6 5 2
f 1 4 8
f 8 2 1
f 8 6 2
f 8 11 10
f 10 6 8

