# https://github.com/mikedh/trimesh
v 0.00248063 0.00650000 -0.01590000
v 0.00361923 0.00650000 -0.01590000
v 0.00248063 0.00650000 -0.01440723
v 0.00248063 0.00993483 -0.01590000
v 0.00412015 0.00650000 -0.01440723
v 0.00438140 0.00741889 -0.01590000
v 0.00248063 0.00993483 -0.01440723
v 0.00351949 0.00993483 -0.01590000
v 0.00438140 0.00682244 -0.01440723
v 0.00438140 0.00952263 -0.01590000
v 0.00351949 0.00993483 -0.01440723
v 0.00438140 0.00952263 -0.01440723
f 6 5 2
f 9 5 6
f 7 4 1
f 1 3 7
f 2 3 1
f 2 5 3
f 6 10 9
f 9 10 12
f 1 4 8
f 8 10 6
f 8 2 1
f 6 2 8
f 11 9 12
f 3 5 11
f 11 7 3
f 5 9 11
f 12 10 11
f 10 8 11
f 4 7 11
f 11 8 4

