# https://github.com/mikedh/trimesh
v 0.02084006 0.00550235 0.01700245
v 0.02116020 0.00500007 0.01700245
v 0.02084006 0.00550235 0.01620000
v 0.01856997 0.00550235 0.01700245
v 0.02116020 0.00500007 0.01620000
v 0.02137701 0.00458318 0.01700245
v 0.01856997 0.00550235 0.01620000
v 0.01864362 0.00458318 0.01700245
v 0.02137701 0.00458318 0.01620000
v 0.01864362 0.00458318 0.01620000
f 8 1 4
f 6 2 8
f 8 2 1
f 4 1 7
f 1 3 7
f 7 8 4
f 10 8 7
f 6 8 9
f 9 8 10
f 5 7 3
f 10 7 5
f 5 9 10
f 1 2 5
f 5 3 1
f 5 2 6
f 6 9 5

