# https://github.com/mikedh/trimesh
v -0.00055225 -0.00514994 -0.01592925
v -0.00055888 -0.00532356 -0.01592925
v -0.00055498 -0.00526504 -0.01939966
v -0.00055966 -0.00506977 -0.01939966
v -0.00057488 -0.00498393 -0.01592925
v -0.00059400 -0.00548743 -0.01592925
v -0.00060570 -0.00552039 -0.01939966
v -0.00060570 -0.00487957 -0.01939966
v -0.00062716 -0.00481792 -0.01592925
v -0.00066091 -0.00565519 -0.01592925
v -0.00070754 -0.00573654 -0.01939966
v -0.00070754 -0.00466342 -0.01939966
v -0.00070754 -0.00466342 -0.01592925
v -0.00075358 -0.00580267 -0.01592925
v -0.00082985 -0.00588948 -0.01939966
v -0.00086048 -0.00447966 -0.01939966
v -0.00081854 -0.00452082 -0.01592925
v -0.00087082 -0.00593142 -0.01592925
v -0.00101342 -0.00604242 -0.01939966
v -0.00101342 -0.00435754 -0.01939966
v -0.00094729 -0.00440358 -0.01592925
v -0.00101342 -0.00604242 -0.01592925
v -0.00122957 -0.00614425 -0.01939966
v -0.00116793 -0.00612279 -0.01592925
v -0.00122957 -0.00425571 -0.01939966
v -0.00109477 -0.00431092 -0.01592925
v -0.00148494 -0.00619497 -0.01939966
v -0.00133394 -0.00617507 -0.01592925
v -0.00148494 -0.00420480 -0.01939966
v -0.00142641 -0.00420889 -0.01592925
v -0.00126254 -0.00424401 -0.01592925
v -0.00168021 -0.00619029 -0.01939966
v -0.00149996 -0.00619770 -0.01592925
v -0.00168021 -0.00420967 -0.01939966
v -0.00166168 -0.00420889 -0.01592925
v -0.00187042 -0.00614425 -0.01939966
v -0.00166695 -0.00619146 -0.01592925
v -0.00183745 -0.00615595 -0.01592925
v -0.00187042 -0.00425571 -0.01939966
v -0.00185032 -0.00424752 -0.01592925
v -0.00208657 -0.00604242 -0.01939966
v -0.00200522 -0.00608904 -0.01592925
v -0.00208657 -0.00435754 -0.01939966
v -0.00203819 -0.00433062 -0.01592925
v -0.00227033 -0.00588948 -0.01939966
v -0.00215270 -0.00599638 -0.01592925
v -0.00223951 -0.00447966 -0.01939966
v -0.00222917 -0.00446854 -0.01592925
v -0.00239245 -0.00573654 -0.01939966
v -0.00228145 -0.00587914 -0.01592925
v -0.00239245 -0.00466342 -0.01939966
v -0.00234642 -0.00459729 -0.01592925
v -0.00247283 -0.00558223 -0.01939966
v -0.00241938 -0.00568816 -0.01592925
v -0.00247283 -0.00481792 -0.01939966
v -0.00243908 -0.00474477 -0.01592925
v -0.00251555 -0.00545875 -0.01939966
v -0.00250248 -0.00550030 -0.01592925
v -0.00251555 -0.00494121 -0.01939966
v -0.00250599 -0.00491253 -0.01592925
v -0.00254520 -0.00526504 -0.01939966
v -0.00254111 -0.00531166 -0.01592925
v -0.00254033 -0.00506977 -0.01939966
v -0.00254111 -0.00507640 -0.01592925
f 1 3 4
f 43 47 48
f 20 25 26
f 16 20 21
f 21 20 26
f 8 12 9
f 9 12 13
f 2 3 1
f 14 15 11
f 56 51 55
f 55 60 56
f 39 43 44
f 44 43 48
f 34 35 29
f 29 35 30
f 30 25 29
f 16 21 17
f 17 12 16
f 13 12 17
f 5 4 8
f 8 9 5
f 1 4 5
f 14 11 10
f 7 2 6
f 3 2 7
f 6 10 7
f 7 10 11
f 18 15 14
f 57 53 58
f 58 62 57
f 57 62 61
f 51 56 52
f 47 51 52
f 48 47 52
f 59 60 55
f 64 63 61
f 61 62 64
f 64 59 63
f 60 59 64
f 39 44 40
f 40 34 39
f 35 34 40
f 26 25 31
f 25 30 31
f 19 18 22
f 15 18 19
f 23 19 24
f 24 19 22
f 53 49 54
f 58 53 54
f 41 46 45
f 23 24 28
f 27 23 28
f 33 27 28
f 50 49 45
f 50 54 49
f 45 46 50
f 32 38 36
f 32 27 33
f 42 41 36
f 36 38 42
f 46 41 42
f 37 32 33
f 38 32 37
f 32 34 29
f 61 63 32
f 16 12 32
f 32 23 27
f 29 25 32
f 32 20 16
f 32 4 3
f 32 51 47
f 47 43 32
f 3 7 32
f 45 49 32
f 8 4 32
f 55 51 32
f 32 43 39
f 25 20 32
f 32 12 8
f 32 11 15
f 32 57 61
f 32 41 45
f 39 34 32
f 32 7 11
f 32 59 55
f 53 57 32
f 32 49 53
f 15 19 32
f 63 59 32
f 32 19 23
f 36 41 32
f 37 21 26
f 13 17 37
f 58 54 37
f 37 2 1
f 26 31 37
f 37 62 58
f 1 5 37
f 37 18 14
f 37 44 48
f 35 40 37
f 37 9 13
f 6 2 37
f 14 10 37
f 46 42 37
f 37 56 60
f 48 52 37
f 60 64 37
f 37 30 35
f 37 17 21
f 37 5 9
f 37 10 6
f 22 18 37
f 37 52 56
f 37 64 62
f 37 40 44
f 37 31 30
f 37 24 22
f 33 28 37
f 37 50 46
f 37 28 24
f 54 50 37
f 37 42 38

