# https://github.com/mikedh/trimesh
v 0.00248045 -0.00703674 0.01590000
v -0.00027941 -0.00703674 0.01590000
v 0.00248045 -0.00752748 0.01590000
v 0.00248045 -0.00703674 -0.01441987
v -0.00027941 -0.00752734 0.01590000
v -0.00027941 -0.00703674 -0.01439910
v -0.00026049 -0.00752748 0.01590000
v 0.00248045 -0.00752748 -0.01441987
v 0.00095017 -0.00703674 -0.01441987
v -0.00027941 -0.00752748 0.01588813
v -0.00027941 -0.00752748 -0.01439910
v 0.00095017 -0.00752748 -0.01441987
f 5 10 7
f 1 3 8
f 8 4 1
f 10 5 2
f 2 6 10
f 10 6 11
f 2 1 9
f 1 4 9
f 9 6 2
f 7 3 1
f 7 1 2
f 2 5 7
f 12 8 3
f 3 7 12
f 12 10 11
f 12 7 10
f 11 6 12
f 6 9 12
f 4 8 12
f 12 9 4

