# https://github.com/mikedh/trimesh
v -0.01649888 -0.00955949 0.01439950
v -0.01679115 -0.00955949 0.01440514
v -0.01649888 -0.01035006 0.01439950
v -0.01649888 -0.00955949 0.00720531
v -0.01724275 -0.01035006 0.01440514
v -0.01871057 -0.00955949 0.01440514
v -0.01649888 -0.01035006 0.00720531
v -0.01871057 -0.00955949 0.00720531
v -0.01870213 -0.01035006 0.01440514
v -0.01871057 -0.01020318 0.01440514
v -0.01871057 -0.01035006 0.00720531
v -0.01871057 -0.01035006 0.01439950
f 2 3 1
f 3 2 5
f 12 9 10
f 1 4 8
f 6 2 8
f 8 2 1
f 7 4 1
f 1 3 7
f 7 8 4
f 11 8 7
f 11 7 9
f 9 12 11
f 9 7 3
f 3 5 9
f 10 8 11
f 6 8 10
f 11 12 10
f 10 2 6
f 10 9 5
f 10 5 2

