# https://github.com/mikedh/trimesh
v -0.00151320 0.00859834 -0.01592925
v -0.00148500 0.00859501 -0.01939966
v -0.00168019 0.00858969 -0.01939966
v -0.00174773 0.00857705 -0.01592925
v -0.00128062 0.00855975 -0.01592925
v -0.00122952 0.00854378 -0.01939966
v -0.00187048 0.00854378 -0.01939966
v -0.00193821 0.00851983 -0.01592925
v -0.00109483 0.00848856 -0.01592925
v -0.00096034 0.00840340 -0.01939966
v -0.00208661 0.00844199 -0.01939966
v -0.00209209 0.00843866 -0.01592925
v -0.00092843 0.00837945 -0.01592925
v -0.00077240 0.00822377 -0.01939966
v -0.00219272 0.00836548 -0.01939966
v -0.00224655 0.00831292 -0.01592925
v -0.00076163 0.00821313 -0.01592925
v -0.00066413 0.00806078 -0.01939966
v -0.00232760 0.00822377 -0.01939966
v -0.00239554 0.00812997 -0.01592925
v -0.00067060 0.00807209 -0.01592925
v -0.00059757 0.00789977 -0.01592925
v -0.00059757 0.00789977 -0.01939966
v -0.00243587 0.00806078 -0.01939966
v -0.00249792 0.00790709 -0.01592925
v -0.00055881 0.00771150 -0.01592925
v -0.00055959 0.00772946 -0.01939966
v -0.00250243 0.00789977 -0.01939966
v -0.00254041 0.00772946 -0.01939966
v -0.00254550 0.00766093 -0.01592925
v -0.00055000 0.00759906 -0.01939966
v -0.00055450 0.00273907 -0.01592925
v -0.00255000 0.00759906 -0.01939966
v -0.00255000 0.00280094 -0.01939966
v -0.00254119 0.00268850 -0.01592925
v -0.00055000 0.00280094 -0.01939966
v -0.00060208 0.00249291 -0.01592925
v -0.00055959 0.00267054 -0.01939966
v -0.00254041 0.00267054 -0.01939966
v -0.00250243 0.00250023 -0.01592925
v -0.00070446 0.00227003 -0.01592925
v -0.00066413 0.00233922 -0.01939966
v -0.00059757 0.00250023 -0.01939966
v -0.00250243 0.00250023 -0.01939966
v -0.00243587 0.00233922 -0.01939966
v -0.00242940 0.00232791 -0.01592925
v -0.00077240 0.00217623 -0.01939966
v -0.00085345 0.00208708 -0.01592925
v -0.00233837 0.00218687 -0.01592925
v -0.00232760 0.00217623 -0.01939966
v -0.00096034 0.00199660 -0.01939966
v -0.00100771 0.00196134 -0.01592925
v -0.00219272 0.00203452 -0.01939966
v -0.00217157 0.00202055 -0.01592925
v -0.00116179 0.00188017 -0.01592925
v -0.00122952 0.00185622 -0.01939966
v -0.00208661 0.00195801 -0.01939966
v -0.00200517 0.00191144 -0.01592925
v -0.00135227 0.00182295 -0.01592925
v -0.00148500 0.00180499 -0.01939966
v -0.00187048 0.00185622 -0.01939966
v -0.00181938 0.00184025 -0.01592925
v -0.00158681 0.00180166 -0.01592925
v -0.00168019 0.00181031 -0.01939966
f 26 32 31
f 31 32 36
f 32 38 36
f 37 38 32
f 39 35 34
f 34 35 30
f 34 30 33
f 19 16 15
f 24 28 25
f 1 2 3
f 27 26 31
f 10 13 14
f 5 6 2
f 5 2 1
f 63 60 59
f 52 51 48
f 55 51 52
f 56 51 55
f 55 59 56
f 56 59 60
f 64 60 63
f 40 35 39
f 40 45 46
f 33 30 29
f 30 25 29
f 29 25 28
f 20 19 24
f 16 19 20
f 24 25 20
f 4 3 7
f 7 8 4
f 1 3 4
f 11 8 7
f 22 27 23
f 26 27 22
f 23 18 22
f 22 18 21
f 14 13 17
f 17 18 14
f 21 18 17
f 6 5 9
f 9 10 6
f 13 10 9
f 38 37 43
f 37 42 43
f 41 42 37
f 48 51 47
f 47 41 48
f 42 41 47
f 58 57 61
f 44 40 39
f 45 40 44
f 8 11 12
f 12 11 15
f 15 16 12
f 62 58 61
f 61 64 62
f 62 64 63
f 53 57 54
f 57 58 54
f 49 50 53
f 53 54 49
f 45 50 49
f 46 45 49
f 2 6 44
f 44 19 15
f 14 18 44
f 44 3 2
f 44 10 14
f 44 34 33
f 31 36 44
f 44 57 53
f 44 27 31
f 53 50 44
f 33 29 44
f 15 11 44
f 44 36 38
f 44 56 60
f 60 64 44
f 39 34 44
f 44 28 24
f 24 19 44
f 7 3 44
f 23 27 44
f 6 10 44
f 51 56 44
f 38 43 44
f 44 64 61
f 61 57 44
f 44 47 51
f 44 29 28
f 44 11 7
f 44 18 23
f 44 43 42
f 42 47 44
f 44 50 45
f 49 37 32
f 1 4 49
f 49 25 30
f 32 26 49
f 49 5 1
f 30 35 49
f 48 41 49
f 16 20 49
f 63 59 49
f 13 9 49
f 49 52 48
f 35 40 49
f 49 12 16
f 26 22 49
f 49 17 13
f 49 59 55
f 55 52 49
f 49 40 46
f 49 20 25
f 49 4 8
f 49 22 21
f 21 17 49
f 49 9 5
f 49 41 37
f 49 62 63
f 8 12 49
f 58 62 49
f 49 54 58

