# https://github.com/mikedh/trimesh
v -0.01289005 -0.00679758 0.01699693
v -0.01289005 -0.00699997 0.01699693
v -0.01289005 -0.00679607 0.01493484
v -0.01329912 -0.00679659 0.01699693
v -0.01494065 -0.00699997 0.01699693
v -0.01494065 -0.00703672 0.01589531
v -0.01289005 -0.00703674 0.01589224
v -0.01289005 -0.00679593 0.01444694
v -0.01494065 -0.00679593 0.01563141
v -0.01494065 -0.00679633 0.01699693
v -0.01494065 -0.00703674 0.01576336
v -0.01329933 -0.00703674 0.01589224
v -0.01289005 -0.00703674 -0.01434253
v -0.01289005 -0.00679593 -0.01434559
v -0.01494065 -0.00679593 -0.01434559
v -0.01494065 -0.00703674 -0.01434253
v -0.01494065 -0.00701499 -0.01434559
v -0.01289005 -0.00691678 -0.01434559
f 7 2 6
f 6 2 5
f 9 10 4
f 4 8 9
f 17 13 16
f 6 11 12
f 7 6 12
f 3 4 1
f 8 4 3
f 13 17 18
f 15 8 14
f 9 8 15
f 4 2 1
f 4 10 5
f 5 2 4
f 5 10 17
f 17 6 5
f 16 11 17
f 17 10 9
f 9 15 17
f 17 11 6
f 12 13 7
f 16 13 12
f 12 11 16
f 1 2 18
f 7 13 18
f 18 2 7
f 18 3 1
f 14 8 18
f 8 3 18
f 18 15 14
f 18 17 15

