# https://github.com/mikedh/trimesh
v -0.01955202 -0.01020706 -0.01590000
v -0.01871057 -0.01020706 -0.01590000
v -0.02045911 -0.01020706 -0.01439965
v -0.02046598 -0.01020628 -0.01439965
v -0.02046598 -0.00951926 -0.01590000
v -0.01871057 -0.00752748 -0.01590000
v -0.01871057 -0.01020706 0.01437786
v -0.02046598 -0.01020706 -0.01434362
v -0.02046598 -0.00752748 -0.01590000
v -0.01871057 -0.00752748 0.01590000
v -0.01871264 -0.01020706 0.01439965
v -0.01871057 -0.01020313 0.01590000
v -0.02046598 -0.01020706 0.01429693
v -0.02046598 -0.00752748 0.01590000
v -0.01897244 -0.01020706 0.01535527
v -0.02046598 -0.00841569 0.01590000
v -0.02044983 -0.00999983 0.01579728
v -0.01950013 -0.01020706 0.01579728
v -0.01948071 -0.01020706 0.01579417
v -0.01942865 -0.01020706 0.01578483
v -0.01939669 -0.01020706 0.01577860
v -0.01934669 -0.01020706 0.01576304
v -0.01932985 -0.01020706 0.01575681
v -0.01928277 -0.01020706 0.01573502
v -0.01925201 -0.01020706 0.01571946
v -0.01920785 -0.01020706 0.01569144
v -0.01915424 -0.01020706 0.01564787
v -0.01912760 -0.01020706 0.01562296
v -0.01909238 -0.01020706 0.01558561
v -0.01908276 -0.01020706 0.01557316
v -0.01906042 -0.01020706 0.01554203
v -0.01905217 -0.01020706 0.01552958
v -0.01903241 -0.01020706 0.01549845
v -0.01902536 -0.01020706 0.01548600
v -0.01900818 -0.01020706 0.01545176
v -0.01900251 -0.01020706 0.01543931
v -0.01898808 -0.01020706 0.01540507
v -0.02046598 -0.00904998 0.01579417
f 4 5 1
f 12 17 18
f 13 18 17
f 17 38 13
f 16 38 17
f 16 17 12
f 3 8 4
f 4 1 3
f 11 7 12
f 12 15 11
f 37 15 12
f 12 34 35
f 21 22 12
f 25 26 12
f 12 26 27
f 36 37 12
f 12 35 36
f 20 21 12
f 12 22 23
f 33 34 12
f 12 29 30
f 30 31 12
f 28 29 12
f 12 27 28
f 12 18 19
f 19 20 12
f 24 25 12
f 12 23 24
f 12 31 32
f 32 33 12
f 9 6 2
f 2 1 9
f 9 1 5
f 9 10 6
f 9 14 10
f 6 10 7
f 2 6 7
f 10 12 7
f 16 12 10
f 10 14 16
f 14 9 8
f 8 9 5
f 8 5 4
f 8 16 14
f 8 13 38
f 38 16 8
f 32 1 2
f 2 7 32
f 32 3 1
f 18 13 32
f 26 25 32
f 13 8 32
f 7 11 32
f 32 35 34
f 8 3 32
f 32 11 15
f 15 37 32
f 37 36 32
f 32 23 22
f 32 27 26
f 22 21 32
f 29 28 32
f 34 33 32
f 32 30 29
f 32 36 35
f 21 20 32
f 32 19 18
f 25 24 32
f 31 30 32
f 32 28 27
f 20 19 32
f 32 24 23

