# https://github.com/mikedh/trimesh
v -0.00235608 0.00700938 -0.01592910
v -0.00231599 0.00695721 -0.01592910
v -0.00235608 0.00700938 -0.01477660
v -0.00074408 0.00700938 -0.01592910
v -0.00229800 0.00693753 -0.01592910
v -0.00231599 0.00695721 -0.01440195
v -0.00235592 0.00700930 -0.01440195
v -0.00075229 0.00700938 -0.01440195
v -0.00074408 0.00700938 -0.01440195
v -0.00076775 0.00697837 -0.01592910
v -0.00225697 0.00689289 -0.01592910
v -0.00225697 0.00689289 -0.01440195
v -0.00078401 0.00695721 -0.01440195
v -0.00078401 0.00695721 -0.01592910
v -0.00223741 0.00687486 -0.01592910
v -0.00219275 0.00683394 -0.01440195
v -0.00084303 0.00689289 -0.01440195
v -0.00082488 0.00691253 -0.01592910
v -0.00219275 0.00683394 -0.01592910
v -0.00217160 0.00681767 -0.01592910
v -0.00212347 0.00678089 -0.01440195
v -0.00090725 0.00683394 -0.01440195
v -0.00084303 0.00689289 -0.01592910
v -0.00212347 0.00678089 -0.01592910
v -0.00210106 0.00676654 -0.01592910
v -0.00204993 0.00673400 -0.01440195
v -0.00097653 0.00678089 -0.01440195
v -0.00090725 0.00683394 -0.01592910
v -0.00204993 0.00673400 -0.01592910
v -0.00202626 0.00672166 -0.01592910
v -0.00197261 0.00669373 -0.01440195
v -0.00097653 0.00678089 -0.01592910
v -0.00105007 0.00673400 -0.01440195
v -0.00102750 0.00674835 -0.01592910
v -0.00197261 0.00669373 -0.01592910
v -0.00189197 0.00666031 -0.01440195
v -0.00112739 0.00669373 -0.01440195
v -0.00110372 0.00670603 -0.01592910
v -0.00105007 0.00673400 -0.01592910
v -0.00189197 0.00666031 -0.01592910
v -0.00186656 0.00665229 -0.01592910
v -0.00180880 0.00663410 -0.01440195
v -0.00120803 0.00666031 -0.01440195
v -0.00112739 0.00669373 -0.01592910
v -0.00180880 0.00663410 -0.01592910
v -0.00178276 0.00662833 -0.01592910
v -0.00172359 0.00661523 -0.01440195
v -0.00129120 0.00663410 -0.01440195
v -0.00120803 0.00666031 -0.01592910
v -0.00172359 0.00661523 -0.01592910
v -0.00163711 0.00660381 -0.01440195
v -0.00137641 0.00661523 -0.01440195
v -0.00129120 0.00663410 -0.01592910
v -0.00163711 0.00660381 -0.01592910
v -0.00161044 0.00660264 -0.01592910
v -0.00155000 0.00660004 -0.01440195
v -0.00146289 0.00660381 -0.01440195
v -0.00137641 0.00661523 -0.01592910
v -0.00155000 0.00660004 -0.01592910
v -0.00146289 0.00660381 -0.01592910
f 6 7 3
f 3 7 8
f 19 16 15
f 11 15 12
f 12 15 16
f 14 10 13
f 38 37 44
f 33 39 34
f 33 38 39
f 37 38 33
f 35 31 30
f 25 29 26
f 29 30 26
f 26 30 31
f 6 2 5
f 5 12 6
f 11 12 5
f 20 16 19
f 14 13 18
f 23 18 17
f 17 18 13
f 9 10 4
f 9 13 10
f 34 32 27
f 27 33 34
f 21 24 25
f 25 26 21
f 21 20 24
f 16 20 21
f 45 42 41
f 40 41 36
f 36 41 42
f 55 59 56
f 56 51 55
f 55 51 54
f 46 42 45
f 47 46 50
f 42 46 47
f 37 43 49
f 44 37 49
f 2 3 1
f 6 3 2
f 53 49 48
f 48 49 43
f 48 58 53
f 52 58 48
f 59 60 57
f 56 59 57
f 60 58 57
f 57 58 52
f 28 23 17
f 17 22 28
f 9 4 1
f 1 3 9
f 9 3 8
f 27 32 28
f 28 22 27
f 35 40 36
f 36 31 35
f 44 49 46
f 1 4 46
f 46 60 59
f 46 2 1
f 11 5 46
f 46 20 19
f 28 32 46
f 4 10 46
f 46 23 28
f 53 58 46
f 46 38 44
f 19 15 46
f 45 41 46
f 46 40 35
f 46 49 53
f 34 39 46
f 46 32 34
f 35 30 46
f 46 29 25
f 46 15 11
f 25 24 46
f 46 10 14
f 46 58 60
f 39 38 46
f 46 30 29
f 46 5 2
f 24 20 46
f 59 55 46
f 46 18 23
f 14 18 46
f 46 41 40
f 46 55 54
f 54 50 46
f 47 7 6
f 6 12 47
f 8 7 47
f 47 48 43
f 16 21 47
f 47 43 37
f 56 57 47
f 37 33 47
f 22 17 47
f 47 12 16
f 47 51 56
f 47 26 31
f 52 48 47
f 47 57 52
f 47 9 8
f 47 27 22
f 47 17 13
f 13 9 47
f 33 27 47
f 47 21 26
f 31 36 47
f 47 36 42
f 47 50 54
f 54 51 47

