# https://github.com/mikedh/trimesh
v -0.01640804 0.00751057 0.01165772
v -0.01640804 0.00751057 0.01471277
v -0.01640804 0.00962361 0.01165772
v -0.01308665 0.00751057 0.01165772
v -0.01640804 0.00950633 0.01471277
v -0.01308665 0.00751057 0.01471277
v -0.01640804 0.00962361 0.01439994
v -0.01308665 0.00962361 0.01165772
v -0.01608812 0.00962361 0.01471277
v -0.01308665 0.00962361 0.01471277
f 5 9 7
f 1 3 8
f 8 4 1
f 1 4 6
f 6 2 1
f 4 8 6
f 6 8 10
f 2 6 9
f 9 6 10
f 9 5 2
f 7 3 1
f 1 2 7
f 2 5 7
f 7 8 3
f 10 8 7
f 7 9 10

