# https://github.com/mikedh/trimesh
v -0.01651434 -0.01240000 -0.01439965
v -0.01612619 -0.01240000 -0.01439965
v -0.01651434 -0.01240000 0.01439965
v -0.01651434 -0.01225403 -0.01494438
v -0.01612619 -0.01233500 -0.01464244
v -0.01612619 -0.01240000 0.01439965
v -0.01649998 -0.01235000 0.01590000
v -0.01651434 -0.01234935 0.01590000
v -0.01651434 -0.01216886 -0.01526188
v -0.01612619 -0.01206547 -0.01564787
v -0.01612619 -0.01219983 -0.01514671
v -0.01612619 -0.01231564 0.01590000
v -0.01614511 -0.01231967 0.01590000
v -0.01632190 -0.01234242 0.01590000
v -0.01651434 -0.01099945 0.01590000
v -0.01651434 -0.01206692 -0.01564164
v -0.01651434 -0.01203676 -0.01575370
v -0.01651434 -0.01199821 -0.01589689
v -0.01612619 -0.01202176 -0.01580973
v -0.01612619 -0.01090025 0.01590000
v -0.01651434 -0.01075218 0.01439965
v -0.01651434 -0.01180965 -0.01590000
v -0.01612619 -0.01199821 -0.01589689
v -0.01612619 -0.01075218 0.01439965
v -0.01651434 -0.01075218 -0.01590000
v -0.01612619 -0.01178191 -0.01590000
v -0.01612619 -0.01075218 -0.01590000
f 15 20 21
f 7 3 6
f 21 20 24
f 8 3 7
f 7 6 14
f 5 2 1
f 18 22 23
f 13 6 12
f 13 14 6
f 10 9 16
f 4 5 1
f 4 9 10
f 19 10 18
f 18 23 19
f 26 23 22
f 18 10 17
f 10 16 17
f 11 4 10
f 5 4 11
f 6 3 1
f 1 2 6
f 24 25 21
f 24 27 25
f 13 12 20
f 15 8 13
f 20 15 13
f 13 8 7
f 7 14 13
f 26 22 25
f 25 27 26
f 21 25 17
f 1 3 17
f 3 8 17
f 17 15 21
f 25 22 17
f 17 22 18
f 17 8 15
f 17 4 1
f 17 16 9
f 9 4 17
f 20 12 11
f 11 6 2
f 11 24 20
f 12 6 11
f 2 5 11
f 27 24 11
f 11 26 27
f 10 19 11
f 11 19 23
f 23 26 11

