# https://github.com/mikedh/trimesh
v -0.02244988 -0.01025134 0.01519331
v -0.02244988 -0.01024962 0.01440283
v -0.02244333 -0.01040266 0.01440283
v -0.02244315 -0.01040391 0.01519331
v -0.02244811 -0.01020733 0.01519331
v -0.02244811 -0.01020733 0.01440283
v -0.02242341 -0.01055397 0.01440283
v -0.02242313 -0.01055522 0.01519331
v -0.02189347 -0.01020733 0.01519331
v -0.02149440 -0.01020733 0.01440283
v -0.02239029 -0.01070309 0.01440283
v -0.02238992 -0.01070419 0.01519331
v -0.02149440 -0.01020733 0.01479431
v -0.02149440 -0.01050008 0.01519331
v -0.02149440 -0.01180755 0.01440283
v -0.02234446 -0.01084861 0.01440283
v -0.02234389 -0.01084986 0.01519331
v -0.02149440 -0.01180740 0.01519331
v -0.02149440 -0.01180755 0.01472498
v -0.02157391 -0.01176604 0.01519331
v -0.02157503 -0.01176542 0.01440283
v -0.02228599 -0.01098958 0.01440283
v -0.02228543 -0.01099084 0.01519331
v -0.02170272 -0.01168412 0.01519331
v -0.02170385 -0.01168349 0.01440283
v -0.02221546 -0.01112492 0.01440283
v -0.02221480 -0.01112602 0.01519331
v -0.02182396 -0.01159123 0.01519331
v -0.02182490 -0.01159045 0.01440283
v -0.02213351 -0.01125368 0.01440283
v -0.02213267 -0.01125462 0.01519331
v -0.02193659 -0.01148817 0.01519331
v -0.02193753 -0.01148738 0.01440283
v -0.02204052 -0.01137476 0.01440283
v -0.02203968 -0.01137570 0.01519331
f 13 9 14
f 5 6 2
f 5 2 1
f 1 2 3
f 25 21 24
f 11 16 12
f 26 23 22
f 22 23 16
f 30 34 31
f 20 24 21
f 20 19 18
f 20 21 15
f 15 19 20
f 33 29 28
f 32 33 28
f 28 29 25
f 25 24 28
f 16 23 17
f 17 12 16
f 8 7 11
f 11 12 8
f 35 31 34
f 35 34 33
f 35 33 32
f 26 30 27
f 30 31 27
f 27 23 26
f 3 7 4
f 7 8 4
f 1 3 4
f 10 6 5
f 5 13 10
f 9 13 5
f 34 6 10
f 10 15 34
f 2 6 34
f 34 29 33
f 34 3 2
f 34 30 26
f 34 16 11
f 11 7 34
f 15 21 34
f 34 7 3
f 26 22 34
f 34 21 25
f 25 29 34
f 34 22 16
f 19 15 10
f 14 18 19
f 10 13 19
f 19 13 14
f 14 9 4
f 4 5 1
f 4 18 14
f 9 5 4
f 23 27 4
f 4 17 23
f 4 20 18
f 32 28 4
f 4 35 32
f 24 20 4
f 4 28 24
f 12 17 4
f 4 8 12
f 31 35 4
f 4 27 31

