# https://github.com/mikedh/trimesh
v 0.01969984 0.01239908 0.01440000
v 0.01827303 0.01239908 0.01440000
v 0.02111053 0.01098858 0.01440000
v 0.02023701 0.01186280 0.00924410
v 0.01969984 0.01239908 0.00924410
v 0.01827303 0.01239908 0.00924410
v 0.01827303 0.00301872 0.01440000
v 0.02111053 0.01098858 0.00924410
v 0.02111053 0.00301872 0.01440000
v 0.01827303 0.00301872 0.00924410
v 0.02111053 0.00301872 0.00924410
f 3 4 1
f 8 4 3
f 5 1 4
f 9 1 2
f 2 7 9
f 3 1 9
f 3 9 8
f 8 9 11
f 2 1 5
f 5 6 2
f 10 8 11
f 4 8 10
f 10 5 4
f 6 5 10
f 10 9 7
f 11 9 10
f 10 7 2
f 2 6 10

