# https://github.com/mikedh/trimesh
v 0.02270000 -0.00783779 0.00891429
v 0.02270000 -0.00939991 0.00891429
v 0.02270000 -0.00783779 -0.01440000
v 0.00720713 -0.00783779 0.00891429
v 0.02212821 -0.00997129 0.00891429
v 0.02270000 -0.00939991 -0.01440000
v 0.00720713 -0.00783779 -0.01440000
v 0.00720713 -0.01039994 0.00891429
v 0.02169899 -0.01039994 0.00891429
v 0.02169899 -0.01039994 -0.01440000
v 0.00720713 -0.01039994 -0.01440000
f 9 10 5
f 2 5 6
f 6 5 10
f 1 3 7
f 4 1 7
f 4 7 11
f 11 8 4
f 11 9 8
f 11 10 9
f 5 1 4
f 4 8 5
f 8 9 5
f 5 2 1
f 6 7 3
f 10 11 6
f 6 11 7
f 6 3 1
f 1 2 6

