# https://github.com/mikedh/trimesh
v 0.00248063 -0.00999702 -0.01590000
v 0.00349400 -0.00999702 -0.01590000
v 0.00248063 -0.00999702 -0.01440723
v 0.00248063 -0.00650034 -0.01590000
v 0.00349400 -0.00999702 -0.01440723
v 0.00438140 -0.00952258 -0.01590000
v 0.00248063 -0.00650034 -0.01440723
v 0.00361923 -0.00650034 -0.01590000
v 0.00438140 -0.00952258 -0.01440723
v 0.00438140 -0.00741910 -0.01590000
v 0.00412015 -0.00650034 -0.01440723
v 0.00438140 -0.00682245 -0.01440723
f 12 10 11
f 10 8 11
f 6 10 9
f 9 10 12
f 7 4 1
f 1 3 7
f 8 2 1
f 1 4 8
f 6 2 8
f 8 10 6
f 1 2 5
f 5 3 1
f 5 2 6
f 6 9 5
f 11 9 12
f 11 7 3
f 3 5 11
f 11 5 9
f 4 7 11
f 11 8 4

