# https://github.com/mikedh/trimesh
v -0.00895908 -0.00679730 0.01700000
v -0.00952357 -0.00679720 0.01700000
v -0.00895908 -0.00699999 0.01700000
v -0.00895908 -0.00679623 0.01331770
v -0.00952357 -0.00699999 0.01700000
v -0.00952357 -0.00679593 0.01250452
v -0.00952357 -0.00703674 0.01588610
v -0.00895908 -0.00703674 0.01588304
v -0.00895908 -0.00679593 0.01217925
v -0.00952357 -0.00679593 -0.01434866
v -0.00952357 -0.00703674 -0.01434559
v -0.00895908 -0.00703674 -0.01434559
v -0.00895908 -0.00679593 -0.01434866
f 2 1 4
f 4 6 2
f 9 6 4
f 3 5 7
f 7 8 3
f 12 8 11
f 11 8 7
f 6 5 2
f 6 11 7
f 7 5 6
f 10 11 6
f 13 11 10
f 12 11 13
f 10 6 13
f 13 6 9
f 3 4 1
f 12 13 3
f 3 8 12
f 9 4 3
f 3 13 9
f 2 5 3
f 3 1 2

