# https://github.com/mikedh/trimesh
v 0.00000660 -0.00752845 0.01590000
v 0.00000660 -0.00950320 0.01590000
v 0.00000660 -0.00752748 0.01588813
v -0.00001044 -0.00752748 0.01590000
v -0.00404237 -0.00950320 0.01590000
v 0.00000660 -0.00950320 -0.01439910
v 0.00000660 -0.00752748 -0.01439910
v -0.00404237 -0.00752748 0.01590000
v -0.00404237 -0.00950320 -0.01439910
v -0.00155021 -0.00859985 -0.01441987
v -0.00146302 -0.00859618 -0.01441987
v -0.00137661 -0.00858477 -0.01441987
v -0.00129140 -0.00856582 -0.01441987
v -0.00120817 -0.00853952 -0.01441987
v -0.00112771 -0.00850645 -0.01441987
v -0.00105003 -0.00846603 -0.01441987
v -0.00097671 -0.00841922 -0.01441987
v -0.00090735 -0.00836623 -0.01441987
v -0.00084315 -0.00830725 -0.01441987
v -0.00078409 -0.00824285 -0.01441987
v -0.00073098 -0.00817361 -0.01441987
v -0.00068421 -0.00810012 -0.01441987
v -0.00064379 -0.00802276 -0.01441987
v -0.00061050 -0.00794212 -0.01441987
v -0.00058434 -0.00785896 -0.01441987
v -0.00056531 -0.00777367 -0.01441987
v -0.00055382 -0.00768722 -0.01441987
v -0.00055025 -0.00759904 -0.01441987
v -0.00055342 -0.00752748 -0.01441987
v -0.00404237 -0.00752748 -0.01439613
v -0.00404237 -0.00752845 -0.01439910
v -0.00254977 -0.00760000 -0.01441987
v -0.00254581 -0.00768722 -0.01441987
v -0.00253471 -0.00777367 -0.01441987
v -0.00251568 -0.00785896 -0.01441987
v -0.00248953 -0.00794212 -0.01441987
v -0.00245623 -0.00802276 -0.01441987
v -0.00241581 -0.00810012 -0.01441987
v -0.00236904 -0.00817361 -0.01441987
v -0.00231593 -0.00824285 -0.01441987
v -0.00225688 -0.00830725 -0.01441987
v -0.00219267 -0.00836623 -0.01441987
v -0.00212331 -0.00841922 -0.01441987
v -0.00204999 -0.00846603 -0.01441987
v -0.00197270 -0.00850645 -0.01441987
v -0.00189225 -0.00853952 -0.01441987
v -0.00180902 -0.00856582 -0.01441987
v -0.00172380 -0.00858477 -0.01441987
v -0.00163740 -0.00859618 -0.01441987
v -0.00070760 -0.00752748 -0.01441987
v -0.00254660 -0.00752845 -0.01441987
f 10 6 9
f 50 51 30
f 30 51 31
f 1 3 4
f 28 7 6
f 7 28 29
f 11 6 10
f 11 12 6
f 6 12 13
f 19 20 6
f 6 18 19
f 6 15 16
f 10 9 49
f 9 48 49
f 47 48 9
f 9 41 42
f 42 43 9
f 44 45 9
f 9 43 44
f 33 34 9
f 35 36 9
f 9 34 35
f 40 41 9
f 9 39 40
f 9 36 37
f 14 15 6
f 6 13 14
f 17 18 6
f 6 16 17
f 6 20 21
f 21 22 6
f 23 24 6
f 6 22 23
f 27 28 6
f 6 26 27
f 6 24 25
f 25 26 6
f 9 45 46
f 46 47 9
f 32 33 9
f 9 31 32
f 32 31 51
f 38 39 9
f 9 37 38
f 9 2 5
f 9 6 2
f 1 2 3
f 2 6 3
f 6 7 3
f 5 8 31
f 31 8 30
f 31 9 5
f 4 2 1
f 5 2 4
f 4 8 5
f 30 8 29
f 29 3 7
f 29 50 30
f 8 4 29
f 29 4 3
f 50 29 38
f 51 50 38
f 38 25 24
f 38 16 15
f 36 35 38
f 38 37 36
f 24 23 38
f 45 44 38
f 38 11 10
f 20 19 38
f 38 29 28
f 18 17 38
f 10 49 38
f 38 42 41
f 38 46 45
f 41 40 38
f 12 11 38
f 38 13 12
f 38 19 18
f 15 14 38
f 38 21 20
f 28 27 38
f 38 49 48
f 48 47 38
f 43 42 38
f 38 44 43
f 34 33 38
f 38 35 34
f 38 40 39
f 38 32 51
f 38 14 13
f 38 17 16
f 22 21 38
f 38 23 22
f 38 27 26
f 26 25 38
f 47 46 38
f 33 32 38

