# https://github.com/mikedh/trimesh
v 0.00720561 -0.00891143 0.00367480
v 0.00362719 -0.00891143 0.00367480
v 0.00720561 -0.01240000 0.00367480
v 0.00720561 -0.00891143 -0.00668484
v 0.00362719 -0.01240000 0.00367480
v 0.00362719 -0.00891143 -0.01440723
v 0.00720561 -0.01240000 -0.01439838
v 0.00720561 -0.00918257 -0.01439838
v 0.00720386 -0.00891143 -0.01439838
v 0.00362719 -0.01240000 -0.01042656
v 0.00675056 -0.00891143 -0.01440723
v 0.00362719 -0.01239795 -0.01440723
v 0.00719966 -0.01240000 -0.01439838
v 0.00719966 -0.01239795 -0.01440723
v 0.00719966 -0.00918598 -0.01440723
v 0.00362719 -0.01239932 -0.01440015
f 9 15 11
f 8 15 9
f 9 4 8
f 10 16 13
f 13 16 12
f 5 3 1
f 5 1 2
f 2 1 11
f 11 6 2
f 1 4 11
f 11 4 9
f 1 3 8
f 8 4 1
f 3 7 8
f 14 12 6
f 6 11 14
f 14 11 15
f 14 8 7
f 15 8 14
f 16 5 2
f 2 6 16
f 6 12 16
f 16 10 5
f 3 5 13
f 13 7 3
f 5 10 13
f 12 14 13
f 13 14 7

