# https://github.com/mikedh/trimesh
v -0.01308665 0.00962382 -0.01220440
v -0.01640804 0.00962382 -0.01220440
v -0.01308665 0.00700964 -0.01220440
v -0.01308665 0.00962382 -0.01589972
v -0.01640804 0.00700964 -0.01220440
v -0.01640804 0.00962382 -0.01589972
v -0.01308665 0.00700964 -0.01592925
v -0.01308665 0.00919977 -0.01592925
v -0.01640804 0.00700964 -0.01592925
v -0.01640804 0.00919977 -0.01592925
f 5 3 1
f 5 1 2
f 3 5 9
f 9 7 3
f 1 3 8
f 3 7 8
f 8 4 1
f 2 1 6
f 1 4 6
f 10 5 2
f 10 9 5
f 2 6 10
f 7 9 10
f 10 8 7
f 4 8 10
f 10 6 4

