# https://github.com/mikedh/trimesh
v 0.00248045 0.00703902 -0.01440723
v 0.00248045 0.01239790 -0.01440723
v 0.00457583 0.00703902 -0.01440723
v 0.00248045 0.00703902 0.01440698
v 0.00501170 0.01239790 -0.01440723
v 0.00248045 0.01239948 -0.01439877
v 0.00493142 0.00742892 -0.01440723
v 0.00501170 0.00703902 -0.01439877
v 0.00259320 0.00703902 0.01440980
v 0.00248045 0.01237219 0.01440980
v 0.00501170 0.00860964 -0.01440723
v 0.00501170 0.01239948 -0.01439877
v 0.00248045 0.01239948 0.01439851
v 0.00493414 0.00743207 -0.01440723
v 0.00501170 0.00750501 -0.01440441
v 0.00501170 0.00703902 0.01439851
v 0.00453023 0.00703902 0.01440980
v 0.00248045 0.01239685 0.01440980
v 0.00501170 0.01239948 0.01439851
v 0.00501170 0.01239843 0.01440416
v 0.00501170 0.00750082 0.01440698
v 0.00501170 0.00790646 0.01440980
v 0.00501170 0.01239685 0.01440980
f 19 13 20
f 20 13 18
f 8 3 7
f 7 14 8
f 14 11 15
f 8 14 15
f 10 4 9
f 20 18 23
f 21 17 16
f 22 17 21
f 12 2 6
f 5 2 12
f 19 12 6
f 6 13 19
f 1 2 7
f 7 2 5
f 7 3 1
f 5 11 7
f 7 11 14
f 17 4 1
f 1 3 17
f 9 4 17
f 8 16 17
f 17 3 8
f 6 2 10
f 10 2 1
f 1 4 10
f 10 13 6
f 10 18 13
f 9 17 23
f 23 17 22
f 18 10 23
f 23 10 9
f 5 12 21
f 21 16 8
f 8 15 21
f 21 11 5
f 21 19 20
f 20 23 21
f 12 19 21
f 21 15 11
f 21 23 22

