# https://github.com/mikedh/trimesh
v -0.01918741 -0.00964278 0.01537882
v -0.01925784 -0.00964278 0.01563155
v -0.01920168 -0.00964422 0.01557523
v -0.01918746 -0.00969953 0.01558570
v -0.01918741 -0.00983092 0.01562804
v -0.01918741 -0.01020722 0.01537882
v -0.01975491 -0.00964278 0.01537882
v -0.01925695 -0.00972483 0.01565962
v -0.01922074 -0.00971163 0.01562421
v -0.01929778 -0.00964278 0.01566445
v -0.01918752 -0.00998111 0.01565900
v -0.01921674 -0.00985258 0.01565962
v -0.01919252 -0.01019401 0.01567933
v -0.01927123 -0.01020722 0.01572962
v -0.01949993 -0.01020722 0.01537882
v -0.01975491 -0.00999995 0.01537882
v -0.01975491 -0.00999995 0.01580000
v -0.01973974 -0.00964278 0.01580000
v -0.01925679 -0.00986336 0.01569145
v -0.01933584 -0.00964278 0.01569145
v -0.01929606 -0.00973903 0.01569145
v -0.01919952 -0.01011864 0.01568217
v -0.01922862 -0.00999050 0.01569145
v -0.01925562 -0.01012356 0.01571957
v -0.01930184 -0.01012759 0.01574377
v -0.01936717 -0.01020722 0.01577023
v -0.01949993 -0.01020722 0.01579769
v -0.01957748 -0.00999995 0.01580000
v -0.01970402 -0.00967510 0.01580000
v -0.01965403 -0.00964433 0.01579683
v -0.01960836 -0.00964278 0.01579138
v -0.01933750 -0.00975412 0.01571957
v -0.01929945 -0.00987480 0.01571957
v -0.01927212 -0.00999813 0.01571957
v -0.01939072 -0.00964278 0.01572299
v -0.01931784 -0.01000620 0.01574377
v -0.01936539 -0.01001459 0.01576376
v -0.01935000 -0.01013179 0.01576376
v -0.01939977 -0.01013616 0.01577955
v -0.01944771 -0.01020722 0.01579085
v -0.01949993 -0.01014306 0.01579744
v -0.01953859 -0.00993878 0.01579769
v -0.01958909 -0.00995232 0.01580000
v -0.01965769 -0.00976407 0.01580000
v -0.01961031 -0.00974196 0.01579769
v -0.01956326 -0.00972003 0.01579085
v -0.01954593 -0.00964278 0.01577955
v -0.01938116 -0.00977003 0.01574377
v -0.01934434 -0.00988679 0.01574377
v -0.01943166 -0.00964985 0.01574377
v -0.01939105 -0.00989933 0.01576376
v -0.01943927 -0.00991221 0.01577955
v -0.01941461 -0.01002327 0.01577955
v -0.01945060 -0.01014063 0.01579085
v -0.01948243 -0.01003465 0.01579344
v -0.01951165 -0.00999995 0.01579637
v -0.01957015 -0.00983888 0.01579769
v -0.01948854 -0.00992536 0.01579085
v -0.01952143 -0.00982109 0.01579085
v -0.01961931 -0.00985673 0.01580000
v -0.01947332 -0.00980363 0.01577955
v -0.01951693 -0.00969842 0.01577955
v -0.01948071 -0.00966007 0.01576376
v -0.01942660 -0.00978655 0.01576376
f 7 17 18
f 16 17 7
f 5 6 1
f 5 11 6
f 6 11 13
f 13 14 6
f 27 28 17
f 19 8 21
f 2 3 1
f 10 8 2
f 4 5 1
f 1 3 4
f 3 2 4
f 12 8 19
f 5 8 12
f 11 5 12
f 19 23 12
f 12 23 11
f 11 23 22
f 22 13 11
f 9 2 8
f 9 4 2
f 9 8 5
f 5 4 9
f 29 44 45
f 29 30 18
f 45 30 29
f 28 27 41
f 41 42 28
f 41 56 42
f 55 56 41
f 50 35 47
f 50 47 63
f 20 8 10
f 20 21 8
f 18 30 31
f 40 41 27
f 63 47 62
f 24 22 23
f 14 13 24
f 13 22 24
f 25 26 14
f 14 24 25
f 25 36 37
f 28 42 43
f 64 50 63
f 63 62 64
f 46 30 45
f 46 31 30
f 47 31 46
f 46 62 47
f 55 41 54
f 41 40 54
f 55 54 58
f 58 56 55
f 42 56 58
f 58 59 42
f 42 59 57
f 57 46 45
f 59 46 57
f 44 60 57
f 45 44 57
f 60 43 57
f 57 43 42
f 34 24 23
f 34 33 36
f 36 25 34
f 34 25 24
f 34 23 19
f 19 33 34
f 38 25 37
f 26 25 38
f 19 21 32
f 32 33 19
f 32 20 35
f 21 20 32
f 61 64 62
f 61 58 52
f 59 58 61
f 61 46 59
f 62 46 61
f 51 52 37
f 51 61 52
f 64 61 51
f 39 38 37
f 26 38 39
f 39 40 26
f 39 54 40
f 33 32 49
f 64 51 49
f 36 33 49
f 37 36 49
f 49 51 37
f 53 58 54
f 54 39 53
f 52 58 53
f 37 52 53
f 53 39 37
f 64 49 48
f 48 49 32
f 50 64 48
f 35 50 48
f 48 32 35
f 1 6 15
f 7 1 15
f 15 16 7
f 16 15 27
f 17 16 27
f 31 1 7
f 7 18 31
f 31 20 10
f 31 2 1
f 10 2 31
f 47 35 31
f 35 20 31
f 40 15 6
f 40 27 15
f 6 14 40
f 14 26 40
f 17 28 43
f 43 18 17
f 43 29 18
f 44 29 43
f 43 60 44

