# https://github.com/mikedh/trimesh
v 0.01726318 0.00878342 0.01869984
v 0.01750032 0.00866000 0.01869984
v 0.01726318 0.00878342 0.01700245
v 0.01726318 0.00618496 0.01869984
v 0.01750032 0.00866000 0.01700245
v 0.01823577 0.00819141 0.01869984
v 0.01726318 0.00618496 0.01700245
v 0.01821398 0.00593757 0.01869984
v 0.01823577 0.00819141 0.01700245
v 0.01892765 0.00766040 0.01869984
v 0.01845817 0.00802091 0.01700245
v 0.01821398 0.00593757 0.01700245
v 0.02053667 0.00593757 0.01869984
v 0.01892765 0.00766040 0.01700245
v 0.01957081 0.00707117 0.01869984
v 0.02053667 0.00593757 0.01700245
v 0.02016013 0.00642789 0.01869984
v 0.01957081 0.00707117 0.01700245
v 0.01976020 0.00686473 0.01700245
v 0.02016013 0.00642789 0.01700245
f 15 17 19
f 19 18 15
f 20 19 17
f 11 6 10
f 9 6 11
f 10 14 11
f 8 12 16
f 13 8 16
f 7 4 1
f 1 3 7
f 7 12 8
f 8 4 7
f 10 15 14
f 15 18 14
f 13 17 2
f 2 8 13
f 1 4 2
f 2 4 8
f 2 15 10
f 10 6 2
f 2 17 15
f 2 3 1
f 2 5 3
f 9 5 2
f 2 6 9
f 13 16 20
f 20 17 13
f 11 16 12
f 3 5 11
f 11 7 3
f 12 7 11
f 11 20 16
f 11 5 9
f 18 19 11
f 11 14 18
f 19 20 11

