# https://github.com/mikedh/trimesh
v -0.00160985 0.00889451 0.01590000
v -0.00240578 0.00889451 0.01590000
v -0.00160985 0.00814907 0.01590000
v -0.00160985 0.00889451 -0.01439910
v -0.00240578 0.00814907 0.01590000
v -0.00240578 0.00889451 -0.01439910
v -0.00160985 0.00814907 -0.01441987
v -0.00160985 0.00859735 -0.01441987
v -0.00240578 0.00814907 -0.01439910
v -0.00163720 0.00859619 -0.01441987
v -0.00172369 0.00858480 -0.01441987
v -0.00180887 0.00856590 -0.01441987
v -0.00189209 0.00853963 -0.01441987
v -0.00197267 0.00850635 -0.01441987
v -0.00204997 0.00846607 -0.01441987
v -0.00212353 0.00841922 -0.01441987
v -0.00219273 0.00836610 -0.01441987
v -0.00225709 0.00830713 -0.01441987
v -0.00231601 0.00824284 -0.01441987
v -0.00236915 0.00817359 -0.01441987
v -0.00238474 0.00814907 -0.01441987
f 4 8 6
f 6 21 9
f 19 6 18
f 21 6 20
f 6 19 20
f 18 6 17
f 6 16 17
f 6 14 15
f 15 16 6
f 11 12 6
f 13 14 6
f 6 12 13
f 10 6 8
f 10 11 6
f 5 3 1
f 5 1 2
f 1 3 8
f 3 7 8
f 8 4 1
f 3 5 21
f 21 7 3
f 5 9 21
f 2 1 6
f 1 4 6
f 6 5 2
f 6 9 5
f 10 8 7
f 7 21 10
f 10 19 18
f 21 20 10
f 10 15 14
f 18 17 10
f 14 13 10
f 10 20 19
f 10 17 16
f 16 15 10
f 12 11 10
f 10 13 12

