# https://github.com/mikedh/trimesh
v -0.01650651 -0.01035006 0.01439745
v -0.01724278 -0.01035006 0.01440042
v -0.01705639 -0.01075214 0.01440042
v -0.01650651 -0.01075214 0.01439745
v -0.01650651 -0.01035006 -0.01589704
v -0.01870195 -0.01035006 0.01440042
v -0.01870151 -0.01075214 0.01440042
v -0.01650651 -0.01075214 -0.01589704
v -0.01871036 -0.01035006 -0.01589704
v -0.01871036 -0.01035006 0.01439745
v -0.01871036 -0.01075214 0.01439745
v -0.01871036 -0.01075214 -0.01589704
f 1 3 4
f 2 3 1
f 10 11 6
f 7 6 11
f 9 5 12
f 5 8 12
f 4 5 1
f 4 8 5
f 11 10 9
f 9 12 11
f 1 5 6
f 6 5 9
f 9 10 6
f 6 2 1
f 7 12 8
f 8 4 7
f 7 4 3
f 7 11 12
f 2 6 7
f 3 2 7

