# https://github.com/mikedh/trimesh
v 0.01461283 0.00137481 0.01439851
v 0.01446703 0.00137481 0.01440980
v 0.01457832 0.00120001 0.01440980
v 0.01458154 0.00119395 0.01440980
v 0.01460714 0.00114486 0.01440980
v 0.01461283 0.00114486 0.01439851
v 0.01461283 0.00137481 -0.01440723
v 0.01267601 0.00137481 0.01440980
v 0.01267601 0.00114486 0.01440980
v 0.01461283 0.00114486 -0.01440723
v 0.01267601 0.00137481 -0.01440723
v 0.01267601 0.00114486 -0.01439877
v 0.01299944 0.00114486 -0.01440723
v 0.01267601 0.00123643 -0.01440723
f 1 5 6
f 1 2 3
f 4 5 1
f 1 3 4
f 14 13 12
f 1 7 11
f 8 2 11
f 11 2 1
f 10 7 1
f 1 6 10
f 4 2 8
f 8 9 4
f 4 9 5
f 4 3 2
f 5 9 13
f 13 6 5
f 13 9 12
f 13 10 6
f 14 9 8
f 12 9 14
f 8 11 14
f 14 11 7
f 7 10 14
f 10 13 14

