# https://github.com/mikedh/trimesh
v -0.01640798 0.00962382 -0.01278608
v -0.01640798 0.01035581 -0.01278608
v -0.01584355 0.00962382 -0.01278608
v -0.01640798 0.00962382 0.01439891
v -0.01584355 0.01035581 -0.01278608
v -0.01640798 0.01035581 0.01439891
v -0.01584355 0.00962382 0.01441755
v -0.01608841 0.00962382 0.01441755
v -0.01584355 0.01035581 0.01439891
v -0.01584355 0.00988850 0.01441755
f 8 6 4
f 9 6 10
f 10 8 7
f 6 8 10
f 1 2 5
f 5 3 1
f 6 2 1
f 1 4 6
f 6 5 2
f 6 9 5
f 1 3 8
f 3 7 8
f 8 4 1
f 3 5 10
f 10 7 3
f 5 9 10

