# https://github.com/mikedh/trimesh
v 0.00982914 -0.00025202 0.01927291
v 0.00983492 0.00000014 0.01944488
v 0.00984547 0.00000014 0.01927291
v 0.00985743 -0.00046590 0.01927291
v 0.00987538 -0.00046274 0.01944497
v 0.00984506 -0.00023232 0.01944497
v 0.00986981 -0.00023016 0.01957683
v 0.00985977 0.00000014 0.01957665
v 0.00991949 0.00000020 0.01975987
v 0.01086508 0.00000031 0.01927291
v 0.00988633 -0.00059668 0.01927291
v 0.00990509 -0.00059668 0.01944497
v 0.00989992 -0.00045847 0.01957683
v 0.00992233 -0.00045450 0.01966114
v 0.00989252 -0.00022823 0.01966114
v 0.00988258 0.00000014 0.01966104
v 0.00992933 -0.00022496 0.01975987
v 0.00997557 0.00000014 0.01986623
v 0.01011084 0.00000020 0.02001778
v 0.01051818 0.00000031 0.02018049
v 0.01086508 0.00000031 0.01979544
v 0.01086508 -0.00059668 0.01927291
v 0.00992558 -0.00059668 0.01955088
v 0.00995377 -0.00059668 0.01966114
v 0.00995874 -0.00044801 0.01975987
v 0.01001390 -0.00043831 0.01986623
v 0.00998520 -0.00022011 0.01986623
v 0.01003732 0.00000014 0.01994817
v 0.01011997 -0.00020831 0.02001778
v 0.01021001 -0.00020042 0.02007840
v 0.01020119 0.00000014 0.02007831
v 0.01031517 0.00000020 0.02012958
v 0.01042387 0.00000014 0.02016225
v 0.01043178 -0.00018102 0.02016234
v 0.01052589 -0.00017272 0.02018049
v 0.01064564 -0.00016226 0.02019401
v 0.01063844 0.00000031 0.02019401
v 0.01083344 0.00000026 0.02019991
v 0.01086265 -0.00045438 0.02020000
v 0.01086386 -0.00059621 0.02017423
v 0.01071794 -0.00059668 0.02019192
v 0.00999169 -0.00059668 0.01975987
v 0.01004716 -0.00059668 0.01986341
v 0.01011074 -0.00059668 0.01994645
v 0.01007474 -0.00042756 0.01994817
v 0.01004675 -0.00021473 0.01994817
v 0.01014725 -0.00041482 0.02001778
v 0.01023618 -0.00039916 0.02007840
v 0.01029164 -0.00019323 0.02011805
v 0.01035533 -0.00018774 0.02014110
v 0.01045541 -0.00036048 0.02016234
v 0.01054850 -0.00034400 0.02018049
v 0.01066684 -0.00032313 0.02019401
v 0.01082574 -0.00029532 0.02020000
v 0.01080637 -0.00014817 0.02020000
v 0.01070202 -0.00048167 0.02019401
v 0.01058582 -0.00051276 0.02018049
v 0.01061228 -0.00059668 0.02018049
v 0.01018537 -0.00059668 0.02001596
v 0.01028384 -0.00059469 0.02008057
v 0.01031689 -0.00038484 0.02011805
v 0.01037987 -0.00037374 0.02014110
v 0.01050398 -0.00056699 0.02016234
v 0.01039568 -0.00058102 0.02013003
f 21 38 39
f 39 40 21
f 21 22 10
f 21 40 22
f 35 36 20
f 4 5 1
f 11 5 4
f 2 3 1
f 39 38 55
f 38 21 37
f 37 20 36
f 37 55 38
f 36 55 37
f 41 40 39
f 22 40 41
f 12 5 11
f 12 13 5
f 1 5 6
f 6 2 1
f 31 32 19
f 19 32 20
f 39 55 54
f 54 55 36
f 20 32 33
f 59 58 60
f 56 41 39
f 39 54 56
f 24 13 23
f 13 12 23
f 25 24 42
f 42 43 25
f 5 13 7
f 7 6 5
f 2 6 7
f 28 19 18
f 49 32 31
f 58 41 57
f 41 56 57
f 53 36 35
f 35 52 53
f 53 54 36
f 53 56 54
f 52 57 53
f 53 57 56
f 59 60 48
f 48 47 59
f 8 7 16
f 2 7 8
f 16 7 15
f 17 18 9
f 16 15 9
f 9 15 17
f 9 18 19
f 9 8 16
f 2 8 9
f 9 19 20
f 3 2 9
f 10 3 9
f 9 20 10
f 27 18 17
f 28 18 27
f 50 33 32
f 32 49 50
f 64 60 58
f 30 49 31
f 30 48 49
f 31 19 30
f 25 17 14
f 17 15 14
f 14 24 25
f 14 13 24
f 14 7 13
f 14 15 7
f 26 17 25
f 26 27 17
f 25 43 26
f 43 44 26
f 28 27 46
f 33 50 34
f 35 20 34
f 20 33 34
f 58 57 63
f 63 64 58
f 49 48 61
f 61 50 49
f 61 48 60
f 60 64 61
f 29 30 19
f 47 48 29
f 48 30 29
f 29 19 28
f 28 46 29
f 45 26 44
f 27 26 45
f 45 46 27
f 45 44 59
f 59 47 45
f 47 29 45
f 45 29 46
f 51 52 35
f 35 34 51
f 51 57 52
f 51 63 57
f 51 34 50
f 50 61 62
f 62 51 50
f 62 61 64
f 64 63 62
f 63 51 62
f 1 3 4
f 10 22 4
f 4 22 11
f 4 3 10
f 10 20 37
f 37 21 10
f 11 22 44
f 22 41 44
f 44 58 59
f 44 12 11
f 44 41 58
f 44 42 24
f 24 23 44
f 44 23 12
f 43 42 44

