# https://github.com/mikedh/trimesh
v 0.01502947 -0.00001776 0.01439851
v 0.01489916 -0.00001776 0.01440980
v 0.01502947 -0.00050983 0.01439851
v 0.01502947 -0.00001776 -0.01440723
v 0.01489077 -0.00020919 0.01440980
v 0.01312499 -0.00001776 0.01440980
v 0.01486336 -0.00041671 0.01440980
v 0.01484286 -0.00050983 0.01440980
v 0.01502947 -0.00050983 -0.01440723
v 0.01374931 -0.00001776 -0.01440723
v 0.01312499 -0.00050983 0.01440980
v 0.01312499 -0.00001776 -0.01439877
v 0.01364063 -0.00050983 -0.01440723
v 0.01312499 -0.00050983 -0.01439877
f 2 3 1
f 14 12 13
f 3 2 5
f 10 13 12
f 7 8 3
f 3 5 7
f 12 11 6
f 14 11 12
f 9 4 1
f 1 3 9
f 13 11 14
f 13 9 3
f 3 8 13
f 13 8 11
f 1 4 10
f 6 2 10
f 10 2 1
f 10 12 6
f 4 9 10
f 9 13 10
f 7 2 6
f 6 11 7
f 11 8 7
f 7 5 2

