# https://github.com/mikedh/trimesh
v -0.00404621 0.00699998 0.01700000
v -0.00637717 0.00699998 0.01700000
v -0.00404621 0.00543427 0.01700000
v -0.00404621 0.00700938 0.01589868
v -0.00637717 0.00543427 0.01700000
v -0.00637717 0.00700938 0.01589868
v -0.00404621 0.00543427 -0.01008571
v -0.00404621 0.00700938 -0.01408026
v -0.00637717 0.00543427 -0.01408026
v -0.00637717 0.00700938 -0.01408026
v -0.00404780 0.00543427 -0.01408026
v -0.00404621 0.00632636 -0.01408026
f 12 7 11
f 5 3 1
f 5 1 2
f 6 5 2
f 9 5 6
f 6 10 9
f 1 4 6
f 2 1 6
f 6 4 8
f 8 10 6
f 3 5 7
f 7 5 9
f 9 11 7
f 9 10 12
f 12 11 9
f 12 10 8
f 12 4 1
f 1 3 12
f 8 4 12
f 3 7 12

