# https://github.com/mikedh/trimesh
v 0.00248030 -0.00645030 0.01700000
v 0.00094812 -0.00645030 0.01700000
v 0.00248030 -0.00679590 0.01700000
v 0.00248030 -0.00645030 -0.01439928
v 0.00094812 -0.00679590 0.01700000
v 0.00094812 -0.00645030 -0.01439928
v 0.00248030 -0.00679590 -0.01590000
v 0.00248030 -0.00650003 -0.01590000
v 0.00094812 -0.00679590 -0.01439928
v 0.00095007 -0.00650003 -0.01590000
v 0.00095007 -0.00679590 -0.01590000
f 5 3 1
f 5 1 2
f 3 5 9
f 9 7 3
f 9 11 7
f 1 3 8
f 3 7 8
f 8 4 1
f 2 1 6
f 1 4 6
f 6 5 2
f 6 9 5
f 7 11 10
f 10 8 7
f 11 9 10
f 9 6 10
f 4 8 10
f 10 6 4

