# https://github.com/mikedh/trimesh
v -0.01739995 -0.00703674 -0.01592910
v -0.01739995 -0.00679593 -0.01592910
v -0.00420143 -0.00703674 -0.01592910
v -0.02229802 -0.00703674 -0.01589986
v -0.00420143 -0.00679593 -0.01592910
v -0.02229802 -0.00679593 -0.01589986
v -0.00420143 -0.00703674 -0.01434867
v -0.02231431 -0.00703674 -0.01583921
v -0.00420143 -0.00679593 -0.01434867
v -0.02270000 -0.00679593 -0.01440003
v -0.02058324 -0.00703674 -0.01434867
v -0.02270000 -0.00703674 -0.01440003
v -0.02270000 -0.00679593 -0.01434867
v -0.02270000 -0.00703474 -0.01434867
f 14 12 11
f 10 6 8
f 8 12 10
f 6 4 8
f 5 7 3
f 5 9 7
f 3 1 5
f 1 2 5
f 13 6 10
f 9 5 13
f 2 6 13
f 13 5 2
f 10 12 13
f 13 12 14
f 7 9 11
f 11 13 14
f 9 13 11
f 4 6 2
f 4 2 1
f 3 7 8
f 8 1 3
f 7 11 8
f 8 11 12
f 8 4 1

