# https://github.com/mikedh/trimesh
v 0.01095370 0.00301872 0.01440000
v 0.01009438 0.00301872 0.01440000
v 0.01095370 0.00216183 0.01440000
v 0.01095370 0.00301872 -0.01415627
v 0.01009438 0.00216183 0.01440000
v 0.01009438 0.00301872 -0.01439877
v 0.01095370 0.00216183 -0.01440723
v 0.01095370 0.00301713 -0.01439877
v 0.01092813 0.00301872 -0.01439877
v 0.01009438 0.00216183 -0.01439877
v 0.01095370 0.00256859 -0.01440723
v 0.01077925 0.00245752 -0.01440723
v 0.01057156 0.00229814 -0.01440723
v 0.01042285 0.00216183 -0.01440723
f 8 11 9
f 9 11 6
f 9 4 8
f 14 10 6
f 6 11 12
f 13 14 6
f 6 12 13
f 5 3 1
f 5 1 2
f 10 5 2
f 2 6 10
f 1 3 11
f 3 7 11
f 11 4 1
f 8 4 11
f 2 1 9
f 9 6 2
f 1 4 9
f 3 5 14
f 14 7 3
f 5 10 14
f 13 11 7
f 7 14 13
f 13 12 11

