# https://github.com/mikedh/trimesh
v -0.01640804 0.01035581 0.01439646
v -0.01724169 0.01035581 0.01453948
v -0.01709261 0.00979169 0.01453948
v -0.01640804 0.00979169 0.01439646
v -0.01640804 0.01035581 -0.01590000
v -0.01766047 0.01035581 0.01453948
v -0.01766047 0.00979169 0.01453948
v -0.01640804 0.00979169 -0.01590000
v -0.01766047 0.01035581 -0.01590000
v -0.01766047 0.00979169 -0.01590000
f 2 3 1
f 1 3 4
f 7 2 6
f 3 2 7
f 1 5 9
f 6 2 9
f 9 2 1
f 9 7 6
f 10 7 9
f 3 7 8
f 8 4 3
f 8 7 10
f 8 9 5
f 10 9 8
f 8 5 1
f 1 4 8

