# https://github.com/mikedh/trimesh
v 0.01510412 0.00000023 0.01904591
v 0.01496249 0.00000010 0.01994808
v 0.01502436 0.00000010 0.01986629
v 0.01506751 0.00000010 0.01978925
v 0.01509312 0.00000010 0.01973039
v 0.01519126 0.00000019 0.01904591
v 0.01517012 -0.00031874 0.01904591
v 0.01343564 -0.00043185 0.01907111
v 0.01343564 0.00000023 0.01907111
v 0.01413951 0.00000023 0.02020000
v 0.01488909 0.00000010 0.02001778
v 0.01495320 -0.00021465 0.01994808
v 0.01501474 -0.00021998 0.01986629
v 0.01505771 -0.00022378 0.01978925
v 0.01508315 -0.00022598 0.01973039
v 0.01510738 -0.00022810 0.01966091
v 0.01511735 0.00000010 0.01966091
v 0.01516496 0.00000010 0.01944503
v 0.01518662 0.00000010 0.01924112
v 0.01518765 -0.00008487 0.01904591
v 0.01514004 0.00000010 0.01957675
v 0.01518129 -0.00023431 0.01904591
v 0.01515482 -0.00043185 0.01906071
v 0.01414174 -0.00043185 0.02020000
v 0.01420018 0.00000010 0.02020000
v 0.01436107 0.00000010 0.02019401
v 0.01448138 0.00000010 0.02018046
v 0.01457575 0.00000010 0.02016216
v 0.01465258 0.00000010 0.02014126
v 0.01471669 0.00000010 0.02011798
v 0.01479868 0.00000010 0.02007833
v 0.01487998 -0.00020826 0.02001778
v 0.01495888 -0.00043168 0.01990651
v 0.01490851 -0.00042825 0.01996615
v 0.01500133 -0.00043185 0.01984370
v 0.01502952 -0.00043185 0.01979105
v 0.01505616 -0.00043185 0.01973039
v 0.01513007 -0.00023009 0.01957675
v 0.01507937 -0.00043185 0.01966442
v 0.01510223 -0.00043185 0.01958172
v 0.01515482 -0.00023224 0.01944503
v 0.01517648 -0.00023415 0.01924112
v 0.01515035 -0.00043185 0.01924112
v 0.01428698 -0.00043185 0.02019492
v 0.01417440 -0.00029518 0.02020000
v 0.01419365 -0.00014820 0.02020000
v 0.01435402 -0.00016224 0.02019401
v 0.01447382 -0.00017273 0.02018046
v 0.01456801 -0.00018098 0.02016216
v 0.01464433 -0.00018766 0.02014126
v 0.01470827 -0.00019324 0.02011798
v 0.01478991 -0.00020039 0.02007833
v 0.01485145 -0.00042335 0.02001733
v 0.01460703 -0.00043185 0.02014126
v 0.01512698 -0.00043185 0.01945373
v 0.01437928 -0.00043185 0.02018622
v 0.01433288 -0.00032318 0.02019401
v 0.01445130 -0.00034404 0.02018046
v 0.01454429 -0.00036045 0.02016216
v 0.01461992 -0.00037377 0.02014126
v 0.01467785 -0.00040837 0.02011798
v 0.01476121 -0.00041548 0.02007777
v 0.01452848 -0.00043185 0.02016216
v 0.01445371 -0.00043185 0.02017628
f 8 10 9
f 9 1 8
f 10 1 9
f 24 10 8
f 2 1 10
f 23 42 43
f 22 42 23
f 26 27 10
f 11 2 10
f 10 31 11
f 10 29 30
f 30 31 10
f 7 23 8
f 7 22 23
f 8 1 7
f 1 2 3
f 19 20 6
f 22 20 19
f 42 22 19
f 25 26 10
f 32 11 31
f 31 30 51
f 51 30 29
f 28 49 29
f 27 49 28
f 28 29 10
f 10 27 28
f 41 55 43
f 41 43 42
f 6 1 5
f 14 36 37
f 16 39 40
f 16 37 39
f 33 54 35
f 35 13 33
f 14 13 35
f 35 36 14
f 62 54 53
f 33 13 12
f 2 11 12
f 11 32 12
f 12 3 2
f 13 3 12
f 52 32 31
f 31 51 52
f 52 51 62
f 62 53 52
f 52 53 32
f 61 54 62
f 62 51 61
f 29 49 50
f 50 51 29
f 42 19 18
f 18 41 42
f 6 21 18
f 18 19 6
f 14 5 4
f 4 13 14
f 4 3 13
f 1 3 4
f 4 5 1
f 38 16 40
f 40 55 38
f 55 41 38
f 38 18 21
f 41 18 38
f 5 16 17
f 17 21 6
f 6 5 17
f 17 38 21
f 16 38 17
f 14 37 15
f 37 16 15
f 15 5 14
f 15 16 5
f 63 54 60
f 60 59 63
f 54 61 60
f 49 59 60
f 60 50 49
f 60 61 51
f 51 50 60
f 56 57 44
f 44 45 24
f 44 57 45
f 48 49 27
f 45 57 47
f 26 25 47
f 57 48 47
f 27 26 47
f 47 48 27
f 32 53 34
f 34 12 32
f 33 12 34
f 34 54 33
f 34 53 54
f 58 57 56
f 58 48 57
f 56 64 58
f 58 64 63
f 63 59 58
f 58 59 49
f 49 48 58
f 46 47 25
f 45 47 46
f 6 20 7
f 7 1 6
f 7 20 22
f 44 24 8
f 8 23 44
f 44 54 63
f 23 43 44
f 44 55 40
f 40 39 44
f 43 55 44
f 63 64 44
f 44 37 36
f 36 35 44
f 39 37 44
f 44 35 54
f 44 64 56
f 46 25 10
f 10 24 46
f 24 45 46

