# https://github.com/mikedh/trimesh
v -0.01628131 0.01035581 -0.00942516
v -0.01628131 0.01240000 -0.00942516
v -0.01579701 0.01035581 -0.00942516
v -0.01628131 0.01035581 0.01439772
v -0.01579701 0.01240000 -0.00942516
v -0.01628131 0.01240000 0.01439772
v -0.01579701 0.01035581 0.01439772
v -0.01579701 0.01051089 0.01474551
v -0.01628131 0.01096671 0.01474551
v -0.01579701 0.01240000 0.01439772
v -0.01628131 0.01233837 0.01474551
v -0.01579701 0.01230736 0.01474551
v -0.01579701 0.01238780 0.01444504
f 8 9 4
f 8 4 7
f 10 6 11
f 13 11 12
f 10 11 13
f 1 2 5
f 5 3 1
f 7 4 1
f 1 3 7
f 6 5 2
f 6 10 5
f 1 4 11
f 11 2 1
f 11 4 9
f 11 6 2
f 8 12 11
f 11 9 8
f 3 5 13
f 13 7 3
f 8 7 13
f 5 10 13
f 13 12 8

