# https://github.com/mikedh/trimesh
v 0.00191961 -0.00406286 -0.01440000
v 0.00191961 -0.00313194 -0.01440000
v 0.00248045 -0.00406286 -0.01440000
v 0.00191961 -0.00406286 0.01700000
v 0.00248045 -0.00313194 -0.01440000
v 0.00191961 -0.00313194 0.01601952
v 0.00248045 -0.00406286 0.01518350
v 0.00196155 -0.00406286 0.01700000
v 0.00191961 -0.00394385 0.01700000
v 0.00248045 -0.00313194 0.01439973
f 8 7 10
f 10 6 9
f 9 8 10
f 4 8 9
f 1 2 5
f 5 3 1
f 3 5 7
f 7 5 10
f 6 5 2
f 10 5 6
f 1 3 8
f 8 4 1
f 3 7 8
f 9 2 1
f 1 4 9
f 9 6 2

