# https://github.com/mikedh/trimesh
v 0.00248045 -0.00752748 0.01590000
v 0.00001338 -0.00752748 0.01590000
v 0.00248045 -0.00950320 0.01590000
v 0.00248045 -0.00752748 -0.01441987
v 0.00000660 -0.00752748 0.01588813
v 0.00000660 -0.00752845 0.01590000
v 0.00000660 -0.00950320 0.01590000
v 0.00248045 -0.00950320 -0.01441987
v 0.00095003 -0.00752748 -0.01441987
v 0.00000660 -0.00752748 -0.01439910
v 0.00000660 -0.00950320 -0.01439910
v 0.00095003 -0.00950320 -0.01441987
f 5 6 2
f 8 4 1
f 1 3 8
f 5 10 7
f 7 6 5
f 7 10 11
f 7 3 1
f 1 2 7
f 7 2 6
f 1 4 9
f 9 10 5
f 5 2 9
f 9 2 1
f 12 8 3
f 12 7 11
f 3 7 12
f 11 10 12
f 10 9 12
f 4 8 12
f 12 9 4

