# https://github.com/mikedh/trimesh
v 0.00191961 -0.00164365 -0.01440000
v 0.00191961 -0.00061096 -0.01440000
v 0.00248045 -0.00164365 -0.01440000
v 0.00191961 -0.00164365 0.01441916
v 0.00248045 -0.00061096 -0.01440000
v 0.00191961 -0.00061096 0.01439941
v 0.00248045 -0.00164365 0.01439941
v 0.00202826 -0.00164365 0.01441916
v 0.00191961 -0.00066716 0.01441916
v 0.00248045 -0.00061096 0.01439941
f 8 7 10
f 10 6 9
f 4 8 9
f 9 8 10
f 1 2 5
f 5 3 1
f 3 5 7
f 7 5 10
f 6 5 2
f 10 5 6
f 1 3 8
f 8 4 1
f 3 7 8
f 9 2 1
f 1 4 9
f 9 6 2

