# https://github.com/mikedh/trimesh
v -0.01972914 -0.01020733 0.01497091
v -0.01972914 -0.01049996 0.01497431
v -0.01972914 -0.01020733 0.01448580
v -0.02010951 -0.01020733 0.01459052
v -0.02045000 -0.01049996 0.01497431
v -0.01972914 -0.01073333 0.01497431
v -0.01972914 -0.01073333 0.01448580
v -0.02021416 -0.01020733 0.01448580
v -0.02045000 -0.01049996 0.01448580
v -0.02045000 -0.01073333 0.01497431
v -0.02045000 -0.01073333 0.01448580
f 2 1 5
f 5 1 4
f 4 8 5
f 5 8 9
f 6 2 10
f 10 2 5
f 1 2 7
f 7 3 1
f 7 2 6
f 6 10 7
f 7 10 11
f 1 3 4
f 3 8 4
f 9 7 11
f 9 8 3
f 3 7 9
f 9 10 5
f 11 10 9

