# https://github.com/mikedh/trimesh
v 0.01502947 -0.00050983 0.01439851
v 0.01484284 -0.00050983 0.01440980
v 0.01502947 -0.00074004 0.01439851
v 0.01502947 -0.00050983 -0.01440723
v 0.01481820 -0.00062117 0.01440980
v 0.01357425 -0.00050983 0.01440980
v 0.01478073 -0.00074004 0.01440980
v 0.01502947 -0.00074004 -0.01440723
v 0.01364063 -0.00050983 -0.01440723
v 0.01357425 -0.00074004 0.01440980
v 0.01357425 -0.00050983 -0.01439877
v 0.01357425 -0.00074004 -0.01440723
v 0.01357425 -0.00063818 -0.01440723
f 2 3 1
f 5 7 3
f 3 2 5
f 11 9 13
f 8 4 1
f 1 3 8
f 7 10 12
f 7 8 3
f 12 8 7
f 1 4 9
f 6 2 9
f 9 2 1
f 9 11 6
f 5 2 6
f 6 10 5
f 10 7 5
f 6 11 13
f 13 10 6
f 12 10 13
f 4 8 13
f 13 8 12
f 13 9 4

