# https://github.com/mikedh/trimesh
v -0.00148503 0.00379501 -0.01440711
v -0.00122964 0.00374429 -0.01440711
v -0.00142650 0.00379111 -0.01592910
v -0.00166179 0.00379111 -0.01592910
v -0.00168013 0.00379033 -0.01440711
v -0.00126261 0.00375599 -0.01592910
v -0.00101347 0.00364245 -0.01440711
v -0.00109483 0.00368908 -0.01592910
v -0.00185026 0.00375248 -0.01592910
v -0.00187035 0.00374429 -0.01440711
v -0.00082968 0.00348951 -0.01440711
v -0.00094733 0.00359642 -0.01592910
v -0.00203814 0.00366938 -0.01592910
v -0.00208652 0.00364245 -0.01440711
v -0.00070755 0.00333657 -0.01440711
v -0.00081856 0.00347917 -0.01592910
v -0.00222914 0.00353145 -0.01592910
v -0.00227031 0.00348951 -0.01440711
v -0.00062717 0.00318206 -0.01440711
v -0.00070755 0.00333657 -0.01592910
v -0.00234640 0.00340270 -0.01592910
v -0.00239244 0.00333657 -0.01440711
v -0.00062717 0.00318206 -0.01592910
v -0.00057488 0.00301605 -0.01440711
v -0.00243907 0.00325522 -0.01592910
v -0.00249428 0.00312042 -0.01440711
v -0.00057488 0.00301605 -0.01592910
v -0.00055206 0.00284360 -0.01440711
v -0.00055245 0.00285003 -0.01592910
v -0.00250599 0.00308745 -0.01592910
v -0.00254111 0.00292358 -0.01592910
v -0.00254520 0.00286506 -0.01440711
v -0.00055966 0.00266978 -0.01440711
v -0.00055888 0.00267641 -0.01592910
v -0.00254111 0.00268831 -0.01592910
v -0.00254033 0.00266978 -0.01440711
v -0.00060571 0.00247957 -0.01440711
v -0.00059400 0.00251254 -0.01592910
v -0.00250248 0.00249967 -0.01592910
v -0.00251555 0.00254122 -0.01440711
v -0.00070755 0.00226342 -0.01440711
v -0.00066092 0.00234477 -0.01592910
v -0.00247282 0.00241793 -0.01440711
v -0.00241936 0.00231180 -0.01592910
v -0.00075359 0.00219729 -0.01592910
v -0.00082968 0.00211048 -0.01440711
v -0.00239244 0.00226342 -0.01440711
v -0.00228143 0.00212082 -0.01592910
v -0.00087085 0.00206854 -0.01592910
v -0.00101347 0.00195754 -0.01440711
v -0.00227031 0.00211048 -0.01440711
v -0.00215266 0.00200358 -0.01592910
v -0.00101347 0.00195754 -0.01592910
v -0.00122964 0.00185570 -0.01440711
v -0.00116779 0.00187716 -0.01592910
v -0.00208652 0.00195754 -0.01440711
v -0.00200517 0.00191091 -0.01592910
v -0.00148503 0.00180498 -0.01440711
v -0.00133402 0.00182488 -0.01592910
v -0.00187035 0.00185570 -0.01440711
v -0.00183738 0.00184400 -0.01592910
v -0.00168013 0.00180966 -0.01440711
v -0.00149985 0.00180225 -0.01592910
v -0.00167349 0.00180888 -0.01592910
f 3 1 2
f 26 31 32
f 32 31 35
f 48 51 47
f 34 29 28
f 48 47 44
f 40 35 39
f 52 51 48
f 12 7 11
f 11 16 12
f 15 16 11
f 28 29 24
f 14 17 18
f 22 25 26
f 31 26 30
f 26 25 30
f 45 46 49
f 38 34 33
f 33 37 38
f 33 34 28
f 38 37 42
f 32 35 36
f 35 40 36
f 39 44 43
f 43 40 39
f 43 44 47
f 61 60 57
f 56 52 57
f 57 60 56
f 51 52 56
f 2 7 8
f 7 12 8
f 16 15 20
f 27 24 29
f 5 9 10
f 13 14 10
f 10 9 13
f 17 14 13
f 25 22 21
f 21 22 18
f 18 17 21
f 53 49 50
f 50 49 46
f 55 50 54
f 53 50 55
f 41 42 37
f 45 42 41
f 41 46 45
f 60 61 62
f 63 58 62
f 3 2 6
f 2 8 6
f 9 5 4
f 4 5 1
f 4 1 3
f 59 55 54
f 59 54 58
f 59 58 63
f 63 62 64
f 64 62 61
f 20 15 19
f 19 23 20
f 19 24 27
f 27 23 19
f 62 26 32
f 62 2 1
f 11 7 62
f 51 56 62
f 62 15 11
f 62 33 28
f 58 54 62
f 62 14 18
f 18 22 62
f 62 47 51
f 62 7 2
f 46 41 62
f 28 24 62
f 62 50 46
f 32 36 62
f 62 43 47
f 19 15 62
f 62 24 19
f 10 14 62
f 62 22 26
f 1 5 62
f 37 33 62
f 62 36 40
f 40 43 62
f 62 56 60
f 62 5 10
f 54 50 62
f 62 41 37
f 64 52 48
f 64 35 31
f 64 21 17
f 3 6 64
f 16 20 64
f 29 34 64
f 64 59 63
f 64 42 45
f 45 49 64
f 39 35 64
f 48 44 64
f 17 13 64
f 31 30 64
f 64 34 38
f 64 44 39
f 57 52 64
f 64 12 16
f 64 4 3
f 64 27 29
f 64 30 25
f 64 49 53
f 38 42 64
f 64 61 57
f 64 8 12
f 64 20 23
f 23 27 64
f 64 13 9
f 25 21 64
f 53 55 64
f 64 6 8
f 9 4 64
f 55 59 64

