# https://github.com/mikedh/trimesh
v 0.01221575 -0.00218845 0.01440980
v 0.01156594 -0.00218845 0.01440980
v 0.01221575 -0.00238099 0.01440980
v 0.01221575 -0.00218845 -0.01440723
v 0.01156594 -0.00220838 0.01440980
v 0.01156594 -0.00218845 -0.01440723
v 0.01208318 -0.00236353 0.01440980
v 0.01156594 -0.00246882 0.01439851
v 0.01221575 -0.00246882 0.01439851
v 0.01221575 -0.00246882 -0.01440723
v 0.01167917 -0.00225528 0.01440980
v 0.01156594 -0.00246882 -0.01440723
v 0.01187885 -0.00231825 0.01440980
f 8 9 3
f 8 3 7
f 7 13 8
f 11 5 8
f 8 13 11
f 2 1 6
f 1 4 6
f 1 3 10
f 10 4 1
f 10 3 9
f 12 10 9
f 12 9 8
f 12 6 4
f 4 10 12
f 2 6 5
f 5 12 8
f 6 12 5
f 11 1 2
f 11 3 1
f 2 5 11
f 11 7 3
f 13 7 11

