# https://github.com/mikedh/trimesh
v 0.01570623 0.00271682 0.01700245
v 0.01570623 0.00430248 0.01700245
v 0.01726271 0.00271682 0.01700245
v 0.01570623 0.00271682 0.01848731
v 0.01638139 0.00430248 0.01700245
v 0.01570623 0.00430248 0.01869984
v 0.01726271 0.00371462 0.01700245
v 0.01726271 0.00271682 0.01869984
v 0.01577633 0.00271682 0.01869984
v 0.01570623 0.00271852 0.01869984
v 0.01638139 0.00430248 0.01869984
v 0.01726271 0.00371462 0.01869984
f 4 9 10
f 1 2 5
f 5 3 1
f 5 7 3
f 3 7 12
f 12 8 3
f 4 6 2
f 4 2 1
f 4 10 6
f 1 3 4
f 3 8 4
f 8 9 4
f 6 10 11
f 11 9 8
f 10 9 11
f 8 12 11
f 2 6 11
f 11 5 2
f 7 5 11
f 11 12 7

