# https://github.com/mikedh/trimesh
v -0.02070000 0.01200000 0.01519995
v -0.02072781 0.01199783 0.01522098
v -0.02070000 0.01199904 0.01522098
v -0.02063859 0.01199639 0.01522098
v -0.02054743 0.01199333 0.01519995
v -0.02070000 0.01200000 0.01441310
v -0.02074745 0.01199791 0.01519995
v -0.02074745 0.01199695 0.01522098
v -0.02054752 0.01199237 0.01522098
v -0.02054495 0.01199301 0.01441310
v -0.02054743 0.01199333 0.01441310
v -0.02039606 0.01197341 0.01519995
v -0.02074672 0.01199791 0.01441310
v -0.02074745 0.01199791 0.01495058
v -0.02074745 0.01145001 0.01522098
v -0.02039624 0.01197244 0.01522098
v -0.02039606 0.01197341 0.01441310
v -0.02033630 0.01195919 0.01522098
v -0.02024707 0.01194031 0.01519995
v -0.02074745 0.01198891 0.01441310
v -0.02074745 0.01117935 0.01492923
v -0.02044994 0.01117935 0.01522098
v -0.02024707 0.01194031 0.01441310
v -0.02024735 0.01193943 0.01522098
v -0.02024469 0.01193959 0.01441310
v -0.02010148 0.01189444 0.01519995
v -0.02074745 0.01117935 0.01441310
v -0.01980985 0.01117935 0.01522098
v -0.02010185 0.01189355 0.01522098
v -0.02010148 0.01189444 0.01441310
v -0.02004512 0.01187009 0.01522098
v -0.01996048 0.01183603 0.01519995
v -0.01980985 0.01117935 0.01441310
v -0.01980985 0.01175473 0.01522098
v -0.01996048 0.01183603 0.01441310
v -0.01996085 0.01183515 0.01522098
v -0.01982554 0.01176469 0.01522098
v -0.01982508 0.01176550 0.01519995
v -0.01980985 0.01175577 0.01441310
v -0.01980985 0.01175577 0.01519995
v -0.01981893 0.01176051 0.01522098
v -0.01982508 0.01176550 0.01441310
f 22 15 21
f 14 13 20
f 6 13 14
f 7 8 2
f 2 1 7
f 19 24 26
f 40 38 34
f 5 1 4
f 37 38 32
f 32 36 37
f 29 26 24
f 19 12 18
f 18 24 19
f 10 11 5
f 10 12 17
f 5 12 10
f 1 2 3
f 3 4 1
f 34 38 41
f 38 37 41
f 25 23 19
f 19 26 25
f 26 30 25
f 26 29 31
f 32 26 31
f 31 36 32
f 9 12 5
f 5 4 9
f 16 18 12
f 12 9 16
f 28 22 27
f 27 33 28
f 27 22 21
f 21 15 14
f 14 27 21
f 14 8 7
f 15 8 14
f 20 27 14
f 1 14 7
f 6 14 1
f 6 1 11
f 11 1 5
f 23 17 12
f 19 23 12
f 28 33 40
f 40 34 28
f 33 39 40
f 42 40 39
f 38 40 42
f 32 38 42
f 42 35 32
f 32 35 30
f 30 26 32
f 25 13 6
f 25 27 20
f 25 39 33
f 20 13 25
f 33 27 25
f 6 11 25
f 25 17 23
f 25 42 39
f 25 10 17
f 35 42 25
f 25 30 35
f 11 10 25
f 16 22 28
f 28 34 16
f 15 22 16
f 16 8 15
f 16 2 8
f 16 29 24
f 16 3 2
f 24 18 16
f 16 37 36
f 34 41 16
f 36 31 16
f 4 3 16
f 16 41 37
f 16 31 29
f 16 9 4

