# https://github.com/mikedh/trimesh
v 0.00896762 0.00271682 0.01869984
v 0.00896762 0.00271682 0.01700245
v 0.00755005 0.00271682 0.01869984
v 0.00896762 -0.00392327 0.01869984
v 0.00755005 0.00271682 0.01700245
v 0.00896762 -0.00392327 0.01700245
v 0.00755005 -0.00369968 0.01869984
v 0.00826314 -0.00392327 0.01869984
v 0.00755005 -0.00369968 0.01700245
v 0.00826314 -0.00392327 0.01700245
f 3 1 5
f 1 2 5
f 5 7 3
f 9 7 5
f 1 4 6
f 6 2 1
f 8 4 1
f 8 1 3
f 3 7 8
f 10 5 2
f 9 5 10
f 2 6 10
f 10 7 9
f 10 8 7
f 10 6 4
f 4 8 10

