# https://github.com/mikedh/trimesh
v 0.00248030 0.01009442 0.01590000
v 0.00093568 0.01009442 0.01590000
v 0.00248030 0.00889451 0.01590000
v 0.00248030 0.01009442 -0.01590000
v 0.00093568 0.00889451 0.01590000
v 0.00093568 0.01009442 -0.01439965
v 0.00248030 0.00889451 -0.01590000
v 0.00095004 0.01009442 -0.01590000
v 0.00093568 0.00889451 -0.01439965
v 0.00095004 0.00889451 -0.01590000
f 5 3 1
f 5 1 2
f 1 3 7
f 7 4 1
f 7 8 4
f 10 8 7
f 3 5 9
f 10 7 9
f 9 7 3
f 2 1 6
f 1 4 6
f 4 8 6
f 6 5 2
f 6 9 5
f 6 8 10
f 10 9 6

