# https://github.com/mikedh/trimesh
v 0.00191955 -0.00314998 0.01603796
v 0.00191955 -0.00227716 0.01521731
v 0.00143556 -0.00227674 0.01700000
v 0.00165368 -0.00314998 0.01700000
v 0.00191955 -0.00314998 -0.01440000
v 0.00191907 -0.00227674 0.01521731
v 0.00191955 -0.00227674 0.01498679
v -0.00053186 -0.00227674 0.01700000
v -0.00053186 -0.00314998 0.01700000
v -0.00053186 -0.00314998 -0.01440000
v 0.00191955 -0.00227674 -0.01440000
v -0.00053186 -0.00227674 -0.01440000
f 1 3 4
f 2 3 1
f 3 2 6
f 7 6 2
f 9 10 5
f 9 5 1
f 1 4 9
f 9 3 8
f 9 4 3
f 10 9 12
f 12 9 8
f 5 10 12
f 12 11 5
f 1 5 7
f 5 11 7
f 7 2 1
f 8 3 7
f 7 12 8
f 11 12 7
f 3 6 7

