# https://github.com/mikedh/trimesh
v -0.00254683 -0.00752748 -0.01592925
v -0.00254683 -0.00752748 -0.01442002
v -0.00254605 -0.00751283 -0.01592925
v -0.00055336 -0.00752748 -0.01592925
v -0.00254605 -0.00751283 -0.01442002
v -0.00056117 -0.00752748 -0.01442002
v -0.00253825 -0.00745278 -0.01592925
v -0.00055395 -0.00751283 -0.01592925
v -0.00055336 -0.00752729 -0.01442002
v -0.00055336 -0.00752748 -0.01567232
v -0.00253473 -0.00742632 -0.01442002
v -0.00253473 -0.00742632 -0.01592925
v -0.00055395 -0.00751283 -0.01442002
v -0.00056527 -0.00742632 -0.01592925
v -0.00251580 -0.00734115 -0.01442002
v -0.00252166 -0.00736718 -0.01592925
v -0.00056527 -0.00742632 -0.01442002
v -0.00058420 -0.00734115 -0.01592925
v -0.00251580 -0.00734115 -0.01592925
v -0.00248965 -0.00725800 -0.01442002
v -0.00249766 -0.00728341 -0.01592925
v -0.00058420 -0.00734115 -0.01442002
v -0.00059220 -0.00731569 -0.01592925
v -0.00248965 -0.00725800 -0.01592925
v -0.00245628 -0.00717739 -0.01442002
v -0.00061035 -0.00725800 -0.01442002
v -0.00061035 -0.00725800 -0.01592925
v -0.00245628 -0.00717739 -0.01592925
v -0.00241589 -0.00710001 -0.01442002
v -0.00064372 -0.00717739 -0.01442002
v -0.00064372 -0.00717739 -0.01592925
v -0.00241589 -0.00710001 -0.01592925
v -0.00237608 -0.00703761 -0.01442002
v -0.00237569 -0.00703674 -0.01461460
v -0.00068411 -0.00710001 -0.01442002
v -0.00068411 -0.00710001 -0.01592925
v -0.00237569 -0.00703674 -0.01592925
v -0.00087731 -0.00703674 -0.01442002
v -0.00069836 -0.00707753 -0.01592925
v -0.00072431 -0.00703674 -0.01442002
v -0.00072431 -0.00703674 -0.01592925
f 33 38 34
f 9 6 10
f 4 9 10
f 8 13 9
f 8 9 4
f 21 15 20
f 20 24 21
f 19 15 21
f 7 5 11
f 11 12 7
f 11 15 16
f 16 15 19
f 16 12 11
f 29 33 34
f 5 7 3
f 23 22 18
f 27 26 23
f 26 22 23
f 41 40 39
f 36 39 35
f 35 39 40
f 10 6 2
f 1 4 10
f 10 2 1
f 40 41 37
f 40 37 34
f 34 38 40
f 25 28 24
f 25 24 20
f 17 13 8
f 8 14 17
f 17 14 22
f 14 18 22
f 27 31 30
f 30 26 27
f 1 2 3
f 2 5 3
f 34 37 32
f 32 29 34
f 28 25 32
f 25 29 32
f 39 4 1
f 1 3 39
f 37 41 39
f 39 21 24
f 39 32 37
f 39 16 19
f 24 28 39
f 39 8 4
f 27 23 39
f 14 8 39
f 39 18 14
f 39 31 27
f 19 21 39
f 39 7 12
f 12 16 39
f 39 36 31
f 39 3 7
f 28 32 39
f 39 23 18
f 2 6 35
f 35 13 17
f 38 33 35
f 35 5 2
f 35 6 9
f 9 13 35
f 33 29 35
f 20 15 35
f 35 40 38
f 11 5 35
f 17 22 35
f 35 15 11
f 35 25 20
f 35 29 25
f 35 22 26
f 26 30 35
f 31 36 35
f 35 30 31

