# https://github.com/mikedh/trimesh
v 0.00248045 -0.01103495 0.01590000
v -0.00147199 -0.01103495 0.01590000
v 0.00248045 -0.01199803 0.01590000
v 0.00248045 -0.01103495 -0.01590000
v -0.00147199 -0.01199803 0.01590000
v -0.00147199 -0.01103495 -0.01589689
v 0.00248045 -0.01231501 0.01471715
v 0.00248045 -0.01199803 -0.01590000
v -0.00147199 -0.01231581 0.01471404
v -0.00147199 -0.01199817 -0.01589689
v -0.00147199 -0.01234000 0.01462377
v -0.00147199 -0.01238169 0.01446813
v 0.00248045 -0.01240000 0.01439965
v -0.00147199 -0.01206138 -0.01566343
v -0.00147199 -0.01199964 -0.01589377
v 0.00248045 -0.01240000 -0.01439965
v -0.00147199 -0.01233586 -0.01463933
v -0.00147199 -0.01240000 0.01439965
v -0.00147199 -0.01240000 -0.01439965
f 5 7 3
f 12 18 13
f 13 7 12
f 7 5 9
f 10 8 15
f 11 12 7
f 7 9 11
f 17 16 19
f 17 8 16
f 14 15 8
f 8 17 14
f 1 4 6
f 2 1 6
f 16 18 19
f 13 18 16
f 5 3 1
f 5 1 2
f 1 3 8
f 8 4 1
f 13 16 8
f 8 7 13
f 3 7 8
f 8 6 4
f 8 10 6
f 2 6 14
f 14 5 2
f 19 18 14
f 14 9 5
f 6 10 14
f 18 12 14
f 12 11 14
f 10 15 14
f 14 11 9
f 14 17 19

