# https://github.com/mikedh/trimesh
v 0.00248045 -0.00679593 0.01700000
v 0.00094347 -0.00679593 0.01697102
v 0.00094347 -0.00679640 0.01700000
v 0.00248045 -0.00699999 0.01700000
v 0.00248045 -0.00679593 -0.01590000
v 0.00094347 -0.00679593 -0.01439928
v 0.00094347 -0.00699999 0.01700000
v 0.00248045 -0.00703674 0.01589861
v 0.00248045 -0.00703674 -0.01590000
v 0.00095009 -0.00679593 -0.01590000
v 0.00094347 -0.00703674 -0.01439928
v 0.00094347 -0.00703674 0.01589861
v 0.00095009 -0.00703674 -0.01590000
f 3 1 2
f 9 10 5
f 13 10 9
f 4 5 1
f 8 9 4
f 4 9 5
f 1 3 4
f 4 3 7
f 8 4 12
f 12 4 7
f 11 9 8
f 13 9 11
f 8 12 11
f 1 5 6
f 2 1 6
f 5 10 6
f 7 3 6
f 6 12 7
f 6 3 2
f 6 11 12
f 6 10 13
f 13 11 6

