# https://github.com/mikedh/trimesh
v -0.01871057 -0.01020318 0.01440529
v -0.01871057 -0.00955949 0.01440529
v -0.01870212 -0.01035006 0.01440529
v -0.01871057 -0.01020318 0.01590000
v -0.01871057 -0.00955949 0.01590000
v -0.01679095 -0.00955949 0.01440529
v -0.01870212 -0.01035006 0.01590000
v -0.01724267 -0.01035006 0.01440529
v -0.01679095 -0.00955949 0.01590000
v -0.01724267 -0.01035006 0.01590000
f 1 4 5
f 5 2 1
f 2 5 9
f 6 2 9
f 1 2 3
f 3 2 6
f 6 8 3
f 3 4 1
f 3 7 4
f 10 5 4
f 10 9 5
f 4 7 10
f 10 8 6
f 6 9 10
f 10 3 8
f 7 3 10

