# https://github.com/mikedh/trimesh
v 0.01674749 0.00147857 0.01613282
v 0.01684127 0.00118141 0.01613282
v 0.01674749 0.00147857 0.01470000
v 0.01492636 0.00147857 0.01613282
v 0.01684655 0.00116461 0.01613282
v 0.01684655 0.00116461 0.01470000
v 0.01492636 0.00147857 0.01470000
v 0.01492636 -0.00000058 0.01613282
v 0.01693160 0.00078128 0.01613282
v 0.01693160 0.00078128 0.01470000
v 0.01492636 0.00000000 0.01470000
v 0.01699980 -0.00000058 0.01613282
v 0.01492636 -0.00000058 0.01472945
v 0.01698052 0.00040969 0.01613282
v 0.01698275 0.00039231 0.01470000
v 0.01699269 -0.00000058 0.01470000
v 0.01699980 -0.00000058 0.01470000
v 0.01699980 0.00000000 0.01613282
v 0.01698275 0.00039231 0.01613282
v 0.01699919 0.00001767 0.01613282
v 0.01699980 0.00000000 0.01470000
f 13 11 16
f 14 15 10
f 10 9 14
f 3 1 2
f 2 6 3
f 20 21 15
f 20 18 21
f 6 2 5
f 15 14 19
f 19 20 15
f 4 1 7
f 7 1 3
f 13 8 4
f 4 7 13
f 7 11 13
f 12 8 17
f 8 13 17
f 17 13 16
f 17 7 3
f 3 6 17
f 16 11 17
f 17 11 7
f 10 15 17
f 15 21 17
f 17 6 10
f 12 17 18
f 18 17 21
f 10 6 5
f 5 9 10
f 19 8 12
f 4 8 19
f 19 1 4
f 12 18 19
f 19 14 9
f 19 2 1
f 9 5 19
f 18 20 19
f 19 5 2

