# https://github.com/mikedh/trimesh
v -0.01980969 0.00920390 -0.01590000
v -0.01980969 0.00968286 -0.01590000
v -0.01910177 0.00920390 -0.01590000
v -0.01957755 0.00920390 0.01565684
v -0.01978779 0.00920905 0.01574683
v -0.01979707 0.00933151 0.01578096
v -0.01980969 0.00999993 0.01579958
v -0.01959252 0.01000173 -0.01590000
v -0.01980969 0.01000173 -0.01439508
v -0.01910177 0.01000173 -0.01590000
v -0.01910177 0.00920390 0.01431327
v -0.01953937 0.00927637 0.01567236
v -0.01967200 0.00921999 0.01571269
v -0.01940029 0.00920390 0.01549859
v -0.01948442 0.00921397 0.01559478
v -0.01960686 0.00933299 0.01572821
v -0.01968087 0.00939508 0.01576855
v -0.01963617 0.00963569 0.01579337
v -0.01977053 0.00946591 0.01579337
v -0.01961019 0.00948715 0.01576855
v -0.01970394 0.00967482 0.01579958
v -0.01958323 0.00997603 0.01579958
v -0.01939994 0.01000173 0.01577165
v -0.01980969 0.01000173 0.01488731
v -0.01912574 0.00998728 0.01559478
v -0.01910177 0.00977220 0.01549859
v -0.01930037 0.01000126 0.01573131
v -0.01920730 0.00999423 0.01567236
v -0.01910329 0.00920390 0.01439705
v -0.01910177 0.00963460 0.01540240
v -0.01950354 0.00941249 0.01570959
v -0.01942635 0.00935829 0.01563822
v -0.01935102 0.00920390 0.01541171
v -0.01929621 0.00926708 0.01540240
v -0.01932254 0.00928559 0.01547377
v -0.01936855 0.00931768 0.01556065
v -0.01958669 0.00973081 0.01579337
v -0.01972584 0.00956806 0.01579647
v -0.01954789 0.00958501 0.01576855
v -0.01949425 0.00968763 0.01576855
v -0.01965765 0.00976385 0.01579958
v -0.01958247 0.00984311 0.01579647
v -0.01950222 0.00996658 0.01579027
v -0.01941519 0.00990551 0.01576855
v -0.01912519 0.00984319 0.01555755
v -0.01919816 0.00984741 0.01563822
v -0.01911736 0.00967974 0.01547066
v -0.01917266 0.00969387 0.01556065
v -0.01928942 0.00987185 0.01570959
v -0.01911466 0.00954783 0.01532793
v -0.01920668 0.00938789 0.01536516
v -0.01929462 0.00922944 0.01531552
v -0.01914695 0.00952581 0.01540240
v -0.01917598 0.00953940 0.01547377
v -0.01935345 0.00947263 0.01563822
v -0.01943529 0.00951988 0.01570959
v -0.01924375 0.00940929 0.01547377
v -0.01929233 0.00943741 0.01556065
v -0.01944998 0.00979493 0.01576855
v -0.01937652 0.00963265 0.01570959
v -0.01932774 0.00975034 0.01570959
v -0.01923890 0.00971800 0.01563822
v -0.01922685 0.00956314 0.01556065
v -0.01929087 0.00959297 0.01563822
f 1 4 5
f 2 9 8
f 6 7 1
f 1 5 6
f 23 24 7
f 27 10 23
f 39 31 56
f 22 23 7
f 13 5 4
f 17 6 5
f 29 50 51
f 11 30 29
f 30 50 29
f 28 10 27
f 28 25 10
f 10 25 26
f 62 61 60
f 56 31 55
f 55 60 56
f 7 6 19
f 7 19 21
f 21 19 38
f 21 37 41
f 23 22 43
f 43 37 23
f 31 39 20
f 6 17 20
f 53 50 30
f 51 50 53
f 33 29 52
f 52 29 51
f 49 61 62
f 49 28 27
f 49 59 61
f 45 26 25
f 63 55 58
f 4 14 15
f 62 60 64
f 60 55 64
f 64 63 62
f 55 63 64
f 23 37 44
f 37 59 44
f 27 23 44
f 44 49 27
f 59 49 44
f 40 59 37
f 40 39 56
f 56 60 40
f 40 60 61
f 61 59 40
f 42 43 22
f 37 43 42
f 42 22 41
f 41 37 42
f 31 20 16
f 16 20 17
f 5 13 16
f 16 17 5
f 18 20 39
f 39 40 18
f 18 40 37
f 38 19 18
f 18 19 6
f 6 20 18
f 18 21 38
f 37 21 18
f 30 26 47
f 33 52 34
f 34 52 51
f 34 14 33
f 34 35 14
f 46 45 25
f 25 28 46
f 46 49 62
f 28 49 46
f 26 45 48
f 48 47 26
f 62 63 48
f 48 46 62
f 45 46 48
f 32 55 31
f 51 53 57
f 57 34 51
f 35 34 57
f 54 53 30
f 30 47 54
f 54 57 53
f 54 48 63
f 47 48 54
f 54 63 58
f 58 57 54
f 4 15 12
f 15 32 12
f 12 32 31
f 12 13 4
f 31 16 12
f 12 16 13
f 36 32 15
f 36 15 14
f 58 55 36
f 55 32 36
f 14 35 36
f 36 57 58
f 35 57 36
f 1 2 10
f 10 3 1
f 10 2 8
f 24 2 1
f 1 7 24
f 9 2 24
f 23 10 8
f 9 24 23
f 8 9 23
f 3 10 26
f 26 11 3
f 26 30 11
f 1 3 14
f 14 4 1
f 3 11 14
f 11 29 14
f 14 29 33
f 41 22 21
f 21 22 7

