# https://github.com/mikedh/trimesh
v -0.01895290 -0.01020733 0.01522271
v -0.01949999 -0.01020733 0.01522271
v -0.01895213 -0.01022433 0.01522271
v -0.01895191 -0.01020733 0.01519995
v -0.01972907 -0.01020733 0.01497090
v -0.01972907 -0.01050012 0.01522271
v -0.01895107 -0.01025012 0.01522271
v -0.01895000 -0.01025012 0.01519995
v -0.01895183 -0.01020835 0.01441805
v -0.01895191 -0.01020733 0.01497610
v -0.01972907 -0.01020733 0.01441805
v -0.01972907 -0.01170311 0.01522271
v -0.01895389 -0.01031621 0.01522271
v -0.01895000 -0.01025012 0.01441805
v -0.01895671 -0.01040252 0.01519995
v -0.01896426 -0.01020733 0.01441805
v -0.01972907 -0.01170443 0.01441805
v -0.01972907 -0.01170370 0.01521318
v -0.01971047 -0.01169139 0.01522271
v -0.01895770 -0.01040252 0.01522271
v -0.01895671 -0.01040252 0.01441805
v -0.01896632 -0.01046818 0.01522271
v -0.01897662 -0.01055391 0.01519995
v -0.01895717 -0.01040604 0.01441805
v -0.01969620 -0.01168348 0.01441805
v -0.01972907 -0.01170443 0.01519995
v -0.01969620 -0.01168348 0.01519995
v -0.01969674 -0.01168260 0.01522271
v -0.01897761 -0.01055376 0.01522271
v -0.01897662 -0.01055391 0.01441805
v -0.01900964 -0.01070294 0.01519995
v -0.01957510 -0.01159057 0.01441805
v -0.01957510 -0.01159057 0.01519995
v -0.01957571 -0.01158969 0.01522271
v -0.01901063 -0.01070280 0.01522271
v -0.01900964 -0.01070294 0.01441805
v -0.01903053 -0.01076596 0.01522271
v -0.01905554 -0.01084861 0.01519995
v -0.01946506 -0.01148974 0.01441805
v -0.01946254 -0.01148740 0.01519995
v -0.01946323 -0.01148667 0.01522271
v -0.01905554 -0.01084861 0.01441805
v -0.01905654 -0.01084831 0.01522271
v -0.01911487 -0.01098914 0.01522271
v -0.01911404 -0.01098944 0.01519995
v -0.01946254 -0.01148740 0.01441805
v -0.01935936 -0.01137485 0.01519995
v -0.01936013 -0.01137412 0.01522271
v -0.01911404 -0.01098944 0.01441805
v -0.01918534 -0.01112441 0.01522271
v -0.01918450 -0.01112499 0.01519995
v -0.01911556 -0.01099252 0.01441805
v -0.01935936 -0.01137485 0.01441805
v -0.01926861 -0.01125644 0.01441805
v -0.01926656 -0.01125366 0.01519995
v -0.01926732 -0.01125307 0.01522271
v -0.01918450 -0.01112499 0.01441805
v -0.01926656 -0.01125366 0.01441805
f 8 9 4
f 8 4 3
f 1 3 4
f 9 16 10
f 10 4 9
f 5 6 2
f 14 9 8
f 30 24 23
f 28 27 33
f 33 34 28
f 35 23 29
f 31 23 35
f 15 24 21
f 15 23 24
f 49 45 52
f 51 57 52
f 52 45 51
f 47 53 54
f 33 40 41
f 41 34 33
f 41 40 47
f 47 48 41
f 19 26 27
f 27 28 19
f 22 29 23
f 23 15 22
f 55 54 58
f 47 54 55
f 56 55 51
f 56 48 47
f 47 55 56
f 33 32 39
f 39 46 40
f 39 40 33
f 18 19 12
f 26 19 18
f 20 22 15
f 45 38 44
f 38 43 44
f 44 51 45
f 37 43 38
f 37 38 31
f 37 31 35
f 13 15 8
f 13 20 15
f 50 56 51
f 51 44 50
f 8 3 7
f 7 13 8
f 2 11 5
f 2 16 11
f 4 10 2
f 2 1 4
f 2 10 16
f 25 26 17
f 27 26 25
f 25 32 33
f 33 27 25
f 31 36 30
f 30 23 31
f 21 14 15
f 15 14 8
f 46 53 47
f 47 40 46
f 38 49 42
f 45 49 38
f 42 36 38
f 36 31 38
f 55 58 57
f 57 51 55
f 17 11 39
f 39 25 17
f 39 16 9
f 11 16 39
f 52 57 39
f 9 14 39
f 39 49 52
f 39 24 30
f 39 14 21
f 21 24 39
f 30 36 39
f 39 54 53
f 39 36 42
f 57 58 39
f 32 25 39
f 42 49 39
f 58 54 39
f 53 46 39
f 18 6 5
f 5 11 18
f 18 11 17
f 12 6 18
f 17 26 18
f 7 6 12
f 3 1 7
f 7 41 48
f 1 2 7
f 7 2 6
f 56 50 7
f 12 19 7
f 7 28 34
f 35 29 7
f 34 41 7
f 7 19 28
f 29 22 7
f 48 56 7
f 7 37 35
f 22 20 7
f 7 44 43
f 43 37 7
f 20 13 7
f 7 50 44

