# https://github.com/mikedh/trimesh
v 0.01414377 0.00301868 0.01088010
v 0.01144493 0.00301868 0.01088010
v 0.01414377 0.00257640 0.01088010
v 0.01414377 0.00301868 -0.01439980
v 0.01144493 0.00257640 0.01088010
v 0.01144493 0.00301868 -0.01437753
v 0.01414377 0.00257640 -0.01439980
v 0.01403388 0.00257640 -0.01440723
v 0.01399980 0.00259809 -0.01440723
v 0.01376785 0.00271893 -0.01440723
v 0.01352586 0.00281904 -0.01440723
v 0.01327621 0.00289775 -0.01440723
v 0.01302075 0.00295438 -0.01440723
v 0.01276159 0.00298854 -0.01440723
v 0.01250006 0.00299997 -0.01440723
v 0.01149222 0.00301868 -0.01439980
v 0.01144493 0.00257640 -0.01440723
v 0.01144493 0.00301855 -0.01439980
v 0.01223878 0.00298854 -0.01440723
v 0.01144493 0.00280704 -0.01440723
v 0.01197910 0.00295438 -0.01440723
v 0.01172364 0.00289775 -0.01440723
v 0.01147399 0.00281904 -0.01440723
f 8 4 7
f 4 15 16
f 16 15 18
f 18 6 16
f 14 15 4
f 18 23 20
f 9 4 8
f 9 10 4
f 11 12 4
f 4 10 11
f 4 12 13
f 13 14 4
f 18 15 19
f 19 21 18
f 22 23 18
f 18 21 22
f 5 3 1
f 5 1 2
f 1 3 7
f 7 4 1
f 3 5 17
f 17 7 3
f 8 7 17
f 2 1 16
f 1 4 16
f 16 6 2
f 20 5 2
f 2 6 20
f 20 6 18
f 20 17 5
f 8 17 22
f 17 20 22
f 22 13 12
f 15 14 22
f 22 9 8
f 12 11 22
f 22 20 23
f 22 19 15
f 10 9 22
f 22 11 10
f 14 13 22
f 21 19 22

