# https://github.com/mikedh/trimesh
v -0.01910170 0.01023173 0.01559616
v -0.01912658 0.01023173 0.01562409
v -0.01910170 0.01021265 0.01559616
v -0.01910170 0.01023173 -0.01590000
v -0.01916519 0.01023173 0.01565822
v -0.01917018 0.01011617 0.01565822
v -0.01913178 0.01011280 0.01562409
v -0.01910170 0.01011016 0.01558996
v -0.01910170 0.01000181 -0.01590000
v -0.01955079 0.01023173 -0.01590000
v -0.01921309 0.01023173 0.01569545
v -0.01918529 0.01000181 0.01565822
v -0.01914634 0.01000181 0.01562409
v -0.01921156 0.01011977 0.01568924
v -0.01922709 0.01000181 0.01568924
v -0.01910170 0.01000646 0.01557444
v -0.01959259 0.01000181 -0.01590000
v -0.01910170 0.01000181 0.01557134
v -0.01980975 0.01023173 -0.01439826
v -0.01925087 0.01023173 0.01571717
v -0.01925558 0.01012362 0.01571717
v -0.01911071 0.01000181 0.01558375
v -0.01927027 0.01000181 0.01571717
v -0.01980975 0.01000181 -0.01439826
v -0.01980975 0.01023173 0.01488873
v -0.01929724 0.01023173 0.01574199
v -0.01930181 0.01012765 0.01574199
v -0.01929245 0.01000181 0.01572958
v -0.01980975 0.01000181 0.01488873
v -0.01949998 0.01023173 0.01579784
v -0.01934562 0.01023173 0.01576371
v -0.01934999 0.01013188 0.01576371
v -0.01931775 0.01000628 0.01574199
v -0.01931879 0.01000181 0.01574199
v -0.01949797 0.01000181 0.01579474
v -0.01949998 0.01003717 0.01579474
v -0.01945507 0.01023173 0.01579164
v -0.01939553 0.01023173 0.01577923
v -0.01939968 0.01013623 0.01577923
v -0.01936544 0.01001468 0.01576371
v -0.01936828 0.01000181 0.01576371
v -0.01941937 0.01000181 0.01577923
v -0.01941459 0.01002335 0.01577923
f 30 25 29
f 19 10 17
f 17 24 19
f 29 35 36
f 36 30 29
f 36 35 30
f 21 26 27
f 6 7 2
f 14 11 21
f 6 11 14
f 21 23 14
f 20 26 21
f 21 11 20
f 30 35 37
f 13 8 7
f 13 7 6
f 6 12 13
f 28 23 21
f 21 27 28
f 7 8 3
f 1 2 3
f 3 2 7
f 5 11 6
f 6 2 5
f 15 14 23
f 15 12 6
f 6 14 15
f 38 37 39
f 39 37 35
f 39 31 38
f 8 13 16
f 18 16 22
f 22 16 13
f 33 28 27
f 26 31 32
f 32 27 26
f 32 33 27
f 31 39 32
f 35 42 43
f 43 39 35
f 43 42 41
f 28 33 34
f 34 33 41
f 41 33 40
f 33 32 40
f 40 43 41
f 40 32 39
f 39 43 40
f 24 25 19
f 29 25 24
f 17 10 4
f 17 4 9
f 1 4 5
f 5 10 19
f 4 10 5
f 19 25 5
f 25 30 5
f 26 20 5
f 5 2 1
f 30 37 5
f 5 31 26
f 5 20 11
f 5 37 38
f 38 31 5
f 16 4 1
f 9 4 16
f 16 18 9
f 1 3 16
f 16 3 8
f 29 24 34
f 9 18 34
f 34 17 9
f 24 17 34
f 34 35 29
f 18 22 34
f 34 15 23
f 34 13 12
f 23 28 34
f 12 15 34
f 34 42 35
f 34 22 13
f 41 42 34

