# https://github.com/mikedh/trimesh
v -0.01428594 -0.00955949 0.01440071
v -0.01620902 -0.00955949 0.01440071
v -0.01428594 -0.01035006 0.01440071
v -0.01428594 -0.00955949 0.01026056
v -0.01575733 -0.01035006 0.01440071
v -0.01649888 -0.00955949 0.01439990
v -0.01649888 -0.01035006 0.01439990
v -0.01428594 -0.01035006 0.01026056
v -0.01649888 -0.00955949 0.01026056
v -0.01649888 -0.01035006 0.01026056
f 7 2 6
f 2 7 5
f 1 4 9
f 6 2 9
f 9 2 1
f 9 7 6
f 10 7 9
f 8 4 1
f 1 3 8
f 8 9 4
f 10 9 8
f 5 7 10
f 5 8 3
f 10 8 5
f 1 2 5
f 5 3 1

