# https://github.com/mikedh/trimesh
v -0.01766047 0.01090246 -0.00215654
v -0.01766047 0.01239985 -0.00215654
v -0.01683940 0.01090246 -0.00215654
v -0.01766047 0.01090246 0.01558716
v -0.01683940 0.01239985 -0.00215654
v -0.01766047 0.01239985 0.01439941
v -0.01683940 0.01090246 0.01439941
v -0.01765959 0.01090246 0.01590000
v -0.01766047 0.01090334 0.01590000
v -0.01683940 0.01239985 0.01439941
v -0.01766047 0.01239766 0.01440825
v -0.01736500 0.01216356 0.01590000
v -0.01719966 0.01222996 0.01590000
v -0.01702926 0.01228214 0.01590000
v -0.01685500 0.01231967 0.01590000
v -0.01683940 0.01232172 0.01590000
v -0.01683940 0.01091815 0.01590000
v -0.01686938 0.01090246 0.01590000
v -0.01766047 0.01199996 0.01590000
v -0.01766047 0.01239062 0.01443476
v -0.01752415 0.01208323 0.01590000
f 8 9 4
f 10 6 16
f 17 18 7
f 12 13 6
f 6 13 14
f 16 6 15
f 6 14 15
f 19 21 20
f 11 20 21
f 11 21 12
f 11 12 6
f 1 2 5
f 5 3 1
f 10 5 2
f 2 6 10
f 3 5 7
f 7 10 16
f 16 17 7
f 5 10 7
f 1 3 7
f 7 4 1
f 8 4 7
f 7 18 8
f 15 17 16
f 15 9 8
f 8 18 15
f 15 18 17
f 15 19 9
f 15 21 19
f 13 12 15
f 15 14 13
f 12 21 15
f 11 2 1
f 1 4 11
f 11 4 9
f 11 6 2
f 9 19 11
f 19 20 11

