# https://github.com/mikedh/trimesh
v -0.01918736 -0.01020722 0.01407785
v -0.01918736 -0.00964278 0.01407785
v -0.01871062 -0.01020722 0.01407785
v -0.01918736 -0.01020722 0.01537870
v -0.01871062 -0.00964278 0.01407785
v -0.01918736 -0.00964278 0.01537870
v -0.01871062 -0.01020722 0.01437890
v -0.01897968 -0.01020722 0.01537870
v -0.01871062 -0.00964278 0.01537870
v -0.01871253 -0.01020722 0.01440004
v -0.01871062 -0.01020313 0.01537870
v -0.01897226 -0.01020722 0.01535527
f 11 10 7
f 11 8 12
f 12 10 11
f 1 2 5
f 5 3 1
f 6 2 1
f 1 4 6
f 6 5 2
f 9 5 6
f 8 11 9
f 9 6 8
f 8 6 4
f 3 5 7
f 7 5 9
f 9 11 7
f 1 3 12
f 12 4 1
f 12 8 4
f 3 7 12
f 12 7 10

