# https://github.com/mikedh/trimesh
v -0.02072368 0.01199379 0.01526940
v -0.02074745 0.01145009 0.01522112
v -0.02072368 0.01197163 0.01537632
v -0.02054866 0.01197857 0.01532980
v -0.02051709 0.01198805 0.01522894
v -0.02044991 0.01117943 0.01580000
v -0.02072368 0.01147664 0.01579428
v -0.02072368 0.01159494 0.01576538
v -0.02072368 0.01172481 0.01570282
v -0.02072368 0.01184137 0.01560094
v -0.02072368 0.01193057 0.01547684
v -0.02036630 0.01196549 0.01522894
v -0.02021817 0.01192986 0.01522894
v -0.01980985 0.01117943 0.01522112
v -0.02044991 0.01117943 0.01522112
v -0.02055142 0.01194724 0.01542942
v -0.02040402 0.01192786 0.01542942
v -0.02039860 0.01195880 0.01532980
v -0.01987997 0.01120638 0.01578844
v -0.02000185 0.01121937 0.01579683
v -0.02015750 0.01129232 0.01579881
v -0.02029324 0.01136750 0.01579711
v -0.02059189 0.01147480 0.01579411
v -0.02058400 0.01157525 0.01577161
v -0.02057555 0.01167124 0.01573166
v -0.02056794 0.01175909 0.01567551
v -0.02056114 0.01183578 0.01560491
v -0.02055564 0.01189916 0.01552206
v -0.02025093 0.01192603 0.01532980
v -0.02010436 0.01188665 0.01528328
v -0.01993384 0.01182064 0.01522894
v -0.01981838 0.01175487 0.01527047
v -0.01981104 0.01153132 0.01563709
v -0.01981471 0.01130109 0.01575569
v -0.02041237 0.01188035 0.01552206
v -0.02025910 0.01189566 0.01542942
v -0.01991612 0.01136981 0.01575767
v -0.02006022 0.01135841 0.01578515
v -0.02015925 0.01140991 0.01578515
v -0.02041347 0.01144108 0.01579246
v -0.02024093 0.01151147 0.01576662
v -0.02034289 0.01158243 0.01575376
v -0.02045422 0.01164318 0.01573665
v -0.02043688 0.01174179 0.01567551
v -0.02042348 0.01181769 0.01560491
v -0.02011740 0.01185101 0.01542942
v -0.01996679 0.01182255 0.01532980
v -0.01982462 0.01173023 0.01538340
v -0.01984160 0.01166183 0.01552110
v -0.01992264 0.01159662 0.01564185
v -0.01996403 0.01152495 0.01570548
v -0.01983279 0.01143526 0.01570707
v -0.02028792 0.01178763 0.01560491
v -0.02027158 0.01184902 0.01552206
v -0.02001038 0.01144467 0.01575376
v -0.02011712 0.01150023 0.01575376
v -0.02019660 0.01163321 0.01570548
v -0.02031068 0.01170257 0.01568254
v -0.02013658 0.01179816 0.01553243
v -0.02000038 0.01175032 0.01552206
v -0.01998000 0.01179409 0.01542942
v -0.02002727 0.01169268 0.01560491
v -0.02006453 0.01161288 0.01568254
v -0.02016824 0.01171110 0.01564185
f 13 14 2
f 2 14 15
f 15 6 2
f 14 6 15
f 2 6 7
f 19 6 14
f 2 1 5
f 32 33 14
f 14 33 34
f 34 19 14
f 6 19 20
f 12 13 2
f 2 5 12
f 14 13 31
f 31 32 14
f 33 32 48
f 2 10 11
f 9 10 2
f 3 1 2
f 2 11 3
f 2 7 8
f 8 9 2
f 13 12 29
f 19 34 37
f 38 20 19
f 19 37 38
f 38 37 55
f 7 22 23
f 18 12 5
f 18 29 12
f 32 31 47
f 47 48 32
f 47 61 48
f 9 8 25
f 24 25 8
f 43 25 24
f 24 39 41
f 24 8 7
f 7 23 24
f 55 37 52
f 52 34 33
f 52 37 34
f 39 22 21
f 20 38 21
f 21 38 39
f 6 20 21
f 21 7 6
f 21 22 7
f 33 48 49
f 49 50 33
f 62 50 49
f 48 61 49
f 41 39 56
f 56 38 55
f 39 38 56
f 44 25 43
f 4 18 5
f 4 5 1
f 1 3 4
f 13 29 30
f 30 31 13
f 30 47 31
f 42 24 41
f 43 24 42
f 42 57 43
f 41 56 42
f 42 56 57
f 39 24 40
f 40 24 23
f 40 22 39
f 40 23 22
f 33 50 51
f 51 52 33
f 55 52 51
f 51 56 55
f 57 56 51
f 61 47 46
f 46 30 29
f 47 30 46
f 29 18 17
f 18 4 17
f 45 44 53
f 43 57 58
f 58 44 43
f 58 57 64
f 64 53 58
f 58 53 44
f 9 25 26
f 25 44 26
f 10 9 26
f 26 27 10
f 45 27 26
f 26 44 45
f 63 51 50
f 63 62 64
f 63 50 62
f 64 57 63
f 57 51 63
f 61 46 60
f 60 49 61
f 62 49 60
f 54 46 36
f 36 46 29
f 29 17 36
f 16 17 4
f 16 3 11
f 16 4 3
f 45 53 35
f 35 53 54
f 35 27 45
f 54 36 35
f 35 36 17
f 17 16 35
f 59 46 54
f 59 60 46
f 54 53 59
f 62 60 59
f 64 62 59
f 59 53 64
f 27 35 28
f 28 11 10
f 10 27 28
f 28 16 11
f 28 35 16

