# https://github.com/mikedh/trimesh
v -0.02094474 0.00842090 -0.01590000
v -0.02045232 0.00842090 -0.01590000
v -0.02094474 0.00842090 0.01439856
v -0.02094474 0.00905384 -0.01590000
v -0.02045232 0.00905384 -0.01590000
v -0.02045232 0.00842090 0.01439856
v -0.02069995 0.00850577 0.01527665
v -0.02085199 0.00851240 0.01527665
v -0.02094474 0.00852393 0.01527044
v -0.02094474 0.00905384 0.01519598
v -0.02045232 0.00905384 0.01519598
v -0.02045232 0.00852560 0.01527975
v -0.02054801 0.00851240 0.01527665
v -0.02069995 0.00852052 0.01535422
v -0.02085002 0.00853489 0.01537904
v -0.02094474 0.00853731 0.01534181
v -0.02094474 0.00904993 0.01579481
v -0.02069995 0.00904993 0.01579791
v -0.02045232 0.00904869 0.01579481
v -0.02045232 0.00853985 0.01535422
v -0.02054999 0.00853489 0.01537904
v -0.02069995 0.00853626 0.01540386
v -0.02084650 0.00857473 0.01547523
v -0.02094474 0.00855534 0.01540386
v -0.02094474 0.00875323 0.01567070
v -0.02094460 0.00884158 0.01572655
v -0.02094002 0.00891636 0.01576378
v -0.02093563 0.00896648 0.01577930
v -0.02081150 0.00897503 0.01578240
v -0.02069995 0.00897020 0.01578240
v -0.02058850 0.00897503 0.01578240
v -0.02046283 0.00896679 0.01577930
v -0.02045854 0.00891667 0.01576378
v -0.02045232 0.00886710 0.01574206
v -0.02045232 0.00855571 0.01540386
v -0.02045232 0.00857591 0.01545350
v -0.02055351 0.00857473 0.01547523
v -0.02069995 0.00856835 0.01547523
v -0.02069995 0.00862448 0.01556210
v -0.02084163 0.00863068 0.01556210
v -0.02094474 0.00862411 0.01553728
v -0.02094474 0.00858384 0.01546902
v -0.02094474 0.00869598 0.01562416
v -0.02083546 0.00870100 0.01563967
v -0.02083016 0.00876147 0.01568932
v -0.02082630 0.00880546 0.01571724
v -0.02082225 0.00885167 0.01574206
v -0.02081806 0.00889988 0.01576378
v -0.02069995 0.00889473 0.01576378
v -0.02058195 0.00889988 0.01576378
v -0.02057775 0.00885167 0.01574206
v -0.02057370 0.00880546 0.01571724
v -0.02045232 0.00880118 0.01570483
v -0.02045232 0.00861853 0.01552797
v -0.02055838 0.00863068 0.01556210
v -0.02069995 0.00869505 0.01563967
v -0.02094474 0.00865627 0.01557762
v -0.02069995 0.00875577 0.01568932
v -0.02069995 0.00879994 0.01571724
v -0.02069995 0.00884635 0.01574206
v -0.02056985 0.00876147 0.01568932
v -0.02045232 0.00873520 0.01565829
v -0.02045232 0.00868049 0.01560554
v -0.02056455 0.00870100 0.01563967
f 10 17 18
f 18 11 10
f 3 6 7
f 19 11 18
f 8 9 3
f 3 7 8
f 6 12 13
f 13 7 6
f 14 8 7
f 7 13 14
f 37 38 22
f 37 39 38
f 38 39 23
f 22 38 23
f 42 24 23
f 20 13 12
f 9 8 16
f 21 37 22
f 21 20 35
f 22 14 21
f 21 14 13
f 13 20 21
f 54 37 36
f 36 21 35
f 37 21 36
f 31 19 18
f 31 32 19
f 45 25 44
f 42 23 41
f 8 14 15
f 15 16 8
f 24 16 15
f 15 14 22
f 22 23 15
f 15 23 24
f 17 25 26
f 26 27 17
f 26 25 45
f 17 27 28
f 18 17 28
f 28 29 18
f 49 32 30
f 32 31 30
f 30 28 49
f 29 28 30
f 18 29 30
f 30 31 18
f 43 44 25
f 57 41 40
f 40 43 57
f 40 23 39
f 40 41 23
f 44 43 40
f 49 28 48
f 48 28 27
f 48 60 49
f 33 34 19
f 19 32 33
f 56 40 39
f 44 40 56
f 45 44 56
f 61 56 64
f 46 26 45
f 50 32 49
f 50 33 32
f 34 33 50
f 49 60 50
f 64 63 62
f 53 61 62
f 62 61 64
f 54 63 55
f 55 37 54
f 39 37 55
f 55 63 64
f 55 56 39
f 64 56 55
f 45 56 58
f 56 61 58
f 58 46 45
f 53 34 52
f 52 61 53
f 52 58 61
f 27 26 47
f 26 46 47
f 47 48 27
f 60 48 47
f 34 50 51
f 51 52 34
f 51 50 60
f 58 52 59
f 46 58 59
f 59 51 60
f 52 51 59
f 60 47 59
f 59 47 46
f 1 4 5
f 5 2 1
f 1 2 6
f 6 3 1
f 10 5 4
f 10 11 5
f 43 4 1
f 1 3 43
f 43 10 4
f 17 10 43
f 3 9 43
f 43 25 17
f 43 24 42
f 9 16 43
f 42 41 43
f 43 16 24
f 43 41 57
f 2 5 62
f 62 6 2
f 5 11 62
f 62 12 6
f 11 19 62
f 54 36 62
f 62 20 12
f 35 20 62
f 62 36 35
f 19 34 62
f 62 34 53
f 62 63 54

