# https://github.com/mikedh/trimesh
v 0.01114780 0.00198379 0.01613282
v 0.01060613 0.00198379 0.01613282
v 0.01114780 0.00147871 0.01613282
v 0.01114780 0.00198379 0.01470006
v 0.01060613 0.00147871 0.01613282
v 0.01060613 0.00198379 0.01470006
v 0.01114780 0.00147871 0.01440980
v 0.01114780 0.00198151 0.01440980
v 0.01060613 0.00147871 0.01470006
v 0.01112913 0.00196960 0.01440980
v 0.01112341 0.00196594 0.01440980
v 0.01095726 0.00183847 0.01440980
v 0.01080802 0.00170171 0.01440980
v 0.01080299 0.00169706 0.01440980
v 0.01066150 0.00154270 0.01440980
v 0.01061244 0.00147871 0.01440980
f 8 6 4
f 16 9 6
f 15 16 6
f 6 14 15
f 11 12 6
f 13 14 6
f 6 12 13
f 10 6 8
f 10 11 6
f 5 3 1
f 5 1 2
f 1 3 4
f 7 8 4
f 3 7 4
f 2 1 4
f 4 6 2
f 9 5 2
f 2 6 9
f 3 5 16
f 16 7 3
f 5 9 16
f 10 8 7
f 7 16 10
f 16 15 10
f 14 13 10
f 10 15 14
f 12 11 10
f 10 13 12

