# https://github.com/mikedh/trimesh
v 0.00681787 -0.00596213 0.01869984
v 0.00755005 -0.00619974 0.01869984
v 0.00681787 -0.00596213 0.01700245
v 0.00448197 -0.00596213 0.01869984
v 0.00755005 -0.00868631 0.01869984
v 0.00755005 -0.00619974 0.01700245
v 0.00448197 -0.00596213 0.01700245
v 0.00483965 -0.00642803 0.01869984
v 0.00749990 -0.00866017 0.01869984
v 0.00755005 -0.00868631 0.01700245
v 0.00483965 -0.00642803 0.01700245
v 0.00523998 -0.00686485 0.01700245
v 0.00542918 -0.00707127 0.01869984
v 0.00726354 -0.00850976 0.01700245
v 0.00749990 -0.00866017 0.01700245
v 0.00676411 -0.00819134 0.01869984
v 0.00542918 -0.00707127 0.01700245
v 0.00607187 -0.00766037 0.01869984
v 0.00676411 -0.00819134 0.01700245
v 0.00654187 -0.00802093 0.01700245
v 0.00607187 -0.00766037 0.01700245
f 20 16 18
f 20 18 21
f 13 8 12
f 12 17 13
f 16 20 19
f 11 12 8
f 14 9 16
f 16 19 14
f 9 14 15
f 6 1 2
f 3 1 6
f 4 1 7
f 7 1 3
f 2 5 10
f 10 6 2
f 18 13 17
f 21 18 17
f 9 5 2
f 9 1 4
f 2 1 9
f 4 8 9
f 9 13 18
f 18 16 9
f 9 8 13
f 4 7 11
f 11 8 4
f 3 6 15
f 21 17 15
f 15 7 3
f 6 10 15
f 15 20 21
f 15 11 7
f 17 12 15
f 15 19 20
f 12 11 15
f 15 14 19
f 15 10 5
f 5 9 15

